# vtk DataFile Version 3.0
MachLine results file. Generated by MachLine, USU AeroLab (c) 2023.
ASCII
DATASET POLYDATA
POINTS                   7 float
  0.567036768980E+00  0.000000000000E+00  0.000000000000E+00
  0.283518384490E+00  0.000000000000E+00 -0.291561459230E-01
  0.283518384490E+00  0.176355406690E+01  0.000000000000E+00
  0.000000000000E+00  0.000000000000E+00  0.000000000000E+00
  0.283518384490E+00  0.000000000000E+00  0.291561459230E-01
  0.283518384490E+00 -0.176355406690E+01  0.000000000000E+00
  0.567036768980E+00  0.000000000000E+00  0.000000000000E+00
POLYGONS                   8                  32
3                   0                   1                   2
3                   1                   3                   2
3                   3                   4                   2
3                   4                   6                   2
3                   0                   5                   1
3                   1                   5                   3
3                   3                   5                   4
3                   4                   5                   6
CELL_DATA                   8
NORMALS normals float
  0.102283551729E+00  0.164436508585E-01 -0.994619365080E+00
 -0.102283551729E+00  0.164436508585E-01 -0.994619365080E+00
 -0.102283551729E+00  0.164436508585E-01  0.994619365080E+00
  0.102283551729E+00  0.164436508585E-01  0.994619365080E+00
  0.102283551729E+00 -0.164436508585E-01 -0.994619365080E+00
 -0.102283551729E+00 -0.164436508585E-01 -0.994619365080E+00
 -0.102283551729E+00 -0.164436508585E-01  0.994619365080E+00
  0.102283551729E+00 -0.164436508585E-01  0.994619365080E+00
SCALARS inclination float 1
LOOKUP_TABLE default
  0.100000000000E+01
  0.100000000000E+01
  0.100000000000E+01
  0.100000000000E+01
  0.100000000000E+01
  0.100000000000E+01
  0.100000000000E+01
  0.100000000000E+01
SCALARS distribution_order float 1
LOOKUP_TABLE default
  0.100000000000E+01
  0.100000000000E+01
  0.100000000000E+01
  0.100000000000E+01
  0.100000000000E+01
  0.100000000000E+01
  0.100000000000E+01
  0.100000000000E+01
SCALARS N_discontinuous_edges float 1
LOOKUP_TABLE default
  0.200000000000E+01
  0.200000000000E+01
  0.200000000000E+01
  0.200000000000E+01
  0.200000000000E+01
  0.200000000000E+01
  0.200000000000E+01
  0.200000000000E+01
VECTORS centroid float
  0.378024512653E+00  0.587851355633E+00 -0.971871530767E-02
  0.189012256327E+00  0.587851355633E+00 -0.971871530767E-02
  0.189012256327E+00  0.587851355633E+00  0.971871530767E-02
  0.378024512653E+00  0.587851355633E+00  0.971871530767E-02
  0.378024512653E+00 -0.587851355633E+00 -0.971871530767E-02
  0.189012256327E+00 -0.587851355633E+00 -0.971871530767E-02
  0.189012256327E+00 -0.587851355633E+00  0.971871530767E-02
  0.378024512653E+00 -0.587851355633E+00  0.971871530767E-02
SCALARS C_p_ise float 1
LOOKUP_TABLE default
 -0.357142857143E+00
  0.230347242506E+00
  0.446024112532E-01
  0.108591121608E+01
 -0.357142857143E+00
  0.230347242506E+00
  0.446024112532E-01
  0.108591121608E+01
SCALARS sigma float 1
LOOKUP_TABLE default
  0.000000000000E+00
  0.000000000000E+00
  0.000000000000E+00
  0.000000000000E+00
  0.000000000000E+00
  0.000000000000E+00
  0.000000000000E+00
  0.000000000000E+00
VECTORS v float
  0.180308341231E+01  0.145161860255E-01  0.803641552443E-01
  0.882583390308E+00  0.188765221985E-01 -0.183377445284E+00
  0.975335193316E+00  0.396524624679E-02  0.103161511535E+00
  0.254946581620E+00 -0.715066758058E-02 -0.569201532928E+00
  0.180308341231E+01 -0.145161860255E-01  0.803641552443E-01
  0.882583390308E+00 -0.188765221985E-01 -0.183377445284E+00
  0.975335193316E+00 -0.396524624679E-02  0.103161511535E+00
  0.254946581620E+00  0.715066758058E-02 -0.569201532928E+00
VECTORS v_inner float
  0.133333333333E+01  0.000000000000E+00  0.932357492580E-01
  0.133333333333E+01  0.000000000000E+00  0.932357492580E-01
  0.133333333333E+01  0.000000000000E+00  0.932357492580E-01
  0.133333333333E+01  0.000000000000E+00  0.932357492580E-01
  0.133333333333E+01  0.000000000000E+00  0.932357492580E-01
  0.133333333333E+01  0.000000000000E+00  0.932357492580E-01
  0.133333333333E+01  0.000000000000E+00  0.932357492580E-01
  0.133333333333E+01  0.000000000000E+00  0.932357492580E-01
VECTORS dC_f float
  0.918186423529E-02  0.147612560536E-02 -0.892857142872E-01
  0.592204790145E-02 -0.952060095806E-03  0.575868106274E-01
  0.114669319714E-02 -0.184348531673E-03 -0.111506028135E-01
 -0.279179302014E-01 -0.448823578339E-02 -0.271477804025E+00
  0.918186423529E-02 -0.147612560536E-02 -0.892857142872E-01
  0.592204790145E-02  0.952060095806E-03  0.575868106274E-01
  0.114669319714E-02  0.184348531673E-03 -0.111506028135E-01
 -0.279179302014E-01  0.448823578339E-02 -0.271477804025E+00
POINT_DATA                   7
SCALARS mu float 1
LOOKUP_TABLE default
  0.130447225591E-01
 -0.119439262485E+00
 -0.942759159850E-01
 -0.447211096519E-13
 -0.100963115696E+00
 -0.942759159850E-01
 -0.386693742264E+00
SCALARS Phi_u float 1
LOOKUP_TABLE default
  0.769125601749E+00
  0.255575196552E+00
  0.283518384490E+00
 -0.448303140437E-13
  0.279533250429E+00
  0.283518384490E+00
  0.368411016335E+00
SCALARS convex float 1
LOOKUP_TABLE default
  0.100000000000E+01
  0.100000000000E+01
  0.100000000000E+01
  0.100000000000E+01
  0.100000000000E+01
  0.100000000000E+01
  0.100000000000E+01
VECTORS CFx_sensitivity_adjoint float
 -0.247211231565E+00  0.402678312091E-02  0.463328803993E+00
 -0.253950206625E-01 -0.381964112116E-02 -0.129551803224E+01
 -0.984695095587E-03 -0.685757503978E-02  0.451848027913E-02
  0.493450434888E-01  0.318835529247E-07  0.418644384469E+00
  0.261149927245E+00 -0.430673729757E-01  0.407223665788E+00
 -0.140021863284E-02  0.215967430928E-01  0.495487487572E-02
 -0.247211231565E+00  0.402678312091E-02  0.463328803993E+00
VECTORS CFy_sensitivity_adjoint float
 -0.127311240707E-16 -0.549580628078E-02 -0.825441667150E-16
 -0.304615080934E-17 -0.107781334233E-02  0.169662060197E-17
  0.666147396644E-02 -0.842850333483E-06  0.178328991970E+00
 -0.512706250270E-17  0.132254389239E-02  0.165240715256E-17
  0.260223646609E-16  0.525276143138E-02  0.123652871710E-15
 -0.666147396644E-02 -0.842850333483E-06 -0.178328991970E+00
 -0.127311240707E-16 -0.549580628078E-02 -0.825441667150E-16
VECTORS CFz_sensitivity_adjoint float
 -0.494882000234E+01  0.391569944846E-01 -0.202415232964E+02
  0.808245182178E+00 -0.371424305290E-01 -0.233698419307E+01
 -0.158913418056E-01 -0.179570793013E+00  0.265988304656E-02
 -0.271177050812E+00  0.166892147511E-05  0.483671283458E+01
  0.479281090710E+01 -0.418793810422E+00  0.177628829518E+02
 -0.199319517993E-01  0.322896495999E+00  0.690343763583E-02
 -0.494882000234E+01  0.391569944846E-01 -0.202415232964E+02
