# vtk DataFile Version 3.0
MachLine results file. Generated by MachLine, USU AeroLab (c) 2023.
ASCII
DATASET POLYDATA
POINTS                   7 float
  0.567036768980E+00  0.000000000000E+00  0.000000000000E+00
  0.283518384490E+00  0.000000000000E+00 -0.291561459230E-01
  0.283518384490E+00  0.176355406690E+01  0.000000000000E+00
  0.000000000000E+00  0.000000000000E+00  0.000000000000E+00
  0.283518384490E+00  0.000000000000E+00  0.291561459230E-01
  0.283518384490E+00 -0.176355406690E+01  0.000000000000E+00
  0.567036768980E+00  0.000000000000E+00  0.000000000000E+00
POLYGONS                   8                  32
3                   0                   1                   2
3                   1                   3                   2
3                   3                   4                   2
3                   4                   6                   2
3                   0                   5                   1
3                   1                   5                   3
3                   3                   5                   4
3                   4                   5                   6
CELL_DATA                   8
NORMALS normals float
  0.102283551729E+00  0.164436508585E-01 -0.994619365080E+00
 -0.102283551729E+00  0.164436508585E-01 -0.994619365080E+00
 -0.102283551729E+00  0.164436508585E-01  0.994619365080E+00
  0.102283551729E+00  0.164436508585E-01  0.994619365080E+00
  0.102283551729E+00 -0.164436508585E-01 -0.994619365080E+00
 -0.102283551729E+00 -0.164436508585E-01 -0.994619365080E+00
 -0.102283551729E+00 -0.164436508585E-01  0.994619365080E+00
  0.102283551729E+00 -0.164436508585E-01  0.994619365080E+00
SCALARS inclination float 1
LOOKUP_TABLE default
  0.100000000000E+01
  0.100000000000E+01
  0.100000000000E+01
  0.100000000000E+01
  0.100000000000E+01
  0.100000000000E+01
  0.100000000000E+01
  0.100000000000E+01
SCALARS distribution_order float 1
LOOKUP_TABLE default
  0.100000000000E+01
  0.100000000000E+01
  0.100000000000E+01
  0.100000000000E+01
  0.100000000000E+01
  0.100000000000E+01
  0.100000000000E+01
  0.100000000000E+01
SCALARS N_discontinuous_edges float 1
LOOKUP_TABLE default
  0.200000000000E+01
  0.200000000000E+01
  0.200000000000E+01
  0.200000000000E+01
  0.200000000000E+01
  0.200000000000E+01
  0.200000000000E+01
  0.200000000000E+01
VECTORS centroid float
  0.378024512653E+00  0.587851355633E+00 -0.971871530767E-02
  0.189012256327E+00  0.587851355633E+00 -0.971871530767E-02
  0.189012256327E+00  0.587851355633E+00  0.971871530767E-02
  0.378024512653E+00  0.587851355633E+00  0.971871530767E-02
  0.378024512653E+00 -0.587851355633E+00 -0.971871530767E-02
  0.189012256327E+00 -0.587851355633E+00 -0.971871530767E-02
  0.189012256327E+00 -0.587851355633E+00  0.971871530767E-02
  0.378024512653E+00 -0.587851355633E+00  0.971871530767E-02
SCALARS C_p_ise float 1
LOOKUP_TABLE default
 -0.873677343288E-01
  0.230351690031E+00
  0.446007271467E-01
 -0.111856416300E+00
 -0.873677343288E-01
  0.230351690031E+00
  0.446007271467E-01
 -0.111856416300E+00
SCALARS sigma float 1
LOOKUP_TABLE default
  0.000000000000E+00
  0.000000000000E+00
  0.000000000000E+00
  0.000000000000E+00
  0.000000000000E+00
  0.000000000000E+00
  0.000000000000E+00
  0.000000000000E+00
VECTORS v float
  0.104457514133E+01  0.141666285938E-01  0.101526265063E+00
  0.882581349561E+00  0.188768502421E-01 -0.183378693423E+00
  0.975335993603E+00  0.396511755057E-02  0.103161491309E+00
  0.106175259404E+01  0.104209957331E-02 -0.736417204404E-01
  0.104457514133E+01 -0.141666285938E-01  0.101526265063E+00
  0.882581349561E+00 -0.188768502421E-01 -0.183378693423E+00
  0.975335993603E+00 -0.396511755057E-02  0.103161491309E+00
  0.106175259404E+01 -0.104209957331E-02 -0.736417204404E-01
VECTORS v_inner float
  0.133333333333E+01  0.000000000000E+00  0.932357492580E-01
  0.133333333333E+01  0.000000000000E+00  0.932357492580E-01
  0.133333333333E+01  0.000000000000E+00  0.932357492580E-01
  0.133333333333E+01  0.000000000000E+00  0.932357492580E-01
  0.133333333333E+01  0.000000000000E+00  0.932357492580E-01
  0.133333333333E+01  0.000000000000E+00  0.932357492580E-01
  0.133333333333E+01  0.000000000000E+00  0.932357492580E-01
  0.133333333333E+01  0.000000000000E+00  0.932357492580E-01
VECTORS dC_f float
  0.224615629043E-02  0.361104099231E-03 -0.218419335826E-01
  0.592216224386E-02 -0.952078478103E-03  0.575879225087E-01
  0.114664990008E-02 -0.184341571005E-03 -0.111501817868E-01
  0.287574119927E-02  0.462319536629E-03  0.279641040754E-01
  0.224615629043E-02 -0.361104099231E-03 -0.218419335826E-01
  0.592216224386E-02  0.952078478103E-03  0.575879225087E-01
  0.114664990008E-02  0.184341571005E-03 -0.111501817868E-01
  0.287574119927E-02 -0.462319536629E-03  0.279641040754E-01
POINT_DATA                   7
SCALARS mu float 1
LOOKUP_TABLE default
 -0.200867503257E+00
 -0.119439804780E+00
 -0.942759174688E-01
 -0.141718644101E-08
 -0.100962891358E+00
 -0.942759174688E-01
 -0.172919808505E+00
SCALARS Phi_u float 1
LOOKUP_TABLE default
  0.554691024079E+00
  0.255574652933E+00
  0.283518383003E+00
 -0.142064706586E-08
  0.279533475315E+00
  0.283518383003E+00
  0.582706964253E+00
SCALARS convex float 1
LOOKUP_TABLE default
  0.100000000000E+01
  0.100000000000E+01
  0.100000000000E+01
  0.100000000000E+01
  0.100000000000E+01
  0.100000000000E+01
  0.100000000000E+01
VECTORS CFx_sensitivity_adjoint float
 -0.290821761473E-01 -0.290023263479E-06  0.103219411657E-02
 -0.204129328386E-02  0.260574991872E-05 -0.991243864169E+00
 -0.235519842338E-02  0.697818974359E-02 -0.230868766439E-02
  0.516168670594E-01 -0.769666047511E-12  0.372879167775E+00
 -0.157830657319E-01 -0.201711266158E-05  0.621949810962E+00
 -0.235510782130E-02 -0.697819967202E-02 -0.230860910818E-02
 -0.290821761473E-01 -0.290023263479E-06  0.103219411657E-02
VECTORS CFy_sensitivity_adjoint float
 -0.100974195868E-27 -0.723932712939E-03 -0.173472347583E-17
 -0.320682397500E-20 -0.377530460708E-03  0.694050300827E-17
 -0.690246455050E-02 -0.277099960418E-05 -0.297898527568E-01
 -0.115365570035E-17  0.132255494402E-02 -0.184328410706E-18
  0.173336661868E-17 -0.215549771163E-03 -0.173506091982E-17
  0.690246455050E-02 -0.277099960418E-05  0.297898527568E-01
 -0.100974195868E-27 -0.723932712939E-03 -0.173472347583E-17
VECTORS CFz_sensitivity_adjoint float
  0.341238972875E-01  0.183238678382E-03 -0.263329609872E+01
  0.197637107805E-01 -0.164805304641E-02 -0.120551300652E+00
 -0.315241278917E-01  0.441072523350E-01  0.127778385056E+00
 -0.121058040984E+00  0.219665144967E-10  0.236176525942E+01
  0.130259763681E+00  0.127592994417E-02  0.136567524487E+00
 -0.315814033806E-01 -0.441009767322E-01  0.127728697695E+00
  0.341238972875E-01  0.183238678382E-03 -0.263329609872E+01
