# vtk DataFile Version 3.0
MachLine results file. Generated by MachLine, USU AeroLab (c) 2023.
ASCII
DATASET POLYDATA
POINTS                   7 float
  0.567036768980E+00  0.000000000000E+00  0.000000000000E+00
  0.283518384490E+00  0.000000000000E+00 -0.291561459230E-01
  0.283518384490E+00  0.176355406690E+01  0.000000000000E+00
  0.000000000000E+00  0.000000000000E+00  0.000000000000E+00
  0.283518384490E+00  0.000000000000E+00  0.291561459230E-01
  0.283518384490E+00 -0.176355406690E+01  0.000000000000E+00
  0.567036768980E+00  0.000000000000E+00  0.000000000000E+00
POLYGONS                   8                  32
3                   0                   1                   2
3                   1                   3                   2
3                   3                   4                   2
3                   4                   6                   2
3                   0                   5                   1
3                   1                   5                   3
3                   3                   5                   4
3                   4                   5                   6
CELL_DATA                   8
NORMALS normals float
  0.102283551729E+00  0.164436508585E-01 -0.994619365080E+00
 -0.102283551729E+00  0.164436508585E-01 -0.994619365080E+00
 -0.102283551729E+00  0.164436508585E-01  0.994619365080E+00
  0.102283551729E+00  0.164436508585E-01  0.994619365080E+00
  0.102283551729E+00 -0.164436508585E-01 -0.994619365080E+00
 -0.102283551729E+00 -0.164436508585E-01 -0.994619365080E+00
 -0.102283551729E+00 -0.164436508585E-01  0.994619365080E+00
  0.102283551729E+00 -0.164436508585E-01  0.994619365080E+00
POINT_DATA                  7
VECTORS d_CFx_central_diff float
 2.445084721138E+03  3.860635778053E+01  2.884630448557E+03
 1.770101647488E+01  1.148134511492E-02 -2.350838293635E+03
 3.848611995379E+02 -3.517753263753E+03  3.218238860268E+03
 4.951901480497E-02 -1.240100036548E-06  4.185403842449E-01
 1.418810761172E+03  3.054090889080E+00  2.644236251867E+03
 3.918942130037E+02  3.435016190251E+03  3.214359015639E+03
 2.445084721138E+03  3.860635778053E+01  2.884630448557E+03
VECTORS d_CFy_central_diff float
-3.252606517457E-14 -6.015144513863E-03  1.084202172486E-13
 0.000000000000E+00 -1.077813338709E-03  4.540096597283E-14
 6.002665365278E-03 -1.125215665001E-06  6.242322131114E-02
 0.000000000000E+00  1.322546812690E-03 -8.673617379884E-14
 0.000000000000E+00  4.998889120613E-03 -2.168404344971E-14
-5.976970085368E-03 -1.056754586181E-06 -6.231619400317E-02
-3.252606517457E-14 -6.015144513863E-03  1.084202172486E-13
VECTORS d_CFz_central_diff float
-9.399317176198E+04  3.754135480313E+02 -2.821145095058E+04
 1.731857782877E+02  1.116289749026E-01 -3.120508562288E+04
-6.980816926836E+04 -3.420725102906E+04  3.129461839066E+04
-3.230138322485E-01 -3.315280272531E-05  4.889357798749E+00
 1.379827104115E+04  2.969839921240E+01 -2.570577144584E+04
-6.971987837299E+04  3.340270433367E+04  3.125689024229E+04
-9.399317176198E+04  3.754135480313E+02 -2.821145095058E+04
