# vtk DataFile Version 3.0
MachLine results file. Generated by MachLine, USU AeroLab (c) 2023.
ASCII
DATASET POLYDATA
POINTS                   7 float
  0.567036768980E+00  0.000000000000E+00  0.000000000000E+00
  0.283518384490E+00  0.000000000000E+00 -0.291561459230E-01
  0.283518384490E+00  0.176355406690E+01  0.000000000000E+00
  0.000000000000E+00  0.000000000000E+00  0.000000000000E+00
  0.283518384490E+00  0.000000000000E+00  0.291561459230E-01
  0.283518384490E+00 -0.176355406690E+01  0.000000000000E+00
  0.567036768980E+00  0.000000000000E+00  0.000000000000E+00
POLYGONS                   8                  32
3                   0                   1                   2
3                   1                   3                   2
3                   3                   4                   2
3                   4                   6                   2
3                   0                   5                   1
3                   1                   5                   3
3                   3                   5                   4
3                   4                   5                   6
CELL_DATA                   8
NORMALS normals float
  0.102283551729E+00  0.164436508585E-01 -0.994619365080E+00
 -0.102283551729E+00  0.164436508585E-01 -0.994619365080E+00
 -0.102283551729E+00  0.164436508585E-01  0.994619365080E+00
  0.102283551729E+00  0.164436508585E-01  0.994619365080E+00
  0.102283551729E+00 -0.164436508585E-01 -0.994619365080E+00
 -0.102283551729E+00 -0.164436508585E-01 -0.994619365080E+00
 -0.102283551729E+00 -0.164436508585E-01  0.994619365080E+00
  0.102283551729E+00 -0.164436508585E-01  0.994619365080E+00
POINT_DATA                  7
VECTORS d_CFx_central_diff float
-1.451961502419E-02 -8.439950127670E-06 -2.168457999968E-02
-1.430986995565E-02 -1.120110948438E-06 -1.006172114897E+00
-5.078655031243E-03 -1.217391500108E-02  4.325424914076E-03
 5.145611506330E-02 -6.002143226880E-08  3.757947399444E-01
-2.514180010016E-03  1.138499017284E-05  6.124244750216E-01
-5.098239885815E-03  1.216497510365E-02  4.344269909085E-03
-1.451961502419E-02 -8.439950127670E-06 -2.168457999968E-02
VECTORS d_CFy_central_diff float
-5.421010862427E-12 -7.412462896088E-04 -2.168404344971E-11
 0.000000000000E+00 -3.607218961466E-04 -5.421010862427E-12
-6.894475328102E-03 -2.796401348329E-06 -3.298160504471E-02
-5.421010862427E-12  1.322745211974E-03 -5.421010862428E-12
-5.963111948670E-11 -2.151834374749E-04  5.421010862427E-12
 6.894475127524E-03 -2.796520610568E-06  3.298160522903E-02
-5.421010862427E-12 -7.412462896088E-04 -2.168404344971E-11
VECTORS d_CFz_central_diff float
-3.609248100389E+00  2.136399390729E-03 -5.357784799848E+00
 2.775279699802E+00  2.830999323855E-04  7.322283700206E+00
 6.731432494744E-01  4.874184299924E+00 -1.615057250437E+00
-1.524356502136E-01  1.479996680764E-05  2.879609149742E+00
-2.860253099646E+00 -2.886949707070E-03  6.206753500049E+00
 6.781052497296E-01 -4.871918300037E+00 -1.619821000248E+00
-3.609248100389E+00  2.136399390729E-03 -5.357784799848E+00
