# vtk DataFile Version 3.0
MachLine results file. Generated by MachLine, USU AeroLab (c) 2023.
ASCII
DATASET POLYDATA
POINTS                   7 float
  0.567036768980E+00  0.000000000000E+00  0.000000000000E+00
  0.283518384490E+00  0.000000000000E+00 -0.291561459230E-01
  0.283518384490E+00  0.176355406690E+01  0.000000000000E+00
  0.000000000000E+00  0.000000000000E+00  0.000000000000E+00
  0.283518384490E+00  0.000000000000E+00  0.291561459230E-01
  0.283518384490E+00 -0.176355406690E+01  0.000000000000E+00
  0.567036768980E+00  0.000000000000E+00  0.000000000000E+00
POLYGONS                   8                  32
3                   0                   1                   2
3                   1                   3                   2
3                   3                   4                   2
3                   4                   6                   2
3                   0                   5                   1
3                   1                   5                   3
3                   3                   5                   4
3                   4                   5                   6
CELL_DATA                   8
NORMALS normals float
  0.102283551729E+00  0.164436508585E-01 -0.994619365080E+00
 -0.102283551729E+00  0.164436508585E-01 -0.994619365080E+00
 -0.102283551729E+00  0.164436508585E-01  0.994619365080E+00
  0.102283551729E+00  0.164436508585E-01  0.994619365080E+00
  0.102283551729E+00 -0.164436508585E-01 -0.994619365080E+00
 -0.102283551729E+00 -0.164436508585E-01 -0.994619365080E+00
 -0.102283551729E+00 -0.164436508585E-01  0.994619365080E+00
  0.102283551729E+00 -0.164436508585E-01  0.994619365080E+00
POINT_DATA                  7
VECTORS d_CFx_central_diff float
-1.444754487154E+05 -4.610980073951E+01  1.965509391716E+05
-2.772514148819E-02 -3.694961765501E+01  2.953084897317E+05
 1.346797251912E+05  1.435019022226E+05  1.325583465163E+05
 5.753579300494E-02 -1.752972766944E-06  3.690049035082E-01
-2.354049399855E-02  6.657982825910E+01  3.658862332621E+05
 1.347795918593E+05 -1.433458462514E+05  1.325363797034E+05
-1.444754487154E+05 -4.610980073951E+01  1.965509391716E+05
VECTORS d_CFy_central_diff float
 0.000000000000E+00 -4.354695848710E-03  9.757819552370E-12
-1.084202172486E-12 -6.051418814288E-04 -1.084202172486E-12
-1.059209638781E-02 -2.245157727267E-06 -2.445203168931E-02
-1.084202172486E-12  1.322545435797E-03 -1.084202172486E-12
-1.084202172486E-12 -2.273010143820E-04  1.626303258728E-11
 1.058927398160E-02 -2.246089056933E-06  2.462265541524E-02
 0.000000000000E+00 -4.354695848710E-03  9.757819552370E-12
VECTORS d_CFz_central_diff float
 7.759454305433E+05 -4.483780623554E+02 -1.759209337836E+06
 7.468150509810E-01 -1.234201060765E+03  2.870919428040E+06
 3.064894707091E+05  7.068268681470E+05  6.576266862438E+04
-5.314896720648E-01  2.425490364111E-06  4.353500086540E+00
-4.714958239810E-01 -6.863834048554E+02 -3.656243867007E+06
 3.136384445874E+05 -7.016379473960E+05  5.974464771665E+04
 7.759454305433E+05 -4.483780623554E+02 -1.759209337836E+06
