# vtk DataFile Version 3.0
MachLine results file. Generated by MachLine, USU AeroLab (c) 2023.
ASCII
DATASET POLYDATA
POINTS                   7 float
  0.567036768980E+00  0.000000000000E+00  0.000000000000E+00
  0.283518384490E+00  0.000000000000E+00 -0.291561459230E-01
  0.283518384490E+00  0.176355406690E+01  0.000000000000E+00
  0.000000000000E+00  0.000000000000E+00  0.000000000000E+00
  0.283518384490E+00  0.000000000000E+00  0.291561459230E-01
  0.283518384490E+00 -0.176355406690E+01  0.000000000000E+00
  0.567036768980E+00  0.000000000000E+00  0.000000000000E+00
POLYGONS                   8                  32
3                   0                   1                   2
3                   1                   3                   2
3                   3                   4                   2
3                   4                   6                   2
3                   0                   5                   1
3                   1                   5                   3
3                   3                   5                   4
3                   4                   5                   6
CELL_DATA                   8
NORMALS normals float
  0.102283551729E+00  0.164436508585E-01 -0.994619365080E+00
 -0.102283551729E+00  0.164436508585E-01 -0.994619365080E+00
 -0.102283551729E+00  0.164436508585E-01  0.994619365080E+00
  0.102283551729E+00  0.164436508585E-01  0.994619365080E+00
  0.102283551729E+00 -0.164436508585E-01 -0.994619365080E+00
 -0.102283551729E+00 -0.164436508585E-01 -0.994619365080E+00
 -0.102283551729E+00 -0.164436508585E-01  0.994619365080E+00
  0.102283551729E+00 -0.164436508585E-01  0.994619365080E+00
POINT_DATA                  7
VECTORS d_CFx_central_diff float
-2.966728242545E+06 -5.884443339410E+03  5.925757480640E+06
-5.277530456037E+06  2.116987141143E-05 -5.619103205024E+06
-3.466712342058E+05  4.630941642560E+06  4.576909395421E+06
 3.555570005087E-02 -2.995144549045E-02  4.318467750064E-01
 3.593063975212E+04 -2.322980760000E+02  8.427598040206E+04
-3.365069761214E+05 -4.632739605371E+06  4.580569283276E+06
-2.966728242545E+06 -5.884443339410E+03  5.925757480640E+06
VECTORS d_CFy_central_diff float
 0.000000000000E+00 -1.073701663603E-03  1.084202172486E-11
 1.084202172486E-11 -1.077812524560E-03 -7.724940478959E-11
-2.459321223232E-03 -4.397697483949E-06 -2.797980790743E-01
 2.168404344971E-11  1.322545469407E-03 -3.252606517457E-11
 1.626303258728E-10 -2.406993441367E-04 -4.336808689942E-11
 2.421119674103E-03 -4.397654115862E-06  2.798277373055E-01
 0.000000000000E+00 -1.073701663603E-03  1.084202172486E-11
VECTORS d_CFz_central_diff float
 5.594800464723E+07  1.189017050378E+05 -5.762290284947E+07
 7.780838520900E+07  9.235251452466E-04  7.303755201442E+07
-3.869796470770E+07 -8.892748122213E+07 -4.502989571852E+07
 9.631570097035E-01  2.907549978559E-01  2.695570999744E+00
-3.493951977970E+05  2.258898527097E+03 -8.195044426196E+05
-3.888265778857E+07  8.888870846158E+07 -4.506747870198E+07
 5.594800464723E+07  1.189017050378E+05 -5.762290284947E+07
