# vtk DataFile Version 3.0
MachLine results file. Generated by MachLine, USU AeroLab (c) 2023.
ASCII
DATASET POLYDATA
POINTS                   7 float
  0.567036768980E+00  0.000000000000E+00  0.000000000000E+00
  0.283518384490E+00  0.000000000000E+00 -0.291561459230E-01
  0.283518384490E+00  0.176355406690E+01  0.000000000000E+00
  0.000000000000E+00  0.000000000000E+00  0.000000000000E+00
  0.283518384490E+00  0.000000000000E+00  0.291561459230E-01
  0.283518384490E+00 -0.176355406690E+01  0.000000000000E+00
  0.567036768980E+00  0.000000000000E+00  0.000000000000E+00
POLYGONS                   8                  32
3                   0                   1                   2
3                   1                   3                   2
3                   3                   4                   2
3                   4                   6                   2
3                   0                   5                   1
3                   1                   5                   3
3                   3                   5                   4
3                   4                   5                   6
CELL_DATA                   8
NORMALS normals float
  0.102283551729E+00  0.164436508585E-01 -0.994619365080E+00
 -0.102283551729E+00  0.164436508585E-01 -0.994619365080E+00
 -0.102283551729E+00  0.164436508585E-01  0.994619365080E+00
  0.102283551729E+00  0.164436508585E-01  0.994619365080E+00
  0.102283551729E+00 -0.164436508585E-01 -0.994619365080E+00
 -0.102283551729E+00 -0.164436508585E-01 -0.994619365080E+00
 -0.102283551729E+00 -0.164436508585E-01  0.994619365080E+00
  0.102283551729E+00 -0.164436508585E-01  0.994619365080E+00
POINT_DATA                  7
VECTORS d_CFx_central_diff float
-4.381938337826E+05  0.000000000000E+00  2.514815942668E+05
-1.710155097918E+05  1.076818429025E+02 -2.148690100025E+05
 1.713780960553E+05  5.306522341760E+05 -3.953160563287E+05
 5.419571499909E-02  1.150423506457E-03  4.365847534882E-01
 2.388475917736E+04 -7.438392178899E+01 -4.485688226202E+05
 1.720088113887E+05 -5.305345223363E+05 -3.954601186118E+05
-4.381938337826E+05  0.000000000000E+00  2.514815942668E+05
VECTORS d_CFy_central_diff float
 3.794707603699E-12  5.421010862428E-12  3.415236843329E-11
-8.673617379884E-12 -2.817030463065E-05 -1.219727444046E-12
-9.106952387301E-03 -5.031689041118E-06 -3.009484619918E-01
 2.168404344971E-12  1.322545530123E-03  0.000000000000E+00
-1.084202172486E-12 -2.406995447141E-04 -1.084202172486E-12
 9.124080029921E-03 -5.029362343256E-06  3.011146159834E-01
 3.794707603699E-12  5.421010862428E-12  3.415236843329E-11
VECTORS d_CFz_central_diff float
 6.886999371847E+06  2.498001805407E-09 -3.239716909862E+06
-1.348124515777E+06 -2.080263047000E+03  3.605337117438E+06
-1.574009390840E+06 -5.562027224015E+06  3.846458109428E+06
-2.198877002701E-01 -1.120215031847E-02  3.696472700154E+00
-2.322594516547E+05  7.233195126599E+02  5.433109340395E+06
-1.568323618917E+06  5.562836359462E+06  3.847820052985E+06
 6.886999371847E+06  2.498001805407E-09 -3.239716909862E+06
