# vtk DataFile Version 3.0
MachLine results file. Generated by MachLine, USU AeroLab (c) 2023.
ASCII
DATASET POLYDATA
POINTS                   7 float
  0.567036768980E+00  0.000000000000E+00  0.000000000000E+00
  0.283518384490E+00  0.000000000000E+00 -0.291561459230E-01
  0.283518384490E+00  0.176355406690E+01  0.000000000000E+00
  0.000000000000E+00  0.000000000000E+00  0.000000000000E+00
  0.283518384490E+00  0.000000000000E+00  0.291561459230E-01
  0.283518384490E+00 -0.176355406690E+01  0.000000000000E+00
  0.567036768980E+00  0.000000000000E+00  0.000000000000E+00
POLYGONS                   8                  32
3                   0                   1                   2
3                   1                   3                   2
3                   3                   4                   2
3                   4                   6                   2
3                   0                   5                   1
3                   1                   5                   3
3                   3                   5                   4
3                   4                   5                   6
CELL_DATA                   8
NORMALS normals float
  0.102283551729E+00  0.164436508585E-01 -0.994619365080E+00
 -0.102283551729E+00  0.164436508585E-01 -0.994619365080E+00
 -0.102283551729E+00  0.164436508585E-01  0.994619365080E+00
  0.102283551729E+00  0.164436508585E-01  0.994619365080E+00
  0.102283551729E+00 -0.164436508585E-01 -0.994619365080E+00
 -0.102283551729E+00 -0.164436508585E-01 -0.994619365080E+00
 -0.102283551729E+00 -0.164436508585E-01  0.994619365080E+00
  0.102283551729E+00 -0.164436508585E-01  0.994619365080E+00
POINT_DATA                  7
VECTORS d_CFx_central_diff float
-2.918592988815E-02 -4.510281037540E-08 -5.811051501103E-02
-4.747315041076E-03  1.150121664573E-07 -9.657331349541E-01
-2.056594998467E-03  6.829979984357E-03 -2.053940004187E-03
 5.151545509618E-02  5.030698080333E-09  3.778588799491E-01
-1.286698508157E-02  1.450228825917E-07  6.500058999728E-01
-2.056690061314E-03 -6.829974953659E-03 -2.053619947706E-03
-2.918592988815E-02 -4.510281037540E-08 -5.811051501103E-02
VECTORS d_CFy_central_diff float
-5.421010862427E-12 -7.561546766337E-04 -1.084202172485E-11
 0.000000000000E+00 -3.481907958573E-04  0.000000000000E+00
-6.891640724890E-03 -2.831643339946E-06 -3.559319584944E-02
 4.878909776185E-11  1.324450309625E-03 -1.084202172486E-11
 0.000000000000E+00 -2.144413119298E-04  0.000000000000E+00
 6.891640638154E-03 -2.831995705652E-06  3.559319590365E-02
-5.421010862427E-12 -7.561546766337E-04 -1.084202172485E-11
VECTORS d_CFz_central_diff float
 1.163607002419E-01  8.099076964641E-06 -2.722691699875E+00
 3.800200015780E-02 -1.905003932379E-05 -3.470326512267E-01
-5.908660088982E-02  6.390944995438E-02  2.913614904898E-02
-1.779394007140E-01 -4.996003610813E-07  3.304007550886E+00
 3.866389985951E-02 -2.575023527740E-05 -2.788939010290E-01
-5.906939937184E-02 -6.391005086259E-02  2.908084884012E-02
 1.163607002419E-01  8.099076964641E-06 -2.722691699875E+00
