# vtk DataFile Version 3.0
MachLine results file. Generated by MachLine, USU AeroLab (c) 2023.
ASCII
DATASET POLYDATA
POINTS                   7 float
  0.567036768980E+00  0.000000000000E+00  0.000000000000E+00
  0.283518384490E+00  0.000000000000E+00 -0.291561459230E-01
  0.283518384490E+00  0.176355406690E+01  0.000000000000E+00
  0.000000000000E+00  0.000000000000E+00  0.000000000000E+00
  0.283518384490E+00  0.000000000000E+00  0.291561459230E-01
  0.283518384490E+00 -0.176355406690E+01  0.000000000000E+00
  0.567036768980E+00  0.000000000000E+00  0.000000000000E+00
POLYGONS                   8                  32
3                   0                   1                   2
3                   1                   3                   2
3                   3                   4                   2
3                   4                   6                   2
3                   0                   5                   1
3                   1                   5                   3
3                   3                   5                   4
3                   4                   5                   6
CELL_DATA                   8
NORMALS normals float
  0.102283551729E+00  0.164436508585E-01 -0.994619365080E+00
 -0.102283551729E+00  0.164436508585E-01 -0.994619365080E+00
 -0.102283551729E+00  0.164436508585E-01  0.994619365080E+00
  0.102283551729E+00  0.164436508585E-01  0.994619365080E+00
  0.102283551729E+00 -0.164436508585E-01 -0.994619365080E+00
 -0.102283551729E+00 -0.164436508585E-01 -0.994619365080E+00
 -0.102283551729E+00 -0.164436508585E-01  0.994619365080E+00
  0.102283551729E+00 -0.164436508585E-01  0.994619365080E+00
POINT_DATA                  7
VECTORS d_CFx_central_diff float
-1.276244544848E+05 -1.207358742905E+03  4.005710102294E+05
 6.258888803715E+04 -3.572370992150E+01  1.844915370084E+05
-3.759284897265E-04  1.417680308971E+05 -3.048662373841E+04
 1.522630515075E-01 -9.666503708594E-06  2.087835959935E-01
 8.086142291888E+03 -3.013492233528E-06  4.492790380718E+04
-3.627520159255E-04 -1.417322287802E+05 -3.141273677251E+04
-1.276244544848E+05 -1.207358742905E+03  4.005710102294E+05
VECTORS d_CFy_central_diff float
-1.192622389734E-11 -6.948202920139E-03 -1.517883041480E-11
 0.000000000000E+00 -8.639585520522E-04  2.168404344971E-12
-1.440860486913E-02 -1.884359638812E-06  6.693156151929E-02
 0.000000000000E+00  1.322545510607E-03 -1.084202172486E-12
 0.000000000000E+00 -2.407005259171E-04 -2.710505431214E-12
 1.440860484961E-02 -1.884589489673E-06 -6.704464111489E-02
-1.192622389734E-11 -6.948202920139E-03 -1.517883041480E-11
VECTORS d_CFz_central_diff float
 4.683636166231E+06 -1.174052294813E+04 -9.171314770596E+06
 7.960626930588E+05 -5.378153305900E+02  2.080391189788E+06
-1.485170798843E-02  1.569713875714E+06 -4.582670676062E+05
-3.628132599909E-01  5.044700768231E-04  1.186201585013E+00
 1.213011753794E+05  1.556804685166E-04 -2.814488315887E+06
-1.424213594281E-02 -1.569531632783E+06 -4.716875658553E+05
 4.683636166231E+06 -1.174052294813E+04 -9.171314770596E+06
