# vtk DataFile Version 3.0
MachLine results file. Generated by MachLine, USU AeroLab (c) 2023.
ASCII
DATASET POLYDATA
POINTS                   7 float
  0.567036768980E+00  0.000000000000E+00  0.000000000000E+00
  0.283518384490E+00  0.000000000000E+00 -0.291561459230E-01
  0.283518384490E+00  0.176355406690E+01  0.000000000000E+00
  0.000000000000E+00  0.000000000000E+00  0.000000000000E+00
  0.283518384490E+00  0.000000000000E+00  0.291561459230E-01
  0.283518384490E+00 -0.176355406690E+01  0.000000000000E+00
  0.567036768980E+00  0.000000000000E+00  0.000000000000E+00
POLYGONS                   8                  32
3                   0                   1                   2
3                   1                   3                   2
3                   3                   4                   2
3                   4                   6                   2
3                   0                   5                   1
3                   1                   5                   3
3                   3                   5                   4
3                   4                   5                   6
CELL_DATA                   8
NORMALS normals float
  0.102283551729E+00  0.164436508585E-01 -0.994619365080E+00
 -0.102283551729E+00  0.164436508585E-01 -0.994619365080E+00
 -0.102283551729E+00  0.164436508585E-01  0.994619365080E+00
  0.102283551729E+00  0.164436508585E-01  0.994619365080E+00
  0.102283551729E+00 -0.164436508585E-01 -0.994619365080E+00
 -0.102283551729E+00 -0.164436508585E-01 -0.994619365080E+00
 -0.102283551729E+00 -0.164436508585E-01  0.994619365080E+00
  0.102283551729E+00 -0.164436508585E-01  0.994619365080E+00
POINT_DATA                  7
VECTORS d_CFx_central_diff float
 4.973442260960E+05 -1.076936858030E+03  2.306810344030E+06
 1.439150802550E+05 -5.397574600000E+01 -1.352040712679E+06
-2.553304692540E+05 -1.475480005205E+06  4.569470529434E+05
 6.445993010196E-02  3.405328484474E-02  6.130604300256E-01
 5.333611724903E+05  2.199629367539E-07  5.890262934005E+06
-2.570053390003E+05  1.475140322611E+06  4.587327850799E+05
 4.973442260960E+05 -1.076936858030E+03  2.306810344030E+06
VECTORS d_CFy_central_diff float
-1.626303258728E-11 -3.972337302843E-03 -2.168404344971E-11
 1.084202172486E-11  4.917576111943E-04 -1.084202172486E-11
-2.390722602524E-03 -4.693316048299E-06 -1.821158067991E-01
 5.421010862428E-11  1.322545588670E-03  1.084202172486E-11
-1.140106347004E-10 -2.406994959250E-04  1.084202172485E-11
 2.393199744280E-03 -4.692828157321E-06  1.822129710029E-01
-1.626303258728E-11 -3.972337302843E-03 -2.168404344971E-11
VECTORS d_CFz_central_diff float
-2.469651516481E+07 -1.047228255040E+04 -5.207534690028E+07
-1.399984158146E+06  5.249897573001E+02  1.324507827675E+07
-3.909258122028E+07  1.441204427993E+07 -4.625963432231E+06
-1.033021501673E-01 -3.310544005597E-01  1.716292746812E+00
-2.157067958324E+07 -1.136035709948E-05 -5.727772225812E+07
-3.908020766345E+07 -1.440888761793E+07 -4.642992415294E+06
-2.469651516481E+07 -1.047228255040E+04 -5.207534690028E+07
