# vtk DataFile Version 3.0
MachLine results file. Generated by MachLine, USU AeroLab (c) 2023.
ASCII
DATASET POLYDATA
POINTS                   7 float
  0.567036768980E+00  0.000000000000E+00  0.000000000000E+00
  0.283518384490E+00  0.000000000000E+00 -0.291561459230E-01
  0.283518384490E+00  0.176355406690E+01  0.000000000000E+00
  0.000000000000E+00  0.000000000000E+00  0.000000000000E+00
  0.283518384490E+00  0.000000000000E+00  0.291561459230E-01
  0.283518384490E+00 -0.176355406690E+01  0.000000000000E+00
  0.567036768980E+00  0.000000000000E+00  0.000000000000E+00
POLYGONS                   8                  32
3                   0                   1                   2
3                   1                   3                   2
3                   3                   4                   2
3                   4                   6                   2
3                   0                   5                   1
3                   1                   5                   3
3                   3                   5                   4
3                   4                   5                   6
CELL_DATA                   8
NORMALS normals float
  0.102283551729E+00  0.164436508585E-01 -0.994619365080E+00
 -0.102283551729E+00  0.164436508585E-01 -0.994619365080E+00
 -0.102283551729E+00  0.164436508585E-01  0.994619365080E+00
  0.102283551729E+00  0.164436508585E-01  0.994619365080E+00
  0.102283551729E+00 -0.164436508585E-01 -0.994619365080E+00
 -0.102283551729E+00 -0.164436508585E-01 -0.994619365080E+00
 -0.102283551729E+00 -0.164436508585E-01  0.994619365080E+00
  0.102283551729E+00 -0.164436508585E-01  0.994619365080E+00
POINT_DATA                  7
VECTORS d_CFx_central_diff float
 1.306010908124E+06 -2.082977021226E+03  2.776890755860E+06
-2.763688999874E-02 -8.690373546998E+01 -1.305734620080E+00
-1.437266533840E+06 -2.934841206135E+06  3.876764985422E-02
 1.302619651034E-01 -5.500114252932E-06  3.690508149079E-01
 2.710495561211E+06 -3.233201502453E+04 -6.278204669748E+04
-1.435349418309E+06  2.937179173623E+06  3.881761023727E-02
 1.306010908124E+06 -2.082977021226E+03  2.776890755860E+06
VECTORS d_CFy_central_diff float
-5.421010862427E-12 -1.152543880646E-03  1.626303258728E-10
 0.000000000000E+00 -1.077812611296E-03 -1.084202172486E-11
-1.033585260023E-02 -1.895597394330E-06 -2.631571653297E-02
 0.000000000000E+00  1.322545339303E-03  4.336808689942E-11
 9.757819552370E-11  6.974712669396E-03 -2.168404344971E-11
 1.034128807706E-02 -1.895109503353E-06  2.631571627276E-02
-5.421010862427E-12 -1.152543880646E-03  1.626303258728E-10
VECTORS d_CFz_central_diff float
-3.211596044433E+07 -2.085354839760E+04  2.695641742940E+07
 7.506649746247E-01 -8.450606099501E+02 -2.815430279884E+00
-7.142376869699E+06 -2.852960651322E+07  2.084933645174E+00
 3.165372314956E+00  6.214348480249E-04  4.357448860071E+00
-2.623027491961E+07 -3.144009734649E+05  6.105057737840E+05
-7.079211612765E+06  2.855262845201E+07  2.089424135099E+00
-3.211596044433E+07 -2.085354839760E+04  2.695641742940E+07
