# vtk DataFile Version 3.0
MachLine results file. Generated by MachLine, USU AeroLab (c) 2023.
ASCII
DATASET POLYDATA
POINTS                   7 float
  0.567036768980E+00  0.000000000000E+00  0.000000000000E+00
  0.283518384490E+00  0.000000000000E+00 -0.291561459230E-01
  0.283518384490E+00  0.176355406690E+01  0.000000000000E+00
  0.000000000000E+00  0.000000000000E+00  0.000000000000E+00
  0.283518384490E+00  0.000000000000E+00  0.291561459230E-01
  0.283518384490E+00 -0.176355406690E+01  0.000000000000E+00
  0.567036768980E+00  0.000000000000E+00  0.000000000000E+00
POLYGONS                   8                  32
3                   0                   1                   2
3                   1                   3                   2
3                   3                   4                   2
3                   4                   6                   2
3                   0                   5                   1
3                   1                   5                   3
3                   3                   5                   4
3                   4                   5                   6
CELL_DATA                   8
NORMALS normals float
  0.102283551729E+00  0.164436508585E-01 -0.994619365080E+00
 -0.102283551729E+00  0.164436508585E-01 -0.994619365080E+00
 -0.102283551729E+00  0.164436508585E-01  0.994619365080E+00
  0.102283551729E+00  0.164436508585E-01  0.994619365080E+00
  0.102283551729E+00 -0.164436508585E-01 -0.994619365080E+00
 -0.102283551729E+00 -0.164436508585E-01 -0.994619365080E+00
 -0.102283551729E+00 -0.164436508585E-01  0.994619365080E+00
  0.102283551729E+00 -0.164436508585E-01  0.994619365080E+00
POINT_DATA                  7
VECTORS d_CFx_central_diff float
-2.528709601088E-02  6.243512651327E-06 -7.107308699905E-02
 2.824168350568E-02  7.530087664520E-07 -9.755673725104E-01
-5.162225005101E-03  1.351697250657E-02 -1.655881549933E-02
 5.149842101371E-02 -1.655099668429E-07  3.748560409994E-01
-5.388195148739E-02  3.318508662309E-06  6.243108389981E-01
-5.154717000466E-03 -1.352197050511E-02 -1.651573749289E-02
-2.528709601088E-02  6.243512651327E-06 -7.107308699905E-02
VECTORS d_CFy_central_diff float
-6.505213034913E-12 -7.342848605627E-04 -7.047314121156E-12
 0.000000000000E+00 -3.673779081512E-04 -1.572093150104E-11
-6.898194231000E-03 -2.785760988208E-06 -3.170711415483E-02
 5.421010862427E-13  1.322605595465E-03 -1.084202172486E-12
-5.421010862427E-13 -2.153682137143E-04  0.000000000000E+00
 6.898194223953E-03 -2.785771288129E-06  3.170711411254E-02
-6.505213034913E-12 -7.342848605627E-04 -7.047314121156E-12
VECTORS d_CFz_central_diff float
-1.196958125046E+00 -2.075845051408E-03  1.463205807996E+01
-1.030712655004E+01 -2.499649792709E-04 -2.425696664990E+00
 9.120474950275E-01 -2.135666450007E+00  4.808974995024E+00
-1.397798449904E-01  5.499004029907E-05  2.672309630039E+00
 1.308669721499E+01 -1.104765029458E-03  2.264046825018E+00
 9.095543049981E-01  2.137326359994E+00  4.794661229990E+00
-1.196958125046E+00 -2.075845051408E-03  1.463205807996E+01
