# vtk DataFile Version 3.0
MachLine results file. Generated by MachLine, USU AeroLab (c) 2023.
ASCII
DATASET POLYDATA
POINTS                   7 float
  0.567036768980E+00  0.000000000000E+00  0.000000000000E+00
  0.283518384490E+00  0.000000000000E+00 -0.291561459230E-01
  0.283518384490E+00  0.176355406690E+01  0.000000000000E+00
  0.000000000000E+00  0.000000000000E+00  0.000000000000E+00
  0.283518384490E+00  0.000000000000E+00  0.291561459230E-01
  0.283518384490E+00 -0.176355406690E+01  0.000000000000E+00
  0.567036768980E+00  0.000000000000E+00  0.000000000000E+00
POLYGONS                   8                  32
3                   0                   1                   2
3                   1                   3                   2
3                   3                   4                   2
3                   4                   6                   2
3                   0                   5                   1
3                   1                   5                   3
3                   3                   5                   4
3                   4                   5                   6
CELL_DATA                   8
NORMALS normals float
  0.102283551729E+00  0.164436508585E-01 -0.994619365080E+00
 -0.102283551729E+00  0.164436508585E-01 -0.994619365080E+00
 -0.102283551729E+00  0.164436508585E-01  0.994619365080E+00
  0.102283551729E+00  0.164436508585E-01  0.994619365080E+00
  0.102283551729E+00 -0.164436508585E-01 -0.994619365080E+00
 -0.102283551729E+00 -0.164436508585E-01 -0.994619365080E+00
 -0.102283551729E+00 -0.164436508585E-01  0.994619365080E+00
  0.102283551729E+00 -0.164436508585E-01  0.994619365080E+00
POINT_DATA                  7
VECTORS d_CFx_central_diff float
-2.279368420052E+00 -3.267650039440E-04 -4.218835254928E+00
 1.213376014941E+00 -1.945200944764E-04  2.060455644992E+00
 1.083659601289E-01 -7.560272449747E-01 -7.437681550510E-01
 5.163256992097E-02  1.249000902703E-07  3.736641699184E-01
-2.649259150597E-01  2.845400130791E-03 -1.598755774990E+00
 1.086277750043E-01  7.588660850752E-01 -7.429114748728E-01
-2.279368420052E+00 -3.267650039440E-04 -4.218835254928E+00
VECTORS d_CFy_central_diff float
-5.421010862428E-12 -7.273948235192E-04 -5.421010862427E-12
-2.710505431214E-12 -3.741226837876E-04  2.710505431214E-12
-6.901279406887E-03 -2.775969558388E-06 -3.043235889525E-02
-2.710505431214E-12  1.322562865431E-03 -5.421010862428E-12
 0.000000000000E+00 -2.154992926728E-04  1.788933584601E-10
 6.901279509886E-03 -2.775942453334E-06  3.043235916901E-02
-5.421010862428E-12 -7.273948235192E-04 -5.421010862427E-12
VECTORS d_CFz_central_diff float
 1.093804785900E+03  1.585415000671E-01  2.039416488051E+03
-5.905768164498E+02  9.445349988257E-02 -1.478415057399E+03
-5.370837539986E+01  3.698677189502E+02  3.598352030502E+02
-1.283707501409E-01 -5.760045218572E-05  2.466587750022E+00
 1.210024206499E+02 -1.380917749594E+00  1.080565105600E+03
-5.383526325009E+01 -3.712443345003E+02  3.594194003503E+02
 1.093804785900E+03  1.585415000671E-01  2.039416488051E+03
