# vtk DataFile Version 3.0
MachLine results file. Generated by MachLine, USU AeroLab (c) 2023.
ASCII
DATASET POLYDATA
POINTS                   7 float
  0.567036768980E+00  0.000000000000E+00  0.000000000000E+00
  0.283518384490E+00  0.000000000000E+00 -0.291561459230E-01
  0.283518384490E+00  0.176355406690E+01  0.000000000000E+00
  0.000000000000E+00  0.000000000000E+00  0.000000000000E+00
  0.283518384490E+00  0.000000000000E+00  0.291561459230E-01
  0.283518384490E+00 -0.176355406690E+01  0.000000000000E+00
  0.567036768980E+00  0.000000000000E+00  0.000000000000E+00
POLYGONS                   8                  32
3                   0                   1                   2
3                   1                   3                   2
3                   3                   4                   2
3                   4                   6                   2
3                   0                   5                   1
3                   1                   5                   3
3                   3                   5                   4
3                   4                   5                   6
CELL_DATA                   8
NORMALS normals float
  0.102283551729E+00  0.164436508585E-01 -0.994619365080E+00
 -0.102283551729E+00  0.164436508585E-01 -0.994619365080E+00
 -0.102283551729E+00  0.164436508585E-01  0.994619365080E+00
  0.102283551729E+00  0.164436508585E-01  0.994619365080E+00
  0.102283551729E+00 -0.164436508585E-01 -0.994619365080E+00
 -0.102283551729E+00 -0.164436508585E-01 -0.994619365080E+00
 -0.102283551729E+00 -0.164436508585E-01  0.994619365080E+00
  0.102283551729E+00 -0.164436508585E-01  0.994619365080E+00
POINT_DATA                  7
VECTORS d_CFx_central_diff float
-2.515836011741E-02 -5.150394000175E-07 -4.230212985457E-02
-4.066679978876E-03  6.749809045026E-07 -9.717824350775E-01
-1.968050028500E-03  5.314555046043E-03 -2.994125086753E-03
 5.145125003131E-02  1.649722025654E-07  3.766500450073E-01
-1.381469504763E-02  4.300379496947E-07  6.444203601297E-01
-1.966930091024E-03 -5.315954967888E-03 -2.994655044775E-03
-2.515836011741E-02 -5.150394000175E-07 -4.230212985457E-02
VECTORS d_CFy_central_diff float
 0.000000000000E+00 -7.484025768903E-04 -5.421010862427E-12
-5.421010862427E-12 -3.542554812865E-04  0.000000000000E+00
-6.891295032448E-03 -2.810479713539E-06 -3.426767383307E-02
 5.421010862427E-12  1.323182503236E-03  4.878909776185E-11
 5.421010862427E-12 -2.149035940521E-04  5.421010862427E-12
 6.891295064974E-03 -2.810490555560E-06  3.426767364876E-02
 0.000000000000E+00 -7.484025768903E-04 -5.421010862427E-12
VECTORS d_CFz_central_diff float
-7.164349002942E-01  1.048501563350E-04 -3.314983999803E+00
 3.276415042053E-02 -1.370001334600E-04 -3.271410017880E-02
-9.549469964787E-02  3.780790999719E-01  2.078258495852E-01
-1.646112503251E-01 -3.329975184485E-05  3.088152349812E+00
 1.283422999820E-01 -8.935005513244E-05 -3.615783998601E-01
-9.572330011975E-02 -3.777919997672E-01  2.079348998540E-01
-7.164349002942E-01  1.048501563350E-04 -3.314983999803E+00
