# vtk DataFile Version 3.0
MachLine results file. Generated by MachLine, USU AeroLab (c) 2023.
ASCII
DATASET POLYDATA
POINTS                   7 float
  0.567036768980E+00  0.000000000000E+00  0.000000000000E+00
  0.283518384490E+00  0.000000000000E+00 -0.291561459230E-01
  0.283518384490E+00  0.176355406690E+01  0.000000000000E+00
  0.000000000000E+00  0.000000000000E+00  0.000000000000E+00
  0.283518384490E+00  0.000000000000E+00  0.291561459230E-01
  0.283518384490E+00 -0.176355406690E+01  0.000000000000E+00
  0.567036768980E+00  0.000000000000E+00  0.000000000000E+00
POLYGONS                   8                  32
3                   0                   1                   2
3                   1                   3                   2
3                   3                   4                   2
3                   4                   6                   2
3                   0                   5                   1
3                   1                   5                   3
3                   3                   5                   4
3                   4                   5                   6
CELL_DATA                   8
NORMALS normals float
  0.102283551729E+00  0.164436508585E-01 -0.994619365080E+00
 -0.102283551729E+00  0.164436508585E-01 -0.994619365080E+00
 -0.102283551729E+00  0.164436508585E-01  0.994619365080E+00
  0.102283551729E+00  0.164436508585E-01  0.994619365080E+00
  0.102283551729E+00 -0.164436508585E-01 -0.994619365080E+00
 -0.102283551729E+00 -0.164436508585E-01 -0.994619365080E+00
 -0.102283551729E+00 -0.164436508585E-01  0.994619365080E+00
  0.102283551729E+00 -0.164436508585E-01  0.994619365080E+00
POINT_DATA                  7
VECTORS d_CFx_central_diff float
-2.912702849744E-02 -4.699365896421E-08 -4.551502199440E-02
-4.006952495500E-03  1.949829186998E-08 -9.707007155024E-01
-2.187545491972E-03  7.019944989889E-03 -2.318598993356E-03
 5.145090900202E-02 -5.349887199912E-08  3.766498210024E-01
-1.362766649526E-02  1.339900412844E-07  6.436288430001E-01
-2.187539507176E-03 -7.019930001878E-03 -2.318541001550E-03
-2.912702849744E-02 -4.699365896421E-08 -4.551502199440E-02
VECTORS d_CFy_central_diff float
 7.589415207399E-12 -7.484025497852E-04 -5.421010862427E-13
-5.421010862427E-13 -3.542555257387E-04 -5.421010862427E-13
-6.891295058469E-03 -2.810439598058E-06 -3.426767503762E-02
 6.505213034913E-12  1.323182503778E-03 -5.421010862428E-13
-1.084202172485E-12 -2.149035945942E-04 -5.421010862428E-13
 6.891295036243E-03 -2.810445019069E-06  3.426767500401E-02
 7.589415207399E-12 -7.484025497852E-04 -5.421010862427E-13
VECTORS d_CFz_central_diff float
 9.385375497606E-02  9.720002580593E-06 -2.655692209960E+00
 1.891456997971E-02 -3.960026750960E-06 -2.542699949898E-01
-5.129593000364E-02  2.944048997644E-02  6.919379000325E-02
-1.646996399679E-01  1.095998292122E-05  3.088193584952E+00
 9.020356996070E-02 -2.755996819648E-05 -1.994472350469E-01
-5.129704501450E-02 -2.944352997525E-02  6.918200505523E-02
 9.385375497606E-02  9.720002580593E-06 -2.655692209960E+00
