# vtk DataFile Version 3.0
MachLine results file. Generated by MachLine, USU AeroLab (c) 2023.
ASCII
DATASET POLYDATA
POINTS                   7 float
  0.567036768980E+00  0.000000000000E+00  0.000000000000E+00
  0.283518384490E+00  0.000000000000E+00 -0.291561459230E-01
  0.283518384490E+00  0.176355406690E+01  0.000000000000E+00
  0.000000000000E+00  0.000000000000E+00  0.000000000000E+00
  0.283518384490E+00  0.000000000000E+00  0.291561459230E-01
  0.283518384490E+00 -0.176355406690E+01  0.000000000000E+00
  0.567036768980E+00  0.000000000000E+00  0.000000000000E+00
POLYGONS                   8                  32
3                   0                   1                   2
3                   1                   3                   2
3                   3                   4                   2
3                   4                   6                   2
3                   0                   5                   1
3                   1                   5                   3
3                   3                   5                   4
3                   4                   5                   6
CELL_DATA                   8
NORMALS normals float
  0.102283551729E+00  0.164436508585E-01 -0.994619365080E+00
 -0.102283551729E+00  0.164436508585E-01 -0.994619365080E+00
 -0.102283551729E+00  0.164436508585E-01  0.994619365080E+00
  0.102283551729E+00  0.164436508585E-01  0.994619365080E+00
  0.102283551729E+00 -0.164436508585E-01 -0.994619365080E+00
 -0.102283551729E+00 -0.164436508585E-01 -0.994619365080E+00
 -0.102283551729E+00 -0.164436508585E-01  0.994619365080E+00
  0.102283551729E+00 -0.164436508585E-01  0.994619365080E+00
POINT_DATA                  7
VECTORS d_CFx_central_diff float
-3.737054936337E-03  6.780496303316E-05 -6.919229494917E-02
-9.532834001347E-02  1.719492603858E-05 -6.026718249452E-01
 7.426714972170E-03 -8.076681996816E-02  1.679223749634E-01
 5.150618508087E-02 -1.609996858054E-06  3.748636848849E-01
 3.209575504676E-02  6.745992653379E-05  7.264995849701E-01
 7.535400081693E-03  8.071258505299E-02  1.681714949589E-01
-3.737054936337E-03  6.780496303316E-05 -6.919229494917E-02
VECTORS d_CFy_central_diff float
-4.878909776185E-11 -7.342881673793E-04 -7.047314121156E-11
-5.421010862427E-12 -3.673764309257E-04  0.000000000000E+00
-6.898194179501E-03 -2.785819535125E-06 -3.170649503039E-02
 0.000000000000E+00  1.322605507103E-03 -7.589415207399E-11
-4.878909776185E-11 -2.153680228947E-04  5.421010862427E-12
 6.898193843398E-03 -2.785749061984E-06  3.170649505208E-02
-4.878909776185E-11 -7.342881673793E-04 -7.047314121156E-11
VECTORS d_CFz_central_diff float
-8.353752200402E+00 -2.253214975712E-02  1.395109189978E+01
 3.077688770017E+01 -5.705100281084E-03 -1.262654334998E+02
-3.310239200111E+00  2.915521659999E+01 -5.649715600006E+01
-1.396842495838E-01  5.353002763275E-04  2.672486799915E+00
-1.544984854981E+01 -2.243399979673E-02 -3.167978189986E+01
-3.346361799467E+00 -2.913718920028E+01 -5.657995469990E+01
-8.353752200402E+00 -2.253214975712E-02  1.395109189978E+01
