# vtk DataFile Version 3.0
MachLine results file. Generated by MachLine, USU AeroLab (c) 2023.
ASCII
DATASET POLYDATA
POINTS                   7 float
  0.567036768980E+00  0.000000000000E+00  0.000000000000E+00
  0.283518384490E+00  0.000000000000E+00 -0.291561459230E-01
  0.283518384490E+00  0.176355406690E+01  0.000000000000E+00
  0.000000000000E+00  0.000000000000E+00  0.000000000000E+00
  0.283518384490E+00  0.000000000000E+00  0.291561459230E-01
  0.283518384490E+00 -0.176355406690E+01  0.000000000000E+00
  0.567036768980E+00  0.000000000000E+00  0.000000000000E+00
POLYGONS                   8                  32
3                   0                   1                   2
3                   1                   3                   2
3                   3                   4                   2
3                   4                   6                   2
3                   0                   5                   1
3                   1                   5                   3
3                   3                   5                   4
3                   4                   5                   6
CELL_DATA                   8
NORMALS normals float
  0.102283551729E+00  0.164436508585E-01 -0.994619365080E+00
 -0.102283551729E+00  0.164436508585E-01 -0.994619365080E+00
 -0.102283551729E+00  0.164436508585E-01  0.994619365080E+00
  0.102283551729E+00  0.164436508585E-01  0.994619365080E+00
  0.102283551729E+00 -0.164436508585E-01 -0.994619365080E+00
 -0.102283551729E+00 -0.164436508585E-01 -0.994619365080E+00
 -0.102283551729E+00 -0.164436508585E-01  0.994619365080E+00
  0.102283551729E+00 -0.164436508585E-01  0.994619365080E+00
POINT_DATA                  7
VECTORS d_CFx_central_diff float
 3.738913141933E+05 -1.397525422600E+01  1.292210632419E+03
-2.853642229665E+03  1.134813133498E+00  1.773638665850E+02
-3.144820718630E+02 -2.079913117310E+05 -1.659337141955E+05
 4.947427550972E-02 -4.421983612612E-06  4.354680139922E-01
 4.328040538730E+02 -5.459940068300E+01  7.243974534344E+03
-7.836803062749E+01  2.148204409050E+05 -1.683186388789E+05
 3.738913141933E+05 -1.397525422600E+01  1.292210632419E+03
VECTORS d_CFy_central_diff float
 1.084202172485E-12 -4.526381973229E-03  8.673617379884E-12
-8.673617379884E-12 -1.077816195669E-03  0.000000000000E+00
 6.646983996203E-03 -5.632126709454E-07 -7.147080538390E-02
 8.673617379884E-12  1.322543901651E-03  0.000000000000E+00
 0.000000000000E+00  5.228512778982E-03  0.000000000000E+00
-6.665173981311E-03 -5.746336566304E-07  7.214056582377E-02
 1.084202172485E-12 -4.526381973229E-03  8.673617379884E-12
VECTORS d_CFz_central_diff float
 3.635769428022E+06 -1.358972997151E+02  1.254078415583E+04
-2.774819922612E+04  1.103205963526E+01  1.734600722045E+03
-3.058078893220E+03 -2.022534215762E+06  3.450042530359E+06
-2.635541401785E-01  8.478995283667E-05 -3.945629500901E-01
 4.205564575935E+03 -5.309336115100E+02  7.046008967226E+04
-7.620705287448E+02  2.088941612175E+06  3.437683943650E+06
 3.635769428022E+06 -1.358972997151E+02  1.254078415583E+04
