# vtk DataFile Version 3.0
MachLine results file. Generated by MachLine, USU AeroLab (c) 2023.
ASCII
DATASET POLYDATA
POINTS                   7 float
  0.567036768980E+00  0.000000000000E+00  0.000000000000E+00
  0.283518384490E+00  0.000000000000E+00 -0.291561459230E-01
  0.283518384490E+00  0.176355406690E+01  0.000000000000E+00
  0.000000000000E+00  0.000000000000E+00  0.000000000000E+00
  0.283518384490E+00  0.000000000000E+00  0.291561459230E-01
  0.283518384490E+00 -0.176355406690E+01  0.000000000000E+00
  0.567036768980E+00  0.000000000000E+00  0.000000000000E+00
POLYGONS                   8                  32
3                   0                   1                   2
3                   1                   3                   2
3                   3                   4                   2
3                   4                   6                   2
3                   0                   5                   1
3                   1                   5                   3
3                   3                   5                   4
3                   4                   5                   6
CELL_DATA                   8
NORMALS normals float
  0.102283551729E+00  0.164436508585E-01 -0.994619365080E+00
 -0.102283551729E+00  0.164436508585E-01 -0.994619365080E+00
 -0.102283551729E+00  0.164436508585E-01  0.994619365080E+00
  0.102283551729E+00  0.164436508585E-01  0.994619365080E+00
  0.102283551729E+00 -0.164436508585E-01 -0.994619365080E+00
 -0.102283551729E+00 -0.164436508585E-01 -0.994619365080E+00
 -0.102283551729E+00 -0.164436508585E-01  0.994619365080E+00
  0.102283551729E+00 -0.164436508585E-01  0.994619365080E+00
POINT_DATA                  7
VECTORS d_CFx_central_diff float
-2.928481700193E-02 -5.030698080333E-10 -5.810155549388E-02
-4.840673504397E-03 -1.000935445639E-08 -9.657315679958E-01
-2.176402998794E-03  6.934234991762E-03 -2.053652005396E-03
 5.151558948521E-02  5.030698080333E-10  3.778590350161E-01
-1.300971198825E-02  2.300243329145E-08  6.500672674985E-01
-2.176409504007E-03 -6.934228989619E-03 -2.053626487614E-03
-2.928481700193E-02 -5.030698080333E-10 -5.810155549388E-02
VECTORS d_CFy_central_diff float
-7.589415207399E-12 -7.561549021477E-04 -1.084202172486E-12
-5.421010862427E-13 -3.481909986031E-04  5.421010862427E-13
-6.891640685317E-03 -2.831587503534E-06 -3.559319599093E-02
 0.000000000000E+00  1.324450681506E-03 -1.084202172486E-12
-5.421010862427E-13 -2.144415455754E-04 -4.878909776185E-12
 6.891640693448E-03 -2.831625450610E-06  3.559319598225E-02
-7.589415207399E-12 -7.561549021477E-04 -1.084202172486E-12
VECTORS d_CFz_central_diff float
 1.330505450259E-01  1.199040866595E-07 -2.723145704903E+00
 5.412970002783E-02  1.725009024511E-06 -3.476791550494E-01
-3.849554494617E-02  4.580246001917E-02  2.921111005860E-02
-1.779436800686E-01 -5.509481759702E-08  3.303992425069E+00
 6.310177505520E-02 -4.050093593833E-06 -2.892253650466E-01
-3.849435992187E-02 -4.580353499262E-02  2.920658992434E-02
 1.330505450259E-01  1.199040866595E-07 -2.723145704903E+00
