# vtk DataFile Version 3.0
MachLine results file. Generated by MachLine, USU AeroLab (c) 2023.
ASCII
DATASET POLYDATA
POINTS                   7 float
  0.567036768980E+00  0.000000000000E+00  0.000000000000E+00
  0.283518384490E+00  0.000000000000E+00 -0.291561459230E-01
  0.283518384490E+00  0.176355406690E+01  0.000000000000E+00
  0.000000000000E+00  0.000000000000E+00  0.000000000000E+00
  0.283518384490E+00  0.000000000000E+00  0.291561459230E-01
  0.283518384490E+00 -0.176355406690E+01  0.000000000000E+00
  0.567036768980E+00  0.000000000000E+00  0.000000000000E+00
POLYGONS                   8                  32
3                   0                   1                   2
3                   1                   3                   2
3                   3                   4                   2
3                   4                   6                   2
3                   0                   5                   1
3                   1                   5                   3
3                   3                   5                   4
3                   4                   5                   6
CELL_DATA                   8
NORMALS normals float
  0.102283551729E+00  0.164436508585E-01 -0.994619365080E+00
 -0.102283551729E+00  0.164436508585E-01 -0.994619365080E+00
 -0.102283551729E+00  0.164436508585E-01  0.994619365080E+00
  0.102283551729E+00  0.164436508585E-01  0.994619365080E+00
  0.102283551729E+00 -0.164436508585E-01 -0.994619365080E+00
 -0.102283551729E+00 -0.164436508585E-01 -0.994619365080E+00
 -0.102283551729E+00 -0.164436508585E-01  0.994619365080E+00
  0.102283551729E+00 -0.164436508585E-01  0.994619365080E+00
POINT_DATA                  7
VECTORS d_CFx_central_diff float
-1.877786461150E+02 -1.412655513400E-02  3.828653030200E+02
 1.011559598550E+02 -2.676373012100E-02 -8.055784842496E+01
 4.514831909008E+01  7.062001037509E+01  3.953904395004E+01
 5.232853508147E-02 -4.600486658290E-07  3.686193799854E-01
-1.995689450501E-01 -2.463924984181E-02  2.918418621000E+02
 4.521601622495E+01 -7.053896319501E+01  3.942350321005E+01
-1.877786461150E+02 -1.412655513400E-02  3.828653030200E+02
VECTORS d_CFy_central_diff float
 2.710505431214E-12 -7.087854283529E-04 -7.589415207399E-11
 2.710505431214E-12 -3.830236339685E-04  0.000000000000E+00
-6.904093068734E-03 -2.749292763934E-06 -2.669910588731E-02
 2.710505431214E-12  1.322547041500E-03 -1.084202172486E-11
 0.000000000000E+00 -2.156686613151E-04 -2.710505431214E-12
 6.904093000971E-03 -2.749702050255E-06  2.669898461929E-02
 2.710505431214E-12 -7.087854283529E-04 -7.589415207399E-11
VECTORS d_CFz_central_diff float
-4.527037693048E+05 -2.662318248012E+01 -2.292935518295E+05
-3.616891285166E+05  3.304151904998E+01  5.303222123705E+04
 7.690753121944E+04  1.201617566328E+05  5.470124600657E+04
-1.716384194494E-01 -1.363419793732E-03  2.053390299461E+00
 1.393335371900E+03 -2.421275491493E+01  2.681471914384E+05
 7.703743513163E+04 -1.200976901155E+05  5.453460642730E+04
-4.527037693048E+05 -2.662318248012E+01 -2.292935518295E+05
