# vtk DataFile Version 3.0
MachLine results file. Generated by MachLine, USU AeroLab (c) 2023.
ASCII
DATASET POLYDATA
POINTS                   7 float
  0.567036768980E+00  0.000000000000E+00  0.000000000000E+00
  0.283518384490E+00  0.000000000000E+00 -0.291561459230E-01
  0.283518384490E+00  0.176355406690E+01  0.000000000000E+00
  0.000000000000E+00  0.000000000000E+00  0.000000000000E+00
  0.283518384490E+00  0.000000000000E+00  0.291561459230E-01
  0.283518384490E+00 -0.176355406690E+01  0.000000000000E+00
  0.567036768980E+00  0.000000000000E+00  0.000000000000E+00
POLYGONS                   8                  32
3                   0                   1                   2
3                   1                   3                   2
3                   3                   4                   2
3                   4                   6                   2
3                   0                   5                   1
3                   1                   5                   3
3                   3                   5                   4
3                   4                   5                   6
CELL_DATA                   8
NORMALS normals float
  0.102283551729E+00  0.164436508585E-01 -0.994619365080E+00
 -0.102283551729E+00  0.164436508585E-01 -0.994619365080E+00
 -0.102283551729E+00  0.164436508585E-01  0.994619365080E+00
  0.102283551729E+00  0.164436508585E-01  0.994619365080E+00
  0.102283551729E+00 -0.164436508585E-01 -0.994619365080E+00
 -0.102283551729E+00 -0.164436508585E-01 -0.994619365080E+00
 -0.102283551729E+00 -0.164436508585E-01  0.994619365080E+00
  0.102283551729E+00 -0.164436508585E-01  0.994619365080E+00
POINT_DATA                  7
VECTORS d_CFx_central_diff float
-2.889665099218E-02  1.919991943211E-07 -3.506990149671E-02
-4.207693516528E-03  5.349887199912E-08 -9.773148785044E-01
-2.021439994560E-03  8.188818512167E-03 -2.612072988462E-03
 5.145402149492E-02 -1.129998872251E-07  3.757959705052E-01
-1.545292598742E-02  2.121514769415E-06  6.375638514876E-01
-2.020449484802E-03 -8.188872999831E-03 -2.611615489839E-03
-2.889665099218E-02  1.919991943211E-07 -3.506990149671E-02
VECTORS d_CFy_central_diff float
 5.421010862427E-13 -7.412460944524E-04  0.000000000000E+00
 0.000000000000E+00 -3.607218945203E-04  5.421010862427E-13
-6.894474797927E-03 -2.796681072489E-06 -3.298162348266E-02
 5.421010862427E-13  1.322745141500E-03 -1.084202172486E-12
 0.000000000000E+00 -2.151835881790E-04  5.421010862427E-13
 6.894474841837E-03 -2.796696251320E-06  3.298162347127E-02
 5.421010862427E-13 -7.412460944524E-04  0.000000000000E+00
VECTORS d_CFz_central_diff float
 2.318933003953E-02 -4.859501689936E-05 -1.965258384987E+00
 2.190488999909E-01 -1.351495304558E-05  2.261256494551E-02
-1.062143600156E-01 -2.684208750409E-01  1.464422150210E-01
-1.520159099988E-01  2.869503246128E-05  2.879195555028E+00
 4.122130650014E-01 -5.373750056048E-04 -1.579554850112E-01
-1.064648100235E-01  2.684345300208E-01  1.463262500057E-01
 2.318933003953E-02 -4.859501689936E-05 -1.965258384987E+00
