# vtk DataFile Version 3.0
MachLine results file. Generated by MachLine, USU AeroLab (c) 2023.
ASCII
DATASET POLYDATA
POINTS                   7 float
  0.567036768980E+00  0.000000000000E+00  0.000000000000E+00
  0.283518384490E+00  0.000000000000E+00 -0.291561459230E-01
  0.283518384490E+00  0.176355406690E+01  0.000000000000E+00
  0.000000000000E+00  0.000000000000E+00  0.000000000000E+00
  0.283518384490E+00  0.000000000000E+00  0.291561459230E-01
  0.283518384490E+00 -0.176355406690E+01  0.000000000000E+00
  0.567036768980E+00  0.000000000000E+00  0.000000000000E+00
POLYGONS                   8                  32
3                   0                   1                   2
3                   1                   3                   2
3                   3                   4                   2
3                   4                   6                   2
3                   0                   5                   1
3                   1                   5                   3
3                   3                   5                   4
3                   4                   5                   6
CELL_DATA                   8
NORMALS normals float
  0.102283551729E+00  0.164436508585E-01 -0.994619365080E+00
 -0.102283551729E+00  0.164436508585E-01 -0.994619365080E+00
 -0.102283551729E+00  0.164436508585E-01  0.994619365080E+00
  0.102283551729E+00  0.164436508585E-01  0.994619365080E+00
  0.102283551729E+00 -0.164436508585E-01 -0.994619365080E+00
 -0.102283551729E+00 -0.164436508585E-01 -0.994619365080E+00
 -0.102283551729E+00 -0.164436508585E-01  0.994619365080E+00
  0.102283551729E+00 -0.164436508585E-01  0.994619365080E+00
POINT_DATA                  7
VECTORS d_CFx_central_diff float
 6.412800830115E-01 -1.898238699907E-02 -3.091918198000E+00
 3.244120231699E+01  1.514753513593E-03  4.413981125100E+01
-6.587538760004E+00  1.392234679650E+01  1.236571338700E+01
 5.190310400222E-02 -4.900593819634E-08  3.690203159885E-01
 2.862062580163E-01 -2.529637489063E-03 -3.037502340000E+00
-6.591928528501E+00 -1.388575552701E+01  1.238431889851E+01
 6.412800830115E-01 -1.898238699907E-02 -3.091918198000E+00
VECTORS d_CFy_central_diff float
-2.710505431214E-13 -7.068287762816E-04 -7.318364664277E-12
-1.355252715607E-12 -3.852392694128E-04  0.000000000000E+00
-6.904093278527E-03 -2.750266919586E-06 -2.730044011440E-02
-5.421010862428E-13  1.322546922238E-03 -1.355252715607E-12
 1.111307226798E-11 -2.156578743167E-04 -6.505213034913E-12
 6.904093201548E-03 -2.750237104027E-06  2.729991305445E-02
-2.710505431214E-13 -7.068287762816E-04 -7.318364664277E-12
VECTORS d_CFz_central_diff float
 7.165968653150E+03 -2.358467407301E+01  2.396093758904E+04
-4.759532400842E+04 -3.032364080044E+00  5.006305191302E+04
-2.315261026019E+04  2.701249218541E+04  4.499605701213E+04
-1.008310255429E-01 -1.603765037439E-04  2.063704074018E+00
 7.346261269965E+02 -1.854103969051E+01 -1.916344654547E+04
-2.315519043428E+04 -2.699320132417E+04  4.499947544017E+04
 7.165968653150E+03 -2.358467407301E+01  2.396093758904E+04
