# vtk DataFile Version 3.0
MachLine results file. Generated by MachLine, USU AeroLab (c) 2023.
ASCII
DATASET POLYDATA
POINTS                   7 float
  0.567036768980E+00  0.000000000000E+00  0.000000000000E+00
  0.283518384490E+00  0.000000000000E+00 -0.291561459230E-01
  0.283518384490E+00  0.176355406690E+01  0.000000000000E+00
  0.000000000000E+00  0.000000000000E+00  0.000000000000E+00
  0.283518384490E+00  0.000000000000E+00  0.291561459230E-01
  0.283518384490E+00 -0.176355406690E+01  0.000000000000E+00
  0.567036768980E+00  0.000000000000E+00  0.000000000000E+00
POLYGONS                   8                  32
3                   0                   1                   2
3                   1                   3                   2
3                   3                   4                   2
3                   4                   6                   2
3                   0                   5                   1
3                   1                   5                   3
3                   3                   5                   4
3                   4                   5                   6
CELL_DATA                   8
NORMALS normals float
  0.102283551729E+00  0.164436508585E-01 -0.994619365080E+00
 -0.102283551729E+00  0.164436508585E-01 -0.994619365080E+00
 -0.102283551729E+00  0.164436508585E-01  0.994619365080E+00
  0.102283551729E+00  0.164436508585E-01  0.994619365080E+00
  0.102283551729E+00 -0.164436508585E-01 -0.994619365080E+00
 -0.102283551729E+00 -0.164436508585E-01 -0.994619365080E+00
 -0.102283551729E+00 -0.164436508585E-01  0.994619365080E+00
  0.102283551729E+00 -0.164436508585E-01  0.994619365080E+00
POINT_DATA                  7
VECTORS d_CFx_central_diff float
-1.742246544950E-02  3.984530067003E-05 -6.946238220035E-02
 6.078300350890E-03  2.403049981226E-06 -9.330396549007E-01
-1.991951474947E-02  3.002445498820E-03 -7.914336450088E-03
 5.161657654941E-02 -1.405004584898E-07  3.728780174003E-01
-6.523037229984E-02  3.806795156880E-05  4.824151753000E-01
-1.992699160021E-02 -2.912445399433E-03 -7.924805900048E-03
-1.742246544950E-02  3.984530067003E-05 -6.946238220035E-02
VECTORS d_CFy_central_diff float
-2.710505431214E-14 -7.240007168818E-04 -5.421010862427E-14
 6.776263578034E-13 -3.773711752158E-04  1.463672932855E-12
-6.902477118467E-03 -2.770902404010E-06 -2.977957481168E-02
-1.544988095792E-12  1.322554939967E-03  2.710505431214E-14
-5.421010862428E-14 -2.155505024687E-04 -5.421010862427E-14
 6.902477125542E-03 -2.770903406897E-06  2.977957367636E-02
-2.710505431214E-14 -7.240007168818E-04 -5.421010862427E-14
VECTORS d_CFz_central_diff float
-7.388150240498E+00 -2.505894500238E-02  4.103807242300E+01
-5.072665101004E+00 -1.498089499674E-03 -3.663117173550E+01
 1.110593245150E+01  2.577808350994E+00  3.692151992002E+00
-1.210815050029E-01  8.876250429113E-05  2.361875238499E+00
 3.133984820000E+01 -2.420383349994E-02  8.933398024100E+01
 1.111069339550E+01 -2.635092588500E+00  3.698815509996E+00
-7.388150240498E+00 -2.505894500238E-02  4.103807242300E+01
