# vtk DataFile Version 3.0
MachLine results file. Generated by MachLine, USU AeroLab (c) 2023.
ASCII
DATASET POLYDATA
POINTS                   7 float
  0.567036768980E+00  0.000000000000E+00  0.000000000000E+00
  0.283518384490E+00  0.000000000000E+00 -0.291561459230E-01
  0.283518384490E+00  0.176355406690E+01  0.000000000000E+00
  0.000000000000E+00  0.000000000000E+00  0.000000000000E+00
  0.283518384490E+00  0.000000000000E+00  0.291561459230E-01
  0.283518384490E+00 -0.176355406690E+01  0.000000000000E+00
  0.567036768980E+00  0.000000000000E+00  0.000000000000E+00
POLYGONS                   8                  32
3                   0                   1                   2
3                   1                   3                   2
3                   3                   4                   2
3                   4                   6                   2
3                   0                   5                   1
3                   1                   5                   3
3                   3                   5                   4
3                   4                   5                   6
CELL_DATA                   8
NORMALS normals float
  0.102283551729E+00  0.164436508585E-01 -0.994619365080E+00
 -0.102283551729E+00  0.164436508585E-01 -0.994619365080E+00
 -0.102283551729E+00  0.164436508585E-01  0.994619365080E+00
  0.102283551729E+00  0.164436508585E-01  0.994619365080E+00
  0.102283551729E+00 -0.164436508585E-01 -0.994619365080E+00
 -0.102283551729E+00 -0.164436508585E-01 -0.994619365080E+00
 -0.102283551729E+00 -0.164436508585E-01  0.994619365080E+00
  0.102283551729E+00 -0.164436508585E-01  0.994619365080E+00
POINT_DATA                  7
VECTORS d_CFx_central_diff float
 7.442680752998E+03  6.619442110070E-01 -2.311645141001E+01
 4.892060226431E+03  1.001079440004E-01 -8.669919081935E+02
-1.228551918340E+03  1.594734529634E+03 -1.618705979845E+02
 4.881557449932E-02 -8.940589935058E-04  4.207188135028E-01
 5.089606539520E+02 -7.432258294915E-01 -6.807955623449E+01
-1.228561844288E+03 -1.594613349884E+03 -1.545620273460E+02
 7.442680752998E+03  6.619442110070E-01 -2.311645141001E+01
VECTORS d_CFy_central_diff float
 4.065758146821E-13 -5.612406837831E-04 -8.402566836763E-12
 5.421010862427E-13 -3.625242516120E-04 -2.168404344971E-12
-6.822477136459E-03 -2.809993719915E-06 -4.798800708802E-02
 5.421010862427E-13  1.322545911220E-03 -1.626303258728E-12
-2.710505431214E-13 -2.145302867101E-04 -2.710505431214E-13
 6.822761066105E-03 -2.809948725525E-06  4.796785590966E-02
 4.065758146821E-13 -5.612406837831E-04 -8.402566836763E-12
VECTORS d_CFz_central_diff float
 8.357864733784E+05  2.883154297850E+01 -2.216821160535E+05
-3.097658851982E+05 -2.714284186495E+01  1.288482873397E+05
-5.107336255130E+05 -2.952044805810E+05  1.059490478626E+04
-9.389866495457E-02  4.390780003471E-02  1.838838420004E+00
 2.256977294763E+05 -9.280056504548E+01  4.617269531103E+04
-5.097585595314E+05  2.954225716163E+05  1.012664191509E+04
 8.357864733784E+05  2.883154297850E+01 -2.216821160535E+05
