# vtk DataFile Version 3.0
MachLine results file. Generated by MachLine, USU AeroLab (c) 2023.
ASCII
DATASET POLYDATA
POINTS                   7 float
  0.567036768980E+00  0.000000000000E+00  0.000000000000E+00
  0.283518384490E+00  0.000000000000E+00 -0.291561459230E-01
  0.283518384490E+00  0.176355406690E+01  0.000000000000E+00
  0.000000000000E+00  0.000000000000E+00  0.000000000000E+00
  0.283518384490E+00  0.000000000000E+00  0.291561459230E-01
  0.283518384490E+00 -0.176355406690E+01  0.000000000000E+00
  0.567036768980E+00  0.000000000000E+00  0.000000000000E+00
POLYGONS                   8                  32
3                   0                   1                   2
3                   1                   3                   2
3                   3                   4                   2
3                   4                   6                   2
3                   0                   5                   1
3                   1                   5                   3
3                   3                   5                   4
3                   4                   5                   6
CELL_DATA                   8
NORMALS normals float
  0.102283551729E+00  0.164436508585E-01 -0.994619365080E+00
 -0.102283551729E+00  0.164436508585E-01 -0.994619365080E+00
 -0.102283551729E+00  0.164436508585E-01  0.994619365080E+00
  0.102283551729E+00  0.164436508585E-01  0.994619365080E+00
  0.102283551729E+00 -0.164436508585E-01 -0.994619365080E+00
 -0.102283551729E+00 -0.164436508585E-01 -0.994619365080E+00
 -0.102283551729E+00 -0.164436508585E-01  0.994619365080E+00
  0.102283551729E+00 -0.164436508585E-01  0.994619365080E+00
POINT_DATA                  7
VECTORS d_CFx_central_diff float
 9.607280840949E+02  2.169403150003E+00 -7.423215320441E+04
 1.714492486543E+04 -3.902516319994E+00  8.500572527165E+03
-3.525477969991E+01  1.846255057317E+04 -2.062114770451E+02
 5.460262502560E-02  3.092390059301E-03  4.254551998900E-01
 1.022348265617E+04  3.274984354887E+00 -3.557013583601E+02
-3.607628298510E+01 -1.846180286347E+04 -2.155444182000E+02
 9.607280840949E+02  2.169403150003E+00 -7.423215320441E+04
VECTORS d_CFy_central_diff float
-2.710505431214E-12 -6.739527420299E-04  1.192622389734E-10
-8.673617379884E-11 -2.772720421318E-04 -5.421010862427E-12
-6.904145107727E-03 -2.848882154488E-06 -3.627992140650E-02
 0.000000000000E+00  1.322546006087E-03  0.000000000000E+00
-2.710505431214E-12 -2.154845258392E-04  0.000000000000E+00
 6.904149634271E-03 -2.848914680553E-06  3.627262456867E-02
-2.710505431214E-12 -6.739527420299E-04  1.192622389734E-10
VECTORS d_CFz_central_diff float
 4.128609330116E+05  3.966491905399E+02  5.664879750900E+06
-2.513882396798E+06  2.475589981510E+02 -3.192155648606E+06
-2.039152019674E+05 -1.983620899235E+06  3.200224978465E+04
-3.817137994577E-01 -1.520573000846E-01  1.621403450391E+00
-2.101056381293E+06 -1.466025437400E+03  2.419663011099E+05
-1.992663703203E+05  1.984540148538E+06  3.347935536980E+04
 4.128609330116E+05  3.966491905399E+02  5.664879750900E+06
