# vtk DataFile Version 3.0
MachLine results file. Generated by MachLine, USU AeroLab (c) 2023.
ASCII
DATASET POLYDATA
POINTS                   7 float
  0.567036768980E+00  0.000000000000E+00  0.000000000000E+00
  0.283518384490E+00  0.000000000000E+00 -0.291561459230E-01
  0.283518384490E+00  0.176355406690E+01  0.000000000000E+00
  0.000000000000E+00  0.000000000000E+00  0.000000000000E+00
  0.283518384490E+00  0.000000000000E+00  0.291561459230E-01
  0.283518384490E+00 -0.176355406690E+01  0.000000000000E+00
  0.567036768980E+00  0.000000000000E+00  0.000000000000E+00
POLYGONS                   8                  32
3                   0                   1                   2
3                   1                   3                   2
3                   3                   4                   2
3                   4                   6                   2
3                   0                   5                   1
3                   1                   5                   3
3                   3                   5                   4
3                   4                   5                   6
CELL_DATA                   8
NORMALS normals float
  0.102283551729E+00  0.164436508585E-01 -0.994619365080E+00
 -0.102283551729E+00  0.164436508585E-01 -0.994619365080E+00
 -0.102283551729E+00  0.164436508585E-01  0.994619365080E+00
  0.102283551729E+00  0.164436508585E-01  0.994619365080E+00
  0.102283551729E+00 -0.164436508585E-01 -0.994619365080E+00
 -0.102283551729E+00 -0.164436508585E-01 -0.994619365080E+00
 -0.102283551729E+00 -0.164436508585E-01  0.994619365080E+00
  0.102283551729E+00 -0.164436508585E-01  0.994619365080E+00
POINT_DATA                  7
VECTORS d_CFx_central_diff float
-2.951663000822E-02 -5.030698080333E-10 -8.339520650436E-02
-6.398525511514E-03  1.006139616067E-09 -9.633804545078E-01
-1.816938995092E-03  6.931138510358E-03 -1.325073488434E-03
 5.199100448772E-02 -5.030698080333E-10  3.822839039942E-01
-1.244207349996E-02  0.000000000000E+00  6.671418189934E-01
-1.816938492022E-03 -6.931137504218E-03 -1.325074494574E-03
-2.951663000822E-02 -5.030698080333E-10 -8.339520650436E-02
VECTORS d_CFy_central_diff float
 0.000000000000E+00 -7.758242594365E-04 -7.589415207399E-12
 5.963111948670E-12 -3.373383771757E-04  7.589415207399E-12
-6.917228001328E-03 -3.058697501009E-06 -3.850070841402E-02
-5.421010862427E-13  1.332030775286E-03 -5.421010862427E-13
 1.084202172485E-12 -2.127508103500E-04  5.421010862427E-13
 6.917227994281E-03 -3.058676359066E-06  3.850070844221E-02
 0.000000000000E+00 -7.758242594365E-04 -7.589415207399E-12
VECTORS d_CFz_central_diff float
 1.768357550669E-01  0.000000000000E+00 -2.761874484947E+00
 5.576215503234E-02 -1.600108934241E-07 -4.958562700719E-01
-3.094706504947E-02  4.512048498717E-02 -7.743120034043E-03
-2.083580451229E-01 -1.498801083244E-08  3.779169319984E+00
 3.767108500141E-02  9.992007221626E-09 -5.059485599923E-01
-3.094712000551E-02 -4.512051995920E-02 -7.743020113971E-03
 1.768357550669E-01  0.000000000000E+00 -2.761874484947E+00
