# vtk DataFile Version 3.0
MachLine results file. Generated by MachLine, USU AeroLab (c) 2023.
ASCII
DATASET POLYDATA
POINTS                   7 float
  0.567036768980E+00  0.000000000000E+00  0.000000000000E+00
  0.283518384490E+00  0.000000000000E+00 -0.291561459230E-01
  0.283518384490E+00  0.176355406690E+01  0.000000000000E+00
  0.000000000000E+00  0.000000000000E+00  0.000000000000E+00
  0.283518384490E+00  0.000000000000E+00  0.291561459230E-01
  0.283518384490E+00 -0.176355406690E+01  0.000000000000E+00
  0.567036768980E+00  0.000000000000E+00  0.000000000000E+00
POLYGONS                   8                  32
3                   0                   1                   2
3                   1                   3                   2
3                   3                   4                   2
3                   4                   6                   2
3                   0                   5                   1
3                   1                   5                   3
3                   3                   5                   4
3                   4                   5                   6
CELL_DATA                   8
NORMALS normals float
  0.102283551729E+00  0.164436508585E-01 -0.994619365080E+00
 -0.102283551729E+00  0.164436508585E-01 -0.994619365080E+00
 -0.102283551729E+00  0.164436508585E-01  0.994619365080E+00
  0.102283551729E+00  0.164436508585E-01  0.994619365080E+00
  0.102283551729E+00 -0.164436508585E-01 -0.994619365080E+00
 -0.102283551729E+00 -0.164436508585E-01 -0.994619365080E+00
 -0.102283551729E+00 -0.164436508585E-01  0.994619365080E+00
  0.102283551729E+00 -0.164436508585E-01  0.994619365080E+00
POINT_DATA                  7
VECTORS d_CFx_central_diff float
 4.381177760278E+06  1.652466644233E+04  6.319501569387E+05
 6.393780338237E+05  4.383116827721E+02 -6.285901661533E+05
-1.872616782317E+06 -1.346573696412E+06  1.721886375326E+04
-5.622304496966E-02 -1.142169952367E-03  1.980027650519E-01
 1.260428754531E+04  9.602797429593E+04 -2.937624486323E+04
-1.877350766063E+06  1.346834118818E+06  1.593407095968E+04
 4.381177760278E+06  1.652466644233E+04  6.319501569387E+05
VECTORS d_CFy_central_diff float
-5.421010862428E-11 -4.735544530295E-04 -2.168404344971E-11
 1.084202172486E-11 -1.077813706341E-03 -1.192622389734E-10
-9.027831054335E-03 -2.456189548625E-06 -2.583679829327E-02
 0.000000000000E+00  1.322545642880E-03 -1.084202172486E-11
 1.084202172486E-11  5.875671051930E-03 -2.168404344971E-11
 9.019268383363E-03 -2.456742491733E-06  2.587243194208E-02
-5.421010862428E-11 -4.735544530295E-04 -2.168404344971E-11
VECTORS d_CFz_central_diff float
-8.442079561119E+07  2.473814125766E+05 -5.524938595294E+07
 8.180777387042E+06  4.262211532849E+03 -8.000002099300E+06
-1.623467731883E+07  3.505439065478E+06  1.674389827500E+05
 5.631550199781E+00 -1.804345006740E-02  1.769900749571E+00
 1.879669455175E+05  9.337892686429E+05  3.670512831691E+05
-1.630148185135E+07 -3.524094324840E+06  1.549454870578E+05
-8.442079561119E+07  2.473814125766E+05 -5.524938595294E+07
