# vtk DataFile Version 3.0
MachLine results file. Generated by MachLine, USU AeroLab (c) 2023.
ASCII
DATASET POLYDATA
POINTS                   7 float
  0.567036768980E+00  0.000000000000E+00  0.000000000000E+00
  0.283518384490E+00  0.000000000000E+00 -0.291561459230E-01
  0.283518384490E+00  0.176355406690E+01  0.000000000000E+00
  0.000000000000E+00  0.000000000000E+00  0.000000000000E+00
  0.283518384490E+00  0.000000000000E+00  0.291561459230E-01
  0.283518384490E+00 -0.176355406690E+01  0.000000000000E+00
  0.567036768980E+00  0.000000000000E+00  0.000000000000E+00
POLYGONS                   8                  32
3                   0                   1                   2
3                   1                   3                   2
3                   3                   4                   2
3                   4                   6                   2
3                   0                   5                   1
3                   1                   5                   3
3                   3                   5                   4
3                   4                   5                   6
CELL_DATA                   8
NORMALS normals float
  0.102283551729E+00  0.164436508585E-01 -0.994619365080E+00
 -0.102283551729E+00  0.164436508585E-01 -0.994619365080E+00
 -0.102283551729E+00  0.164436508585E-01  0.994619365080E+00
  0.102283551729E+00  0.164436508585E-01  0.994619365080E+00
  0.102283551729E+00 -0.164436508585E-01 -0.994619365080E+00
 -0.102283551729E+00 -0.164436508585E-01 -0.994619365080E+00
 -0.102283551729E+00 -0.164436508585E-01  0.994619365080E+00
  0.102283551729E+00 -0.164436508585E-01  0.994619365080E+00
POINT_DATA                  7
VECTORS d_CFx_central_diff float
-2.938358011767E-02  0.000000000000E+00 -7.062802495628E-02
-5.582800020887E-03  5.030698080333E-09 -9.632206350238E-01
-2.040975027873E-03  6.924085090010E-03 -1.751285054474E-03
 5.170136003346E-02  0.000000000000E+00  3.800230199968E-01
-1.260884001375E-02  5.030698080333E-09  6.573386800157E-01
-2.040979885098E-03 -6.924084916538E-03 -1.751299973096E-03
-2.938358011767E-02  0.000000000000E+00 -7.062802495628E-02
VECTORS d_CFy_central_diff float
-5.963111948670E-11 -7.653393056025E-04 -7.047314121156E-11
-9.757819552370E-11 -3.428102257359E-04 -8.673617379884E-11
-6.901207329126E-03 -2.868695949190E-06 -3.700698792547E-02
-1.029992063861E-10  1.327592137786E-03 -8.131516293641E-11
-7.047314121156E-11 -2.137051711808E-04  5.421010862427E-12
 6.901206976761E-03 -2.868636318071E-06  3.700698778452E-02
-5.963111948670E-11 -7.653393056025E-04 -7.047314121156E-11
VECTORS d_CFz_central_diff float
 1.532955998251E-01  2.997602166488E-07 -2.746599349346E+00
 5.547399900552E-02 -9.992007221626E-08 -4.130737488173E-01
-3.525304909102E-02  4.655845015078E-02  1.039449915030E-02
-1.925843498563E-01 -4.996003610813E-08  3.535003849364E+00
 4.765235012139E-02 -2.997602166488E-07 -3.980647506063E-01
-3.525299913099E-02 -4.655900109896E-02  1.039665020741E-02
 1.532955998251E-01  2.997602166488E-07 -2.746599349346E+00
