# vtk DataFile Version 3.0
MachLine results file. Generated by MachLine, USU AeroLab (c) 2023.
ASCII
DATASET POLYDATA
POINTS                   7 float
  0.567036768980E+00  0.000000000000E+00  0.000000000000E+00
  0.283518384490E+00  0.000000000000E+00 -0.291561459230E-01
  0.283518384490E+00  0.176355406690E+01  0.000000000000E+00
  0.000000000000E+00  0.000000000000E+00  0.000000000000E+00
  0.283518384490E+00  0.000000000000E+00  0.291561459230E-01
  0.283518384490E+00 -0.176355406690E+01  0.000000000000E+00
  0.567036768980E+00  0.000000000000E+00  0.000000000000E+00
POLYGONS                   8                  32
3                   0                   1                   2
3                   1                   3                   2
3                   3                   4                   2
3                   4                   6                   2
3                   0                   5                   1
3                   1                   5                   3
3                   3                   5                   4
3                   4                   5                   6
CELL_DATA                   8
NORMALS normals float
  0.102283551729E+00  0.164436508585E-01 -0.994619365080E+00
 -0.102283551729E+00  0.164436508585E-01 -0.994619365080E+00
 -0.102283551729E+00  0.164436508585E-01  0.994619365080E+00
  0.102283551729E+00  0.164436508585E-01  0.994619365080E+00
  0.102283551729E+00 -0.164436508585E-01 -0.994619365080E+00
 -0.102283551729E+00 -0.164436508585E-01 -0.994619365080E+00
 -0.102283551729E+00 -0.164436508585E-01  0.994619365080E+00
  0.102283551729E+00 -0.164436508585E-01  0.994619365080E+00
POINT_DATA                  7
VECTORS d_CFx_central_diff float
-3.870567774706E+05  8.975504564926E-01 -6.071441413158E+04
-6.057502175952E+04  6.442723482280E+01  2.060807355439E+03
-1.916806548160E+05 -6.233732706217E+03 -1.252660900985E+01
 4.186937050538E-02  1.720517998904E-03  6.561532915096E-01
 5.109127469672E+04 -9.016235141050E+01 -1.073605589186E+05
-1.927080882883E+05  6.413838530764E+03 -2.153208855060E+01
-3.870567774706E+05  8.975504564926E-01 -6.071441413158E+04
VECTORS d_CFy_central_diff float
-3.252606517457E-12 -4.426775990045E-03  2.818925648462E-11
 0.000000000000E+00  2.847185139564E-04  2.710505431214E-13
-6.249738075149E-04 -2.820526676258E-06 -1.598411599141E-01
-1.084202172486E-12  1.322545609269E-03 -9.757819552370E-12
 8.673617379884E-12 -2.040117944371E-04 -2.059984127722E-11
 5.954286759827E-04 -2.821855772596E-06  1.599100045663E-01
-3.252606517457E-12 -4.426775990045E-03  2.818925648462E-11
VECTORS d_CFz_central_diff float
 3.763794818435E+06  8.727904440287E+00  4.558090933343E+06
 6.710478384854E+05 -7.000530077800E+02 -1.405977397248E+06
-4.137707150043E+06  1.370934699096E+06  1.370612951801E+02
-1.350239348108E-01 -1.672520510976E-02  1.560518664845E+00
-5.188574657003E+05  2.782805411910E+03  1.307487706522E+06
-4.148032651768E+06 -1.370001107681E+06  2.355791379449E+02
 3.763794818435E+06  8.727904440287E+00  4.558090933343E+06
