# vtk DataFile Version 3.0
MachLine results file. Generated by MachLine, USU AeroLab (c) 2023.
ASCII
DATASET POLYDATA
POINTS                   7 float
  0.567036768980E+00  0.000000000000E+00  0.000000000000E+00
  0.283518384490E+00  0.000000000000E+00 -0.291561459230E-01
  0.283518384490E+00  0.176355406690E+01  0.000000000000E+00
  0.000000000000E+00  0.000000000000E+00  0.000000000000E+00
  0.283518384490E+00  0.000000000000E+00  0.291561459230E-01
  0.283518384490E+00 -0.176355406690E+01  0.000000000000E+00
  0.567036768980E+00  0.000000000000E+00  0.000000000000E+00
POLYGONS                   8                  32
3                   0                   1                   2
3                   1                   3                   2
3                   3                   4                   2
3                   4                   6                   2
3                   0                   5                   1
3                   1                   5                   3
3                   3                   5                   4
3                   4                   5                   6
CELL_DATA                   8
NORMALS normals float
  0.102283551729E+00  0.164436508585E-01 -0.994619365080E+00
 -0.102283551729E+00  0.164436508585E-01 -0.994619365080E+00
 -0.102283551729E+00  0.164436508585E-01  0.994619365080E+00
  0.102283551729E+00  0.164436508585E-01  0.994619365080E+00
  0.102283551729E+00 -0.164436508585E-01 -0.994619365080E+00
 -0.102283551729E+00 -0.164436508585E-01 -0.994619365080E+00
 -0.102283551729E+00 -0.164436508585E-01  0.994619365080E+00
  0.102283551729E+00 -0.164436508585E-01  0.994619365080E+00
POINT_DATA                  7
VECTORS d_CFx_central_diff float
-7.167325680006E+00 -1.147078994290E-02  1.976358809004E+01
-8.480885379906E+00  3.569375003898E-03 -3.454829445096E+00
 9.932020659902E+00  8.627930669913E+00  1.547037091990E+01
 5.194809998832E-02 -1.016998985026E-05  3.720440251015E-01
-9.032917974890E+00  1.013538506595E-02  2.029409410000E+01
 9.938367519918E+00 -8.624571739939E+00  1.547829689991E+01
-7.167325680006E+00 -1.147078994290E-02  1.976358809004E+01
VECTORS d_CFy_central_diff float
 2.710505431214E-12 -7.205593868971E-04  6.234162491792E-11
 0.000000000000E+00 -3.804609866086E-04 -5.421010862428E-12
-6.903387895509E-03 -2.765921714755E-06 -2.910391617918E-02
-2.710505431214E-12  1.322550722367E-03 -8.131516293641E-12
-2.710505431214E-12 -2.155893492157E-04  0.000000000000E+00
 6.903388212638E-03 -2.765872925657E-06  2.910380899224E-02
 2.710505431214E-12 -7.205593868971E-04  6.234162491792E-11
VECTORS d_CFz_central_diff float
 6.023403646000E+03  1.031023924986E+01 -1.726935434635E+04
 7.816286119700E+03 -3.051539599480E+00  2.198530898450E+03
-9.181240281701E+03 -7.935819432700E+03 -1.447008740970E+04
-1.391259996097E-01  8.770300458094E-03  2.258348050233E+00
 8.078159184800E+03 -8.996193499866E+00 -1.826356379290E+04
-9.187133366099E+03  7.933116123651E+03 -1.447858491730E+04
 6.023403646000E+03  1.031023924986E+01 -1.726935434635E+04
