# vtk DataFile Version 3.0
MachLine results file. Generated by MachLine, USU AeroLab (c) 2023.
ASCII
DATASET POLYDATA
POINTS                   7 float
  0.567036768980E+00  0.000000000000E+00  0.000000000000E+00
  0.283518384490E+00  0.000000000000E+00 -0.291561459230E-01
  0.283518384490E+00  0.176355406690E+01  0.000000000000E+00
  0.000000000000E+00  0.000000000000E+00  0.000000000000E+00
  0.283518384490E+00  0.000000000000E+00  0.291561459230E-01
  0.283518384490E+00 -0.176355406690E+01  0.000000000000E+00
  0.567036768980E+00  0.000000000000E+00  0.000000000000E+00
POLYGONS                   8                  32
3                   0                   1                   2
3                   1                   3                   2
3                   3                   4                   2
3                   4                   6                   2
3                   0                   5                   1
3                   1                   5                   3
3                   3                   5                   4
3                   4                   5                   6
CELL_DATA                   8
NORMALS normals float
  0.102283551729E+00  0.164436508585E-01 -0.994619365080E+00
 -0.102283551729E+00  0.164436508585E-01 -0.994619365080E+00
 -0.102283551729E+00  0.164436508585E-01  0.994619365080E+00
  0.102283551729E+00  0.164436508585E-01  0.994619365080E+00
  0.102283551729E+00 -0.164436508585E-01 -0.994619365080E+00
 -0.102283551729E+00 -0.164436508585E-01 -0.994619365080E+00
 -0.102283551729E+00 -0.164436508585E-01  0.994619365080E+00
  0.102283551729E+00 -0.164436508585E-01  0.994619365080E+00
POINT_DATA                  7
VECTORS d_CFx_central_diff float
-4.278950716009E+00 -1.740290030139E-04 -6.451189046991E+00
 2.702268076995E+00 -2.558249966034E-04 -3.510160188503E+00
 2.111253614989E-01  1.060981705010E+00 -3.322035653491E+00
 5.166044599048E-02  9.930077593534E-07  3.721516639993E-01
-5.307156944988E-01  5.313159981424E-04  4.245306321499E+00
 2.127167285024E-01 -1.058986261494E+00 -3.319927637507E+00
-4.278950716009E+00 -1.740290030139E-04 -6.451189046991E+00
VECTORS d_CFy_central_diff float
 5.421010862428E-13 -7.199033597439E-04 -7.047314121156E-12
-1.084202172485E-12 -3.808584017281E-04 -2.710505431214E-13
-6.903377384440E-03 -2.766207402027E-06 -2.918583572276E-02
-2.710505431214E-13  1.322550543473E-03 -1.355252715607E-12
 0.000000000000E+00 -2.155900189816E-04  0.000000000000E+00
 6.903377394198E-03 -2.766196017905E-06  2.918580279228E-02
 5.421010862428E-13 -7.199033597439E-04 -7.047314121156E-12
VECTORS d_CFz_central_diff float
 3.679234727975E+03  1.704691800219E-01  5.695110954730E+03
-2.415497712910E+03  2.296637549581E-01  2.475889012410E+03
-1.962054402350E+02 -9.573891832150E+02  2.936719316810E+03
-1.145786199946E-01 -8.545250618219E-04  2.256659155028E+00
 4.500719945250E+02 -4.744137450247E-01 -3.075873505965E+03
-1.976701676000E+02  9.555555255800E+02  2.934918155455E+03
 3.679234727975E+03  1.704691800219E-01  5.695110954730E+03
