# vtk DataFile Version 3.0
MachLine results file. Generated by MachLine, USU AeroLab (c) 2023.
ASCII
DATASET POLYDATA
POINTS                   7 float
  0.567036768980E+00  0.000000000000E+00  0.000000000000E+00
  0.283518384490E+00  0.000000000000E+00 -0.291561459230E-01
  0.283518384490E+00  0.176355406690E+01  0.000000000000E+00
  0.000000000000E+00  0.000000000000E+00  0.000000000000E+00
  0.283518384490E+00  0.000000000000E+00  0.291561459230E-01
  0.283518384490E+00 -0.176355406690E+01  0.000000000000E+00
  0.567036768980E+00  0.000000000000E+00  0.000000000000E+00
POLYGONS                   8                  32
3                   0                   1                   2
3                   1                   3                   2
3                   3                   4                   2
3                   4                   6                   2
3                   0                   5                   1
3                   1                   5                   3
3                   3                   5                   4
3                   4                   5                   6
CELL_DATA                   8
NORMALS normals float
  0.102283551729E+00  0.164436508585E-01 -0.994619365080E+00
 -0.102283551729E+00  0.164436508585E-01 -0.994619365080E+00
 -0.102283551729E+00  0.164436508585E-01  0.994619365080E+00
  0.102283551729E+00  0.164436508585E-01  0.994619365080E+00
  0.102283551729E+00 -0.164436508585E-01 -0.994619365080E+00
 -0.102283551729E+00 -0.164436508585E-01 -0.994619365080E+00
 -0.102283551729E+00 -0.164436508585E-01  0.994619365080E+00
  0.102283551729E+00 -0.164436508585E-01  0.994619365080E+00
POINT_DATA                  7
VECTORS d_CFx_central_diff float
-3.749777281734E+04 -4.334184165810E+01 -2.104312807777E+03
-3.020476029475E+02  5.150940159994E-02 -1.659064856822E+02
-1.427055914667E+04 -1.486187074578E+03 -3.045719587975E+04
 4.765230545052E-02  2.023630048253E-05  3.990321039010E-01
 7.990341134968E+02  8.703809259002E-01  1.331828179623E+04
-1.495480471225E+04  2.085331429646E+03 -3.007841461400E+04
-3.749777281734E+04 -4.334184165810E+01 -2.104312807777E+03
VECTORS d_CFy_central_diff float
-6.505213034913E-13 -5.468112158815E-03 -4.336808689942E-13
 0.000000000000E+00 -1.077816200439E-03 -4.336808689942E-13
-5.452847246353E-03 -3.295931236269E-07  5.766117864474E-02
-4.336808689942E-13  1.322546008473E-03  0.000000000000E+00
-4.336808689942E-13  5.231091544742E-03 -1.626303258728E-12
 5.535311266313E-03 -3.127771479317E-07 -5.661184842329E-02
-6.505213034913E-13 -5.468112158815E-03 -4.336808689942E-13
VECTORS d_CFz_central_diff float
-3.646348010809E+05 -4.214620464640E+02 -2.048638919826E+04
-2.936135309090E+03  5.012260660409E-01 -1.602572911738E+03
-1.387688378262E+05 -1.445226971732E+04 -2.961578460151E+05
 2.512702405033E-01  7.267095258889E-04  4.764095482002E+00
 7.772216171914E+03  8.463622192534E+00  1.295164343681E+05
-1.454225359311E+05  2.027843193639E+04 -2.924584137348E+05
-3.646348010809E+05 -4.214620464640E+02 -2.048638919826E+04
