# vtk DataFile Version 3.0
MachLine results file. Generated by MachLine, USU AeroLab (c) 2023.
ASCII
DATASET POLYDATA
POINTS                   7 float
  0.567036768980E+00  0.000000000000E+00  0.000000000000E+00
  0.283518384490E+00  0.000000000000E+00 -0.291561459230E-01
  0.283518384490E+00  0.176355406690E+01  0.000000000000E+00
  0.000000000000E+00  0.000000000000E+00  0.000000000000E+00
  0.283518384490E+00  0.000000000000E+00  0.291561459230E-01
  0.283518384490E+00 -0.176355406690E+01  0.000000000000E+00
  0.567036768980E+00  0.000000000000E+00  0.000000000000E+00
POLYGONS                   8                  32
3                   0                   1                   2
3                   1                   3                   2
3                   3                   4                   2
3                   4                   6                   2
3                   0                   5                   1
3                   1                   5                   3
3                   3                   5                   4
3                   4                   5                   6
CELL_DATA                   8
NORMALS normals float
  0.102283551729E+00  0.164436508585E-01 -0.994619365080E+00
 -0.102283551729E+00  0.164436508585E-01 -0.994619365080E+00
 -0.102283551729E+00  0.164436508585E-01  0.994619365080E+00
  0.102283551729E+00  0.164436508585E-01  0.994619365080E+00
  0.102283551729E+00 -0.164436508585E-01 -0.994619365080E+00
 -0.102283551729E+00 -0.164436508585E-01 -0.994619365080E+00
 -0.102283551729E+00 -0.164436508585E-01  0.994619365080E+00
  0.102283551729E+00 -0.164436508585E-01  0.994619365080E+00
POINT_DATA                  7
VECTORS d_CFx_central_diff float
-2.334847244621E+04  6.124841505700E+02  2.662428696204E+04
-2.945529972439E+04 -2.240538492012E+01  2.860741838229E+04
 3.133156121201E+04 -2.107031803081E+06  2.185806472552E+06
 1.849096815075E+00 -1.835239946124E-03  4.190020299472E-01
-1.596998776469E+06 -2.011963489420E+03  1.490599018405E+04
 1.792682862072E+05  2.166719388096E+06  2.093389086642E+06
-2.334847244621E+04  6.124841505700E+02  2.662428696204E+04
VECTORS d_CFy_central_diff float
 8.673617379884E-11 -4.104532252275E-03 -8.673617379884E-11
 4.336808689942E-11 -1.077813316028E-03 -4.336808689942E-11
-6.077387551540E-03 -5.674822591006E-07  1.196992518559E-01
 1.301042606983E-10  1.322545762142E-03  0.000000000000E+00
 1.301042606983E-10  5.269935356156E-03  4.336808689942E-11
 5.327536431758E-03 -5.770991323706E-07 -1.222476276458E-01
 8.673617379884E-11 -4.104532252275E-03 -8.673617379884E-11
VECTORS d_CFz_central_diff float
-2.270463246784E+05  5.955880360597E+03  2.588733920276E+05
-2.864263567905E+05 -2.178223540983E+02  2.781923218788E+05
 3.046934230174E+05 -2.048908898366E+07  2.125513197624E+07
 5.925235819770E+01 -4.545914755738E-02  4.852151397339E+00
-5.575743837008E+07 -1.956460854365E+04  1.449073016587E+05
 1.743250564939E+06  2.106949932086E+07  2.035645258061E+07
-2.270463246784E+05  5.955880360597E+03  2.588733920276E+05
