# vtk DataFile Version 3.0
MachLine results file. Generated by MachLine, USU AeroLab (c) 2023.
ASCII
DATASET POLYDATA
POINTS                   7 float
  0.567036768980E+00  0.000000000000E+00  0.000000000000E+00
  0.283518384490E+00  0.000000000000E+00 -0.291561459230E-01
  0.283518384490E+00  0.176355406690E+01  0.000000000000E+00
  0.000000000000E+00  0.000000000000E+00  0.000000000000E+00
  0.283518384490E+00  0.000000000000E+00  0.291561459230E-01
  0.283518384490E+00 -0.176355406690E+01  0.000000000000E+00
  0.567036768980E+00  0.000000000000E+00  0.000000000000E+00
POLYGONS                   8                  32
3                   0                   1                   2
3                   1                   3                   2
3                   3                   4                   2
3                   4                   6                   2
3                   0                   5                   1
3                   1                   5                   3
3                   3                   5                   4
3                   4                   5                   6
CELL_DATA                   8
NORMALS normals float
  0.102283551729E+00  0.164436508585E-01 -0.994619365080E+00
 -0.102283551729E+00  0.164436508585E-01 -0.994619365080E+00
 -0.102283551729E+00  0.164436508585E-01  0.994619365080E+00
  0.102283551729E+00  0.164436508585E-01  0.994619365080E+00
  0.102283551729E+00 -0.164436508585E-01 -0.994619365080E+00
 -0.102283551729E+00 -0.164436508585E-01 -0.994619365080E+00
 -0.102283551729E+00 -0.164436508585E-01  0.994619365080E+00
  0.102283551729E+00 -0.164436508585E-01  0.994619365080E+00
POINT_DATA                  7
VECTORS d_CFx_central_diff float
-8.923618248849E-02 -7.652800268487E-05 -2.606511555030E-01
 2.697804089846E-01 -9.554749352825E-05 -1.369624669997E+00
 1.910480506434E-03  8.116805491620E-03 -5.740645351443E-02
 5.156949799481E-02 -4.650099749703E-07  3.736378505030E-01
 3.574798954943E-01  2.280679985145E-04  4.148682785157E-01
 1.815118003817E-03 -8.332767999913E-03 -5.753478650103E-02
-8.923618248849E-02 -7.652800268487E-05 -2.606511555030E-01
VECTORS d_CFy_central_diff float
-6.234162491792E-12 -7.273572125458E-04  0.000000000000E+00
 0.000000000000E+00 -3.741041675119E-04  8.131516293641E-13
-6.901296338059E-03 -2.775840538330E-06 -3.043723327903E-02
 9.757819552370E-12  1.322563084169E-03  5.963111948670E-12
-9.215718466127E-12 -2.154989175388E-04 -6.234162491792E-12
 6.901296347546E-03 -2.775854090857E-06  3.043723098485E-02
-6.234162491792E-12 -7.273572125458E-04  0.000000000000E+00
VECTORS d_CFz_central_diff float
 2.918852033497E+01  3.723775503228E-02  1.210185691300E+02
-1.319311348750E+02  4.632300501517E-02  1.852723069000E+02
-2.095984699968E+00 -5.193390049951E-01  2.677941250501E+01
-1.268851800018E-01  2.251100000850E-04  2.465365529988E+00
-1.808834822700E+02 -1.106666099732E-01  1.019778309250E+02
-2.049594714990E+00  6.242097449344E-01  2.684161447497E+01
 2.918852033497E+01  3.723775503228E-02  1.210185691300E+02
