# vtk DataFile Version 3.0
MachLine results file. Generated by MachLine, USU AeroLab (c) 2023.
ASCII
DATASET POLYDATA
POINTS                   7 float
  0.567036768980E+00  0.000000000000E+00  0.000000000000E+00
  0.283518384490E+00  0.000000000000E+00 -0.291561459230E-01
  0.283518384490E+00  0.176355406690E+01  0.000000000000E+00
  0.000000000000E+00  0.000000000000E+00  0.000000000000E+00
  0.283518384490E+00  0.000000000000E+00  0.291561459230E-01
  0.283518384490E+00 -0.176355406690E+01  0.000000000000E+00
  0.567036768980E+00  0.000000000000E+00  0.000000000000E+00
POLYGONS                   8                  32
3                   0                   1                   2
3                   1                   3                   2
3                   3                   4                   2
3                   4                   6                   2
3                   0                   5                   1
3                   1                   5                   3
3                   3                   5                   4
3                   4                   5                   6
CELL_DATA                   8
NORMALS normals float
  0.102283551729E+00  0.164436508585E-01 -0.994619365080E+00
 -0.102283551729E+00  0.164436508585E-01 -0.994619365080E+00
 -0.102283551729E+00  0.164436508585E-01  0.994619365080E+00
  0.102283551729E+00  0.164436508585E-01  0.994619365080E+00
  0.102283551729E+00 -0.164436508585E-01 -0.994619365080E+00
 -0.102283551729E+00 -0.164436508585E-01 -0.994619365080E+00
 -0.102283551729E+00 -0.164436508585E-01  0.994619365080E+00
  0.102283551729E+00 -0.164436508585E-01  0.994619365080E+00
POINT_DATA                  7
VECTORS d_CFx_central_diff float
-2.939443900091E-02  9.887923813068E-10 -7.064058348688E-02
-5.598769989290E-03  5.030698080333E-10 -9.632166035091E-01
-2.044031506554E-03  6.935348510761E-03 -1.752710494102E-03
 5.170131449697E-02  1.491862189340E-09  3.800229505038E-01
-1.261744200440E-02  4.510281037540E-09  6.573406270000E-01
-2.044032512694E-03 -6.935356004767E-03 -1.752709505309E-03
-2.939443900091E-02  9.887923813068E-10 -7.064058348688E-02
VECTORS d_CFy_central_diff float
 0.000000000000E+00 -7.653395777373E-04 -8.131516293641E-12
-5.421010862427E-13 -3.428102696460E-04  0.000000000000E+00
-6.901207190890E-03 -2.868743111985E-06 -3.700698783169E-02
-7.589415207399E-12  1.327592330774E-03 -1.084202172486E-12
 0.000000000000E+00 -2.137050551711E-04 -5.421010862427E-13
 6.901207206611E-03 -2.868691070280E-06  3.700698779374E-02
 0.000000000000E+00 -7.653395777373E-04 -8.131516293641E-12
VECTORS d_CFz_central_diff float
 1.549648599719E-01 -1.849909114782E-07 -2.744540909955E+00
 5.778772002585E-02 -1.998401444325E-08 -4.136867699789E-01
-3.477246005024E-02  4.489755497938E-02  1.069558996925E-02
-1.925835049765E-01 -2.149669331430E-07  3.535008750027E+00
 4.898035491085E-02 -6.450395773072E-07 -3.983339200153E-01
-3.477224508330E-02 -4.489645502592E-02  1.069536501030E-02
 1.549648599719E-01 -1.849909114782E-07 -2.744540909955E+00
