# vtk DataFile Version 3.0
MachLine results file. Generated by MachLine, USU AeroLab (c) 2023.
ASCII
DATASET POLYDATA
POINTS                   7 float
  0.567036768980E+00  0.000000000000E+00  0.000000000000E+00
  0.283518384490E+00  0.000000000000E+00 -0.291561459230E-01
  0.283518384490E+00  0.176355406690E+01  0.000000000000E+00
  0.000000000000E+00  0.000000000000E+00  0.000000000000E+00
  0.283518384490E+00  0.000000000000E+00  0.291561459230E-01
  0.283518384490E+00 -0.176355406690E+01  0.000000000000E+00
  0.567036768980E+00  0.000000000000E+00  0.000000000000E+00
POLYGONS                   8                  32
3                   0                   1                   2
3                   1                   3                   2
3                   3                   4                   2
3                   4                   6                   2
3                   0                   5                   1
3                   1                   5                   3
3                   3                   5                   4
3                   4                   5                   6
CELL_DATA                   8
NORMALS normals float
  0.102283551729E+00  0.164436508585E-01 -0.994619365080E+00
 -0.102283551729E+00  0.164436508585E-01 -0.994619365080E+00
 -0.102283551729E+00  0.164436508585E-01  0.994619365080E+00
  0.102283551729E+00  0.164436508585E-01  0.994619365080E+00
  0.102283551729E+00 -0.164436508585E-01 -0.994619365080E+00
 -0.102283551729E+00 -0.164436508585E-01 -0.994619365080E+00
 -0.102283551729E+00 -0.164436508585E-01  0.994619365080E+00
  0.102283551729E+00 -0.164436508585E-01  0.994619365080E+00
POINT_DATA                  7
VECTORS d_CFx_central_diff float
-2.497866516005E-02 -2.848830026048E-06 -5.076933430083E-03
 8.250812550542E-04  1.025835145996E-06 -1.002471527040E+00
-1.176917081500E-02  9.130349100037E-04 -1.176695421500E-02
 5.161695072493E-02 -2.348815586473E-10  3.728790789650E-01
-1.892909276494E-02 -5.470789966877E-06  6.413282815500E-01
-1.175665681006E-02 -9.166835799115E-04 -1.176541197506E-02
-2.497866516005E-02 -2.848830026048E-06 -5.076933430083E-03
VECTORS d_CFy_central_diff float
 8.131516293641E-15 -7.238946371832E-04  5.421010862427E-15
-2.710505431214E-15 -3.775184006849E-04  5.421010862427E-15
-6.902492102841E-03 -2.770989438339E-06 -2.978684772125E-02
 2.710505431214E-15  1.322554944237E-03  7.860465750520E-14
 5.421010862427E-15 -2.155501810380E-04 -6.776263578034E-14
 6.902492098815E-03 -2.770989397682E-06  2.978685532398E-02
 8.131516293641E-15 -7.238946371832E-04  5.421010862427E-15
VECTORS d_CFz_central_diff float
-2.571935887150E+00  1.808158949651E-03  1.054175869900E+00
-1.774297158800E+00 -6.481614994724E-04  6.974340095350E+00
 5.970385036600E+00  3.882829959800E+00  6.119637205450E+00
-1.210472934998E-01  1.355998646702E-07  2.361766934399E+00
 2.121536831750E+00  3.470474900513E-03 -1.214121011480E+01
 5.962398564899E+00 -3.880533400300E+00  6.118638210250E+00
-2.571935887150E+00  1.808158949651E-03  1.054175869900E+00
