# vtk DataFile Version 3.0
MachLine results file. Generated by MachLine, USU AeroLab (c) 2023.
ASCII
DATASET POLYDATA
POINTS                   7 float
  0.567036768980E+00  0.000000000000E+00  0.000000000000E+00
  0.283518384490E+00  0.000000000000E+00 -0.291561459230E-01
  0.283518384490E+00  0.176355406690E+01  0.000000000000E+00
  0.000000000000E+00  0.000000000000E+00  0.000000000000E+00
  0.283518384490E+00  0.000000000000E+00  0.291561459230E-01
  0.283518384490E+00 -0.176355406690E+01  0.000000000000E+00
  0.567036768980E+00  0.000000000000E+00  0.000000000000E+00
POLYGONS                   8                  32
3                   0                   1                   2
3                   1                   3                   2
3                   3                   4                   2
3                   4                   6                   2
3                   0                   5                   1
3                   1                   5                   3
3                   3                   5                   4
3                   4                   5                   6
CELL_DATA                   8
NORMALS normals float
  0.102283551729E+00  0.164436508585E-01 -0.994619365080E+00
 -0.102283551729E+00  0.164436508585E-01 -0.994619365080E+00
 -0.102283551729E+00  0.164436508585E-01  0.994619365080E+00
  0.102283551729E+00  0.164436508585E-01  0.994619365080E+00
  0.102283551729E+00 -0.164436508585E-01 -0.994619365080E+00
 -0.102283551729E+00 -0.164436508585E-01 -0.994619365080E+00
 -0.102283551729E+00 -0.164436508585E-01  0.994619365080E+00
  0.102283551729E+00 -0.164436508585E-01  0.994619365080E+00
POINT_DATA                  7
VECTORS d_CFx_central_diff float
-2.951639488380E-02  0.000000000000E+00 -8.339516507916E-02
-6.398324925438E-03 -5.030698080333E-09 -9.633805699363E-01
-1.817110004132E-03  6.931799925725E-03 -1.324950045511E-03
 5.199101496545E-02  0.000000000000E+00  3.822839199710E-01
-1.244137501355E-02 -4.857225732735E-09  6.671418899956E-01
-1.817115034830E-03 -6.931784833630E-03 -1.324954902737E-03
-2.951639488380E-02  0.000000000000E+00 -8.339516507916E-02
VECTORS d_CFy_central_diff float
 0.000000000000E+00 -7.758239797123E-04 -1.084202172485E-11
-4.878909776185E-11 -3.373383115814E-04  1.463672932855E-10
-6.917227809424E-03 -3.058767432049E-06 -3.850070838312E-02
 0.000000000000E+00  1.332030444062E-03 -5.421010862427E-12
-5.421010862427E-12 -2.127504552737E-04  0.000000000000E+00
 6.917228118422E-03 -3.058659011831E-06  3.850070826386E-02
 0.000000000000E+00 -7.758239797123E-04 -1.084202172485E-11
VECTORS d_CFz_central_diff float
 1.767995500002E-01  1.998401444325E-07 -2.761902799520E+00
 5.574744971204E-02 -2.498001805407E-07 -4.958317492698E-01
-3.092359979195E-02  4.503814959866E-02 -7.768299892241E-03
-2.083569497491E-01 -4.996003610813E-07  3.779170000551E+00
 3.756994992887E-02 -4.996003610813E-08 -5.059528004892E-01
-3.092315015163E-02 -4.503965117530E-02 -7.767350651555E-03
 1.767995500002E-01  1.998401444325E-07 -2.761902799520E+00
