solid
 facet normal  1.0555417726e-01 -1.0555417726e-01 -9.8879554577e-01
   outer loop
     vertex 1.9000301049e+01 0.0000000000e+00 0.0000000000e+00
     vertex 1.9973079970e+01 1.9237536834e+00 -1.0151679895e-01
     vertex 2.0924054732e+01 1.9237536834e+00 0.0000000000e+00
   endloop
 endfacet
 facet normal  1.0555417726e-01 -1.0555417726e-01 -9.8879554577e-01
   outer loop
     vertex 1.9000301049e+01 0.0000000000e+00 0.0000000000e+00
     vertex 1.8049326287e+01 0.0000000000e+00 -1.0151679895e-01
     vertex 1.9973079970e+01 1.9237536834e+00 -1.0151679895e-01
   endloop
 endfacet
 facet normal  1.0652337625e-01 -1.0652337625e-01 -9.8858764944e-01
   outer loop
     vertex 1.8049326287e+01 0.0000000000e+00 -1.0151679895e-01
     vertex 1.7100283652e+01 1.9237536834e+00 -4.1106948582e-01
     vertex 1.9973079970e+01 1.9237536834e+00 -1.0151679895e-01
   endloop
 endfacet
 facet normal  1.0652337625e-01 -1.0652337625e-01 -9.8858764944e-01
   outer loop
     vertex 1.8049326287e+01 0.0000000000e+00 -1.0151679895e-01
     vertex 1.5176529968e+01 0.0000000000e+00 -4.1106948582e-01
     vertex 1.7100283652e+01 1.9237536834e+00 -4.1106948582e-01
   endloop
 endfacet
 facet normal  9.7597423765e-02 -9.7597423765e-02 -9.9042894028e-01
   outer loop
     vertex 1.5176529968e+01 0.0000000000e+00 -4.1106948582e-01
     vertex 1.1318990318e+01 1.9237536834e+00 -9.8076137629e-01
     vertex 1.7100283652e+01 1.9237536834e+00 -4.1106948582e-01
   endloop
 endfacet
 facet normal  9.7597423765e-02 -9.7597423765e-02 -9.9042894028e-01
   outer loop
     vertex 1.5176529968e+01 0.0000000000e+00 -4.1106948582e-01
     vertex 9.3952366350e+00 0.0000000000e+00 -9.8076137629e-01
     vertex 1.1318990318e+01 1.9237536834e+00 -9.8076137629e-01
   endloop
 endfacet
 facet normal  1.0008630081e-02 -1.0008630081e-02 -9.9989982231e-01
   outer loop
     vertex 9.3952366350e+00 0.0000000000e+00 -9.8076137629e-01
     vertex 3.5924643337e+00 0.0000000000e+00 -1.0388449964e+00
     vertex 1.1318990318e+01 1.9237536834e+00 -9.8076137629e-01
   endloop
 endfacet
 facet normal  1.0008630081e-02 -1.0008630081e-02 -9.9989982231e-01
   outer loop
     vertex 1.1318990318e+01 1.9237536834e+00 -9.8076137629e-01
     vertex 3.5924643337e+00 0.0000000000e+00 -1.0388449964e+00
     vertex 5.5162180171e+00 1.9237536834e+00 -1.0388449964e+00
   endloop
 endfacet
 facet normal  -1.6916530260e-01 1.6916530260e-01 -9.7096148265e-01
   outer loop
     vertex 3.5924643337e+00 0.0000000000e+00 -1.0388449964e+00
     vertex 7.5099309449e-01 0.0000000000e+00 -5.4379102093e-01
     vertex 5.5162180171e+00 1.9237536834e+00 -1.0388449964e+00
   endloop
 endfacet
 facet normal  -1.6916530260e-01 1.6916530260e-01 -9.7096148265e-01
   outer loop
     vertex 5.5162180171e+00 1.9237536834e+00 -1.0388449964e+00
     vertex 7.5099309449e-01 0.0000000000e+00 -5.4379102093e-01
     vertex 2.6747467779e+00 1.9237536834e+00 -5.4379102093e-01
   endloop
 endfacet
 facet normal  -5.0589961799e-01 5.0589961799e-01 -6.9866383407e-01
   outer loop
     vertex 7.5099309449e-01 0.0000000000e+00 -5.4379102093e-01
     vertex 0.0000000000e+00 0.0000000000e+00 0.0000000000e+00
     vertex 2.6747467779e+00 1.9237536834e+00 -5.4379102093e-01
   endloop
 endfacet
 facet normal  -5.0589961799e-01 5.0589961799e-01 -6.9866383407e-01
   outer loop
     vertex 2.6747467779e+00 1.9237536834e+00 -5.4379102093e-01
     vertex 0.0000000000e+00 0.0000000000e+00 0.0000000000e+00
     vertex 1.9237536834e+00 1.9237536834e+00 0.0000000000e+00
   endloop
 endfacet
 facet normal  -5.0589961799e-01 5.0589961799e-01 6.9866383407e-01
   outer loop
     vertex 0.0000000000e+00 0.0000000000e+00 0.0000000000e+00
     vertex 2.6747467779e+00 1.9237536834e+00 5.4379102093e-01
     vertex 1.9237536834e+00 1.9237536834e+00 0.0000000000e+00
   endloop
 endfacet
 facet normal  -5.0589961799e-01 5.0589961799e-01 6.9866383407e-01
   outer loop
     vertex 0.0000000000e+00 0.0000000000e+00 0.0000000000e+00
     vertex 7.5099309449e-01 0.0000000000e+00 5.4379102093e-01
     vertex 2.6747467779e+00 1.9237536834e+00 5.4379102093e-01
   endloop
 endfacet
 facet normal  -1.6916530260e-01 1.6916530260e-01 9.7096148265e-01
   outer loop
     vertex 7.5099309449e-01 0.0000000000e+00 5.4379102093e-01
     vertex 5.5162180171e+00 1.9237536834e+00 1.0388449964e+00
     vertex 2.6747467779e+00 1.9237536834e+00 5.4379102093e-01
   endloop
 endfacet
 facet normal  -1.6916530260e-01 1.6916530260e-01 9.7096148265e-01
   outer loop
     vertex 7.5099309449e-01 0.0000000000e+00 5.4379102093e-01
     vertex 3.5924643337e+00 0.0000000000e+00 1.0388449964e+00
     vertex 5.5162180171e+00 1.9237536834e+00 1.0388449964e+00
   endloop
 endfacet
 facet normal  1.0008630081e-02 -1.0008630081e-02 9.9989982231e-01
   outer loop
     vertex 3.5924643337e+00 0.0000000000e+00 1.0388449964e+00
     vertex 1.1318990318e+01 1.9237536834e+00 9.8076137629e-01
     vertex 5.5162180171e+00 1.9237536834e+00 1.0388449964e+00
   endloop
 endfacet
 facet normal  1.0008630081e-02 -1.0008630081e-02 9.9989982231e-01
   outer loop
     vertex 3.5924643337e+00 0.0000000000e+00 1.0388449964e+00
     vertex 9.3952366350e+00 0.0000000000e+00 9.8076137629e-01
     vertex 1.1318990318e+01 1.9237536834e+00 9.8076137629e-01
   endloop
 endfacet
 facet normal  9.7597423765e-02 -9.7597423765e-02 9.9042894028e-01
   outer loop
     vertex 9.3952366350e+00 0.0000000000e+00 9.8076137629e-01
     vertex 1.5176529968e+01 0.0000000000e+00 4.1106948582e-01
     vertex 1.1318990318e+01 1.9237536834e+00 9.8076137629e-01
   endloop
 endfacet
 facet normal  9.7597423765e-02 -9.7597423765e-02 9.9042894028e-01
   outer loop
     vertex 1.1318990318e+01 1.9237536834e+00 9.8076137629e-01
     vertex 1.5176529968e+01 0.0000000000e+00 4.1106948582e-01
     vertex 1.7100283652e+01 1.9237536834e+00 4.1106948582e-01
   endloop
 endfacet
 facet normal  1.0652337625e-01 -1.0652337625e-01 9.8858764944e-01
   outer loop
     vertex 1.5176529968e+01 0.0000000000e+00 4.1106948582e-01
     vertex 1.8049326287e+01 0.0000000000e+00 1.0151679895e-01
     vertex 1.7100283652e+01 1.9237536834e+00 4.1106948582e-01
   endloop
 endfacet
 facet normal  1.0652337625e-01 -1.0652337625e-01 9.8858764944e-01
   outer loop
     vertex 1.7100283652e+01 1.9237536834e+00 4.1106948582e-01
     vertex 1.8049326287e+01 0.0000000000e+00 1.0151679895e-01
     vertex 1.9973079970e+01 1.9237536834e+00 1.0151679895e-01
   endloop
 endfacet
 facet normal  1.0555417726e-01 -1.0555417726e-01 9.8879554577e-01
   outer loop
     vertex 1.8049326287e+01 0.0000000000e+00 1.0151679895e-01
     vertex 1.9000301049e+01 0.0000000000e+00 0.0000000000e+00
     vertex 1.9973079970e+01 1.9237536834e+00 1.0151679895e-01
   endloop
 endfacet
 facet normal  1.0555417726e-01 -1.0555417726e-01 9.8879554577e-01
   outer loop
     vertex 1.9973079970e+01 1.9237536834e+00 1.0151679895e-01
     vertex 1.9000301049e+01 0.0000000000e+00 0.0000000000e+00
     vertex 2.0924054732e+01 1.9237536834e+00 0.0000000000e+00
   endloop
 endfacet
 facet normal  1.0555417726e-01 -1.0555417726e-01 -9.8879554577e-01
   outer loop
     vertex 2.0924054732e+01 1.9237536834e+00 0.0000000000e+00
     vertex 2.3519658094e+01 5.4703318078e+00 -1.0151679895e-01
     vertex 2.4470632857e+01 5.4703318078e+00 0.0000000000e+00
   endloop
 endfacet
 facet normal  1.0555417726e-01 -1.0555417726e-01 -9.8879554577e-01
   outer loop
     vertex 2.0924054732e+01 1.9237536834e+00 0.0000000000e+00
     vertex 1.9973079970e+01 1.9237536834e+00 -1.0151679895e-01
     vertex 2.3519658094e+01 5.4703318078e+00 -1.0151679895e-01
   endloop
 endfacet
 facet normal  1.0652337625e-01 -1.0652337625e-01 -9.8858764944e-01
   outer loop
     vertex 1.9973079970e+01 1.9237536834e+00 -1.0151679895e-01
     vertex 2.0646861776e+01 5.4703318078e+00 -4.1106948582e-01
     vertex 2.3519658094e+01 5.4703318078e+00 -1.0151679895e-01
   endloop
 endfacet
 facet normal  1.0652337625e-01 -1.0652337625e-01 -9.8858764944e-01
   outer loop
     vertex 1.9973079970e+01 1.9237536834e+00 -1.0151679895e-01
     vertex 1.7100283652e+01 1.9237536834e+00 -4.1106948582e-01
     vertex 2.0646861776e+01 5.4703318078e+00 -4.1106948582e-01
   endloop
 endfacet
 facet normal  9.7597423765e-02 -9.7597423765e-02 -9.9042894028e-01
   outer loop
     vertex 1.7100283652e+01 1.9237536834e+00 -4.1106948582e-01
     vertex 1.4865568443e+01 5.4703318078e+00 -9.8076137629e-01
     vertex 2.0646861776e+01 5.4703318078e+00 -4.1106948582e-01
   endloop
 endfacet
 facet normal  9.7597423765e-02 -9.7597423765e-02 -9.9042894028e-01
   outer loop
     vertex 1.7100283652e+01 1.9237536834e+00 -4.1106948582e-01
     vertex 1.1318990318e+01 1.9237536834e+00 -9.8076137629e-01
     vertex 1.4865568443e+01 5.4703318078e+00 -9.8076137629e-01
   endloop
 endfacet
 facet normal  1.0008630081e-02 -1.0008630081e-02 -9.9989982231e-01
   outer loop
     vertex 1.1318990318e+01 1.9237536834e+00 -9.8076137629e-01
     vertex 5.5162180171e+00 1.9237536834e+00 -1.0388449964e+00
     vertex 1.4865568443e+01 5.4703318078e+00 -9.8076137629e-01
   endloop
 endfacet
 facet normal  1.0008630081e-02 -1.0008630081e-02 -9.9989982231e-01
   outer loop
     vertex 1.4865568443e+01 5.4703318078e+00 -9.8076137629e-01
     vertex 5.5162180171e+00 1.9237536834e+00 -1.0388449964e+00
     vertex 9.0627961415e+00 5.4703318078e+00 -1.0388449964e+00
   endloop
 endfacet
 facet normal  -1.6916530260e-01 1.6916530260e-01 -9.7096148265e-01
   outer loop
     vertex 5.5162180171e+00 1.9237536834e+00 -1.0388449964e+00
     vertex 2.6747467779e+00 1.9237536834e+00 -5.4379102093e-01
     vertex 9.0627961415e+00 5.4703318078e+00 -1.0388449964e+00
   endloop
 endfacet
 facet normal  -1.6916530260e-01 1.6916530260e-01 -9.7096148265e-01
   outer loop
     vertex 9.0627961415e+00 5.4703318078e+00 -1.0388449964e+00
     vertex 2.6747467779e+00 1.9237536834e+00 -5.4379102093e-01
     vertex 6.2213249023e+00 5.4703318078e+00 -5.4379102093e-01
   endloop
 endfacet
 facet normal  -5.0589961799e-01 5.0589961799e-01 -6.9866383407e-01
   outer loop
     vertex 2.6747467779e+00 1.9237536834e+00 -5.4379102093e-01
     vertex 1.9237536834e+00 1.9237536834e+00 0.0000000000e+00
     vertex 6.2213249023e+00 5.4703318078e+00 -5.4379102093e-01
   endloop
 endfacet
 facet normal  -5.0589961799e-01 5.0589961799e-01 -6.9866383407e-01
   outer loop
     vertex 6.2213249023e+00 5.4703318078e+00 -5.4379102093e-01
     vertex 1.9237536834e+00 1.9237536834e+00 0.0000000000e+00
     vertex 5.4703318078e+00 5.4703318078e+00 0.0000000000e+00
   endloop
 endfacet
 facet normal  -5.0589961799e-01 5.0589961799e-01 6.9866383407e-01
   outer loop
     vertex 1.9237536834e+00 1.9237536834e+00 0.0000000000e+00
     vertex 6.2213249023e+00 5.4703318078e+00 5.4379102093e-01
     vertex 5.4703318078e+00 5.4703318078e+00 0.0000000000e+00
   endloop
 endfacet
 facet normal  -5.0589961799e-01 5.0589961799e-01 6.9866383407e-01
   outer loop
     vertex 1.9237536834e+00 1.9237536834e+00 0.0000000000e+00
     vertex 2.6747467779e+00 1.9237536834e+00 5.4379102093e-01
     vertex 6.2213249023e+00 5.4703318078e+00 5.4379102093e-01
   endloop
 endfacet
 facet normal  -1.6916530260e-01 1.6916530260e-01 9.7096148265e-01
   outer loop
     vertex 2.6747467779e+00 1.9237536834e+00 5.4379102093e-01
     vertex 9.0627961415e+00 5.4703318078e+00 1.0388449964e+00
     vertex 6.2213249023e+00 5.4703318078e+00 5.4379102093e-01
   endloop
 endfacet
 facet normal  -1.6916530260e-01 1.6916530260e-01 9.7096148265e-01
   outer loop
     vertex 2.6747467779e+00 1.9237536834e+00 5.4379102093e-01
     vertex 5.5162180171e+00 1.9237536834e+00 1.0388449964e+00
     vertex 9.0627961415e+00 5.4703318078e+00 1.0388449964e+00
   endloop
 endfacet
 facet normal  1.0008630081e-02 -1.0008630081e-02 9.9989982231e-01
   outer loop
     vertex 5.5162180171e+00 1.9237536834e+00 1.0388449964e+00
     vertex 1.4865568443e+01 5.4703318078e+00 9.8076137629e-01
     vertex 9.0627961415e+00 5.4703318078e+00 1.0388449964e+00
   endloop
 endfacet
 facet normal  1.0008630081e-02 -1.0008630081e-02 9.9989982231e-01
   outer loop
     vertex 5.5162180171e+00 1.9237536834e+00 1.0388449964e+00
     vertex 1.1318990318e+01 1.9237536834e+00 9.8076137629e-01
     vertex 1.4865568443e+01 5.4703318078e+00 9.8076137629e-01
   endloop
 endfacet
 facet normal  9.7597423765e-02 -9.7597423765e-02 9.9042894028e-01
   outer loop
     vertex 1.1318990318e+01 1.9237536834e+00 9.8076137629e-01
     vertex 1.7100283652e+01 1.9237536834e+00 4.1106948582e-01
     vertex 1.4865568443e+01 5.4703318078e+00 9.8076137629e-01
   endloop
 endfacet
 facet normal  9.7597423765e-02 -9.7597423765e-02 9.9042894028e-01
   outer loop
     vertex 1.4865568443e+01 5.4703318078e+00 9.8076137629e-01
     vertex 1.7100283652e+01 1.9237536834e+00 4.1106948582e-01
     vertex 2.0646861776e+01 5.4703318078e+00 4.1106948582e-01
   endloop
 endfacet
 facet normal  1.0652337625e-01 -1.0652337625e-01 9.8858764944e-01
   outer loop
     vertex 1.7100283652e+01 1.9237536834e+00 4.1106948582e-01
     vertex 1.9973079970e+01 1.9237536834e+00 1.0151679895e-01
     vertex 2.0646861776e+01 5.4703318078e+00 4.1106948582e-01
   endloop
 endfacet
 facet normal  1.0652337625e-01 -1.0652337625e-01 9.8858764944e-01
   outer loop
     vertex 2.0646861776e+01 5.4703318078e+00 4.1106948582e-01
     vertex 1.9973079970e+01 1.9237536834e+00 1.0151679895e-01
     vertex 2.3519658094e+01 5.4703318078e+00 1.0151679895e-01
   endloop
 endfacet
 facet normal  1.0555417726e-01 -1.0555417726e-01 9.8879554577e-01
   outer loop
     vertex 1.9973079970e+01 1.9237536834e+00 1.0151679895e-01
     vertex 2.0924054732e+01 1.9237536834e+00 0.0000000000e+00
     vertex 2.3519658094e+01 5.4703318078e+00 1.0151679895e-01
   endloop
 endfacet
 facet normal  1.0555417726e-01 -1.0555417726e-01 9.8879554577e-01
   outer loop
     vertex 2.3519658094e+01 5.4703318078e+00 1.0151679895e-01
     vertex 2.0924054732e+01 1.9237536834e+00 0.0000000000e+00
     vertex 2.4470632857e+01 5.4703318078e+00 0.0000000000e+00
   endloop
 endfacet
 facet normal  1.0555417726e-01 -1.0555417726e-01 -9.8879554577e-01
   outer loop
     vertex 2.4470632857e+01 5.4703318078e+00 0.0000000000e+00
     vertex 2.9431328371e+01 1.1382002084e+01 -1.0151679895e-01
     vertex 3.0382303133e+01 1.1382002084e+01 0.0000000000e+00
   endloop
 endfacet
 facet normal  1.0555417726e-01 -1.0555417726e-01 -9.8879554577e-01
   outer loop
     vertex 2.4470632857e+01 5.4703318078e+00 0.0000000000e+00
     vertex 2.3519658094e+01 5.4703318078e+00 -1.0151679895e-01
     vertex 2.9431328371e+01 1.1382002084e+01 -1.0151679895e-01
   endloop
 endfacet
 facet normal  1.0652337625e-01 -1.0652337625e-01 -9.8858764944e-01
   outer loop
     vertex 2.3519658094e+01 5.4703318078e+00 -1.0151679895e-01
     vertex 2.6558532053e+01 1.1382002084e+01 -4.1106948582e-01
     vertex 2.9431328371e+01 1.1382002084e+01 -1.0151679895e-01
   endloop
 endfacet
 facet normal  1.0652337625e-01 -1.0652337625e-01 -9.8858764944e-01
   outer loop
     vertex 2.3519658094e+01 5.4703318078e+00 -1.0151679895e-01
     vertex 2.0646861776e+01 5.4703318078e+00 -4.1106948582e-01
     vertex 2.6558532053e+01 1.1382002084e+01 -4.1106948582e-01
   endloop
 endfacet
 facet normal  9.7597423765e-02 -9.7597423765e-02 -9.9042894028e-01
   outer loop
     vertex 2.0646861776e+01 5.4703318078e+00 -4.1106948582e-01
     vertex 2.0777238719e+01 1.1382002084e+01 -9.8076137629e-01
     vertex 2.6558532053e+01 1.1382002084e+01 -4.1106948582e-01
   endloop
 endfacet
 facet normal  9.7597423765e-02 -9.7597423765e-02 -9.9042894028e-01
   outer loop
     vertex 2.0646861776e+01 5.4703318078e+00 -4.1106948582e-01
     vertex 1.4865568443e+01 5.4703318078e+00 -9.8076137629e-01
     vertex 2.0777238719e+01 1.1382002084e+01 -9.8076137629e-01
   endloop
 endfacet
 facet normal  1.0008630081e-02 -1.0008630081e-02 -9.9989982231e-01
   outer loop
     vertex 1.4865568443e+01 5.4703318078e+00 -9.8076137629e-01
     vertex 9.0627961415e+00 5.4703318078e+00 -1.0388449964e+00
     vertex 2.0777238719e+01 1.1382002084e+01 -9.8076137629e-01
   endloop
 endfacet
 facet normal  1.0008630081e-02 -1.0008630081e-02 -9.9989982231e-01
   outer loop
     vertex 2.0777238719e+01 1.1382002084e+01 -9.8076137629e-01
     vertex 9.0627961415e+00 5.4703318078e+00 -1.0388449964e+00
     vertex 1.4974466418e+01 1.1382002084e+01 -1.0388449964e+00
   endloop
 endfacet
 facet normal  -1.6916530260e-01 1.6916530260e-01 -9.7096148265e-01
   outer loop
     vertex 9.0627961415e+00 5.4703318078e+00 -1.0388449964e+00
     vertex 6.2213249023e+00 5.4703318078e+00 -5.4379102093e-01
     vertex 1.4974466418e+01 1.1382002084e+01 -1.0388449964e+00
   endloop
 endfacet
 facet normal  -1.6916530260e-01 1.6916530260e-01 -9.7096148265e-01
   outer loop
     vertex 1.4974466418e+01 1.1382002084e+01 -1.0388449964e+00
     vertex 6.2213249023e+00 5.4703318078e+00 -5.4379102093e-01
     vertex 1.2132995179e+01 1.1382002084e+01 -5.4379102093e-01
   endloop
 endfacet
 facet normal  -5.0589961799e-01 5.0589961799e-01 -6.9866383407e-01
   outer loop
     vertex 6.2213249023e+00 5.4703318078e+00 -5.4379102093e-01
     vertex 5.4703318078e+00 5.4703318078e+00 0.0000000000e+00
     vertex 1.2132995179e+01 1.1382002084e+01 -5.4379102093e-01
   endloop
 endfacet
 facet normal  -5.0589961799e-01 5.0589961799e-01 -6.9866383407e-01
   outer loop
     vertex 1.2132995179e+01 1.1382002084e+01 -5.4379102093e-01
     vertex 5.4703318078e+00 5.4703318078e+00 0.0000000000e+00
     vertex 1.1382002084e+01 1.1382002084e+01 0.0000000000e+00
   endloop
 endfacet
 facet normal  -5.0589961799e-01 5.0589961799e-01 6.9866383407e-01
   outer loop
     vertex 5.4703318078e+00 5.4703318078e+00 0.0000000000e+00
     vertex 1.2132995179e+01 1.1382002084e+01 5.4379102093e-01
     vertex 1.1382002084e+01 1.1382002084e+01 0.0000000000e+00
   endloop
 endfacet
 facet normal  -5.0589961799e-01 5.0589961799e-01 6.9866383407e-01
   outer loop
     vertex 5.4703318078e+00 5.4703318078e+00 0.0000000000e+00
     vertex 6.2213249023e+00 5.4703318078e+00 5.4379102093e-01
     vertex 1.2132995179e+01 1.1382002084e+01 5.4379102093e-01
   endloop
 endfacet
 facet normal  -1.6916530260e-01 1.6916530260e-01 9.7096148265e-01
   outer loop
     vertex 6.2213249023e+00 5.4703318078e+00 5.4379102093e-01
     vertex 1.4974466418e+01 1.1382002084e+01 1.0388449964e+00
     vertex 1.2132995179e+01 1.1382002084e+01 5.4379102093e-01
   endloop
 endfacet
 facet normal  -1.6916530260e-01 1.6916530260e-01 9.7096148265e-01
   outer loop
     vertex 6.2213249023e+00 5.4703318078e+00 5.4379102093e-01
     vertex 9.0627961415e+00 5.4703318078e+00 1.0388449964e+00
     vertex 1.4974466418e+01 1.1382002084e+01 1.0388449964e+00
   endloop
 endfacet
 facet normal  1.0008630081e-02 -1.0008630081e-02 9.9989982231e-01
   outer loop
     vertex 9.0627961415e+00 5.4703318078e+00 1.0388449964e+00
     vertex 2.0777238719e+01 1.1382002084e+01 9.8076137629e-01
     vertex 1.4974466418e+01 1.1382002084e+01 1.0388449964e+00
   endloop
 endfacet
 facet normal  1.0008630081e-02 -1.0008630081e-02 9.9989982231e-01
   outer loop
     vertex 9.0627961415e+00 5.4703318078e+00 1.0388449964e+00
     vertex 1.4865568443e+01 5.4703318078e+00 9.8076137629e-01
     vertex 2.0777238719e+01 1.1382002084e+01 9.8076137629e-01
   endloop
 endfacet
 facet normal  9.7597423765e-02 -9.7597423765e-02 9.9042894028e-01
   outer loop
     vertex 1.4865568443e+01 5.4703318078e+00 9.8076137629e-01
     vertex 2.0646861776e+01 5.4703318078e+00 4.1106948582e-01
     vertex 2.0777238719e+01 1.1382002084e+01 9.8076137629e-01
   endloop
 endfacet
 facet normal  9.7597423765e-02 -9.7597423765e-02 9.9042894028e-01
   outer loop
     vertex 2.0777238719e+01 1.1382002084e+01 9.8076137629e-01
     vertex 2.0646861776e+01 5.4703318078e+00 4.1106948582e-01
     vertex 2.6558532053e+01 1.1382002084e+01 4.1106948582e-01
   endloop
 endfacet
 facet normal  1.0652337625e-01 -1.0652337625e-01 9.8858764944e-01
   outer loop
     vertex 2.0646861776e+01 5.4703318078e+00 4.1106948582e-01
     vertex 2.3519658094e+01 5.4703318078e+00 1.0151679895e-01
     vertex 2.6558532053e+01 1.1382002084e+01 4.1106948582e-01
   endloop
 endfacet
 facet normal  1.0652337625e-01 -1.0652337625e-01 9.8858764944e-01
   outer loop
     vertex 2.6558532053e+01 1.1382002084e+01 4.1106948582e-01
     vertex 2.3519658094e+01 5.4703318078e+00 1.0151679895e-01
     vertex 2.9431328371e+01 1.1382002084e+01 1.0151679895e-01
   endloop
 endfacet
 facet normal  1.0555417726e-01 -1.0555417726e-01 9.8879554577e-01
   outer loop
     vertex 2.3519658094e+01 5.4703318078e+00 1.0151679895e-01
     vertex 2.4470632857e+01 5.4703318078e+00 0.0000000000e+00
     vertex 2.9431328371e+01 1.1382002084e+01 1.0151679895e-01
   endloop
 endfacet
 facet normal  1.0555417726e-01 -1.0555417726e-01 9.8879554577e-01
   outer loop
     vertex 2.9431328371e+01 1.1382002084e+01 1.0151679895e-01
     vertex 2.4470632857e+01 5.4703318078e+00 0.0000000000e+00
     vertex 3.0382303133e+01 1.1382002084e+01 0.0000000000e+00
   endloop
 endfacet
 facet normal  1.0555417726e-01 -1.0555417726e-01 -9.8879554577e-01
   outer loop
     vertex 3.0382303133e+01 1.1382002084e+01 0.0000000000e+00
     vertex 3.7805520930e+01 1.9756194643e+01 -1.0151679895e-01
     vertex 3.8756495692e+01 1.9756194643e+01 0.0000000000e+00
   endloop
 endfacet
 facet normal  1.0555417726e-01 -1.0555417726e-01 -9.8879554577e-01
   outer loop
     vertex 3.0382303133e+01 1.1382002084e+01 0.0000000000e+00
     vertex 2.9431328371e+01 1.1382002084e+01 -1.0151679895e-01
     vertex 3.7805520930e+01 1.9756194643e+01 -1.0151679895e-01
   endloop
 endfacet
 facet normal  1.0652337625e-01 -1.0652337625e-01 -9.8858764944e-01
   outer loop
     vertex 2.9431328371e+01 1.1382002084e+01 -1.0151679895e-01
     vertex 3.4932724611e+01 1.9756194643e+01 -4.1106948582e-01
     vertex 3.7805520930e+01 1.9756194643e+01 -1.0151679895e-01
   endloop
 endfacet
 facet normal  1.0652337625e-01 -1.0652337625e-01 -9.8858764944e-01
   outer loop
     vertex 2.9431328371e+01 1.1382002084e+01 -1.0151679895e-01
     vertex 2.6558532053e+01 1.1382002084e+01 -4.1106948582e-01
     vertex 3.4932724611e+01 1.9756194643e+01 -4.1106948582e-01
   endloop
 endfacet
 facet normal  9.7597423765e-02 -9.7597423765e-02 -9.9042894028e-01
   outer loop
     vertex 2.6558532053e+01 1.1382002084e+01 -4.1106948582e-01
     vertex 2.9151431278e+01 1.9756194643e+01 -9.8076137629e-01
     vertex 3.4932724611e+01 1.9756194643e+01 -4.1106948582e-01
   endloop
 endfacet
 facet normal  9.7597423765e-02 -9.7597423765e-02 -9.9042894028e-01
   outer loop
     vertex 2.6558532053e+01 1.1382002084e+01 -4.1106948582e-01
     vertex 2.0777238719e+01 1.1382002084e+01 -9.8076137629e-01
     vertex 2.9151431278e+01 1.9756194643e+01 -9.8076137629e-01
   endloop
 endfacet
 facet normal  1.0008630081e-02 -1.0008630081e-02 -9.9989982231e-01
   outer loop
     vertex 2.0777238719e+01 1.1382002084e+01 -9.8076137629e-01
     vertex 1.4974466418e+01 1.1382002084e+01 -1.0388449964e+00
     vertex 2.9151431278e+01 1.9756194643e+01 -9.8076137629e-01
   endloop
 endfacet
 facet normal  1.0008630081e-02 -1.0008630081e-02 -9.9989982231e-01
   outer loop
     vertex 2.9151431278e+01 1.9756194643e+01 -9.8076137629e-01
     vertex 1.4974466418e+01 1.1382002084e+01 -1.0388449964e+00
     vertex 2.3348658977e+01 1.9756194643e+01 -1.0388449964e+00
   endloop
 endfacet
 facet normal  -1.6916530260e-01 1.6916530260e-01 -9.7096148265e-01
   outer loop
     vertex 1.4974466418e+01 1.1382002084e+01 -1.0388449964e+00
     vertex 1.2132995179e+01 1.1382002084e+01 -5.4379102093e-01
     vertex 2.3348658977e+01 1.9756194643e+01 -1.0388449964e+00
   endloop
 endfacet
 facet normal  -1.6916530260e-01 1.6916530260e-01 -9.7096148265e-01
   outer loop
     vertex 2.3348658977e+01 1.9756194643e+01 -1.0388449964e+00
     vertex 1.2132995179e+01 1.1382002084e+01 -5.4379102093e-01
     vertex 2.0507187738e+01 1.9756194643e+01 -5.4379102093e-01
   endloop
 endfacet
 facet normal  -5.0589961799e-01 5.0589961799e-01 -6.9866383407e-01
   outer loop
     vertex 1.2132995179e+01 1.1382002084e+01 -5.4379102093e-01
     vertex 1.1382002084e+01 1.1382002084e+01 0.0000000000e+00
     vertex 2.0507187738e+01 1.9756194643e+01 -5.4379102093e-01
   endloop
 endfacet
 facet normal  -5.0589961799e-01 5.0589961799e-01 -6.9866383407e-01
   outer loop
     vertex 2.0507187738e+01 1.9756194643e+01 -5.4379102093e-01
     vertex 1.1382002084e+01 1.1382002084e+01 0.0000000000e+00
     vertex 1.9756194643e+01 1.9756194643e+01 0.0000000000e+00
   endloop
 endfacet
 facet normal  -5.0589961799e-01 5.0589961799e-01 6.9866383407e-01
   outer loop
     vertex 1.1382002084e+01 1.1382002084e+01 0.0000000000e+00
     vertex 2.0507187738e+01 1.9756194643e+01 5.4379102093e-01
     vertex 1.9756194643e+01 1.9756194643e+01 0.0000000000e+00
   endloop
 endfacet
 facet normal  -5.0589961799e-01 5.0589961799e-01 6.9866383407e-01
   outer loop
     vertex 1.1382002084e+01 1.1382002084e+01 0.0000000000e+00
     vertex 1.2132995179e+01 1.1382002084e+01 5.4379102093e-01
     vertex 2.0507187738e+01 1.9756194643e+01 5.4379102093e-01
   endloop
 endfacet
 facet normal  -1.6916530260e-01 1.6916530260e-01 9.7096148265e-01
   outer loop
     vertex 1.2132995179e+01 1.1382002084e+01 5.4379102093e-01
     vertex 2.3348658977e+01 1.9756194643e+01 1.0388449964e+00
     vertex 2.0507187738e+01 1.9756194643e+01 5.4379102093e-01
   endloop
 endfacet
 facet normal  -1.6916530260e-01 1.6916530260e-01 9.7096148265e-01
   outer loop
     vertex 1.2132995179e+01 1.1382002084e+01 5.4379102093e-01
     vertex 1.4974466418e+01 1.1382002084e+01 1.0388449964e+00
     vertex 2.3348658977e+01 1.9756194643e+01 1.0388449964e+00
   endloop
 endfacet
 facet normal  1.0008630081e-02 -1.0008630081e-02 9.9989982231e-01
   outer loop
     vertex 1.4974466418e+01 1.1382002084e+01 1.0388449964e+00
     vertex 2.9151431278e+01 1.9756194643e+01 9.8076137629e-01
     vertex 2.3348658977e+01 1.9756194643e+01 1.0388449964e+00
   endloop
 endfacet
 facet normal  1.0008630081e-02 -1.0008630081e-02 9.9989982231e-01
   outer loop
     vertex 1.4974466418e+01 1.1382002084e+01 1.0388449964e+00
     vertex 2.0777238719e+01 1.1382002084e+01 9.8076137629e-01
     vertex 2.9151431278e+01 1.9756194643e+01 9.8076137629e-01
   endloop
 endfacet
 facet normal  9.7597423765e-02 -9.7597423765e-02 9.9042894028e-01
   outer loop
     vertex 2.0777238719e+01 1.1382002084e+01 9.8076137629e-01
     vertex 2.6558532053e+01 1.1382002084e+01 4.1106948582e-01
     vertex 2.9151431278e+01 1.9756194643e+01 9.8076137629e-01
   endloop
 endfacet
 facet normal  9.7597423765e-02 -9.7597423765e-02 9.9042894028e-01
   outer loop
     vertex 2.9151431278e+01 1.9756194643e+01 9.8076137629e-01
     vertex 2.6558532053e+01 1.1382002084e+01 4.1106948582e-01
     vertex 3.4932724611e+01 1.9756194643e+01 4.1106948582e-01
   endloop
 endfacet
 facet normal  1.0652337625e-01 -1.0652337625e-01 9.8858764944e-01
   outer loop
     vertex 2.6558532053e+01 1.1382002084e+01 4.1106948582e-01
     vertex 2.9431328371e+01 1.1382002084e+01 1.0151679895e-01
     vertex 3.4932724611e+01 1.9756194643e+01 4.1106948582e-01
   endloop
 endfacet
 facet normal  1.0652337625e-01 -1.0652337625e-01 9.8858764944e-01
   outer loop
     vertex 3.4932724611e+01 1.9756194643e+01 4.1106948582e-01
     vertex 2.9431328371e+01 1.1382002084e+01 1.0151679895e-01
     vertex 3.7805520930e+01 1.9756194643e+01 1.0151679895e-01
   endloop
 endfacet
 facet normal  1.0555417726e-01 -1.0555417726e-01 9.8879554577e-01
   outer loop
     vertex 2.9431328371e+01 1.1382002084e+01 1.0151679895e-01
     vertex 3.0382303133e+01 1.1382002084e+01 0.0000000000e+00
     vertex 3.7805520930e+01 1.9756194643e+01 1.0151679895e-01
   endloop
 endfacet
 facet normal  1.0555417726e-01 -1.0555417726e-01 9.8879554577e-01
   outer loop
     vertex 3.7805520930e+01 1.9756194643e+01 1.0151679895e-01
     vertex 3.0382303133e+01 1.1382002084e+01 0.0000000000e+00
     vertex 3.8756495692e+01 1.9756194643e+01 0.0000000000e+00
   endloop
 endfacet
 facet normal  1.0555417726e-01 -1.0555417726e-01 -9.8879554577e-01
   outer loop
     vertex 3.8756495692e+01 1.9756194643e+01 0.0000000000e+00
     vertex 4.7293131643e+01 2.9243805357e+01 -1.0151679895e-01
     vertex 4.8244106406e+01 2.9243805357e+01 0.0000000000e+00
   endloop
 endfacet
 facet normal  1.0555417726e-01 -1.0555417726e-01 -9.8879554577e-01
   outer loop
     vertex 3.8756495692e+01 1.9756194643e+01 0.0000000000e+00
     vertex 3.7805520930e+01 1.9756194643e+01 -1.0151679895e-01
     vertex 4.7293131643e+01 2.9243805357e+01 -1.0151679895e-01
   endloop
 endfacet
 facet normal  1.0652337625e-01 -1.0652337625e-01 -9.8858764944e-01
   outer loop
     vertex 3.7805520930e+01 1.9756194643e+01 -1.0151679895e-01
     vertex 4.4420335325e+01 2.9243805357e+01 -4.1106948582e-01
     vertex 4.7293131643e+01 2.9243805357e+01 -1.0151679895e-01
   endloop
 endfacet
 facet normal  1.0652337625e-01 -1.0652337625e-01 -9.8858764944e-01
   outer loop
     vertex 3.7805520930e+01 1.9756194643e+01 -1.0151679895e-01
     vertex 3.4932724611e+01 1.9756194643e+01 -4.1106948582e-01
     vertex 4.4420335325e+01 2.9243805357e+01 -4.1106948582e-01
   endloop
 endfacet
 facet normal  9.7597423765e-02 -9.7597423765e-02 -9.9042894028e-01
   outer loop
     vertex 3.4932724611e+01 1.9756194643e+01 -4.1106948582e-01
     vertex 3.8639041992e+01 2.9243805357e+01 -9.8076137629e-01
     vertex 4.4420335325e+01 2.9243805357e+01 -4.1106948582e-01
   endloop
 endfacet
 facet normal  9.7597423765e-02 -9.7597423765e-02 -9.9042894028e-01
   outer loop
     vertex 3.4932724611e+01 1.9756194643e+01 -4.1106948582e-01
     vertex 2.9151431278e+01 1.9756194643e+01 -9.8076137629e-01
     vertex 3.8639041992e+01 2.9243805357e+01 -9.8076137629e-01
   endloop
 endfacet
 facet normal  1.0008630081e-02 -1.0008630081e-02 -9.9989982231e-01
   outer loop
     vertex 2.9151431278e+01 1.9756194643e+01 -9.8076137629e-01
     vertex 2.3348658977e+01 1.9756194643e+01 -1.0388449964e+00
     vertex 3.8639041992e+01 2.9243805357e+01 -9.8076137629e-01
   endloop
 endfacet
 facet normal  1.0008630081e-02 -1.0008630081e-02 -9.9989982231e-01
   outer loop
     vertex 3.8639041992e+01 2.9243805357e+01 -9.8076137629e-01
     vertex 2.3348658977e+01 1.9756194643e+01 -1.0388449964e+00
     vertex 3.2836269691e+01 2.9243805357e+01 -1.0388449964e+00
   endloop
 endfacet
 facet normal  -1.6916530260e-01 1.6916530260e-01 -9.7096148265e-01
   outer loop
     vertex 2.3348658977e+01 1.9756194643e+01 -1.0388449964e+00
     vertex 2.0507187738e+01 1.9756194643e+01 -5.4379102093e-01
     vertex 3.2836269691e+01 2.9243805357e+01 -1.0388449964e+00
   endloop
 endfacet
 facet normal  -1.6916530260e-01 1.6916530260e-01 -9.7096148265e-01
   outer loop
     vertex 3.2836269691e+01 2.9243805357e+01 -1.0388449964e+00
     vertex 2.0507187738e+01 1.9756194643e+01 -5.4379102093e-01
     vertex 2.9994798451e+01 2.9243805357e+01 -5.4379102093e-01
   endloop
 endfacet
 facet normal  -5.0589961799e-01 5.0589961799e-01 -6.9866383407e-01
   outer loop
     vertex 2.0507187738e+01 1.9756194643e+01 -5.4379102093e-01
     vertex 1.9756194643e+01 1.9756194643e+01 0.0000000000e+00
     vertex 2.9994798451e+01 2.9243805357e+01 -5.4379102093e-01
   endloop
 endfacet
 facet normal  -5.0589961799e-01 5.0589961799e-01 -6.9866383407e-01
   outer loop
     vertex 2.9994798451e+01 2.9243805357e+01 -5.4379102093e-01
     vertex 1.9756194643e+01 1.9756194643e+01 0.0000000000e+00
     vertex 2.9243805357e+01 2.9243805357e+01 0.0000000000e+00
   endloop
 endfacet
 facet normal  -5.0589961799e-01 5.0589961799e-01 6.9866383407e-01
   outer loop
     vertex 1.9756194643e+01 1.9756194643e+01 0.0000000000e+00
     vertex 2.9994798451e+01 2.9243805357e+01 5.4379102093e-01
     vertex 2.9243805357e+01 2.9243805357e+01 0.0000000000e+00
   endloop
 endfacet
 facet normal  -5.0589961799e-01 5.0589961799e-01 6.9866383407e-01
   outer loop
     vertex 1.9756194643e+01 1.9756194643e+01 0.0000000000e+00
     vertex 2.0507187738e+01 1.9756194643e+01 5.4379102093e-01
     vertex 2.9994798451e+01 2.9243805357e+01 5.4379102093e-01
   endloop
 endfacet
 facet normal  -1.6916530260e-01 1.6916530260e-01 9.7096148265e-01
   outer loop
     vertex 2.0507187738e+01 1.9756194643e+01 5.4379102093e-01
     vertex 3.2836269691e+01 2.9243805357e+01 1.0388449964e+00
     vertex 2.9994798451e+01 2.9243805357e+01 5.4379102093e-01
   endloop
 endfacet
 facet normal  -1.6916530260e-01 1.6916530260e-01 9.7096148265e-01
   outer loop
     vertex 2.0507187738e+01 1.9756194643e+01 5.4379102093e-01
     vertex 2.3348658977e+01 1.9756194643e+01 1.0388449964e+00
     vertex 3.2836269691e+01 2.9243805357e+01 1.0388449964e+00
   endloop
 endfacet
 facet normal  1.0008630081e-02 -1.0008630081e-02 9.9989982231e-01
   outer loop
     vertex 2.3348658977e+01 1.9756194643e+01 1.0388449964e+00
     vertex 3.8639041992e+01 2.9243805357e+01 9.8076137629e-01
     vertex 3.2836269691e+01 2.9243805357e+01 1.0388449964e+00
   endloop
 endfacet
 facet normal  1.0008630081e-02 -1.0008630081e-02 9.9989982231e-01
   outer loop
     vertex 2.3348658977e+01 1.9756194643e+01 1.0388449964e+00
     vertex 2.9151431278e+01 1.9756194643e+01 9.8076137629e-01
     vertex 3.8639041992e+01 2.9243805357e+01 9.8076137629e-01
   endloop
 endfacet
 facet normal  9.7597423765e-02 -9.7597423765e-02 9.9042894028e-01
   outer loop
     vertex 2.9151431278e+01 1.9756194643e+01 9.8076137629e-01
     vertex 3.4932724611e+01 1.9756194643e+01 4.1106948582e-01
     vertex 3.8639041992e+01 2.9243805357e+01 9.8076137629e-01
   endloop
 endfacet
 facet normal  9.7597423765e-02 -9.7597423765e-02 9.9042894028e-01
   outer loop
     vertex 3.8639041992e+01 2.9243805357e+01 9.8076137629e-01
     vertex 3.4932724611e+01 1.9756194643e+01 4.1106948582e-01
     vertex 4.4420335325e+01 2.9243805357e+01 4.1106948582e-01
   endloop
 endfacet
 facet normal  1.0652337625e-01 -1.0652337625e-01 9.8858764944e-01
   outer loop
     vertex 3.4932724611e+01 1.9756194643e+01 4.1106948582e-01
     vertex 3.7805520930e+01 1.9756194643e+01 1.0151679895e-01
     vertex 4.4420335325e+01 2.9243805357e+01 4.1106948582e-01
   endloop
 endfacet
 facet normal  1.0652337625e-01 -1.0652337625e-01 9.8858764944e-01
   outer loop
     vertex 4.4420335325e+01 2.9243805357e+01 4.1106948582e-01
     vertex 3.7805520930e+01 1.9756194643e+01 1.0151679895e-01
     vertex 4.7293131643e+01 2.9243805357e+01 1.0151679895e-01
   endloop
 endfacet
 facet normal  1.0555417726e-01 -1.0555417726e-01 9.8879554577e-01
   outer loop
     vertex 3.7805520930e+01 1.9756194643e+01 1.0151679895e-01
     vertex 3.8756495692e+01 1.9756194643e+01 0.0000000000e+00
     vertex 4.7293131643e+01 2.9243805357e+01 1.0151679895e-01
   endloop
 endfacet
 facet normal  1.0555417726e-01 -1.0555417726e-01 9.8879554577e-01
   outer loop
     vertex 4.7293131643e+01 2.9243805357e+01 1.0151679895e-01
     vertex 3.8756495692e+01 1.9756194643e+01 0.0000000000e+00
     vertex 4.8244106406e+01 2.9243805357e+01 0.0000000000e+00
   endloop
 endfacet
 facet normal  1.0555417726e-01 -1.0555417726e-01 -9.8879554577e-01
   outer loop
     vertex 4.8244106406e+01 2.9243805357e+01 0.0000000000e+00
     vertex 5.5667324202e+01 3.7617997916e+01 -1.0151679895e-01
     vertex 5.6618298965e+01 3.7617997916e+01 0.0000000000e+00
   endloop
 endfacet
 facet normal  1.0555417726e-01 -1.0555417726e-01 -9.8879554577e-01
   outer loop
     vertex 4.8244106406e+01 2.9243805357e+01 0.0000000000e+00
     vertex 4.7293131643e+01 2.9243805357e+01 -1.0151679895e-01
     vertex 5.5667324202e+01 3.7617997916e+01 -1.0151679895e-01
   endloop
 endfacet
 facet normal  1.0652337625e-01 -1.0652337625e-01 -9.8858764944e-01
   outer loop
     vertex 4.7293131643e+01 2.9243805357e+01 -1.0151679895e-01
     vertex 5.2794527884e+01 3.7617997916e+01 -4.1106948582e-01
     vertex 5.5667324202e+01 3.7617997916e+01 -1.0151679895e-01
   endloop
 endfacet
 facet normal  1.0652337625e-01 -1.0652337625e-01 -9.8858764944e-01
   outer loop
     vertex 4.7293131643e+01 2.9243805357e+01 -1.0151679895e-01
     vertex 4.4420335325e+01 2.9243805357e+01 -4.1106948582e-01
     vertex 5.2794527884e+01 3.7617997916e+01 -4.1106948582e-01
   endloop
 endfacet
 facet normal  9.7597423765e-02 -9.7597423765e-02 -9.9042894028e-01
   outer loop
     vertex 4.4420335325e+01 2.9243805357e+01 -4.1106948582e-01
     vertex 4.7013234551e+01 3.7617997916e+01 -9.8076137629e-01
     vertex 5.2794527884e+01 3.7617997916e+01 -4.1106948582e-01
   endloop
 endfacet
 facet normal  9.7597423765e-02 -9.7597423765e-02 -9.9042894028e-01
   outer loop
     vertex 4.4420335325e+01 2.9243805357e+01 -4.1106948582e-01
     vertex 3.8639041992e+01 2.9243805357e+01 -9.8076137629e-01
     vertex 4.7013234551e+01 3.7617997916e+01 -9.8076137629e-01
   endloop
 endfacet
 facet normal  1.0008630081e-02 -1.0008630081e-02 -9.9989982231e-01
   outer loop
     vertex 3.8639041992e+01 2.9243805357e+01 -9.8076137629e-01
     vertex 3.2836269691e+01 2.9243805357e+01 -1.0388449964e+00
     vertex 4.7013234551e+01 3.7617997916e+01 -9.8076137629e-01
   endloop
 endfacet
 facet normal  1.0008630081e-02 -1.0008630081e-02 -9.9989982231e-01
   outer loop
     vertex 4.7013234551e+01 3.7617997916e+01 -9.8076137629e-01
     vertex 3.2836269691e+01 2.9243805357e+01 -1.0388449964e+00
     vertex 4.1210462250e+01 3.7617997916e+01 -1.0388449964e+00
   endloop
 endfacet
 facet normal  -1.6916530260e-01 1.6916530260e-01 -9.7096148265e-01
   outer loop
     vertex 3.2836269691e+01 2.9243805357e+01 -1.0388449964e+00
     vertex 2.9994798451e+01 2.9243805357e+01 -5.4379102093e-01
     vertex 4.1210462250e+01 3.7617997916e+01 -1.0388449964e+00
   endloop
 endfacet
 facet normal  -1.6916530260e-01 1.6916530260e-01 -9.7096148265e-01
   outer loop
     vertex 4.1210462250e+01 3.7617997916e+01 -1.0388449964e+00
     vertex 2.9994798451e+01 2.9243805357e+01 -5.4379102093e-01
     vertex 3.8368991010e+01 3.7617997916e+01 -5.4379102093e-01
   endloop
 endfacet
 facet normal  -5.0589961799e-01 5.0589961799e-01 -6.9866383407e-01
   outer loop
     vertex 2.9994798451e+01 2.9243805357e+01 -5.4379102093e-01
     vertex 2.9243805357e+01 2.9243805357e+01 0.0000000000e+00
     vertex 3.8368991010e+01 3.7617997916e+01 -5.4379102093e-01
   endloop
 endfacet
 facet normal  -5.0589961799e-01 5.0589961799e-01 -6.9866383407e-01
   outer loop
     vertex 3.8368991010e+01 3.7617997916e+01 -5.4379102093e-01
     vertex 2.9243805357e+01 2.9243805357e+01 0.0000000000e+00
     vertex 3.7617997916e+01 3.7617997916e+01 0.0000000000e+00
   endloop
 endfacet
 facet normal  -5.0589961799e-01 5.0589961799e-01 6.9866383407e-01
   outer loop
     vertex 2.9243805357e+01 2.9243805357e+01 0.0000000000e+00
     vertex 3.8368991010e+01 3.7617997916e+01 5.4379102093e-01
     vertex 3.7617997916e+01 3.7617997916e+01 0.0000000000e+00
   endloop
 endfacet
 facet normal  -5.0589961799e-01 5.0589961799e-01 6.9866383407e-01
   outer loop
     vertex 2.9243805357e+01 2.9243805357e+01 0.0000000000e+00
     vertex 2.9994798451e+01 2.9243805357e+01 5.4379102093e-01
     vertex 3.8368991010e+01 3.7617997916e+01 5.4379102093e-01
   endloop
 endfacet
 facet normal  -1.6916530260e-01 1.6916530260e-01 9.7096148265e-01
   outer loop
     vertex 2.9994798451e+01 2.9243805357e+01 5.4379102093e-01
     vertex 4.1210462250e+01 3.7617997916e+01 1.0388449964e+00
     vertex 3.8368991010e+01 3.7617997916e+01 5.4379102093e-01
   endloop
 endfacet
 facet normal  -1.6916530260e-01 1.6916530260e-01 9.7096148265e-01
   outer loop
     vertex 2.9994798451e+01 2.9243805357e+01 5.4379102093e-01
     vertex 3.2836269691e+01 2.9243805357e+01 1.0388449964e+00
     vertex 4.1210462250e+01 3.7617997916e+01 1.0388449964e+00
   endloop
 endfacet
 facet normal  1.0008630081e-02 -1.0008630081e-02 9.9989982231e-01
   outer loop
     vertex 3.2836269691e+01 2.9243805357e+01 1.0388449964e+00
     vertex 4.7013234551e+01 3.7617997916e+01 9.8076137629e-01
     vertex 4.1210462250e+01 3.7617997916e+01 1.0388449964e+00
   endloop
 endfacet
 facet normal  1.0008630081e-02 -1.0008630081e-02 9.9989982231e-01
   outer loop
     vertex 3.2836269691e+01 2.9243805357e+01 1.0388449964e+00
     vertex 3.8639041992e+01 2.9243805357e+01 9.8076137629e-01
     vertex 4.7013234551e+01 3.7617997916e+01 9.8076137629e-01
   endloop
 endfacet
 facet normal  9.7597423765e-02 -9.7597423765e-02 9.9042894028e-01
   outer loop
     vertex 3.8639041992e+01 2.9243805357e+01 9.8076137629e-01
     vertex 4.4420335325e+01 2.9243805357e+01 4.1106948582e-01
     vertex 4.7013234551e+01 3.7617997916e+01 9.8076137629e-01
   endloop
 endfacet
 facet normal  9.7597423765e-02 -9.7597423765e-02 9.9042894028e-01
   outer loop
     vertex 4.7013234551e+01 3.7617997916e+01 9.8076137629e-01
     vertex 4.4420335325e+01 2.9243805357e+01 4.1106948582e-01
     vertex 5.2794527884e+01 3.7617997916e+01 4.1106948582e-01
   endloop
 endfacet
 facet normal  1.0652337625e-01 -1.0652337625e-01 9.8858764944e-01
   outer loop
     vertex 4.4420335325e+01 2.9243805357e+01 4.1106948582e-01
     vertex 4.7293131643e+01 2.9243805357e+01 1.0151679895e-01
     vertex 5.2794527884e+01 3.7617997916e+01 4.1106948582e-01
   endloop
 endfacet
 facet normal  1.0652337625e-01 -1.0652337625e-01 9.8858764944e-01
   outer loop
     vertex 5.2794527884e+01 3.7617997916e+01 4.1106948582e-01
     vertex 4.7293131643e+01 2.9243805357e+01 1.0151679895e-01
     vertex 5.5667324202e+01 3.7617997916e+01 1.0151679895e-01
   endloop
 endfacet
 facet normal  1.0555417726e-01 -1.0555417726e-01 9.8879554577e-01
   outer loop
     vertex 4.7293131643e+01 2.9243805357e+01 1.0151679895e-01
     vertex 4.8244106406e+01 2.9243805357e+01 0.0000000000e+00
     vertex 5.5667324202e+01 3.7617997916e+01 1.0151679895e-01
   endloop
 endfacet
 facet normal  1.0555417726e-01 -1.0555417726e-01 9.8879554577e-01
   outer loop
     vertex 5.5667324202e+01 3.7617997916e+01 1.0151679895e-01
     vertex 4.8244106406e+01 2.9243805357e+01 0.0000000000e+00
     vertex 5.6618298965e+01 3.7617997916e+01 0.0000000000e+00
   endloop
 endfacet
 facet normal  1.0555417726e-01 -1.0555417726e-01 -9.8879554577e-01
   outer loop
     vertex 5.6618298965e+01 3.7617997916e+01 0.0000000000e+00
     vertex 6.1578994479e+01 4.3529668192e+01 -1.0151679895e-01
     vertex 6.2529969241e+01 4.3529668192e+01 0.0000000000e+00
   endloop
 endfacet
 facet normal  1.0555417726e-01 -1.0555417726e-01 -9.8879554577e-01
   outer loop
     vertex 5.6618298965e+01 3.7617997916e+01 0.0000000000e+00
     vertex 5.5667324202e+01 3.7617997916e+01 -1.0151679895e-01
     vertex 6.1578994479e+01 4.3529668192e+01 -1.0151679895e-01
   endloop
 endfacet
 facet normal  1.0652337625e-01 -1.0652337625e-01 -9.8858764944e-01
   outer loop
     vertex 5.5667324202e+01 3.7617997916e+01 -1.0151679895e-01
     vertex 5.8706198161e+01 4.3529668192e+01 -4.1106948582e-01
     vertex 6.1578994479e+01 4.3529668192e+01 -1.0151679895e-01
   endloop
 endfacet
 facet normal  1.0652337625e-01 -1.0652337625e-01 -9.8858764944e-01
   outer loop
     vertex 5.5667324202e+01 3.7617997916e+01 -1.0151679895e-01
     vertex 5.2794527884e+01 3.7617997916e+01 -4.1106948582e-01
     vertex 5.8706198161e+01 4.3529668192e+01 -4.1106948582e-01
   endloop
 endfacet
 facet normal  9.7597423765e-02 -9.7597423765e-02 -9.9042894028e-01
   outer loop
     vertex 5.2794527884e+01 3.7617997916e+01 -4.1106948582e-01
     vertex 5.2924904827e+01 4.3529668192e+01 -9.8076137629e-01
     vertex 5.8706198161e+01 4.3529668192e+01 -4.1106948582e-01
   endloop
 endfacet
 facet normal  9.7597423765e-02 -9.7597423765e-02 -9.9042894028e-01
   outer loop
     vertex 5.2794527884e+01 3.7617997916e+01 -4.1106948582e-01
     vertex 4.7013234551e+01 3.7617997916e+01 -9.8076137629e-01
     vertex 5.2924904827e+01 4.3529668192e+01 -9.8076137629e-01
   endloop
 endfacet
 facet normal  1.0008630081e-02 -1.0008630081e-02 -9.9989982231e-01
   outer loop
     vertex 4.7013234551e+01 3.7617997916e+01 -9.8076137629e-01
     vertex 4.1210462250e+01 3.7617997916e+01 -1.0388449964e+00
     vertex 5.2924904827e+01 4.3529668192e+01 -9.8076137629e-01
   endloop
 endfacet
 facet normal  1.0008630081e-02 -1.0008630081e-02 -9.9989982231e-01
   outer loop
     vertex 5.2924904827e+01 4.3529668192e+01 -9.8076137629e-01
     vertex 4.1210462250e+01 3.7617997916e+01 -1.0388449964e+00
     vertex 4.7122132526e+01 4.3529668192e+01 -1.0388449964e+00
   endloop
 endfacet
 facet normal  -1.6916530260e-01 1.6916530260e-01 -9.7096148265e-01
   outer loop
     vertex 4.1210462250e+01 3.7617997916e+01 -1.0388449964e+00
     vertex 3.8368991010e+01 3.7617997916e+01 -5.4379102093e-01
     vertex 4.7122132526e+01 4.3529668192e+01 -1.0388449964e+00
   endloop
 endfacet
 facet normal  -1.6916530260e-01 1.6916530260e-01 -9.7096148265e-01
   outer loop
     vertex 4.7122132526e+01 4.3529668192e+01 -1.0388449964e+00
     vertex 3.8368991010e+01 3.7617997916e+01 -5.4379102093e-01
     vertex 4.4280661287e+01 4.3529668192e+01 -5.4379102093e-01
   endloop
 endfacet
 facet normal  -5.0589961799e-01 5.0589961799e-01 -6.9866383407e-01
   outer loop
     vertex 3.8368991010e+01 3.7617997916e+01 -5.4379102093e-01
     vertex 3.7617997916e+01 3.7617997916e+01 0.0000000000e+00
     vertex 4.4280661287e+01 4.3529668192e+01 -5.4379102093e-01
   endloop
 endfacet
 facet normal  -5.0589961799e-01 5.0589961799e-01 -6.9866383407e-01
   outer loop
     vertex 4.4280661287e+01 4.3529668192e+01 -5.4379102093e-01
     vertex 3.7617997916e+01 3.7617997916e+01 0.0000000000e+00
     vertex 4.3529668192e+01 4.3529668192e+01 0.0000000000e+00
   endloop
 endfacet
 facet normal  -5.0589961799e-01 5.0589961799e-01 6.9866383407e-01
   outer loop
     vertex 3.7617997916e+01 3.7617997916e+01 0.0000000000e+00
     vertex 4.4280661287e+01 4.3529668192e+01 5.4379102093e-01
     vertex 4.3529668192e+01 4.3529668192e+01 0.0000000000e+00
   endloop
 endfacet
 facet normal  -5.0589961799e-01 5.0589961799e-01 6.9866383407e-01
   outer loop
     vertex 3.7617997916e+01 3.7617997916e+01 0.0000000000e+00
     vertex 3.8368991010e+01 3.7617997916e+01 5.4379102093e-01
     vertex 4.4280661287e+01 4.3529668192e+01 5.4379102093e-01
   endloop
 endfacet
 facet normal  -1.6916530260e-01 1.6916530260e-01 9.7096148265e-01
   outer loop
     vertex 3.8368991010e+01 3.7617997916e+01 5.4379102093e-01
     vertex 4.7122132526e+01 4.3529668192e+01 1.0388449964e+00
     vertex 4.4280661287e+01 4.3529668192e+01 5.4379102093e-01
   endloop
 endfacet
 facet normal  -1.6916530260e-01 1.6916530260e-01 9.7096148265e-01
   outer loop
     vertex 3.8368991010e+01 3.7617997916e+01 5.4379102093e-01
     vertex 4.1210462250e+01 3.7617997916e+01 1.0388449964e+00
     vertex 4.7122132526e+01 4.3529668192e+01 1.0388449964e+00
   endloop
 endfacet
 facet normal  1.0008630081e-02 -1.0008630081e-02 9.9989982231e-01
   outer loop
     vertex 4.1210462250e+01 3.7617997916e+01 1.0388449964e+00
     vertex 5.2924904827e+01 4.3529668192e+01 9.8076137629e-01
     vertex 4.7122132526e+01 4.3529668192e+01 1.0388449964e+00
   endloop
 endfacet
 facet normal  1.0008630081e-02 -1.0008630081e-02 9.9989982231e-01
   outer loop
     vertex 4.1210462250e+01 3.7617997916e+01 1.0388449964e+00
     vertex 4.7013234551e+01 3.7617997916e+01 9.8076137629e-01
     vertex 5.2924904827e+01 4.3529668192e+01 9.8076137629e-01
   endloop
 endfacet
 facet normal  9.7597423765e-02 -9.7597423765e-02 9.9042894028e-01
   outer loop
     vertex 4.7013234551e+01 3.7617997916e+01 9.8076137629e-01
     vertex 5.2794527884e+01 3.7617997916e+01 4.1106948582e-01
     vertex 5.2924904827e+01 4.3529668192e+01 9.8076137629e-01
   endloop
 endfacet
 facet normal  9.7597423765e-02 -9.7597423765e-02 9.9042894028e-01
   outer loop
     vertex 5.2924904827e+01 4.3529668192e+01 9.8076137629e-01
     vertex 5.2794527884e+01 3.7617997916e+01 4.1106948582e-01
     vertex 5.8706198161e+01 4.3529668192e+01 4.1106948582e-01
   endloop
 endfacet
 facet normal  1.0652337625e-01 -1.0652337625e-01 9.8858764944e-01
   outer loop
     vertex 5.2794527884e+01 3.7617997916e+01 4.1106948582e-01
     vertex 5.5667324202e+01 3.7617997916e+01 1.0151679895e-01
     vertex 5.8706198161e+01 4.3529668192e+01 4.1106948582e-01
   endloop
 endfacet
 facet normal  1.0652337625e-01 -1.0652337625e-01 9.8858764944e-01
   outer loop
     vertex 5.8706198161e+01 4.3529668192e+01 4.1106948582e-01
     vertex 5.5667324202e+01 3.7617997916e+01 1.0151679895e-01
     vertex 6.1578994479e+01 4.3529668192e+01 1.0151679895e-01
   endloop
 endfacet
 facet normal  1.0555417726e-01 -1.0555417726e-01 9.8879554577e-01
   outer loop
     vertex 5.5667324202e+01 3.7617997916e+01 1.0151679895e-01
     vertex 5.6618298965e+01 3.7617997916e+01 0.0000000000e+00
     vertex 6.1578994479e+01 4.3529668192e+01 1.0151679895e-01
   endloop
 endfacet
 facet normal  1.0555417726e-01 -1.0555417726e-01 9.8879554577e-01
   outer loop
     vertex 6.1578994479e+01 4.3529668192e+01 1.0151679895e-01
     vertex 5.6618298965e+01 3.7617997916e+01 0.0000000000e+00
     vertex 6.2529969241e+01 4.3529668192e+01 0.0000000000e+00
   endloop
 endfacet
 facet normal  1.0555417726e-01 -1.0555417726e-01 -9.8879554577e-01
   outer loop
     vertex 6.2529969241e+01 4.3529668192e+01 0.0000000000e+00
     vertex 6.5125572603e+01 4.7076246317e+01 -1.0151679895e-01
     vertex 6.6076547365e+01 4.7076246317e+01 0.0000000000e+00
   endloop
 endfacet
 facet normal  1.0555417726e-01 -1.0555417726e-01 -9.8879554577e-01
   outer loop
     vertex 6.2529969241e+01 4.3529668192e+01 0.0000000000e+00
     vertex 6.1578994479e+01 4.3529668192e+01 -1.0151679895e-01
     vertex 6.5125572603e+01 4.7076246317e+01 -1.0151679895e-01
   endloop
 endfacet
 facet normal  1.0652337625e-01 -1.0652337625e-01 -9.8858764944e-01
   outer loop
     vertex 6.1578994479e+01 4.3529668192e+01 -1.0151679895e-01
     vertex 6.2252776285e+01 4.7076246317e+01 -4.1106948582e-01
     vertex 6.5125572603e+01 4.7076246317e+01 -1.0151679895e-01
   endloop
 endfacet
 facet normal  1.0652337625e-01 -1.0652337625e-01 -9.8858764944e-01
   outer loop
     vertex 6.1578994479e+01 4.3529668192e+01 -1.0151679895e-01
     vertex 5.8706198161e+01 4.3529668192e+01 -4.1106948582e-01
     vertex 6.2252776285e+01 4.7076246317e+01 -4.1106948582e-01
   endloop
 endfacet
 facet normal  9.7597423765e-02 -9.7597423765e-02 -9.9042894028e-01
   outer loop
     vertex 5.8706198161e+01 4.3529668192e+01 -4.1106948582e-01
     vertex 5.6471482952e+01 4.7076246317e+01 -9.8076137629e-01
     vertex 6.2252776285e+01 4.7076246317e+01 -4.1106948582e-01
   endloop
 endfacet
 facet normal  9.7597423765e-02 -9.7597423765e-02 -9.9042894028e-01
   outer loop
     vertex 5.8706198161e+01 4.3529668192e+01 -4.1106948582e-01
     vertex 5.2924904827e+01 4.3529668192e+01 -9.8076137629e-01
     vertex 5.6471482952e+01 4.7076246317e+01 -9.8076137629e-01
   endloop
 endfacet
 facet normal  1.0008630081e-02 -1.0008630081e-02 -9.9989982231e-01
   outer loop
     vertex 5.2924904827e+01 4.3529668192e+01 -9.8076137629e-01
     vertex 4.7122132526e+01 4.3529668192e+01 -1.0388449964e+00
     vertex 5.6471482952e+01 4.7076246317e+01 -9.8076137629e-01
   endloop
 endfacet
 facet normal  1.0008630081e-02 -1.0008630081e-02 -9.9989982231e-01
   outer loop
     vertex 5.6471482952e+01 4.7076246317e+01 -9.8076137629e-01
     vertex 4.7122132526e+01 4.3529668192e+01 -1.0388449964e+00
     vertex 5.0668710650e+01 4.7076246317e+01 -1.0388449964e+00
   endloop
 endfacet
 facet normal  -1.6916530260e-01 1.6916530260e-01 -9.7096148265e-01
   outer loop
     vertex 4.7122132526e+01 4.3529668192e+01 -1.0388449964e+00
     vertex 4.4280661287e+01 4.3529668192e+01 -5.4379102093e-01
     vertex 5.0668710650e+01 4.7076246317e+01 -1.0388449964e+00
   endloop
 endfacet
 facet normal  -1.6916530260e-01 1.6916530260e-01 -9.7096148265e-01
   outer loop
     vertex 5.0668710650e+01 4.7076246317e+01 -1.0388449964e+00
     vertex 4.4280661287e+01 4.3529668192e+01 -5.4379102093e-01
     vertex 4.7827239411e+01 4.7076246317e+01 -5.4379102093e-01
   endloop
 endfacet
 facet normal  -5.0589961799e-01 5.0589961799e-01 -6.9866383407e-01
   outer loop
     vertex 4.4280661287e+01 4.3529668192e+01 -5.4379102093e-01
     vertex 4.3529668192e+01 4.3529668192e+01 0.0000000000e+00
     vertex 4.7827239411e+01 4.7076246317e+01 -5.4379102093e-01
   endloop
 endfacet
 facet normal  -5.0589961799e-01 5.0589961799e-01 -6.9866383407e-01
   outer loop
     vertex 4.7827239411e+01 4.7076246317e+01 -5.4379102093e-01
     vertex 4.3529668192e+01 4.3529668192e+01 0.0000000000e+00
     vertex 4.7076246317e+01 4.7076246317e+01 0.0000000000e+00
   endloop
 endfacet
 facet normal  -5.0589961799e-01 5.0589961799e-01 6.9866383407e-01
   outer loop
     vertex 4.3529668192e+01 4.3529668192e+01 0.0000000000e+00
     vertex 4.7827239411e+01 4.7076246317e+01 5.4379102093e-01
     vertex 4.7076246317e+01 4.7076246317e+01 0.0000000000e+00
   endloop
 endfacet
 facet normal  -5.0589961799e-01 5.0589961799e-01 6.9866383407e-01
   outer loop
     vertex 4.3529668192e+01 4.3529668192e+01 0.0000000000e+00
     vertex 4.4280661287e+01 4.3529668192e+01 5.4379102093e-01
     vertex 4.7827239411e+01 4.7076246317e+01 5.4379102093e-01
   endloop
 endfacet
 facet normal  -1.6916530260e-01 1.6916530260e-01 9.7096148265e-01
   outer loop
     vertex 4.4280661287e+01 4.3529668192e+01 5.4379102093e-01
     vertex 5.0668710650e+01 4.7076246317e+01 1.0388449964e+00
     vertex 4.7827239411e+01 4.7076246317e+01 5.4379102093e-01
   endloop
 endfacet
 facet normal  -1.6916530260e-01 1.6916530260e-01 9.7096148265e-01
   outer loop
     vertex 4.4280661287e+01 4.3529668192e+01 5.4379102093e-01
     vertex 4.7122132526e+01 4.3529668192e+01 1.0388449964e+00
     vertex 5.0668710650e+01 4.7076246317e+01 1.0388449964e+00
   endloop
 endfacet
 facet normal  1.0008630081e-02 -1.0008630081e-02 9.9989982231e-01
   outer loop
     vertex 4.7122132526e+01 4.3529668192e+01 1.0388449964e+00
     vertex 5.6471482952e+01 4.7076246317e+01 9.8076137629e-01
     vertex 5.0668710650e+01 4.7076246317e+01 1.0388449964e+00
   endloop
 endfacet
 facet normal  1.0008630081e-02 -1.0008630081e-02 9.9989982231e-01
   outer loop
     vertex 4.7122132526e+01 4.3529668192e+01 1.0388449964e+00
     vertex 5.2924904827e+01 4.3529668192e+01 9.8076137629e-01
     vertex 5.6471482952e+01 4.7076246317e+01 9.8076137629e-01
   endloop
 endfacet
 facet normal  9.7597423765e-02 -9.7597423765e-02 9.9042894028e-01
   outer loop
     vertex 5.2924904827e+01 4.3529668192e+01 9.8076137629e-01
     vertex 5.8706198161e+01 4.3529668192e+01 4.1106948582e-01
     vertex 5.6471482952e+01 4.7076246317e+01 9.8076137629e-01
   endloop
 endfacet
 facet normal  9.7597423765e-02 -9.7597423765e-02 9.9042894028e-01
   outer loop
     vertex 5.6471482952e+01 4.7076246317e+01 9.8076137629e-01
     vertex 5.8706198161e+01 4.3529668192e+01 4.1106948582e-01
     vertex 6.2252776285e+01 4.7076246317e+01 4.1106948582e-01
   endloop
 endfacet
 facet normal  1.0652337625e-01 -1.0652337625e-01 9.8858764944e-01
   outer loop
     vertex 5.8706198161e+01 4.3529668192e+01 4.1106948582e-01
     vertex 6.1578994479e+01 4.3529668192e+01 1.0151679895e-01
     vertex 6.2252776285e+01 4.7076246317e+01 4.1106948582e-01
   endloop
 endfacet
 facet normal  1.0652337625e-01 -1.0652337625e-01 9.8858764944e-01
   outer loop
     vertex 6.2252776285e+01 4.7076246317e+01 4.1106948582e-01
     vertex 6.1578994479e+01 4.3529668192e+01 1.0151679895e-01
     vertex 6.5125572603e+01 4.7076246317e+01 1.0151679895e-01
   endloop
 endfacet
 facet normal  1.0555417726e-01 -1.0555417726e-01 9.8879554577e-01
   outer loop
     vertex 6.1578994479e+01 4.3529668192e+01 1.0151679895e-01
     vertex 6.2529969241e+01 4.3529668192e+01 0.0000000000e+00
     vertex 6.5125572603e+01 4.7076246317e+01 1.0151679895e-01
   endloop
 endfacet
 facet normal  1.0555417726e-01 -1.0555417726e-01 9.8879554577e-01
   outer loop
     vertex 6.5125572603e+01 4.7076246317e+01 1.0151679895e-01
     vertex 6.2529969241e+01 4.3529668192e+01 0.0000000000e+00
     vertex 6.6076547365e+01 4.7076246317e+01 0.0000000000e+00
   endloop
 endfacet
 facet normal  1.0555417726e-01 -1.0555417726e-01 -9.8879554577e-01
   outer loop
     vertex 6.6076547365e+01 4.7076246317e+01 0.0000000000e+00
     vertex 6.7049326287e+01 4.9000000000e+01 -1.0151679895e-01
     vertex 6.8000301049e+01 4.9000000000e+01 0.0000000000e+00
   endloop
 endfacet
 facet normal  1.0555417726e-01 -1.0555417726e-01 -9.8879554577e-01
   outer loop
     vertex 6.6076547365e+01 4.7076246317e+01 0.0000000000e+00
     vertex 6.5125572603e+01 4.7076246317e+01 -1.0151679895e-01
     vertex 6.7049326287e+01 4.9000000000e+01 -1.0151679895e-01
   endloop
 endfacet
 facet normal  1.0652337625e-01 -1.0652337625e-01 -9.8858764944e-01
   outer loop
     vertex 6.5125572603e+01 4.7076246317e+01 -1.0151679895e-01
     vertex 6.4176529968e+01 4.9000000000e+01 -4.1106948582e-01
     vertex 6.7049326287e+01 4.9000000000e+01 -1.0151679895e-01
   endloop
 endfacet
 facet normal  1.0652337625e-01 -1.0652337625e-01 -9.8858764944e-01
   outer loop
     vertex 6.5125572603e+01 4.7076246317e+01 -1.0151679895e-01
     vertex 6.2252776285e+01 4.7076246317e+01 -4.1106948582e-01
     vertex 6.4176529968e+01 4.9000000000e+01 -4.1106948582e-01
   endloop
 endfacet
 facet normal  9.7597423765e-02 -9.7597423765e-02 -9.9042894028e-01
   outer loop
     vertex 6.2252776285e+01 4.7076246317e+01 -4.1106948582e-01
     vertex 5.8395236635e+01 4.9000000000e+01 -9.8076137629e-01
     vertex 6.4176529968e+01 4.9000000000e+01 -4.1106948582e-01
   endloop
 endfacet
 facet normal  9.7597423765e-02 -9.7597423765e-02 -9.9042894028e-01
   outer loop
     vertex 6.2252776285e+01 4.7076246317e+01 -4.1106948582e-01
     vertex 5.6471482952e+01 4.7076246317e+01 -9.8076137629e-01
     vertex 5.8395236635e+01 4.9000000000e+01 -9.8076137629e-01
   endloop
 endfacet
 facet normal  1.0008630081e-02 -1.0008630081e-02 -9.9989982231e-01
   outer loop
     vertex 5.6471482952e+01 4.7076246317e+01 -9.8076137629e-01
     vertex 5.0668710650e+01 4.7076246317e+01 -1.0388449964e+00
     vertex 5.8395236635e+01 4.9000000000e+01 -9.8076137629e-01
   endloop
 endfacet
 facet normal  1.0008630081e-02 -1.0008630081e-02 -9.9989982231e-01
   outer loop
     vertex 5.8395236635e+01 4.9000000000e+01 -9.8076137629e-01
     vertex 5.0668710650e+01 4.7076246317e+01 -1.0388449964e+00
     vertex 5.2592464334e+01 4.9000000000e+01 -1.0388449964e+00
   endloop
 endfacet
 facet normal  -1.6916530260e-01 1.6916530260e-01 -9.7096148265e-01
   outer loop
     vertex 5.0668710650e+01 4.7076246317e+01 -1.0388449964e+00
     vertex 4.7827239411e+01 4.7076246317e+01 -5.4379102093e-01
     vertex 5.2592464334e+01 4.9000000000e+01 -1.0388449964e+00
   endloop
 endfacet
 facet normal  -1.6916530260e-01 1.6916530260e-01 -9.7096148265e-01
   outer loop
     vertex 5.2592464334e+01 4.9000000000e+01 -1.0388449964e+00
     vertex 4.7827239411e+01 4.7076246317e+01 -5.4379102093e-01
     vertex 4.9750993094e+01 4.9000000000e+01 -5.4379102093e-01
   endloop
 endfacet
 facet normal  -5.0589961799e-01 5.0589961799e-01 -6.9866383407e-01
   outer loop
     vertex 4.7827239411e+01 4.7076246317e+01 -5.4379102093e-01
     vertex 4.7076246317e+01 4.7076246317e+01 0.0000000000e+00
     vertex 4.9750993094e+01 4.9000000000e+01 -5.4379102093e-01
   endloop
 endfacet
 facet normal  -5.0589961799e-01 5.0589961799e-01 -6.9866383407e-01
   outer loop
     vertex 4.9750993094e+01 4.9000000000e+01 -5.4379102093e-01
     vertex 4.7076246317e+01 4.7076246317e+01 0.0000000000e+00
     vertex 4.9000000000e+01 4.9000000000e+01 0.0000000000e+00
   endloop
 endfacet
 facet normal  -5.0589961799e-01 5.0589961799e-01 6.9866383407e-01
   outer loop
     vertex 4.7076246317e+01 4.7076246317e+01 0.0000000000e+00
     vertex 4.9750993094e+01 4.9000000000e+01 5.4379102093e-01
     vertex 4.9000000000e+01 4.9000000000e+01 0.0000000000e+00
   endloop
 endfacet
 facet normal  -5.0589961799e-01 5.0589961799e-01 6.9866383407e-01
   outer loop
     vertex 4.7076246317e+01 4.7076246317e+01 0.0000000000e+00
     vertex 4.7827239411e+01 4.7076246317e+01 5.4379102093e-01
     vertex 4.9750993094e+01 4.9000000000e+01 5.4379102093e-01
   endloop
 endfacet
 facet normal  -1.6916530260e-01 1.6916530260e-01 9.7096148265e-01
   outer loop
     vertex 4.7827239411e+01 4.7076246317e+01 5.4379102093e-01
     vertex 5.2592464334e+01 4.9000000000e+01 1.0388449964e+00
     vertex 4.9750993094e+01 4.9000000000e+01 5.4379102093e-01
   endloop
 endfacet
 facet normal  -1.6916530260e-01 1.6916530260e-01 9.7096148265e-01
   outer loop
     vertex 4.7827239411e+01 4.7076246317e+01 5.4379102093e-01
     vertex 5.0668710650e+01 4.7076246317e+01 1.0388449964e+00
     vertex 5.2592464334e+01 4.9000000000e+01 1.0388449964e+00
   endloop
 endfacet
 facet normal  1.0008630081e-02 -1.0008630081e-02 9.9989982231e-01
   outer loop
     vertex 5.0668710650e+01 4.7076246317e+01 1.0388449964e+00
     vertex 5.8395236635e+01 4.9000000000e+01 9.8076137629e-01
     vertex 5.2592464334e+01 4.9000000000e+01 1.0388449964e+00
   endloop
 endfacet
 facet normal  1.0008630081e-02 -1.0008630081e-02 9.9989982231e-01
   outer loop
     vertex 5.0668710650e+01 4.7076246317e+01 1.0388449964e+00
     vertex 5.6471482952e+01 4.7076246317e+01 9.8076137629e-01
     vertex 5.8395236635e+01 4.9000000000e+01 9.8076137629e-01
   endloop
 endfacet
 facet normal  9.7597423765e-02 -9.7597423765e-02 9.9042894028e-01
   outer loop
     vertex 5.6471482952e+01 4.7076246317e+01 9.8076137629e-01
     vertex 6.2252776285e+01 4.7076246317e+01 4.1106948582e-01
     vertex 5.8395236635e+01 4.9000000000e+01 9.8076137629e-01
   endloop
 endfacet
 facet normal  9.7597423765e-02 -9.7597423765e-02 9.9042894028e-01
   outer loop
     vertex 5.8395236635e+01 4.9000000000e+01 9.8076137629e-01
     vertex 6.2252776285e+01 4.7076246317e+01 4.1106948582e-01
     vertex 6.4176529968e+01 4.9000000000e+01 4.1106948582e-01
   endloop
 endfacet
 facet normal  1.0652337625e-01 -1.0652337625e-01 9.8858764944e-01
   outer loop
     vertex 6.2252776285e+01 4.7076246317e+01 4.1106948582e-01
     vertex 6.5125572603e+01 4.7076246317e+01 1.0151679895e-01
     vertex 6.4176529968e+01 4.9000000000e+01 4.1106948582e-01
   endloop
 endfacet
 facet normal  1.0652337625e-01 -1.0652337625e-01 9.8858764944e-01
   outer loop
     vertex 6.4176529968e+01 4.9000000000e+01 4.1106948582e-01
     vertex 6.5125572603e+01 4.7076246317e+01 1.0151679895e-01
     vertex 6.7049326287e+01 4.9000000000e+01 1.0151679895e-01
   endloop
 endfacet
 facet normal  1.0555417726e-01 -1.0555417726e-01 9.8879554577e-01
   outer loop
     vertex 6.5125572603e+01 4.7076246317e+01 1.0151679895e-01
     vertex 6.6076547365e+01 4.7076246317e+01 0.0000000000e+00
     vertex 6.7049326287e+01 4.9000000000e+01 1.0151679895e-01
   endloop
 endfacet
 facet normal  1.0555417726e-01 -1.0555417726e-01 9.8879554577e-01
   outer loop
     vertex 6.7049326287e+01 4.9000000000e+01 1.0151679895e-01
     vertex 6.6076547365e+01 4.7076246317e+01 0.0000000000e+00
     vertex 6.8000301049e+01 4.9000000000e+01 0.0000000000e+00
   endloop
 endfacet
 facet normal  1.0150916167e-01 2.9236784806e-01 -9.5090321880e-01
   outer loop
     vertex 6.8000301049e+01 4.9000000000e+01 0.0000000000e+00
     vertex 6.7049326287e+01 4.9000000000e+01 -1.0151679895e-01
     vertex 6.7121109503e+01 4.9071783217e+01 -7.1783216939e-02
   endloop
 endfacet
 facet normal  1.0248132271e-01 2.9146703501e-01 -9.5107546809e-01
   outer loop
     vertex 6.7049326287e+01 4.9000000000e+01 -1.0151679895e-01
     vertex 6.4467199989e+01 4.9290670021e+01 -2.9067002096e-01
     vertex 6.7121109503e+01 4.9071783217e+01 -7.1783216939e-02
   endloop
 endfacet
 facet normal  1.0248132271e-01 2.9146703501e-01 -9.5107546809e-01
   outer loop
     vertex 6.7049326287e+01 4.9000000000e+01 -1.0151679895e-01
     vertex 6.4176529968e+01 4.9000000000e+01 -4.1106948582e-01
     vertex 6.4467199989e+01 4.9290670021e+01 -2.9067002096e-01
   endloop
 endfacet
 facet normal  9.3557550403e-02 2.9971001073e-01 -9.4943187972e-01
   outer loop
     vertex 6.4176529968e+01 4.9000000000e+01 -4.1106948582e-01
     vertex 5.9088739655e+01 4.9693503020e+01 -6.9350301990e-01
     vertex 6.4467199989e+01 4.9290670021e+01 -2.9067002096e-01
   endloop
 endfacet
 facet normal  9.3557550403e-02 2.9971001073e-01 -9.4943187972e-01
   outer loop
     vertex 6.4176529968e+01 4.9000000000e+01 -4.1106948582e-01
     vertex 5.8395236635e+01 4.9000000000e+01 -9.8076137629e-01
     vertex 5.9088739655e+01 4.9693503020e+01 -6.9350301990e-01
   endloop
 endfacet
 facet normal  9.2797974567e-03 3.7473208696e-01 -9.2708669948e-01
   outer loop
     vertex 5.8395236635e+01 4.9000000000e+01 -9.8076137629e-01
     vertex 5.2592464334e+01 4.9000000000e+01 -1.0388449964e+00
     vertex 5.9088739655e+01 4.9693503020e+01 -6.9350301990e-01
   endloop
 endfacet
 facet normal  9.2797974567e-03 3.7473208696e-01 -9.2708669948e-01
   outer loop
     vertex 5.9088739655e+01 4.9693503020e+01 -6.9350301990e-01
     vertex 5.2592464334e+01 4.9000000000e+01 -1.0388449964e+00
     vertex 5.3327038675e+01 4.9734574342e+01 -7.3457434154e-01
   endloop
 endfacet
 facet normal  -1.4849207128e-01 5.0152750079e-01 -8.5230292192e-01
   outer loop
     vertex 5.2592464334e+01 4.9000000000e+01 -1.0388449964e+00
     vertex 4.9750993094e+01 4.9000000000e+01 -5.4379102093e-01
     vertex 5.3327038675e+01 4.9734574342e+01 -7.3457434154e-01
   endloop
 endfacet
 facet normal  -1.4849207128e-01 5.0152750079e-01 -8.5230292192e-01
   outer loop
     vertex 5.3327038675e+01 4.9734574342e+01 -7.3457434154e-01
     vertex 4.9750993094e+01 4.9000000000e+01 -5.4379102093e-01
     vertex 5.0135511413e+01 4.9384518318e+01 -3.8451831844e-01
   endloop
 endfacet
 facet normal  -4.3118799396e-01 6.7784581227e-01 -5.9548465023e-01
   outer loop
     vertex 4.9750993094e+01 4.9000000000e+01 -5.4379102093e-01
     vertex 4.9000000000e+01 4.9000000000e+01 0.0000000000e+00
     vertex 5.0135511413e+01 4.9384518318e+01 -3.8451831844e-01
   endloop
 endfacet
 facet normal  -4.3118799396e-01 6.7784581227e-01 5.9548465023e-01
   outer loop
     vertex 4.9000000000e+01 4.9000000000e+01 0.0000000000e+00
     vertex 4.9750993094e+01 4.9000000000e+01 5.4379102093e-01
     vertex 5.0135511413e+01 4.9384518318e+01 3.8451831844e-01
   endloop
 endfacet
 facet normal  -1.4849207128e-01 5.0152750079e-01 8.5230292192e-01
   outer loop
     vertex 4.9750993094e+01 4.9000000000e+01 5.4379102093e-01
     vertex 5.3327038675e+01 4.9734574342e+01 7.3457434154e-01
     vertex 5.0135511413e+01 4.9384518318e+01 3.8451831844e-01
   endloop
 endfacet
 facet normal  -1.4849207128e-01 5.0152750079e-01 8.5230292192e-01
   outer loop
     vertex 4.9750993094e+01 4.9000000000e+01 5.4379102093e-01
     vertex 5.2592464334e+01 4.9000000000e+01 1.0388449964e+00
     vertex 5.3327038675e+01 4.9734574342e+01 7.3457434154e-01
   endloop
 endfacet
 facet normal  9.2797974567e-03 3.7473208696e-01 9.2708669948e-01
   outer loop
     vertex 5.2592464334e+01 4.9000000000e+01 1.0388449964e+00
     vertex 5.9088739655e+01 4.9693503020e+01 6.9350301990e-01
     vertex 5.3327038675e+01 4.9734574342e+01 7.3457434154e-01
   endloop
 endfacet
 facet normal  9.2797974567e-03 3.7473208696e-01 9.2708669948e-01
   outer loop
     vertex 5.2592464334e+01 4.9000000000e+01 1.0388449964e+00
     vertex 5.8395236635e+01 4.9000000000e+01 9.8076137629e-01
     vertex 5.9088739655e+01 4.9693503020e+01 6.9350301990e-01
   endloop
 endfacet
 facet normal  9.3557550403e-02 2.9971001073e-01 9.4943187972e-01
   outer loop
     vertex 5.8395236635e+01 4.9000000000e+01 9.8076137629e-01
     vertex 6.4176529968e+01 4.9000000000e+01 4.1106948582e-01
     vertex 5.9088739655e+01 4.9693503020e+01 6.9350301990e-01
   endloop
 endfacet
 facet normal  9.3557550403e-02 2.9971001073e-01 9.4943187972e-01
   outer loop
     vertex 5.9088739655e+01 4.9693503020e+01 6.9350301990e-01
     vertex 6.4176529968e+01 4.9000000000e+01 4.1106948582e-01
     vertex 6.4467199989e+01 4.9290670021e+01 2.9067002096e-01
   endloop
 endfacet
 facet normal  1.0248132271e-01 2.9146703501e-01 9.5107546809e-01
   outer loop
     vertex 6.4176529968e+01 4.9000000000e+01 4.1106948582e-01
     vertex 6.7049326287e+01 4.9000000000e+01 1.0151679895e-01
     vertex 6.4467199989e+01 4.9290670021e+01 2.9067002096e-01
   endloop
 endfacet
 facet normal  1.0248132271e-01 2.9146703501e-01 9.5107546809e-01
   outer loop
     vertex 6.4467199989e+01 4.9290670021e+01 2.9067002096e-01
     vertex 6.7049326287e+01 4.9000000000e+01 1.0151679895e-01
     vertex 6.7121109503e+01 4.9071783217e+01 7.1783216939e-02
   endloop
 endfacet
 facet normal  1.0150916167e-01 2.9236784806e-01 9.5090321880e-01
   outer loop
     vertex 6.7049326287e+01 4.9000000000e+01 1.0151679895e-01
     vertex 6.8000301049e+01 4.9000000000e+01 0.0000000000e+00
     vertex 6.7121109503e+01 4.9071783217e+01 7.1783216939e-02
   endloop
 endfacet
 facet normal  1.0778656082e-01 9.0192119304e-01 -4.1823464568e-01
   outer loop
     vertex 6.8000301049e+01 4.9000000000e+01 0.0000000000e+00
     vertex 6.7121109503e+01 4.9071783217e+01 -7.1783216939e-02
     vertex 6.7150843085e+01 4.9101516799e+01 -5.1105154758e-17
   endloop
 endfacet
 facet normal  1.0888661405e-01 9.0163300736e-01 -4.1857093224e-01
   outer loop
     vertex 6.7121109503e+01 4.9071783217e+01 -7.1783216939e-02
     vertex 6.4587599454e+01 4.9411069486e+01 4.0078832958e-16
     vertex 6.7150843085e+01 4.9101516799e+01 -5.1105154758e-17
   endloop
 endfacet
 facet normal  1.0888661405e-01 9.0163300736e-01 -4.1857093224e-01
   outer loop
     vertex 6.7121109503e+01 4.9071783217e+01 -7.1783216939e-02
     vertex 6.4467199989e+01 4.9290670021e+01 -2.9067002096e-01
     vertex 6.4587599454e+01 4.9411069486e+01 4.0078832958e-16
   endloop
 endfacet
 facet normal  9.8841883638e-02 9.0421596657e-01 -4.1548016540e-01
   outer loop
     vertex 6.4467199989e+01 4.9290670021e+01 -2.9067002096e-01
     vertex 5.9375998011e+01 4.9980761376e+01 0.0000000000e+00
     vertex 6.4587599454e+01 4.9411069486e+01 4.0078832958e-16
   endloop
 endfacet
 facet normal  9.8841883638e-02 9.0421596657e-01 -4.1548016540e-01
   outer loop
     vertex 6.4467199989e+01 4.9290670021e+01 -2.9067002096e-01
     vertex 5.9088739655e+01 4.9693503020e+01 -6.9350301990e-01
     vertex 5.9375998011e+01 4.9980761376e+01 0.0000000000e+00
   endloop
 endfacet
 facet normal  9.3269206751e-03 9.2246756571e-01 -3.8596191361e-01
   outer loop
     vertex 5.9088739655e+01 4.9693503020e+01 -6.9350301990e-01
     vertex 5.3327038675e+01 4.9734574342e+01 -7.3457434154e-01
     vertex 5.9375998011e+01 4.9980761376e+01 0.0000000000e+00
   endloop
 endfacet
 facet normal  9.3269206751e-03 9.2246756571e-01 -3.8596191361e-01
   outer loop
     vertex 5.9375998011e+01 4.9980761376e+01 0.0000000000e+00
     vertex 5.3327038675e+01 4.9734574342e+01 -7.3457434154e-01
     vertex 5.3631309330e+01 5.0038844996e+01 -2.0418380829e-16
   endloop
 endfacet
 facet normal  -1.3857356808e-01 9.3394705814e-01 -3.2945448673e-01
   outer loop
     vertex 5.3327038675e+01 4.9734574342e+01 -7.3457434154e-01
     vertex 5.0135511413e+01 4.9384518318e+01 -3.8451831844e-01
     vertex 5.3631309330e+01 5.0038844996e+01 -2.0418380829e-16
   endloop
 endfacet
 facet normal  -1.3857356808e-01 9.3394705814e-01 -3.2945448673e-01
   outer loop
     vertex 5.3631309330e+01 5.0038844996e+01 -2.0418380829e-16
     vertex 5.0135511413e+01 4.9384518318e+01 -3.8451831844e-01
     vertex 5.0294784115e+01 4.9543791021e+01 -9.3868041826e-16
   endloop
 endfacet
 facet normal  -3.7805769004e-01 9.0016766173e-01 -2.1626503132e-01
   outer loop
     vertex 5.0135511413e+01 4.9384518318e+01 -3.8451831844e-01
     vertex 4.9000000000e+01 4.9000000000e+01 0.0000000000e+00
     vertex 5.0294784115e+01 4.9543791021e+01 -9.3868041826e-16
   endloop
 endfacet
 facet normal  -3.7805769004e-01 9.0016766173e-01 2.1626503132e-01
   outer loop
     vertex 4.9000000000e+01 4.9000000000e+01 0.0000000000e+00
     vertex 5.0135511413e+01 4.9384518318e+01 3.8451831844e-01
     vertex 5.0294784115e+01 4.9543791021e+01 -9.3868041826e-16
   endloop
 endfacet
 facet normal  -1.3857356808e-01 9.3394705814e-01 3.2945448673e-01
   outer loop
     vertex 5.0135511413e+01 4.9384518318e+01 3.8451831844e-01
     vertex 5.3631309330e+01 5.0038844996e+01 -2.0418380829e-16
     vertex 5.0294784115e+01 4.9543791021e+01 -9.3868041826e-16
   endloop
 endfacet
 facet normal  -1.3857356808e-01 9.3394705814e-01 3.2945448673e-01
   outer loop
     vertex 5.0135511413e+01 4.9384518318e+01 3.8451831844e-01
     vertex 5.3327038675e+01 4.9734574342e+01 7.3457434154e-01
     vertex 5.3631309330e+01 5.0038844996e+01 -2.0418380829e-16
   endloop
 endfacet
 facet normal  9.3269206751e-03 9.2246756571e-01 3.8596191361e-01
   outer loop
     vertex 5.3327038675e+01 4.9734574342e+01 7.3457434154e-01
     vertex 5.9375998011e+01 4.9980761376e+01 0.0000000000e+00
     vertex 5.3631309330e+01 5.0038844996e+01 -2.0418380829e-16
   endloop
 endfacet
 facet normal  9.3269206751e-03 9.2246756571e-01 3.8596191361e-01
   outer loop
     vertex 5.3327038675e+01 4.9734574342e+01 7.3457434154e-01
     vertex 5.9088739655e+01 4.9693503020e+01 6.9350301990e-01
     vertex 5.9375998011e+01 4.9980761376e+01 0.0000000000e+00
   endloop
 endfacet
 facet normal  9.8841883638e-02 9.0421596657e-01 4.1548016540e-01
   outer loop
     vertex 5.9088739655e+01 4.9693503020e+01 6.9350301990e-01
     vertex 6.4467199989e+01 4.9290670021e+01 2.9067002096e-01
     vertex 5.9375998011e+01 4.9980761376e+01 0.0000000000e+00
   endloop
 endfacet
 facet normal  9.8841883638e-02 9.0421596657e-01 4.1548016540e-01
   outer loop
     vertex 5.9375998011e+01 4.9980761376e+01 0.0000000000e+00
     vertex 6.4467199989e+01 4.9290670021e+01 2.9067002096e-01
     vertex 6.4587599454e+01 4.9411069486e+01 4.0078832958e-16
   endloop
 endfacet
 facet normal  1.0888661405e-01 9.0163300736e-01 4.1857093224e-01
   outer loop
     vertex 6.4467199989e+01 4.9290670021e+01 2.9067002096e-01
     vertex 6.7121109503e+01 4.9071783217e+01 7.1783216939e-02
     vertex 6.4587599454e+01 4.9411069486e+01 4.0078832958e-16
   endloop
 endfacet
 facet normal  1.0888661405e-01 9.0163300736e-01 4.1857093224e-01
   outer loop
     vertex 6.4587599454e+01 4.9411069486e+01 4.0078832958e-16
     vertex 6.7121109503e+01 4.9071783217e+01 7.1783216939e-02
     vertex 6.7150843085e+01 4.9101516799e+01 -5.1105154758e-17
   endloop
 endfacet
 facet normal  1.0778656082e-01 9.0192119304e-01 4.1823464568e-01
   outer loop
     vertex 6.7121109503e+01 4.9071783217e+01 7.1783216939e-02
     vertex 6.8000301049e+01 4.9000000000e+01 0.0000000000e+00
     vertex 6.7150843085e+01 4.9101516799e+01 -5.1105154758e-17
   endloop
 endfacet
endsolid
