solid
 facet normal  1.0565478986e-01 -1.0565543899e-01 -9.8877398509e-01
   outer loop
     vertex 1.9000000000e+01 0.0000000000e+00 0.0000000000e+00
     vertex 1.9574274742e+01 1.9237536834e+00 -1.4419894218e-01
     vertex 2.0923765503e+01 1.9237536834e+00 0.0000000000e+00
   endloop
 endfacet
 facet normal  1.0565478986e-01 -1.0565543899e-01 -9.8877398509e-01
   outer loop
     vertex 1.9000000000e+01 0.0000000000e+00 0.0000000000e+00
     vertex 1.7650510079e+01 0.0000000000e+00 -1.4419885247e-01
     vertex 1.9574274742e+01 1.9237536834e+00 -1.4419894218e-01
   endloop
 endfacet
 facet normal  1.0660693017e-01 -1.0660758472e-01 -9.8856956524e-01
   outer loop
     vertex 1.7650510079e+01 0.0000000000e+00 -1.4419885247e-01
     vertex 1.6463966093e+01 1.9237536834e+00 -4.7961333142e-01
     vertex 1.9574274742e+01 1.9237536834e+00 -1.4419894218e-01
   endloop
 endfacet
 facet normal  1.0660693017e-01 -1.0660758472e-01 -9.8856956524e-01
   outer loop
     vertex 1.7650510079e+01 0.0000000000e+00 -1.4419885247e-01
     vertex 1.4540203365e+01 0.0000000000e+00 -4.7961303307e-01
     vertex 1.6463966093e+01 1.9237536834e+00 -4.7961333142e-01
   endloop
 endfacet
 facet normal  9.6488653278e-02 -9.6489260579e-02 -9.9064613378e-01
   outer loop
     vertex 1.4540203365e+01 0.0000000000e+00 -4.7961303307e-01
     vertex 1.1318847301e+01 1.9237536834e+00 -9.8074644678e-01
     vertex 1.6463966093e+01 1.9237536834e+00 -4.7961333142e-01
   endloop
 endfacet
 facet normal  9.6488653278e-02 -9.6489260579e-02 -9.9064613378e-01
   outer loop
     vertex 1.4540203365e+01 0.0000000000e+00 -4.7961303307e-01
     vertex 9.3950877730e+00 0.0000000000e+00 -9.8074583669e-01
     vertex 1.1318847301e+01 1.9237536834e+00 -9.8074644678e-01
   endloop
 endfacet
 facet normal  2.0655330832e-02 -2.0655710583e-02 -9.9957325841e-01
   outer loop
     vertex 9.3950877730e+00 0.0000000000e+00 -9.8074583669e-01
     vertex 4.2302808497e+00 0.0000000000e+00 -1.0874721769e+00
     vertex 1.1318847301e+01 1.9237536834e+00 -9.8074644678e-01
   endloop
 endfacet
 facet normal  2.0655330832e-02 -2.0655710583e-02 -9.9957325841e-01
   outer loop
     vertex 1.1318847301e+01 1.9237536834e+00 -9.8074644678e-01
     vertex 4.2302808497e+00 0.0000000000e+00 -1.0874721769e+00
     vertex 6.1540371647e+00 1.9237536834e+00 -1.0874728534e+00
   endloop
 endfacet
 facet normal  -1.3613229957e-01 1.3613214072e-01 -9.8129304353e-01
   outer loop
     vertex 4.2302808497e+00 0.0000000000e+00 -1.0874721769e+00
     vertex 1.1353810354e+00 0.0000000000e+00 -6.5812456114e-01
     vertex 6.1540371647e+00 1.9237536834e+00 -1.0874728534e+00
   endloop
 endfacet
 facet normal  -1.3613229957e-01 1.3613214072e-01 -9.8129304353e-01
   outer loop
     vertex 6.1540371647e+00 1.9237536834e+00 -1.0874728534e+00
     vertex 1.1353810354e+00 0.0000000000e+00 -6.5812456114e-01
     vertex 3.0591354251e+00 1.9237536834e+00 -6.5812497053e-01
   endloop
 endfacet
 facet normal  -4.4828024732e-01 4.4828024732e-01 -7.7336255387e-01
   outer loop
     vertex 1.1353810354e+00 0.0000000000e+00 -6.5812456114e-01
     vertex 0.0000000000e+00 0.0000000000e+00 0.0000000000e+00
     vertex 3.0591354251e+00 1.9237536834e+00 -6.5812497053e-01
   endloop
 endfacet
 facet normal  -4.4828024732e-01 4.4828024732e-01 -7.7336255387e-01
   outer loop
     vertex 3.0591354251e+00 1.9237536834e+00 -6.5812497053e-01
     vertex 0.0000000000e+00 0.0000000000e+00 0.0000000000e+00
     vertex 1.9237536834e+00 1.9237536834e+00 0.0000000000e+00
   endloop
 endfacet
 facet normal  -4.4828024732e-01 4.4828024732e-01 7.7336255387e-01
   outer loop
     vertex 0.0000000000e+00 0.0000000000e+00 0.0000000000e+00
     vertex 3.0591354251e+00 1.9237536834e+00 6.5812497053e-01
     vertex 1.9237536834e+00 1.9237536834e+00 0.0000000000e+00
   endloop
 endfacet
 facet normal  -4.4828024732e-01 4.4828024732e-01 7.7336255387e-01
   outer loop
     vertex 0.0000000000e+00 0.0000000000e+00 0.0000000000e+00
     vertex 1.1353810354e+00 0.0000000000e+00 6.5812456114e-01
     vertex 3.0591354251e+00 1.9237536834e+00 6.5812497053e-01
   endloop
 endfacet
 facet normal  -1.3613229957e-01 1.3613214072e-01 9.8129304353e-01
   outer loop
     vertex 1.1353810354e+00 0.0000000000e+00 6.5812456114e-01
     vertex 6.1540371647e+00 1.9237536834e+00 1.0874728534e+00
     vertex 3.0591354251e+00 1.9237536834e+00 6.5812497053e-01
   endloop
 endfacet
 facet normal  -1.3613229957e-01 1.3613214072e-01 9.8129304353e-01
   outer loop
     vertex 1.1353810354e+00 0.0000000000e+00 6.5812456114e-01
     vertex 4.2302808497e+00 0.0000000000e+00 1.0874721769e+00
     vertex 6.1540371647e+00 1.9237536834e+00 1.0874728534e+00
   endloop
 endfacet
 facet normal  2.0655330832e-02 -2.0655710583e-02 9.9957325841e-01
   outer loop
     vertex 4.2302808497e+00 0.0000000000e+00 1.0874721769e+00
     vertex 1.1318847301e+01 1.9237536834e+00 9.8074644678e-01
     vertex 6.1540371647e+00 1.9237536834e+00 1.0874728534e+00
   endloop
 endfacet
 facet normal  2.0655330832e-02 -2.0655710583e-02 9.9957325841e-01
   outer loop
     vertex 4.2302808497e+00 0.0000000000e+00 1.0874721769e+00
     vertex 9.3950877730e+00 0.0000000000e+00 9.8074583669e-01
     vertex 1.1318847301e+01 1.9237536834e+00 9.8074644678e-01
   endloop
 endfacet
 facet normal  9.6488653278e-02 -9.6489260579e-02 9.9064613378e-01
   outer loop
     vertex 9.3950877730e+00 0.0000000000e+00 9.8074583669e-01
     vertex 1.4540203365e+01 0.0000000000e+00 4.7961303307e-01
     vertex 1.1318847301e+01 1.9237536834e+00 9.8074644678e-01
   endloop
 endfacet
 facet normal  9.6488653278e-02 -9.6489260579e-02 9.9064613378e-01
   outer loop
     vertex 1.1318847301e+01 1.9237536834e+00 9.8074644678e-01
     vertex 1.4540203365e+01 0.0000000000e+00 4.7961303307e-01
     vertex 1.6463966093e+01 1.9237536834e+00 4.7961333142e-01
   endloop
 endfacet
 facet normal  1.0660693017e-01 -1.0660758472e-01 9.8856956524e-01
   outer loop
     vertex 1.4540203365e+01 0.0000000000e+00 4.7961303307e-01
     vertex 1.7650510079e+01 0.0000000000e+00 1.4419885247e-01
     vertex 1.6463966093e+01 1.9237536834e+00 4.7961333142e-01
   endloop
 endfacet
 facet normal  1.0660693017e-01 -1.0660758472e-01 9.8856956524e-01
   outer loop
     vertex 1.6463966093e+01 1.9237536834e+00 4.7961333142e-01
     vertex 1.7650510079e+01 0.0000000000e+00 1.4419885247e-01
     vertex 1.9574274742e+01 1.9237536834e+00 1.4419894218e-01
   endloop
 endfacet
 facet normal  1.0565478986e-01 -1.0565543899e-01 9.8877398509e-01
   outer loop
     vertex 1.7650510079e+01 0.0000000000e+00 1.4419885247e-01
     vertex 1.9000000000e+01 0.0000000000e+00 0.0000000000e+00
     vertex 1.9574274742e+01 1.9237536834e+00 1.4419894218e-01
   endloop
 endfacet
 facet normal  1.0565478986e-01 -1.0565543899e-01 9.8877398509e-01
   outer loop
     vertex 1.9574274742e+01 1.9237536834e+00 1.4419894218e-01
     vertex 1.9000000000e+01 0.0000000000e+00 0.0000000000e+00
     vertex 2.0923765503e+01 1.9237536834e+00 0.0000000000e+00
   endloop
 endfacet
 facet normal  1.0565478986e-01 -1.0565543899e-01 -9.8877398509e-01
   outer loop
     vertex 2.0923765503e+01 1.9237536834e+00 0.0000000000e+00
     vertex 2.3120873109e+01 5.4703318078e+00 -1.4419910755e-01
     vertex 2.4470365417e+01 5.4703318078e+00 0.0000000000e+00
   endloop
 endfacet
 facet normal  1.0565478986e-01 -1.0565543899e-01 -9.8877398509e-01
   outer loop
     vertex 2.0923765503e+01 1.9237536834e+00 0.0000000000e+00
     vertex 1.9574274742e+01 1.9237536834e+00 -1.4419894218e-01
     vertex 2.3120873109e+01 5.4703318078e+00 -1.4419910755e-01
   endloop
 endfacet
 facet normal  1.0660693017e-01 -1.0660758472e-01 -9.8856956524e-01
   outer loop
     vertex 1.9574274742e+01 1.9237536834e+00 -1.4419894218e-01
     vertex 2.0010560893e+01 5.4703318078e+00 -4.7961388146e-01
     vertex 2.3120873109e+01 5.4703318078e+00 -1.4419910755e-01
   endloop
 endfacet
 facet normal  1.0660693017e-01 -1.0660758472e-01 -9.8856956524e-01
   outer loop
     vertex 1.9574274742e+01 1.9237536834e+00 -1.4419894218e-01
     vertex 1.6463966093e+01 1.9237536834e+00 -4.7961333142e-01
     vertex 2.0010560893e+01 5.4703318078e+00 -4.7961388146e-01
   endloop
 endfacet
 facet normal  9.6488653278e-02 -9.6489260579e-02 -9.9064613378e-01
   outer loop
     vertex 1.6463966093e+01 1.9237536834e+00 -4.7961333142e-01
     vertex 1.4865436200e+01 5.4703318078e+00 -9.8074757153e-01
     vertex 2.0010560893e+01 5.4703318078e+00 -4.7961388146e-01
   endloop
 endfacet
 facet normal  9.6488653278e-02 -9.6489260579e-02 -9.9064613378e-01
   outer loop
     vertex 1.6463966093e+01 1.9237536834e+00 -4.7961333142e-01
     vertex 1.1318847301e+01 1.9237536834e+00 -9.8074644678e-01
     vertex 1.4865436200e+01 5.4703318078e+00 -9.8074757153e-01
   endloop
 endfacet
 facet normal  2.0655330832e-02 -2.0655710583e-02 -9.9957325841e-01
   outer loop
     vertex 1.1318847301e+01 1.9237536834e+00 -9.8074644678e-01
     vertex 6.1540371647e+00 1.9237536834e+00 -1.0874728534e+00
     vertex 1.4865436200e+01 5.4703318078e+00 -9.8074757153e-01
   endloop
 endfacet
 facet normal  2.0655330832e-02 -2.0655710583e-02 -9.9957325841e-01
   outer loop
     vertex 1.4865436200e+01 5.4703318078e+00 -9.8074757153e-01
     vertex 6.1540371647e+00 1.9237536834e+00 -1.0874728534e+00
     vertex 9.7006201405e+00 5.4703318078e+00 -1.0874741006e+00
   endloop
 endfacet
 facet normal  -1.3613229957e-01 1.3613214072e-01 -9.8129304353e-01
   outer loop
     vertex 6.1540371647e+00 1.9237536834e+00 -1.0874728534e+00
     vertex 3.0591354251e+00 1.9237536834e+00 -6.5812497053e-01
     vertex 9.7006201405e+00 5.4703318078e+00 -1.0874741006e+00
   endloop
 endfacet
 facet normal  -1.3613229957e-01 1.3613214072e-01 -9.8129304353e-01
   outer loop
     vertex 9.7006201405e+00 5.4703318078e+00 -1.0874741006e+00
     vertex 3.0591354251e+00 1.9237536834e+00 -6.5812497053e-01
     vertex 6.6057148516e+00 5.4703318078e+00 -6.5812572529e-01
   endloop
 endfacet
 facet normal  -4.4828024732e-01 4.4828024732e-01 -7.7336255387e-01
   outer loop
     vertex 3.0591354251e+00 1.9237536834e+00 -6.5812497053e-01
     vertex 1.9237536834e+00 1.9237536834e+00 0.0000000000e+00
     vertex 6.6057148516e+00 5.4703318078e+00 -6.5812572529e-01
   endloop
 endfacet
 facet normal  -4.4828024732e-01 4.4828024732e-01 -7.7336255387e-01
   outer loop
     vertex 6.6057148516e+00 5.4703318078e+00 -6.5812572529e-01
     vertex 1.9237536834e+00 1.9237536834e+00 0.0000000000e+00
     vertex 5.4703318078e+00 5.4703318078e+00 0.0000000000e+00
   endloop
 endfacet
 facet normal  -4.4828024732e-01 4.4828024732e-01 7.7336255387e-01
   outer loop
     vertex 1.9237536834e+00 1.9237536834e+00 0.0000000000e+00
     vertex 6.6057148516e+00 5.4703318078e+00 6.5812572529e-01
     vertex 5.4703318078e+00 5.4703318078e+00 0.0000000000e+00
   endloop
 endfacet
 facet normal  -4.4828024732e-01 4.4828024732e-01 7.7336255387e-01
   outer loop
     vertex 1.9237536834e+00 1.9237536834e+00 0.0000000000e+00
     vertex 3.0591354251e+00 1.9237536834e+00 6.5812497053e-01
     vertex 6.6057148516e+00 5.4703318078e+00 6.5812572529e-01
   endloop
 endfacet
 facet normal  -1.3613229957e-01 1.3613214072e-01 9.8129304353e-01
   outer loop
     vertex 3.0591354251e+00 1.9237536834e+00 6.5812497053e-01
     vertex 9.7006201405e+00 5.4703318078e+00 1.0874741006e+00
     vertex 6.6057148516e+00 5.4703318078e+00 6.5812572529e-01
   endloop
 endfacet
 facet normal  -1.3613229957e-01 1.3613214072e-01 9.8129304353e-01
   outer loop
     vertex 3.0591354251e+00 1.9237536834e+00 6.5812497053e-01
     vertex 6.1540371647e+00 1.9237536834e+00 1.0874728534e+00
     vertex 9.7006201405e+00 5.4703318078e+00 1.0874741006e+00
   endloop
 endfacet
 facet normal  2.0655330832e-02 -2.0655710583e-02 9.9957325841e-01
   outer loop
     vertex 6.1540371647e+00 1.9237536834e+00 1.0874728534e+00
     vertex 1.4865436200e+01 5.4703318078e+00 9.8074757153e-01
     vertex 9.7006201405e+00 5.4703318078e+00 1.0874741006e+00
   endloop
 endfacet
 facet normal  2.0655330832e-02 -2.0655710583e-02 9.9957325841e-01
   outer loop
     vertex 6.1540371647e+00 1.9237536834e+00 1.0874728534e+00
     vertex 1.1318847301e+01 1.9237536834e+00 9.8074644678e-01
     vertex 1.4865436200e+01 5.4703318078e+00 9.8074757153e-01
   endloop
 endfacet
 facet normal  9.6488653278e-02 -9.6489260579e-02 9.9064613378e-01
   outer loop
     vertex 1.1318847301e+01 1.9237536834e+00 9.8074644678e-01
     vertex 1.6463966093e+01 1.9237536834e+00 4.7961333142e-01
     vertex 1.4865436200e+01 5.4703318078e+00 9.8074757153e-01
   endloop
 endfacet
 facet normal  9.6488653278e-02 -9.6489260579e-02 9.9064613378e-01
   outer loop
     vertex 1.4865436200e+01 5.4703318078e+00 9.8074757153e-01
     vertex 1.6463966093e+01 1.9237536834e+00 4.7961333142e-01
     vertex 2.0010560893e+01 5.4703318078e+00 4.7961388146e-01
   endloop
 endfacet
 facet normal  1.0660693017e-01 -1.0660758472e-01 9.8856956524e-01
   outer loop
     vertex 1.6463966093e+01 1.9237536834e+00 4.7961333142e-01
     vertex 1.9574274742e+01 1.9237536834e+00 1.4419894218e-01
     vertex 2.0010560893e+01 5.4703318078e+00 4.7961388146e-01
   endloop
 endfacet
 facet normal  1.0660693017e-01 -1.0660758472e-01 9.8856956524e-01
   outer loop
     vertex 2.0010560893e+01 5.4703318078e+00 4.7961388146e-01
     vertex 1.9574274742e+01 1.9237536834e+00 1.4419894218e-01
     vertex 2.3120873109e+01 5.4703318078e+00 1.4419910755e-01
   endloop
 endfacet
 facet normal  1.0565478986e-01 -1.0565543899e-01 9.8877398509e-01
   outer loop
     vertex 1.9574274742e+01 1.9237536834e+00 1.4419894218e-01
     vertex 2.0923765503e+01 1.9237536834e+00 0.0000000000e+00
     vertex 2.3120873109e+01 5.4703318078e+00 1.4419910755e-01
   endloop
 endfacet
 facet normal  1.0565478986e-01 -1.0565543899e-01 9.8877398509e-01
   outer loop
     vertex 2.3120873109e+01 5.4703318078e+00 1.4419910755e-01
     vertex 2.0923765503e+01 1.9237536834e+00 0.0000000000e+00
     vertex 2.4470365417e+01 5.4703318078e+00 0.0000000000e+00
   endloop
 endfacet
 facet normal  1.0565478986e-01 -1.0565543899e-01 -9.8877398509e-01
   outer loop
     vertex 2.4470365417e+01 5.4703318078e+00 0.0000000000e+00
     vertex 2.9032577126e+01 1.1382002084e+01 -1.4419938320e-01
     vertex 3.0382072013e+01 1.1382002084e+01 0.0000000000e+00
   endloop
 endfacet
 facet normal  1.0565478986e-01 -1.0565543899e-01 -9.8877398509e-01
   outer loop
     vertex 2.4470365417e+01 5.4703318078e+00 0.0000000000e+00
     vertex 2.3120873109e+01 5.4703318078e+00 -1.4419910755e-01
     vertex 2.9032577126e+01 1.1382002084e+01 -1.4419938320e-01
   endloop
 endfacet
 facet normal  1.0660693017e-01 -1.0660758472e-01 -9.8856956524e-01
   outer loop
     vertex 2.3120873109e+01 5.4703318078e+00 -1.4419910755e-01
     vertex 2.5922258964e+01 1.1382002084e+01 -4.7961479828e-01
     vertex 2.9032577126e+01 1.1382002084e+01 -1.4419938320e-01
   endloop
 endfacet
 facet normal  1.0660693017e-01 -1.0660758472e-01 -9.8856956524e-01
   outer loop
     vertex 2.3120873109e+01 5.4703318078e+00 -1.4419910755e-01
     vertex 2.0010560893e+01 5.4703318078e+00 -4.7961388146e-01
     vertex 2.5922258964e+01 1.1382002084e+01 -4.7961479828e-01
   endloop
 endfacet
 facet normal  9.6488653278e-02 -9.6489260579e-02 -9.9064613378e-01
   outer loop
     vertex 2.0010560893e+01 5.4703318078e+00 -4.7961388146e-01
     vertex 2.0777124436e+01 1.1382002084e+01 -9.8074944632e-01
     vertex 2.5922258964e+01 1.1382002084e+01 -4.7961479828e-01
   endloop
 endfacet
 facet normal  9.6488653278e-02 -9.6489260579e-02 -9.9064613378e-01
   outer loop
     vertex 2.0010560893e+01 5.4703318078e+00 -4.7961388146e-01
     vertex 1.4865436200e+01 5.4703318078e+00 -9.8074757153e-01
     vertex 2.0777124436e+01 1.1382002084e+01 -9.8074944632e-01
   endloop
 endfacet
 facet normal  2.0655330832e-02 -2.0655710583e-02 -9.9957325841e-01
   outer loop
     vertex 1.4865436200e+01 5.4703318078e+00 -9.8074757153e-01
     vertex 9.7006201405e+00 5.4703318078e+00 -1.0874741006e+00
     vertex 2.0777124436e+01 1.1382002084e+01 -9.8074944632e-01
   endloop
 endfacet
 facet normal  2.0655330832e-02 -2.0655710583e-02 -9.9957325841e-01
   outer loop
     vertex 2.0777124436e+01 1.1382002084e+01 -9.8074944632e-01
     vertex 9.7006201405e+00 5.4703318078e+00 -1.0874741006e+00
     vertex 1.5612298503e+01 1.1382002084e+01 -1.0874761794e+00
   endloop
 endfacet
 facet normal  -1.3613229957e-01 1.3613214072e-01 -9.8129304353e-01
   outer loop
     vertex 9.7006201405e+00 5.4703318078e+00 -1.0874741006e+00
     vertex 6.6057148516e+00 5.4703318078e+00 -6.5812572529e-01
     vertex 1.5612298503e+01 1.1382002084e+01 -1.0874761794e+00
   endloop
 endfacet
 facet normal  -1.3613229957e-01 1.3613214072e-01 -9.8129304353e-01
   outer loop
     vertex 1.5612298503e+01 1.1382002084e+01 -1.0874761794e+00
     vertex 6.6057148516e+00 5.4703318078e+00 -6.5812572529e-01
     vertex 1.2517387298e+01 1.1382002084e+01 -6.5812698336e-01
   endloop
 endfacet
 facet normal  -4.4828024732e-01 4.4828024732e-01 -7.7336255387e-01
   outer loop
     vertex 6.6057148516e+00 5.4703318078e+00 -6.5812572529e-01
     vertex 5.4703318078e+00 5.4703318078e+00 0.0000000000e+00
     vertex 1.2517387298e+01 1.1382002084e+01 -6.5812698336e-01
   endloop
 endfacet
 facet normal  -4.4828024732e-01 4.4828024732e-01 -7.7336255387e-01
   outer loop
     vertex 1.2517387298e+01 1.1382002084e+01 -6.5812698336e-01
     vertex 5.4703318078e+00 5.4703318078e+00 0.0000000000e+00
     vertex 1.1382002084e+01 1.1382002084e+01 0.0000000000e+00
   endloop
 endfacet
 facet normal  -4.4828024732e-01 4.4828024732e-01 7.7336255387e-01
   outer loop
     vertex 5.4703318078e+00 5.4703318078e+00 0.0000000000e+00
     vertex 1.2517387298e+01 1.1382002084e+01 6.5812698336e-01
     vertex 1.1382002084e+01 1.1382002084e+01 0.0000000000e+00
   endloop
 endfacet
 facet normal  -4.4828024732e-01 4.4828024732e-01 7.7336255387e-01
   outer loop
     vertex 5.4703318078e+00 5.4703318078e+00 0.0000000000e+00
     vertex 6.6057148516e+00 5.4703318078e+00 6.5812572529e-01
     vertex 1.2517387298e+01 1.1382002084e+01 6.5812698336e-01
   endloop
 endfacet
 facet normal  -1.3613229957e-01 1.3613214072e-01 9.8129304353e-01
   outer loop
     vertex 6.6057148516e+00 5.4703318078e+00 6.5812572529e-01
     vertex 1.5612298503e+01 1.1382002084e+01 1.0874761794e+00
     vertex 1.2517387298e+01 1.1382002084e+01 6.5812698336e-01
   endloop
 endfacet
 facet normal  -1.3613229957e-01 1.3613214072e-01 9.8129304353e-01
   outer loop
     vertex 6.6057148516e+00 5.4703318078e+00 6.5812572529e-01
     vertex 9.7006201405e+00 5.4703318078e+00 1.0874741006e+00
     vertex 1.5612298503e+01 1.1382002084e+01 1.0874761794e+00
   endloop
 endfacet
 facet normal  2.0655330832e-02 -2.0655710583e-02 9.9957325841e-01
   outer loop
     vertex 9.7006201405e+00 5.4703318078e+00 1.0874741006e+00
     vertex 2.0777124436e+01 1.1382002084e+01 9.8074944632e-01
     vertex 1.5612298503e+01 1.1382002084e+01 1.0874761794e+00
   endloop
 endfacet
 facet normal  2.0655330832e-02 -2.0655710583e-02 9.9957325841e-01
   outer loop
     vertex 9.7006201405e+00 5.4703318078e+00 1.0874741006e+00
     vertex 1.4865436200e+01 5.4703318078e+00 9.8074757153e-01
     vertex 2.0777124436e+01 1.1382002084e+01 9.8074944632e-01
   endloop
 endfacet
 facet normal  9.6488653278e-02 -9.6489260579e-02 9.9064613378e-01
   outer loop
     vertex 1.4865436200e+01 5.4703318078e+00 9.8074757153e-01
     vertex 2.0010560893e+01 5.4703318078e+00 4.7961388146e-01
     vertex 2.0777124436e+01 1.1382002084e+01 9.8074944632e-01
   endloop
 endfacet
 facet normal  9.6488653278e-02 -9.6489260579e-02 9.9064613378e-01
   outer loop
     vertex 2.0777124436e+01 1.1382002084e+01 9.8074944632e-01
     vertex 2.0010560893e+01 5.4703318078e+00 4.7961388146e-01
     vertex 2.5922258964e+01 1.1382002084e+01 4.7961479828e-01
   endloop
 endfacet
 facet normal  1.0660693017e-01 -1.0660758472e-01 9.8856956524e-01
   outer loop
     vertex 2.0010560893e+01 5.4703318078e+00 4.7961388146e-01
     vertex 2.3120873109e+01 5.4703318078e+00 1.4419910755e-01
     vertex 2.5922258964e+01 1.1382002084e+01 4.7961479828e-01
   endloop
 endfacet
 facet normal  1.0660693017e-01 -1.0660758472e-01 9.8856956524e-01
   outer loop
     vertex 2.5922258964e+01 1.1382002084e+01 4.7961479828e-01
     vertex 2.3120873109e+01 5.4703318078e+00 1.4419910755e-01
     vertex 2.9032577126e+01 1.1382002084e+01 1.4419938320e-01
   endloop
 endfacet
 facet normal  1.0565478986e-01 -1.0565543899e-01 9.8877398509e-01
   outer loop
     vertex 2.3120873109e+01 5.4703318078e+00 1.4419910755e-01
     vertex 2.4470365417e+01 5.4703318078e+00 0.0000000000e+00
     vertex 2.9032577126e+01 1.1382002084e+01 1.4419938320e-01
   endloop
 endfacet
 facet normal  1.0565478986e-01 -1.0565543899e-01 9.8877398509e-01
   outer loop
     vertex 2.9032577126e+01 1.1382002084e+01 1.4419938320e-01
     vertex 2.4470365417e+01 5.4703318078e+00 0.0000000000e+00
     vertex 3.0382072013e+01 1.1382002084e+01 0.0000000000e+00
   endloop
 endfacet
 facet normal  1.0565478986e-01 -1.0565543899e-01 -9.8877398509e-01
   outer loop
     vertex 3.0382072013e+01 1.1382002084e+01 0.0000000000e+00
     vertex 3.7406817480e+01 1.9756194643e+01 -1.4419977367e-01
     vertex 3.8756316022e+01 1.9756194643e+01 0.0000000000e+00
   endloop
 endfacet
 facet normal  1.0565478986e-01 -1.0565543899e-01 -9.8877398509e-01
   outer loop
     vertex 3.0382072013e+01 1.1382002084e+01 0.0000000000e+00
     vertex 2.9032577126e+01 1.1382002084e+01 -1.4419938320e-01
     vertex 3.7406817480e+01 1.9756194643e+01 -1.4419977367e-01
   endloop
 endfacet
 facet normal  1.0660693017e-01 -1.0660758472e-01 -9.8856956524e-01
   outer loop
     vertex 2.9032577126e+01 1.1382002084e+01 -1.4419938320e-01
     vertex 3.4296490896e+01 1.9756194643e+01 -4.7961609702e-01
     vertex 3.7406817480e+01 1.9756194643e+01 -1.4419977367e-01
   endloop
 endfacet
 facet normal  1.0660693017e-01 -1.0660758472e-01 -9.8856956524e-01
   outer loop
     vertex 2.9032577126e+01 1.1382002084e+01 -1.4419938320e-01
     vertex 2.5922258964e+01 1.1382002084e+01 -4.7961479828e-01
     vertex 3.4296490896e+01 1.9756194643e+01 -4.7961609702e-01
   endloop
 endfacet
 facet normal  9.6488653278e-02 -9.6489260579e-02 -9.9064613378e-01
   outer loop
     vertex 2.5922258964e+01 1.1382002084e+01 -4.7961479828e-01
     vertex 2.9151342435e+01 1.9756194643e+01 -9.8075210207e-01
     vertex 3.4296490896e+01 1.9756194643e+01 -4.7961609702e-01
   endloop
 endfacet
 facet normal  9.6488653278e-02 -9.6489260579e-02 -9.9064613378e-01
   outer loop
     vertex 2.5922258964e+01 1.1382002084e+01 -4.7961479828e-01
     vertex 2.0777124436e+01 1.1382002084e+01 -9.8074944632e-01
     vertex 2.9151342435e+01 1.9756194643e+01 -9.8075210207e-01
   endloop
 endfacet
 facet normal  2.0655330832e-02 -2.0655710583e-02 -9.9957325841e-01
   outer loop
     vertex 2.0777124436e+01 1.1382002084e+01 -9.8074944632e-01
     vertex 1.5612298503e+01 1.1382002084e+01 -1.0874761794e+00
     vertex 2.9151342435e+01 1.9756194643e+01 -9.8075210207e-01
   endloop
 endfacet
 facet normal  2.0655330832e-02 -2.0655710583e-02 -9.9957325841e-01
   outer loop
     vertex 2.9151342435e+01 1.9756194643e+01 -9.8075210207e-01
     vertex 1.5612298503e+01 1.1382002084e+01 -1.0874761794e+00
     vertex 2.3986502517e+01 1.9756194643e+01 -1.0874791241e+00
   endloop
 endfacet
 facet normal  -1.3613229957e-01 1.3613214072e-01 -9.8129304353e-01
   outer loop
     vertex 1.5612298503e+01 1.1382002084e+01 -1.0874761794e+00
     vertex 1.2517387298e+01 1.1382002084e+01 -6.5812698336e-01
     vertex 2.3986502517e+01 1.9756194643e+01 -1.0874791241e+00
   endloop
 endfacet
 facet normal  -1.3613229957e-01 1.3613214072e-01 -9.8129304353e-01
   outer loop
     vertex 2.3986502517e+01 1.9756194643e+01 -1.0874791241e+00
     vertex 1.2517387298e+01 1.1382002084e+01 -6.5812698336e-01
     vertex 2.0891582932e+01 1.9756194643e+01 -6.5812876548e-01
   endloop
 endfacet
 facet normal  -4.4828024732e-01 4.4828024732e-01 -7.7336255387e-01
   outer loop
     vertex 1.2517387298e+01 1.1382002084e+01 -6.5812698336e-01
     vertex 1.1382002084e+01 1.1382002084e+01 0.0000000000e+00
     vertex 2.0891582932e+01 1.9756194643e+01 -6.5812876548e-01
   endloop
 endfacet
 facet normal  -4.4828024732e-01 4.4828024732e-01 -7.7336255387e-01
   outer loop
     vertex 2.0891582932e+01 1.9756194643e+01 -6.5812876548e-01
     vertex 1.1382002084e+01 1.1382002084e+01 0.0000000000e+00
     vertex 1.9756194643e+01 1.9756194643e+01 0.0000000000e+00
   endloop
 endfacet
 facet normal  -4.4828024732e-01 4.4828024732e-01 7.7336255387e-01
   outer loop
     vertex 1.1382002084e+01 1.1382002084e+01 0.0000000000e+00
     vertex 2.0891582932e+01 1.9756194643e+01 6.5812876548e-01
     vertex 1.9756194643e+01 1.9756194643e+01 0.0000000000e+00
   endloop
 endfacet
 facet normal  -4.4828024732e-01 4.4828024732e-01 7.7336255387e-01
   outer loop
     vertex 1.1382002084e+01 1.1382002084e+01 0.0000000000e+00
     vertex 1.2517387298e+01 1.1382002084e+01 6.5812698336e-01
     vertex 2.0891582932e+01 1.9756194643e+01 6.5812876548e-01
   endloop
 endfacet
 facet normal  -1.3613229957e-01 1.3613214072e-01 9.8129304353e-01
   outer loop
     vertex 1.2517387298e+01 1.1382002084e+01 6.5812698336e-01
     vertex 2.3986502517e+01 1.9756194643e+01 1.0874791241e+00
     vertex 2.0891582932e+01 1.9756194643e+01 6.5812876548e-01
   endloop
 endfacet
 facet normal  -1.3613229957e-01 1.3613214072e-01 9.8129304353e-01
   outer loop
     vertex 1.2517387298e+01 1.1382002084e+01 6.5812698336e-01
     vertex 1.5612298503e+01 1.1382002084e+01 1.0874761794e+00
     vertex 2.3986502517e+01 1.9756194643e+01 1.0874791241e+00
   endloop
 endfacet
 facet normal  2.0655330832e-02 -2.0655710583e-02 9.9957325841e-01
   outer loop
     vertex 1.5612298503e+01 1.1382002084e+01 1.0874761794e+00
     vertex 2.9151342435e+01 1.9756194643e+01 9.8075210207e-01
     vertex 2.3986502517e+01 1.9756194643e+01 1.0874791241e+00
   endloop
 endfacet
 facet normal  2.0655330832e-02 -2.0655710583e-02 9.9957325841e-01
   outer loop
     vertex 1.5612298503e+01 1.1382002084e+01 1.0874761794e+00
     vertex 2.0777124436e+01 1.1382002084e+01 9.8074944632e-01
     vertex 2.9151342435e+01 1.9756194643e+01 9.8075210207e-01
   endloop
 endfacet
 facet normal  9.6488653278e-02 -9.6489260579e-02 9.9064613378e-01
   outer loop
     vertex 2.0777124436e+01 1.1382002084e+01 9.8074944632e-01
     vertex 2.5922258964e+01 1.1382002084e+01 4.7961479828e-01
     vertex 2.9151342435e+01 1.9756194643e+01 9.8075210207e-01
   endloop
 endfacet
 facet normal  9.6488653278e-02 -9.6489260579e-02 9.9064613378e-01
   outer loop
     vertex 2.9151342435e+01 1.9756194643e+01 9.8075210207e-01
     vertex 2.5922258964e+01 1.1382002084e+01 4.7961479828e-01
     vertex 3.4296490896e+01 1.9756194643e+01 4.7961609702e-01
   endloop
 endfacet
 facet normal  1.0660693017e-01 -1.0660758472e-01 9.8856956524e-01
   outer loop
     vertex 2.5922258964e+01 1.1382002084e+01 4.7961479828e-01
     vertex 2.9032577126e+01 1.1382002084e+01 1.4419938320e-01
     vertex 3.4296490896e+01 1.9756194643e+01 4.7961609702e-01
   endloop
 endfacet
 facet normal  1.0660693017e-01 -1.0660758472e-01 9.8856956524e-01
   outer loop
     vertex 3.4296490896e+01 1.9756194643e+01 4.7961609702e-01
     vertex 2.9032577126e+01 1.1382002084e+01 1.4419938320e-01
     vertex 3.7406817480e+01 1.9756194643e+01 1.4419977367e-01
   endloop
 endfacet
 facet normal  1.0565478986e-01 -1.0565543899e-01 9.8877398509e-01
   outer loop
     vertex 2.9032577126e+01 1.1382002084e+01 1.4419938320e-01
     vertex 3.0382072013e+01 1.1382002084e+01 0.0000000000e+00
     vertex 3.7406817480e+01 1.9756194643e+01 1.4419977367e-01
   endloop
 endfacet
 facet normal  1.0565478986e-01 -1.0565543899e-01 9.8877398509e-01
   outer loop
     vertex 3.7406817480e+01 1.9756194643e+01 1.4419977367e-01
     vertex 3.0382072013e+01 1.1382002084e+01 0.0000000000e+00
     vertex 3.8756316022e+01 1.9756194643e+01 0.0000000000e+00
   endloop
 endfacet
 facet normal  1.0565478986e-01 -1.0565543899e-01 -9.8877398509e-01
   outer loop
     vertex 3.8756316022e+01 1.9756194643e+01 0.0000000000e+00
     vertex 4.6894482345e+01 2.9243805357e+01 -1.4420021606e-01
     vertex 4.8243985027e+01 2.9243805357e+01 0.0000000000e+00
   endloop
 endfacet
 facet normal  1.0565478986e-01 -1.0565543899e-01 -9.8877398509e-01
   outer loop
     vertex 3.8756316022e+01 1.9756194643e+01 0.0000000000e+00
     vertex 3.7406817480e+01 1.9756194643e+01 -1.4419977367e-01
     vertex 4.6894482345e+01 2.9243805357e+01 -1.4420021606e-01
   endloop
 endfacet
 facet normal  1.0660693017e-01 -1.0660758472e-01 -9.8856956524e-01
   outer loop
     vertex 3.7406817480e+01 1.9756194643e+01 -1.4419977367e-01
     vertex 4.3784146218e+01 2.9243805357e+01 -4.7961756843e-01
     vertex 4.6894482345e+01 2.9243805357e+01 -1.4420021606e-01
   endloop
 endfacet
 facet normal  1.0660693017e-01 -1.0660758472e-01 -9.8856956524e-01
   outer loop
     vertex 3.7406817480e+01 1.9756194643e+01 -1.4419977367e-01
     vertex 3.4296490896e+01 1.9756194643e+01 -4.7961609702e-01
     vertex 4.3784146218e+01 2.9243805357e+01 -4.7961756843e-01
   endloop
 endfacet
 facet normal  9.6488653278e-02 -9.6489260579e-02 -9.9064613378e-01
   outer loop
     vertex 3.4296490896e+01 1.9756194643e+01 -4.7961609702e-01
     vertex 3.8638981973e+01 2.9243805357e+01 -9.8075511092e-01
     vertex 4.3784146218e+01 2.9243805357e+01 -4.7961756843e-01
   endloop
 endfacet
 facet normal  9.6488653278e-02 -9.6489260579e-02 -9.9064613378e-01
   outer loop
     vertex 3.4296490896e+01 1.9756194643e+01 -4.7961609702e-01
     vertex 2.9151342435e+01 1.9756194643e+01 -9.8075210207e-01
     vertex 3.8638981973e+01 2.9243805357e+01 -9.8075511092e-01
   endloop
 endfacet
 facet normal  2.0655330832e-02 -2.0655710583e-02 -9.9957325841e-01
   outer loop
     vertex 2.9151342435e+01 1.9756194643e+01 -9.8075210207e-01
     vertex 2.3986502517e+01 1.9756194643e+01 -1.0874791241e+00
     vertex 3.8638981973e+01 2.9243805357e+01 -9.8075511092e-01
   endloop
 endfacet
 facet normal  2.0655330832e-02 -2.0655710583e-02 -9.9957325841e-01
   outer loop
     vertex 3.8638981973e+01 2.9243805357e+01 -9.8075511092e-01
     vertex 2.3986502517e+01 1.9756194643e+01 -1.0874791241e+00
     vertex 3.3474126209e+01 2.9243805357e+01 -1.0874824604e+00
   endloop
 endfacet
 facet normal  -1.3613229957e-01 1.3613214072e-01 -9.8129304353e-01
   outer loop
     vertex 2.3986502517e+01 1.9756194643e+01 -1.0874791241e+00
     vertex 2.0891582932e+01 1.9756194643e+01 -6.5812876548e-01
     vertex 3.3474126209e+01 2.9243805357e+01 -1.0874824604e+00
   endloop
 endfacet
 facet normal  -1.3613229957e-01 1.3613214072e-01 -9.8129304353e-01
   outer loop
     vertex 3.3474126209e+01 2.9243805357e+01 -1.0874824604e+00
     vertex 2.0891582932e+01 1.9756194643e+01 -6.5812876548e-01
     vertex 3.0379197129e+01 2.9243805357e+01 -6.5813078456e-01
   endloop
 endfacet
 facet normal  -4.4828024732e-01 4.4828024732e-01 -7.7336255387e-01
   outer loop
     vertex 2.0891582932e+01 1.9756194643e+01 -6.5812876548e-01
     vertex 1.9756194643e+01 1.9756194643e+01 0.0000000000e+00
     vertex 3.0379197129e+01 2.9243805357e+01 -6.5813078456e-01
   endloop
 endfacet
 facet normal  -4.4828024732e-01 4.4828024732e-01 -7.7336255387e-01
   outer loop
     vertex 3.0379197129e+01 2.9243805357e+01 -6.5813078456e-01
     vertex 1.9756194643e+01 1.9756194643e+01 0.0000000000e+00
     vertex 2.9243805357e+01 2.9243805357e+01 0.0000000000e+00
   endloop
 endfacet
 facet normal  -4.4828024732e-01 4.4828024732e-01 7.7336255387e-01
   outer loop
     vertex 1.9756194643e+01 1.9756194643e+01 0.0000000000e+00
     vertex 3.0379197129e+01 2.9243805357e+01 6.5813078456e-01
     vertex 2.9243805357e+01 2.9243805357e+01 0.0000000000e+00
   endloop
 endfacet
 facet normal  -4.4828024732e-01 4.4828024732e-01 7.7336255387e-01
   outer loop
     vertex 1.9756194643e+01 1.9756194643e+01 0.0000000000e+00
     vertex 2.0891582932e+01 1.9756194643e+01 6.5812876548e-01
     vertex 3.0379197129e+01 2.9243805357e+01 6.5813078456e-01
   endloop
 endfacet
 facet normal  -1.3613229957e-01 1.3613214072e-01 9.8129304353e-01
   outer loop
     vertex 2.0891582932e+01 1.9756194643e+01 6.5812876548e-01
     vertex 3.3474126209e+01 2.9243805357e+01 1.0874824604e+00
     vertex 3.0379197129e+01 2.9243805357e+01 6.5813078456e-01
   endloop
 endfacet
 facet normal  -1.3613229957e-01 1.3613214072e-01 9.8129304353e-01
   outer loop
     vertex 2.0891582932e+01 1.9756194643e+01 6.5812876548e-01
     vertex 2.3986502517e+01 1.9756194643e+01 1.0874791241e+00
     vertex 3.3474126209e+01 2.9243805357e+01 1.0874824604e+00
   endloop
 endfacet
 facet normal  2.0655330832e-02 -2.0655710583e-02 9.9957325841e-01
   outer loop
     vertex 2.3986502517e+01 1.9756194643e+01 1.0874791241e+00
     vertex 3.8638981973e+01 2.9243805357e+01 9.8075511092e-01
     vertex 3.3474126209e+01 2.9243805357e+01 1.0874824604e+00
   endloop
 endfacet
 facet normal  2.0655330832e-02 -2.0655710583e-02 9.9957325841e-01
   outer loop
     vertex 2.3986502517e+01 1.9756194643e+01 1.0874791241e+00
     vertex 2.9151342435e+01 1.9756194643e+01 9.8075210207e-01
     vertex 3.8638981973e+01 2.9243805357e+01 9.8075511092e-01
   endloop
 endfacet
 facet normal  9.6488653278e-02 -9.6489260579e-02 9.9064613378e-01
   outer loop
     vertex 2.9151342435e+01 1.9756194643e+01 9.8075210207e-01
     vertex 3.4296490896e+01 1.9756194643e+01 4.7961609702e-01
     vertex 3.8638981973e+01 2.9243805357e+01 9.8075511092e-01
   endloop
 endfacet
 facet normal  9.6488653278e-02 -9.6489260579e-02 9.9064613378e-01
   outer loop
     vertex 3.8638981973e+01 2.9243805357e+01 9.8075511092e-01
     vertex 3.4296490896e+01 1.9756194643e+01 4.7961609702e-01
     vertex 4.3784146218e+01 2.9243805357e+01 4.7961756843e-01
   endloop
 endfacet
 facet normal  1.0660693017e-01 -1.0660758472e-01 9.8856956524e-01
   outer loop
     vertex 3.4296490896e+01 1.9756194643e+01 4.7961609702e-01
     vertex 3.7406817480e+01 1.9756194643e+01 1.4419977367e-01
     vertex 4.3784146218e+01 2.9243805357e+01 4.7961756843e-01
   endloop
 endfacet
 facet normal  1.0660693017e-01 -1.0660758472e-01 9.8856956524e-01
   outer loop
     vertex 4.3784146218e+01 2.9243805357e+01 4.7961756843e-01
     vertex 3.7406817480e+01 1.9756194643e+01 1.4419977367e-01
     vertex 4.6894482345e+01 2.9243805357e+01 1.4420021606e-01
   endloop
 endfacet
 facet normal  1.0565478986e-01 -1.0565543899e-01 9.8877398509e-01
   outer loop
     vertex 3.7406817480e+01 1.9756194643e+01 1.4419977367e-01
     vertex 3.8756316022e+01 1.9756194643e+01 0.0000000000e+00
     vertex 4.6894482345e+01 2.9243805357e+01 1.4420021606e-01
   endloop
 endfacet
 facet normal  1.0565478986e-01 -1.0565543899e-01 9.8877398509e-01
   outer loop
     vertex 4.6894482345e+01 2.9243805357e+01 1.4420021606e-01
     vertex 3.8756316022e+01 1.9756194643e+01 0.0000000000e+00
     vertex 4.8243985027e+01 2.9243805357e+01 0.0000000000e+00
   endloop
 endfacet
 facet normal  1.0565478986e-01 -1.0565543899e-01 -9.8877398509e-01
   outer loop
     vertex 4.8243985027e+01 2.9243805357e+01 0.0000000000e+00
     vertex 5.5268722699e+01 3.7617997916e+01 -1.4420060653e-01
     vertex 5.6618229035e+01 3.7617997916e+01 0.0000000000e+00
   endloop
 endfacet
 facet normal  1.0565478986e-01 -1.0565543899e-01 -9.8877398509e-01
   outer loop
     vertex 4.8243985027e+01 2.9243805357e+01 0.0000000000e+00
     vertex 4.6894482345e+01 2.9243805357e+01 -1.4420021606e-01
     vertex 5.5268722699e+01 3.7617997916e+01 -1.4420060653e-01
   endloop
 endfacet
 facet normal  1.0660693017e-01 -1.0660758472e-01 -9.8856956524e-01
   outer loop
     vertex 4.6894482345e+01 2.9243805357e+01 -1.4420021606e-01
     vertex 5.2158378150e+01 3.7617997916e+01 -4.7961886717e-01
     vertex 5.5268722699e+01 3.7617997916e+01 -1.4420060653e-01
   endloop
 endfacet
 facet normal  1.0660693017e-01 -1.0660758472e-01 -9.8856956524e-01
   outer loop
     vertex 4.6894482345e+01 2.9243805357e+01 -1.4420021606e-01
     vertex 4.3784146218e+01 2.9243805357e+01 -4.7961756843e-01
     vertex 5.2158378150e+01 3.7617997916e+01 -4.7961886717e-01
   endloop
 endfacet
 facet normal  9.6488653278e-02 -9.6489260579e-02 -9.9064613378e-01
   outer loop
     vertex 4.3784146218e+01 2.9243805357e+01 -4.7961756843e-01
     vertex 4.7013199972e+01 3.7617997916e+01 -9.8075776666e-01
     vertex 5.2158378150e+01 3.7617997916e+01 -4.7961886717e-01
   endloop
 endfacet
 facet normal  9.6488653278e-02 -9.6489260579e-02 -9.9064613378e-01
   outer loop
     vertex 4.3784146218e+01 2.9243805357e+01 -4.7961756843e-01
     vertex 3.8638981973e+01 2.9243805357e+01 -9.8075511092e-01
     vertex 4.7013199972e+01 3.7617997916e+01 -9.8075776666e-01
   endloop
 endfacet
 facet normal  2.0655330832e-02 -2.0655710583e-02 -9.9957325841e-01
   outer loop
     vertex 3.8638981973e+01 2.9243805357e+01 -9.8075511092e-01
     vertex 3.3474126209e+01 2.9243805357e+01 -1.0874824604e+00
     vertex 4.7013199972e+01 3.7617997916e+01 -9.8075776666e-01
   endloop
 endfacet
 facet normal  2.0655330832e-02 -2.0655710583e-02 -9.9957325841e-01
   outer loop
     vertex 4.7013199972e+01 3.7617997916e+01 -9.8075776666e-01
     vertex 3.3474126209e+01 2.9243805357e+01 -1.0874824604e+00
     vertex 4.1848330224e+01 3.7617997916e+01 -1.0874854052e+00
   endloop
 endfacet
 facet normal  -1.3613229957e-01 1.3613214072e-01 -9.8129304353e-01
   outer loop
     vertex 3.3474126209e+01 2.9243805357e+01 -1.0874824604e+00
     vertex 3.0379197129e+01 2.9243805357e+01 -6.5813078456e-01
     vertex 4.1848330224e+01 3.7617997916e+01 -1.0874854052e+00
   endloop
 endfacet
 facet normal  -1.3613229957e-01 1.3613214072e-01 -9.8129304353e-01
   outer loop
     vertex 4.1848330224e+01 3.7617997916e+01 -1.0874854052e+00
     vertex 3.0379197129e+01 2.9243805357e+01 -6.5813078456e-01
     vertex 3.8753392762e+01 3.7617997916e+01 -6.5813256668e-01
   endloop
 endfacet
 facet normal  -4.4828024732e-01 4.4828024732e-01 -7.7336255387e-01
   outer loop
     vertex 3.0379197129e+01 2.9243805357e+01 -6.5813078456e-01
     vertex 2.9243805357e+01 2.9243805357e+01 0.0000000000e+00
     vertex 3.8753392762e+01 3.7617997916e+01 -6.5813256668e-01
   endloop
 endfacet
 facet normal  -4.4828024732e-01 4.4828024732e-01 -7.7336255387e-01
   outer loop
     vertex 3.8753392762e+01 3.7617997916e+01 -6.5813256668e-01
     vertex 2.9243805357e+01 2.9243805357e+01 0.0000000000e+00
     vertex 3.7617997916e+01 3.7617997916e+01 0.0000000000e+00
   endloop
 endfacet
 facet normal  -4.4828024732e-01 4.4828024732e-01 7.7336255387e-01
   outer loop
     vertex 2.9243805357e+01 2.9243805357e+01 0.0000000000e+00
     vertex 3.8753392762e+01 3.7617997916e+01 6.5813256668e-01
     vertex 3.7617997916e+01 3.7617997916e+01 0.0000000000e+00
   endloop
 endfacet
 facet normal  -4.4828024732e-01 4.4828024732e-01 7.7336255387e-01
   outer loop
     vertex 2.9243805357e+01 2.9243805357e+01 0.0000000000e+00
     vertex 3.0379197129e+01 2.9243805357e+01 6.5813078456e-01
     vertex 3.8753392762e+01 3.7617997916e+01 6.5813256668e-01
   endloop
 endfacet
 facet normal  -1.3613229957e-01 1.3613214072e-01 9.8129304353e-01
   outer loop
     vertex 3.0379197129e+01 2.9243805357e+01 6.5813078456e-01
     vertex 4.1848330224e+01 3.7617997916e+01 1.0874854052e+00
     vertex 3.8753392762e+01 3.7617997916e+01 6.5813256668e-01
   endloop
 endfacet
 facet normal  -1.3613229957e-01 1.3613214072e-01 9.8129304353e-01
   outer loop
     vertex 3.0379197129e+01 2.9243805357e+01 6.5813078456e-01
     vertex 3.3474126209e+01 2.9243805357e+01 1.0874824604e+00
     vertex 4.1848330224e+01 3.7617997916e+01 1.0874854052e+00
   endloop
 endfacet
 facet normal  2.0655330832e-02 -2.0655710583e-02 9.9957325841e-01
   outer loop
     vertex 3.3474126209e+01 2.9243805357e+01 1.0874824604e+00
     vertex 4.7013199972e+01 3.7617997916e+01 9.8075776666e-01
     vertex 4.1848330224e+01 3.7617997916e+01 1.0874854052e+00
   endloop
 endfacet
 facet normal  2.0655330832e-02 -2.0655710583e-02 9.9957325841e-01
   outer loop
     vertex 3.3474126209e+01 2.9243805357e+01 1.0874824604e+00
     vertex 3.8638981973e+01 2.9243805357e+01 9.8075511092e-01
     vertex 4.7013199972e+01 3.7617997916e+01 9.8075776666e-01
   endloop
 endfacet
 facet normal  9.6488653278e-02 -9.6489260579e-02 9.9064613378e-01
   outer loop
     vertex 3.8638981973e+01 2.9243805357e+01 9.8075511092e-01
     vertex 4.3784146218e+01 2.9243805357e+01 4.7961756843e-01
     vertex 4.7013199972e+01 3.7617997916e+01 9.8075776666e-01
   endloop
 endfacet
 facet normal  9.6488653278e-02 -9.6489260579e-02 9.9064613378e-01
   outer loop
     vertex 4.7013199972e+01 3.7617997916e+01 9.8075776666e-01
     vertex 4.3784146218e+01 2.9243805357e+01 4.7961756843e-01
     vertex 5.2158378150e+01 3.7617997916e+01 4.7961886717e-01
   endloop
 endfacet
 facet normal  1.0660693017e-01 -1.0660758472e-01 9.8856956524e-01
   outer loop
     vertex 4.3784146218e+01 2.9243805357e+01 4.7961756843e-01
     vertex 4.6894482345e+01 2.9243805357e+01 1.4420021606e-01
     vertex 5.2158378150e+01 3.7617997916e+01 4.7961886717e-01
   endloop
 endfacet
 facet normal  1.0660693017e-01 -1.0660758472e-01 9.8856956524e-01
   outer loop
     vertex 5.2158378150e+01 3.7617997916e+01 4.7961886717e-01
     vertex 4.6894482345e+01 2.9243805357e+01 1.4420021606e-01
     vertex 5.5268722699e+01 3.7617997916e+01 1.4420060653e-01
   endloop
 endfacet
 facet normal  1.0565478986e-01 -1.0565543899e-01 9.8877398509e-01
   outer loop
     vertex 4.6894482345e+01 2.9243805357e+01 1.4420021606e-01
     vertex 4.8243985027e+01 2.9243805357e+01 0.0000000000e+00
     vertex 5.5268722699e+01 3.7617997916e+01 1.4420060653e-01
   endloop
 endfacet
 facet normal  1.0565478986e-01 -1.0565543899e-01 9.8877398509e-01
   outer loop
     vertex 5.5268722699e+01 3.7617997916e+01 1.4420060653e-01
     vertex 4.8243985027e+01 2.9243805357e+01 0.0000000000e+00
     vertex 5.6618229035e+01 3.7617997916e+01 0.0000000000e+00
   endloop
 endfacet
 facet normal  1.0565478986e-01 -1.0565543899e-01 -9.8877398509e-01
   outer loop
     vertex 5.6618229035e+01 3.7617997916e+01 0.0000000000e+00
     vertex 6.1180426716e+01 4.3529668192e+01 -1.4420088219e-01
     vertex 6.2529935632e+01 4.3529668192e+01 0.0000000000e+00
   endloop
 endfacet
 facet normal  1.0565478986e-01 -1.0565543899e-01 -9.8877398509e-01
   outer loop
     vertex 5.6618229035e+01 3.7617997916e+01 0.0000000000e+00
     vertex 5.5268722699e+01 3.7617997916e+01 -1.4420060653e-01
     vertex 6.1180426716e+01 4.3529668192e+01 -1.4420088219e-01
   endloop
 endfacet
 facet normal  1.0660693017e-01 -1.0660758472e-01 -9.8856956524e-01
   outer loop
     vertex 5.5268722699e+01 3.7617997916e+01 -1.4420060653e-01
     vertex 5.8070076222e+01 4.3529668192e+01 -4.7961978400e-01
     vertex 6.1180426716e+01 4.3529668192e+01 -1.4420088219e-01
   endloop
 endfacet
 facet normal  1.0660693017e-01 -1.0660758472e-01 -9.8856956524e-01
   outer loop
     vertex 5.5268722699e+01 3.7617997916e+01 -1.4420060653e-01
     vertex 5.2158378150e+01 3.7617997916e+01 -4.7961886717e-01
     vertex 5.8070076222e+01 4.3529668192e+01 -4.7961978400e-01
   endloop
 endfacet
 facet normal  9.6488653278e-02 -9.6489260579e-02 -9.9064613378e-01
   outer loop
     vertex 5.2158378150e+01 3.7617997916e+01 -4.7961886717e-01
     vertex 5.2924888208e+01 4.3529668192e+01 -9.8075964146e-01
     vertex 5.8070076222e+01 4.3529668192e+01 -4.7961978400e-01
   endloop
 endfacet
 facet normal  9.6488653278e-02 -9.6489260579e-02 -9.9064613378e-01
   outer loop
     vertex 5.2158378150e+01 3.7617997916e+01 -4.7961886717e-01
     vertex 4.7013199972e+01 3.7617997916e+01 -9.8075776666e-01
     vertex 5.2924888208e+01 4.3529668192e+01 -9.8075964146e-01
   endloop
 endfacet
 facet normal  2.0655330832e-02 -2.0655710583e-02 -9.9957325841e-01
   outer loop
     vertex 4.7013199972e+01 3.7617997916e+01 -9.8075776666e-01
     vertex 4.1848330224e+01 3.7617997916e+01 -1.0874854052e+00
     vertex 5.2924888208e+01 4.3529668192e+01 -9.8075964146e-01
   endloop
 endfacet
 facet normal  2.0655330832e-02 -2.0655710583e-02 -9.9957325841e-01
   outer loop
     vertex 5.2924888208e+01 4.3529668192e+01 -9.8075964146e-01
     vertex 4.1848330224e+01 3.7617997916e+01 -1.0874854052e+00
     vertex 4.7760008586e+01 4.3529668192e+01 -1.0874874840e+00
   endloop
 endfacet
 facet normal  -1.3613229957e-01 1.3613214072e-01 -9.8129304353e-01
   outer loop
     vertex 4.1848330224e+01 3.7617997916e+01 -1.0874854052e+00
     vertex 3.8753392762e+01 3.7617997916e+01 -6.5813256668e-01
     vertex 4.7760008586e+01 4.3529668192e+01 -1.0874874840e+00
   endloop
 endfacet
 facet normal  -1.3613229957e-01 1.3613214072e-01 -9.8129304353e-01
   outer loop
     vertex 4.7760008586e+01 4.3529668192e+01 -1.0874874840e+00
     vertex 3.8753392762e+01 3.7617997916e+01 -6.5813256668e-01
     vertex 4.4665065209e+01 4.3529668192e+01 -6.5813382475e-01
   endloop
 endfacet
 facet normal  -4.4828024732e-01 4.4828024732e-01 -7.7336255387e-01
   outer loop
     vertex 3.8753392762e+01 3.7617997916e+01 -6.5813256668e-01
     vertex 3.7617997916e+01 3.7617997916e+01 0.0000000000e+00
     vertex 4.4665065209e+01 4.3529668192e+01 -6.5813382475e-01
   endloop
 endfacet
 facet normal  -4.4828024732e-01 4.4828024732e-01 -7.7336255387e-01
   outer loop
     vertex 4.4665065209e+01 4.3529668192e+01 -6.5813382475e-01
     vertex 3.7617997916e+01 3.7617997916e+01 0.0000000000e+00
     vertex 4.3529668192e+01 4.3529668192e+01 0.0000000000e+00
   endloop
 endfacet
 facet normal  -4.4828024732e-01 4.4828024732e-01 7.7336255387e-01
   outer loop
     vertex 3.7617997916e+01 3.7617997916e+01 0.0000000000e+00
     vertex 4.4665065209e+01 4.3529668192e+01 6.5813382475e-01
     vertex 4.3529668192e+01 4.3529668192e+01 0.0000000000e+00
   endloop
 endfacet
 facet normal  -4.4828024732e-01 4.4828024732e-01 7.7336255387e-01
   outer loop
     vertex 3.7617997916e+01 3.7617997916e+01 0.0000000000e+00
     vertex 3.8753392762e+01 3.7617997916e+01 6.5813256668e-01
     vertex 4.4665065209e+01 4.3529668192e+01 6.5813382475e-01
   endloop
 endfacet
 facet normal  -1.3613229957e-01 1.3613214072e-01 9.8129304353e-01
   outer loop
     vertex 3.8753392762e+01 3.7617997916e+01 6.5813256668e-01
     vertex 4.7760008586e+01 4.3529668192e+01 1.0874874840e+00
     vertex 4.4665065209e+01 4.3529668192e+01 6.5813382475e-01
   endloop
 endfacet
 facet normal  -1.3613229957e-01 1.3613214072e-01 9.8129304353e-01
   outer loop
     vertex 3.8753392762e+01 3.7617997916e+01 6.5813256668e-01
     vertex 4.1848330224e+01 3.7617997916e+01 1.0874854052e+00
     vertex 4.7760008586e+01 4.3529668192e+01 1.0874874840e+00
   endloop
 endfacet
 facet normal  2.0655330832e-02 -2.0655710583e-02 9.9957325841e-01
   outer loop
     vertex 4.1848330224e+01 3.7617997916e+01 1.0874854052e+00
     vertex 5.2924888208e+01 4.3529668192e+01 9.8075964146e-01
     vertex 4.7760008586e+01 4.3529668192e+01 1.0874874840e+00
   endloop
 endfacet
 facet normal  2.0655330832e-02 -2.0655710583e-02 9.9957325841e-01
   outer loop
     vertex 4.1848330224e+01 3.7617997916e+01 1.0874854052e+00
     vertex 4.7013199972e+01 3.7617997916e+01 9.8075776666e-01
     vertex 5.2924888208e+01 4.3529668192e+01 9.8075964146e-01
   endloop
 endfacet
 facet normal  9.6488653278e-02 -9.6489260579e-02 9.9064613378e-01
   outer loop
     vertex 4.7013199972e+01 3.7617997916e+01 9.8075776666e-01
     vertex 5.2158378150e+01 3.7617997916e+01 4.7961886717e-01
     vertex 5.2924888208e+01 4.3529668192e+01 9.8075964146e-01
   endloop
 endfacet
 facet normal  9.6488653278e-02 -9.6489260579e-02 9.9064613378e-01
   outer loop
     vertex 5.2924888208e+01 4.3529668192e+01 9.8075964146e-01
     vertex 5.2158378150e+01 3.7617997916e+01 4.7961886717e-01
     vertex 5.8070076222e+01 4.3529668192e+01 4.7961978400e-01
   endloop
 endfacet
 facet normal  1.0660693017e-01 -1.0660758472e-01 9.8856956524e-01
   outer loop
     vertex 5.2158378150e+01 3.7617997916e+01 4.7961886717e-01
     vertex 5.5268722699e+01 3.7617997916e+01 1.4420060653e-01
     vertex 5.8070076222e+01 4.3529668192e+01 4.7961978400e-01
   endloop
 endfacet
 facet normal  1.0660693017e-01 -1.0660758472e-01 9.8856956524e-01
   outer loop
     vertex 5.8070076222e+01 4.3529668192e+01 4.7961978400e-01
     vertex 5.5268722699e+01 3.7617997916e+01 1.4420060653e-01
     vertex 6.1180426716e+01 4.3529668192e+01 1.4420088219e-01
   endloop
 endfacet
 facet normal  1.0565478986e-01 -1.0565543899e-01 9.8877398509e-01
   outer loop
     vertex 5.5268722699e+01 3.7617997916e+01 1.4420060653e-01
     vertex 5.6618229035e+01 3.7617997916e+01 0.0000000000e+00
     vertex 6.1180426716e+01 4.3529668192e+01 1.4420088219e-01
   endloop
 endfacet
 facet normal  1.0565478986e-01 -1.0565543899e-01 9.8877398509e-01
   outer loop
     vertex 6.1180426716e+01 4.3529668192e+01 1.4420088219e-01
     vertex 5.6618229035e+01 3.7617997916e+01 0.0000000000e+00
     vertex 6.2529935632e+01 4.3529668192e+01 0.0000000000e+00
   endloop
 endfacet
 facet normal  1.0565478986e-01 -1.0565543899e-01 -9.8877398509e-01
   outer loop
     vertex 6.2529935632e+01 4.3529668192e+01 0.0000000000e+00
     vertex 6.4727025082e+01 4.7076246317e+01 -1.4420104756e-01
     vertex 6.6076535546e+01 4.7076246317e+01 0.0000000000e+00
   endloop
 endfacet
 facet normal  1.0565478986e-01 -1.0565543899e-01 -9.8877398509e-01
   outer loop
     vertex 6.2529935632e+01 4.3529668192e+01 0.0000000000e+00
     vertex 6.1180426716e+01 4.3529668192e+01 -1.4420088219e-01
     vertex 6.4727025082e+01 4.7076246317e+01 -1.4420104756e-01
   endloop
 endfacet
 facet normal  1.0660693017e-01 -1.0660758472e-01 -9.8856956524e-01
   outer loop
     vertex 6.1180426716e+01 4.3529668192e+01 -1.4420088219e-01
     vertex 6.1616671021e+01 4.7076246317e+01 -4.7962033403e-01
     vertex 6.4727025082e+01 4.7076246317e+01 -1.4420104756e-01
   endloop
 endfacet
 facet normal  1.0660693017e-01 -1.0660758472e-01 -9.8856956524e-01
   outer loop
     vertex 6.1180426716e+01 4.3529668192e+01 -1.4420088219e-01
     vertex 5.8070076222e+01 4.3529668192e+01 -4.7961978400e-01
     vertex 6.1616671021e+01 4.7076246317e+01 -4.7962033403e-01
   endloop
 endfacet
 facet normal  9.6488653278e-02 -9.6489260579e-02 -9.9064613378e-01
   outer loop
     vertex 5.8070076222e+01 4.3529668192e+01 -4.7961978400e-01
     vertex 5.6471477107e+01 4.7076246317e+01 -9.8076076620e-01
     vertex 6.1616671021e+01 4.7076246317e+01 -4.7962033403e-01
   endloop
 endfacet
 facet normal  9.6488653278e-02 -9.6489260579e-02 -9.9064613378e-01
   outer loop
     vertex 5.8070076222e+01 4.3529668192e+01 -4.7961978400e-01
     vertex 5.2924888208e+01 4.3529668192e+01 -9.8075964146e-01
     vertex 5.6471477107e+01 4.7076246317e+01 -9.8076076620e-01
   endloop
 endfacet
 facet normal  2.0655330832e-02 -2.0655710583e-02 -9.9957325841e-01
   outer loop
     vertex 5.2924888208e+01 4.3529668192e+01 -9.8075964146e-01
     vertex 4.7760008586e+01 4.3529668192e+01 -1.0874874840e+00
     vertex 5.6471477107e+01 4.7076246317e+01 -9.8076076620e-01
   endloop
 endfacet
 facet normal  2.0655330832e-02 -2.0655710583e-02 -9.9957325841e-01
   outer loop
     vertex 5.6471477107e+01 4.7076246317e+01 -9.8076076620e-01
     vertex 4.7760008586e+01 4.3529668192e+01 -1.0874874840e+00
     vertex 5.1306591562e+01 4.7076246317e+01 -1.0874887311e+00
   endloop
 endfacet
 facet normal  -1.3613229957e-01 1.3613214072e-01 -9.8129304353e-01
   outer loop
     vertex 4.7760008586e+01 4.3529668192e+01 -1.0874874840e+00
     vertex 4.4665065209e+01 4.3529668192e+01 -6.5813382475e-01
     vertex 5.1306591562e+01 4.7076246317e+01 -1.0874887311e+00
   endloop
 endfacet
 facet normal  -1.3613229957e-01 1.3613214072e-01 -9.8129304353e-01
   outer loop
     vertex 5.1306591562e+01 4.7076246317e+01 -1.0874887311e+00
     vertex 4.4665065209e+01 4.3529668192e+01 -6.5813382475e-01
     vertex 4.8211644635e+01 4.7076246317e+01 -6.5813457950e-01
   endloop
 endfacet
 facet normal  -4.4828024732e-01 4.4828024732e-01 -7.7336255387e-01
   outer loop
     vertex 4.4665065209e+01 4.3529668192e+01 -6.5813382475e-01
     vertex 4.3529668192e+01 4.3529668192e+01 0.0000000000e+00
     vertex 4.8211644635e+01 4.7076246317e+01 -6.5813457950e-01
   endloop
 endfacet
 facet normal  -4.4828024732e-01 4.4828024732e-01 -7.7336255387e-01
   outer loop
     vertex 4.8211644635e+01 4.7076246317e+01 -6.5813457950e-01
     vertex 4.3529668192e+01 4.3529668192e+01 0.0000000000e+00
     vertex 4.7076246317e+01 4.7076246317e+01 0.0000000000e+00
   endloop
 endfacet
 facet normal  -4.4828024732e-01 4.4828024732e-01 7.7336255387e-01
   outer loop
     vertex 4.3529668192e+01 4.3529668192e+01 0.0000000000e+00
     vertex 4.8211644635e+01 4.7076246317e+01 6.5813457950e-01
     vertex 4.7076246317e+01 4.7076246317e+01 0.0000000000e+00
   endloop
 endfacet
 facet normal  -4.4828024732e-01 4.4828024732e-01 7.7336255387e-01
   outer loop
     vertex 4.3529668192e+01 4.3529668192e+01 0.0000000000e+00
     vertex 4.4665065209e+01 4.3529668192e+01 6.5813382475e-01
     vertex 4.8211644635e+01 4.7076246317e+01 6.5813457950e-01
   endloop
 endfacet
 facet normal  -1.3613229957e-01 1.3613214072e-01 9.8129304353e-01
   outer loop
     vertex 4.4665065209e+01 4.3529668192e+01 6.5813382475e-01
     vertex 5.1306591562e+01 4.7076246317e+01 1.0874887311e+00
     vertex 4.8211644635e+01 4.7076246317e+01 6.5813457950e-01
   endloop
 endfacet
 facet normal  -1.3613229957e-01 1.3613214072e-01 9.8129304353e-01
   outer loop
     vertex 4.4665065209e+01 4.3529668192e+01 6.5813382475e-01
     vertex 4.7760008586e+01 4.3529668192e+01 1.0874874840e+00
     vertex 5.1306591562e+01 4.7076246317e+01 1.0874887311e+00
   endloop
 endfacet
 facet normal  2.0655330832e-02 -2.0655710583e-02 9.9957325841e-01
   outer loop
     vertex 4.7760008586e+01 4.3529668192e+01 1.0874874840e+00
     vertex 5.6471477107e+01 4.7076246317e+01 9.8076076620e-01
     vertex 5.1306591562e+01 4.7076246317e+01 1.0874887311e+00
   endloop
 endfacet
 facet normal  2.0655330832e-02 -2.0655710583e-02 9.9957325841e-01
   outer loop
     vertex 4.7760008586e+01 4.3529668192e+01 1.0874874840e+00
     vertex 5.2924888208e+01 4.3529668192e+01 9.8075964146e-01
     vertex 5.6471477107e+01 4.7076246317e+01 9.8076076620e-01
   endloop
 endfacet
 facet normal  9.6488653278e-02 -9.6489260579e-02 9.9064613378e-01
   outer loop
     vertex 5.2924888208e+01 4.3529668192e+01 9.8075964146e-01
     vertex 5.8070076222e+01 4.3529668192e+01 4.7961978400e-01
     vertex 5.6471477107e+01 4.7076246317e+01 9.8076076620e-01
   endloop
 endfacet
 facet normal  9.6488653278e-02 -9.6489260579e-02 9.9064613378e-01
   outer loop
     vertex 5.6471477107e+01 4.7076246317e+01 9.8076076620e-01
     vertex 5.8070076222e+01 4.3529668192e+01 4.7961978400e-01
     vertex 6.1616671021e+01 4.7076246317e+01 4.7962033403e-01
   endloop
 endfacet
 facet normal  1.0660693017e-01 -1.0660758472e-01 9.8856956524e-01
   outer loop
     vertex 5.8070076222e+01 4.3529668192e+01 4.7961978400e-01
     vertex 6.1180426716e+01 4.3529668192e+01 1.4420088219e-01
     vertex 6.1616671021e+01 4.7076246317e+01 4.7962033403e-01
   endloop
 endfacet
 facet normal  1.0660693017e-01 -1.0660758472e-01 9.8856956524e-01
   outer loop
     vertex 6.1616671021e+01 4.7076246317e+01 4.7962033403e-01
     vertex 6.1180426716e+01 4.3529668192e+01 1.4420088219e-01
     vertex 6.4727025082e+01 4.7076246317e+01 1.4420104756e-01
   endloop
 endfacet
 facet normal  1.0565478986e-01 -1.0565543899e-01 9.8877398509e-01
   outer loop
     vertex 6.1180426716e+01 4.3529668192e+01 1.4420088219e-01
     vertex 6.2529935632e+01 4.3529668192e+01 0.0000000000e+00
     vertex 6.4727025082e+01 4.7076246317e+01 1.4420104756e-01
   endloop
 endfacet
 facet normal  1.0565478986e-01 -1.0565543899e-01 9.8877398509e-01
   outer loop
     vertex 6.4727025082e+01 4.7076246317e+01 1.4420104756e-01
     vertex 6.2529935632e+01 4.3529668192e+01 0.0000000000e+00
     vertex 6.6076535546e+01 4.7076246317e+01 0.0000000000e+00
   endloop
 endfacet
 facet normal  1.0565478986e-01 -1.0565543899e-01 -9.8877398509e-01
   outer loop
     vertex 6.6076535546e+01 4.7076246317e+01 0.0000000000e+00
     vertex 6.6650789746e+01 4.9000000000e+01 -1.4420113726e-01
     vertex 6.8000301049e+01 4.9000000000e+01 0.0000000000e+00
   endloop
 endfacet
 facet normal  1.0565478986e-01 -1.0565543899e-01 -9.8877398509e-01
   outer loop
     vertex 6.6076535546e+01 4.7076246317e+01 0.0000000000e+00
     vertex 6.4727025082e+01 4.7076246317e+01 -1.4420104756e-01
     vertex 6.6650789746e+01 4.9000000000e+01 -1.4420113726e-01
   endloop
 endfacet
 facet normal  1.0660693017e-01 -1.0660758472e-01 -9.8856956524e-01
   outer loop
     vertex 6.4727025082e+01 4.7076246317e+01 -1.4420104756e-01
     vertex 6.3540433750e+01 4.9000000000e+01 -4.7962063238e-01
     vertex 6.6650789746e+01 4.9000000000e+01 -1.4420113726e-01
   endloop
 endfacet
 facet normal  1.0660693017e-01 -1.0660758472e-01 -9.8856956524e-01
   outer loop
     vertex 6.4727025082e+01 4.7076246317e+01 -1.4420104756e-01
     vertex 6.1616671021e+01 4.7076246317e+01 -4.7962033403e-01
     vertex 6.3540433750e+01 4.9000000000e+01 -4.7962063238e-01
   endloop
 endfacet
 facet normal  9.6488653278e-02 -9.6489260579e-02 -9.9064613378e-01
   outer loop
     vertex 6.1616671021e+01 4.7076246317e+01 -4.7962033403e-01
     vertex 5.8395236635e+01 4.9000000000e+01 -9.8076137629e-01
     vertex 6.3540433750e+01 4.9000000000e+01 -4.7962063238e-01
   endloop
 endfacet
 facet normal  9.6488653278e-02 -9.6489260579e-02 -9.9064613378e-01
   outer loop
     vertex 6.1616671021e+01 4.7076246317e+01 -4.7962033403e-01
     vertex 5.6471477107e+01 4.7076246317e+01 -9.8076076620e-01
     vertex 5.8395236635e+01 4.9000000000e+01 -9.8076137629e-01
   endloop
 endfacet
 facet normal  2.0655330832e-02 -2.0655710583e-02 -9.9957325841e-01
   outer loop
     vertex 5.6471477107e+01 4.7076246317e+01 -9.8076076620e-01
     vertex 5.1306591562e+01 4.7076246317e+01 -1.0874887311e+00
     vertex 5.8395236635e+01 4.9000000000e+01 -9.8076137629e-01
   endloop
 endfacet
 facet normal  2.0655330832e-02 -2.0655710583e-02 -9.9957325841e-01
   outer loop
     vertex 5.8395236635e+01 4.9000000000e+01 -9.8076137629e-01
     vertex 5.1306591562e+01 4.7076246317e+01 -1.0874887311e+00
     vertex 5.3230347877e+01 4.9000000000e+01 -1.0874894076e+00
   endloop
 endfacet
 facet normal  -1.3613229957e-01 1.3613214072e-01 -9.8129304353e-01
   outer loop
     vertex 5.1306591562e+01 4.7076246317e+01 -1.0874887311e+00
     vertex 4.8211644635e+01 4.7076246317e+01 -6.5813457950e-01
     vertex 5.3230347877e+01 4.9000000000e+01 -1.0874894076e+00
   endloop
 endfacet
 facet normal  -1.3613229957e-01 1.3613214072e-01 -9.8129304353e-01
   outer loop
     vertex 5.3230347877e+01 4.9000000000e+01 -1.0874894076e+00
     vertex 4.8211644635e+01 4.7076246317e+01 -6.5813457950e-01
     vertex 5.0135399025e+01 4.9000000000e+01 -6.5813498890e-01
   endloop
 endfacet
 facet normal  -4.4828024732e-01 4.4828024732e-01 -7.7336255387e-01
   outer loop
     vertex 4.8211644635e+01 4.7076246317e+01 -6.5813457950e-01
     vertex 4.7076246317e+01 4.7076246317e+01 0.0000000000e+00
     vertex 5.0135399025e+01 4.9000000000e+01 -6.5813498890e-01
   endloop
 endfacet
 facet normal  -4.4828024732e-01 4.4828024732e-01 -7.7336255387e-01
   outer loop
     vertex 5.0135399025e+01 4.9000000000e+01 -6.5813498890e-01
     vertex 4.7076246317e+01 4.7076246317e+01 0.0000000000e+00
     vertex 4.9000000000e+01 4.9000000000e+01 0.0000000000e+00
   endloop
 endfacet
 facet normal  -4.4828024732e-01 4.4828024732e-01 7.7336255387e-01
   outer loop
     vertex 4.7076246317e+01 4.7076246317e+01 0.0000000000e+00
     vertex 5.0135399025e+01 4.9000000000e+01 6.5813498890e-01
     vertex 4.9000000000e+01 4.9000000000e+01 0.0000000000e+00
   endloop
 endfacet
 facet normal  -4.4828024732e-01 4.4828024732e-01 7.7336255387e-01
   outer loop
     vertex 4.7076246317e+01 4.7076246317e+01 0.0000000000e+00
     vertex 4.8211644635e+01 4.7076246317e+01 6.5813457950e-01
     vertex 5.0135399025e+01 4.9000000000e+01 6.5813498890e-01
   endloop
 endfacet
 facet normal  -1.3613229957e-01 1.3613214072e-01 9.8129304353e-01
   outer loop
     vertex 4.8211644635e+01 4.7076246317e+01 6.5813457950e-01
     vertex 5.3230347877e+01 4.9000000000e+01 1.0874894076e+00
     vertex 5.0135399025e+01 4.9000000000e+01 6.5813498890e-01
   endloop
 endfacet
 facet normal  -1.3613229957e-01 1.3613214072e-01 9.8129304353e-01
   outer loop
     vertex 4.8211644635e+01 4.7076246317e+01 6.5813457950e-01
     vertex 5.1306591562e+01 4.7076246317e+01 1.0874887311e+00
     vertex 5.3230347877e+01 4.9000000000e+01 1.0874894076e+00
   endloop
 endfacet
 facet normal  2.0655330832e-02 -2.0655710583e-02 9.9957325841e-01
   outer loop
     vertex 5.1306591562e+01 4.7076246317e+01 1.0874887311e+00
     vertex 5.8395236635e+01 4.9000000000e+01 9.8076137629e-01
     vertex 5.3230347877e+01 4.9000000000e+01 1.0874894076e+00
   endloop
 endfacet
 facet normal  2.0655330832e-02 -2.0655710583e-02 9.9957325841e-01
   outer loop
     vertex 5.1306591562e+01 4.7076246317e+01 1.0874887311e+00
     vertex 5.6471477107e+01 4.7076246317e+01 9.8076076620e-01
     vertex 5.8395236635e+01 4.9000000000e+01 9.8076137629e-01
   endloop
 endfacet
 facet normal  9.6488653278e-02 -9.6489260579e-02 9.9064613378e-01
   outer loop
     vertex 5.6471477107e+01 4.7076246317e+01 9.8076076620e-01
     vertex 6.1616671021e+01 4.7076246317e+01 4.7962033403e-01
     vertex 5.8395236635e+01 4.9000000000e+01 9.8076137629e-01
   endloop
 endfacet
 facet normal  9.6488653278e-02 -9.6489260579e-02 9.9064613378e-01
   outer loop
     vertex 5.8395236635e+01 4.9000000000e+01 9.8076137629e-01
     vertex 6.1616671021e+01 4.7076246317e+01 4.7962033403e-01
     vertex 6.3540433750e+01 4.9000000000e+01 4.7962063238e-01
   endloop
 endfacet
 facet normal  1.0660693017e-01 -1.0660758472e-01 9.8856956524e-01
   outer loop
     vertex 6.1616671021e+01 4.7076246317e+01 4.7962033403e-01
     vertex 6.4727025082e+01 4.7076246317e+01 1.4420104756e-01
     vertex 6.3540433750e+01 4.9000000000e+01 4.7962063238e-01
   endloop
 endfacet
 facet normal  1.0660693017e-01 -1.0660758472e-01 9.8856956524e-01
   outer loop
     vertex 6.3540433750e+01 4.9000000000e+01 4.7962063238e-01
     vertex 6.4727025082e+01 4.7076246317e+01 1.4420104756e-01
     vertex 6.6650789746e+01 4.9000000000e+01 1.4420113726e-01
   endloop
 endfacet
 facet normal  1.0565478986e-01 -1.0565543899e-01 9.8877398509e-01
   outer loop
     vertex 6.4727025082e+01 4.7076246317e+01 1.4420104756e-01
     vertex 6.6076535546e+01 4.7076246317e+01 0.0000000000e+00
     vertex 6.6650789746e+01 4.9000000000e+01 1.4420113726e-01
   endloop
 endfacet
 facet normal  1.0565478986e-01 -1.0565543899e-01 9.8877398509e-01
   outer loop
     vertex 6.6650789746e+01 4.9000000000e+01 1.4420113726e-01
     vertex 6.6076535546e+01 4.7076246317e+01 0.0000000000e+00
     vertex 6.8000301049e+01 4.9000000000e+01 0.0000000000e+00
   endloop
 endfacet
 facet normal  1.0161007075e-01 2.9227383499e-01 -9.5092134212e-01
   outer loop
     vertex 6.8000301049e+01 4.9000000000e+01 0.0000000000e+00
     vertex 6.6650789746e+01 4.9000000000e+01 -1.4420113726e-01
     vertex 6.6752755931e+01 4.9101965605e+01 -1.0196560416e-01
   endloop
 endfacet
 facet normal  1.0256519123e-01 2.9138874240e-01 -9.5109041755e-01
   outer loop
     vertex 6.6650789746e+01 4.9000000000e+01 -1.4420113726e-01
     vertex 6.3879578379e+01 4.9339143036e+01 -3.3914302470e-01
     vertex 6.6752755931e+01 4.9101965605e+01 -1.0196560416e-01
   endloop
 endfacet
 facet normal  1.0256519366e-01 2.9138876667e-01 -9.5109040985e-01
   outer loop
     vertex 6.6650789746e+01 4.9000000000e+01 -1.4420113726e-01
     vertex 6.3540433750e+01 4.9000000000e+01 -4.7962063238e-01
     vertex 6.3879578379e+01 4.9339143036e+01 -3.3914302470e-01
   endloop
 endfacet
 facet normal  9.2453654822e-02 3.0072518448e-01 -9.4921898692e-01
   outer loop
     vertex 6.3540433750e+01 4.9000000000e+01 -4.7962063238e-01
     vertex 5.9088741904e+01 4.9693503162e+01 -6.9350311652e-01
     vertex 6.3879578379e+01 4.9339143036e+01 -3.3914302470e-01
   endloop
 endfacet
 facet normal  9.2453659754e-02 3.0072521973e-01 -9.4921897527e-01
   outer loop
     vertex 6.3540433750e+01 4.9000000000e+01 -4.7962063238e-01
     vertex 5.8395236635e+01 4.9000000000e+01 -9.8076137629e-01
     vertex 5.9088741904e+01 4.9693503162e+01 -6.9350311652e-01
   endloop
 endfacet
 facet normal  1.9225101919e-02 3.6614244465e-01 -9.3036020212e-01
   outer loop
     vertex 5.8395236635e+01 4.9000000000e+01 -9.8076137629e-01
     vertex 5.3230347877e+01 4.9000000000e+01 -1.0874894076e+00
     vertex 5.9088741904e+01 4.9693503162e+01 -6.9350311652e-01
   endloop
 endfacet
 facet normal  1.9225100586e-02 3.6614245386e-01 -9.3036019852e-01
   outer loop
     vertex 5.9088741904e+01 4.9693503162e+01 -6.9350311652e-01
     vertex 5.3230347877e+01 4.9000000000e+01 -1.0874894076e+00
     vertex 5.3999320239e+01 4.9768971309e+01 -7.6897125338e-01
   endloop
 endfacet
 facet normal  -1.2051922202e-01 4.8036640885e-01 -8.6874808223e-01
   outer loop
     vertex 5.3230347877e+01 4.9000000000e+01 -1.0874894076e+00
     vertex 5.0135399025e+01 4.9000000000e+01 -6.5813498890e-01
     vertex 5.3999320239e+01 4.9768971309e+01 -7.6897125338e-01
   endloop
 endfacet
 facet normal  -1.2051921591e-01 4.8036637536e-01 -8.6874810159e-01
   outer loop
     vertex 5.3999320239e+01 4.9768971309e+01 -7.6897125338e-01
     vertex 5.0135399025e+01 4.9000000000e+01 -6.5813498890e-01
     vertex 5.0600770974e+01 4.9465371778e+01 -4.6537175715e-01
   endloop
 endfacet
 facet normal  -3.8025127034e-01 6.5197564058e-01 -6.5600056059e-01
   outer loop
     vertex 5.0135399025e+01 4.9000000000e+01 -6.5813498890e-01
     vertex 4.9000000000e+01 4.9000000000e+01 0.0000000000e+00
     vertex 5.0600770974e+01 4.9465371778e+01 -4.6537175715e-01
   endloop
 endfacet
 facet normal  -3.8025127034e-01 6.5197564058e-01 6.5600056059e-01
   outer loop
     vertex 4.9000000000e+01 4.9000000000e+01 0.0000000000e+00
     vertex 5.0135399025e+01 4.9000000000e+01 6.5813498890e-01
     vertex 5.0600770974e+01 4.9465371778e+01 4.6537175715e-01
   endloop
 endfacet
 facet normal  -1.2051921591e-01 4.8036637536e-01 8.6874810159e-01
   outer loop
     vertex 5.0135399025e+01 4.9000000000e+01 6.5813498890e-01
     vertex 5.3999320239e+01 4.9768971309e+01 7.6897125338e-01
     vertex 5.0600770974e+01 4.9465371778e+01 4.6537175715e-01
   endloop
 endfacet
 facet normal  -1.2051922202e-01 4.8036640885e-01 8.6874808223e-01
   outer loop
     vertex 5.0135399025e+01 4.9000000000e+01 6.5813498890e-01
     vertex 5.3230347877e+01 4.9000000000e+01 1.0874894076e+00
     vertex 5.3999320239e+01 4.9768971309e+01 7.6897125338e-01
   endloop
 endfacet
 facet normal  1.9225100586e-02 3.6614245386e-01 9.3036019852e-01
   outer loop
     vertex 5.3230347877e+01 4.9000000000e+01 1.0874894076e+00
     vertex 5.9088741904e+01 4.9693503162e+01 6.9350311652e-01
     vertex 5.3999320239e+01 4.9768971309e+01 7.6897125338e-01
   endloop
 endfacet
 facet normal  1.9225101919e-02 3.6614244465e-01 9.3036020212e-01
   outer loop
     vertex 5.3230347877e+01 4.9000000000e+01 1.0874894076e+00
     vertex 5.8395236635e+01 4.9000000000e+01 9.8076137629e-01
     vertex 5.9088741904e+01 4.9693503162e+01 6.9350311652e-01
   endloop
 endfacet
 facet normal  9.2453659754e-02 3.0072521973e-01 9.4921897527e-01
   outer loop
     vertex 5.8395236635e+01 4.9000000000e+01 9.8076137629e-01
     vertex 6.3540433750e+01 4.9000000000e+01 4.7962063238e-01
     vertex 5.9088741904e+01 4.9693503162e+01 6.9350311652e-01
   endloop
 endfacet
 facet normal  9.2453654822e-02 3.0072518448e-01 9.4921898692e-01
   outer loop
     vertex 5.9088741904e+01 4.9693503162e+01 6.9350311652e-01
     vertex 6.3540433750e+01 4.9000000000e+01 4.7962063238e-01
     vertex 6.3879578379e+01 4.9339143036e+01 3.3914302470e-01
   endloop
 endfacet
 facet normal  1.0256519366e-01 2.9138876667e-01 9.5109040985e-01
   outer loop
     vertex 6.3540433750e+01 4.9000000000e+01 4.7962063238e-01
     vertex 6.6650789746e+01 4.9000000000e+01 1.4420113726e-01
     vertex 6.3879578379e+01 4.9339143036e+01 3.3914302470e-01
   endloop
 endfacet
 facet normal  1.0256519123e-01 2.9138874240e-01 9.5109041755e-01
   outer loop
     vertex 6.3879578379e+01 4.9339143036e+01 3.3914302470e-01
     vertex 6.6650789746e+01 4.9000000000e+01 1.4420113726e-01
     vertex 6.6752755931e+01 4.9101965605e+01 1.0196560416e-01
   endloop
 endfacet
 facet normal  1.0161007075e-01 2.9227383499e-01 9.5092134212e-01
   outer loop
     vertex 6.6650789746e+01 4.9000000000e+01 1.4420113726e-01
     vertex 6.8000301049e+01 4.9000000000e+01 0.0000000000e+00
     vertex 6.6752755931e+01 4.9101965605e+01 1.0196560416e-01
   endloop
 endfacet
 facet normal  1.0790072163e-01 9.0189124441e-01 -4.1826979035e-01
   outer loop
     vertex 6.8000301049e+01 4.9000000000e+01 0.0000000000e+00
     vertex 6.6752755931e+01 4.9101965605e+01 -1.0196560416e-01
     vertex 6.6794991709e+01 4.9144201142e+01 -2.6048860933e-17
   endloop
 endfacet
 facet normal  1.0898162480e-01 9.0160795227e-01 -4.1860017421e-01
   outer loop
     vertex 6.6752755931e+01 4.9101965605e+01 -1.0196560416e-01
     vertex 6.4020056689e+01 4.9479620685e+01 2.9695683299e-16
     vertex 6.6794991709e+01 4.9144201142e+01 -2.6048860933e-17
   endloop
 endfacet
 facet normal  1.0898162694e-01 9.0160796196e-01 -4.1860015279e-01
   outer loop
     vertex 6.6752755931e+01 4.9101965605e+01 -1.0196560416e-01
     vertex 6.3879578379e+01 4.9339143036e+01 -3.3914302470e-01
     vertex 6.4020056689e+01 4.9479620685e+01 2.9695683299e-16
   endloop
 endfacet
 facet normal  9.7607549243e-02 9.0452578036e-01 -4.1509743314e-01
   outer loop
     vertex 6.3879578379e+01 4.9339143036e+01 -3.3914302470e-01
     vertex 5.9376001211e+01 4.9980761596e+01 0.0000000000e+00
     vertex 6.4020056689e+01 4.9479620685e+01 2.9695683299e-16
   endloop
 endfacet
 facet normal  9.7607553636e-02 9.0452579443e-01 -4.1509740143e-01
   outer loop
     vertex 6.3879578379e+01 4.9339143036e+01 -3.3914302470e-01
     vertex 5.9088741904e+01 4.9693503162e+01 -6.9350311652e-01
     vertex 5.9376001211e+01 4.9980761596e+01 0.0000000000e+00
   endloop
 endfacet
 facet normal  1.9429757982e-02 9.2083413332e-01 -3.8947013160e-01
   outer loop
     vertex 5.9088741904e+01 4.9693503162e+01 -6.9350311652e-01
     vertex 5.3999320239e+01 4.9768971309e+01 -7.6897125338e-01
     vertex 5.9376001211e+01 4.9980761596e+01 0.0000000000e+00
   endloop
 endfacet
 facet normal  1.9429756851e-02 9.2083413634e-01 -3.8947012452e-01
   outer loop
     vertex 5.9376001211e+01 4.9980761596e+01 0.0000000000e+00
     vertex 5.3999320239e+01 4.9768971309e+01 -7.6897125338e-01
     vertex 5.4317839043e+01 5.0087489678e+01 -1.5737864545e-16
   endloop
 endfacet
 facet normal  -1.1374473348e-01 9.3365971606e-01 -3.3961989078e-01
   outer loop
     vertex 5.3999320239e+01 4.9768971309e+01 -7.6897125338e-01
     vertex 5.0600770974e+01 4.9465371778e+01 -4.6537175715e-01
     vertex 5.4317839043e+01 5.0087489678e+01 -1.5737864545e-16
   endloop
 endfacet
 facet normal  -1.1374472875e-01 9.3365970721e-01 -3.3961991670e-01
   outer loop
     vertex 5.4317839043e+01 5.0087489678e+01 -1.5737864545e-16
     vertex 5.0600770974e+01 4.9465371778e+01 -4.6537175715e-01
     vertex 5.0793534355e+01 4.9658135088e+01 -7.7126651044e-16
   endloop
 endfacet
 facet normal  -3.3450188328e-01 9.1157671202e-01 -2.3903219067e-01
   outer loop
     vertex 5.0600770974e+01 4.9465371778e+01 -4.6537175715e-01
     vertex 4.9000000000e+01 4.9000000000e+01 0.0000000000e+00
     vertex 5.0793534355e+01 4.9658135088e+01 -7.7126651044e-16
   endloop
 endfacet
 facet normal  -3.3450188328e-01 9.1157671202e-01 2.3903219067e-01
   outer loop
     vertex 4.9000000000e+01 4.9000000000e+01 0.0000000000e+00
     vertex 5.0600770974e+01 4.9465371778e+01 4.6537175715e-01
     vertex 5.0793534355e+01 4.9658135088e+01 -7.7126651044e-16
   endloop
 endfacet
 facet normal  -1.1374472875e-01 9.3365970721e-01 3.3961991670e-01
   outer loop
     vertex 5.0600770974e+01 4.9465371778e+01 4.6537175715e-01
     vertex 5.4317839043e+01 5.0087489678e+01 -1.5737864545e-16
     vertex 5.0793534355e+01 4.9658135088e+01 -7.7126651044e-16
   endloop
 endfacet
 facet normal  -1.1374473348e-01 9.3365971606e-01 3.3961989078e-01
   outer loop
     vertex 5.0600770974e+01 4.9465371778e+01 4.6537175715e-01
     vertex 5.3999320239e+01 4.9768971309e+01 7.6897125338e-01
     vertex 5.4317839043e+01 5.0087489678e+01 -1.5737864545e-16
   endloop
 endfacet
 facet normal  1.9429756851e-02 9.2083413634e-01 3.8947012452e-01
   outer loop
     vertex 5.3999320239e+01 4.9768971309e+01 7.6897125338e-01
     vertex 5.9376001211e+01 4.9980761596e+01 0.0000000000e+00
     vertex 5.4317839043e+01 5.0087489678e+01 -1.5737864545e-16
   endloop
 endfacet
 facet normal  1.9429757982e-02 9.2083413332e-01 3.8947013160e-01
   outer loop
     vertex 5.3999320239e+01 4.9768971309e+01 7.6897125338e-01
     vertex 5.9088741904e+01 4.9693503162e+01 6.9350311652e-01
     vertex 5.9376001211e+01 4.9980761596e+01 0.0000000000e+00
   endloop
 endfacet
 facet normal  9.7607553636e-02 9.0452579443e-01 4.1509740143e-01
   outer loop
     vertex 5.9088741904e+01 4.9693503162e+01 6.9350311652e-01
     vertex 6.3879578379e+01 4.9339143036e+01 3.3914302470e-01
     vertex 5.9376001211e+01 4.9980761596e+01 0.0000000000e+00
   endloop
 endfacet
 facet normal  9.7607549243e-02 9.0452578036e-01 4.1509743314e-01
   outer loop
     vertex 5.9376001211e+01 4.9980761596e+01 0.0000000000e+00
     vertex 6.3879578379e+01 4.9339143036e+01 3.3914302470e-01
     vertex 6.4020056689e+01 4.9479620685e+01 2.9695683299e-16
   endloop
 endfacet
 facet normal  1.0898162694e-01 9.0160796196e-01 4.1860015279e-01
   outer loop
     vertex 6.3879578379e+01 4.9339143036e+01 3.3914302470e-01
     vertex 6.6752755931e+01 4.9101965605e+01 1.0196560416e-01
     vertex 6.4020056689e+01 4.9479620685e+01 2.9695683299e-16
   endloop
 endfacet
 facet normal  1.0898162480e-01 9.0160795227e-01 4.1860017421e-01
   outer loop
     vertex 6.4020056689e+01 4.9479620685e+01 2.9695683299e-16
     vertex 6.6752755931e+01 4.9101965605e+01 1.0196560416e-01
     vertex 6.6794991709e+01 4.9144201142e+01 -2.6048860933e-17
   endloop
 endfacet
 facet normal  1.0790072163e-01 9.0189124441e-01 4.1826979035e-01
   outer loop
     vertex 6.6752755931e+01 4.9101965605e+01 1.0196560416e-01
     vertex 6.8000301049e+01 4.9000000000e+01 0.0000000000e+00
     vertex 6.6794991709e+01 4.9144201142e+01 -2.6048860933e-17
   endloop
 endfacet
endsolid
