solid
 facet normal  -8.8861801165e-01 3.2431314294e-01 3.2431314294e-01
   outer loop
     vertex 0.0000000000e+00 0.0000000000e+00 0.0000000000e+00
     vertex 1.8323863643e+00 0.0000000000e+00 5.0207386381e+00
     vertex 1.8323863643e+00 5.0207386381e+00 0.0000000000e+00
   endloop
 endfacet
 facet normal  -8.8861801165e-01 3.2431314294e-01 -3.2431314294e-01
   outer loop
     vertex 1.8323863643e+00 5.0207386381e+00 0.0000000000e+00
     vertex 1.8323863643e+00 0.0000000000e+00 -5.0207386381e+00
     vertex 0.0000000000e+00 0.0000000000e+00 0.0000000000e+00
   endloop
 endfacet
 facet normal  -8.8861801165e-01 -3.2431314294e-01 -3.2431314294e-01
   outer loop
     vertex 0.0000000000e+00 0.0000000000e+00 0.0000000000e+00
     vertex 1.8323863643e+00 0.0000000000e+00 -5.0207386381e+00
     vertex 1.8323863643e+00 -5.0207386381e+00 0.0000000000e+00
   endloop
 endfacet
 facet normal  -8.8861801165e-01 -3.2431314294e-01 3.2431314294e-01
   outer loop
     vertex 1.8323863643e+00 -5.0207386381e+00 0.0000000000e+00
     vertex 1.8323863643e+00 0.0000000000e+00 5.0207386381e+00
     vertex 0.0000000000e+00 0.0000000000e+00 0.0000000000e+00
   endloop
 endfacet
 facet normal  -1.4625965974e-01 6.9950272049e-01 6.9950272049e-01
   outer loop
     vertex 1.8323863643e+00 0.0000000000e+00 5.0207386381e+00
     vertex 5.8636363657e+00 0.0000000000e+00 5.8636363657e+00
     vertex 5.8636363657e+00 5.8636363657e+00 0.0000000000e+00
   endloop
 endfacet
 facet normal  -1.4625965974e-01 6.9950272049e-01 6.9950272049e-01
   outer loop
     vertex 1.8323863643e+00 0.0000000000e+00 5.0207386381e+00
     vertex 5.8636363657e+00 5.8636363657e+00 0.0000000000e+00
     vertex 1.8323863643e+00 5.0207386381e+00 0.0000000000e+00
   endloop
 endfacet
 facet normal  -1.4625965974e-01 6.9950272049e-01 -6.9950272049e-01
   outer loop
     vertex 1.8323863643e+00 5.0207386381e+00 0.0000000000e+00
     vertex 5.8636363657e+00 5.8636363657e+00 0.0000000000e+00
     vertex 1.8323863643e+00 0.0000000000e+00 -5.0207386381e+00
   endloop
 endfacet
 facet normal  -1.4625965974e-01 6.9950272049e-01 -6.9950272049e-01
   outer loop
     vertex 5.8636363657e+00 5.8636363657e+00 0.0000000000e+00
     vertex 5.8636363657e+00 0.0000000000e+00 -5.8636363657e+00
     vertex 1.8323863643e+00 0.0000000000e+00 -5.0207386381e+00
   endloop
 endfacet
 facet normal  -1.4625965974e-01 -6.9950272049e-01 -6.9950272049e-01
   outer loop
     vertex 1.8323863643e+00 0.0000000000e+00 -5.0207386381e+00
     vertex 5.8636363657e+00 0.0000000000e+00 -5.8636363657e+00
     vertex 5.8636363657e+00 -5.8636363657e+00 0.0000000000e+00
   endloop
 endfacet
 facet normal  -1.4625965974e-01 -6.9950272049e-01 -6.9950272049e-01
   outer loop
     vertex 1.8323863643e+00 0.0000000000e+00 -5.0207386381e+00
     vertex 5.8636363657e+00 -5.8636363657e+00 0.0000000000e+00
     vertex 1.8323863643e+00 -5.0207386381e+00 0.0000000000e+00
   endloop
 endfacet
 facet normal  -1.4625965974e-01 -6.9950272049e-01 6.9950272049e-01
   outer loop
     vertex 1.8323863643e+00 -5.0207386381e+00 0.0000000000e+00
     vertex 5.8636363657e+00 -5.8636363657e+00 0.0000000000e+00
     vertex 1.8323863643e+00 0.0000000000e+00 5.0207386381e+00
   endloop
 endfacet
 facet normal  -1.4625965974e-01 -6.9950272049e-01 6.9950272049e-01
   outer loop
     vertex 5.8636363657e+00 -5.8636363657e+00 0.0000000000e+00
     vertex 5.8636363657e+00 0.0000000000e+00 5.8636363657e+00
     vertex 1.8323863643e+00 0.0000000000e+00 5.0207386381e+00
   endloop
 endfacet
 facet normal  4.5416675282e-01 6.2997323778e-01 6.2997323778e-01
   outer loop
     vertex 5.8636363657e+00 0.0000000000e+00 5.8636363657e+00
     vertex 9.0153409123e+00 0.0000000000e+00 3.5914772740e+00
     vertex 9.0153409123e+00 3.5914772740e+00 0.0000000000e+00
   endloop
 endfacet
 facet normal  4.5416675282e-01 6.2997323778e-01 6.2997323778e-01
   outer loop
     vertex 5.8636363657e+00 0.0000000000e+00 5.8636363657e+00
     vertex 9.0153409123e+00 3.5914772740e+00 0.0000000000e+00
     vertex 5.8636363657e+00 5.8636363657e+00 0.0000000000e+00
   endloop
 endfacet
 facet normal  4.5416675282e-01 6.2997323778e-01 -6.2997323778e-01
   outer loop
     vertex 5.8636363657e+00 5.8636363657e+00 0.0000000000e+00
     vertex 9.0153409123e+00 3.5914772740e+00 0.0000000000e+00
     vertex 5.8636363657e+00 0.0000000000e+00 -5.8636363657e+00
   endloop
 endfacet
 facet normal  4.5416675282e-01 6.2997323778e-01 -6.2997323778e-01
   outer loop
     vertex 9.0153409123e+00 3.5914772740e+00 0.0000000000e+00
     vertex 9.0153409123e+00 0.0000000000e+00 -3.5914772740e+00
     vertex 5.8636363657e+00 0.0000000000e+00 -5.8636363657e+00
   endloop
 endfacet
 facet normal  4.5416675282e-01 -6.2997323778e-01 -6.2997323778e-01
   outer loop
     vertex 5.8636363657e+00 0.0000000000e+00 -5.8636363657e+00
     vertex 9.0153409123e+00 0.0000000000e+00 -3.5914772740e+00
     vertex 9.0153409123e+00 -3.5914772740e+00 0.0000000000e+00
   endloop
 endfacet
 facet normal  4.5416675282e-01 -6.2997323778e-01 -6.2997323778e-01
   outer loop
     vertex 5.8636363657e+00 0.0000000000e+00 -5.8636363657e+00
     vertex 9.0153409123e+00 -3.5914772740e+00 0.0000000000e+00
     vertex 5.8636363657e+00 -5.8636363657e+00 0.0000000000e+00
   endloop
 endfacet
 facet normal  4.5416675282e-01 -6.2997323778e-01 6.2997323778e-01
   outer loop
     vertex 5.8636363657e+00 -5.8636363657e+00 0.0000000000e+00
     vertex 9.0153409123e+00 -3.5914772740e+00 0.0000000000e+00
     vertex 5.8636363657e+00 0.0000000000e+00 5.8636363657e+00
   endloop
 endfacet
 facet normal  4.5416675282e-01 -6.2997323778e-01 6.2997323778e-01
   outer loop
     vertex 9.0153409123e+00 -3.5914772740e+00 0.0000000000e+00
     vertex 9.0153409123e+00 0.0000000000e+00 3.5914772740e+00
     vertex 5.8636363657e+00 0.0000000000e+00 5.8636363657e+00
   endloop
 endfacet
 facet normal  6.8352872635e-01 5.1613393623e-01 5.1613393623e-01
   outer loop
     vertex 9.0153409123e+00 0.0000000000e+00 3.5914772740e+00
     vertex 1.1727272731e+01 0.0000000000e+00 0.0000000000e+00
     vertex 9.0153409123e+00 3.5914772740e+00 0.0000000000e+00
   endloop
 endfacet
 facet normal  6.8352872635e-01 5.1613393623e-01 -5.1613393623e-01
   outer loop
     vertex 9.0153409123e+00 3.5914772740e+00 0.0000000000e+00
     vertex 1.1727272731e+01 0.0000000000e+00 0.0000000000e+00
     vertex 9.0153409123e+00 0.0000000000e+00 -3.5914772740e+00
   endloop
 endfacet
 facet normal  6.8352872635e-01 -5.1613393623e-01 -5.1613393623e-01
   outer loop
     vertex 9.0153409123e+00 0.0000000000e+00 -3.5914772740e+00
     vertex 1.1727272731e+01 0.0000000000e+00 0.0000000000e+00
     vertex 9.0153409123e+00 -3.5914772740e+00 0.0000000000e+00
   endloop
 endfacet
 facet normal  6.8352872635e-01 -5.1613393623e-01 5.1613393623e-01
   outer loop
     vertex 9.0153409123e+00 -3.5914772740e+00 0.0000000000e+00
     vertex 1.1727272731e+01 0.0000000000e+00 0.0000000000e+00
     vertex 9.0153409123e+00 0.0000000000e+00 3.5914772740e+00
   endloop
 endfacet
endsolid
