solid
 facet normal  -9.3004859925e-01 1.4069222298e-01 3.3943379535e-01
   outer loop
     vertex 0.0000000000e+00 0.0000000000e+00 0.0000000000e+00
     vertex 1.8323863643e+00 0.0000000000e+00 5.0207386381e+00
     vertex 1.8323863643e+00 3.5495022272e+00 3.5495022272e+00
   endloop
 endfacet
 facet normal  -9.3004859925e-01 3.3943379535e-01 1.4069222298e-01
   outer loop
     vertex 0.0000000000e+00 0.0000000000e+00 0.0000000000e+00
     vertex 1.8323863643e+00 3.5495022272e+00 3.5495022272e+00
     vertex 1.8323863643e+00 5.0207386381e+00 0.0000000000e+00
   endloop
 endfacet
 facet normal  -9.3004859925e-01 3.3943379535e-01 -1.4069222298e-01
   outer loop
     vertex 1.8323863643e+00 5.0207386381e+00 0.0000000000e+00
     vertex 1.8323863643e+00 3.5495022272e+00 -3.5495022272e+00
     vertex 0.0000000000e+00 0.0000000000e+00 0.0000000000e+00
   endloop
 endfacet
 facet normal  -9.3004859925e-01 1.4069222298e-01 -3.3943379535e-01
   outer loop
     vertex 1.8323863643e+00 3.5495022272e+00 -3.5495022272e+00
     vertex 1.8323863643e+00 0.0000000000e+00 -5.0207386381e+00
     vertex 0.0000000000e+00 0.0000000000e+00 0.0000000000e+00
   endloop
 endfacet
 facet normal  -9.3004859925e-01 -1.4069222298e-01 -3.3943379535e-01
   outer loop
     vertex 0.0000000000e+00 0.0000000000e+00 0.0000000000e+00
     vertex 1.8323863643e+00 0.0000000000e+00 -5.0207386381e+00
     vertex 1.8323863643e+00 -3.5495022272e+00 -3.5495022272e+00
   endloop
 endfacet
 facet normal  -9.3004859925e-01 -3.3943379535e-01 -1.4069222298e-01
   outer loop
     vertex 0.0000000000e+00 0.0000000000e+00 0.0000000000e+00
     vertex 1.8323863643e+00 -3.5495022272e+00 -3.5495022272e+00
     vertex 1.8323863643e+00 -5.0207386381e+00 0.0000000000e+00
   endloop
 endfacet
 facet normal  -9.3004859925e-01 -3.3943379535e-01 1.4069222298e-01
   outer loop
     vertex 1.8323863643e+00 -5.0207386381e+00 0.0000000000e+00
     vertex 1.8323863643e+00 -3.5495022272e+00 3.5495022272e+00
     vertex 0.0000000000e+00 0.0000000000e+00 0.0000000000e+00
   endloop
 endfacet
 facet normal  -9.3004859925e-01 -1.4069222298e-01 3.3943379535e-01
   outer loop
     vertex 1.8323863643e+00 -3.5495022272e+00 3.5495022272e+00
     vertex 1.8323863643e+00 0.0000000000e+00 5.0207386381e+00
     vertex 0.0000000000e+00 0.0000000000e+00 0.0000000000e+00
   endloop
 endfacet
 facet normal  -1.8965041110e-01 3.7595308168e-01 9.0702370528e-01
   outer loop
     vertex 1.8323863643e+00 0.0000000000e+00 5.0207386381e+00
     vertex 5.8636363657e+00 0.0000000000e+00 5.8636363657e+00
     vertex 5.8636363657e+00 4.1454040610e+00 4.1454040610e+00
   endloop
 endfacet
 facet normal  -1.8965041110e-01 3.7595308168e-01 9.0702370528e-01
   outer loop
     vertex 1.8323863643e+00 0.0000000000e+00 5.0207386381e+00
     vertex 5.8636363657e+00 4.1454040610e+00 4.1454040610e+00
     vertex 1.8323863643e+00 3.5495022272e+00 3.5495022272e+00
   endloop
 endfacet
 facet normal  -1.8965041110e-01 9.0702370528e-01 3.7595308168e-01
   outer loop
     vertex 1.8323863643e+00 3.5495022272e+00 3.5495022272e+00
     vertex 5.8636363657e+00 4.1454040610e+00 4.1454040610e+00
     vertex 5.8636363657e+00 5.8636363657e+00 0.0000000000e+00
   endloop
 endfacet
 facet normal  -1.8965041110e-01 9.0702370528e-01 3.7595308168e-01
   outer loop
     vertex 1.8323863643e+00 3.5495022272e+00 3.5495022272e+00
     vertex 5.8636363657e+00 5.8636363657e+00 0.0000000000e+00
     vertex 1.8323863643e+00 5.0207386381e+00 0.0000000000e+00
   endloop
 endfacet
 facet normal  -1.8965041110e-01 9.0702370528e-01 -3.7595308168e-01
   outer loop
     vertex 1.8323863643e+00 5.0207386381e+00 0.0000000000e+00
     vertex 5.8636363657e+00 5.8636363657e+00 0.0000000000e+00
     vertex 1.8323863643e+00 3.5495022272e+00 -3.5495022272e+00
   endloop
 endfacet
 facet normal  -1.8965041110e-01 9.0702370528e-01 -3.7595308168e-01
   outer loop
     vertex 5.8636363657e+00 5.8636363657e+00 0.0000000000e+00
     vertex 5.8636363657e+00 4.1454040610e+00 -4.1454040610e+00
     vertex 1.8323863643e+00 3.5495022272e+00 -3.5495022272e+00
   endloop
 endfacet
 facet normal  -1.8965041110e-01 3.7595308168e-01 -9.0702370528e-01
   outer loop
     vertex 1.8323863643e+00 3.5495022272e+00 -3.5495022272e+00
     vertex 5.8636363657e+00 4.1454040610e+00 -4.1454040610e+00
     vertex 1.8323863643e+00 0.0000000000e+00 -5.0207386381e+00
   endloop
 endfacet
 facet normal  -1.8965041110e-01 3.7595308168e-01 -9.0702370528e-01
   outer loop
     vertex 5.8636363657e+00 4.1454040610e+00 -4.1454040610e+00
     vertex 5.8636363657e+00 0.0000000000e+00 -5.8636363657e+00
     vertex 1.8323863643e+00 0.0000000000e+00 -5.0207386381e+00
   endloop
 endfacet
 facet normal  -1.8965041110e-01 -3.7595308168e-01 -9.0702370528e-01
   outer loop
     vertex 1.8323863643e+00 0.0000000000e+00 -5.0207386381e+00
     vertex 5.8636363657e+00 0.0000000000e+00 -5.8636363657e+00
     vertex 5.8636363657e+00 -4.1454040610e+00 -4.1454040610e+00
   endloop
 endfacet
 facet normal  -1.8965041110e-01 -3.7595308168e-01 -9.0702370528e-01
   outer loop
     vertex 1.8323863643e+00 0.0000000000e+00 -5.0207386381e+00
     vertex 5.8636363657e+00 -4.1454040610e+00 -4.1454040610e+00
     vertex 1.8323863643e+00 -3.5495022272e+00 -3.5495022272e+00
   endloop
 endfacet
 facet normal  -1.8965041110e-01 -9.0702370528e-01 -3.7595308168e-01
   outer loop
     vertex 1.8323863643e+00 -3.5495022272e+00 -3.5495022272e+00
     vertex 5.8636363657e+00 -4.1454040610e+00 -4.1454040610e+00
     vertex 5.8636363657e+00 -5.8636363657e+00 0.0000000000e+00
   endloop
 endfacet
 facet normal  -1.8965041110e-01 -9.0702370528e-01 -3.7595308168e-01
   outer loop
     vertex 1.8323863643e+00 -3.5495022272e+00 -3.5495022272e+00
     vertex 5.8636363657e+00 -5.8636363657e+00 0.0000000000e+00
     vertex 1.8323863643e+00 -5.0207386381e+00 0.0000000000e+00
   endloop
 endfacet
 facet normal  -1.8965041110e-01 -9.0702370528e-01 3.7595308168e-01
   outer loop
     vertex 1.8323863643e+00 -5.0207386381e+00 0.0000000000e+00
     vertex 5.8636363657e+00 -5.8636363657e+00 0.0000000000e+00
     vertex 1.8323863643e+00 -3.5495022272e+00 3.5495022272e+00
   endloop
 endfacet
 facet normal  -1.8965041110e-01 -9.0702370528e-01 3.7595308168e-01
   outer loop
     vertex 5.8636363657e+00 -5.8636363657e+00 0.0000000000e+00
     vertex 5.8636363657e+00 -4.1454040610e+00 4.1454040610e+00
     vertex 1.8323863643e+00 -3.5495022272e+00 3.5495022272e+00
   endloop
 endfacet
 facet normal  -1.8965041110e-01 -3.7595308168e-01 9.0702370528e-01
   outer loop
     vertex 1.8323863643e+00 -3.5495022272e+00 3.5495022272e+00
     vertex 5.8636363657e+00 -4.1454040610e+00 4.1454040610e+00
     vertex 1.8323863643e+00 0.0000000000e+00 5.0207386381e+00
   endloop
 endfacet
 facet normal  -1.8965041110e-01 -3.7595308168e-01 9.0702370528e-01
   outer loop
     vertex 5.8636363657e+00 -4.1454040610e+00 4.1454040610e+00
     vertex 5.8636363657e+00 0.0000000000e+00 5.8636363657e+00
     vertex 1.8323863643e+00 0.0000000000e+00 5.0207386381e+00
   endloop
 endfacet
 facet normal  5.5430870934e-01 3.1869369794e-01 7.6887982263e-01
   outer loop
     vertex 5.8636363657e+00 0.0000000000e+00 5.8636363657e+00
     vertex 9.0153409123e+00 0.0000000000e+00 3.5914772740e+00
     vertex 9.0153409123e+00 2.5390599874e+00 2.5390599874e+00
   endloop
 endfacet
 facet normal  5.5430870934e-01 3.1869369794e-01 7.6887982263e-01
   outer loop
     vertex 5.8636363657e+00 0.0000000000e+00 5.8636363657e+00
     vertex 9.0153409123e+00 2.5390599874e+00 2.5390599874e+00
     vertex 5.8636363657e+00 4.1454040610e+00 4.1454040610e+00
   endloop
 endfacet
 facet normal  5.5430870934e-01 7.6887982263e-01 3.1869369794e-01
   outer loop
     vertex 5.8636363657e+00 4.1454040610e+00 4.1454040610e+00
     vertex 9.0153409123e+00 2.5390599874e+00 2.5390599874e+00
     vertex 9.0153409123e+00 3.5914772740e+00 0.0000000000e+00
   endloop
 endfacet
 facet normal  5.5430870934e-01 7.6887982263e-01 3.1869369794e-01
   outer loop
     vertex 5.8636363657e+00 4.1454040610e+00 4.1454040610e+00
     vertex 9.0153409123e+00 3.5914772740e+00 0.0000000000e+00
     vertex 5.8636363657e+00 5.8636363657e+00 0.0000000000e+00
   endloop
 endfacet
 facet normal  5.5430870934e-01 7.6887982263e-01 -3.1869369794e-01
   outer loop
     vertex 5.8636363657e+00 5.8636363657e+00 0.0000000000e+00
     vertex 9.0153409123e+00 3.5914772740e+00 0.0000000000e+00
     vertex 5.8636363657e+00 4.1454040610e+00 -4.1454040610e+00
   endloop
 endfacet
 facet normal  5.5430870934e-01 7.6887982263e-01 -3.1869369794e-01
   outer loop
     vertex 9.0153409123e+00 3.5914772740e+00 0.0000000000e+00
     vertex 9.0153409123e+00 2.5390599874e+00 -2.5390599874e+00
     vertex 5.8636363657e+00 4.1454040610e+00 -4.1454040610e+00
   endloop
 endfacet
 facet normal  5.5430870934e-01 3.1869369794e-01 -7.6887982263e-01
   outer loop
     vertex 5.8636363657e+00 4.1454040610e+00 -4.1454040610e+00
     vertex 9.0153409123e+00 2.5390599874e+00 -2.5390599874e+00
     vertex 5.8636363657e+00 0.0000000000e+00 -5.8636363657e+00
   endloop
 endfacet
 facet normal  5.5430870934e-01 3.1869369794e-01 -7.6887982263e-01
   outer loop
     vertex 9.0153409123e+00 2.5390599874e+00 -2.5390599874e+00
     vertex 9.0153409123e+00 0.0000000000e+00 -3.5914772740e+00
     vertex 5.8636363657e+00 0.0000000000e+00 -5.8636363657e+00
   endloop
 endfacet
 facet normal  5.5430870934e-01 -3.1869369794e-01 -7.6887982263e-01
   outer loop
     vertex 5.8636363657e+00 0.0000000000e+00 -5.8636363657e+00
     vertex 9.0153409123e+00 0.0000000000e+00 -3.5914772740e+00
     vertex 9.0153409123e+00 -2.5390599874e+00 -2.5390599874e+00
   endloop
 endfacet
 facet normal  5.5430870934e-01 -3.1869369794e-01 -7.6887982263e-01
   outer loop
     vertex 5.8636363657e+00 0.0000000000e+00 -5.8636363657e+00
     vertex 9.0153409123e+00 -2.5390599874e+00 -2.5390599874e+00
     vertex 5.8636363657e+00 -4.1454040610e+00 -4.1454040610e+00
   endloop
 endfacet
 facet normal  5.5430870934e-01 -7.6887982263e-01 -3.1869369794e-01
   outer loop
     vertex 5.8636363657e+00 -4.1454040610e+00 -4.1454040610e+00
     vertex 9.0153409123e+00 -2.5390599874e+00 -2.5390599874e+00
     vertex 9.0153409123e+00 -3.5914772740e+00 0.0000000000e+00
   endloop
 endfacet
 facet normal  5.5430870934e-01 -7.6887982263e-01 -3.1869369794e-01
   outer loop
     vertex 5.8636363657e+00 -4.1454040610e+00 -4.1454040610e+00
     vertex 9.0153409123e+00 -3.5914772740e+00 0.0000000000e+00
     vertex 5.8636363657e+00 -5.8636363657e+00 0.0000000000e+00
   endloop
 endfacet
 facet normal  5.5430870934e-01 -7.6887982263e-01 3.1869369794e-01
   outer loop
     vertex 5.8636363657e+00 -5.8636363657e+00 0.0000000000e+00
     vertex 9.0153409123e+00 -3.5914772740e+00 0.0000000000e+00
     vertex 5.8636363657e+00 -4.1454040610e+00 4.1454040610e+00
   endloop
 endfacet
 facet normal  5.5430870934e-01 -7.6887982263e-01 3.1869369794e-01
   outer loop
     vertex 9.0153409123e+00 -3.5914772740e+00 0.0000000000e+00
     vertex 9.0153409123e+00 -2.5390599874e+00 2.5390599874e+00
     vertex 5.8636363657e+00 -4.1454040610e+00 4.1454040610e+00
   endloop
 endfacet
 facet normal  5.5430870934e-01 -3.1869369794e-01 7.6887982263e-01
   outer loop
     vertex 5.8636363657e+00 -4.1454040610e+00 4.1454040610e+00
     vertex 9.0153409123e+00 -2.5390599874e+00 2.5390599874e+00
     vertex 5.8636363657e+00 0.0000000000e+00 5.8636363657e+00
   endloop
 endfacet
 facet normal  5.5430870934e-01 -3.1869369794e-01 7.6887982263e-01
   outer loop
     vertex 9.0153409123e+00 -2.5390599874e+00 2.5390599874e+00
     vertex 9.0153409123e+00 0.0000000000e+00 3.5914772740e+00
     vertex 5.8636363657e+00 0.0000000000e+00 5.8636363657e+00
   endloop
 endfacet
 facet normal  7.7425512583e-01 2.4232863987e-01 5.8464162563e-01
   outer loop
     vertex 9.0153409123e+00 0.0000000000e+00 3.5914772740e+00
     vertex 1.1727272731e+01 0.0000000000e+00 0.0000000000e+00
     vertex 9.0153409123e+00 2.5390599874e+00 2.5390599874e+00
   endloop
 endfacet
 facet normal  7.7425512583e-01 5.8464162563e-01 2.4232863987e-01
   outer loop
     vertex 9.0153409123e+00 2.5390599874e+00 2.5390599874e+00
     vertex 1.1727272731e+01 0.0000000000e+00 0.0000000000e+00
     vertex 9.0153409123e+00 3.5914772740e+00 0.0000000000e+00
   endloop
 endfacet
 facet normal  7.7425512583e-01 5.8464162563e-01 -2.4232863987e-01
   outer loop
     vertex 9.0153409123e+00 3.5914772740e+00 0.0000000000e+00
     vertex 1.1727272731e+01 0.0000000000e+00 0.0000000000e+00
     vertex 9.0153409123e+00 2.5390599874e+00 -2.5390599874e+00
   endloop
 endfacet
 facet normal  7.7425512583e-01 2.4232863987e-01 -5.8464162563e-01
   outer loop
     vertex 9.0153409123e+00 2.5390599874e+00 -2.5390599874e+00
     vertex 1.1727272731e+01 0.0000000000e+00 0.0000000000e+00
     vertex 9.0153409123e+00 0.0000000000e+00 -3.5914772740e+00
   endloop
 endfacet
 facet normal  7.7425512583e-01 -2.4232863987e-01 -5.8464162563e-01
   outer loop
     vertex 9.0153409123e+00 0.0000000000e+00 -3.5914772740e+00
     vertex 1.1727272731e+01 0.0000000000e+00 0.0000000000e+00
     vertex 9.0153409123e+00 -2.5390599874e+00 -2.5390599874e+00
   endloop
 endfacet
 facet normal  7.7425512583e-01 -5.8464162563e-01 -2.4232863987e-01
   outer loop
     vertex 9.0153409123e+00 -2.5390599874e+00 -2.5390599874e+00
     vertex 1.1727272731e+01 0.0000000000e+00 0.0000000000e+00
     vertex 9.0153409123e+00 -3.5914772740e+00 0.0000000000e+00
   endloop
 endfacet
 facet normal  7.7425512583e-01 -5.8464162563e-01 2.4232863987e-01
   outer loop
     vertex 9.0153409123e+00 -3.5914772740e+00 0.0000000000e+00
     vertex 1.1727272731e+01 0.0000000000e+00 0.0000000000e+00
     vertex 9.0153409123e+00 -2.5390599874e+00 2.5390599874e+00
   endloop
 endfacet
 facet normal  7.7425512583e-01 -2.4232863987e-01 5.8464162563e-01
   outer loop
     vertex 9.0153409123e+00 -2.5390599874e+00 2.5390599874e+00
     vertex 1.1727272731e+01 0.0000000000e+00 0.0000000000e+00
     vertex 9.0153409123e+00 0.0000000000e+00 3.5914772740e+00
   endloop
 endfacet
endsolid
