solid
 facet normal  -9.5963114120e-01 2.5982632605e-01 -1.0769565052e-01
   outer loop
     vertex 0.0000000000e+00 0.0000000000e+00 0.0000000000e+00
     vertex 1.3661147604e-01 5.0455482570e-01 0.0000000000e+00
     vertex 1.3661147604e-01 3.5670418372e-01 -3.5670418372e-01
   endloop
 endfacet
 facet normal  -9.5963114120e-01 1.0769565052e-01 -2.5982632605e-01
   outer loop
     vertex 0.0000000000e+00 0.0000000000e+00 0.0000000000e+00
     vertex 1.3661147604e-01 3.5670418372e-01 -3.5670418372e-01
     vertex 1.3661147604e-01 0.0000000000e+00 -5.0455482570e-01
   endloop
 endfacet
 facet normal  -9.5963114120e-01 -1.0769565052e-01 -2.5982632605e-01
   outer loop
     vertex 1.3661147604e-01 0.0000000000e+00 -5.0455482570e-01
     vertex 1.3661147604e-01 -3.5670418372e-01 -3.5670418372e-01
     vertex 0.0000000000e+00 0.0000000000e+00 0.0000000000e+00
   endloop
 endfacet
 facet normal  -9.5963114120e-01 -2.5982632605e-01 -1.0769565052e-01
   outer loop
     vertex 1.3661147604e-01 -3.5670418372e-01 -3.5670418372e-01
     vertex 1.3661147604e-01 -5.0455482570e-01 0.0000000000e+00
     vertex 0.0000000000e+00 0.0000000000e+00 0.0000000000e+00
   endloop
 endfacet
 facet normal  -9.5963114120e-01 -2.5982632605e-01 1.0769565052e-01
   outer loop
     vertex 0.0000000000e+00 0.0000000000e+00 0.0000000000e+00
     vertex 1.3661147604e-01 -5.0455482570e-01 0.0000000000e+00
     vertex 1.3661147604e-01 -3.5670418372e-01 3.5670418372e-01
   endloop
 endfacet
 facet normal  -9.5963114120e-01 -1.0769565052e-01 2.5982632605e-01
   outer loop
     vertex 0.0000000000e+00 0.0000000000e+00 0.0000000000e+00
     vertex 1.3661147604e-01 -3.5670418372e-01 3.5670418372e-01
     vertex 1.3661147604e-01 0.0000000000e+00 5.0455482570e-01
   endloop
 endfacet
 facet normal  -9.5963114120e-01 1.0769565052e-01 2.5982632605e-01
   outer loop
     vertex 1.3661147604e-01 0.0000000000e+00 5.0455482570e-01
     vertex 1.3661147604e-01 3.5670418372e-01 3.5670418372e-01
     vertex 0.0000000000e+00 0.0000000000e+00 0.0000000000e+00
   endloop
 endfacet
 facet normal  -9.5963114120e-01 2.5982632605e-01 1.0769565052e-01
   outer loop
     vertex 1.3661147604e-01 3.5670418372e-01 3.5670418372e-01
     vertex 1.3661147604e-01 5.0455482570e-01 0.0000000000e+00
     vertex 0.0000000000e+00 0.0000000000e+00 0.0000000000e+00
   endloop
 endfacet
 facet normal  -6.7856243588e-01 6.7856243588e-01 -2.8125796205e-01
   outer loop
     vertex 1.3661147604e-01 5.0455482570e-01 0.0000000000e+00
     vertex 4.9544517430e-01 8.6338852396e-01 0.0000000000e+00
     vertex 4.9544517430e-01 6.1038817386e-01 -6.1038817386e-01
   endloop
 endfacet
 facet normal  -6.7856243588e-01 6.7856243588e-01 -2.8125796205e-01
   outer loop
     vertex 1.3661147604e-01 5.0455482570e-01 0.0000000000e+00
     vertex 4.9544517430e-01 6.1038817386e-01 -6.1038817386e-01
     vertex 1.3661147604e-01 3.5670418372e-01 -3.5670418372e-01
   endloop
 endfacet
 facet normal  -6.7856243588e-01 2.8125796205e-01 -6.7856243588e-01
   outer loop
     vertex 1.3661147604e-01 3.5670418372e-01 -3.5670418372e-01
     vertex 4.9544517430e-01 6.1038817386e-01 -6.1038817386e-01
     vertex 4.9544517430e-01 0.0000000000e+00 -8.6338852396e-01
   endloop
 endfacet
 facet normal  -6.7856243588e-01 2.8125796205e-01 -6.7856243588e-01
   outer loop
     vertex 1.3661147604e-01 3.5670418372e-01 -3.5670418372e-01
     vertex 4.9544517430e-01 0.0000000000e+00 -8.6338852396e-01
     vertex 1.3661147604e-01 0.0000000000e+00 -5.0455482570e-01
   endloop
 endfacet
 facet normal  -6.7856243588e-01 -2.8125796205e-01 -6.7856243588e-01
   outer loop
     vertex 1.3661147604e-01 0.0000000000e+00 -5.0455482570e-01
     vertex 4.9544517430e-01 0.0000000000e+00 -8.6338852396e-01
     vertex 1.3661147604e-01 -3.5670418372e-01 -3.5670418372e-01
   endloop
 endfacet
 facet normal  -6.7856243588e-01 -2.8125796205e-01 -6.7856243588e-01
   outer loop
     vertex 4.9544517430e-01 0.0000000000e+00 -8.6338852396e-01
     vertex 4.9544517430e-01 -6.1038817386e-01 -6.1038817386e-01
     vertex 1.3661147604e-01 -3.5670418372e-01 -3.5670418372e-01
   endloop
 endfacet
 facet normal  -6.7856243588e-01 -6.7856243588e-01 -2.8125796205e-01
   outer loop
     vertex 1.3661147604e-01 -3.5670418372e-01 -3.5670418372e-01
     vertex 4.9544517430e-01 -6.1038817386e-01 -6.1038817386e-01
     vertex 1.3661147604e-01 -5.0455482570e-01 0.0000000000e+00
   endloop
 endfacet
 facet normal  -6.7856243588e-01 -6.7856243588e-01 -2.8125796205e-01
   outer loop
     vertex 4.9544517430e-01 -6.1038817386e-01 -6.1038817386e-01
     vertex 4.9544517430e-01 -8.6338852396e-01 0.0000000000e+00
     vertex 1.3661147604e-01 -5.0455482570e-01 0.0000000000e+00
   endloop
 endfacet
 facet normal  -6.7856243588e-01 -6.7856243588e-01 2.8125796205e-01
   outer loop
     vertex 1.3661147604e-01 -5.0455482570e-01 0.0000000000e+00
     vertex 4.9544517430e-01 -8.6338852396e-01 0.0000000000e+00
     vertex 4.9544517430e-01 -6.1038817386e-01 6.1038817386e-01
   endloop
 endfacet
 facet normal  -6.7856243588e-01 -6.7856243588e-01 2.8125796205e-01
   outer loop
     vertex 1.3661147604e-01 -5.0455482570e-01 0.0000000000e+00
     vertex 4.9544517430e-01 -6.1038817386e-01 6.1038817386e-01
     vertex 1.3661147604e-01 -3.5670418372e-01 3.5670418372e-01
   endloop
 endfacet
 facet normal  -6.7856243588e-01 -2.8125796205e-01 6.7856243588e-01
   outer loop
     vertex 1.3661147604e-01 -3.5670418372e-01 3.5670418372e-01
     vertex 4.9544517430e-01 -6.1038817386e-01 6.1038817386e-01
     vertex 4.9544517430e-01 0.0000000000e+00 8.6338852396e-01
   endloop
 endfacet
 facet normal  -6.7856243588e-01 -2.8125796205e-01 6.7856243588e-01
   outer loop
     vertex 1.3661147604e-01 -3.5670418372e-01 3.5670418372e-01
     vertex 4.9544517430e-01 0.0000000000e+00 8.6338852396e-01
     vertex 1.3661147604e-01 0.0000000000e+00 5.0455482570e-01
   endloop
 endfacet
 facet normal  -6.7856243588e-01 2.8125796205e-01 6.7856243588e-01
   outer loop
     vertex 1.3661147604e-01 0.0000000000e+00 5.0455482570e-01
     vertex 4.9544517430e-01 0.0000000000e+00 8.6338852396e-01
     vertex 1.3661147604e-01 3.5670418372e-01 3.5670418372e-01
   endloop
 endfacet
 facet normal  -6.7856243588e-01 2.8125796205e-01 6.7856243588e-01
   outer loop
     vertex 4.9544517430e-01 0.0000000000e+00 8.6338852396e-01
     vertex 4.9544517430e-01 6.1038817386e-01 6.1038817386e-01
     vertex 1.3661147604e-01 3.5670418372e-01 3.5670418372e-01
   endloop
 endfacet
 facet normal  -6.7856243588e-01 6.7856243588e-01 2.8125796205e-01
   outer loop
     vertex 1.3661147604e-01 3.5670418372e-01 3.5670418372e-01
     vertex 4.9544517430e-01 6.1038817386e-01 6.1038817386e-01
     vertex 1.3661147604e-01 5.0455482570e-01 0.0000000000e+00
   endloop
 endfacet
 facet normal  -6.7856243588e-01 6.7856243588e-01 2.8125796205e-01
   outer loop
     vertex 4.9544517430e-01 6.1038817386e-01 6.1038817386e-01
     vertex 4.9544517430e-01 8.6338852396e-01 0.0000000000e+00
     vertex 1.3661147604e-01 5.0455482570e-01 0.0000000000e+00
   endloop
 endfacet
 facet normal  -2.4264684551e-01 8.9618120230e-01 -3.7145896275e-01
   outer loop
     vertex 4.9544517430e-01 8.6338852396e-01 0.0000000000e+00
     vertex 1.0000000000e+00 1.0000000000e+00 0.0000000000e+00
     vertex 1.0000000000e+00 7.0696813419e-01 -7.0696813419e-01
   endloop
 endfacet
 facet normal  -2.4264684551e-01 8.9618120230e-01 -3.7145896275e-01
   outer loop
     vertex 4.9544517430e-01 8.6338852396e-01 0.0000000000e+00
     vertex 1.0000000000e+00 7.0696813419e-01 -7.0696813419e-01
     vertex 4.9544517430e-01 6.1038817386e-01 -6.1038817386e-01
   endloop
 endfacet
 facet normal  -2.4264684551e-01 3.7145896275e-01 -8.9618120230e-01
   outer loop
     vertex 4.9544517430e-01 6.1038817386e-01 -6.1038817386e-01
     vertex 1.0000000000e+00 7.0696813419e-01 -7.0696813419e-01
     vertex 1.0000000000e+00 0.0000000000e+00 -1.0000000000e+00
   endloop
 endfacet
 facet normal  -2.4264684551e-01 3.7145896275e-01 -8.9618120230e-01
   outer loop
     vertex 4.9544517430e-01 6.1038817386e-01 -6.1038817386e-01
     vertex 1.0000000000e+00 0.0000000000e+00 -1.0000000000e+00
     vertex 4.9544517430e-01 0.0000000000e+00 -8.6338852396e-01
   endloop
 endfacet
 facet normal  -2.4264684551e-01 -3.7145896275e-01 -8.9618120230e-01
   outer loop
     vertex 4.9544517430e-01 0.0000000000e+00 -8.6338852396e-01
     vertex 1.0000000000e+00 0.0000000000e+00 -1.0000000000e+00
     vertex 4.9544517430e-01 -6.1038817386e-01 -6.1038817386e-01
   endloop
 endfacet
 facet normal  -2.4264684551e-01 -3.7145896275e-01 -8.9618120230e-01
   outer loop
     vertex 1.0000000000e+00 0.0000000000e+00 -1.0000000000e+00
     vertex 1.0000000000e+00 -7.0696813419e-01 -7.0696813419e-01
     vertex 4.9544517430e-01 -6.1038817386e-01 -6.1038817386e-01
   endloop
 endfacet
 facet normal  -2.4264684551e-01 -8.9618120230e-01 -3.7145896275e-01
   outer loop
     vertex 4.9544517430e-01 -6.1038817386e-01 -6.1038817386e-01
     vertex 1.0000000000e+00 -7.0696813419e-01 -7.0696813419e-01
     vertex 4.9544517430e-01 -8.6338852396e-01 0.0000000000e+00
   endloop
 endfacet
 facet normal  -2.4264684551e-01 -8.9618120230e-01 -3.7145896275e-01
   outer loop
     vertex 1.0000000000e+00 -7.0696813419e-01 -7.0696813419e-01
     vertex 1.0000000000e+00 -1.0000000000e+00 0.0000000000e+00
     vertex 4.9544517430e-01 -8.6338852396e-01 0.0000000000e+00
   endloop
 endfacet
 facet normal  -2.4264684551e-01 -8.9618120230e-01 3.7145896275e-01
   outer loop
     vertex 4.9544517430e-01 -8.6338852396e-01 0.0000000000e+00
     vertex 1.0000000000e+00 -1.0000000000e+00 0.0000000000e+00
     vertex 1.0000000000e+00 -7.0696813419e-01 7.0696813419e-01
   endloop
 endfacet
 facet normal  -2.4264684551e-01 -8.9618120230e-01 3.7145896275e-01
   outer loop
     vertex 4.9544517430e-01 -8.6338852396e-01 0.0000000000e+00
     vertex 1.0000000000e+00 -7.0696813419e-01 7.0696813419e-01
     vertex 4.9544517430e-01 -6.1038817386e-01 6.1038817386e-01
   endloop
 endfacet
 facet normal  -2.4264684551e-01 -3.7145896275e-01 8.9618120230e-01
   outer loop
     vertex 4.9544517430e-01 -6.1038817386e-01 6.1038817386e-01
     vertex 1.0000000000e+00 -7.0696813419e-01 7.0696813419e-01
     vertex 1.0000000000e+00 0.0000000000e+00 1.0000000000e+00
   endloop
 endfacet
 facet normal  -2.4264684551e-01 -3.7145896275e-01 8.9618120230e-01
   outer loop
     vertex 4.9544517430e-01 -6.1038817386e-01 6.1038817386e-01
     vertex 1.0000000000e+00 0.0000000000e+00 1.0000000000e+00
     vertex 4.9544517430e-01 0.0000000000e+00 8.6338852396e-01
   endloop
 endfacet
 facet normal  -2.4264684551e-01 3.7145896275e-01 8.9618120230e-01
   outer loop
     vertex 4.9544517430e-01 0.0000000000e+00 8.6338852396e-01
     vertex 1.0000000000e+00 0.0000000000e+00 1.0000000000e+00
     vertex 4.9544517430e-01 6.1038817386e-01 6.1038817386e-01
   endloop
 endfacet
 facet normal  -2.4264684551e-01 3.7145896275e-01 8.9618120230e-01
   outer loop
     vertex 1.0000000000e+00 0.0000000000e+00 1.0000000000e+00
     vertex 1.0000000000e+00 7.0696813419e-01 7.0696813419e-01
     vertex 4.9544517430e-01 6.1038817386e-01 6.1038817386e-01
   endloop
 endfacet
 facet normal  -2.4264684551e-01 8.9618120230e-01 3.7145896275e-01
   outer loop
     vertex 4.9544517430e-01 6.1038817386e-01 6.1038817386e-01
     vertex 1.0000000000e+00 7.0696813419e-01 7.0696813419e-01
     vertex 4.9544517430e-01 8.6338852396e-01 0.0000000000e+00
   endloop
 endfacet
 facet normal  -2.4264684551e-01 8.9618120230e-01 3.7145896275e-01
   outer loop
     vertex 1.0000000000e+00 7.0696813419e-01 7.0696813419e-01
     vertex 1.0000000000e+00 1.0000000000e+00 0.0000000000e+00
     vertex 4.9544517430e-01 8.6338852396e-01 0.0000000000e+00
   endloop
 endfacet
 facet normal  2.4264684551e-01 8.9618120230e-01 -3.7145896275e-01
   outer loop
     vertex 1.0000000000e+00 1.0000000000e+00 0.0000000000e+00
     vertex 1.5045548257e+00 8.6338852396e-01 0.0000000000e+00
     vertex 1.5045548257e+00 6.1038817386e-01 -6.1038817386e-01
   endloop
 endfacet
 facet normal  2.4264684551e-01 8.9618120230e-01 -3.7145896275e-01
   outer loop
     vertex 1.0000000000e+00 1.0000000000e+00 0.0000000000e+00
     vertex 1.5045548257e+00 6.1038817386e-01 -6.1038817386e-01
     vertex 1.0000000000e+00 7.0696813419e-01 -7.0696813419e-01
   endloop
 endfacet
 facet normal  2.4264684551e-01 3.7145896275e-01 -8.9618120230e-01
   outer loop
     vertex 1.0000000000e+00 7.0696813419e-01 -7.0696813419e-01
     vertex 1.5045548257e+00 6.1038817386e-01 -6.1038817386e-01
     vertex 1.5045548257e+00 0.0000000000e+00 -8.6338852396e-01
   endloop
 endfacet
 facet normal  2.4264684551e-01 3.7145896275e-01 -8.9618120230e-01
   outer loop
     vertex 1.0000000000e+00 7.0696813419e-01 -7.0696813419e-01
     vertex 1.5045548257e+00 0.0000000000e+00 -8.6338852396e-01
     vertex 1.0000000000e+00 0.0000000000e+00 -1.0000000000e+00
   endloop
 endfacet
 facet normal  2.4264684551e-01 -3.7145896275e-01 -8.9618120230e-01
   outer loop
     vertex 1.0000000000e+00 0.0000000000e+00 -1.0000000000e+00
     vertex 1.5045548257e+00 0.0000000000e+00 -8.6338852396e-01
     vertex 1.0000000000e+00 -7.0696813419e-01 -7.0696813419e-01
   endloop
 endfacet
 facet normal  2.4264684551e-01 -3.7145896275e-01 -8.9618120230e-01
   outer loop
     vertex 1.5045548257e+00 0.0000000000e+00 -8.6338852396e-01
     vertex 1.5045548257e+00 -6.1038817386e-01 -6.1038817386e-01
     vertex 1.0000000000e+00 -7.0696813419e-01 -7.0696813419e-01
   endloop
 endfacet
 facet normal  2.4264684551e-01 -8.9618120230e-01 -3.7145896275e-01
   outer loop
     vertex 1.0000000000e+00 -7.0696813419e-01 -7.0696813419e-01
     vertex 1.5045548257e+00 -6.1038817386e-01 -6.1038817386e-01
     vertex 1.0000000000e+00 -1.0000000000e+00 0.0000000000e+00
   endloop
 endfacet
 facet normal  2.4264684551e-01 -8.9618120230e-01 -3.7145896275e-01
   outer loop
     vertex 1.5045548257e+00 -6.1038817386e-01 -6.1038817386e-01
     vertex 1.5045548257e+00 -8.6338852396e-01 0.0000000000e+00
     vertex 1.0000000000e+00 -1.0000000000e+00 0.0000000000e+00
   endloop
 endfacet
 facet normal  2.4264684551e-01 -8.9618120230e-01 3.7145896275e-01
   outer loop
     vertex 1.0000000000e+00 -1.0000000000e+00 0.0000000000e+00
     vertex 1.5045548257e+00 -8.6338852396e-01 0.0000000000e+00
     vertex 1.5045548257e+00 -6.1038817386e-01 6.1038817386e-01
   endloop
 endfacet
 facet normal  2.4264684551e-01 -8.9618120230e-01 3.7145896275e-01
   outer loop
     vertex 1.0000000000e+00 -1.0000000000e+00 0.0000000000e+00
     vertex 1.5045548257e+00 -6.1038817386e-01 6.1038817386e-01
     vertex 1.0000000000e+00 -7.0696813419e-01 7.0696813419e-01
   endloop
 endfacet
 facet normal  2.4264684551e-01 -3.7145896275e-01 8.9618120230e-01
   outer loop
     vertex 1.0000000000e+00 -7.0696813419e-01 7.0696813419e-01
     vertex 1.5045548257e+00 -6.1038817386e-01 6.1038817386e-01
     vertex 1.5045548257e+00 0.0000000000e+00 8.6338852396e-01
   endloop
 endfacet
 facet normal  2.4264684551e-01 -3.7145896275e-01 8.9618120230e-01
   outer loop
     vertex 1.0000000000e+00 -7.0696813419e-01 7.0696813419e-01
     vertex 1.5045548257e+00 0.0000000000e+00 8.6338852396e-01
     vertex 1.0000000000e+00 0.0000000000e+00 1.0000000000e+00
   endloop
 endfacet
 facet normal  2.4264684551e-01 3.7145896275e-01 8.9618120230e-01
   outer loop
     vertex 1.0000000000e+00 0.0000000000e+00 1.0000000000e+00
     vertex 1.5045548257e+00 0.0000000000e+00 8.6338852396e-01
     vertex 1.0000000000e+00 7.0696813419e-01 7.0696813419e-01
   endloop
 endfacet
 facet normal  2.4264684551e-01 3.7145896275e-01 8.9618120230e-01
   outer loop
     vertex 1.5045548257e+00 0.0000000000e+00 8.6338852396e-01
     vertex 1.5045548257e+00 6.1038817386e-01 6.1038817386e-01
     vertex 1.0000000000e+00 7.0696813419e-01 7.0696813419e-01
   endloop
 endfacet
 facet normal  2.4264684551e-01 8.9618120230e-01 3.7145896275e-01
   outer loop
     vertex 1.0000000000e+00 7.0696813419e-01 7.0696813419e-01
     vertex 1.5045548257e+00 6.1038817386e-01 6.1038817386e-01
     vertex 1.0000000000e+00 1.0000000000e+00 0.0000000000e+00
   endloop
 endfacet
 facet normal  2.4264684551e-01 8.9618120230e-01 3.7145896275e-01
   outer loop
     vertex 1.5045548257e+00 6.1038817386e-01 6.1038817386e-01
     vertex 1.5045548257e+00 8.6338852396e-01 0.0000000000e+00
     vertex 1.0000000000e+00 1.0000000000e+00 0.0000000000e+00
   endloop
 endfacet
 facet normal  6.7856243588e-01 6.7856243588e-01 -2.8125796205e-01
   outer loop
     vertex 1.5045548257e+00 8.6338852396e-01 0.0000000000e+00
     vertex 1.8633885240e+00 5.0455482570e-01 0.0000000000e+00
     vertex 1.8633885240e+00 3.5670418372e-01 -3.5670418372e-01
   endloop
 endfacet
 facet normal  6.7856243588e-01 6.7856243588e-01 -2.8125796205e-01
   outer loop
     vertex 1.5045548257e+00 8.6338852396e-01 0.0000000000e+00
     vertex 1.8633885240e+00 3.5670418372e-01 -3.5670418372e-01
     vertex 1.5045548257e+00 6.1038817386e-01 -6.1038817386e-01
   endloop
 endfacet
 facet normal  6.7856243588e-01 2.8125796205e-01 -6.7856243588e-01
   outer loop
     vertex 1.5045548257e+00 6.1038817386e-01 -6.1038817386e-01
     vertex 1.8633885240e+00 3.5670418372e-01 -3.5670418372e-01
     vertex 1.8633885240e+00 0.0000000000e+00 -5.0455482570e-01
   endloop
 endfacet
 facet normal  6.7856243588e-01 2.8125796205e-01 -6.7856243588e-01
   outer loop
     vertex 1.5045548257e+00 6.1038817386e-01 -6.1038817386e-01
     vertex 1.8633885240e+00 0.0000000000e+00 -5.0455482570e-01
     vertex 1.5045548257e+00 0.0000000000e+00 -8.6338852396e-01
   endloop
 endfacet
 facet normal  6.7856243588e-01 -2.8125796205e-01 -6.7856243588e-01
   outer loop
     vertex 1.5045548257e+00 0.0000000000e+00 -8.6338852396e-01
     vertex 1.8633885240e+00 0.0000000000e+00 -5.0455482570e-01
     vertex 1.5045548257e+00 -6.1038817386e-01 -6.1038817386e-01
   endloop
 endfacet
 facet normal  6.7856243588e-01 -2.8125796205e-01 -6.7856243588e-01
   outer loop
     vertex 1.8633885240e+00 0.0000000000e+00 -5.0455482570e-01
     vertex 1.8633885240e+00 -3.5670418372e-01 -3.5670418372e-01
     vertex 1.5045548257e+00 -6.1038817386e-01 -6.1038817386e-01
   endloop
 endfacet
 facet normal  6.7856243588e-01 -6.7856243588e-01 -2.8125796205e-01
   outer loop
     vertex 1.5045548257e+00 -6.1038817386e-01 -6.1038817386e-01
     vertex 1.8633885240e+00 -3.5670418372e-01 -3.5670418372e-01
     vertex 1.5045548257e+00 -8.6338852396e-01 0.0000000000e+00
   endloop
 endfacet
 facet normal  6.7856243588e-01 -6.7856243588e-01 -2.8125796205e-01
   outer loop
     vertex 1.8633885240e+00 -3.5670418372e-01 -3.5670418372e-01
     vertex 1.8633885240e+00 -5.0455482570e-01 0.0000000000e+00
     vertex 1.5045548257e+00 -8.6338852396e-01 0.0000000000e+00
   endloop
 endfacet
 facet normal  6.7856243588e-01 -6.7856243588e-01 2.8125796205e-01
   outer loop
     vertex 1.5045548257e+00 -8.6338852396e-01 0.0000000000e+00
     vertex 1.8633885240e+00 -5.0455482570e-01 0.0000000000e+00
     vertex 1.8633885240e+00 -3.5670418372e-01 3.5670418372e-01
   endloop
 endfacet
 facet normal  6.7856243588e-01 -6.7856243588e-01 2.8125796205e-01
   outer loop
     vertex 1.5045548257e+00 -8.6338852396e-01 0.0000000000e+00
     vertex 1.8633885240e+00 -3.5670418372e-01 3.5670418372e-01
     vertex 1.5045548257e+00 -6.1038817386e-01 6.1038817386e-01
   endloop
 endfacet
 facet normal  6.7856243588e-01 -2.8125796205e-01 6.7856243588e-01
   outer loop
     vertex 1.5045548257e+00 -6.1038817386e-01 6.1038817386e-01
     vertex 1.8633885240e+00 -3.5670418372e-01 3.5670418372e-01
     vertex 1.8633885240e+00 0.0000000000e+00 5.0455482570e-01
   endloop
 endfacet
 facet normal  6.7856243588e-01 -2.8125796205e-01 6.7856243588e-01
   outer loop
     vertex 1.5045548257e+00 -6.1038817386e-01 6.1038817386e-01
     vertex 1.8633885240e+00 0.0000000000e+00 5.0455482570e-01
     vertex 1.5045548257e+00 0.0000000000e+00 8.6338852396e-01
   endloop
 endfacet
 facet normal  6.7856243588e-01 2.8125796205e-01 6.7856243588e-01
   outer loop
     vertex 1.5045548257e+00 0.0000000000e+00 8.6338852396e-01
     vertex 1.8633885240e+00 0.0000000000e+00 5.0455482570e-01
     vertex 1.5045548257e+00 6.1038817386e-01 6.1038817386e-01
   endloop
 endfacet
 facet normal  6.7856243588e-01 2.8125796205e-01 6.7856243588e-01
   outer loop
     vertex 1.8633885240e+00 0.0000000000e+00 5.0455482570e-01
     vertex 1.8633885240e+00 3.5670418372e-01 3.5670418372e-01
     vertex 1.5045548257e+00 6.1038817386e-01 6.1038817386e-01
   endloop
 endfacet
 facet normal  6.7856243588e-01 6.7856243588e-01 2.8125796205e-01
   outer loop
     vertex 1.5045548257e+00 6.1038817386e-01 6.1038817386e-01
     vertex 1.8633885240e+00 3.5670418372e-01 3.5670418372e-01
     vertex 1.5045548257e+00 8.6338852396e-01 0.0000000000e+00
   endloop
 endfacet
 facet normal  6.7856243588e-01 6.7856243588e-01 2.8125796205e-01
   outer loop
     vertex 1.8633885240e+00 3.5670418372e-01 3.5670418372e-01
     vertex 1.8633885240e+00 5.0455482570e-01 0.0000000000e+00
     vertex 1.5045548257e+00 8.6338852396e-01 0.0000000000e+00
   endloop
 endfacet
 facet normal  9.5963114120e-01 2.5982632605e-01 -1.0769565052e-01
   outer loop
     vertex 1.8633885240e+00 5.0455482570e-01 0.0000000000e+00
     vertex 2.0000000000e+00 0.0000000000e+00 0.0000000000e+00
     vertex 1.8633885240e+00 3.5670418372e-01 -3.5670418372e-01
   endloop
 endfacet
 facet normal  9.5963114120e-01 1.0769565052e-01 -2.5982632605e-01
   outer loop
     vertex 1.8633885240e+00 3.5670418372e-01 -3.5670418372e-01
     vertex 2.0000000000e+00 0.0000000000e+00 0.0000000000e+00
     vertex 1.8633885240e+00 0.0000000000e+00 -5.0455482570e-01
   endloop
 endfacet
 facet normal  9.5963114120e-01 -1.0769565052e-01 -2.5982632605e-01
   outer loop
     vertex 1.8633885240e+00 0.0000000000e+00 -5.0455482570e-01
     vertex 2.0000000000e+00 0.0000000000e+00 0.0000000000e+00
     vertex 1.8633885240e+00 -3.5670418372e-01 -3.5670418372e-01
   endloop
 endfacet
 facet normal  9.5963114120e-01 -2.5982632605e-01 -1.0769565052e-01
   outer loop
     vertex 1.8633885240e+00 -3.5670418372e-01 -3.5670418372e-01
     vertex 2.0000000000e+00 0.0000000000e+00 0.0000000000e+00
     vertex 1.8633885240e+00 -5.0455482570e-01 0.0000000000e+00
   endloop
 endfacet
 facet normal  9.5963114120e-01 -2.5982632605e-01 1.0769565052e-01
   outer loop
     vertex 1.8633885240e+00 -5.0455482570e-01 0.0000000000e+00
     vertex 2.0000000000e+00 0.0000000000e+00 0.0000000000e+00
     vertex 1.8633885240e+00 -3.5670418372e-01 3.5670418372e-01
   endloop
 endfacet
 facet normal  9.5963114120e-01 -1.0769565052e-01 2.5982632605e-01
   outer loop
     vertex 1.8633885240e+00 -3.5670418372e-01 3.5670418372e-01
     vertex 2.0000000000e+00 0.0000000000e+00 0.0000000000e+00
     vertex 1.8633885240e+00 0.0000000000e+00 5.0455482570e-01
   endloop
 endfacet
 facet normal  9.5963114120e-01 1.0769565052e-01 2.5982632605e-01
   outer loop
     vertex 1.8633885240e+00 0.0000000000e+00 5.0455482570e-01
     vertex 2.0000000000e+00 0.0000000000e+00 0.0000000000e+00
     vertex 1.8633885240e+00 3.5670418372e-01 3.5670418372e-01
   endloop
 endfacet
 facet normal  9.5963114120e-01 2.5982632605e-01 1.0769565052e-01
   outer loop
     vertex 1.8633885240e+00 3.5670418372e-01 3.5670418372e-01
     vertex 2.0000000000e+00 0.0000000000e+00 0.0000000000e+00
     vertex 1.8633885240e+00 5.0455482570e-01 0.0000000000e+00
   endloop
 endfacet
endsolid
