solid
 facet normal  -3.7816894221e-01 9.1236968626e-01 -1.5674758928e-01
   outer loop
     vertex 0.0000000000e+00 1.3750000000e+00 0.0000000000e+00
     vertex -6.8723042129e-01 9.7208118450e-01 -6.8723042129e-01
     vertex -9.7208118450e-01 9.7208118450e-01 0.0000000000e+00
   endloop
 endfacet
 facet normal  -8.6270859492e-01 3.5758487123e-01 -3.5758487123e-01
   outer loop
     vertex -9.7208118450e-01 9.7208118450e-01 0.0000000000e+00
     vertex -6.8723042129e-01 9.7208118450e-01 -6.8723042129e-01
     vertex -9.7208118450e-01 0.0000000000e+00 -9.7208118450e-01
   endloop
 endfacet
 facet normal  -8.6270859492e-01 3.5758487123e-01 -3.5758487123e-01
   outer loop
     vertex -9.7208118450e-01 9.7208118450e-01 0.0000000000e+00
     vertex -9.7208118450e-01 0.0000000000e+00 -9.7208118450e-01
     vertex -1.3750000000e+00 0.0000000000e+00 0.0000000000e+00
   endloop
 endfacet
 facet normal  -8.6270859492e-01 -3.5758487123e-01 -3.5758487123e-01
   outer loop
     vertex -1.3750000000e+00 0.0000000000e+00 0.0000000000e+00
     vertex -9.7208118450e-01 0.0000000000e+00 -9.7208118450e-01
     vertex -9.7208118450e-01 -9.7208118450e-01 0.0000000000e+00
   endloop
 endfacet
 facet normal  -8.6270859492e-01 -3.5758487123e-01 -3.5758487123e-01
   outer loop
     vertex -9.7208118450e-01 0.0000000000e+00 -9.7208118450e-01
     vertex -6.8723042129e-01 -9.7208118450e-01 -6.8723042129e-01
     vertex -9.7208118450e-01 -9.7208118450e-01 0.0000000000e+00
   endloop
 endfacet
 facet normal  -3.7816894221e-01 -9.1236968626e-01 -1.5674758928e-01
   outer loop
     vertex -9.7208118450e-01 -9.7208118450e-01 0.0000000000e+00
     vertex -6.8723042129e-01 -9.7208118450e-01 -6.8723042129e-01
     vertex -4.5175090520e-21 -1.3750000000e+00 0.0000000000e+00
   endloop
 endfacet
 facet normal  -3.7816894221e-01 -9.1236968626e-01 1.5674758928e-01
   outer loop
     vertex -4.5175090520e-21 -1.3750000000e+00 0.0000000000e+00
     vertex -6.8723042129e-01 -9.7208118450e-01 6.8723042129e-01
     vertex -9.7208118450e-01 -9.7208118450e-01 0.0000000000e+00
   endloop
 endfacet
 facet normal  -8.6270859492e-01 -3.5758487123e-01 3.5758487123e-01
   outer loop
     vertex -9.7208118450e-01 -9.7208118450e-01 0.0000000000e+00
     vertex -6.8723042129e-01 -9.7208118450e-01 6.8723042129e-01
     vertex -9.7208118450e-01 0.0000000000e+00 9.7208118450e-01
   endloop
 endfacet
 facet normal  -8.6270859492e-01 -3.5758487123e-01 3.5758487123e-01
   outer loop
     vertex -9.7208118450e-01 -9.7208118450e-01 0.0000000000e+00
     vertex -9.7208118450e-01 0.0000000000e+00 9.7208118450e-01
     vertex -1.3750000000e+00 0.0000000000e+00 0.0000000000e+00
   endloop
 endfacet
 facet normal  -8.6270859492e-01 3.5758487123e-01 3.5758487123e-01
   outer loop
     vertex -1.3750000000e+00 0.0000000000e+00 0.0000000000e+00
     vertex -9.7208118450e-01 0.0000000000e+00 9.7208118450e-01
     vertex -9.7208118450e-01 9.7208118450e-01 0.0000000000e+00
   endloop
 endfacet
 facet normal  -8.6270859492e-01 3.5758487123e-01 3.5758487123e-01
   outer loop
     vertex -9.7208118450e-01 0.0000000000e+00 9.7208118450e-01
     vertex -6.8723042129e-01 9.7208118450e-01 6.8723042129e-01
     vertex -9.7208118450e-01 9.7208118450e-01 0.0000000000e+00
   endloop
 endfacet
 facet normal  -3.7816894221e-01 9.1236968626e-01 1.5674758928e-01
   outer loop
     vertex -9.7208118450e-01 9.7208118450e-01 0.0000000000e+00
     vertex -6.8723042129e-01 9.7208118450e-01 6.8723042129e-01
     vertex 0.0000000000e+00 1.3750000000e+00 0.0000000000e+00
   endloop
 endfacet
 facet normal  -1.5674758928e-01 9.1236968626e-01 -3.7816894221e-01
   outer loop
     vertex 0.0000000000e+00 1.3750000000e+00 0.0000000000e+00
     vertex -4.5175090520e-21 9.7208118450e-01 -9.7208118450e-01
     vertex -6.8723042129e-01 9.7208118450e-01 -6.8723042129e-01
   endloop
 endfacet
 facet normal  -3.5758487123e-01 3.5758487123e-01 -8.6270859492e-01
   outer loop
     vertex -6.8723042129e-01 9.7208118450e-01 -6.8723042129e-01
     vertex -4.5175090520e-21 9.7208118450e-01 -9.7208118450e-01
     vertex 0.0000000000e+00 0.0000000000e+00 -1.3750000000e+00
   endloop
 endfacet
 facet normal  -3.5758487123e-01 3.5758487123e-01 -8.6270859492e-01
   outer loop
     vertex -6.8723042129e-01 9.7208118450e-01 -6.8723042129e-01
     vertex 0.0000000000e+00 0.0000000000e+00 -1.3750000000e+00
     vertex -9.7208118450e-01 0.0000000000e+00 -9.7208118450e-01
   endloop
 endfacet
 facet normal  -3.5758487123e-01 -3.5758487123e-01 -8.6270859492e-01
   outer loop
     vertex -9.7208118450e-01 0.0000000000e+00 -9.7208118450e-01
     vertex 0.0000000000e+00 0.0000000000e+00 -1.3750000000e+00
     vertex -6.8723042129e-01 -9.7208118450e-01 -6.8723042129e-01
   endloop
 endfacet
 facet normal  -3.5758487123e-01 -3.5758487123e-01 -8.6270859492e-01
   outer loop
     vertex 0.0000000000e+00 0.0000000000e+00 -1.3750000000e+00
     vertex 0.0000000000e+00 -9.7208118450e-01 -9.7208118450e-01
     vertex -6.8723042129e-01 -9.7208118450e-01 -6.8723042129e-01
   endloop
 endfacet
 facet normal  -1.5674758928e-01 -9.1236968626e-01 -3.7816894221e-01
   outer loop
     vertex -6.8723042129e-01 -9.7208118450e-01 -6.8723042129e-01
     vertex 0.0000000000e+00 -9.7208118450e-01 -9.7208118450e-01
     vertex -4.5175090520e-21 -1.3750000000e+00 0.0000000000e+00
   endloop
 endfacet
 facet normal  -1.5674758928e-01 -9.1236968626e-01 3.7816894221e-01
   outer loop
     vertex -4.5175090520e-21 -1.3750000000e+00 0.0000000000e+00
     vertex -4.5175090520e-21 -9.7208118450e-01 9.7208118450e-01
     vertex -6.8723042129e-01 -9.7208118450e-01 6.8723042129e-01
   endloop
 endfacet
 facet normal  -3.5758487123e-01 -3.5758487123e-01 8.6270859492e-01
   outer loop
     vertex -6.8723042129e-01 -9.7208118450e-01 6.8723042129e-01
     vertex -4.5175090520e-21 -9.7208118450e-01 9.7208118450e-01
     vertex -4.5175090520e-21 0.0000000000e+00 1.3750000000e+00
   endloop
 endfacet
 facet normal  -3.5758487123e-01 -3.5758487123e-01 8.6270859492e-01
   outer loop
     vertex -6.8723042129e-01 -9.7208118450e-01 6.8723042129e-01
     vertex -4.5175090520e-21 0.0000000000e+00 1.3750000000e+00
     vertex -9.7208118450e-01 0.0000000000e+00 9.7208118450e-01
   endloop
 endfacet
 facet normal  -3.5758487123e-01 3.5758487123e-01 8.6270859492e-01
   outer loop
     vertex -9.7208118450e-01 0.0000000000e+00 9.7208118450e-01
     vertex -4.5175090520e-21 0.0000000000e+00 1.3750000000e+00
     vertex -6.8723042129e-01 9.7208118450e-01 6.8723042129e-01
   endloop
 endfacet
 facet normal  -3.5758487123e-01 3.5758487123e-01 8.6270859492e-01
   outer loop
     vertex -4.5175090520e-21 0.0000000000e+00 1.3750000000e+00
     vertex -4.5175090520e-21 9.7208118450e-01 9.7208118450e-01
     vertex -6.8723042129e-01 9.7208118450e-01 6.8723042129e-01
   endloop
 endfacet
 facet normal  -1.5674758928e-01 9.1236968626e-01 3.7816894221e-01
   outer loop
     vertex -6.8723042129e-01 9.7208118450e-01 6.8723042129e-01
     vertex -4.5175090520e-21 9.7208118450e-01 9.7208118450e-01
     vertex 0.0000000000e+00 1.3750000000e+00 0.0000000000e+00
   endloop
 endfacet
 facet normal  0.0000000000e+00 9.2378892223e-01 -3.8290211172e-01
   outer loop
     vertex 0.0000000000e+00 1.3750000000e+00 0.0000000000e+00
     vertex 9.6010400000e-06 1.3750000000e+00 0.0000000000e+00
     vertex 9.6010400000e-06 9.7208118450e-01 -9.7208118450e-01
   endloop
 endfacet
 facet normal  0.0000000000e+00 9.2378892223e-01 -3.8290211172e-01
   outer loop
     vertex 0.0000000000e+00 1.3750000000e+00 0.0000000000e+00
     vertex 9.6010400000e-06 9.7208118450e-01 -9.7208118450e-01
     vertex -4.5175090520e-21 9.7208118450e-01 -9.7208118450e-01
   endloop
 endfacet
 facet normal  0.0000000000e+00 3.8290211172e-01 -9.2378892223e-01
   outer loop
     vertex -4.5175090520e-21 9.7208118450e-01 -9.7208118450e-01
     vertex 9.6010400000e-06 9.7208118450e-01 -9.7208118450e-01
     vertex 9.6010400000e-06 0.0000000000e+00 -1.3750000000e+00
   endloop
 endfacet
 facet normal  0.0000000000e+00 3.8290211172e-01 -9.2378892223e-01
   outer loop
     vertex -4.5175090520e-21 9.7208118450e-01 -9.7208118450e-01
     vertex 9.6010400000e-06 0.0000000000e+00 -1.3750000000e+00
     vertex 0.0000000000e+00 0.0000000000e+00 -1.3750000000e+00
   endloop
 endfacet
 facet normal  -0.0000000000e+00 -3.8290211172e-01 -9.2378892223e-01
   outer loop
     vertex 0.0000000000e+00 0.0000000000e+00 -1.3750000000e+00
     vertex 9.6010400000e-06 0.0000000000e+00 -1.3750000000e+00
     vertex 0.0000000000e+00 -9.7208118450e-01 -9.7208118450e-01
   endloop
 endfacet
 facet normal  -0.0000000000e+00 -3.8290211172e-01 -9.2378892223e-01
   outer loop
     vertex 9.6010400000e-06 0.0000000000e+00 -1.3750000000e+00
     vertex 9.6010400000e-06 -9.7208118450e-01 -9.7208118450e-01
     vertex 0.0000000000e+00 -9.7208118450e-01 -9.7208118450e-01
   endloop
 endfacet
 facet normal  -0.0000000000e+00 -9.2378892223e-01 -3.8290211172e-01
   outer loop
     vertex 0.0000000000e+00 -9.7208118450e-01 -9.7208118450e-01
     vertex 9.6010400000e-06 -9.7208118450e-01 -9.7208118450e-01
     vertex -4.5175090520e-21 -1.3750000000e+00 0.0000000000e+00
   endloop
 endfacet
 facet normal  -0.0000000000e+00 -9.2378892223e-01 -3.8290211172e-01
   outer loop
     vertex 9.6010400000e-06 -9.7208118450e-01 -9.7208118450e-01
     vertex 9.6010400000e-06 -1.3750000000e+00 0.0000000000e+00
     vertex -4.5175090520e-21 -1.3750000000e+00 0.0000000000e+00
   endloop
 endfacet
 facet normal  0.0000000000e+00 -9.2378892223e-01 3.8290211172e-01
   outer loop
     vertex -4.5175090520e-21 -1.3750000000e+00 0.0000000000e+00
     vertex 9.6010400000e-06 -1.3750000000e+00 0.0000000000e+00
     vertex 9.6010400000e-06 -9.7208118450e-01 9.7208118450e-01
   endloop
 endfacet
 facet normal  0.0000000000e+00 -9.2378892223e-01 3.8290211172e-01
   outer loop
     vertex -4.5175090520e-21 -1.3750000000e+00 0.0000000000e+00
     vertex 9.6010400000e-06 -9.7208118450e-01 9.7208118450e-01
     vertex -4.5175090520e-21 -9.7208118450e-01 9.7208118450e-01
   endloop
 endfacet
 facet normal  0.0000000000e+00 -3.8290211172e-01 9.2378892223e-01
   outer loop
     vertex -4.5175090520e-21 -9.7208118450e-01 9.7208118450e-01
     vertex 9.6010400000e-06 -9.7208118450e-01 9.7208118450e-01
     vertex 9.6010400000e-06 0.0000000000e+00 1.3750000000e+00
   endloop
 endfacet
 facet normal  0.0000000000e+00 -3.8290211172e-01 9.2378892223e-01
   outer loop
     vertex -4.5175090520e-21 -9.7208118450e-01 9.7208118450e-01
     vertex 9.6010400000e-06 0.0000000000e+00 1.3750000000e+00
     vertex -4.5175090520e-21 0.0000000000e+00 1.3750000000e+00
   endloop
 endfacet
 facet normal  0.0000000000e+00 3.8290211172e-01 9.2378892223e-01
   outer loop
     vertex -4.5175090520e-21 0.0000000000e+00 1.3750000000e+00
     vertex 9.6010400000e-06 0.0000000000e+00 1.3750000000e+00
     vertex -4.5175090520e-21 9.7208118450e-01 9.7208118450e-01
   endloop
 endfacet
 facet normal  0.0000000000e+00 3.8290211172e-01 9.2378892223e-01
   outer loop
     vertex 9.6010400000e-06 0.0000000000e+00 1.3750000000e+00
     vertex 9.6010400000e-06 9.7208118450e-01 9.7208118450e-01
     vertex -4.5175090520e-21 9.7208118450e-01 9.7208118450e-01
   endloop
 endfacet
 facet normal  0.0000000000e+00 9.2378892223e-01 3.8290211172e-01
   outer loop
     vertex -4.5175090520e-21 9.7208118450e-01 9.7208118450e-01
     vertex 9.6010400000e-06 9.7208118450e-01 9.7208118450e-01
     vertex 0.0000000000e+00 1.3750000000e+00 0.0000000000e+00
   endloop
 endfacet
 facet normal  0.0000000000e+00 9.2378892223e-01 3.8290211172e-01
   outer loop
     vertex 9.6010400000e-06 9.7208118450e-01 9.7208118450e-01
     vertex 9.6010400000e-06 1.3750000000e+00 0.0000000000e+00
     vertex 0.0000000000e+00 1.3750000000e+00 0.0000000000e+00
   endloop
 endfacet
 facet normal  0.0000000000e+00 -9.2378892223e-01 3.8290211172e-01
   outer loop
     vertex 9.6010400000e-06 1.3750000000e+00 0.0000000000e+00
     vertex 4.8035200000e-06 1.3750000000e+00 0.0000000000e+00
     vertex 4.8035200000e-06 9.7208118450e-01 -9.7208118450e-01
   endloop
 endfacet
 facet normal  8.8609685965e-12 -9.2378892223e-01 3.8290211172e-01
   outer loop
     vertex 9.6010400000e-06 1.3750000000e+00 0.0000000000e+00
     vertex 4.8035200000e-06 9.7208118450e-01 -9.7208118450e-01
     vertex 9.6010400000e-06 9.7208118450e-01 -9.7208118450e-01
   endloop
 endfacet
 facet normal  2.1377956347e-11 -3.8290211172e-01 9.2378892223e-01
   outer loop
     vertex 9.6010400000e-06 9.7208118450e-01 -9.7208118450e-01
     vertex 4.8035200000e-06 9.7208118450e-01 -9.7208118450e-01
     vertex 4.8035200000e-06 0.0000000000e+00 -1.3750000000e+00
   endloop
 endfacet
 facet normal  0.0000000000e+00 -3.8290211172e-01 9.2378892223e-01
   outer loop
     vertex 9.6010400000e-06 9.7208118450e-01 -9.7208118450e-01
     vertex 4.8035200000e-06 0.0000000000e+00 -1.3750000000e+00
     vertex 9.6010400000e-06 0.0000000000e+00 -1.3750000000e+00
   endloop
 endfacet
 facet normal  -0.0000000000e+00 3.8290211172e-01 9.2378892223e-01
   outer loop
     vertex 9.6010400000e-06 0.0000000000e+00 -1.3750000000e+00
     vertex 4.8035200000e-06 0.0000000000e+00 -1.3750000000e+00
     vertex 9.6010400000e-06 -9.7208118450e-01 -9.7208118450e-01
   endloop
 endfacet
 facet normal  2.1377956347e-11 3.8290211172e-01 9.2378892223e-01
   outer loop
     vertex 4.8035200000e-06 0.0000000000e+00 -1.3750000000e+00
     vertex 4.8035200000e-06 -9.7208118450e-01 -9.7208118450e-01
     vertex 9.6010400000e-06 -9.7208118450e-01 -9.7208118450e-01
   endloop
 endfacet
 facet normal  8.8609685965e-12 9.2378892223e-01 3.8290211172e-01
   outer loop
     vertex 9.6010400000e-06 -9.7208118450e-01 -9.7208118450e-01
     vertex 4.8035200000e-06 -9.7208118450e-01 -9.7208118450e-01
     vertex 9.6010400000e-06 -1.3750000000e+00 0.0000000000e+00
   endloop
 endfacet
 facet normal  -0.0000000000e+00 9.2378892223e-01 3.8290211172e-01
   outer loop
     vertex 4.8035200000e-06 -9.7208118450e-01 -9.7208118450e-01
     vertex 4.8035200000e-06 -1.3750000000e+00 0.0000000000e+00
     vertex 9.6010400000e-06 -1.3750000000e+00 0.0000000000e+00
   endloop
 endfacet
 facet normal  0.0000000000e+00 9.2378892223e-01 -3.8290211172e-01
   outer loop
     vertex 9.6010400000e-06 -1.3750000000e+00 0.0000000000e+00
     vertex 4.8035200000e-06 -1.3750000000e+00 0.0000000000e+00
     vertex 4.8035200000e-06 -9.7208118450e-01 9.7208118450e-01
   endloop
 endfacet
 facet normal  8.8609685965e-12 9.2378892223e-01 -3.8290211172e-01
   outer loop
     vertex 9.6010400000e-06 -1.3750000000e+00 0.0000000000e+00
     vertex 4.8035200000e-06 -9.7208118450e-01 9.7208118450e-01
     vertex 9.6010400000e-06 -9.7208118450e-01 9.7208118450e-01
   endloop
 endfacet
 facet normal  2.1377956347e-11 3.8290211172e-01 -9.2378892223e-01
   outer loop
     vertex 9.6010400000e-06 -9.7208118450e-01 9.7208118450e-01
     vertex 4.8035200000e-06 -9.7208118450e-01 9.7208118450e-01
     vertex 4.8035200000e-06 0.0000000000e+00 1.3750000000e+00
   endloop
 endfacet
 facet normal  0.0000000000e+00 3.8290211172e-01 -9.2378892223e-01
   outer loop
     vertex 9.6010400000e-06 -9.7208118450e-01 9.7208118450e-01
     vertex 4.8035200000e-06 0.0000000000e+00 1.3750000000e+00
     vertex 9.6010400000e-06 0.0000000000e+00 1.3750000000e+00
   endloop
 endfacet
 facet normal  0.0000000000e+00 -3.8290211172e-01 -9.2378892223e-01
   outer loop
     vertex 9.6010400000e-06 0.0000000000e+00 1.3750000000e+00
     vertex 4.8035200000e-06 0.0000000000e+00 1.3750000000e+00
     vertex 9.6010400000e-06 9.7208118450e-01 9.7208118450e-01
   endloop
 endfacet
 facet normal  2.1377956347e-11 -3.8290211172e-01 -9.2378892223e-01
   outer loop
     vertex 4.8035200000e-06 0.0000000000e+00 1.3750000000e+00
     vertex 4.8035200000e-06 9.7208118450e-01 9.7208118450e-01
     vertex 9.6010400000e-06 9.7208118450e-01 9.7208118450e-01
   endloop
 endfacet
 facet normal  8.8609685965e-12 -9.2378892223e-01 -3.8290211172e-01
   outer loop
     vertex 9.6010400000e-06 9.7208118450e-01 9.7208118450e-01
     vertex 4.8035200000e-06 9.7208118450e-01 9.7208118450e-01
     vertex 9.6010400000e-06 1.3750000000e+00 0.0000000000e+00
   endloop
 endfacet
 facet normal  0.0000000000e+00 -9.2378892223e-01 -3.8290211172e-01
   outer loop
     vertex 4.8035200000e-06 9.7208118450e-01 9.7208118450e-01
     vertex 4.8035200000e-06 1.3750000000e+00 0.0000000000e+00
     vertex 9.6010400000e-06 1.3750000000e+00 0.0000000000e+00
   endloop
 endfacet
 facet normal  0.0000000000e+00 -9.2378892223e-01 3.8290211172e-01
   outer loop
     vertex 4.8035200000e-06 1.3750000000e+00 0.0000000000e+00
     vertex -4.7935200000e-06 1.3750000000e+00 0.0000000000e+00
     vertex -4.7935200000e-06 9.7208118450e-01 -9.7208118450e-01
   endloop
 endfacet
 facet normal  0.0000000000e+00 -9.2378892223e-01 3.8290211172e-01
   outer loop
     vertex 4.8035200000e-06 1.3750000000e+00 0.0000000000e+00
     vertex -4.7935200000e-06 9.7208118450e-01 -9.7208118450e-01
     vertex 4.8035200000e-06 9.7208118450e-01 -9.7208118450e-01
   endloop
 endfacet
 facet normal  0.0000000000e+00 -3.8290211172e-01 9.2378892223e-01
   outer loop
     vertex 4.8035200000e-06 9.7208118450e-01 -9.7208118450e-01
     vertex -4.7935200000e-06 9.7208118450e-01 -9.7208118450e-01
     vertex -4.7935200000e-06 0.0000000000e+00 -1.3750000000e+00
   endloop
 endfacet
 facet normal  0.0000000000e+00 -3.8290211172e-01 9.2378892223e-01
   outer loop
     vertex 4.8035200000e-06 9.7208118450e-01 -9.7208118450e-01
     vertex -4.7935200000e-06 0.0000000000e+00 -1.3750000000e+00
     vertex 4.8035200000e-06 0.0000000000e+00 -1.3750000000e+00
   endloop
 endfacet
 facet normal  -0.0000000000e+00 3.8290211172e-01 9.2378892223e-01
   outer loop
     vertex 4.8035200000e-06 0.0000000000e+00 -1.3750000000e+00
     vertex -4.7935200000e-06 0.0000000000e+00 -1.3750000000e+00
     vertex 4.8035200000e-06 -9.7208118450e-01 -9.7208118450e-01
   endloop
 endfacet
 facet normal  -0.0000000000e+00 3.8290211172e-01 9.2378892223e-01
   outer loop
     vertex -4.7935200000e-06 0.0000000000e+00 -1.3750000000e+00
     vertex -4.7935200000e-06 -9.7208118450e-01 -9.7208118450e-01
     vertex 4.8035200000e-06 -9.7208118450e-01 -9.7208118450e-01
   endloop
 endfacet
 facet normal  -0.0000000000e+00 9.2378892223e-01 3.8290211172e-01
   outer loop
     vertex 4.8035200000e-06 -9.7208118450e-01 -9.7208118450e-01
     vertex -4.7935200000e-06 -9.7208118450e-01 -9.7208118450e-01
     vertex 4.8035200000e-06 -1.3750000000e+00 0.0000000000e+00
   endloop
 endfacet
 facet normal  -0.0000000000e+00 9.2378892223e-01 3.8290211172e-01
   outer loop
     vertex -4.7935200000e-06 -9.7208118450e-01 -9.7208118450e-01
     vertex -4.7935200000e-06 -1.3750000000e+00 0.0000000000e+00
     vertex 4.8035200000e-06 -1.3750000000e+00 0.0000000000e+00
   endloop
 endfacet
 facet normal  0.0000000000e+00 9.2378892223e-01 -3.8290211172e-01
   outer loop
     vertex 4.8035200000e-06 -1.3750000000e+00 0.0000000000e+00
     vertex -4.7935200000e-06 -1.3750000000e+00 0.0000000000e+00
     vertex -4.7935200000e-06 -9.7208118450e-01 9.7208118450e-01
   endloop
 endfacet
 facet normal  0.0000000000e+00 9.2378892223e-01 -3.8290211172e-01
   outer loop
     vertex 4.8035200000e-06 -1.3750000000e+00 0.0000000000e+00
     vertex -4.7935200000e-06 -9.7208118450e-01 9.7208118450e-01
     vertex 4.8035200000e-06 -9.7208118450e-01 9.7208118450e-01
   endloop
 endfacet
 facet normal  0.0000000000e+00 3.8290211172e-01 -9.2378892223e-01
   outer loop
     vertex 4.8035200000e-06 -9.7208118450e-01 9.7208118450e-01
     vertex -4.7935200000e-06 -9.7208118450e-01 9.7208118450e-01
     vertex -4.7935200000e-06 0.0000000000e+00 1.3750000000e+00
   endloop
 endfacet
 facet normal  0.0000000000e+00 3.8290211172e-01 -9.2378892223e-01
   outer loop
     vertex 4.8035200000e-06 -9.7208118450e-01 9.7208118450e-01
     vertex -4.7935200000e-06 0.0000000000e+00 1.3750000000e+00
     vertex 4.8035200000e-06 0.0000000000e+00 1.3750000000e+00
   endloop
 endfacet
 facet normal  0.0000000000e+00 -3.8290211172e-01 -9.2378892223e-01
   outer loop
     vertex 4.8035200000e-06 0.0000000000e+00 1.3750000000e+00
     vertex -4.7935200000e-06 0.0000000000e+00 1.3750000000e+00
     vertex 4.8035200000e-06 9.7208118450e-01 9.7208118450e-01
   endloop
 endfacet
 facet normal  0.0000000000e+00 -3.8290211172e-01 -9.2378892223e-01
   outer loop
     vertex -4.7935200000e-06 0.0000000000e+00 1.3750000000e+00
     vertex -4.7935200000e-06 9.7208118450e-01 9.7208118450e-01
     vertex 4.8035200000e-06 9.7208118450e-01 9.7208118450e-01
   endloop
 endfacet
 facet normal  0.0000000000e+00 -9.2378892223e-01 -3.8290211172e-01
   outer loop
     vertex 4.8035200000e-06 9.7208118450e-01 9.7208118450e-01
     vertex -4.7935200000e-06 9.7208118450e-01 9.7208118450e-01
     vertex 4.8035200000e-06 1.3750000000e+00 0.0000000000e+00
   endloop
 endfacet
 facet normal  0.0000000000e+00 -9.2378892223e-01 -3.8290211172e-01
   outer loop
     vertex -4.7935200000e-06 9.7208118450e-01 9.7208118450e-01
     vertex -4.7935200000e-06 1.3750000000e+00 0.0000000000e+00
     vertex 4.8035200000e-06 1.3750000000e+00 0.0000000000e+00
   endloop
 endfacet
 facet normal  0.0000000000e+00 -9.2378892223e-01 3.8290211172e-01
   outer loop
     vertex -4.7935200000e-06 1.3750000000e+00 0.0000000000e+00
     vertex -9.5910400000e-06 1.3750000000e+00 0.0000000000e+00
     vertex -9.5910400000e-06 9.7208118450e-01 -9.7208118450e-01
   endloop
 endfacet
 facet normal  -8.8609685965e-12 -9.2378892223e-01 3.8290211172e-01
   outer loop
     vertex -4.7935200000e-06 1.3750000000e+00 0.0000000000e+00
     vertex -9.5910400000e-06 9.7208118450e-01 -9.7208118450e-01
     vertex -4.7935200000e-06 9.7208118450e-01 -9.7208118450e-01
   endloop
 endfacet
 facet normal  -2.1377956347e-11 -3.8290211172e-01 9.2378892223e-01
   outer loop
     vertex -4.7935200000e-06 9.7208118450e-01 -9.7208118450e-01
     vertex -9.5910400000e-06 9.7208118450e-01 -9.7208118450e-01
     vertex -9.5910400000e-06 0.0000000000e+00 -1.3750000000e+00
   endloop
 endfacet
 facet normal  0.0000000000e+00 -3.8290211172e-01 9.2378892223e-01
   outer loop
     vertex -4.7935200000e-06 9.7208118450e-01 -9.7208118450e-01
     vertex -9.5910400000e-06 0.0000000000e+00 -1.3750000000e+00
     vertex -4.7935200000e-06 0.0000000000e+00 -1.3750000000e+00
   endloop
 endfacet
 facet normal  -0.0000000000e+00 3.8290211172e-01 9.2378892223e-01
   outer loop
     vertex -4.7935200000e-06 0.0000000000e+00 -1.3750000000e+00
     vertex -9.5910400000e-06 0.0000000000e+00 -1.3750000000e+00
     vertex -4.7935200000e-06 -9.7208118450e-01 -9.7208118450e-01
   endloop
 endfacet
 facet normal  -2.1377956347e-11 3.8290211172e-01 9.2378892223e-01
   outer loop
     vertex -9.5910400000e-06 0.0000000000e+00 -1.3750000000e+00
     vertex -9.5910400000e-06 -9.7208118450e-01 -9.7208118450e-01
     vertex -4.7935200000e-06 -9.7208118450e-01 -9.7208118450e-01
   endloop
 endfacet
 facet normal  -8.8609685965e-12 9.2378892223e-01 3.8290211172e-01
   outer loop
     vertex -4.7935200000e-06 -9.7208118450e-01 -9.7208118450e-01
     vertex -9.5910400000e-06 -9.7208118450e-01 -9.7208118450e-01
     vertex -4.7935200000e-06 -1.3750000000e+00 0.0000000000e+00
   endloop
 endfacet
 facet normal  -0.0000000000e+00 9.2378892223e-01 3.8290211172e-01
   outer loop
     vertex -9.5910400000e-06 -9.7208118450e-01 -9.7208118450e-01
     vertex -9.5910400000e-06 -1.3750000000e+00 0.0000000000e+00
     vertex -4.7935200000e-06 -1.3750000000e+00 0.0000000000e+00
   endloop
 endfacet
 facet normal  0.0000000000e+00 9.2378892223e-01 -3.8290211172e-01
   outer loop
     vertex -4.7935200000e-06 -1.3750000000e+00 0.0000000000e+00
     vertex -9.5910400000e-06 -1.3750000000e+00 0.0000000000e+00
     vertex -9.5910400000e-06 -9.7208118450e-01 9.7208118450e-01
   endloop
 endfacet
 facet normal  -8.8609685965e-12 9.2378892223e-01 -3.8290211172e-01
   outer loop
     vertex -4.7935200000e-06 -1.3750000000e+00 0.0000000000e+00
     vertex -9.5910400000e-06 -9.7208118450e-01 9.7208118450e-01
     vertex -4.7935200000e-06 -9.7208118450e-01 9.7208118450e-01
   endloop
 endfacet
 facet normal  -2.1377956347e-11 3.8290211172e-01 -9.2378892223e-01
   outer loop
     vertex -4.7935200000e-06 -9.7208118450e-01 9.7208118450e-01
     vertex -9.5910400000e-06 -9.7208118450e-01 9.7208118450e-01
     vertex -9.5910400000e-06 0.0000000000e+00 1.3750000000e+00
   endloop
 endfacet
 facet normal  0.0000000000e+00 3.8290211172e-01 -9.2378892223e-01
   outer loop
     vertex -4.7935200000e-06 -9.7208118450e-01 9.7208118450e-01
     vertex -9.5910400000e-06 0.0000000000e+00 1.3750000000e+00
     vertex -4.7935200000e-06 0.0000000000e+00 1.3750000000e+00
   endloop
 endfacet
 facet normal  0.0000000000e+00 -3.8290211172e-01 -9.2378892223e-01
   outer loop
     vertex -4.7935200000e-06 0.0000000000e+00 1.3750000000e+00
     vertex -9.5910400000e-06 0.0000000000e+00 1.3750000000e+00
     vertex -4.7935200000e-06 9.7208118450e-01 9.7208118450e-01
   endloop
 endfacet
 facet normal  -2.1377956347e-11 -3.8290211172e-01 -9.2378892223e-01
   outer loop
     vertex -9.5910400000e-06 0.0000000000e+00 1.3750000000e+00
     vertex -9.5910400000e-06 9.7208118450e-01 9.7208118450e-01
     vertex -4.7935200000e-06 9.7208118450e-01 9.7208118450e-01
   endloop
 endfacet
 facet normal  -8.8609685965e-12 -9.2378892223e-01 -3.8290211172e-01
   outer loop
     vertex -4.7935200000e-06 9.7208118450e-01 9.7208118450e-01
     vertex -9.5910400000e-06 9.7208118450e-01 9.7208118450e-01
     vertex -4.7935200000e-06 1.3750000000e+00 0.0000000000e+00
   endloop
 endfacet
 facet normal  0.0000000000e+00 -9.2378892223e-01 -3.8290211172e-01
   outer loop
     vertex -9.5910400000e-06 9.7208118450e-01 9.7208118450e-01
     vertex -9.5910400000e-06 1.3750000000e+00 0.0000000000e+00
     vertex -4.7935200000e-06 1.3750000000e+00 0.0000000000e+00
   endloop
 endfacet
 facet normal  0.0000000000e+00 9.2378892223e-01 -3.8290211172e-01
   outer loop
     vertex -9.5910400000e-06 1.3750000000e+00 0.0000000000e+00
     vertex 1.0000000000e-08 1.3750000000e+00 0.0000000000e+00
     vertex 1.0000000000e-08 9.7208118450e-01 -9.7208118450e-01
   endloop
 endfacet
 facet normal  0.0000000000e+00 9.2378892223e-01 -3.8290211172e-01
   outer loop
     vertex -9.5910400000e-06 1.3750000000e+00 0.0000000000e+00
     vertex 1.0000000000e-08 9.7208118450e-01 -9.7208118450e-01
     vertex -9.5910400000e-06 9.7208118450e-01 -9.7208118450e-01
   endloop
 endfacet
 facet normal  0.0000000000e+00 3.8290211172e-01 -9.2378892223e-01
   outer loop
     vertex -9.5910400000e-06 9.7208118450e-01 -9.7208118450e-01
     vertex 1.0000000000e-08 9.7208118450e-01 -9.7208118450e-01
     vertex 1.0000000000e-08 0.0000000000e+00 -1.3750000000e+00
   endloop
 endfacet
 facet normal  0.0000000000e+00 3.8290211172e-01 -9.2378892223e-01
   outer loop
     vertex -9.5910400000e-06 9.7208118450e-01 -9.7208118450e-01
     vertex 1.0000000000e-08 0.0000000000e+00 -1.3750000000e+00
     vertex -9.5910400000e-06 0.0000000000e+00 -1.3750000000e+00
   endloop
 endfacet
 facet normal  -0.0000000000e+00 -3.8290211172e-01 -9.2378892223e-01
   outer loop
     vertex -9.5910400000e-06 0.0000000000e+00 -1.3750000000e+00
     vertex 1.0000000000e-08 0.0000000000e+00 -1.3750000000e+00
     vertex -9.5910400000e-06 -9.7208118450e-01 -9.7208118450e-01
   endloop
 endfacet
 facet normal  -0.0000000000e+00 -3.8290211172e-01 -9.2378892223e-01
   outer loop
     vertex 1.0000000000e-08 0.0000000000e+00 -1.3750000000e+00
     vertex 1.0000000000e-08 -9.7208118450e-01 -9.7208118450e-01
     vertex -9.5910400000e-06 -9.7208118450e-01 -9.7208118450e-01
   endloop
 endfacet
 facet normal  -0.0000000000e+00 -9.2378892223e-01 -3.8290211172e-01
   outer loop
     vertex -9.5910400000e-06 -9.7208118450e-01 -9.7208118450e-01
     vertex 1.0000000000e-08 -9.7208118450e-01 -9.7208118450e-01
     vertex -9.5910400000e-06 -1.3750000000e+00 0.0000000000e+00
   endloop
 endfacet
 facet normal  -0.0000000000e+00 -9.2378892223e-01 -3.8290211172e-01
   outer loop
     vertex 1.0000000000e-08 -9.7208118450e-01 -9.7208118450e-01
     vertex 1.0000000000e-08 -1.3750000000e+00 0.0000000000e+00
     vertex -9.5910400000e-06 -1.3750000000e+00 0.0000000000e+00
   endloop
 endfacet
 facet normal  0.0000000000e+00 -9.2378892223e-01 3.8290211172e-01
   outer loop
     vertex -9.5910400000e-06 -1.3750000000e+00 0.0000000000e+00
     vertex 1.0000000000e-08 -1.3750000000e+00 0.0000000000e+00
     vertex 1.0000000000e-08 -9.7208118450e-01 9.7208118450e-01
   endloop
 endfacet
 facet normal  0.0000000000e+00 -9.2378892223e-01 3.8290211172e-01
   outer loop
     vertex -9.5910400000e-06 -1.3750000000e+00 0.0000000000e+00
     vertex 1.0000000000e-08 -9.7208118450e-01 9.7208118450e-01
     vertex -9.5910400000e-06 -9.7208118450e-01 9.7208118450e-01
   endloop
 endfacet
 facet normal  0.0000000000e+00 -3.8290211172e-01 9.2378892223e-01
   outer loop
     vertex -9.5910400000e-06 -9.7208118450e-01 9.7208118450e-01
     vertex 1.0000000000e-08 -9.7208118450e-01 9.7208118450e-01
     vertex 1.0000000000e-08 0.0000000000e+00 1.3750000000e+00
   endloop
 endfacet
 facet normal  0.0000000000e+00 -3.8290211172e-01 9.2378892223e-01
   outer loop
     vertex -9.5910400000e-06 -9.7208118450e-01 9.7208118450e-01
     vertex 1.0000000000e-08 0.0000000000e+00 1.3750000000e+00
     vertex -9.5910400000e-06 0.0000000000e+00 1.3750000000e+00
   endloop
 endfacet
 facet normal  0.0000000000e+00 3.8290211172e-01 9.2378892223e-01
   outer loop
     vertex -9.5910400000e-06 0.0000000000e+00 1.3750000000e+00
     vertex 1.0000000000e-08 0.0000000000e+00 1.3750000000e+00
     vertex -9.5910400000e-06 9.7208118450e-01 9.7208118450e-01
   endloop
 endfacet
 facet normal  0.0000000000e+00 3.8290211172e-01 9.2378892223e-01
   outer loop
     vertex 1.0000000000e-08 0.0000000000e+00 1.3750000000e+00
     vertex 1.0000000000e-08 9.7208118450e-01 9.7208118450e-01
     vertex -9.5910400000e-06 9.7208118450e-01 9.7208118450e-01
   endloop
 endfacet
 facet normal  0.0000000000e+00 9.2378892223e-01 3.8290211172e-01
   outer loop
     vertex -9.5910400000e-06 9.7208118450e-01 9.7208118450e-01
     vertex 1.0000000000e-08 9.7208118450e-01 9.7208118450e-01
     vertex -9.5910400000e-06 1.3750000000e+00 0.0000000000e+00
   endloop
 endfacet
 facet normal  0.0000000000e+00 9.2378892223e-01 3.8290211172e-01
   outer loop
     vertex 1.0000000000e-08 9.7208118450e-01 9.7208118450e-01
     vertex 1.0000000000e-08 1.3750000000e+00 0.0000000000e+00
     vertex -9.5910400000e-06 1.3750000000e+00 0.0000000000e+00
   endloop
 endfacet
 facet normal  1.5674758928e-01 9.1236968626e-01 -3.7816894221e-01
   outer loop
     vertex 1.0000000000e-08 1.3750000000e+00 0.0000000000e+00
     vertex 6.8723043129e-01 9.7208118450e-01 -6.8723042129e-01
     vertex 1.0000000000e-08 9.7208118450e-01 -9.7208118450e-01
   endloop
 endfacet
 facet normal  3.5758487123e-01 3.5758487123e-01 -8.6270859492e-01
   outer loop
     vertex 1.0000000000e-08 9.7208118450e-01 -9.7208118450e-01
     vertex 6.8723043129e-01 9.7208118450e-01 -6.8723042129e-01
     vertex 9.7208119450e-01 0.0000000000e+00 -9.7208118450e-01
   endloop
 endfacet
 facet normal  3.5758487123e-01 3.5758487123e-01 -8.6270859492e-01
   outer loop
     vertex 1.0000000000e-08 9.7208118450e-01 -9.7208118450e-01
     vertex 9.7208119450e-01 0.0000000000e+00 -9.7208118450e-01
     vertex 1.0000000000e-08 0.0000000000e+00 -1.3750000000e+00
   endloop
 endfacet
 facet normal  3.5758487123e-01 -3.5758487123e-01 -8.6270859492e-01
   outer loop
     vertex 1.0000000000e-08 0.0000000000e+00 -1.3750000000e+00
     vertex 9.7208119450e-01 0.0000000000e+00 -9.7208118450e-01
     vertex 1.0000000000e-08 -9.7208118450e-01 -9.7208118450e-01
   endloop
 endfacet
 facet normal  3.5758487123e-01 -3.5758487123e-01 -8.6270859492e-01
   outer loop
     vertex 9.7208119450e-01 0.0000000000e+00 -9.7208118450e-01
     vertex 6.8723043129e-01 -9.7208118450e-01 -6.8723042129e-01
     vertex 1.0000000000e-08 -9.7208118450e-01 -9.7208118450e-01
   endloop
 endfacet
 facet normal  1.5674758928e-01 -9.1236968626e-01 -3.7816894221e-01
   outer loop
     vertex 1.0000000000e-08 -9.7208118450e-01 -9.7208118450e-01
     vertex 6.8723043129e-01 -9.7208118450e-01 -6.8723042129e-01
     vertex 1.0000000000e-08 -1.3750000000e+00 0.0000000000e+00
   endloop
 endfacet
 facet normal  1.5674758928e-01 -9.1236968626e-01 3.7816894221e-01
   outer loop
     vertex 1.0000000000e-08 -1.3750000000e+00 0.0000000000e+00
     vertex 6.8723043129e-01 -9.7208118450e-01 6.8723042129e-01
     vertex 1.0000000000e-08 -9.7208118450e-01 9.7208118450e-01
   endloop
 endfacet
 facet normal  3.5758487123e-01 -3.5758487123e-01 8.6270859492e-01
   outer loop
     vertex 1.0000000000e-08 -9.7208118450e-01 9.7208118450e-01
     vertex 6.8723043129e-01 -9.7208118450e-01 6.8723042129e-01
     vertex 9.7208119450e-01 0.0000000000e+00 9.7208118450e-01
   endloop
 endfacet
 facet normal  3.5758487123e-01 -3.5758487123e-01 8.6270859492e-01
   outer loop
     vertex 1.0000000000e-08 -9.7208118450e-01 9.7208118450e-01
     vertex 9.7208119450e-01 0.0000000000e+00 9.7208118450e-01
     vertex 1.0000000000e-08 0.0000000000e+00 1.3750000000e+00
   endloop
 endfacet
 facet normal  3.5758487123e-01 3.5758487123e-01 8.6270859492e-01
   outer loop
     vertex 1.0000000000e-08 0.0000000000e+00 1.3750000000e+00
     vertex 9.7208119450e-01 0.0000000000e+00 9.7208118450e-01
     vertex 1.0000000000e-08 9.7208118450e-01 9.7208118450e-01
   endloop
 endfacet
 facet normal  3.5758487123e-01 3.5758487123e-01 8.6270859492e-01
   outer loop
     vertex 9.7208119450e-01 0.0000000000e+00 9.7208118450e-01
     vertex 6.8723043129e-01 9.7208118450e-01 6.8723042129e-01
     vertex 1.0000000000e-08 9.7208118450e-01 9.7208118450e-01
   endloop
 endfacet
 facet normal  1.5674758928e-01 9.1236968626e-01 3.7816894221e-01
   outer loop
     vertex 1.0000000000e-08 9.7208118450e-01 9.7208118450e-01
     vertex 6.8723043129e-01 9.7208118450e-01 6.8723042129e-01
     vertex 1.0000000000e-08 1.3750000000e+00 0.0000000000e+00
   endloop
 endfacet
 facet normal  3.7816894221e-01 9.1236968626e-01 -1.5674758928e-01
   outer loop
     vertex 1.0000000000e-08 1.3750000000e+00 0.0000000000e+00
     vertex 9.7208119450e-01 9.7208118450e-01 0.0000000000e+00
     vertex 6.8723043129e-01 9.7208118450e-01 -6.8723042129e-01
   endloop
 endfacet
 facet normal  8.6270859492e-01 3.5758487123e-01 -3.5758487123e-01
   outer loop
     vertex 6.8723043129e-01 9.7208118450e-01 -6.8723042129e-01
     vertex 9.7208119450e-01 9.7208118450e-01 0.0000000000e+00
     vertex 1.3750000100e+00 0.0000000000e+00 0.0000000000e+00
   endloop
 endfacet
 facet normal  8.6270859492e-01 3.5758487123e-01 -3.5758487123e-01
   outer loop
     vertex 6.8723043129e-01 9.7208118450e-01 -6.8723042129e-01
     vertex 1.3750000100e+00 0.0000000000e+00 0.0000000000e+00
     vertex 9.7208119450e-01 0.0000000000e+00 -9.7208118450e-01
   endloop
 endfacet
 facet normal  8.6270859492e-01 -3.5758487123e-01 -3.5758487123e-01
   outer loop
     vertex 9.7208119450e-01 0.0000000000e+00 -9.7208118450e-01
     vertex 1.3750000100e+00 0.0000000000e+00 0.0000000000e+00
     vertex 6.8723043129e-01 -9.7208118450e-01 -6.8723042129e-01
   endloop
 endfacet
 facet normal  8.6270859492e-01 -3.5758487123e-01 -3.5758487123e-01
   outer loop
     vertex 1.3750000100e+00 0.0000000000e+00 0.0000000000e+00
     vertex 9.7208119450e-01 -9.7208118450e-01 0.0000000000e+00
     vertex 6.8723043129e-01 -9.7208118450e-01 -6.8723042129e-01
   endloop
 endfacet
 facet normal  3.7816894221e-01 -9.1236968626e-01 -1.5674758928e-01
   outer loop
     vertex 6.8723043129e-01 -9.7208118450e-01 -6.8723042129e-01
     vertex 9.7208119450e-01 -9.7208118450e-01 0.0000000000e+00
     vertex 1.0000000000e-08 -1.3750000000e+00 0.0000000000e+00
   endloop
 endfacet
 facet normal  3.7816894221e-01 -9.1236968626e-01 1.5674758928e-01
   outer loop
     vertex 1.0000000000e-08 -1.3750000000e+00 0.0000000000e+00
     vertex 9.7208119450e-01 -9.7208118450e-01 0.0000000000e+00
     vertex 6.8723043129e-01 -9.7208118450e-01 6.8723042129e-01
   endloop
 endfacet
 facet normal  8.6270859492e-01 -3.5758487123e-01 3.5758487123e-01
   outer loop
     vertex 6.8723043129e-01 -9.7208118450e-01 6.8723042129e-01
     vertex 9.7208119450e-01 -9.7208118450e-01 0.0000000000e+00
     vertex 1.3750000100e+00 0.0000000000e+00 0.0000000000e+00
   endloop
 endfacet
 facet normal  8.6270859492e-01 -3.5758487123e-01 3.5758487123e-01
   outer loop
     vertex 6.8723043129e-01 -9.7208118450e-01 6.8723042129e-01
     vertex 1.3750000100e+00 0.0000000000e+00 0.0000000000e+00
     vertex 9.7208119450e-01 0.0000000000e+00 9.7208118450e-01
   endloop
 endfacet
 facet normal  8.6270859492e-01 3.5758487123e-01 3.5758487123e-01
   outer loop
     vertex 9.7208119450e-01 0.0000000000e+00 9.7208118450e-01
     vertex 1.3750000100e+00 0.0000000000e+00 0.0000000000e+00
     vertex 6.8723043129e-01 9.7208118450e-01 6.8723042129e-01
   endloop
 endfacet
 facet normal  8.6270859492e-01 3.5758487123e-01 3.5758487123e-01
   outer loop
     vertex 1.3750000100e+00 0.0000000000e+00 0.0000000000e+00
     vertex 9.7208119450e-01 9.7208118450e-01 0.0000000000e+00
     vertex 6.8723043129e-01 9.7208118450e-01 6.8723042129e-01
   endloop
 endfacet
 facet normal  3.7816894221e-01 9.1236968626e-01 1.5674758928e-01
   outer loop
     vertex 6.8723043129e-01 9.7208118450e-01 6.8723042129e-01
     vertex 9.7208119450e-01 9.7208118450e-01 0.0000000000e+00
     vertex 1.0000000000e-08 1.3750000000e+00 0.0000000000e+00
   endloop
 endfacet
endsolid
