solid
 facet normal  7.1243087926e-02 -1.0545960579e-02 -9.9740323096e-01
   outer loop
     vertex 5.7826771654e+00 0.0000000000e+00 0.0000000000e+00
     vertex 4.2407627967e+00 1.0802400038e+00 -1.2155856896e-01
     vertex 5.9425827622e+00 1.0802400038e+00 0.0000000000e+00
   endloop
 endfacet
 facet normal  7.1243087926e-02 -1.0545960579e-02 -9.9740323096e-01
   outer loop
     vertex 5.7826771654e+00 0.0000000000e+00 0.0000000000e+00
     vertex 3.7587401575e+00 0.0000000000e+00 -1.4456692913e-01
     vertex 4.2407627967e+00 1.0802400038e+00 -1.2155856896e-01
   endloop
 endfacet
 facet normal  7.1243087926e-02 -1.0545960579e-02 -9.9740323096e-01
   outer loop
     vertex 3.7587401575e+00 0.0000000000e+00 -1.4456692913e-01
     vertex 2.5389428313e+00 1.0802400038e+00 -2.4311713792e-01
     vertex 4.2407627967e+00 1.0802400038e+00 -1.2155856896e-01
   endloop
 endfacet
 facet normal  7.1243087926e-02 -1.0545960579e-02 -9.9740323096e-01
   outer loop
     vertex 3.7587401575e+00 0.0000000000e+00 -1.4456692913e-01
     vertex 1.7348031496e+00 0.0000000000e+00 -2.8913385827e-01
     vertex 2.5389428313e+00 1.0802400038e+00 -2.4311713792e-01
   endloop
 endfacet
 facet normal  -1.6222142113e-01 1.6222142113e-01 -9.7332852678e-01
   outer loop
     vertex 1.7348031496e+00 0.0000000000e+00 -2.8913385827e-01
     vertex 8.6740157480e-01 0.0000000000e+00 -1.4456692913e-01
     vertex 2.5389428313e+00 1.0802400038e+00 -2.4311713792e-01
   endloop
 endfacet
 facet normal  -1.6222142113e-01 1.6222142113e-01 -9.7332852678e-01
   outer loop
     vertex 2.5389428313e+00 1.0802400038e+00 -2.4311713792e-01
     vertex 8.6740157480e-01 0.0000000000e+00 -1.4456692913e-01
     vertex 1.8095914175e+00 1.0802400038e+00 -1.2155856896e-01
   endloop
 endfacet
 facet normal  -1.6222142113e-01 1.6222142113e-01 -9.7332852678e-01
   outer loop
     vertex 8.6740157480e-01 0.0000000000e+00 -1.4456692913e-01
     vertex 0.0000000000e+00 0.0000000000e+00 0.0000000000e+00
     vertex 1.8095914175e+00 1.0802400038e+00 -1.2155856896e-01
   endloop
 endfacet
 facet normal  -1.6222142113e-01 1.6222142113e-01 -9.7332852678e-01
   outer loop
     vertex 1.8095914175e+00 1.0802400038e+00 -1.2155856896e-01
     vertex 0.0000000000e+00 0.0000000000e+00 0.0000000000e+00
     vertex 1.0802400038e+00 1.0802400038e+00 0.0000000000e+00
   endloop
 endfacet
 facet normal  -1.6222142113e-01 1.6222142113e-01 9.7332852678e-01
   outer loop
     vertex 0.0000000000e+00 0.0000000000e+00 0.0000000000e+00
     vertex 1.8095914175e+00 1.0802400038e+00 1.2155856896e-01
     vertex 1.0802400038e+00 1.0802400038e+00 0.0000000000e+00
   endloop
 endfacet
 facet normal  -1.6222142113e-01 1.6222142113e-01 9.7332852678e-01
   outer loop
     vertex 0.0000000000e+00 0.0000000000e+00 0.0000000000e+00
     vertex 8.6740157480e-01 0.0000000000e+00 1.4456692913e-01
     vertex 1.8095914175e+00 1.0802400038e+00 1.2155856896e-01
   endloop
 endfacet
 facet normal  -1.6222142113e-01 1.6222142113e-01 9.7332852678e-01
   outer loop
     vertex 8.6740157480e-01 0.0000000000e+00 1.4456692913e-01
     vertex 2.5389428313e+00 1.0802400038e+00 2.4311713792e-01
     vertex 1.8095914175e+00 1.0802400038e+00 1.2155856896e-01
   endloop
 endfacet
 facet normal  -1.6222142113e-01 1.6222142113e-01 9.7332852678e-01
   outer loop
     vertex 8.6740157480e-01 0.0000000000e+00 1.4456692913e-01
     vertex 1.7348031496e+00 0.0000000000e+00 2.8913385827e-01
     vertex 2.5389428313e+00 1.0802400038e+00 2.4311713792e-01
   endloop
 endfacet
 facet normal  7.1243087926e-02 -1.0545960579e-02 9.9740323096e-01
   outer loop
     vertex 1.7348031496e+00 0.0000000000e+00 2.8913385827e-01
     vertex 3.7587401575e+00 0.0000000000e+00 1.4456692913e-01
     vertex 2.5389428313e+00 1.0802400038e+00 2.4311713792e-01
   endloop
 endfacet
 facet normal  7.1243087926e-02 -1.0545960579e-02 9.9740323096e-01
   outer loop
     vertex 2.5389428313e+00 1.0802400038e+00 2.4311713792e-01
     vertex 3.7587401575e+00 0.0000000000e+00 1.4456692913e-01
     vertex 4.2407627967e+00 1.0802400038e+00 1.2155856896e-01
   endloop
 endfacet
 facet normal  7.1243087926e-02 -1.0545960579e-02 9.9740323096e-01
   outer loop
     vertex 3.7587401575e+00 0.0000000000e+00 1.4456692913e-01
     vertex 5.7826771654e+00 0.0000000000e+00 0.0000000000e+00
     vertex 4.2407627967e+00 1.0802400038e+00 1.2155856896e-01
   endloop
 endfacet
 facet normal  7.1243087926e-02 -1.0545960579e-02 9.9740323096e-01
   outer loop
     vertex 4.2407627967e+00 1.0802400038e+00 1.2155856896e-01
     vertex 5.7826771654e+00 0.0000000000e+00 0.0000000000e+00
     vertex 5.9425827622e+00 1.0802400038e+00 0.0000000000e+00
   endloop
 endfacet
 facet normal  7.1243087926e-02 -1.0545960579e-02 -9.9740323096e-01
   outer loop
     vertex 5.9425827622e+00 1.0802400038e+00 0.0000000000e+00
     vertex 4.8223309269e+00 2.3835670840e+00 -9.3798609340e-02
     vertex 6.1355114576e+00 2.3835670840e+00 0.0000000000e+00
   endloop
 endfacet
 facet normal  7.1243087926e-02 -1.0545960579e-02 -9.9740323096e-01
   outer loop
     vertex 5.9425827622e+00 1.0802400038e+00 0.0000000000e+00
     vertex 4.2407627967e+00 1.0802400038e+00 -1.2155856896e-01
     vertex 4.8223309269e+00 2.3835670840e+00 -9.3798609340e-02
   endloop
 endfacet
 facet normal  7.1243087926e-02 -1.0545960579e-02 -9.9740323096e-01
   outer loop
     vertex 4.2407627967e+00 1.0802400038e+00 -1.2155856896e-01
     vertex 3.5091503961e+00 2.3835670840e+00 -1.8759721868e-01
     vertex 4.8223309269e+00 2.3835670840e+00 -9.3798609340e-02
   endloop
 endfacet
 facet normal  7.1243087926e-02 -1.0545960579e-02 -9.9740323096e-01
   outer loop
     vertex 4.2407627967e+00 1.0802400038e+00 -1.2155856896e-01
     vertex 2.5389428313e+00 1.0802400038e+00 -2.4311713792e-01
     vertex 3.5091503961e+00 2.3835670840e+00 -1.8759721868e-01
   endloop
 endfacet
 facet normal  -1.6222142113e-01 1.6222142113e-01 -9.7332852678e-01
   outer loop
     vertex 2.5389428313e+00 1.0802400038e+00 -2.4311713792e-01
     vertex 1.8095914175e+00 1.0802400038e+00 -1.2155856896e-01
     vertex 3.5091503961e+00 2.3835670840e+00 -1.8759721868e-01
   endloop
 endfacet
 facet normal  -1.6222142113e-01 1.6222142113e-01 -9.7332852678e-01
   outer loop
     vertex 3.5091503961e+00 2.3835670840e+00 -1.8759721868e-01
     vertex 1.8095914175e+00 1.0802400038e+00 -1.2155856896e-01
     vertex 2.9463587401e+00 2.3835670840e+00 -9.3798609340e-02
   endloop
 endfacet
 facet normal  -1.6222142113e-01 1.6222142113e-01 -9.7332852678e-01
   outer loop
     vertex 1.8095914175e+00 1.0802400038e+00 -1.2155856896e-01
     vertex 1.0802400038e+00 1.0802400038e+00 0.0000000000e+00
     vertex 2.9463587401e+00 2.3835670840e+00 -9.3798609340e-02
   endloop
 endfacet
 facet normal  -1.6222142113e-01 1.6222142113e-01 -9.7332852678e-01
   outer loop
     vertex 2.9463587401e+00 2.3835670840e+00 -9.3798609340e-02
     vertex 1.0802400038e+00 1.0802400038e+00 0.0000000000e+00
     vertex 2.3835670840e+00 2.3835670840e+00 0.0000000000e+00
   endloop
 endfacet
 facet normal  -1.6222142113e-01 1.6222142113e-01 9.7332852678e-01
   outer loop
     vertex 1.0802400038e+00 1.0802400038e+00 0.0000000000e+00
     vertex 2.9463587401e+00 2.3835670840e+00 9.3798609340e-02
     vertex 2.3835670840e+00 2.3835670840e+00 0.0000000000e+00
   endloop
 endfacet
 facet normal  -1.6222142113e-01 1.6222142113e-01 9.7332852678e-01
   outer loop
     vertex 1.0802400038e+00 1.0802400038e+00 0.0000000000e+00
     vertex 1.8095914175e+00 1.0802400038e+00 1.2155856896e-01
     vertex 2.9463587401e+00 2.3835670840e+00 9.3798609340e-02
   endloop
 endfacet
 facet normal  -1.6222142113e-01 1.6222142113e-01 9.7332852678e-01
   outer loop
     vertex 1.8095914175e+00 1.0802400038e+00 1.2155856896e-01
     vertex 3.5091503961e+00 2.3835670840e+00 1.8759721868e-01
     vertex 2.9463587401e+00 2.3835670840e+00 9.3798609340e-02
   endloop
 endfacet
 facet normal  -1.6222142113e-01 1.6222142113e-01 9.7332852678e-01
   outer loop
     vertex 1.8095914175e+00 1.0802400038e+00 1.2155856896e-01
     vertex 2.5389428313e+00 1.0802400038e+00 2.4311713792e-01
     vertex 3.5091503961e+00 2.3835670840e+00 1.8759721868e-01
   endloop
 endfacet
 facet normal  7.1243087926e-02 -1.0545960579e-02 9.9740323096e-01
   outer loop
     vertex 2.5389428313e+00 1.0802400038e+00 2.4311713792e-01
     vertex 4.2407627967e+00 1.0802400038e+00 1.2155856896e-01
     vertex 3.5091503961e+00 2.3835670840e+00 1.8759721868e-01
   endloop
 endfacet
 facet normal  7.1243087926e-02 -1.0545960579e-02 9.9740323096e-01
   outer loop
     vertex 3.5091503961e+00 2.3835670840e+00 1.8759721868e-01
     vertex 4.2407627967e+00 1.0802400038e+00 1.2155856896e-01
     vertex 4.8223309269e+00 2.3835670840e+00 9.3798609340e-02
   endloop
 endfacet
 facet normal  7.1243087926e-02 -1.0545960579e-02 9.9740323096e-01
   outer loop
     vertex 4.2407627967e+00 1.0802400038e+00 1.2155856896e-01
     vertex 5.9425827622e+00 1.0802400038e+00 0.0000000000e+00
     vertex 4.8223309269e+00 2.3835670840e+00 9.3798609340e-02
   endloop
 endfacet
 facet normal  7.1243087926e-02 -1.0545960579e-02 9.9740323096e-01
   outer loop
     vertex 4.8223309269e+00 2.3835670840e+00 9.3798609340e-02
     vertex 5.9425827622e+00 1.0802400038e+00 0.0000000000e+00
     vertex 6.1355114576e+00 2.3835670840e+00 0.0000000000e+00
   endloop
 endfacet
 facet normal  7.1243087926e-02 -1.0545960579e-02 -9.9740323096e-01
   outer loop
     vertex 6.1355114576e+00 2.3835670840e+00 0.0000000000e+00
     vertex 5.4743735019e+00 3.8448313823e+00 -6.2674696908e-02
     vertex 6.3518192586e+00 3.8448313823e+00 0.0000000000e+00
   endloop
 endfacet
 facet normal  7.1243087926e-02 -1.0545960579e-02 -9.9740323096e-01
   outer loop
     vertex 6.1355114576e+00 2.3835670840e+00 0.0000000000e+00
     vertex 4.8223309269e+00 2.3835670840e+00 -9.3798609340e-02
     vertex 5.4743735019e+00 3.8448313823e+00 -6.2674696908e-02
   endloop
 endfacet
 facet normal  7.1243087926e-02 -1.0545960579e-02 -9.9740323096e-01
   outer loop
     vertex 4.8223309269e+00 2.3835670840e+00 -9.3798609340e-02
     vertex 4.5969277452e+00 3.8448313823e+00 -1.2534939382e-01
     vertex 5.4743735019e+00 3.8448313823e+00 -6.2674696908e-02
   endloop
 endfacet
 facet normal  7.1243087926e-02 -1.0545960579e-02 -9.9740323096e-01
   outer loop
     vertex 4.8223309269e+00 2.3835670840e+00 -9.3798609340e-02
     vertex 3.5091503961e+00 2.3835670840e+00 -1.8759721868e-01
     vertex 4.5969277452e+00 3.8448313823e+00 -1.2534939382e-01
   endloop
 endfacet
 facet normal  -1.6222142113e-01 1.6222142113e-01 -9.7332852678e-01
   outer loop
     vertex 3.5091503961e+00 2.3835670840e+00 -1.8759721868e-01
     vertex 2.9463587401e+00 2.3835670840e+00 -9.3798609340e-02
     vertex 4.5969277452e+00 3.8448313823e+00 -1.2534939382e-01
   endloop
 endfacet
 facet normal  -1.6222142113e-01 1.6222142113e-01 -9.7332852678e-01
   outer loop
     vertex 4.5969277452e+00 3.8448313823e+00 -1.2534939382e-01
     vertex 2.9463587401e+00 2.3835670840e+00 -9.3798609340e-02
     vertex 4.2208795637e+00 3.8448313823e+00 -6.2674696908e-02
   endloop
 endfacet
 facet normal  -1.6222142113e-01 1.6222142113e-01 -9.7332852678e-01
   outer loop
     vertex 2.9463587401e+00 2.3835670840e+00 -9.3798609340e-02
     vertex 2.3835670840e+00 2.3835670840e+00 0.0000000000e+00
     vertex 4.2208795637e+00 3.8448313823e+00 -6.2674696908e-02
   endloop
 endfacet
 facet normal  -1.6222142113e-01 1.6222142113e-01 -9.7332852678e-01
   outer loop
     vertex 4.2208795637e+00 3.8448313823e+00 -6.2674696908e-02
     vertex 2.3835670840e+00 2.3835670840e+00 0.0000000000e+00
     vertex 3.8448313823e+00 3.8448313823e+00 0.0000000000e+00
   endloop
 endfacet
 facet normal  -1.6222142113e-01 1.6222142113e-01 9.7332852678e-01
   outer loop
     vertex 2.3835670840e+00 2.3835670840e+00 0.0000000000e+00
     vertex 4.2208795637e+00 3.8448313823e+00 6.2674696908e-02
     vertex 3.8448313823e+00 3.8448313823e+00 0.0000000000e+00
   endloop
 endfacet
 facet normal  -1.6222142113e-01 1.6222142113e-01 9.7332852678e-01
   outer loop
     vertex 2.3835670840e+00 2.3835670840e+00 0.0000000000e+00
     vertex 2.9463587401e+00 2.3835670840e+00 9.3798609340e-02
     vertex 4.2208795637e+00 3.8448313823e+00 6.2674696908e-02
   endloop
 endfacet
 facet normal  -1.6222142113e-01 1.6222142113e-01 9.7332852678e-01
   outer loop
     vertex 2.9463587401e+00 2.3835670840e+00 9.3798609340e-02
     vertex 4.5969277452e+00 3.8448313823e+00 1.2534939382e-01
     vertex 4.2208795637e+00 3.8448313823e+00 6.2674696908e-02
   endloop
 endfacet
 facet normal  -1.6222142113e-01 1.6222142113e-01 9.7332852678e-01
   outer loop
     vertex 2.9463587401e+00 2.3835670840e+00 9.3798609340e-02
     vertex 3.5091503961e+00 2.3835670840e+00 1.8759721868e-01
     vertex 4.5969277452e+00 3.8448313823e+00 1.2534939382e-01
   endloop
 endfacet
 facet normal  7.1243087926e-02 -1.0545960579e-02 9.9740323096e-01
   outer loop
     vertex 3.5091503961e+00 2.3835670840e+00 1.8759721868e-01
     vertex 4.8223309269e+00 2.3835670840e+00 9.3798609340e-02
     vertex 4.5969277452e+00 3.8448313823e+00 1.2534939382e-01
   endloop
 endfacet
 facet normal  7.1243087926e-02 -1.0545960579e-02 9.9740323096e-01
   outer loop
     vertex 4.5969277452e+00 3.8448313823e+00 1.2534939382e-01
     vertex 4.8223309269e+00 2.3835670840e+00 9.3798609340e-02
     vertex 5.4743735019e+00 3.8448313823e+00 6.2674696908e-02
   endloop
 endfacet
 facet normal  7.1243087926e-02 -1.0545960579e-02 9.9740323096e-01
   outer loop
     vertex 4.8223309269e+00 2.3835670840e+00 9.3798609340e-02
     vertex 6.1355114576e+00 2.3835670840e+00 0.0000000000e+00
     vertex 5.4743735019e+00 3.8448313823e+00 6.2674696908e-02
   endloop
 endfacet
 facet normal  7.1243087926e-02 -1.0545960579e-02 9.9740323096e-01
   outer loop
     vertex 5.4743735019e+00 3.8448313823e+00 6.2674696908e-02
     vertex 6.1355114576e+00 2.3835670840e+00 0.0000000000e+00
     vertex 6.3518192586e+00 3.8448313823e+00 0.0000000000e+00
   endloop
 endfacet
 facet normal  7.1243087926e-02 -1.0545960579e-02 -9.9740323096e-01
   outer loop
     vertex 6.3518192586e+00 3.8448313823e+00 0.0000000000e+00
     vertex 6.1479501572e+00 5.3543547727e+00 -3.0522899404e-02
     vertex 6.5752707489e+00 5.3543547727e+00 0.0000000000e+00
   endloop
 endfacet
 facet normal  7.1243087926e-02 -1.0545960579e-02 -9.9740323096e-01
   outer loop
     vertex 6.3518192586e+00 3.8448313823e+00 0.0000000000e+00
     vertex 5.4743735019e+00 3.8448313823e+00 -6.2674696908e-02
     vertex 6.1479501572e+00 5.3543547727e+00 -3.0522899404e-02
   endloop
 endfacet
 facet normal  7.1243087926e-02 -1.0545960579e-02 -9.9740323096e-01
   outer loop
     vertex 5.4743735019e+00 3.8448313823e+00 -6.2674696908e-02
     vertex 5.7206295656e+00 5.3543547727e+00 -6.1045798807e-02
     vertex 6.1479501572e+00 5.3543547727e+00 -3.0522899404e-02
   endloop
 endfacet
 facet normal  7.1243087926e-02 -1.0545960579e-02 -9.9740323096e-01
   outer loop
     vertex 5.4743735019e+00 3.8448313823e+00 -6.2674696908e-02
     vertex 4.5969277452e+00 3.8448313823e+00 -1.2534939382e-01
     vertex 5.7206295656e+00 5.3543547727e+00 -6.1045798807e-02
   endloop
 endfacet
 facet normal  -1.6222142113e-01 1.6222142113e-01 -9.7332852678e-01
   outer loop
     vertex 4.5969277452e+00 3.8448313823e+00 -1.2534939382e-01
     vertex 4.2208795637e+00 3.8448313823e+00 -6.2674696908e-02
     vertex 5.7206295656e+00 5.3543547727e+00 -6.1045798807e-02
   endloop
 endfacet
 facet normal  -1.6222142113e-01 1.6222142113e-01 -9.7332852678e-01
   outer loop
     vertex 5.7206295656e+00 5.3543547727e+00 -6.1045798807e-02
     vertex 4.2208795637e+00 3.8448313823e+00 -6.2674696908e-02
     vertex 5.5374921692e+00 5.3543547727e+00 -3.0522899404e-02
   endloop
 endfacet
 facet normal  -1.6222142113e-01 1.6222142113e-01 -9.7332852678e-01
   outer loop
     vertex 4.2208795637e+00 3.8448313823e+00 -6.2674696908e-02
     vertex 3.8448313823e+00 3.8448313823e+00 0.0000000000e+00
     vertex 5.5374921692e+00 5.3543547727e+00 -3.0522899404e-02
   endloop
 endfacet
 facet normal  -1.6222142113e-01 1.6222142113e-01 -9.7332852678e-01
   outer loop
     vertex 5.5374921692e+00 5.3543547727e+00 -3.0522899404e-02
     vertex 3.8448313823e+00 3.8448313823e+00 0.0000000000e+00
     vertex 5.3543547727e+00 5.3543547727e+00 0.0000000000e+00
   endloop
 endfacet
 facet normal  -1.6222142113e-01 1.6222142113e-01 9.7332852678e-01
   outer loop
     vertex 3.8448313823e+00 3.8448313823e+00 0.0000000000e+00
     vertex 5.5374921692e+00 5.3543547727e+00 3.0522899404e-02
     vertex 5.3543547727e+00 5.3543547727e+00 0.0000000000e+00
   endloop
 endfacet
 facet normal  -1.6222142113e-01 1.6222142113e-01 9.7332852678e-01
   outer loop
     vertex 3.8448313823e+00 3.8448313823e+00 0.0000000000e+00
     vertex 4.2208795637e+00 3.8448313823e+00 6.2674696908e-02
     vertex 5.5374921692e+00 5.3543547727e+00 3.0522899404e-02
   endloop
 endfacet
 facet normal  -1.6222142113e-01 1.6222142113e-01 9.7332852678e-01
   outer loop
     vertex 4.2208795637e+00 3.8448313823e+00 6.2674696908e-02
     vertex 5.7206295656e+00 5.3543547727e+00 6.1045798807e-02
     vertex 5.5374921692e+00 5.3543547727e+00 3.0522899404e-02
   endloop
 endfacet
 facet normal  -1.6222142113e-01 1.6222142113e-01 9.7332852678e-01
   outer loop
     vertex 4.2208795637e+00 3.8448313823e+00 6.2674696908e-02
     vertex 4.5969277452e+00 3.8448313823e+00 1.2534939382e-01
     vertex 5.7206295656e+00 5.3543547727e+00 6.1045798807e-02
   endloop
 endfacet
 facet normal  7.1243087926e-02 -1.0545960579e-02 9.9740323096e-01
   outer loop
     vertex 4.5969277452e+00 3.8448313823e+00 1.2534939382e-01
     vertex 5.4743735019e+00 3.8448313823e+00 6.2674696908e-02
     vertex 5.7206295656e+00 5.3543547727e+00 6.1045798807e-02
   endloop
 endfacet
 facet normal  7.1243087926e-02 -1.0545960579e-02 9.9740323096e-01
   outer loop
     vertex 5.7206295656e+00 5.3543547727e+00 6.1045798807e-02
     vertex 5.4743735019e+00 3.8448313823e+00 6.2674696908e-02
     vertex 6.1479501572e+00 5.3543547727e+00 3.0522899404e-02
   endloop
 endfacet
 facet normal  7.1243087926e-02 -1.0545960579e-02 9.9740323096e-01
   outer loop
     vertex 5.4743735019e+00 3.8448313823e+00 6.2674696908e-02
     vertex 6.3518192586e+00 3.8448313823e+00 0.0000000000e+00
     vertex 6.1479501572e+00 5.3543547727e+00 3.0522899404e-02
   endloop
 endfacet
 facet normal  7.1243087926e-02 -1.0545960579e-02 9.9740323096e-01
   outer loop
     vertex 6.1479501572e+00 5.3543547727e+00 3.0522899404e-02
     vertex 6.3518192586e+00 3.8448313823e+00 0.0000000000e+00
     vertex 6.5752707489e+00 5.3543547727e+00 0.0000000000e+00
   endloop
 endfacet
 facet normal  7.1243087926e-02 -1.0545960579e-02 -9.9740323096e-01
   outer loop
     vertex 6.5752707489e+00 5.3543547727e+00 0.0000000000e+00
     vertex 6.1479501572e+00 5.3543547727e+00 -3.0522899404e-02
     vertex 6.7874015748e+00 6.7874015748e+00 0.0000000000e+00
   endloop
 endfacet
 facet normal  7.1243087926e-02 -1.0545960579e-02 -9.9740323096e-01
   outer loop
     vertex 6.1479501572e+00 5.3543547727e+00 -3.0522899404e-02
     vertex 5.7206295656e+00 5.3543547727e+00 -6.1045798807e-02
     vertex 6.7874015748e+00 6.7874015748e+00 0.0000000000e+00
   endloop
 endfacet
 facet normal  -1.6222142113e-01 1.6222142113e-01 -9.7332852678e-01
   outer loop
     vertex 5.7206295656e+00 5.3543547727e+00 -6.1045798807e-02
     vertex 5.5374921692e+00 5.3543547727e+00 -3.0522899404e-02
     vertex 6.7874015748e+00 6.7874015748e+00 0.0000000000e+00
   endloop
 endfacet
 facet normal  -1.6222142113e-01 1.6222142113e-01 -9.7332852678e-01
   outer loop
     vertex 5.5374921692e+00 5.3543547727e+00 -3.0522899404e-02
     vertex 5.3543547727e+00 5.3543547727e+00 0.0000000000e+00
     vertex 6.7874015748e+00 6.7874015748e+00 0.0000000000e+00
   endloop
 endfacet
 facet normal  -1.6222142113e-01 1.6222142113e-01 9.7332852678e-01
   outer loop
     vertex 5.3543547727e+00 5.3543547727e+00 0.0000000000e+00
     vertex 5.5374921692e+00 5.3543547727e+00 3.0522899404e-02
     vertex 6.7874015748e+00 6.7874015748e+00 0.0000000000e+00
   endloop
 endfacet
 facet normal  -1.6222142113e-01 1.6222142113e-01 9.7332852678e-01
   outer loop
     vertex 5.5374921692e+00 5.3543547727e+00 3.0522899404e-02
     vertex 5.7206295656e+00 5.3543547727e+00 6.1045798807e-02
     vertex 6.7874015748e+00 6.7874015748e+00 0.0000000000e+00
   endloop
 endfacet
 facet normal  7.1243087926e-02 -1.0545960579e-02 9.9740323096e-01
   outer loop
     vertex 5.7206295656e+00 5.3543547727e+00 6.1045798807e-02
     vertex 6.1479501572e+00 5.3543547727e+00 3.0522899404e-02
     vertex 6.7874015748e+00 6.7874015748e+00 0.0000000000e+00
   endloop
 endfacet
 facet normal  7.1243087926e-02 -1.0545960579e-02 9.9740323096e-01
   outer loop
     vertex 6.1479501572e+00 5.3543547727e+00 3.0522899404e-02
     vertex 6.5752707489e+00 5.3543547727e+00 0.0000000000e+00
     vertex 6.7874015748e+00 6.7874015748e+00 0.0000000000e+00
   endloop
 endfacet
 facet normal  7.1243087926e-02 1.0545960579e-02 -9.9740323096e-01
   outer loop
     vertex 5.7826771654e+00 0.0000000000e+00 0.0000000000e+00
     vertex 5.9425827622e+00 -1.0802400038e+00 0.0000000000e+00
     vertex 4.2407627967e+00 -1.0802400038e+00 -1.2155856896e-01
   endloop
 endfacet
 facet normal  7.1243087926e-02 1.0545960579e-02 -9.9740323096e-01
   outer loop
     vertex 5.7826771654e+00 0.0000000000e+00 0.0000000000e+00
     vertex 4.2407627967e+00 -1.0802400038e+00 -1.2155856896e-01
     vertex 3.7587401575e+00 0.0000000000e+00 -1.4456692913e-01
   endloop
 endfacet
 facet normal  7.1243087926e-02 1.0545960579e-02 -9.9740323096e-01
   outer loop
     vertex 3.7587401575e+00 0.0000000000e+00 -1.4456692913e-01
     vertex 4.2407627967e+00 -1.0802400038e+00 -1.2155856896e-01
     vertex 2.5389428313e+00 -1.0802400038e+00 -2.4311713792e-01
   endloop
 endfacet
 facet normal  7.1243087926e-02 1.0545960579e-02 -9.9740323096e-01
   outer loop
     vertex 3.7587401575e+00 0.0000000000e+00 -1.4456692913e-01
     vertex 2.5389428313e+00 -1.0802400038e+00 -2.4311713792e-01
     vertex 1.7348031496e+00 0.0000000000e+00 -2.8913385827e-01
   endloop
 endfacet
 facet normal  -1.6222142113e-01 -1.6222142113e-01 -9.7332852678e-01
   outer loop
     vertex 1.7348031496e+00 0.0000000000e+00 -2.8913385827e-01
     vertex 2.5389428313e+00 -1.0802400038e+00 -2.4311713792e-01
     vertex 8.6740157480e-01 0.0000000000e+00 -1.4456692913e-01
   endloop
 endfacet
 facet normal  -1.6222142113e-01 -1.6222142113e-01 -9.7332852678e-01
   outer loop
     vertex 2.5389428313e+00 -1.0802400038e+00 -2.4311713792e-01
     vertex 1.8095914175e+00 -1.0802400038e+00 -1.2155856896e-01
     vertex 8.6740157480e-01 0.0000000000e+00 -1.4456692913e-01
   endloop
 endfacet
 facet normal  -1.6222142113e-01 -1.6222142113e-01 -9.7332852678e-01
   outer loop
     vertex 8.6740157480e-01 0.0000000000e+00 -1.4456692913e-01
     vertex 1.8095914175e+00 -1.0802400038e+00 -1.2155856896e-01
     vertex 0.0000000000e+00 0.0000000000e+00 0.0000000000e+00
   endloop
 endfacet
 facet normal  -1.6222142113e-01 -1.6222142113e-01 -9.7332852678e-01
   outer loop
     vertex 1.8095914175e+00 -1.0802400038e+00 -1.2155856896e-01
     vertex 1.0802400038e+00 -1.0802400038e+00 0.0000000000e+00
     vertex 0.0000000000e+00 0.0000000000e+00 0.0000000000e+00
   endloop
 endfacet
 facet normal  -1.6222142113e-01 -1.6222142113e-01 9.7332852678e-01
   outer loop
     vertex 0.0000000000e+00 0.0000000000e+00 0.0000000000e+00
     vertex 1.0802400038e+00 -1.0802400038e+00 0.0000000000e+00
     vertex 1.8095914175e+00 -1.0802400038e+00 1.2155856896e-01
   endloop
 endfacet
 facet normal  -1.6222142113e-01 -1.6222142113e-01 9.7332852678e-01
   outer loop
     vertex 0.0000000000e+00 0.0000000000e+00 0.0000000000e+00
     vertex 1.8095914175e+00 -1.0802400038e+00 1.2155856896e-01
     vertex 8.6740157480e-01 0.0000000000e+00 1.4456692913e-01
   endloop
 endfacet
 facet normal  -1.6222142113e-01 -1.6222142113e-01 9.7332852678e-01
   outer loop
     vertex 8.6740157480e-01 0.0000000000e+00 1.4456692913e-01
     vertex 1.8095914175e+00 -1.0802400038e+00 1.2155856896e-01
     vertex 2.5389428313e+00 -1.0802400038e+00 2.4311713792e-01
   endloop
 endfacet
 facet normal  -1.6222142113e-01 -1.6222142113e-01 9.7332852678e-01
   outer loop
     vertex 8.6740157480e-01 0.0000000000e+00 1.4456692913e-01
     vertex 2.5389428313e+00 -1.0802400038e+00 2.4311713792e-01
     vertex 1.7348031496e+00 0.0000000000e+00 2.8913385827e-01
   endloop
 endfacet
 facet normal  7.1243087926e-02 1.0545960579e-02 9.9740323096e-01
   outer loop
     vertex 1.7348031496e+00 0.0000000000e+00 2.8913385827e-01
     vertex 2.5389428313e+00 -1.0802400038e+00 2.4311713792e-01
     vertex 3.7587401575e+00 0.0000000000e+00 1.4456692913e-01
   endloop
 endfacet
 facet normal  7.1243087926e-02 1.0545960579e-02 9.9740323096e-01
   outer loop
     vertex 2.5389428313e+00 -1.0802400038e+00 2.4311713792e-01
     vertex 4.2407627967e+00 -1.0802400038e+00 1.2155856896e-01
     vertex 3.7587401575e+00 0.0000000000e+00 1.4456692913e-01
   endloop
 endfacet
 facet normal  7.1243087926e-02 1.0545960579e-02 9.9740323096e-01
   outer loop
     vertex 3.7587401575e+00 0.0000000000e+00 1.4456692913e-01
     vertex 4.2407627967e+00 -1.0802400038e+00 1.2155856896e-01
     vertex 5.7826771654e+00 0.0000000000e+00 0.0000000000e+00
   endloop
 endfacet
 facet normal  7.1243087926e-02 1.0545960579e-02 9.9740323096e-01
   outer loop
     vertex 4.2407627967e+00 -1.0802400038e+00 1.2155856896e-01
     vertex 5.9425827622e+00 -1.0802400038e+00 0.0000000000e+00
     vertex 5.7826771654e+00 0.0000000000e+00 0.0000000000e+00
   endloop
 endfacet
 facet normal  7.1243087926e-02 1.0545960579e-02 -9.9740323096e-01
   outer loop
     vertex 5.9425827622e+00 -1.0802400038e+00 0.0000000000e+00
     vertex 6.1355114576e+00 -2.3835670840e+00 0.0000000000e+00
     vertex 4.8223309269e+00 -2.3835670840e+00 -9.3798609340e-02
   endloop
 endfacet
 facet normal  7.1243087926e-02 1.0545960579e-02 -9.9740323096e-01
   outer loop
     vertex 5.9425827622e+00 -1.0802400038e+00 0.0000000000e+00
     vertex 4.8223309269e+00 -2.3835670840e+00 -9.3798609340e-02
     vertex 4.2407627967e+00 -1.0802400038e+00 -1.2155856896e-01
   endloop
 endfacet
 facet normal  7.1243087926e-02 1.0545960579e-02 -9.9740323096e-01
   outer loop
     vertex 4.2407627967e+00 -1.0802400038e+00 -1.2155856896e-01
     vertex 4.8223309269e+00 -2.3835670840e+00 -9.3798609340e-02
     vertex 3.5091503961e+00 -2.3835670840e+00 -1.8759721868e-01
   endloop
 endfacet
 facet normal  7.1243087926e-02 1.0545960579e-02 -9.9740323096e-01
   outer loop
     vertex 4.2407627967e+00 -1.0802400038e+00 -1.2155856896e-01
     vertex 3.5091503961e+00 -2.3835670840e+00 -1.8759721868e-01
     vertex 2.5389428313e+00 -1.0802400038e+00 -2.4311713792e-01
   endloop
 endfacet
 facet normal  -1.6222142113e-01 -1.6222142113e-01 -9.7332852678e-01
   outer loop
     vertex 2.5389428313e+00 -1.0802400038e+00 -2.4311713792e-01
     vertex 3.5091503961e+00 -2.3835670840e+00 -1.8759721868e-01
     vertex 1.8095914175e+00 -1.0802400038e+00 -1.2155856896e-01
   endloop
 endfacet
 facet normal  -1.6222142113e-01 -1.6222142113e-01 -9.7332852678e-01
   outer loop
     vertex 3.5091503961e+00 -2.3835670840e+00 -1.8759721868e-01
     vertex 2.9463587401e+00 -2.3835670840e+00 -9.3798609340e-02
     vertex 1.8095914175e+00 -1.0802400038e+00 -1.2155856896e-01
   endloop
 endfacet
 facet normal  -1.6222142113e-01 -1.6222142113e-01 -9.7332852678e-01
   outer loop
     vertex 1.8095914175e+00 -1.0802400038e+00 -1.2155856896e-01
     vertex 2.9463587401e+00 -2.3835670840e+00 -9.3798609340e-02
     vertex 1.0802400038e+00 -1.0802400038e+00 0.0000000000e+00
   endloop
 endfacet
 facet normal  -1.6222142113e-01 -1.6222142113e-01 -9.7332852678e-01
   outer loop
     vertex 2.9463587401e+00 -2.3835670840e+00 -9.3798609340e-02
     vertex 2.3835670840e+00 -2.3835670840e+00 0.0000000000e+00
     vertex 1.0802400038e+00 -1.0802400038e+00 0.0000000000e+00
   endloop
 endfacet
 facet normal  -1.6222142113e-01 -1.6222142113e-01 9.7332852678e-01
   outer loop
     vertex 1.0802400038e+00 -1.0802400038e+00 0.0000000000e+00
     vertex 2.3835670840e+00 -2.3835670840e+00 0.0000000000e+00
     vertex 2.9463587401e+00 -2.3835670840e+00 9.3798609340e-02
   endloop
 endfacet
 facet normal  -1.6222142113e-01 -1.6222142113e-01 9.7332852678e-01
   outer loop
     vertex 1.0802400038e+00 -1.0802400038e+00 0.0000000000e+00
     vertex 2.9463587401e+00 -2.3835670840e+00 9.3798609340e-02
     vertex 1.8095914175e+00 -1.0802400038e+00 1.2155856896e-01
   endloop
 endfacet
 facet normal  -1.6222142113e-01 -1.6222142113e-01 9.7332852678e-01
   outer loop
     vertex 1.8095914175e+00 -1.0802400038e+00 1.2155856896e-01
     vertex 2.9463587401e+00 -2.3835670840e+00 9.3798609340e-02
     vertex 3.5091503961e+00 -2.3835670840e+00 1.8759721868e-01
   endloop
 endfacet
 facet normal  -1.6222142113e-01 -1.6222142113e-01 9.7332852678e-01
   outer loop
     vertex 1.8095914175e+00 -1.0802400038e+00 1.2155856896e-01
     vertex 3.5091503961e+00 -2.3835670840e+00 1.8759721868e-01
     vertex 2.5389428313e+00 -1.0802400038e+00 2.4311713792e-01
   endloop
 endfacet
 facet normal  7.1243087926e-02 1.0545960579e-02 9.9740323096e-01
   outer loop
     vertex 2.5389428313e+00 -1.0802400038e+00 2.4311713792e-01
     vertex 3.5091503961e+00 -2.3835670840e+00 1.8759721868e-01
     vertex 4.2407627967e+00 -1.0802400038e+00 1.2155856896e-01
   endloop
 endfacet
 facet normal  7.1243087926e-02 1.0545960579e-02 9.9740323096e-01
   outer loop
     vertex 3.5091503961e+00 -2.3835670840e+00 1.8759721868e-01
     vertex 4.8223309269e+00 -2.3835670840e+00 9.3798609340e-02
     vertex 4.2407627967e+00 -1.0802400038e+00 1.2155856896e-01
   endloop
 endfacet
 facet normal  7.1243087926e-02 1.0545960579e-02 9.9740323096e-01
   outer loop
     vertex 4.2407627967e+00 -1.0802400038e+00 1.2155856896e-01
     vertex 4.8223309269e+00 -2.3835670840e+00 9.3798609340e-02
     vertex 5.9425827622e+00 -1.0802400038e+00 0.0000000000e+00
   endloop
 endfacet
 facet normal  7.1243087926e-02 1.0545960579e-02 9.9740323096e-01
   outer loop
     vertex 4.8223309269e+00 -2.3835670840e+00 9.3798609340e-02
     vertex 6.1355114576e+00 -2.3835670840e+00 0.0000000000e+00
     vertex 5.9425827622e+00 -1.0802400038e+00 0.0000000000e+00
   endloop
 endfacet
 facet normal  7.1243087926e-02 1.0545960579e-02 -9.9740323096e-01
   outer loop
     vertex 6.1355114576e+00 -2.3835670840e+00 0.0000000000e+00
     vertex 6.3518192586e+00 -3.8448313823e+00 0.0000000000e+00
     vertex 5.4743735019e+00 -3.8448313823e+00 -6.2674696908e-02
   endloop
 endfacet
 facet normal  7.1243087926e-02 1.0545960579e-02 -9.9740323096e-01
   outer loop
     vertex 6.1355114576e+00 -2.3835670840e+00 0.0000000000e+00
     vertex 5.4743735019e+00 -3.8448313823e+00 -6.2674696908e-02
     vertex 4.8223309269e+00 -2.3835670840e+00 -9.3798609340e-02
   endloop
 endfacet
 facet normal  7.1243087926e-02 1.0545960579e-02 -9.9740323096e-01
   outer loop
     vertex 4.8223309269e+00 -2.3835670840e+00 -9.3798609340e-02
     vertex 5.4743735019e+00 -3.8448313823e+00 -6.2674696908e-02
     vertex 4.5969277452e+00 -3.8448313823e+00 -1.2534939382e-01
   endloop
 endfacet
 facet normal  7.1243087926e-02 1.0545960579e-02 -9.9740323096e-01
   outer loop
     vertex 4.8223309269e+00 -2.3835670840e+00 -9.3798609340e-02
     vertex 4.5969277452e+00 -3.8448313823e+00 -1.2534939382e-01
     vertex 3.5091503961e+00 -2.3835670840e+00 -1.8759721868e-01
   endloop
 endfacet
 facet normal  -1.6222142113e-01 -1.6222142113e-01 -9.7332852678e-01
   outer loop
     vertex 3.5091503961e+00 -2.3835670840e+00 -1.8759721868e-01
     vertex 4.5969277452e+00 -3.8448313823e+00 -1.2534939382e-01
     vertex 2.9463587401e+00 -2.3835670840e+00 -9.3798609340e-02
   endloop
 endfacet
 facet normal  -1.6222142113e-01 -1.6222142113e-01 -9.7332852678e-01
   outer loop
     vertex 4.5969277452e+00 -3.8448313823e+00 -1.2534939382e-01
     vertex 4.2208795637e+00 -3.8448313823e+00 -6.2674696908e-02
     vertex 2.9463587401e+00 -2.3835670840e+00 -9.3798609340e-02
   endloop
 endfacet
 facet normal  -1.6222142113e-01 -1.6222142113e-01 -9.7332852678e-01
   outer loop
     vertex 2.9463587401e+00 -2.3835670840e+00 -9.3798609340e-02
     vertex 4.2208795637e+00 -3.8448313823e+00 -6.2674696908e-02
     vertex 2.3835670840e+00 -2.3835670840e+00 0.0000000000e+00
   endloop
 endfacet
 facet normal  -1.6222142113e-01 -1.6222142113e-01 -9.7332852678e-01
   outer loop
     vertex 4.2208795637e+00 -3.8448313823e+00 -6.2674696908e-02
     vertex 3.8448313823e+00 -3.8448313823e+00 0.0000000000e+00
     vertex 2.3835670840e+00 -2.3835670840e+00 0.0000000000e+00
   endloop
 endfacet
 facet normal  -1.6222142113e-01 -1.6222142113e-01 9.7332852678e-01
   outer loop
     vertex 2.3835670840e+00 -2.3835670840e+00 0.0000000000e+00
     vertex 3.8448313823e+00 -3.8448313823e+00 0.0000000000e+00
     vertex 4.2208795637e+00 -3.8448313823e+00 6.2674696908e-02
   endloop
 endfacet
 facet normal  -1.6222142113e-01 -1.6222142113e-01 9.7332852678e-01
   outer loop
     vertex 2.3835670840e+00 -2.3835670840e+00 0.0000000000e+00
     vertex 4.2208795637e+00 -3.8448313823e+00 6.2674696908e-02
     vertex 2.9463587401e+00 -2.3835670840e+00 9.3798609340e-02
   endloop
 endfacet
 facet normal  -1.6222142113e-01 -1.6222142113e-01 9.7332852678e-01
   outer loop
     vertex 2.9463587401e+00 -2.3835670840e+00 9.3798609340e-02
     vertex 4.2208795637e+00 -3.8448313823e+00 6.2674696908e-02
     vertex 4.5969277452e+00 -3.8448313823e+00 1.2534939382e-01
   endloop
 endfacet
 facet normal  -1.6222142113e-01 -1.6222142113e-01 9.7332852678e-01
   outer loop
     vertex 2.9463587401e+00 -2.3835670840e+00 9.3798609340e-02
     vertex 4.5969277452e+00 -3.8448313823e+00 1.2534939382e-01
     vertex 3.5091503961e+00 -2.3835670840e+00 1.8759721868e-01
   endloop
 endfacet
 facet normal  7.1243087926e-02 1.0545960579e-02 9.9740323096e-01
   outer loop
     vertex 3.5091503961e+00 -2.3835670840e+00 1.8759721868e-01
     vertex 4.5969277452e+00 -3.8448313823e+00 1.2534939382e-01
     vertex 4.8223309269e+00 -2.3835670840e+00 9.3798609340e-02
   endloop
 endfacet
 facet normal  7.1243087926e-02 1.0545960579e-02 9.9740323096e-01
   outer loop
     vertex 4.5969277452e+00 -3.8448313823e+00 1.2534939382e-01
     vertex 5.4743735019e+00 -3.8448313823e+00 6.2674696908e-02
     vertex 4.8223309269e+00 -2.3835670840e+00 9.3798609340e-02
   endloop
 endfacet
 facet normal  7.1243087926e-02 1.0545960579e-02 9.9740323096e-01
   outer loop
     vertex 4.8223309269e+00 -2.3835670840e+00 9.3798609340e-02
     vertex 5.4743735019e+00 -3.8448313823e+00 6.2674696908e-02
     vertex 6.1355114576e+00 -2.3835670840e+00 0.0000000000e+00
   endloop
 endfacet
 facet normal  7.1243087926e-02 1.0545960579e-02 9.9740323096e-01
   outer loop
     vertex 5.4743735019e+00 -3.8448313823e+00 6.2674696908e-02
     vertex 6.3518192586e+00 -3.8448313823e+00 0.0000000000e+00
     vertex 6.1355114576e+00 -2.3835670840e+00 0.0000000000e+00
   endloop
 endfacet
 facet normal  7.1243087926e-02 1.0545960579e-02 -9.9740323096e-01
   outer loop
     vertex 6.3518192586e+00 -3.8448313823e+00 0.0000000000e+00
     vertex 6.5752707489e+00 -5.3543547727e+00 0.0000000000e+00
     vertex 6.1479501572e+00 -5.3543547727e+00 -3.0522899404e-02
   endloop
 endfacet
 facet normal  7.1243087926e-02 1.0545960579e-02 -9.9740323096e-01
   outer loop
     vertex 6.3518192586e+00 -3.8448313823e+00 0.0000000000e+00
     vertex 6.1479501572e+00 -5.3543547727e+00 -3.0522899404e-02
     vertex 5.4743735019e+00 -3.8448313823e+00 -6.2674696908e-02
   endloop
 endfacet
 facet normal  7.1243087926e-02 1.0545960579e-02 -9.9740323096e-01
   outer loop
     vertex 5.4743735019e+00 -3.8448313823e+00 -6.2674696908e-02
     vertex 6.1479501572e+00 -5.3543547727e+00 -3.0522899404e-02
     vertex 5.7206295656e+00 -5.3543547727e+00 -6.1045798807e-02
   endloop
 endfacet
 facet normal  7.1243087926e-02 1.0545960579e-02 -9.9740323096e-01
   outer loop
     vertex 5.4743735019e+00 -3.8448313823e+00 -6.2674696908e-02
     vertex 5.7206295656e+00 -5.3543547727e+00 -6.1045798807e-02
     vertex 4.5969277452e+00 -3.8448313823e+00 -1.2534939382e-01
   endloop
 endfacet
 facet normal  -1.6222142113e-01 -1.6222142113e-01 -9.7332852678e-01
   outer loop
     vertex 4.5969277452e+00 -3.8448313823e+00 -1.2534939382e-01
     vertex 5.7206295656e+00 -5.3543547727e+00 -6.1045798807e-02
     vertex 4.2208795637e+00 -3.8448313823e+00 -6.2674696908e-02
   endloop
 endfacet
 facet normal  -1.6222142113e-01 -1.6222142113e-01 -9.7332852678e-01
   outer loop
     vertex 5.7206295656e+00 -5.3543547727e+00 -6.1045798807e-02
     vertex 5.5374921692e+00 -5.3543547727e+00 -3.0522899404e-02
     vertex 4.2208795637e+00 -3.8448313823e+00 -6.2674696908e-02
   endloop
 endfacet
 facet normal  -1.6222142113e-01 -1.6222142113e-01 -9.7332852678e-01
   outer loop
     vertex 4.2208795637e+00 -3.8448313823e+00 -6.2674696908e-02
     vertex 5.5374921692e+00 -5.3543547727e+00 -3.0522899404e-02
     vertex 3.8448313823e+00 -3.8448313823e+00 0.0000000000e+00
   endloop
 endfacet
 facet normal  -1.6222142113e-01 -1.6222142113e-01 -9.7332852678e-01
   outer loop
     vertex 5.5374921692e+00 -5.3543547727e+00 -3.0522899404e-02
     vertex 5.3543547727e+00 -5.3543547727e+00 0.0000000000e+00
     vertex 3.8448313823e+00 -3.8448313823e+00 0.0000000000e+00
   endloop
 endfacet
 facet normal  -1.6222142113e-01 -1.6222142113e-01 9.7332852678e-01
   outer loop
     vertex 3.8448313823e+00 -3.8448313823e+00 0.0000000000e+00
     vertex 5.3543547727e+00 -5.3543547727e+00 0.0000000000e+00
     vertex 5.5374921692e+00 -5.3543547727e+00 3.0522899404e-02
   endloop
 endfacet
 facet normal  -1.6222142113e-01 -1.6222142113e-01 9.7332852678e-01
   outer loop
     vertex 3.8448313823e+00 -3.8448313823e+00 0.0000000000e+00
     vertex 5.5374921692e+00 -5.3543547727e+00 3.0522899404e-02
     vertex 4.2208795637e+00 -3.8448313823e+00 6.2674696908e-02
   endloop
 endfacet
 facet normal  -1.6222142113e-01 -1.6222142113e-01 9.7332852678e-01
   outer loop
     vertex 4.2208795637e+00 -3.8448313823e+00 6.2674696908e-02
     vertex 5.5374921692e+00 -5.3543547727e+00 3.0522899404e-02
     vertex 5.7206295656e+00 -5.3543547727e+00 6.1045798807e-02
   endloop
 endfacet
 facet normal  -1.6222142113e-01 -1.6222142113e-01 9.7332852678e-01
   outer loop
     vertex 4.2208795637e+00 -3.8448313823e+00 6.2674696908e-02
     vertex 5.7206295656e+00 -5.3543547727e+00 6.1045798807e-02
     vertex 4.5969277452e+00 -3.8448313823e+00 1.2534939382e-01
   endloop
 endfacet
 facet normal  7.1243087926e-02 1.0545960579e-02 9.9740323096e-01
   outer loop
     vertex 4.5969277452e+00 -3.8448313823e+00 1.2534939382e-01
     vertex 5.7206295656e+00 -5.3543547727e+00 6.1045798807e-02
     vertex 5.4743735019e+00 -3.8448313823e+00 6.2674696908e-02
   endloop
 endfacet
 facet normal  7.1243087926e-02 1.0545960579e-02 9.9740323096e-01
   outer loop
     vertex 5.7206295656e+00 -5.3543547727e+00 6.1045798807e-02
     vertex 6.1479501572e+00 -5.3543547727e+00 3.0522899404e-02
     vertex 5.4743735019e+00 -3.8448313823e+00 6.2674696908e-02
   endloop
 endfacet
 facet normal  7.1243087926e-02 1.0545960579e-02 9.9740323096e-01
   outer loop
     vertex 5.4743735019e+00 -3.8448313823e+00 6.2674696908e-02
     vertex 6.1479501572e+00 -5.3543547727e+00 3.0522899404e-02
     vertex 6.3518192586e+00 -3.8448313823e+00 0.0000000000e+00
   endloop
 endfacet
 facet normal  7.1243087926e-02 1.0545960579e-02 9.9740323096e-01
   outer loop
     vertex 6.1479501572e+00 -5.3543547727e+00 3.0522899404e-02
     vertex 6.5752707489e+00 -5.3543547727e+00 0.0000000000e+00
     vertex 6.3518192586e+00 -3.8448313823e+00 0.0000000000e+00
   endloop
 endfacet
 facet normal  7.1243087926e-02 1.0545960579e-02 -9.9740323096e-01
   outer loop
     vertex 6.5752707489e+00 -5.3543547727e+00 0.0000000000e+00
     vertex 6.7874015748e+00 -6.7874015748e+00 0.0000000000e+00
     vertex 6.1479501572e+00 -5.3543547727e+00 -3.0522899404e-02
   endloop
 endfacet
 facet normal  7.1243087926e-02 1.0545960579e-02 -9.9740323096e-01
   outer loop
     vertex 6.1479501572e+00 -5.3543547727e+00 -3.0522899404e-02
     vertex 6.7874015748e+00 -6.7874015748e+00 0.0000000000e+00
     vertex 5.7206295656e+00 -5.3543547727e+00 -6.1045798807e-02
   endloop
 endfacet
 facet normal  -1.6222142113e-01 -1.6222142113e-01 -9.7332852678e-01
   outer loop
     vertex 5.7206295656e+00 -5.3543547727e+00 -6.1045798807e-02
     vertex 6.7874015748e+00 -6.7874015748e+00 0.0000000000e+00
     vertex 5.5374921692e+00 -5.3543547727e+00 -3.0522899404e-02
   endloop
 endfacet
 facet normal  -1.6222142113e-01 -1.6222142113e-01 -9.7332852678e-01
   outer loop
     vertex 5.5374921692e+00 -5.3543547727e+00 -3.0522899404e-02
     vertex 6.7874015748e+00 -6.7874015748e+00 0.0000000000e+00
     vertex 5.3543547727e+00 -5.3543547727e+00 0.0000000000e+00
   endloop
 endfacet
 facet normal  -1.6222142113e-01 -1.6222142113e-01 9.7332852678e-01
   outer loop
     vertex 5.3543547727e+00 -5.3543547727e+00 0.0000000000e+00
     vertex 6.7874015748e+00 -6.7874015748e+00 0.0000000000e+00
     vertex 5.5374921692e+00 -5.3543547727e+00 3.0522899404e-02
   endloop
 endfacet
 facet normal  -1.6222142113e-01 -1.6222142113e-01 9.7332852678e-01
   outer loop
     vertex 5.5374921692e+00 -5.3543547727e+00 3.0522899404e-02
     vertex 6.7874015748e+00 -6.7874015748e+00 0.0000000000e+00
     vertex 5.7206295656e+00 -5.3543547727e+00 6.1045798807e-02
   endloop
 endfacet
 facet normal  7.1243087926e-02 1.0545960579e-02 9.9740323096e-01
   outer loop
     vertex 5.7206295656e+00 -5.3543547727e+00 6.1045798807e-02
     vertex 6.7874015748e+00 -6.7874015748e+00 0.0000000000e+00
     vertex 6.1479501572e+00 -5.3543547727e+00 3.0522899404e-02
   endloop
 endfacet
 facet normal  7.1243087926e-02 1.0545960579e-02 9.9740323096e-01
   outer loop
     vertex 6.1479501572e+00 -5.3543547727e+00 3.0522899404e-02
     vertex 6.7874015748e+00 -6.7874015748e+00 0.0000000000e+00
     vertex 6.5752707489e+00 -5.3543547727e+00 0.0000000000e+00
   endloop
 endfacet
endsolid
