solid
 facet normal  6.9483400546e-02 0.0000000000e+00 -9.9758310784e-01
   outer loop
     vertex 4.0000000000e+00 0.0000000000e+00 0.0000000000e+00
     vertex 1.1285714286e+00 2.0787401575e+00 -2.0000000000e-01
     vertex 4.0000000000e+00 2.0787401575e+00 0.0000000000e+00
   endloop
 endfacet
 facet normal  6.9483400546e-02 0.0000000000e+00 -9.9758310784e-01
   outer loop
     vertex 4.0000000000e+00 0.0000000000e+00 0.0000000000e+00
     vertex 1.1285714286e+00 0.0000000000e+00 -2.0000000000e-01
     vertex 1.1285714286e+00 2.0787401575e+00 -2.0000000000e-01
   endloop
 endfacet
 facet normal  -1.7449632349e-01 0.0000000000e+00 -9.8465782538e-01
   outer loop
     vertex 1.1285714286e+00 0.0000000000e+00 -2.0000000000e-01
     vertex 0.0000000000e+00 0.0000000000e+00 0.0000000000e+00
     vertex 1.1285714286e+00 2.0787401575e+00 -2.0000000000e-01
   endloop
 endfacet
 facet normal  -1.7449632349e-01 0.0000000000e+00 -9.8465782538e-01
   outer loop
     vertex 1.1285714286e+00 2.0787401575e+00 -2.0000000000e-01
     vertex 0.0000000000e+00 0.0000000000e+00 0.0000000000e+00
     vertex 0.0000000000e+00 2.0787401575e+00 0.0000000000e+00
   endloop
 endfacet
 facet normal  -1.7449632349e-01 0.0000000000e+00 9.8465782538e-01
   outer loop
     vertex 0.0000000000e+00 0.0000000000e+00 0.0000000000e+00
     vertex 1.1285714286e+00 2.0787401575e+00 2.0000000000e-01
     vertex 0.0000000000e+00 2.0787401575e+00 0.0000000000e+00
   endloop
 endfacet
 facet normal  -1.7449632349e-01 0.0000000000e+00 9.8465782538e-01
   outer loop
     vertex 0.0000000000e+00 0.0000000000e+00 0.0000000000e+00
     vertex 1.1285714286e+00 0.0000000000e+00 2.0000000000e-01
     vertex 1.1285714286e+00 2.0787401575e+00 2.0000000000e-01
   endloop
 endfacet
 facet normal  6.9483400546e-02 0.0000000000e+00 9.9758310784e-01
   outer loop
     vertex 1.1285714286e+00 0.0000000000e+00 2.0000000000e-01
     vertex 4.0000000000e+00 0.0000000000e+00 0.0000000000e+00
     vertex 1.1285714286e+00 2.0787401575e+00 2.0000000000e-01
   endloop
 endfacet
 facet normal  6.9483400546e-02 -0.0000000000e+00 9.9758310784e-01
   outer loop
     vertex 1.1285714286e+00 2.0787401575e+00 2.0000000000e-01
     vertex 4.0000000000e+00 0.0000000000e+00 0.0000000000e+00
     vertex 4.0000000000e+00 2.0787401575e+00 0.0000000000e+00
   endloop
 endfacet
 facet normal  6.9483400546e-02 0.0000000000e+00 -9.9758310784e-01
   outer loop
     vertex 4.0000000000e+00 2.0787401575e+00 0.0000000000e+00
     vertex 1.1285714286e+00 4.1574803150e+00 -2.0000000000e-01
     vertex 4.0000000000e+00 4.1574803150e+00 0.0000000000e+00
   endloop
 endfacet
 facet normal  6.9483400546e-02 0.0000000000e+00 -9.9758310784e-01
   outer loop
     vertex 4.0000000000e+00 2.0787401575e+00 0.0000000000e+00
     vertex 1.1285714286e+00 2.0787401575e+00 -2.0000000000e-01
     vertex 1.1285714286e+00 4.1574803150e+00 -2.0000000000e-01
   endloop
 endfacet
 facet normal  -1.7449632349e-01 0.0000000000e+00 -9.8465782538e-01
   outer loop
     vertex 1.1285714286e+00 2.0787401575e+00 -2.0000000000e-01
     vertex 0.0000000000e+00 2.0787401575e+00 0.0000000000e+00
     vertex 1.1285714286e+00 4.1574803150e+00 -2.0000000000e-01
   endloop
 endfacet
 facet normal  -1.7449632349e-01 0.0000000000e+00 -9.8465782538e-01
   outer loop
     vertex 1.1285714286e+00 4.1574803150e+00 -2.0000000000e-01
     vertex 0.0000000000e+00 2.0787401575e+00 0.0000000000e+00
     vertex 0.0000000000e+00 4.1574803150e+00 0.0000000000e+00
   endloop
 endfacet
 facet normal  -1.7449632349e-01 0.0000000000e+00 9.8465782538e-01
   outer loop
     vertex 0.0000000000e+00 2.0787401575e+00 0.0000000000e+00
     vertex 1.1285714286e+00 4.1574803150e+00 2.0000000000e-01
     vertex 0.0000000000e+00 4.1574803150e+00 0.0000000000e+00
   endloop
 endfacet
 facet normal  -1.7449632349e-01 0.0000000000e+00 9.8465782538e-01
   outer loop
     vertex 0.0000000000e+00 2.0787401575e+00 0.0000000000e+00
     vertex 1.1285714286e+00 2.0787401575e+00 2.0000000000e-01
     vertex 1.1285714286e+00 4.1574803150e+00 2.0000000000e-01
   endloop
 endfacet
 facet normal  6.9483400546e-02 0.0000000000e+00 9.9758310784e-01
   outer loop
     vertex 1.1285714286e+00 2.0787401575e+00 2.0000000000e-01
     vertex 4.0000000000e+00 2.0787401575e+00 0.0000000000e+00
     vertex 1.1285714286e+00 4.1574803150e+00 2.0000000000e-01
   endloop
 endfacet
 facet normal  6.9483400546e-02 -0.0000000000e+00 9.9758310784e-01
   outer loop
     vertex 1.1285714286e+00 4.1574803150e+00 2.0000000000e-01
     vertex 4.0000000000e+00 2.0787401575e+00 0.0000000000e+00
     vertex 4.0000000000e+00 4.1574803150e+00 0.0000000000e+00
   endloop
 endfacet
 facet normal  4.9191593132e-02 7.0625072997e-01 -7.0625072997e-01
   outer loop
     vertex 4.0000000000e+00 4.1574803150e+00 0.0000000000e+00
     vertex 1.1285714286e+00 4.1574803150e+00 -2.0000000000e-01
     vertex 1.1285714286e+00 4.3574803150e+00 0.0000000000e+00
   endloop
 endfacet
 facet normal  -1.2433765203e-01 7.0161960787e-01 -7.0161960787e-01
   outer loop
     vertex 1.1285714286e+00 4.1574803150e+00 -2.0000000000e-01
     vertex 0.0000000000e+00 4.1574803150e+00 0.0000000000e+00
     vertex 1.1285714286e+00 4.3574803150e+00 0.0000000000e+00
   endloop
 endfacet
 facet normal  -1.2433765203e-01 7.0161960787e-01 7.0161960787e-01
   outer loop
     vertex 0.0000000000e+00 4.1574803150e+00 0.0000000000e+00
     vertex 1.1285714286e+00 4.1574803150e+00 2.0000000000e-01
     vertex 1.1285714286e+00 4.3574803150e+00 0.0000000000e+00
   endloop
 endfacet
 facet normal  4.9191593132e-02 7.0625072997e-01 7.0625072997e-01
   outer loop
     vertex 1.1285714286e+00 4.1574803150e+00 2.0000000000e-01
     vertex 4.0000000000e+00 4.1574803150e+00 0.0000000000e+00
     vertex 1.1285714286e+00 4.3574803150e+00 0.0000000000e+00
   endloop
 endfacet
 facet normal  6.9483400546e-02 0.0000000000e+00 -9.9758310784e-01
   outer loop
     vertex 4.0000000000e+00 0.0000000000e+00 0.0000000000e+00
     vertex 4.0000000000e+00 -2.0787401575e+00 0.0000000000e+00
     vertex 1.1285714286e+00 -2.0787401575e+00 -2.0000000000e-01
   endloop
 endfacet
 facet normal  6.9483400546e-02 0.0000000000e+00 -9.9758310784e-01
   outer loop
     vertex 4.0000000000e+00 0.0000000000e+00 0.0000000000e+00
     vertex 1.1285714286e+00 -2.0787401575e+00 -2.0000000000e-01
     vertex 1.1285714286e+00 0.0000000000e+00 -2.0000000000e-01
   endloop
 endfacet
 facet normal  -1.7449632349e-01 0.0000000000e+00 -9.8465782538e-01
   outer loop
     vertex 1.1285714286e+00 0.0000000000e+00 -2.0000000000e-01
     vertex 1.1285714286e+00 -2.0787401575e+00 -2.0000000000e-01
     vertex 0.0000000000e+00 0.0000000000e+00 0.0000000000e+00
   endloop
 endfacet
 facet normal  -1.7449632349e-01 0.0000000000e+00 -9.8465782538e-01
   outer loop
     vertex 1.1285714286e+00 -2.0787401575e+00 -2.0000000000e-01
     vertex 0.0000000000e+00 -2.0787401575e+00 0.0000000000e+00
     vertex 0.0000000000e+00 0.0000000000e+00 0.0000000000e+00
   endloop
 endfacet
 facet normal  -1.7449632349e-01 0.0000000000e+00 9.8465782538e-01
   outer loop
     vertex 0.0000000000e+00 0.0000000000e+00 0.0000000000e+00
     vertex 0.0000000000e+00 -2.0787401575e+00 0.0000000000e+00
     vertex 1.1285714286e+00 -2.0787401575e+00 2.0000000000e-01
   endloop
 endfacet
 facet normal  -1.7449632349e-01 0.0000000000e+00 9.8465782538e-01
   outer loop
     vertex 0.0000000000e+00 0.0000000000e+00 0.0000000000e+00
     vertex 1.1285714286e+00 -2.0787401575e+00 2.0000000000e-01
     vertex 1.1285714286e+00 0.0000000000e+00 2.0000000000e-01
   endloop
 endfacet
 facet normal  6.9483400546e-02 -0.0000000000e+00 9.9758310784e-01
   outer loop
     vertex 1.1285714286e+00 0.0000000000e+00 2.0000000000e-01
     vertex 1.1285714286e+00 -2.0787401575e+00 2.0000000000e-01
     vertex 4.0000000000e+00 0.0000000000e+00 0.0000000000e+00
   endloop
 endfacet
 facet normal  6.9483400546e-02 -0.0000000000e+00 9.9758310784e-01
   outer loop
     vertex 1.1285714286e+00 -2.0787401575e+00 2.0000000000e-01
     vertex 4.0000000000e+00 -2.0787401575e+00 0.0000000000e+00
     vertex 4.0000000000e+00 0.0000000000e+00 0.0000000000e+00
   endloop
 endfacet
 facet normal  6.9483400546e-02 0.0000000000e+00 -9.9758310784e-01
   outer loop
     vertex 4.0000000000e+00 -2.0787401575e+00 0.0000000000e+00
     vertex 4.0000000000e+00 -4.1574803150e+00 0.0000000000e+00
     vertex 1.1285714286e+00 -4.1574803150e+00 -2.0000000000e-01
   endloop
 endfacet
 facet normal  6.9483400546e-02 0.0000000000e+00 -9.9758310784e-01
   outer loop
     vertex 4.0000000000e+00 -2.0787401575e+00 0.0000000000e+00
     vertex 1.1285714286e+00 -4.1574803150e+00 -2.0000000000e-01
     vertex 1.1285714286e+00 -2.0787401575e+00 -2.0000000000e-01
   endloop
 endfacet
 facet normal  -1.7449632349e-01 0.0000000000e+00 -9.8465782538e-01
   outer loop
     vertex 1.1285714286e+00 -2.0787401575e+00 -2.0000000000e-01
     vertex 1.1285714286e+00 -4.1574803150e+00 -2.0000000000e-01
     vertex 0.0000000000e+00 -2.0787401575e+00 0.0000000000e+00
   endloop
 endfacet
 facet normal  -1.7449632349e-01 0.0000000000e+00 -9.8465782538e-01
   outer loop
     vertex 1.1285714286e+00 -4.1574803150e+00 -2.0000000000e-01
     vertex 0.0000000000e+00 -4.1574803150e+00 0.0000000000e+00
     vertex 0.0000000000e+00 -2.0787401575e+00 0.0000000000e+00
   endloop
 endfacet
 facet normal  -1.7449632349e-01 0.0000000000e+00 9.8465782538e-01
   outer loop
     vertex 0.0000000000e+00 -2.0787401575e+00 0.0000000000e+00
     vertex 0.0000000000e+00 -4.1574803150e+00 0.0000000000e+00
     vertex 1.1285714286e+00 -4.1574803150e+00 2.0000000000e-01
   endloop
 endfacet
 facet normal  -1.7449632349e-01 0.0000000000e+00 9.8465782538e-01
   outer loop
     vertex 0.0000000000e+00 -2.0787401575e+00 0.0000000000e+00
     vertex 1.1285714286e+00 -4.1574803150e+00 2.0000000000e-01
     vertex 1.1285714286e+00 -2.0787401575e+00 2.0000000000e-01
   endloop
 endfacet
 facet normal  6.9483400546e-02 -0.0000000000e+00 9.9758310784e-01
   outer loop
     vertex 1.1285714286e+00 -2.0787401575e+00 2.0000000000e-01
     vertex 1.1285714286e+00 -4.1574803150e+00 2.0000000000e-01
     vertex 4.0000000000e+00 -2.0787401575e+00 0.0000000000e+00
   endloop
 endfacet
 facet normal  6.9483400546e-02 -0.0000000000e+00 9.9758310784e-01
   outer loop
     vertex 1.1285714286e+00 -4.1574803150e+00 2.0000000000e-01
     vertex 4.0000000000e+00 -4.1574803150e+00 0.0000000000e+00
     vertex 4.0000000000e+00 -2.0787401575e+00 0.0000000000e+00
   endloop
 endfacet
 facet normal  4.9191593132e-02 -7.0625072997e-01 -7.0625072997e-01
   outer loop
     vertex 4.0000000000e+00 -4.1574803150e+00 0.0000000000e+00
     vertex 1.1285714286e+00 -4.3574803150e+00 0.0000000000e+00
     vertex 1.1285714286e+00 -4.1574803150e+00 -2.0000000000e-01
   endloop
 endfacet
 facet normal  -1.2433765203e-01 -7.0161960787e-01 -7.0161960787e-01
   outer loop
     vertex 1.1285714286e+00 -4.1574803150e+00 -2.0000000000e-01
     vertex 1.1285714286e+00 -4.3574803150e+00 0.0000000000e+00
     vertex 0.0000000000e+00 -4.1574803150e+00 0.0000000000e+00
   endloop
 endfacet
 facet normal  -1.2433765203e-01 -7.0161960787e-01 7.0161960787e-01
   outer loop
     vertex 0.0000000000e+00 -4.1574803150e+00 0.0000000000e+00
     vertex 1.1285714286e+00 -4.3574803150e+00 0.0000000000e+00
     vertex 1.1285714286e+00 -4.1574803150e+00 2.0000000000e-01
   endloop
 endfacet
 facet normal  4.9191593132e-02 -7.0625072997e-01 7.0625072997e-01
   outer loop
     vertex 1.1285714286e+00 -4.1574803150e+00 2.0000000000e-01
     vertex 1.1285714286e+00 -4.3574803150e+00 0.0000000000e+00
     vertex 4.0000000000e+00 -4.1574803150e+00 0.0000000000e+00
   endloop
 endfacet
endsolid
