solid
 facet normal  1.0228355173e-01 1.6443650859e-02 -9.9461936508e-01
   outer loop
     vertex 5.6703676898e-01 0.0000000000e+00 0.0000000000e+00
     vertex 2.8351838449e-01 0.0000000000e+00 -2.9156145923e-02
     vertex 2.8351838449e-01 1.7635540669e+00 0.0000000000e+00
   endloop
 endfacet
 facet normal  -1.0228355173e-01 1.6443650859e-02 -9.9461936508e-01
   outer loop
     vertex 2.8351838449e-01 0.0000000000e+00 -2.9156145923e-02
     vertex 0.0000000000e+00 0.0000000000e+00 0.0000000000e+00
     vertex 2.8351838449e-01 1.7635540669e+00 0.0000000000e+00
   endloop
 endfacet
 facet normal  -1.0228355173e-01 1.6443650859e-02 9.9461936508e-01
   outer loop
     vertex 0.0000000000e+00 0.0000000000e+00 0.0000000000e+00
     vertex 2.8351838449e-01 0.0000000000e+00 2.9156145923e-02
     vertex 2.8351838449e-01 1.7635540669e+00 0.0000000000e+00
   endloop
 endfacet
 facet normal  1.0228355173e-01 1.6443650859e-02 9.9461936508e-01
   outer loop
     vertex 2.8351838449e-01 0.0000000000e+00 2.9156145923e-02
     vertex 5.6703676898e-01 0.0000000000e+00 0.0000000000e+00
     vertex 2.8351838449e-01 1.7635540669e+00 0.0000000000e+00
   endloop
 endfacet
 facet normal  1.0228355173e-01 -1.6443650859e-02 -9.9461936508e-01
   outer loop
     vertex 5.6703676898e-01 0.0000000000e+00 0.0000000000e+00
     vertex 2.8351838449e-01 -1.7635540669e+00 0.0000000000e+00
     vertex 2.8351838449e-01 0.0000000000e+00 -2.9156145923e-02
   endloop
 endfacet
 facet normal  -1.0228355173e-01 -1.6443650859e-02 -9.9461936508e-01
   outer loop
     vertex 2.8351838449e-01 0.0000000000e+00 -2.9156145923e-02
     vertex 2.8351838449e-01 -1.7635540669e+00 0.0000000000e+00
     vertex 0.0000000000e+00 0.0000000000e+00 0.0000000000e+00
   endloop
 endfacet
 facet normal  -1.0228355173e-01 -1.6443650859e-02 9.9461936508e-01
   outer loop
     vertex 0.0000000000e+00 0.0000000000e+00 0.0000000000e+00
     vertex 2.8351838449e-01 -1.7635540669e+00 0.0000000000e+00
     vertex 2.8351838449e-01 0.0000000000e+00 2.9156145923e-02
   endloop
 endfacet
 facet normal  1.0228355173e-01 -1.6443650859e-02 9.9461936508e-01
   outer loop
     vertex 2.8351838449e-01 0.0000000000e+00 2.9156145923e-02
     vertex 2.8351838449e-01 -1.7635540669e+00 0.0000000000e+00
     vertex 5.6703676898e-01 0.0000000000e+00 0.0000000000e+00
   endloop
 endfacet
endsolid
