solid
 facet normal  -9.1236968626e-01 3.7816894221e-01 -1.5674758928e-01
   outer loop
     vertex 0.0000000000e+00 0.0000000000e+00 0.0000000000e+00
     vertex 2.9303186581e-01 7.0696813419e-01 0.0000000000e+00
     vertex 2.9303186581e-01 4.9980394275e-01 -4.9980394275e-01
   endloop
 endfacet
 facet normal  -9.1236968626e-01 1.5674758928e-01 -3.7816894221e-01
   outer loop
     vertex 0.0000000000e+00 0.0000000000e+00 0.0000000000e+00
     vertex 2.9303186581e-01 4.9980394275e-01 -4.9980394275e-01
     vertex 2.9303186581e-01 0.0000000000e+00 -7.0696813419e-01
   endloop
 endfacet
 facet normal  -9.1236968626e-01 -1.5674758928e-01 -3.7816894221e-01
   outer loop
     vertex 2.9303186581e-01 0.0000000000e+00 -7.0696813419e-01
     vertex 2.9303186581e-01 -4.9980394275e-01 -4.9980394275e-01
     vertex 0.0000000000e+00 0.0000000000e+00 0.0000000000e+00
   endloop
 endfacet
 facet normal  -9.1236968626e-01 -3.7816894221e-01 -1.5674758928e-01
   outer loop
     vertex 2.9303186581e-01 -4.9980394275e-01 -4.9980394275e-01
     vertex 2.9303186581e-01 -7.0696813419e-01 0.0000000000e+00
     vertex 0.0000000000e+00 0.0000000000e+00 0.0000000000e+00
   endloop
 endfacet
 facet normal  -9.1236968626e-01 -3.7816894221e-01 1.5674758928e-01
   outer loop
     vertex 0.0000000000e+00 0.0000000000e+00 0.0000000000e+00
     vertex 2.9303186581e-01 -7.0696813419e-01 0.0000000000e+00
     vertex 2.9303186581e-01 -4.9980394275e-01 4.9980394275e-01
   endloop
 endfacet
 facet normal  -9.1236968626e-01 -1.5674758928e-01 3.7816894221e-01
   outer loop
     vertex 0.0000000000e+00 0.0000000000e+00 0.0000000000e+00
     vertex 2.9303186581e-01 -4.9980394275e-01 4.9980394275e-01
     vertex 2.9303186581e-01 0.0000000000e+00 7.0696813419e-01
   endloop
 endfacet
 facet normal  -9.1236968626e-01 1.5674758928e-01 3.7816894221e-01
   outer loop
     vertex 2.9303186581e-01 0.0000000000e+00 7.0696813419e-01
     vertex 2.9303186581e-01 4.9980394275e-01 4.9980394275e-01
     vertex 0.0000000000e+00 0.0000000000e+00 0.0000000000e+00
   endloop
 endfacet
 facet normal  -9.1236968626e-01 3.7816894221e-01 1.5674758928e-01
   outer loop
     vertex 2.9303186581e-01 4.9980394275e-01 4.9980394275e-01
     vertex 2.9303186581e-01 7.0696813419e-01 0.0000000000e+00
     vertex 0.0000000000e+00 0.0000000000e+00 0.0000000000e+00
   endloop
 endfacet
 facet normal  -3.5758487123e-01 8.6270859492e-01 -3.5758487123e-01
   outer loop
     vertex 2.9303186581e-01 7.0696813419e-01 0.0000000000e+00
     vertex 1.0000000000e+00 1.0000000000e+00 0.0000000000e+00
     vertex 1.0000000000e+00 7.0696813419e-01 -7.0696813419e-01
   endloop
 endfacet
 facet normal  -3.5758487123e-01 8.6270859492e-01 -3.5758487123e-01
   outer loop
     vertex 2.9303186581e-01 7.0696813419e-01 0.0000000000e+00
     vertex 1.0000000000e+00 7.0696813419e-01 -7.0696813419e-01
     vertex 2.9303186581e-01 4.9980394275e-01 -4.9980394275e-01
   endloop
 endfacet
 facet normal  -3.5758487123e-01 3.5758487123e-01 -8.6270859492e-01
   outer loop
     vertex 2.9303186581e-01 4.9980394275e-01 -4.9980394275e-01
     vertex 1.0000000000e+00 7.0696813419e-01 -7.0696813419e-01
     vertex 1.0000000000e+00 0.0000000000e+00 -1.0000000000e+00
   endloop
 endfacet
 facet normal  -3.5758487123e-01 3.5758487123e-01 -8.6270859492e-01
   outer loop
     vertex 2.9303186581e-01 4.9980394275e-01 -4.9980394275e-01
     vertex 1.0000000000e+00 0.0000000000e+00 -1.0000000000e+00
     vertex 2.9303186581e-01 0.0000000000e+00 -7.0696813419e-01
   endloop
 endfacet
 facet normal  -3.5758487123e-01 -3.5758487123e-01 -8.6270859492e-01
   outer loop
     vertex 2.9303186581e-01 0.0000000000e+00 -7.0696813419e-01
     vertex 1.0000000000e+00 0.0000000000e+00 -1.0000000000e+00
     vertex 2.9303186581e-01 -4.9980394275e-01 -4.9980394275e-01
   endloop
 endfacet
 facet normal  -3.5758487123e-01 -3.5758487123e-01 -8.6270859492e-01
   outer loop
     vertex 1.0000000000e+00 0.0000000000e+00 -1.0000000000e+00
     vertex 1.0000000000e+00 -7.0696813419e-01 -7.0696813419e-01
     vertex 2.9303186581e-01 -4.9980394275e-01 -4.9980394275e-01
   endloop
 endfacet
 facet normal  -3.5758487123e-01 -8.6270859492e-01 -3.5758487123e-01
   outer loop
     vertex 2.9303186581e-01 -4.9980394275e-01 -4.9980394275e-01
     vertex 1.0000000000e+00 -7.0696813419e-01 -7.0696813419e-01
     vertex 2.9303186581e-01 -7.0696813419e-01 0.0000000000e+00
   endloop
 endfacet
 facet normal  -3.5758487123e-01 -8.6270859492e-01 -3.5758487123e-01
   outer loop
     vertex 1.0000000000e+00 -7.0696813419e-01 -7.0696813419e-01
     vertex 1.0000000000e+00 -1.0000000000e+00 0.0000000000e+00
     vertex 2.9303186581e-01 -7.0696813419e-01 0.0000000000e+00
   endloop
 endfacet
 facet normal  -3.5758487123e-01 -8.6270859492e-01 3.5758487123e-01
   outer loop
     vertex 2.9303186581e-01 -7.0696813419e-01 0.0000000000e+00
     vertex 1.0000000000e+00 -1.0000000000e+00 0.0000000000e+00
     vertex 1.0000000000e+00 -7.0696813419e-01 7.0696813419e-01
   endloop
 endfacet
 facet normal  -3.5758487123e-01 -8.6270859492e-01 3.5758487123e-01
   outer loop
     vertex 2.9303186581e-01 -7.0696813419e-01 0.0000000000e+00
     vertex 1.0000000000e+00 -7.0696813419e-01 7.0696813419e-01
     vertex 2.9303186581e-01 -4.9980394275e-01 4.9980394275e-01
   endloop
 endfacet
 facet normal  -3.5758487123e-01 -3.5758487123e-01 8.6270859492e-01
   outer loop
     vertex 2.9303186581e-01 -4.9980394275e-01 4.9980394275e-01
     vertex 1.0000000000e+00 -7.0696813419e-01 7.0696813419e-01
     vertex 1.0000000000e+00 0.0000000000e+00 1.0000000000e+00
   endloop
 endfacet
 facet normal  -3.5758487123e-01 -3.5758487123e-01 8.6270859492e-01
   outer loop
     vertex 2.9303186581e-01 -4.9980394275e-01 4.9980394275e-01
     vertex 1.0000000000e+00 0.0000000000e+00 1.0000000000e+00
     vertex 2.9303186581e-01 0.0000000000e+00 7.0696813419e-01
   endloop
 endfacet
 facet normal  -3.5758487123e-01 3.5758487123e-01 8.6270859492e-01
   outer loop
     vertex 2.9303186581e-01 0.0000000000e+00 7.0696813419e-01
     vertex 1.0000000000e+00 0.0000000000e+00 1.0000000000e+00
     vertex 2.9303186581e-01 4.9980394275e-01 4.9980394275e-01
   endloop
 endfacet
 facet normal  -3.5758487123e-01 3.5758487123e-01 8.6270859492e-01
   outer loop
     vertex 1.0000000000e+00 0.0000000000e+00 1.0000000000e+00
     vertex 1.0000000000e+00 7.0696813419e-01 7.0696813419e-01
     vertex 2.9303186581e-01 4.9980394275e-01 4.9980394275e-01
   endloop
 endfacet
 facet normal  -3.5758487123e-01 8.6270859492e-01 3.5758487123e-01
   outer loop
     vertex 2.9303186581e-01 4.9980394275e-01 4.9980394275e-01
     vertex 1.0000000000e+00 7.0696813419e-01 7.0696813419e-01
     vertex 2.9303186581e-01 7.0696813419e-01 0.0000000000e+00
   endloop
 endfacet
 facet normal  -3.5758487123e-01 8.6270859492e-01 3.5758487123e-01
   outer loop
     vertex 1.0000000000e+00 7.0696813419e-01 7.0696813419e-01
     vertex 1.0000000000e+00 1.0000000000e+00 0.0000000000e+00
     vertex 2.9303186581e-01 7.0696813419e-01 0.0000000000e+00
   endloop
 endfacet
 facet normal  3.5758487123e-01 8.6270859492e-01 -3.5758487123e-01
   outer loop
     vertex 1.0000000000e+00 1.0000000000e+00 0.0000000000e+00
     vertex 1.7069681342e+00 7.0696813419e-01 0.0000000000e+00
     vertex 1.7069681342e+00 4.9980394275e-01 -4.9980394275e-01
   endloop
 endfacet
 facet normal  3.5758487123e-01 8.6270859492e-01 -3.5758487123e-01
   outer loop
     vertex 1.0000000000e+00 1.0000000000e+00 0.0000000000e+00
     vertex 1.7069681342e+00 4.9980394275e-01 -4.9980394275e-01
     vertex 1.0000000000e+00 7.0696813419e-01 -7.0696813419e-01
   endloop
 endfacet
 facet normal  3.5758487123e-01 3.5758487123e-01 -8.6270859492e-01
   outer loop
     vertex 1.0000000000e+00 7.0696813419e-01 -7.0696813419e-01
     vertex 1.7069681342e+00 4.9980394275e-01 -4.9980394275e-01
     vertex 1.7069681342e+00 0.0000000000e+00 -7.0696813419e-01
   endloop
 endfacet
 facet normal  3.5758487123e-01 3.5758487123e-01 -8.6270859492e-01
   outer loop
     vertex 1.0000000000e+00 7.0696813419e-01 -7.0696813419e-01
     vertex 1.7069681342e+00 0.0000000000e+00 -7.0696813419e-01
     vertex 1.0000000000e+00 0.0000000000e+00 -1.0000000000e+00
   endloop
 endfacet
 facet normal  3.5758487123e-01 -3.5758487123e-01 -8.6270859492e-01
   outer loop
     vertex 1.0000000000e+00 0.0000000000e+00 -1.0000000000e+00
     vertex 1.7069681342e+00 0.0000000000e+00 -7.0696813419e-01
     vertex 1.0000000000e+00 -7.0696813419e-01 -7.0696813419e-01
   endloop
 endfacet
 facet normal  3.5758487123e-01 -3.5758487123e-01 -8.6270859492e-01
   outer loop
     vertex 1.7069681342e+00 0.0000000000e+00 -7.0696813419e-01
     vertex 1.7069681342e+00 -4.9980394275e-01 -4.9980394275e-01
     vertex 1.0000000000e+00 -7.0696813419e-01 -7.0696813419e-01
   endloop
 endfacet
 facet normal  3.5758487123e-01 -8.6270859492e-01 -3.5758487123e-01
   outer loop
     vertex 1.0000000000e+00 -7.0696813419e-01 -7.0696813419e-01
     vertex 1.7069681342e+00 -4.9980394275e-01 -4.9980394275e-01
     vertex 1.0000000000e+00 -1.0000000000e+00 0.0000000000e+00
   endloop
 endfacet
 facet normal  3.5758487123e-01 -8.6270859492e-01 -3.5758487123e-01
   outer loop
     vertex 1.7069681342e+00 -4.9980394275e-01 -4.9980394275e-01
     vertex 1.7069681342e+00 -7.0696813419e-01 0.0000000000e+00
     vertex 1.0000000000e+00 -1.0000000000e+00 0.0000000000e+00
   endloop
 endfacet
 facet normal  3.5758487123e-01 -8.6270859492e-01 3.5758487123e-01
   outer loop
     vertex 1.0000000000e+00 -1.0000000000e+00 0.0000000000e+00
     vertex 1.7069681342e+00 -7.0696813419e-01 0.0000000000e+00
     vertex 1.7069681342e+00 -4.9980394275e-01 4.9980394275e-01
   endloop
 endfacet
 facet normal  3.5758487123e-01 -8.6270859492e-01 3.5758487123e-01
   outer loop
     vertex 1.0000000000e+00 -1.0000000000e+00 0.0000000000e+00
     vertex 1.7069681342e+00 -4.9980394275e-01 4.9980394275e-01
     vertex 1.0000000000e+00 -7.0696813419e-01 7.0696813419e-01
   endloop
 endfacet
 facet normal  3.5758487123e-01 -3.5758487123e-01 8.6270859492e-01
   outer loop
     vertex 1.0000000000e+00 -7.0696813419e-01 7.0696813419e-01
     vertex 1.7069681342e+00 -4.9980394275e-01 4.9980394275e-01
     vertex 1.7069681342e+00 0.0000000000e+00 7.0696813419e-01
   endloop
 endfacet
 facet normal  3.5758487123e-01 -3.5758487123e-01 8.6270859492e-01
   outer loop
     vertex 1.0000000000e+00 -7.0696813419e-01 7.0696813419e-01
     vertex 1.7069681342e+00 0.0000000000e+00 7.0696813419e-01
     vertex 1.0000000000e+00 0.0000000000e+00 1.0000000000e+00
   endloop
 endfacet
 facet normal  3.5758487123e-01 3.5758487123e-01 8.6270859492e-01
   outer loop
     vertex 1.0000000000e+00 0.0000000000e+00 1.0000000000e+00
     vertex 1.7069681342e+00 0.0000000000e+00 7.0696813419e-01
     vertex 1.0000000000e+00 7.0696813419e-01 7.0696813419e-01
   endloop
 endfacet
 facet normal  3.5758487123e-01 3.5758487123e-01 8.6270859492e-01
   outer loop
     vertex 1.7069681342e+00 0.0000000000e+00 7.0696813419e-01
     vertex 1.7069681342e+00 4.9980394275e-01 4.9980394275e-01
     vertex 1.0000000000e+00 7.0696813419e-01 7.0696813419e-01
   endloop
 endfacet
 facet normal  3.5758487123e-01 8.6270859492e-01 3.5758487123e-01
   outer loop
     vertex 1.0000000000e+00 7.0696813419e-01 7.0696813419e-01
     vertex 1.7069681342e+00 4.9980394275e-01 4.9980394275e-01
     vertex 1.0000000000e+00 1.0000000000e+00 0.0000000000e+00
   endloop
 endfacet
 facet normal  3.5758487123e-01 8.6270859492e-01 3.5758487123e-01
   outer loop
     vertex 1.7069681342e+00 4.9980394275e-01 4.9980394275e-01
     vertex 1.7069681342e+00 7.0696813419e-01 0.0000000000e+00
     vertex 1.0000000000e+00 1.0000000000e+00 0.0000000000e+00
   endloop
 endfacet
 facet normal  9.1236968626e-01 3.7816894221e-01 -1.5674758928e-01
   outer loop
     vertex 1.7069681342e+00 7.0696813419e-01 0.0000000000e+00
     vertex 2.0000000000e+00 0.0000000000e+00 0.0000000000e+00
     vertex 1.7069681342e+00 4.9980394275e-01 -4.9980394275e-01
   endloop
 endfacet
 facet normal  9.1236968626e-01 1.5674758928e-01 -3.7816894221e-01
   outer loop
     vertex 1.7069681342e+00 4.9980394275e-01 -4.9980394275e-01
     vertex 2.0000000000e+00 0.0000000000e+00 0.0000000000e+00
     vertex 1.7069681342e+00 0.0000000000e+00 -7.0696813419e-01
   endloop
 endfacet
 facet normal  9.1236968626e-01 -1.5674758928e-01 -3.7816894221e-01
   outer loop
     vertex 1.7069681342e+00 0.0000000000e+00 -7.0696813419e-01
     vertex 2.0000000000e+00 0.0000000000e+00 0.0000000000e+00
     vertex 1.7069681342e+00 -4.9980394275e-01 -4.9980394275e-01
   endloop
 endfacet
 facet normal  9.1236968626e-01 -3.7816894221e-01 -1.5674758928e-01
   outer loop
     vertex 1.7069681342e+00 -4.9980394275e-01 -4.9980394275e-01
     vertex 2.0000000000e+00 0.0000000000e+00 0.0000000000e+00
     vertex 1.7069681342e+00 -7.0696813419e-01 0.0000000000e+00
   endloop
 endfacet
 facet normal  9.1236968626e-01 -3.7816894221e-01 1.5674758928e-01
   outer loop
     vertex 1.7069681342e+00 -7.0696813419e-01 0.0000000000e+00
     vertex 2.0000000000e+00 0.0000000000e+00 0.0000000000e+00
     vertex 1.7069681342e+00 -4.9980394275e-01 4.9980394275e-01
   endloop
 endfacet
 facet normal  9.1236968626e-01 -1.5674758928e-01 3.7816894221e-01
   outer loop
     vertex 1.7069681342e+00 -4.9980394275e-01 4.9980394275e-01
     vertex 2.0000000000e+00 0.0000000000e+00 0.0000000000e+00
     vertex 1.7069681342e+00 0.0000000000e+00 7.0696813419e-01
   endloop
 endfacet
 facet normal  9.1236968626e-01 1.5674758928e-01 3.7816894221e-01
   outer loop
     vertex 1.7069681342e+00 0.0000000000e+00 7.0696813419e-01
     vertex 2.0000000000e+00 0.0000000000e+00 0.0000000000e+00
     vertex 1.7069681342e+00 4.9980394275e-01 4.9980394275e-01
   endloop
 endfacet
 facet normal  9.1236968626e-01 3.7816894221e-01 1.5674758928e-01
   outer loop
     vertex 1.7069681342e+00 4.9980394275e-01 4.9980394275e-01
     vertex 2.0000000000e+00 0.0000000000e+00 0.0000000000e+00
     vertex 1.7069681342e+00 7.0696813419e-01 0.0000000000e+00
   endloop
 endfacet
endsolid
