solid
 facet normal  1.0579558140e-01 -1.0579558140e-01 9.8874394558e-01
   outer loop
     vertex 1.8999999762e+01 0.0000000000e+00 1.0700000450e-01
     vertex 2.4999999894e+01 5.4444444444e+00 4.7555557556e-02
     vertex 2.4555555344e+01 5.4444444444e+00 9.5111115111e-02
   endloop
 endfacet
 facet normal  1.0579558140e-01 -1.0579558140e-01 9.8874394558e-01
   outer loop
     vertex 1.8999999762e+01 0.0000000000e+00 1.0700000450e-01
     vertex 1.9499999881e+01 0.0000000000e+00 5.3500002250e-02
     vertex 2.4999999894e+01 5.4444444444e+00 4.7555557556e-02
   endloop
 endfacet
 facet normal  1.0579558140e-01 -1.0579558140e-01 9.8874394558e-01
   outer loop
     vertex 1.9499999881e+01 0.0000000000e+00 5.3500002250e-02
     vertex 2.5444444444e+01 5.4444444444e+00 0.0000000000e+00
     vertex 2.4999999894e+01 5.4444444444e+00 4.7555557556e-02
   endloop
 endfacet
 facet normal  1.0579558140e-01 -1.0579558140e-01 9.8874394558e-01
   outer loop
     vertex 1.9499999881e+01 0.0000000000e+00 5.3500002250e-02
     vertex 2.0000000000e+01 0.0000000000e+00 0.0000000000e+00
     vertex 2.5444444444e+01 5.4444444444e+00 0.0000000000e+00
   endloop
 endfacet
 facet normal  1.0628606931e-01 -1.0628606931e-01 -9.8863873227e-01
   outer loop
     vertex 2.0000000000e+01 0.0000000000e+00 0.0000000000e+00
     vertex 2.4024412605e+01 5.4444444444e+00 -1.5266405974e-01
     vertex 2.5444444444e+01 5.4444444444e+00 0.0000000000e+00
   endloop
 endfacet
 facet normal  1.0565288172e-01 -1.0582133188e-01 -9.8875644843e-01
   outer loop
     vertex 2.0000000000e+01 0.0000000000e+00 0.0000000000e+00
     vertex 1.8579617467e+01 0.0000000000e+00 -1.5177398640e-01
     vertex 2.4024412605e+01 5.4444444444e+00 -1.5266405974e-01
   endloop
 endfacet
 facet normal  1.0574241261e-01 -1.0591086541e-01 -9.8873729108e-01
   outer loop
     vertex 1.8579617467e+01 0.0000000000e+00 -1.5177398640e-01
     vertex 2.0750992188e+01 5.4444444444e+00 -5.0274630654e-01
     vertex 2.4024412605e+01 5.4444444444e+00 -1.5266405974e-01
   endloop
 endfacet
 facet normal  1.0661102431e-01 -1.0624893678e-01 -9.8860773461e-01
   outer loop
     vertex 1.8579617467e+01 0.0000000000e+00 -1.5177398640e-01
     vertex 1.5305917342e+01 0.0000000000e+00 -5.0480837140e-01
     vertex 2.0750992188e+01 5.4444444444e+00 -5.0274630654e-01
   endloop
 endfacet
 facet normal  9.3938170742e-02 -9.3573645079e-02 -9.9117081930e-01
   outer loop
     vertex 1.5305917342e+01 0.0000000000e+00 -5.0480837140e-01
     vertex 1.5335347545e+01 5.4444444444e+00 -1.0160137891e+00
     vertex 2.0750992188e+01 5.4444444444e+00 -5.0274630654e-01
   endloop
 endfacet
 facet normal  9.6520326735e-02 -9.3564388089e-02 -9.9092357516e-01
   outer loop
     vertex 1.5305917342e+01 0.0000000000e+00 -5.0480837140e-01
     vertex 9.8905162155e+00 0.0000000000e+00 -1.0322923260e+00
     vertex 1.5335347545e+01 5.4444444444e+00 -1.0160137891e+00
   endloop
 endfacet
 facet normal  2.0688626999e-02 -1.7701270292e-02 -9.9962925415e-01
   outer loop
     vertex 9.8905162155e+00 0.0000000000e+00 -1.0322923260e+00
     vertex 4.4543877188e+00 0.0000000000e+00 -1.1448000726e+00
     vertex 1.5335347545e+01 5.4444444444e+00 -1.0160137891e+00
   endloop
 endfacet
 facet normal  2.0220401874e-02 -1.6764893473e-02 -9.9965497733e-01
   outer loop
     vertex 1.5335347545e+01 5.4444444444e+00 -1.0160137891e+00
     vertex 4.4543877188e+00 0.0000000000e+00 -1.1448000726e+00
     vertex 9.8998747329e+00 5.4444444444e+00 -1.1259591674e+00
   endloop
 endfacet
 facet normal  -1.3576885887e-01 1.3918938499e-01 -9.8091443667e-01
   outer loop
     vertex 4.4543877188e+00 0.0000000000e+00 -1.1448000726e+00
     vertex 1.1965417100e+00 0.0000000000e+00 -6.9387997350e-01
     vertex 9.8998747329e+00 5.4444444444e+00 -1.1259591674e+00
   endloop
 endfacet
 facet normal  -1.3205999592e-01 1.3315389918e-01 -9.8225770377e-01
   outer loop
     vertex 9.8998747329e+00 5.4444444444e+00 -1.1259591674e+00
     vertex 1.1965417100e+00 0.0000000000e+00 -6.9387997350e-01
     vertex 6.6410965197e+00 5.4444444444e+00 -6.8783153966e-01
   endloop
 endfacet
 facet normal  -4.4822296165e-01 4.4909071896e-01 -7.7292541865e-01
   outer loop
     vertex 1.1965417100e+00 0.0000000000e+00 -6.9387997350e-01
     vertex 0.0000000000e+00 0.0000000000e+00 0.0000000000e+00
     vertex 6.6410965197e+00 5.4444444444e+00 -6.8783153966e-01
   endloop
 endfacet
 facet normal  -4.4602360120e-01 4.4602360120e-01 -7.7596771475e-01
   outer loop
     vertex 6.6410965197e+00 5.4444444444e+00 -6.8783153966e-01
     vertex 0.0000000000e+00 0.0000000000e+00 0.0000000000e+00
     vertex 5.4444444444e+00 5.4444444444e+00 0.0000000000e+00
   endloop
 endfacet
 facet normal  -4.6124025650e-01 4.6124025650e-01 7.5796757950e-01
   outer loop
     vertex 0.0000000000e+00 0.0000000000e+00 0.0000000000e+00
     vertex 6.5199847391e+00 5.4444444444e+00 6.5449036979e-01
     vertex 5.4444444444e+00 5.4444444444e+00 0.0000000000e+00
   endloop
 endfacet
 facet normal  -4.6543395420e-01 4.6699731622e-01 7.5185420190e-01
   outer loop
     vertex 0.0000000000e+00 0.0000000000e+00 0.0000000000e+00
     vertex 1.0602909569e+00 0.0000000000e+00 6.5637115740e-01
     vertex 6.5199847391e+00 5.4444444444e+00 6.5449036979e-01
   endloop
 endfacet
 facet normal  -1.4565548233e-01 1.4640145256e-01 9.7844319976e-01
   outer loop
     vertex 1.0602909569e+00 0.0000000000e+00 6.5637115740e-01
     vertex 9.4856592973e+00 5.4444444444e+00 1.0959741047e+00
     vertex 6.5199847391e+00 5.4444444444e+00 6.5449036979e-01
   endloop
 endfacet
 facet normal  -1.5157499232e-01 1.5575138430e-01 9.7609760167e-01
   outer loop
     vertex 1.0602909569e+00 0.0000000000e+00 6.5637115740e-01
     vertex 3.9883953537e+00 0.0000000000e+00 1.1110668771e+00
     vertex 9.4856592973e+00 5.4444444444e+00 1.0959741047e+00
   endloop
 endfacet
 facet normal  3.3886515750e-03 -6.4940134796e-04 9.9999404764e-01
   outer loop
     vertex 3.9883953537e+00 0.0000000000e+00 1.1110668771e+00
     vertex 1.4443517358e+01 5.4444444444e+00 1.0791735511e+00
     vertex 9.4856592973e+00 5.4444444444e+00 1.0959741047e+00
   endloop
 endfacet
 facet normal  1.5758470278e-03 2.8317830535e-03 9.9999474884e-01
   outer loop
     vertex 3.9883953537e+00 0.0000000000e+00 1.1110668771e+00
     vertex 8.8872072549e+00 0.0000000000e+00 1.1033470584e+00
     vertex 1.4443517358e+01 5.4444444444e+00 1.0791735511e+00
   endloop
 endfacet
 facet normal  8.8463628878e-02 -8.5875111564e-02 9.9237072285e-01
   outer loop
     vertex 8.8872072549e+00 0.0000000000e+00 1.1033470584e+00
     vertex 1.3770376067e+01 0.0000000000e+00 6.6804317085e-01
     vertex 1.4443517358e+01 5.4444444444e+00 1.0791735511e+00
   endloop
 endfacet
 facet normal  8.6618680980e-02 -8.5660693573e-02 9.9255198840e-01
   outer loop
     vertex 1.4443517358e+01 5.4444444444e+00 1.0791735511e+00
     vertex 1.3770376067e+01 0.0000000000e+00 6.6804317085e-01
     vertex 1.9386066610e+01 5.4444444444e+00 6.4784390605e-01
   endloop
 endfacet
 facet normal  1.0578737551e-01 -1.0544629447e-01 9.8878213483e-01
   outer loop
     vertex 1.3770376067e+01 0.0000000000e+00 6.6804317085e-01
     vertex 1.6720363986e+01 0.0000000000e+00 3.5243119853e-01
     vertex 1.9386066610e+01 5.4444444444e+00 6.4784390605e-01
   endloop
 endfacet
 facet normal  1.0493649019e-01 -1.0503696800e-01 9.8891636066e-01
   outer loop
     vertex 1.9386066610e+01 5.4444444444e+00 6.4784390605e-01
     vertex 1.6720363986e+01 0.0000000000e+00 3.5243119853e-01
     vertex 2.2371742844e+01 5.4444444444e+00 3.3102602608e-01
   endloop
 endfacet
 facet normal  1.0693390377e-01 -1.0711201668e-01 9.8847971962e-01
   outer loop
     vertex 1.6720363986e+01 0.0000000000e+00 3.5243119853e-01
     vertex 1.7999999523e+01 0.0000000000e+00 2.1400000900e-01
     vertex 2.2371742844e+01 5.4444444444e+00 3.3102602608e-01
   endloop
 endfacet
 facet normal  1.0747116839e-01 -1.0754117168e-01 9.8837485013e-01
   outer loop
     vertex 2.2371742844e+01 5.4444444444e+00 3.3102602608e-01
     vertex 1.7999999523e+01 0.0000000000e+00 2.1400000900e-01
     vertex 2.3666666243e+01 5.4444444444e+00 1.9022223022e-01
   endloop
 endfacet
 facet normal  1.0579558140e-01 -1.0579558140e-01 9.8874394558e-01
   outer loop
     vertex 1.7999999523e+01 0.0000000000e+00 2.1400000900e-01
     vertex 1.8499999642e+01 0.0000000000e+00 1.6050000675e-01
     vertex 2.3666666243e+01 5.4444444444e+00 1.9022223022e-01
   endloop
 endfacet
 facet normal  1.0579558140e-01 -1.0579558140e-01 9.8874394558e-01
   outer loop
     vertex 2.3666666243e+01 5.4444444444e+00 1.9022223022e-01
     vertex 1.8499999642e+01 0.0000000000e+00 1.6050000675e-01
     vertex 2.4111110793e+01 5.4444444444e+00 1.4266667267e-01
   endloop
 endfacet
 facet normal  1.0579558140e-01 -1.0579558140e-01 9.8874394558e-01
   outer loop
     vertex 1.8499999642e+01 0.0000000000e+00 1.6050000675e-01
     vertex 1.8999999762e+01 0.0000000000e+00 1.0700000450e-01
     vertex 2.4111110793e+01 5.4444444444e+00 1.4266667267e-01
   endloop
 endfacet
 facet normal  1.0579558140e-01 -1.0579558140e-01 9.8874394558e-01
   outer loop
     vertex 2.4111110793e+01 5.4444444444e+00 1.4266667267e-01
     vertex 1.8999999762e+01 0.0000000000e+00 1.0700000450e-01
     vertex 2.4555555344e+01 5.4444444444e+00 9.5111115111e-02
   endloop
 endfacet
 facet normal  1.0579558140e-01 -1.0579558140e-01 9.8874394558e-01
   outer loop
     vertex 2.4555555344e+01 5.4444444444e+00 9.5111115111e-02
     vertex 3.0499999907e+01 1.0888888889e+01 4.1611112861e-02
     vertex 3.0111110926e+01 1.0888888889e+01 8.3222225722e-02
   endloop
 endfacet
 facet normal  1.0579558140e-01 -1.0579558140e-01 9.8874394558e-01
   outer loop
     vertex 2.4555555344e+01 5.4444444444e+00 9.5111115111e-02
     vertex 2.4999999894e+01 5.4444444444e+00 4.7555557556e-02
     vertex 3.0499999907e+01 1.0888888889e+01 4.1611112861e-02
   endloop
 endfacet
 facet normal  1.0579558140e-01 -1.0579558140e-01 9.8874394558e-01
   outer loop
     vertex 2.4999999894e+01 5.4444444444e+00 4.7555557556e-02
     vertex 3.0888888889e+01 1.0888888889e+01 0.0000000000e+00
     vertex 3.0499999907e+01 1.0888888889e+01 4.1611112861e-02
   endloop
 endfacet
 facet normal  1.0579558140e-01 -1.0579558140e-01 9.8874394558e-01
   outer loop
     vertex 2.4999999894e+01 5.4444444444e+00 4.7555557556e-02
     vertex 2.5444444444e+01 5.4444444444e+00 0.0000000000e+00
     vertex 3.0888888889e+01 1.0888888889e+01 0.0000000000e+00
   endloop
 endfacet
 facet normal  1.0691742679e-01 -1.0691742679e-01 -9.8850256838e-01
   outer loop
     vertex 2.5444444444e+01 5.4444444444e+00 0.0000000000e+00
     vertex 2.9469207743e+01 1.0888888889e+01 -1.5355413309e-01
     vertex 3.0888888889e+01 1.0888888889e+01 0.0000000000e+00
   endloop
 endfacet
 facet normal  1.0628416467e-01 -1.0645263336e-01 -9.8862101596e-01
   outer loop
     vertex 2.5444444444e+01 5.4444444444e+00 0.0000000000e+00
     vertex 2.4024412605e+01 5.4444444444e+00 -1.5266405974e-01
     vertex 2.9469207743e+01 1.0888888889e+01 -1.5355413309e-01
   endloop
 endfacet
 facet normal  1.0487919442e-01 -1.0504762170e-01 -9.8892130716e-01
   outer loop
     vertex 2.4024412605e+01 5.4444444444e+00 -1.5266405974e-01
     vertex 2.6196067035e+01 1.0888888889e+01 -5.0068424169e-01
     vertex 2.9469207743e+01 1.0888888889e+01 -1.5355413309e-01
   endloop
 endfacet
 facet normal  1.0574834156e-01 -1.0538608407e-01 -9.8879272931e-01
   outer loop
     vertex 2.4024412605e+01 5.4444444444e+00 -1.5266405974e-01
     vertex 2.0750992188e+01 5.4444444444e+00 -5.0274630654e-01
     vertex 2.6196067035e+01 1.0888888889e+01 -5.0068424169e-01
   endloop
 endfacet
 facet normal  9.1376210603e-02 -9.1011207260e-02 -9.9164880290e-01
   outer loop
     vertex 2.0750992188e+01 5.4444444444e+00 -5.0274630654e-01
     vertex 2.0780178875e+01 1.0888888889e+01 -9.9973525211e-01
     vertex 2.6196067035e+01 1.0888888889e+01 -5.0068424169e-01
   endloop
 endfacet
 facet normal  9.3960650153e-02 -9.1003081196e-02 -9.9140800654e-01
   outer loop
     vertex 2.0750992188e+01 5.4444444444e+00 -5.0274630654e-01
     vertex 1.5335347545e+01 5.4444444444e+00 -1.0160137891e+00
     vertex 2.0780178875e+01 1.0888888889e+01 -9.9973525211e-01
   endloop
 endfacet
 facet normal  2.0220240999e-02 -1.7232797877e-02 -9.9964702397e-01
   outer loop
     vertex 1.5335347545e+01 5.4444444444e+00 -1.0160137891e+00
     vertex 9.8998747329e+00 5.4444444444e+00 -1.1259591674e+00
     vertex 2.0780178875e+01 1.0888888889e+01 -9.9973525211e-01
   endloop
 endfacet
 facet normal  1.9751869481e-02 -1.6296212123e-02 -9.9967209480e-01
   outer loop
     vertex 2.0780178875e+01 1.0888888889e+01 -9.9973525211e-01
     vertex 9.8998747329e+00 5.4444444444e+00 -1.1259591674e+00
     vertex 1.5345361747e+01 1.0888888889e+01 -1.1071182621e+00
   endloop
 endfacet
 facet normal  -1.3201867538e-01 1.3544206827e-01 -9.8195036305e-01
   outer loop
     vertex 9.8998747329e+00 5.4444444444e+00 -1.1259591674e+00
     vertex 6.6410965197e+00 5.4444444444e+00 -6.8783153966e-01
     vertex 1.5345361747e+01 1.0888888889e+01 -1.1071182621e+00
   endloop
 endfacet
 facet normal  -1.2829801190e-01 1.2939295062e-01 -9.8325840168e-01
   outer loop
     vertex 1.5345361747e+01 1.0888888889e+01 -1.1071182621e+00
     vertex 6.6410965197e+00 5.4444444444e+00 -6.8783153966e-01
     vertex 1.2085651329e+01 1.0888888889e+01 -6.8178310582e-01
   endloop
 endfacet
 facet normal  -4.4585024053e-01 4.4672099447e-01 -7.7566611124e-01
   outer loop
     vertex 6.6410965197e+00 5.4444444444e+00 -6.8783153966e-01
     vertex 5.4444444444e+00 5.4444444444e+00 0.0000000000e+00
     vertex 1.2085651329e+01 1.0888888889e+01 -6.8178310582e-01
   endloop
 endfacet
 facet normal  -4.4362476429e-01 4.4362476429e-01 -7.7871312883e-01
   outer loop
     vertex 1.2085651329e+01 1.0888888889e+01 -6.8178310582e-01
     vertex 5.4444444444e+00 5.4444444444e+00 0.0000000000e+00
     vertex 1.0888888889e+01 1.0888888889e+01 0.0000000000e+00
   endloop
 endfacet
 facet normal  -4.5673672275e-01 4.5673672275e-01 7.6340233965e-01
   outer loop
     vertex 5.4444444444e+00 5.4444444444e+00 0.0000000000e+00
     vertex 1.1979678521e+01 1.0888888889e+01 6.5260958219e-01
     vertex 1.0888888889e+01 1.0888888889e+01 0.0000000000e+00
   endloop
 endfacet
 facet normal  -4.6090951182e-01 4.6246212544e-01 7.5742405854e-01
   outer loop
     vertex 5.4444444444e+00 5.4444444444e+00 0.0000000000e+00
     vertex 6.5199847391e+00 5.4444444444e+00 6.5449036979e-01
     vertex 1.1979678521e+01 1.0888888889e+01 6.5260958219e-01
   endloop
 endfacet
 facet normal  -1.3977435298e-01 1.4050444525e-01 9.8016408377e-01
   outer loop
     vertex 6.5199847391e+00 5.4444444444e+00 6.5449036979e-01
     vertex 1.4982923241e+01 1.0888888889e+01 1.0808813323e+00
     vertex 1.1979678521e+01 1.0888888889e+01 6.5260958219e-01
   endloop
 endfacet
 facet normal  -1.4558264029e-01 1.4970604309e-01 9.7795388210e-01
   outer loop
     vertex 6.5199847391e+00 5.4444444444e+00 6.5449036979e-01
     vertex 9.4856592973e+00 5.4444444444e+00 1.0959741047e+00
     vertex 1.4982923241e+01 1.0888888889e+01 1.0808813323e+00
   endloop
 endfacet
 facet normal  5.1587325547e-03 -2.4366834564e-03 9.9998372489e-01
   outer loop
     vertex 9.4856592973e+00 5.4444444444e+00 1.0959741047e+00
     vertex 1.9999827461e+01 1.0888888889e+01 1.0550000439e+00
     vertex 1.4982923241e+01 1.0888888889e+01 1.0808813323e+00
   endloop
 endfacet
 facet normal  3.3886506565e-03 9.8172787844e-04 9.9999377661e-01
   outer loop
     vertex 9.4856592973e+00 5.4444444444e+00 1.0959741047e+00
     vertex 1.4443517358e+01 5.4444444444e+00 1.0791735511e+00
     vertex 1.9999827461e+01 1.0888888889e+01 1.0550000439e+00
   endloop
 endfacet
 facet normal  8.6630948381e-02 -8.4003346470e-02 9.9269255893e-01
   outer loop
     vertex 1.4443517358e+01 5.4444444444e+00 1.0791735511e+00
     vertex 1.9386066610e+01 5.4444444444e+00 6.4784390605e-01
     vertex 1.9999827461e+01 1.0888888889e+01 1.0550000439e+00
   endloop
 endfacet
 facet normal  8.4828445944e-02 -8.3812990926e-02 9.9286429954e-01
   outer loop
     vertex 1.9999827461e+01 1.0888888889e+01 1.0550000439e+00
     vertex 1.9386066610e+01 5.4444444444e+00 6.4784390605e-01
     vertex 2.5001757154e+01 1.0888888889e+01 6.2764464126e-01
   endloop
 endfacet
 facet normal  1.0494164648e-01 -1.0457328614e-01 9.8896495320e-01
   outer loop
     vertex 1.9386066610e+01 5.4444444444e+00 6.4784390605e-01
     vertex 2.2371742844e+01 5.4444444444e+00 3.3102602608e-01
     vertex 2.5001757154e+01 1.0888888889e+01 6.2764464126e-01
   endloop
 endfacet
 facet normal  1.0411042837e-01 -1.0417880883e-01 9.8909443154e-01
   outer loop
     vertex 2.5001757154e+01 1.0888888889e+01 6.2764464126e-01
     vertex 2.2371742844e+01 5.4444444444e+00 3.3102602608e-01
     vertex 2.8023121702e+01 1.0888888889e+01 3.0962085364e-01
   endloop
 endfacet
 facet normal  1.0746967726e-01 -1.0766862026e-01 9.8836113677e-01
   outer loop
     vertex 2.2371742844e+01 5.4444444444e+00 3.3102602608e-01
     vertex 2.3666666243e+01 5.4444444444e+00 1.9022223022e-01
     vertex 2.8023121702e+01 1.0888888889e+01 3.0962085364e-01
   endloop
 endfacet
 facet normal  1.0799424817e-01 -1.0808611030e-01 9.8825838480e-01
   outer loop
     vertex 2.8023121702e+01 1.0888888889e+01 3.0962085364e-01
     vertex 2.3666666243e+01 5.4444444444e+00 1.9022223022e-01
     vertex 2.9333332962e+01 1.0888888889e+01 1.6644445144e-01
   endloop
 endfacet
 facet normal  1.0579558140e-01 -1.0579558140e-01 9.8874394558e-01
   outer loop
     vertex 2.3666666243e+01 5.4444444444e+00 1.9022223022e-01
     vertex 2.4111110793e+01 5.4444444444e+00 1.4266667267e-01
     vertex 2.9333332962e+01 1.0888888889e+01 1.6644445144e-01
   endloop
 endfacet
 facet normal  1.0579558140e-01 -1.0579558140e-01 9.8874394558e-01
   outer loop
     vertex 2.9333332962e+01 1.0888888889e+01 1.6644445144e-01
     vertex 2.4111110793e+01 5.4444444444e+00 1.4266667267e-01
     vertex 2.9722221944e+01 1.0888888889e+01 1.2483333858e-01
   endloop
 endfacet
 facet normal  1.0579558140e-01 -1.0579558140e-01 9.8874394558e-01
   outer loop
     vertex 2.4111110793e+01 5.4444444444e+00 1.4266667267e-01
     vertex 2.4555555344e+01 5.4444444444e+00 9.5111115111e-02
     vertex 2.9722221944e+01 1.0888888889e+01 1.2483333858e-01
   endloop
 endfacet
 facet normal  1.0579558140e-01 -1.0579558140e-01 9.8874394558e-01
   outer loop
     vertex 2.9722221944e+01 1.0888888889e+01 1.2483333858e-01
     vertex 2.4555555344e+01 5.4444444444e+00 9.5111115111e-02
     vertex 3.0111110926e+01 1.0888888889e+01 8.3222225722e-02
   endloop
 endfacet
 facet normal  1.0579558140e-01 -1.0579558140e-01 9.8874394558e-01
   outer loop
     vertex 3.0111110926e+01 1.0888888889e+01 8.3222225722e-02
     vertex 3.5999999921e+01 1.6333333333e+01 3.5666668167e-02
     vertex 3.5666666508e+01 1.6333333333e+01 7.1333336333e-02
   endloop
 endfacet
 facet normal  1.0579558140e-01 -1.0579558140e-01 9.8874394558e-01
   outer loop
     vertex 3.0111110926e+01 1.0888888889e+01 8.3222225722e-02
     vertex 3.0499999907e+01 1.0888888889e+01 4.1611112861e-02
     vertex 3.5999999921e+01 1.6333333333e+01 3.5666668167e-02
   endloop
 endfacet
 facet normal  1.0579558140e-01 -1.0579558140e-01 9.8874394558e-01
   outer loop
     vertex 3.0499999907e+01 1.0888888889e+01 4.1611112861e-02
     vertex 3.6333333333e+01 1.6333333333e+01 0.0000000000e+00
     vertex 3.5999999921e+01 1.6333333333e+01 3.5666668167e-02
   endloop
 endfacet
 facet normal  1.0579558140e-01 -1.0579558140e-01 9.8874394558e-01
   outer loop
     vertex 3.0499999907e+01 1.0888888889e+01 4.1611112861e-02
     vertex 3.0888888889e+01 1.0888888889e+01 0.0000000000e+00
     vertex 3.6333333333e+01 1.6333333333e+01 0.0000000000e+00
   endloop
 endfacet
 facet normal  1.0754883449e-01 -1.0754883449e-01 -9.8836556820e-01
   outer loop
     vertex 3.0888888889e+01 1.0888888889e+01 0.0000000000e+00
     vertex 3.4914002881e+01 1.6333333333e+01 -1.5444420644e-01
     vertex 3.6333333333e+01 1.6333333333e+01 0.0000000000e+00
   endloop
 endfacet
 facet normal  1.0691549926e-01 -1.0708398633e-01 -9.8848474742e-01
   outer loop
     vertex 3.0888888889e+01 1.0888888889e+01 0.0000000000e+00
     vertex 2.9469207743e+01 1.0888888889e+01 -1.5355413309e-01
     vertex 3.4914002881e+01 1.6333333333e+01 -1.5444420644e-01
   endloop
 endfacet
 facet normal  1.0401534856e-01 -1.0418375005e-01 -9.8910391440e-01
   outer loop
     vertex 2.9469207743e+01 1.0888888889e+01 -1.5355413309e-01
     vertex 3.1641141881e+01 1.6333333333e+01 -4.9862217683e-01
     vertex 3.4914002881e+01 1.6333333333e+01 -1.5444420644e-01
   endloop
 endfacet
 facet normal  1.0488502849e-01 -1.0452260151e-01 -9.8897631750e-01
   outer loop
     vertex 2.9469207743e+01 1.0888888889e+01 -1.5355413309e-01
     vertex 2.6196067035e+01 1.0888888889e+01 -5.0068424169e-01
     vertex 3.1641141881e+01 1.6333333333e+01 -4.9862217683e-01
   endloop
 endfacet
 facet normal  8.8810821114e-02 -8.8445344563e-02 -9.9211393452e-01
   outer loop
     vertex 2.6196067035e+01 1.0888888889e+01 -5.0068424169e-01
     vertex 2.6225010205e+01 1.6333333333e+01 -9.8345671516e-01
     vertex 3.1641141881e+01 1.6333333333e+01 -4.9862217683e-01
   endloop
 endfacet
 facet normal  9.1397478686e-02 -8.8438317519e-02 -9.9187961209e-01
   outer loop
     vertex 2.6196067035e+01 1.0888888889e+01 -5.0068424169e-01
     vertex 2.0780178875e+01 1.0888888889e+01 -9.9973525211e-01
     vertex 2.6225010205e+01 1.6333333333e+01 -9.8345671516e-01
   endloop
 endfacet
 facet normal  1.9751716644e-02 -1.6764188397e-02 -9.9966435951e-01
   outer loop
     vertex 2.0780178875e+01 1.0888888889e+01 -9.9973525211e-01
     vertex 1.5345361747e+01 1.0888888889e+01 -1.1071182621e+00
     vertex 2.6225010205e+01 1.6333333333e+01 -9.8345671516e-01
   endloop
 endfacet
 facet normal  1.9283199492e-02 -1.5827394656e-02 -9.9968877747e-01
   outer loop
     vertex 2.6225010205e+01 1.6333333333e+01 -9.8345671516e-01
     vertex 1.5345361747e+01 1.0888888889e+01 -1.1071182621e+00
     vertex 2.0790848761e+01 1.6333333333e+01 -1.0882773569e+00
   endloop
 endfacet
 facet normal  -1.2825896314e-01 1.3168512701e-01 -9.8295913735e-01
   outer loop
     vertex 1.5345361747e+01 1.0888888889e+01 -1.1071182621e+00
     vertex 1.2085651329e+01 1.0888888889e+01 -6.8178310582e-01
     vertex 2.0790848761e+01 1.6333333333e+01 -1.0882773569e+00
   endloop
 endfacet
 facet normal  -1.2452685606e-01 1.2562279957e-01 -9.8423166701e-01
   outer loop
     vertex 2.0790848761e+01 1.6333333333e+01 -1.0882773569e+00
     vertex 1.2085651329e+01 1.0888888889e+01 -6.8178310582e-01
     vertex 1.7530206139e+01 1.6333333333e+01 -6.7573467199e-01
   endloop
 endfacet
 facet normal  -4.4345267077e-01 4.4432642557e-01 -7.7841104587e-01
   outer loop
     vertex 1.2085651329e+01 1.0888888889e+01 -6.8178310582e-01
     vertex 1.0888888889e+01 1.0888888889e+01 0.0000000000e+00
     vertex 1.7530206139e+01 1.6333333333e+01 -6.7573467199e-01
   endloop
 endfacet
 facet normal  -4.4120084936e-01 4.4120084936e-01 -7.8146248857e-01
   outer loop
     vertex 1.7530206139e+01 1.6333333333e+01 -6.7573467199e-01
     vertex 1.0888888889e+01 1.0888888889e+01 0.0000000000e+00
     vertex 1.6333333333e+01 1.6333333333e+01 0.0000000000e+00
   endloop
 endfacet
 facet normal  -4.5226394909e-01 4.5226394909e-01 7.6870972461e-01
   outer loop
     vertex 1.0888888889e+01 1.0888888889e+01 0.0000000000e+00
     vertex 1.7439372303e+01 1.6333333333e+01 6.5072879458e-01
     vertex 1.6333333333e+01 1.6333333333e+01 0.0000000000e+00
   endloop
 endfacet
 facet normal  -4.5641463907e-01 4.5795654224e-01 7.6286400011e-01
   outer loop
     vertex 1.0888888889e+01 1.0888888889e+01 0.0000000000e+00
     vertex 1.1979678521e+01 1.0888888889e+01 6.5260958219e-01
     vertex 1.7439372303e+01 1.6333333333e+01 6.5072879458e-01
   endloop
 endfacet
 facet normal  -1.3400920458e-01 1.3472370731e-01 9.8177953522e-01
   outer loop
     vertex 1.1979678521e+01 1.0888888889e+01 6.5260958219e-01
     vertex 2.0480187184e+01 1.6333333333e+01 1.0657885599e+00
     vertex 1.7439372303e+01 1.6333333333e+01 6.5072879458e-01
   endloop
 endfacet
 facet normal  -1.3970796460e-01 1.4377921043e-01 9.7969853694e-01
   outer loop
     vertex 1.1979678521e+01 1.0888888889e+01 6.5260958219e-01
     vertex 1.4982923241e+01 1.0888888889e+01 1.0808813323e+00
     vertex 2.0480187184e+01 1.6333333333e+01 1.0657885599e+00
   endloop
 endfacet
 facet normal  6.8875551337e-03 -4.1823231604e-03 9.9996753435e-01
   outer loop
     vertex 1.4982923241e+01 1.0888888889e+01 1.0808813323e+00
     vertex 2.5556137564e+01 1.6333333333e+01 1.0308265367e+00
     vertex 2.0480187184e+01 1.6333333333e+01 1.0657885599e+00
   endloop
 endfacet
 facet normal  5.1587461149e-03 -8.2477025430e-04 9.9998635345e-01
   outer loop
     vertex 1.4982923241e+01 1.0888888889e+01 1.0808813323e+00
     vertex 1.9999827461e+01 1.0888888889e+01 1.0550000439e+00
     vertex 2.5556137564e+01 1.6333333333e+01 1.0308265367e+00
   endloop
 endfacet
 facet normal  8.4840063522e-02 -8.2174298467e-02 9.9300027608e-01
   outer loop
     vertex 1.9999827461e+01 1.0888888889e+01 1.0550000439e+00
     vertex 2.5001757154e+01 1.0888888889e+01 6.2764464126e-01
     vertex 2.5556137564e+01 1.6333333333e+01 1.0308265367e+00
   endloop
 endfacet
 facet normal  8.3078591185e-02 -8.2006989040e-02 9.9316302863e-01
   outer loop
     vertex 2.5556137564e+01 1.6333333333e+01 1.0308265367e+00
     vertex 2.5001757154e+01 1.0888888889e+01 6.2764464126e-01
     vertex 3.0617447697e+01 1.6333333333e+01 6.0744537646e-01
   endloop
 endfacet
 facet normal  1.0411544327e-01 -1.0372043893e-01 9.8914207525e-01
   outer loop
     vertex 2.5001757154e+01 1.0888888889e+01 6.2764464126e-01
     vertex 2.8023121702e+01 1.0888888889e+01 3.0962085364e-01
     vertex 3.0617447697e+01 1.6333333333e+01 6.0744537646e-01
   endloop
 endfacet
 facet normal  1.0330322167e-01 -1.0334024297e-01 9.8926702087e-01
   outer loop
     vertex 3.0617447697e+01 1.6333333333e+01 6.0744537646e-01
     vertex 2.8023121702e+01 1.0888888889e+01 3.0962085364e-01
     vertex 3.3674500561e+01 1.6333333333e+01 2.8821568119e-01
   endloop
 endfacet
 facet normal  1.0799275996e-01 -1.0821204199e-01 9.8824476612e-01
   outer loop
     vertex 2.8023121702e+01 1.0888888889e+01 3.0962085364e-01
     vertex 2.9333332962e+01 1.0888888889e+01 1.6644445144e-01
     vertex 3.3674500561e+01 1.6333333333e+01 2.8821568119e-01
   endloop
 endfacet
 facet normal  1.0850508168e-01 -1.0861829340e-01 9.8814407532e-01
   outer loop
     vertex 3.3674500561e+01 1.6333333333e+01 2.8821568119e-01
     vertex 2.9333332962e+01 1.0888888889e+01 1.6644445144e-01
     vertex 3.4999999682e+01 1.6333333333e+01 1.4266667267e-01
   endloop
 endfacet
 facet normal  1.0579558140e-01 -1.0579558140e-01 9.8874394558e-01
   outer loop
     vertex 2.9333332962e+01 1.0888888889e+01 1.6644445144e-01
     vertex 2.9722221944e+01 1.0888888889e+01 1.2483333858e-01
     vertex 3.4999999682e+01 1.6333333333e+01 1.4266667267e-01
   endloop
 endfacet
 facet normal  1.0579558140e-01 -1.0579558140e-01 9.8874394558e-01
   outer loop
     vertex 3.4999999682e+01 1.6333333333e+01 1.4266667267e-01
     vertex 2.9722221944e+01 1.0888888889e+01 1.2483333858e-01
     vertex 3.5333333095e+01 1.6333333333e+01 1.0700000450e-01
   endloop
 endfacet
 facet normal  1.0579558140e-01 -1.0579558140e-01 9.8874394558e-01
   outer loop
     vertex 2.9722221944e+01 1.0888888889e+01 1.2483333858e-01
     vertex 3.0111110926e+01 1.0888888889e+01 8.3222225722e-02
     vertex 3.5333333095e+01 1.6333333333e+01 1.0700000450e-01
   endloop
 endfacet
 facet normal  1.0579558140e-01 -1.0579558140e-01 9.8874394558e-01
   outer loop
     vertex 3.5333333095e+01 1.6333333333e+01 1.0700000450e-01
     vertex 3.0111110926e+01 1.0888888889e+01 8.3222225722e-02
     vertex 3.5666666508e+01 1.6333333333e+01 7.1333336333e-02
   endloop
 endfacet
 facet normal  1.0579558140e-01 -1.0579558140e-01 9.8874394558e-01
   outer loop
     vertex 3.5666666508e+01 1.6333333333e+01 7.1333336333e-02
     vertex 4.1499999934e+01 2.1777777778e+01 2.9722223472e-02
     vertex 4.1222222090e+01 2.1777777778e+01 5.9444446945e-02
   endloop
 endfacet
 facet normal  1.0579558140e-01 -1.0579558140e-01 9.8874394558e-01
   outer loop
     vertex 3.5666666508e+01 1.6333333333e+01 7.1333336333e-02
     vertex 3.5999999921e+01 1.6333333333e+01 3.5666668167e-02
     vertex 4.1499999934e+01 2.1777777778e+01 2.9722223472e-02
   endloop
 endfacet
 facet normal  1.0579558140e-01 -1.0579558140e-01 9.8874394558e-01
   outer loop
     vertex 3.5999999921e+01 1.6333333333e+01 3.5666668167e-02
     vertex 4.1777777778e+01 2.1777777778e+01 0.0000000000e+00
     vertex 4.1499999934e+01 2.1777777778e+01 2.9722223472e-02
   endloop
 endfacet
 facet normal  1.0579558140e-01 -1.0579558140e-01 9.8874394558e-01
   outer loop
     vertex 3.5999999921e+01 1.6333333333e+01 3.5666668167e-02
     vertex 3.6333333333e+01 1.6333333333e+01 0.0000000000e+00
     vertex 4.1777777778e+01 2.1777777778e+01 0.0000000000e+00
   endloop
 endfacet
 facet normal  1.0818029085e-01 -1.0818029085e-01 -9.8822773152e-01
   outer loop
     vertex 3.6333333333e+01 1.6333333333e+01 0.0000000000e+00
     vertex 4.0358798020e+01 2.1777777778e+01 -1.5533427979e-01
     vertex 4.1777777778e+01 2.1777777778e+01 0.0000000000e+00
   endloop
 endfacet
 facet normal  1.0754688392e-01 -1.0771538925e-01 -9.8834764262e-01
   outer loop
     vertex 3.6333333333e+01 1.6333333333e+01 0.0000000000e+00
     vertex 3.4914002881e+01 1.6333333333e+01 -1.5444420644e-01
     vertex 4.0358798020e+01 2.1777777778e+01 -1.5533427979e-01
   endloop
 endfacet
 facet normal  1.0315087835e-01 -1.0331925378e-01 -9.8928510961e-01
   outer loop
     vertex 3.4914002881e+01 1.6333333333e+01 -1.5444420644e-01
     vertex 3.7086216727e+01 2.1777777778e+01 -4.9656011197e-01
     vertex 4.0358798020e+01 2.1777777778e+01 -1.5533427979e-01
   endloop
 endfacet
 facet normal  1.0402108842e-01 -1.0365849240e-01 -9.8915849595e-01
   outer loop
     vertex 3.4914002881e+01 1.6333333333e+01 -1.5444420644e-01
     vertex 3.1641141881e+01 1.6333333333e+01 -4.9862217683e-01
     vertex 3.7086216727e+01 2.1777777778e+01 -4.9656011197e-01
   endloop
 endfacet
 facet normal  8.6242099425e-02 -8.5876154167e-02 -9.9256616224e-01
   outer loop
     vertex 3.1641141881e+01 1.6333333333e+01 -4.9862217683e-01
     vertex 3.1669841535e+01 2.1777777778e+01 -9.6717817820e-01
     vertex 3.7086216727e+01 2.1777777778e+01 -4.9656011197e-01
   endloop
 endfacet
 facet normal  8.8830909089e-02 -8.5870193976e-02 -9.9233833917e-01
   outer loop
     vertex 3.1641141881e+01 1.6333333333e+01 -4.9862217683e-01
     vertex 2.6225010205e+01 1.6333333333e+01 -9.8345671516e-01
     vertex 3.1669841535e+01 2.1777777778e+01 -9.6717817820e-01
   endloop
 endfacet
 facet normal  1.9283054493e-02 -1.6295442410e-02 -9.9968126039e-01
   outer loop
     vertex 2.6225010205e+01 1.6333333333e+01 -9.8345671516e-01
     vertex 2.0790848761e+01 1.6333333333e+01 -1.0882773569e+00
     vertex 3.1669841535e+01 2.1777777778e+01 -9.6717817820e-01
   endloop
 endfacet
 facet normal  1.8814392465e-02 -1.5358441630e-02 -9.9970502495e-01
   outer loop
     vertex 3.1669841535e+01 2.1777777778e+01 -9.6717817820e-01
     vertex 2.0790848761e+01 1.6333333333e+01 -1.0882773569e+00
     vertex 2.6236335775e+01 2.1777777778e+01 -1.0694364517e+00
   endloop
 endfacet
 facet normal  -1.2449002295e-01 1.2791886133e-01 -9.8394054653e-01
   outer loop
     vertex 2.0790848761e+01 1.6333333333e+01 -1.0882773569e+00
     vertex 1.7530206139e+01 1.6333333333e+01 -6.7573467199e-01
     vertex 2.6236335775e+01 2.1777777778e+01 -1.0694364517e+00
   endloop
 endfacet
 facet normal  -1.2074683394e-01 1.2184375136e-01 -9.8517729488e-01
   outer loop
     vertex 2.6236335775e+01 2.1777777778e+01 -1.0694364517e+00
     vertex 1.7530206139e+01 1.6333333333e+01 -6.7573467199e-01
     vertex 2.2974760948e+01 2.1777777778e+01 -6.6968623815e-01
   endloop
 endfacet
 facet normal  -4.4103004437e-01 4.4190680392e-01 -7.8115995584e-01
   outer loop
     vertex 1.7530206139e+01 1.6333333333e+01 -6.7573467199e-01
     vertex 1.6333333333e+01 1.6333333333e+01 0.0000000000e+00
     vertex 2.2974760948e+01 2.1777777778e+01 -6.6968623815e-01
   endloop
 endfacet
 facet normal  -4.3875164960e-01 4.3875164960e-01 -7.8421551881e-01
   outer loop
     vertex 2.2974760948e+01 2.1777777778e+01 -6.6968623815e-01
     vertex 1.6333333333e+01 1.6333333333e+01 0.0000000000e+00
     vertex 2.1777777778e+01 2.1777777778e+01 0.0000000000e+00
   endloop
 endfacet
 facet normal  -4.4782284565e-01 4.4782284565e-01 7.7389236837e-01
   outer loop
     vertex 1.6333333333e+01 1.6333333333e+01 0.0000000000e+00
     vertex 2.2899066086e+01 2.1777777778e+01 6.4884800698e-01
     vertex 2.1777777778e+01 2.1777777778e+01 0.0000000000e+00
   endloop
 endfacet
 facet normal  -4.5195032455e-01 4.5348155889e-01 7.6817665929e-01
   outer loop
     vertex 1.6333333333e+01 1.6333333333e+01 0.0000000000e+00
     vertex 1.7439372303e+01 1.6333333333e+01 6.5072879458e-01
     vertex 2.2899066086e+01 2.1777777778e+01 6.4884800698e-01
   endloop
 endfacet
 facet normal  -1.2835782562e-01 1.2905702283e-01 9.8329474394e-01
   outer loop
     vertex 1.7439372303e+01 1.6333333333e+01 6.5072879458e-01
     vertex 2.5977451128e+01 2.1777777778e+01 1.0506957875e+00
     vertex 2.2899066086e+01 2.1777777778e+01 6.4884800698e-01
   endloop
 endfacet
 facet normal  -1.3394880320e-01 1.3796871841e-01 9.8133702206e-01
   outer loop
     vertex 1.7439372303e+01 1.6333333333e+01 6.5072879458e-01
     vertex 2.0480187184e+01 1.6333333333e+01 1.0657885599e+00
     vertex 2.5977451128e+01 2.1777777778e+01 1.0506957875e+00
   endloop
 endfacet
 facet normal  8.5765149750e-03 -5.8877285223e-03 9.9994588756e-01
   outer loop
     vertex 2.0480187184e+01 1.6333333333e+01 1.0657885599e+00
     vertex 3.1112447668e+01 2.1777777778e+01 1.0066530295e+00
     vertex 2.5977451128e+01 2.1777777778e+01 1.0506957875e+00
   endloop
 endfacet
 facet normal  6.8875922853e-03 -2.5891982096e-03 9.9997292820e-01
   outer loop
     vertex 2.0480187184e+01 1.6333333333e+01 1.0657885599e+00
     vertex 2.5556137564e+01 1.6333333333e+01 1.0308265367e+00
     vertex 3.1112447668e+01 2.1777777778e+01 1.0066530295e+00
   endloop
 endfacet
 facet normal  8.3089595435e-02 -8.0386557229e-02 9.9329457894e-01
   outer loop
     vertex 2.5556137564e+01 1.6333333333e+01 1.0308265367e+00
     vertex 3.0617447697e+01 1.6333333333e+01 6.0744537646e-01
     vertex 3.1112447668e+01 2.1777777778e+01 1.0066530295e+00
   endloop
 endfacet
 facet normal  8.1367798517e-02 -8.0241325781e-02 9.9344884670e-01
   outer loop
     vertex 3.1112447668e+01 2.1777777778e+01 1.0066530295e+00
     vertex 3.0617447697e+01 1.6333333333e+01 6.0744537646e-01
     vertex 3.6233138241e+01 2.1777777778e+01 5.8724611167e-01
   endloop
 endfacet
 facet normal  1.0330810089e-01 -1.0288706600e-01 9.8931374596e-01
   outer loop
     vertex 3.0617447697e+01 1.6333333333e+01 6.0744537646e-01
     vertex 3.3674500561e+01 1.6333333333e+01 2.8821568119e-01
     vertex 3.6233138241e+01 2.1777777778e+01 5.8724611167e-01
   endloop
 endfacet
 facet normal  1.0251423509e-01 -1.0252061040e-01 9.8943436167e-01
   outer loop
     vertex 3.6233138241e+01 2.1777777778e+01 5.8724611167e-01
     vertex 3.3674500561e+01 1.6333333333e+01 2.8821568119e-01
     vertex 3.9325879419e+01 2.1777777778e+01 2.6681050875e-01
   endloop
 endfacet
 facet normal  1.0850359659e-01 -1.0874274373e-01 9.8813055069e-01
   outer loop
     vertex 3.3674500561e+01 1.6333333333e+01 2.8821568119e-01
     vertex 3.4999999682e+01 1.6333333333e+01 1.4266667267e-01
     vertex 3.9325879419e+01 2.1777777778e+01 2.6681050875e-01
   endloop
 endfacet
 facet normal  1.0900409319e-01 -1.0913816278e-01 9.8803186644e-01
   outer loop
     vertex 3.9325879419e+01 2.1777777778e+01 2.6681050875e-01
     vertex 3.4999999682e+01 1.6333333333e+01 1.4266667267e-01
     vertex 4.0666666402e+01 2.1777777778e+01 1.1888889389e-01
   endloop
 endfacet
 facet normal  1.0579558140e-01 -1.0579558140e-01 9.8874394558e-01
   outer loop
     vertex 3.4999999682e+01 1.6333333333e+01 1.4266667267e-01
     vertex 3.5333333095e+01 1.6333333333e+01 1.0700000450e-01
     vertex 4.0666666402e+01 2.1777777778e+01 1.1888889389e-01
   endloop
 endfacet
 facet normal  1.0579558140e-01 -1.0579558140e-01 9.8874394558e-01
   outer loop
     vertex 4.0666666402e+01 2.1777777778e+01 1.1888889389e-01
     vertex 3.5333333095e+01 1.6333333333e+01 1.0700000450e-01
     vertex 4.0944444246e+01 2.1777777778e+01 8.9166670417e-02
   endloop
 endfacet
 facet normal  1.0579558140e-01 -1.0579558140e-01 9.8874394558e-01
   outer loop
     vertex 3.5333333095e+01 1.6333333333e+01 1.0700000450e-01
     vertex 3.5666666508e+01 1.6333333333e+01 7.1333336333e-02
     vertex 4.0944444246e+01 2.1777777778e+01 8.9166670417e-02
   endloop
 endfacet
 facet normal  1.0579558140e-01 -1.0579558140e-01 9.8874394558e-01
   outer loop
     vertex 4.0944444246e+01 2.1777777778e+01 8.9166670417e-02
     vertex 3.5666666508e+01 1.6333333333e+01 7.1333336333e-02
     vertex 4.1222222090e+01 2.1777777778e+01 5.9444446945e-02
   endloop
 endfacet
 facet normal  1.0579558140e-01 -1.0579558140e-01 9.8874394558e-01
   outer loop
     vertex 4.1222222090e+01 2.1777777778e+01 5.9444446945e-02
     vertex 4.6999999947e+01 2.7222222222e+01 2.3777778778e-02
     vertex 4.6777777672e+01 2.7222222222e+01 4.7555557556e-02
   endloop
 endfacet
 facet normal  1.0579558140e-01 -1.0579558140e-01 9.8874394558e-01
   outer loop
     vertex 4.1222222090e+01 2.1777777778e+01 5.9444446945e-02
     vertex 4.1499999934e+01 2.1777777778e+01 2.9722223472e-02
     vertex 4.6999999947e+01 2.7222222222e+01 2.3777778778e-02
   endloop
 endfacet
 facet normal  1.0579558140e-01 -1.0579558140e-01 9.8874394558e-01
   outer loop
     vertex 4.1499999934e+01 2.1777777778e+01 2.9722223472e-02
     vertex 4.7222222222e+01 2.7222222222e+01 0.0000000000e+00
     vertex 4.6999999947e+01 2.7222222222e+01 2.3777778778e-02
   endloop
 endfacet
 facet normal  1.0579558140e-01 -1.0579558140e-01 9.8874394558e-01
   outer loop
     vertex 4.1499999934e+01 2.1777777778e+01 2.9722223472e-02
     vertex 4.1777777778e+01 2.1777777778e+01 0.0000000000e+00
     vertex 4.7222222222e+01 2.7222222222e+01 0.0000000000e+00
   endloop
 endfacet
 facet normal  1.0881179430e-01 -1.0881179430e-01 -9.8808905815e-01
   outer loop
     vertex 4.1777777778e+01 2.1777777778e+01 0.0000000000e+00
     vertex 4.5803593158e+01 2.7222222222e+01 -1.5622435313e-01
     vertex 4.7222222222e+01 2.7222222222e+01 0.0000000000e+00
   endloop
 endfacet
 facet normal  1.0817831710e-01 -1.0834684056e-01 -9.8820970135e-01
   outer loop
     vertex 4.1777777778e+01 2.1777777778e+01 0.0000000000e+00
     vertex 4.0358798020e+01 2.1777777778e+01 -1.5533427979e-01
     vertex 4.5803593158e+01 2.7222222222e+01 -1.5622435313e-01
   endloop
 endfacet
 facet normal  1.0228578712e-01 -1.0245413622e-01 -9.8946488959e-01
   outer loop
     vertex 4.0358798020e+01 2.1777777778e+01 -1.5533427979e-01
     vertex 4.2531291573e+01 2.7222222222e+01 -4.9449804712e-01
     vertex 4.5803593158e+01 2.7222222222e+01 -1.5622435313e-01
   endloop
 endfacet
 facet normal  1.0315652466e-01 -1.0279376007e-01 -9.8933926148e-01
   outer loop
     vertex 4.0358798020e+01 2.1777777778e+01 -1.5533427979e-01
     vertex 3.7086216727e+01 2.1777777778e+01 -4.9656011197e-01
     vertex 4.2531291573e+01 2.7222222222e+01 -4.9449804712e-01
   endloop
 endfacet
 facet normal  8.3670143334e-02 -8.3303733900e-02 -9.9300543555e-01
   outer loop
     vertex 3.7086216727e+01 2.1777777778e+01 -4.9656011197e-01
     vertex 3.7114672864e+01 2.7222222222e+01 -9.5089964125e-01
     vertex 4.2531291573e+01 2.7222222222e+01 -4.9449804712e-01
   endloop
 endfacet
 facet normal  8.6261038778e-02 -8.3298808142e-02 -9.9278413653e-01
   outer loop
     vertex 3.7086216727e+01 2.1777777778e+01 -4.9656011197e-01
     vertex 3.1669841535e+01 2.1777777778e+01 -9.6717817820e-01
     vertex 3.7114672864e+01 2.7222222222e+01 -9.5089964125e-01
   endloop
 endfacet
 facet normal  1.8814255103e-02 -1.5826560474e-02 -9.9969772621e-01
   outer loop
     vertex 3.1669841535e+01 2.1777777778e+01 -9.6717817820e-01
     vertex 2.6236335775e+01 2.1777777778e+01 -1.0694364517e+00
     vertex 3.7114672864e+01 2.7222222222e+01 -9.5089964125e-01
   endloop
 endfacet
 facet normal  1.8345448959e-02 -1.4889353607e-02 -9.9972083686e-01
   outer loop
     vertex 3.7114672864e+01 2.7222222222e+01 -9.5089964125e-01
     vertex 2.6236335775e+01 2.1777777778e+01 -1.0694364517e+00
     vertex 3.1681822789e+01 2.7222222222e+01 -1.0505955464e+00
   endloop
 endfacet
 facet normal  -1.2071215936e-01 1.2414357514e-01 -9.8489438385e-01
   outer loop
     vertex 2.6236335775e+01 2.1777777778e+01 -1.0694364517e+00
     vertex 2.2974760948e+01 2.1777777778e+01 -6.6968623815e-01
     vertex 3.1681822789e+01 2.7222222222e+01 -1.0505955464e+00
   endloop
 endfacet
 facet normal  -1.1695825471e-01 1.1805611493e-01 -9.8609508689e-01
   outer loop
     vertex 3.1681822789e+01 2.7222222222e+01 -1.0505955464e+00
     vertex 2.2974760948e+01 2.1777777778e+01 -6.6968623815e-01
     vertex 2.8419315758e+01 2.7222222222e+01 -6.6363780431e-01
   endloop
 endfacet
 facet normal  -4.3858215452e-01 4.3946192243e-01 -7.8391256686e-01
   outer loop
     vertex 2.2974760948e+01 2.1777777778e+01 -6.6968623815e-01
     vertex 2.1777777778e+01 2.1777777778e+01 0.0000000000e+00
     vertex 2.8419315758e+01 2.7222222222e+01 -6.6363780431e-01
   endloop
 endfacet
 facet normal  -4.3627695954e-01 4.3627695954e-01 -7.8697193669e-01
   outer loop
     vertex 2.8419315758e+01 2.7222222222e+01 -6.6363780431e-01
     vertex 2.1777777778e+01 2.1777777778e+01 0.0000000000e+00
     vertex 2.7222222222e+01 2.7222222222e+01 0.0000000000e+00
   endloop
 endfacet
 facet normal  -4.4341424890e-01 4.4341424890e-01 7.7895289187e-01
   outer loop
     vertex 2.1777777778e+01 2.1777777778e+01 0.0000000000e+00
     vertex 2.8358759868e+01 2.7222222222e+01 6.4696721937e-01
     vertex 2.7222222222e+01 2.7222222222e+01 0.0000000000e+00
   endloop
 endfacet
 facet normal  -4.4751748044e-01 4.4903809102e-01 7.7336466012e-01
   outer loop
     vertex 2.1777777778e+01 2.1777777778e+01 0.0000000000e+00
     vertex 2.2899066086e+01 2.1777777778e+01 6.4884800698e-01
     vertex 2.8358759868e+01 2.7222222222e+01 6.4696721937e-01
   endloop
 endfacet
 facet normal  -1.2281799298e-01 1.2350216420e-01 9.8471465717e-01
   outer loop
     vertex 2.2899066086e+01 2.1777777778e+01 6.4884800698e-01
     vertex 3.1474715071e+01 2.7222222222e+01 1.0356030151e+00
     vertex 2.8358759868e+01 2.7222222222e+01 6.4696721937e-01
   endloop
 endfacet
 facet normal  -1.2830297308e-01 1.3227237726e-01 9.8287454200e-01
   outer loop
     vertex 2.2899066086e+01 2.1777777778e+01 6.4884800698e-01
     vertex 2.5977451128e+01 2.1777777778e+01 1.0506957875e+00
     vertex 3.1474715071e+01 2.7222222222e+01 1.0356030151e+00
   endloop
 endfacet
 facet normal  1.0226946871e-02 -7.5542462199e-03 9.9991916819e-01
   outer loop
     vertex 2.5977451128e+01 2.1777777778e+01 1.0506957875e+00
     vertex 3.6668757771e+01 2.7222222222e+01 9.8247952228e-01
     vertex 3.1474715071e+01 2.7222222222e+01 1.0356030151e+00
   endloop
 endfacet
 facet normal  8.5765838619e-03 -4.3129774808e-03 9.9995391916e-01
   outer loop
     vertex 2.5977451128e+01 2.1777777778e+01 1.0506957875e+00
     vertex 3.1112447668e+01 2.1777777778e+01 1.0066530295e+00
     vertex 3.6668757771e+01 2.7222222222e+01 9.8247952228e-01
   endloop
 endfacet
 facet normal  8.1378223662e-02 -7.8638772221e-02 9.9357613106e-01
   outer loop
     vertex 3.1112447668e+01 2.1777777778e+01 1.0066530295e+00
     vertex 3.6233138241e+01 2.1777777778e+01 5.8724611167e-01
     vertex 3.6668757771e+01 2.7222222222e+01 9.8247952228e-01
   endloop
 endfacet
 facet normal  7.9694805030e-02 -7.8514696169e-02 9.9372238605e-01
   outer loop
     vertex 3.6668757771e+01 2.7222222222e+01 9.8247952228e-01
     vertex 3.6233138241e+01 2.1777777778e+01 5.8724611167e-01
     vertex 4.1848828784e+01 2.7222222222e+01 5.6704684687e-01
   endloop
 endfacet
 facet normal  1.0251898404e-01 -1.0207251123e-01 9.8948019705e-01
   outer loop
     vertex 3.6233138241e+01 2.1777777778e+01 5.8724611167e-01
     vertex 3.9325879419e+01 2.1777777778e+01 2.6681050875e-01
     vertex 4.1848828784e+01 2.7222222222e+01 5.6704684687e-01
   endloop
 endfacet
 facet normal  1.0174286169e-01 -1.0171928022e-01 9.8959667447e-01
   outer loop
     vertex 4.1848828784e+01 2.7222222222e+01 5.6704684687e-01
     vertex 3.9325879419e+01 2.1777777778e+01 2.6681050875e-01
     vertex 4.4977258277e+01 2.7222222222e+01 2.4540533630e-01
   endloop
 endfacet
 facet normal  1.0900261139e-01 -1.0926116606e-01 9.8801843520e-01
   outer loop
     vertex 3.9325879419e+01 2.1777777778e+01 2.6681050875e-01
     vertex 4.0666666402e+01 2.1777777778e+01 1.1888889389e-01
     vertex 4.4977258277e+01 2.7222222222e+01 2.4540533630e-01
   endloop
 endfacet
 facet normal  1.0949168759e-01 -1.0964614012e-01 9.8792170454e-01
   outer loop
     vertex 4.4977258277e+01 2.7222222222e+01 2.4540533630e-01
     vertex 4.0666666402e+01 2.1777777778e+01 1.1888889389e-01
     vertex 4.6333333121e+01 2.7222222222e+01 9.5111115111e-02
   endloop
 endfacet
 facet normal  1.0579558140e-01 -1.0579558140e-01 9.8874394558e-01
   outer loop
     vertex 4.0666666402e+01 2.1777777778e+01 1.1888889389e-01
     vertex 4.0944444246e+01 2.1777777778e+01 8.9166670417e-02
     vertex 4.6333333121e+01 2.7222222222e+01 9.5111115111e-02
   endloop
 endfacet
 facet normal  1.0579558140e-01 -1.0579558140e-01 9.8874394558e-01
   outer loop
     vertex 4.6333333121e+01 2.7222222222e+01 9.5111115111e-02
     vertex 4.0944444246e+01 2.1777777778e+01 8.9166670417e-02
     vertex 4.6555555397e+01 2.7222222222e+01 7.1333336333e-02
   endloop
 endfacet
 facet normal  1.0579558140e-01 -1.0579558140e-01 9.8874394558e-01
   outer loop
     vertex 4.0944444246e+01 2.1777777778e+01 8.9166670417e-02
     vertex 4.1222222090e+01 2.1777777778e+01 5.9444446945e-02
     vertex 4.6555555397e+01 2.7222222222e+01 7.1333336333e-02
   endloop
 endfacet
 facet normal  1.0579558140e-01 -1.0579558140e-01 9.8874394558e-01
   outer loop
     vertex 4.6555555397e+01 2.7222222222e+01 7.1333336333e-02
     vertex 4.1222222090e+01 2.1777777778e+01 5.9444446945e-02
     vertex 4.6777777672e+01 2.7222222222e+01 4.7555557556e-02
   endloop
 endfacet
 facet normal  1.0579558140e-01 -1.0579558140e-01 9.8874394558e-01
   outer loop
     vertex 4.6777777672e+01 2.7222222222e+01 4.7555557556e-02
     vertex 5.2499999960e+01 3.2666666667e+01 1.7833334083e-02
     vertex 5.2333333254e+01 3.2666666667e+01 3.5666668167e-02
   endloop
 endfacet
 facet normal  1.0579558140e-01 -1.0579558140e-01 9.8874394558e-01
   outer loop
     vertex 4.6777777672e+01 2.7222222222e+01 4.7555557556e-02
     vertex 4.6999999947e+01 2.7222222222e+01 2.3777778778e-02
     vertex 5.2499999960e+01 3.2666666667e+01 1.7833334083e-02
   endloop
 endfacet
 facet normal  1.0579558140e-01 -1.0579558140e-01 9.8874394558e-01
   outer loop
     vertex 4.6999999947e+01 2.7222222222e+01 2.3777778778e-02
     vertex 5.2666666667e+01 3.2666666667e+01 0.0000000000e+00
     vertex 5.2499999960e+01 3.2666666667e+01 1.7833334083e-02
   endloop
 endfacet
 facet normal  1.0579558140e-01 -1.0579558140e-01 9.8874394558e-01
   outer loop
     vertex 4.6999999947e+01 2.7222222222e+01 2.3777778778e-02
     vertex 4.7222222222e+01 2.7222222222e+01 0.0000000000e+00
     vertex 5.2666666667e+01 3.2666666667e+01 0.0000000000e+00
   endloop
 endfacet
 facet normal  1.0944334330e-01 -1.0944334330e-01 -9.8794954791e-01
   outer loop
     vertex 4.7222222222e+01 2.7222222222e+01 0.0000000000e+00
     vertex 5.1248388296e+01 3.2666666667e+01 -1.5711442648e-01
     vertex 5.2666666667e+01 3.2666666667e+01 0.0000000000e+00
   endloop
 endfacet
 facet normal  1.0880979724e-01 -1.0897833868e-01 -9.8807092343e-01
   outer loop
     vertex 4.7222222222e+01 2.7222222222e+01 0.0000000000e+00
     vertex 4.5803593158e+01 2.7222222222e+01 -1.5622435313e-01
     vertex 5.1248388296e+01 3.2666666667e+01 -1.5711442648e-01
   endloop
 endfacet
 facet normal  1.0142007822e-01 -1.0158840071e-01 -9.8964325116e-01
   outer loop
     vertex 4.5803593158e+01 2.7222222222e+01 -1.5622435313e-01
     vertex 4.7976366420e+01 3.2666666667e+01 -4.9243598226e-01
     vertex 5.1248388296e+01 3.2666666667e+01 -1.5711442648e-01
   endloop
 endfacet
 facet normal  1.0229134055e-01 -1.0192840786e-01 -9.8951861090e-01
   outer loop
     vertex 4.5803593158e+01 2.7222222222e+01 -1.5622435313e-01
     vertex 4.2531291573e+01 2.7222222222e+01 -4.9449804712e-01
     vertex 4.7976366420e+01 3.2666666667e+01 -4.9243598226e-01
   endloop
 endfacet
 facet normal  8.1095051266e-02 -8.0728182220e-02 -9.9343170538e-01
   outer loop
     vertex 4.2531291573e+01 2.7222222222e+01 -4.9449804712e-01
     vertex 4.2559504194e+01 3.2666666667e+01 -9.3462110429e-01
     vertex 4.7976366420e+01 3.2666666667e+01 -4.9243598226e-01
   endloop
 endfacet
 facet normal  8.3687965807e-02 -8.0724258230e-02 -9.9321695440e-01
   outer loop
     vertex 4.2531291573e+01 2.7222222222e+01 -4.9449804712e-01
     vertex 3.7114672864e+01 2.7222222222e+01 -9.5089964125e-01
     vertex 4.2559504194e+01 3.2666666667e+01 -9.3462110429e-01
   endloop
 endfacet
 facet normal  1.8345319033e-02 -1.5357543151e-02 -9.9971375660e-01
   outer loop
     vertex 3.7114672864e+01 2.7222222222e+01 -9.5089964125e-01
     vertex 3.1681822789e+01 2.7222222222e+01 -1.0505955464e+00
     vertex 4.2559504194e+01 3.2666666667e+01 -9.3462110429e-01
   endloop
 endfacet
 facet normal  1.7876369536e-02 -1.4420131149e-02 -9.9973621282e-01
   outer loop
     vertex 4.2559504194e+01 3.2666666667e+01 -9.3462110429e-01
     vertex 3.1681822789e+01 2.7222222222e+01 -1.0505955464e+00
     vertex 3.7127309803e+01 3.2666666667e+01 -1.0317546412e+00
   endloop
 endfacet
 facet normal  -1.1692568060e-01 1.2035957602e-01 -9.8582044901e-01
   outer loop
     vertex 3.1681822789e+01 2.7222222222e+01 -1.0505955464e+00
     vertex 2.8419315758e+01 2.7222222222e+01 -6.6363780431e-01
     vertex 3.7127309803e+01 3.2666666667e+01 -1.0317546412e+00
   endloop
 endfacet
 facet normal  -1.1316143106e-01 1.1426020279e-01 -9.8698485124e-01
   outer loop
     vertex 3.7127309803e+01 3.2666666667e+01 -1.0317546412e+00
     vertex 2.8419315758e+01 2.7222222222e+01 -6.6363780431e-01
     vertex 3.3863870568e+01 3.2666666667e+01 -6.5758937047e-01
   endloop
 endfacet
 facet normal  -4.3610879578e-01 4.3699157532e-01 -7.8666859690e-01
   outer loop
     vertex 2.8419315758e+01 2.7222222222e+01 -6.6363780431e-01
     vertex 2.7222222222e+01 2.7222222222e+01 0.0000000000e+00
     vertex 3.3863870568e+01 3.2666666667e+01 -6.5758937047e-01
   endloop
 endfacet
 facet normal  -4.3377657524e-01 4.3377657524e-01 -7.8973145154e-01
   outer loop
     vertex 3.3863870568e+01 3.2666666667e+01 -6.5758937047e-01
     vertex 2.7222222222e+01 2.7222222222e+01 0.0000000000e+00
     vertex 3.2666666667e+01 3.2666666667e+01 0.0000000000e+00
   endloop
 endfacet
 facet normal  -4.3903892452e-01 4.3903892452e-01 7.8389389940e-01
   outer loop
     vertex 2.7222222222e+01 2.7222222222e+01 0.0000000000e+00
     vertex 3.3818453650e+01 3.2666666667e+01 6.4508643177e-01
     vertex 3.2666666667e+01 3.2666666667e+01 0.0000000000e+00
   endloop
 endfacet
 facet normal  -4.4311694539e-01 4.4462698056e-01 7.7843061404e-01
   outer loop
     vertex 2.7222222222e+01 2.7222222222e+01 0.0000000000e+00
     vertex 2.8358759868e+01 2.7222222222e+01 6.4696721937e-01
     vertex 3.3818453650e+01 3.2666666667e+01 6.4508643177e-01
   endloop
 endfacet
 facet normal  -1.1738747886e-01 1.1805689897e-01 9.8604398909e-01
   outer loop
     vertex 2.8358759868e+01 2.7222222222e+01 6.4696721937e-01
     vertex 3.6971979015e+01 3.2666666667e+01 1.0205102427e+00
     vertex 3.3818453650e+01 3.2666666667e+01 6.4508643177e-01
   endloop
 endfacet
 facet normal  -1.2276827810e-01 1.2668798330e-01 9.8431605939e-01
   outer loop
     vertex 2.8358759868e+01 2.7222222222e+01 6.4696721937e-01
     vertex 3.1474715071e+01 2.7222222222e+01 1.0356030151e+00
     vertex 3.6971979015e+01 3.2666666667e+01 1.0205102427e+00
   endloop
 endfacet
 facet normal  1.1840127946e-02 -9.1831647769e-03 9.9988773413e-01
   outer loop
     vertex 3.1474715071e+01 2.7222222222e+01 1.0356030151e+00
     vertex 4.2225067874e+01 3.2666666667e+01 9.5830601507e-01
     vertex 3.6971979015e+01 3.2666666667e+01 1.0205102427e+00
   endloop
 endfacet
 facet normal  1.0227054755e-02 -5.9974676540e-03 9.9992971640e-01
   outer loop
     vertex 3.1474715071e+01 2.7222222222e+01 1.0356030151e+00
     vertex 3.6668757771e+01 2.7222222222e+01 9.8247952228e-01
     vertex 4.2225067874e+01 3.2666666667e+01 9.5830601507e-01
   endloop
 endfacet
 facet normal  7.9704683178e-02 -7.6929649651e-02 9.9384555766e-01
   outer loop
     vertex 3.6668757771e+01 2.7222222222e+01 9.8247952228e-01
     vertex 4.1848828784e+01 2.7222222222e+01 5.6704684687e-01
     vertex 4.2225067874e+01 3.2666666667e+01 9.5830601507e-01
   endloop
 endfacet
 facet normal  7.8058400308e-02 -7.6825849506e-02 9.9398424283e-01
   outer loop
     vertex 4.2225067874e+01 3.2666666667e+01 9.5830601507e-01
     vertex 4.1848828784e+01 2.7222222222e+01 5.6704684687e-01
     vertex 4.7464519328e+01 3.2666666667e+01 5.4684758208e-01
   endloop
 endfacet
 facet normal  1.0174748551e-01 -1.0127614748e-01 9.8964164784e-01
   outer loop
     vertex 4.1848828784e+01 2.7222222222e+01 5.6704684687e-01
     vertex 4.4977258277e+01 2.7222222222e+01 2.4540533630e-01
     vertex 4.7464519328e+01 3.2666666667e+01 5.4684758208e-01
   endloop
 endfacet
 facet normal  1.0098852105e-01 -1.0093564913e-01 9.8975416814e-01
   outer loop
     vertex 4.7464519328e+01 3.2666666667e+01 5.4684758208e-01
     vertex 4.4977258277e+01 2.7222222222e+01 2.4540533630e-01
     vertex 5.0628637136e+01 3.2666666667e+01 2.2400016386e-01
   endloop
 endfacet
 facet normal  1.0949020928e-01 -1.0976772948e-01 9.8790836601e-01
   outer loop
     vertex 4.4977258277e+01 2.7222222222e+01 2.4540533630e-01
     vertex 4.6333333121e+01 2.7222222222e+01 9.5111115111e-02
     vertex 5.0628637136e+01 3.2666666667e+01 2.2400016386e-01
   endloop
 endfacet
 facet normal  1.0996825156e-01 -1.1014262808e-01 9.8781353763e-01
   outer loop
     vertex 5.0628637136e+01 3.2666666667e+01 2.2400016386e-01
     vertex 4.6333333121e+01 2.7222222222e+01 9.5111115111e-02
     vertex 5.1999999841e+01 3.2666666667e+01 7.1333336333e-02
   endloop
 endfacet
 facet normal  1.0579558140e-01 -1.0579558140e-01 9.8874394558e-01
   outer loop
     vertex 4.6333333121e+01 2.7222222222e+01 9.5111115111e-02
     vertex 4.6555555397e+01 2.7222222222e+01 7.1333336333e-02
     vertex 5.1999999841e+01 3.2666666667e+01 7.1333336333e-02
   endloop
 endfacet
 facet normal  1.0579558140e-01 -1.0579558140e-01 9.8874394558e-01
   outer loop
     vertex 5.1999999841e+01 3.2666666667e+01 7.1333336333e-02
     vertex 4.6555555397e+01 2.7222222222e+01 7.1333336333e-02
     vertex 5.2166666547e+01 3.2666666667e+01 5.3500002250e-02
   endloop
 endfacet
 facet normal  1.0579558140e-01 -1.0579558140e-01 9.8874394558e-01
   outer loop
     vertex 4.6555555397e+01 2.7222222222e+01 7.1333336333e-02
     vertex 4.6777777672e+01 2.7222222222e+01 4.7555557556e-02
     vertex 5.2166666547e+01 3.2666666667e+01 5.3500002250e-02
   endloop
 endfacet
 facet normal  1.0579558140e-01 -1.0579558140e-01 9.8874394558e-01
   outer loop
     vertex 5.2166666547e+01 3.2666666667e+01 5.3500002250e-02
     vertex 4.6777777672e+01 2.7222222222e+01 4.7555557556e-02
     vertex 5.2333333254e+01 3.2666666667e+01 3.5666668167e-02
   endloop
 endfacet
 facet normal  1.0579558140e-01 -1.0579558140e-01 9.8874394558e-01
   outer loop
     vertex 5.2333333254e+01 3.2666666667e+01 3.5666668167e-02
     vertex 5.7999999974e+01 3.8111111111e+01 1.1888889389e-02
     vertex 5.7888888836e+01 3.8111111111e+01 2.3777778778e-02
   endloop
 endfacet
 facet normal  1.0579558140e-01 -1.0579558140e-01 9.8874394558e-01
   outer loop
     vertex 5.2333333254e+01 3.2666666667e+01 3.5666668167e-02
     vertex 5.2499999960e+01 3.2666666667e+01 1.7833334083e-02
     vertex 5.7999999974e+01 3.8111111111e+01 1.1888889389e-02
   endloop
 endfacet
 facet normal  1.0579558140e-01 -1.0579558140e-01 9.8874394558e-01
   outer loop
     vertex 5.2499999960e+01 3.2666666667e+01 1.7833334083e-02
     vertex 5.8111111111e+01 3.8111111111e+01 0.0000000000e+00
     vertex 5.7999999974e+01 3.8111111111e+01 1.1888889389e-02
   endloop
 endfacet
 facet normal  1.0579558140e-01 -1.0579558140e-01 9.8874394558e-01
   outer loop
     vertex 5.2499999960e+01 3.2666666667e+01 1.7833334083e-02
     vertex 5.2666666667e+01 3.2666666667e+01 0.0000000000e+00
     vertex 5.8111111111e+01 3.8111111111e+01 0.0000000000e+00
   endloop
 endfacet
 facet normal  1.1007493626e-01 -1.1007493626e-01 -9.8780920061e-01
   outer loop
     vertex 5.2666666667e+01 3.2666666667e+01 0.0000000000e+00
     vertex 5.6693183434e+01 3.8111111111e+01 -1.5800449983e-01
     vertex 5.8111111111e+01 3.8111111111e+01 0.0000000000e+00
   endloop
 endfacet
 facet normal  1.0944132278e-01 -1.0960988208e-01 -9.8793130865e-01
   outer loop
     vertex 5.2666666667e+01 3.2666666667e+01 0.0000000000e+00
     vertex 5.1248388296e+01 3.2666666667e+01 -1.5711442648e-01
     vertex 5.6693183434e+01 3.8111111111e+01 -1.5800449983e-01
   endloop
 endfacet
 facet normal  1.0055375501e-01 -1.0072205062e-01 -9.8982019118e-01
   outer loop
     vertex 5.1248388296e+01 3.2666666667e+01 -1.5711442648e-01
     vertex 5.3421441266e+01 3.8111111111e+01 -4.9037391740e-01
     vertex 5.6693183434e+01 3.8111111111e+01 -1.5800449983e-01
   endloop
 endfacet
 facet normal  1.0142553944e-01 -1.0106243911e-01 -9.8969654104e-01
   outer loop
     vertex 5.1248388296e+01 3.2666666667e+01 -1.5711442648e-01
     vertex 4.7976366420e+01 3.2666666667e+01 -4.9243598226e-01
     vertex 5.3421441266e+01 3.8111111111e+01 -4.9037391740e-01
   endloop
 endfacet
 facet normal  7.8516922263e-02 -7.8149598194e-02 -9.9384492413e-01
   outer loop
     vertex 4.7976366420e+01 3.2666666667e+01 -4.9243598226e-01
     vertex 4.8004335524e+01 3.8111111111e+01 -9.1834256734e-01
     vertex 5.3421441266e+01 3.8111111111e+01 -4.9037391740e-01
   endloop
 endfacet
 facet normal  8.1111788856e-02 -7.8146643070e-02 -9.9363674443e-01
   outer loop
     vertex 4.7976366420e+01 3.2666666667e+01 -4.9243598226e-01
     vertex 4.2559504194e+01 3.2666666667e+01 -9.3462110429e-01
     vertex 4.8004335524e+01 3.8111111111e+01 -9.1834256734e-01
   endloop
 endfacet
 facet normal  1.7876246842e-02 -1.4888391002e-02 -9.9972935118e-01
   outer loop
     vertex 4.2559504194e+01 3.2666666667e+01 -9.3462110429e-01
     vertex 3.7127309803e+01 3.2666666667e+01 -1.0317546412e+00
     vertex 4.8004335524e+01 3.8111111111e+01 -9.1834256734e-01
   endloop
 endfacet
 facet normal  1.7407154755e-02 -1.3950774817e-02 -9.9975115246e-01
   outer loop
     vertex 4.8004335524e+01 3.8111111111e+01 -9.1834256734e-01
     vertex 3.7127309803e+01 3.2666666667e+01 -1.0317546412e+00
     vertex 4.2572796817e+01 3.8111111111e+01 -1.0129137360e+00
   endloop
 endfacet
 facet normal  -1.1313089844e-01 1.1656717513e-01 -9.8671854827e-01
   outer loop
     vertex 3.7127309803e+01 3.2666666667e+01 -1.0317546412e+00
     vertex 3.3863870568e+01 3.2666666667e+01 -6.5758937047e-01
     vertex 4.2572796817e+01 3.8111111111e+01 -1.0129137360e+00
   endloop
 endfacet
 facet normal  -1.0935667907e-01 1.1045633080e-01 -9.8784640290e-01
   outer loop
     vertex 4.2572796817e+01 3.8111111111e+01 -1.0129137360e+00
     vertex 3.3863870568e+01 3.2666666667e+01 -6.5758937047e-01
     vertex 3.9308425377e+01 3.8111111111e+01 -6.5154093663e-01
   endloop
 endfacet
 facet normal  -4.3360976418e-01 4.3449555832e-01 -7.8942775617e-01
   outer loop
     vertex 3.3863870568e+01 3.2666666667e+01 -6.5758937047e-01
     vertex 3.2666666667e+01 3.2666666667e+01 0.0000000000e+00
     vertex 3.9308425377e+01 3.8111111111e+01 -6.5154093663e-01
   endloop
 endfacet
 facet normal  -4.3125029438e-01 4.3125029438e-01 -7.9249376477e-01
   outer loop
     vertex 3.9308425377e+01 3.8111111111e+01 -6.5154093663e-01
     vertex 3.2666666667e+01 3.2666666667e+01 0.0000000000e+00
     vertex 3.8111111111e+01 3.8111111111e+01 0.0000000000e+00
   endloop
 endfacet
 facet normal  -4.3469757042e-01 4.3469757042e-01 7.8871797529e-01
   outer loop
     vertex 3.2666666667e+01 3.2666666667e+01 0.0000000000e+00
     vertex 3.9278147432e+01 3.8111111111e+01 6.4320564416e-01
     vertex 3.8111111111e+01 3.8111111111e+01 0.0000000000e+00
   endloop
 endfacet
 facet normal  -4.3874948753e-01 4.4024899867e-01 7.8337711631e-01
   outer loop
     vertex 3.2666666667e+01 3.2666666667e+01 0.0000000000e+00
     vertex 3.3818453650e+01 3.2666666667e+01 6.4508643177e-01
     vertex 3.9278147432e+01 3.8111111111e+01 6.4320564416e-01
   endloop
 endfacet
 facet normal  -1.1206405689e-01 1.1271899611e-01 9.8728723028e-01
   outer loop
     vertex 3.3818453650e+01 3.2666666667e+01 6.4508643177e-01
     vertex 4.2469242958e+01 3.8111111111e+01 1.0054174703e+00
     vertex 3.9278147432e+01 3.8111111111e+01 6.4320564416e-01
   endloop
 endfacet
 facet normal  -1.1734251590e-01 1.2121332592e-01 9.8566630438e-01
   outer loop
     vertex 3.3818453650e+01 3.2666666667e+01 6.4508643177e-01
     vertex 3.6971979015e+01 3.2666666667e+01 1.0205102427e+00
     vertex 4.2469242958e+01 3.8111111111e+01 1.0054174703e+00
   endloop
 endfacet
 facet normal  1.3417280670e-02 -1.0775717596e-02 9.9985191928e-01
   outer loop
     vertex 3.6971979015e+01 3.2666666667e+01 1.0205102427e+00
     vertex 4.7781377977e+01 3.8111111111e+01 9.3413250785e-01
     vertex 4.2469242958e+01 3.8111111111e+01 1.0054174703e+00
   endloop
 endfacet
 facet normal  1.1840281289e-02 -7.6439696618e-03 9.9990068380e-01
   outer loop
     vertex 3.6971979015e+01 3.2666666667e+01 1.0205102427e+00
     vertex 4.2225067874e+01 3.2666666667e+01 9.5830601507e-01
     vertex 4.7781377977e+01 3.8111111111e+01 9.3413250785e-01
   endloop
 endfacet
 facet normal  7.8067761600e-02 -7.5257949607e-02 9.9410344815e-01
   outer loop
     vertex 4.2225067874e+01 3.2666666667e+01 9.5830601507e-01
     vertex 4.7464519328e+01 3.2666666667e+01 5.4684758208e-01
     vertex 4.7781377977e+01 3.8111111111e+01 9.3413250785e-01
   endloop
 endfacet
 facet normal  7.6457423807e-02 -7.5173586656e-02 9.9423497938e-01
   outer loop
     vertex 4.7781377977e+01 3.8111111111e+01 9.3413250785e-01
     vertex 4.7464519328e+01 3.2666666667e+01 5.4684758208e-01
     vertex 5.3080209871e+01 3.8111111111e+01 5.2664831728e-01
   endloop
 endfacet
 facet normal  1.0099302461e-01 -1.0049737504e-01 9.8979830602e-01
   outer loop
     vertex 4.7464519328e+01 3.2666666667e+01 5.4684758208e-01
     vertex 5.0628637136e+01 3.2666666667e+01 2.2400016386e-01
     vertex 5.3080209871e+01 3.8111111111e+01 5.2664831728e-01
   endloop
 endfacet
 facet normal  1.0025065785e-01 -1.0016913993e-01 9.8990704059e-01
   outer loop
     vertex 5.3080209871e+01 3.8111111111e+01 5.2664831728e-01
     vertex 5.0628637136e+01 3.2666666667e+01 2.2400016386e-01
     vertex 5.6280015994e+01 3.8111111111e+01 2.0259499141e-01
   endloop
 endfacet
 facet normal  1.0996677689e-01 -1.1026283555e-01 9.8780029109e-01
   outer loop
     vertex 5.0628637136e+01 3.2666666667e+01 2.2400016386e-01
     vertex 5.1999999841e+01 3.2666666667e+01 7.1333336333e-02
     vertex 5.6280015994e+01 3.8111111111e+01 2.0259499141e-01
   endloop
 endfacet
 facet normal  1.1043415453e-01 -1.1062801141e-01 9.8770731525e-01
   outer loop
     vertex 5.6280015994e+01 3.8111111111e+01 2.0259499141e-01
     vertex 5.1999999841e+01 3.2666666667e+01 7.1333336333e-02
     vertex 5.7666666561e+01 3.8111111111e+01 4.7555557556e-02
   endloop
 endfacet
 facet normal  1.0579558140e-01 -1.0579558140e-01 9.8874394558e-01
   outer loop
     vertex 5.1999999841e+01 3.2666666667e+01 7.1333336333e-02
     vertex 5.2166666547e+01 3.2666666667e+01 5.3500002250e-02
     vertex 5.7666666561e+01 3.8111111111e+01 4.7555557556e-02
   endloop
 endfacet
 facet normal  1.0579558140e-01 -1.0579558140e-01 9.8874394558e-01
   outer loop
     vertex 5.7666666561e+01 3.8111111111e+01 4.7555557556e-02
     vertex 5.2166666547e+01 3.2666666667e+01 5.3500002250e-02
     vertex 5.7777777698e+01 3.8111111111e+01 3.5666668167e-02
   endloop
 endfacet
 facet normal  1.0579558140e-01 -1.0579558140e-01 9.8874394558e-01
   outer loop
     vertex 5.2166666547e+01 3.2666666667e+01 5.3500002250e-02
     vertex 5.2333333254e+01 3.2666666667e+01 3.5666668167e-02
     vertex 5.7777777698e+01 3.8111111111e+01 3.5666668167e-02
   endloop
 endfacet
 facet normal  1.0579558140e-01 -1.0579558140e-01 9.8874394558e-01
   outer loop
     vertex 5.7777777698e+01 3.8111111111e+01 3.5666668167e-02
     vertex 5.2333333254e+01 3.2666666667e+01 3.5666668167e-02
     vertex 5.7888888836e+01 3.8111111111e+01 2.3777778778e-02
   endloop
 endfacet
 facet normal  1.0579558140e-01 -1.0579558140e-01 9.8874394558e-01
   outer loop
     vertex 5.7888888836e+01 3.8111111111e+01 2.3777778778e-02
     vertex 6.3499999987e+01 4.3555555556e+01 5.9444446945e-03
     vertex 6.3444444418e+01 4.3555555556e+01 1.1888889389e-02
   endloop
 endfacet
 facet normal  1.0579558140e-01 -1.0579558140e-01 9.8874394558e-01
   outer loop
     vertex 5.7888888836e+01 3.8111111111e+01 2.3777778778e-02
     vertex 5.7999999974e+01 3.8111111111e+01 1.1888889389e-02
     vertex 6.3499999987e+01 4.3555555556e+01 5.9444446945e-03
   endloop
 endfacet
 facet normal  1.0579558140e-01 -1.0579558140e-01 9.8874394558e-01
   outer loop
     vertex 5.7999999974e+01 3.8111111111e+01 1.1888889389e-02
     vertex 6.3555555556e+01 4.3555555556e+01 0.0000000000e+00
     vertex 6.3499999987e+01 4.3555555556e+01 5.9444446945e-03
   endloop
 endfacet
 facet normal  1.0579558140e-01 -1.0579558140e-01 9.8874394558e-01
   outer loop
     vertex 5.7999999974e+01 3.8111111111e+01 1.1888889389e-02
     vertex 5.8111111111e+01 3.8111111111e+01 0.0000000000e+00
     vertex 6.3555555556e+01 4.3555555556e+01 0.0000000000e+00
   endloop
 endfacet
 facet normal  1.1070657164e-01 -1.1070657164e-01 -9.8766801608e-01
   outer loop
     vertex 5.8111111111e+01 3.8111111111e+01 0.0000000000e+00
     vertex 6.2137978572e+01 4.3555555556e+01 -1.5889457318e-01
     vertex 6.3555555556e+01 4.3555555556e+01 0.0000000000e+00
   endloop
 endfacet
 facet normal  1.1007289216e-01 -1.1024146917e-01 -9.8779085686e-01
   outer loop
     vertex 5.8111111111e+01 3.8111111111e+01 0.0000000000e+00
     vertex 5.6693183434e+01 3.8111111111e+01 -1.5800449983e-01
     vertex 6.2137978572e+01 4.3555555556e+01 -1.5889457318e-01
   endloop
 endfacet
 facet normal  9.9686820856e-02 -9.9855089326e-02 -9.8999570650e-01
   outer loop
     vertex 5.6693183434e+01 3.8111111111e+01 -1.5800449983e-01
     vertex 5.8866516112e+01 4.3555555556e+01 -4.8831185255e-01
     vertex 6.2137978572e+01 4.3555555556e+01 -1.5889457318e-01
   endloop
 endfacet
 facet normal  1.0055912470e-01 -1.0019585719e-01 -9.8987304875e-01
   outer loop
     vertex 5.6693183434e+01 3.8111111111e+01 -1.5800449983e-01
     vertex 5.3421441266e+01 3.8111111111e+01 -4.9037391740e-01
     vertex 5.8866516112e+01 4.3555555556e+01 -4.8831185255e-01
   endloop
 endfacet
 facet normal  7.5935855957e-02 -7.5568081487e-02 -9.9424504567e-01
   outer loop
     vertex 5.3421441266e+01 3.8111111111e+01 -4.9037391740e-01
     vertex 5.3449166854e+01 4.3555555556e+01 -9.0206403038e-01
     vertex 5.8866516112e+01 4.3555555556e+01 -4.8831185255e-01
   endloop
 endfacet
 facet normal  7.8532607210e-02 -7.5566062093e-02 -9.9404345975e-01
   outer loop
     vertex 5.3421441266e+01 3.8111111111e+01 -4.9037391740e-01
     vertex 4.8004335524e+01 3.8111111111e+01 -9.1834256734e-01
     vertex 5.3449166854e+01 4.3555555556e+01 -9.0206403038e-01
   endloop
 endfacet
 facet normal  1.7407039092e-02 -1.4419104587e-02 -9.9974450957e-01
   outer loop
     vertex 4.8004335524e+01 3.8111111111e+01 -9.1834256734e-01
     vertex 4.2572796817e+01 3.8111111111e+01 -1.0129137360e+00
     vertex 5.3449166854e+01 4.3555555556e+01 -9.0206403038e-01
   endloop
 endfacet
 facet normal  1.6937805179e-02 -1.3481285176e-02 -9.9976565539e-01
   outer loop
     vertex 5.3449166854e+01 4.3555555556e+01 -9.0206403038e-01
     vertex 4.2572796817e+01 3.8111111111e+01 -1.0129137360e+00
     vertex 4.8018283831e+01 4.3555555556e+01 -9.9407283073e-01
   endloop
 endfacet
 facet normal  -1.0932812808e-01 1.1276668707e-01 -9.8758849462e-01
   outer loop
     vertex 4.2572796817e+01 3.8111111111e+01 -1.0129137360e+00
     vertex 3.9308425377e+01 3.8111111111e+01 -6.5154093663e-01
     vertex 4.8018283831e+01 4.3555555556e+01 -9.9407283073e-01
   endloop
 endfacet
 facet normal  -1.0554431810e-01 1.0664481814e-01 -9.8867956370e-01
   outer loop
     vertex 4.8018283831e+01 4.3555555556e+01 -9.9407283073e-01
     vertex 3.9308425377e+01 3.8111111111e+01 -6.5154093663e-01
     vertex 4.4752980187e+01 4.3555555556e+01 -6.4549250279e-01
   endloop
 endfacet
 facet normal  -4.3108485741e-01 4.3197366877e-01 -7.9218974697e-01
   outer loop
     vertex 3.9308425377e+01 3.8111111111e+01 -6.5154093663e-01
     vertex 3.8111111111e+01 3.8111111111e+01 0.0000000000e+00
     vertex 4.4752980187e+01 4.3555555556e+01 -6.4549250279e-01
   endloop
 endfacet
 facet normal  -4.2869791646e-01 4.2869791646e-01 -7.9525856980e-01
   outer loop
     vertex 4.4752980187e+01 4.3555555556e+01 -6.4549250279e-01
     vertex 3.8111111111e+01 3.8111111111e+01 0.0000000000e+00
     vertex 4.3555555556e+01 4.3555555556e+01 0.0000000000e+00
   endloop
 endfacet
 facet normal  -4.3039081957e-01 4.3039081957e-01 7.9342768093e-01
   outer loop
     vertex 3.8111111111e+01 3.8111111111e+01 0.0000000000e+00
     vertex 4.4737841214e+01 4.3555555556e+01 6.4132485656e-01
     vertex 4.3555555556e+01 4.3555555556e+01 0.0000000000e+00
   endloop
 endfacet
 facet normal  -4.3441580737e-01 4.3590484871e-01 7.8820674266e-01
   outer loop
     vertex 3.8111111111e+01 3.8111111111e+01 0.0000000000e+00
     vertex 3.9278147432e+01 3.8111111111e+01 6.4320564416e-01
     vertex 4.4737841214e+01 4.3555555556e+01 6.4132485656e-01
   endloop
 endfacet
 facet normal  -1.0684550766e-01 1.0748623147e-01 9.8844865701e-01
   outer loop
     vertex 3.9278147432e+01 3.8111111111e+01 6.4320564416e-01
     vertex 4.7966506902e+01 4.3555555556e+01 9.9032469789e-01
     vertex 4.4737841214e+01 4.3555555556e+01 6.4132485656e-01
   endloop
 endfacet
 facet normal  -1.1202348420e-01 1.1584619396e-01 9.8692978389e-01
   outer loop
     vertex 3.9278147432e+01 3.8111111111e+01 6.4320564416e-01
     vertex 4.2469242958e+01 3.8111111111e+01 1.0054174703e+00
     vertex 4.7966506902e+01 4.3555555556e+01 9.9032469789e-01
   endloop
 endfacet
 facet normal  1.4959575683e-02 -1.2333085810e-02 9.9981203538e-01
   outer loop
     vertex 4.2469242958e+01 3.8111111111e+01 1.0054174703e+00
     vertex 5.3337688080e+01 4.3555555556e+01 9.0995900064e-01
     vertex 4.7966506902e+01 4.3555555556e+01 9.9032469789e-01
   endloop
 endfacet
 facet normal  1.3417485203e-02 -9.2537288380e-03 9.9986716097e-01
   outer loop
     vertex 4.2469242958e+01 3.8111111111e+01 1.0054174703e+00
     vertex 4.7781377977e+01 3.8111111111e+01 9.3413250785e-01
     vertex 5.3337688080e+01 4.3555555556e+01 9.0995900064e-01
   endloop
 endfacet
 facet normal  7.6466296549e-02 -7.3622483358e-02 9.9435035849e-01
   outer loop
     vertex 4.7781377977e+01 3.8111111111e+01 9.3413250785e-01
     vertex 5.3080209871e+01 3.8111111111e+01 5.2664831728e-01
     vertex 5.3337688080e+01 4.3555555556e+01 9.0995900064e-01
   endloop
 endfacet
 facet normal  7.4890762380e-02 -7.3556757492e-02 9.9447512645e-01
   outer loop
     vertex 5.3337688080e+01 4.3555555556e+01 9.0995900064e-01
     vertex 5.3080209871e+01 3.8111111111e+01 5.2664831728e-01
     vertex 5.8695900415e+01 4.3555555556e+01 5.0644905249e-01
   endloop
 endfacet
 facet normal  1.0025504578e-01 -9.9735620124e-02 9.8995036839e-01
   outer loop
     vertex 5.3080209871e+01 3.8111111111e+01 5.2664831728e-01
     vertex 5.6280015994e+01 3.8111111111e+01 2.0259499141e-01
     vertex 5.8695900415e+01 4.3555555556e+01 5.0644905249e-01
   endloop
 endfacet
 facet normal  9.9528740542e-02 -9.9419200131e-02 9.9005547948e-01
   outer loop
     vertex 5.8695900415e+01 4.3555555556e+01 5.0644905249e-01
     vertex 5.6280015994e+01 3.8111111111e+01 2.0259499141e-01
     vertex 6.1931394852e+01 4.3555555556e+01 1.8118981897e-01
   endloop
 endfacet
 facet normal  1.1043268365e-01 -1.1074686793e-01 9.8769415996e-01
   outer loop
     vertex 5.6280015994e+01 3.8111111111e+01 2.0259499141e-01
     vertex 5.7666666561e+01 3.8111111111e+01 4.7555557556e-02
     vertex 6.1931394852e+01 4.3555555556e+01 1.8118981897e-01
   endloop
 endfacet
 facet normal  1.1088974964e-01 -1.1110265788e-01 9.8760298847e-01
   outer loop
     vertex 6.1931394852e+01 4.3555555556e+01 1.8118981897e-01
     vertex 5.7666666561e+01 3.8111111111e+01 4.7555557556e-02
     vertex 6.3333333280e+01 4.3555555556e+01 2.3777778778e-02
   endloop
 endfacet
 facet normal  1.0579558140e-01 -1.0579558140e-01 9.8874394558e-01
   outer loop
     vertex 5.7666666561e+01 3.8111111111e+01 4.7555557556e-02
     vertex 5.7777777698e+01 3.8111111111e+01 3.5666668167e-02
     vertex 6.3333333280e+01 4.3555555556e+01 2.3777778778e-02
   endloop
 endfacet
 facet normal  1.0579558140e-01 -1.0579558140e-01 9.8874394558e-01
   outer loop
     vertex 6.3333333280e+01 4.3555555556e+01 2.3777778778e-02
     vertex 5.7777777698e+01 3.8111111111e+01 3.5666668167e-02
     vertex 6.3388888849e+01 4.3555555556e+01 1.7833334083e-02
   endloop
 endfacet
 facet normal  1.0579558140e-01 -1.0579558140e-01 9.8874394558e-01
   outer loop
     vertex 5.7777777698e+01 3.8111111111e+01 3.5666668167e-02
     vertex 5.7888888836e+01 3.8111111111e+01 2.3777778778e-02
     vertex 6.3388888849e+01 4.3555555556e+01 1.7833334083e-02
   endloop
 endfacet
 facet normal  1.0579558140e-01 -1.0579558140e-01 9.8874394558e-01
   outer loop
     vertex 6.3388888849e+01 4.3555555556e+01 1.7833334083e-02
     vertex 5.7888888836e+01 3.8111111111e+01 2.3777778778e-02
     vertex 6.3444444418e+01 4.3555555556e+01 1.1888889389e-02
   endloop
 endfacet
 facet normal  1.0579558140e-01 -1.0579558140e-01 9.8874394558e-01
   outer loop
     vertex 6.3444444418e+01 4.3555555556e+01 1.1888889389e-02
     vertex 6.3499999987e+01 4.3555555556e+01 5.9444446945e-03
     vertex 6.9000000000e+01 4.9000000000e+01 0.0000000000e+00
   endloop
 endfacet
 facet normal  1.0579558140e-01 -1.0579558140e-01 9.8874394558e-01
   outer loop
     vertex 6.3499999987e+01 4.3555555556e+01 5.9444446945e-03
     vertex 6.3555555556e+01 4.3555555556e+01 0.0000000000e+00
     vertex 6.9000000000e+01 4.9000000000e+01 0.0000000000e+00
   endloop
 endfacet
 facet normal  1.1133824787e-01 -1.1133824787e-01 -9.8752599415e-01
   outer loop
     vertex 6.3555555556e+01 4.3555555556e+01 0.0000000000e+00
     vertex 6.7582773710e+01 4.9000000000e+01 -1.5978464652e-01
     vertex 6.9000000000e+01 4.9000000000e+01 0.0000000000e+00
   endloop
 endfacet
 facet normal  1.1070450380e-01 -1.1087309840e-01 -9.8764956786e-01
   outer loop
     vertex 6.3555555556e+01 4.3555555556e+01 0.0000000000e+00
     vertex 6.2137978572e+01 4.3555555556e+01 -1.5889457318e-01
     vertex 6.7582773710e+01 4.9000000000e+01 -1.5978464652e-01
   endloop
 endfacet
 facet normal  9.8819279156e-02 -9.8987520205e-02 -9.9016979398e-01
   outer loop
     vertex 6.2137978572e+01 4.3555555556e+01 -1.5889457318e-01
     vertex 6.4311590958e+01 4.9000000000e+01 -4.8624978769e-01
     vertex 6.7582773710e+01 4.9000000000e+01 -1.5978464652e-01
   endloop
 endfacet
 facet normal  9.9692099688e-02 -9.9328665475e-02 -9.9004813089e-01
   outer loop
     vertex 6.2137978572e+01 4.3555555556e+01 -1.5889457318e-01
     vertex 5.8866516112e+01 4.3555555556e+01 -4.8831185255e-01
     vertex 6.4311590958e+01 4.9000000000e+01 -4.8624978769e-01
   endloop
 endfacet
 facet normal  7.3351952559e-02 -7.2983732337e-02 -9.9463202536e-01
   outer loop
     vertex 5.8866516112e+01 4.3555555556e+01 -4.8831185255e-01
     vertex 5.8893998183e+01 4.9000000000e+01 -8.8578549343e-01
     vertex 6.4311590958e+01 4.9000000000e+01 -4.8624978769e-01
   endloop
 endfacet
 facet normal  7.5950520741e-02 -7.2982615315e-02 -9.9443705495e-01
   outer loop
     vertex 5.8866516112e+01 4.3555555556e+01 -4.8831185255e-01
     vertex 5.3449166854e+01 4.3555555556e+01 -9.0206403038e-01
     vertex 5.8893998183e+01 4.9000000000e+01 -8.8578549343e-01
   endloop
 endfacet
 facet normal  1.6937696345e-02 -1.3949684471e-02 -9.9975923139e-01
   outer loop
     vertex 5.3449166854e+01 4.3555555556e+01 -9.0206403038e-01
     vertex 4.8018283831e+01 4.3555555556e+01 -9.9407283073e-01
     vertex 5.8893998183e+01 4.9000000000e+01 -8.8578549343e-01
   endloop
 endfacet
 facet normal  1.6468321371e-02 -1.3011662790e-02 -9.9977972125e-01
   outer loop
     vertex 5.8893998183e+01 4.9000000000e+01 -8.8578549343e-01
     vertex 4.8018283831e+01 4.3555555556e+01 -9.9407283073e-01
     vertex 5.3463770846e+01 4.9000000000e+01 -9.7523192549e-01
   endloop
 endfacet
 facet normal  -1.0551768798e-01 1.0895842977e-01 -9.8843010785e-01
   outer loop
     vertex 4.8018283831e+01 4.3555555556e+01 -9.9407283073e-01
     vertex 4.4752980187e+01 4.3555555556e+01 -6.4549250279e-01
     vertex 5.3463770846e+01 4.9000000000e+01 -9.7523192549e-01
   endloop
 endfacet
 facet normal  -1.0172467065e-01 1.0282598712e-01 -9.8948416246e-01
   outer loop
     vertex 5.3463770846e+01 4.9000000000e+01 -9.7523192549e-01
     vertex 4.4752980187e+01 4.3555555556e+01 -6.4549250279e-01
     vertex 5.0197534997e+01 4.9000000000e+01 -6.3944406895e-01
   endloop
 endfacet
 facet normal  -4.2853387494e-01 4.2942570578e-01 -7.9495426362e-01
   outer loop
     vertex 4.4752980187e+01 4.3555555556e+01 -6.4549250279e-01
     vertex 4.3555555556e+01 4.3555555556e+01 0.0000000000e+00
     vertex 5.0197534997e+01 4.9000000000e+01 -6.3944406895e-01
   endloop
 endfacet
 facet normal  -4.2611924292e-01 4.2611924292e-01 -7.9802555199e-01
   outer loop
     vertex 5.0197534997e+01 4.9000000000e+01 -6.3944406895e-01
     vertex 4.3555555556e+01 4.3555555556e+01 0.0000000000e+00
     vertex 4.9000000000e+01 4.9000000000e+01 0.0000000000e+00
   endloop
 endfacet
 facet normal  -4.2611924292e-01 4.2611924292e-01 7.9802555199e-01
   outer loop
     vertex 4.3555555556e+01 4.3555555556e+01 0.0000000000e+00
     vertex 5.0197534997e+01 4.9000000000e+01 6.3944406895e-01
     vertex 4.9000000000e+01 4.9000000000e+01 0.0000000000e+00
   endloop
 endfacet
 facet normal  -4.3011654063e-01 4.3159516906e-01 7.9292204630e-01
   outer loop
     vertex 4.3555555556e+01 4.3555555556e+01 0.0000000000e+00
     vertex 4.4737841214e+01 4.3555555556e+01 6.4132485656e-01
     vertex 5.0197534997e+01 4.9000000000e+01 6.3944406895e-01
   endloop
 endfacet
 facet normal  -1.0172962361e-01 1.0235639271e-01 9.8953234033e-01
   outer loop
     vertex 4.4737841214e+01 4.3555555556e+01 6.4132485656e-01
     vertex 5.3463770846e+01 4.9000000000e+01 9.7523192549e-01
     vertex 5.0197534997e+01 4.9000000000e+01 6.3944406895e-01
   endloop
 endfacet
 facet normal  -1.0680898631e-01 1.1058438133e-01 9.8811079088e-01
   outer loop
     vertex 4.4737841214e+01 4.3555555556e+01 6.4132485656e-01
     vertex 4.7966506902e+01 4.3555555556e+01 9.9032469789e-01
     vertex 5.3463770846e+01 4.9000000000e+01 9.7523192549e-01
   endloop
 endfacet
 facet normal  1.6468134452e-02 -1.3856400960e-02 9.9976837352e-01
   outer loop
     vertex 4.7966506902e+01 4.3555555556e+01 9.9032469789e-01
     vertex 5.8893998183e+01 4.9000000000e+01 8.8578549343e-01
     vertex 5.3463770846e+01 4.9000000000e+01 9.7523192549e-01
   endloop
 endfacet
 facet normal  1.4959836471e-02 -1.0827937790e-02 9.9982946499e-01
   outer loop
     vertex 4.7966506902e+01 4.3555555556e+01 9.9032469789e-01
     vertex 5.3337688080e+01 4.3555555556e+01 9.0995900064e-01
     vertex 5.8893998183e+01 4.9000000000e+01 8.8578549343e-01
   endloop
 endfacet
 facet normal  7.4899173169e-02 -7.2022110813e-02 9.9458681341e-01
   outer loop
     vertex 5.3337688080e+01 4.3555555556e+01 9.0995900064e-01
     vertex 5.8695900415e+01 4.3555555556e+01 5.0644905249e-01
     vertex 5.8893998183e+01 4.9000000000e+01 8.8578549343e-01
   endloop
 endfacet
 facet normal  7.3357347944e-02 -7.1974258479e-02 9.9470518528e-01
   outer loop
     vertex 5.8893998183e+01 4.9000000000e+01 8.8578549343e-01
     vertex 5.8695900415e+01 4.3555555556e+01 5.0644905249e-01
     vertex 6.4311590958e+01 4.9000000000e+01 4.8624978769e-01
   endloop
 endfacet
 facet normal  9.9533017233e-02 -9.8990333547e-02 9.9009802158e-01
   outer loop
     vertex 5.8695900415e+01 4.3555555556e+01 5.0644905249e-01
     vertex 6.1931394852e+01 4.3555555556e+01 1.8118981897e-01
     vertex 6.4311590958e+01 4.9000000000e+01 4.8624978769e-01
   endloop
 endfacet
 facet normal  9.8822260082e-02 -9.8685300640e-02 9.9019966287e-01
   outer loop
     vertex 6.4311590958e+01 4.9000000000e+01 4.8624978769e-01
     vertex 6.1931394852e+01 4.3555555556e+01 1.8118981897e-01
     vertex 6.7582773710e+01 4.9000000000e+01 1.5978464652e-01
   endloop
 endfacet
 facet normal  1.1088828270e-01 -1.1122019337e-01 9.8758992368e-01
   outer loop
     vertex 6.1931394852e+01 4.3555555556e+01 1.8118981897e-01
     vertex 6.3333333280e+01 4.3555555556e+01 2.3777778778e-02
     vertex 6.7582773710e+01 4.9000000000e+01 1.5978464652e-01
   endloop
 endfacet
 facet normal  1.1133537465e-01 -1.1156691923e-01 9.8750050982e-01
   outer loop
     vertex 6.7582773710e+01 4.9000000000e+01 1.5978464652e-01
     vertex 6.3333333280e+01 4.3555555556e+01 2.3777778778e-02
     vertex 6.9000000000e+01 4.9000000000e+01 0.0000000000e+00
   endloop
 endfacet
 facet normal  1.0579558140e-01 -1.0579558140e-01 9.8874394558e-01
   outer loop
     vertex 6.3333333280e+01 4.3555555556e+01 2.3777778778e-02
     vertex 6.3388888849e+01 4.3555555556e+01 1.7833334083e-02
     vertex 6.9000000000e+01 4.9000000000e+01 0.0000000000e+00
   endloop
 endfacet
 facet normal  1.0579558140e-01 -1.0579558140e-01 9.8874394558e-01
   outer loop
     vertex 6.3388888849e+01 4.3555555556e+01 1.7833334083e-02
     vertex 6.3444444418e+01 4.3555555556e+01 1.1888889389e-02
     vertex 6.9000000000e+01 4.9000000000e+01 0.0000000000e+00
   endloop
 endfacet
 facet normal  1.0131234356e-01 4.2691155248e-01 -8.9860020888e-01
   outer loop
     vertex 6.9000000000e+01 4.9000000000e+01 0.0000000000e+00
     vertex 6.7582773710e+01 4.9000000000e+01 -1.5978464652e-01
     vertex 6.7663093093e+01 4.9079264931e+01 -1.1307148195e-01
   endloop
 endfacet
 facet normal  8.9318984119e-02 4.3696273015e-01 -8.9503390525e-01
   outer loop
     vertex 6.7582773710e+01 4.9000000000e+01 -1.5978464652e-01
     vertex 6.4555726160e+01 4.9241460379e+01 -3.4398283679e-01
     vertex 6.7663093093e+01 4.9079264931e+01 -1.1307148195e-01
   endloop
 endfacet
 facet normal  8.9321850090e-02 4.3702033158e-01 -8.9500549545e-01
   outer loop
     vertex 6.7582773710e+01 4.9000000000e+01 -1.5978464652e-01
     vertex 6.4311590958e+01 4.9000000000e+01 -4.8624978769e-01
     vertex 6.4555726160e+01 4.9241460379e+01 -3.4398283679e-01
   endloop
 endfacet
 facet normal  6.5317625163e-02 4.5670237834e-01 -8.8721843165e-01
   outer loop
     vertex 6.4311590958e+01 4.9000000000e+01 -4.8624978769e-01
     vertex 5.9337425213e+01 4.9440230582e+01 -6.2583924568e-01
     vertex 6.4555726160e+01 4.9241460379e+01 -3.4398283679e-01
   endloop
 endfacet
 facet normal  6.5391843257e-02 4.5770688817e-01 -8.8669516259e-01
   outer loop
     vertex 6.4311590958e+01 4.9000000000e+01 -4.8624978769e-01
     vertex 5.8893998183e+01 4.9000000000e+01 -8.8578549343e-01
     vertex 5.9337425213e+01 4.9440230582e+01 -6.2583924568e-01
   endloop
 endfacet
 facet normal  1.4285052117e-02 4.9769399660e-01 -8.6723504486e-01
   outer loop
     vertex 5.8893998183e+01 4.9000000000e+01 -8.8578549343e-01
     vertex 5.3463770846e+01 4.9000000000e+01 -9.7523192549e-01
     vertex 5.9337425213e+01 4.9440230582e+01 -6.2583924568e-01
   endloop
 endfacet
 facet normal  1.4323409398e-02 4.9734198044e-01 -8.6743633451e-01
   outer loop
     vertex 5.9337425213e+01 4.9440230582e+01 -6.2583924568e-01
     vertex 5.3463770846e+01 4.9000000000e+01 -9.7523192549e-01
     vertex 5.3951265884e+01 4.9485773630e+01 -6.8866540718e-01
   endloop
 endfacet
 facet normal  -8.4195210272e-02 5.6762072729e-01 -8.1897367266e-01
   outer loop
     vertex 5.3463770846e+01 4.9000000000e+01 -9.7523192549e-01
     vertex 5.0197534997e+01 4.9000000000e+01 -6.3944406895e-01
     vertex 5.3951265884e+01 4.9485773630e+01 -6.8866540718e-01
   endloop
 endfacet
 facet normal  -8.3961054818e-02 5.6567242247e-01 -8.2034459328e-01
   outer loop
     vertex 5.3951265884e+01 4.9485773630e+01 -6.8866540718e-01
     vertex 5.0197534997e+01 4.9000000000e+01 -6.3944406895e-01
     vertex 5.0517266569e+01 4.9319411380e+01 -4.5191652250e-01
   endloop
 endfacet
 facet normal  -3.3483505477e-01 7.0332617826e-01 -6.2707078793e-01
   outer loop
     vertex 5.0197534997e+01 4.9000000000e+01 -6.3944406895e-01
     vertex 4.9000000000e+01 4.9000000000e+01 0.0000000000e+00
     vertex 5.0517266569e+01 4.9319411380e+01 -4.5191652250e-01
   endloop
 endfacet
 facet normal  -3.3484873368e-01 7.0329682484e-01 6.2709640545e-01
   outer loop
     vertex 4.9000000000e+01 4.9000000000e+01 0.0000000000e+00
     vertex 5.0197534997e+01 4.9000000000e+01 6.3944406895e-01
     vertex 5.0517396468e+01 4.9319281350e+01 4.5216130087e-01
   endloop
 endfacet
 facet normal  -8.3881165891e-02 5.6535936660e-01 8.2056854473e-01
   outer loop
     vertex 5.0197534997e+01 4.9000000000e+01 6.3944406895e-01
     vertex 5.3951939246e+01 4.9485097250e+01 6.8900669484e-01
     vertex 5.0517396468e+01 4.9319281350e+01 4.5216130087e-01
   endloop
 endfacet
 facet normal  -8.4179337271e-02 5.6784578415e-01 8.1881927469e-01
   outer loop
     vertex 5.0197534997e+01 4.9000000000e+01 6.3944406895e-01
     vertex 5.3463770846e+01 4.9000000000e+01 9.7523192549e-01
     vertex 5.3951939246e+01 4.9485097250e+01 6.8900669484e-01
   endloop
 endfacet
 facet normal  1.4535727890e-02 4.9722805820e-01 8.6749810994e-01
   outer loop
     vertex 5.3463770846e+01 4.9000000000e+01 9.7523192549e-01
     vertex 5.9338730192e+01 4.9438911543e+01 6.2521854651e-01
     vertex 5.3951939246e+01 4.9485097250e+01 6.8900669484e-01
   endloop
 endfacet
 facet normal  1.4265987885e-02 4.9970586577e-01 8.6607766933e-01
   outer loop
     vertex 5.3463770846e+01 4.9000000000e+01 9.7523192549e-01
     vertex 5.8893998183e+01 4.9000000000e+01 8.8578549343e-01
     vertex 5.9338730192e+01 4.9438911543e+01 6.2521854651e-01
   endloop
 endfacet
 facet normal  6.5318890058e-02 4.5962858351e-01 8.8570593756e-01
   outer loop
     vertex 5.8893998183e+01 4.9000000000e+01 8.8578549343e-01
     vertex 6.4311590958e+01 4.9000000000e+01 4.8624978769e-01
     vertex 5.9338730192e+01 4.9438911543e+01 6.2521854651e-01
   endloop
 endfacet
 facet normal  6.5367138442e-02 4.6028418169e-01 8.8536185218e-01
   outer loop
     vertex 5.9338730192e+01 4.9438911543e+01 6.2521854651e-01
     vertex 6.4311590958e+01 4.9000000000e+01 4.8624978769e-01
     vertex 6.4556814167e+01 4.9240354863e+01 3.4318841602e-01
   endloop
 endfacet
 facet normal  8.9143301765e-02 4.4070155756e-01 8.9321644013e-01
   outer loop
     vertex 6.4311590958e+01 4.9000000000e+01 4.8624978769e-01
     vertex 6.7582773710e+01 4.9000000000e+01 1.5978464652e-01
     vertex 6.4556814167e+01 4.9240354863e+01 3.4318841602e-01
   endloop
 endfacet
 facet normal  8.9177689325e-02 4.4140049984e-01 8.9286781691e-01
   outer loop
     vertex 6.4556814167e+01 4.9240354863e+01 3.4318841602e-01
     vertex 6.7582773710e+01 4.9000000000e+01 1.5978464652e-01
     vertex 6.7663523734e+01 4.9078826000e+01 1.1275087990e-01
   endloop
 endfacet
 facet normal  1.0107470908e-01 4.3137585304e-01 8.9649248552e-01
   outer loop
     vertex 6.7582773710e+01 4.9000000000e+01 1.5978464652e-01
     vertex 6.9000000000e+01 4.9000000000e+01 0.0000000000e+00
     vertex 6.7663523734e+01 4.9078826000e+01 1.1275087990e-01
   endloop
 endfacet
 facet normal  8.1608923603e-02 9.5099401300e-01 -2.9824548753e-01
   outer loop
     vertex 6.9000000000e+01 4.9000000000e+01 0.0000000000e+00
     vertex 6.7663093093e+01 4.9079264931e+01 -1.1307148195e-01
     vertex 6.7696654243e+01 4.9111774668e+01 -2.2667452592e-04
   endloop
 endfacet
 facet normal  7.1771582206e-02 9.5255896520e-01 -2.9577061687e-01
   outer loop
     vertex 6.7663093093e+01 4.9079264931e+01 -1.1307148195e-01
     vertex 6.4657577310e+01 4.9340653179e+01 -5.6167166224e-04
     vertex 6.7696654243e+01 4.9111774668e+01 -2.2667452592e-04
   endloop
 endfacet
 facet normal  7.1734005532e-02 9.5237942930e-01 -2.9635730983e-01
   outer loop
     vertex 6.7663093093e+01 4.9079264931e+01 -1.1307148195e-01
     vertex 6.4555726160e+01 4.9241460379e+01 -3.4398283679e-01
     vertex 6.4657577310e+01 4.9340653179e+01 -5.6167166224e-04
   endloop
 endfacet
 facet normal  5.2228836188e-02 9.5518009000e-01 -2.9138144132e-01
   outer loop
     vertex 6.4555726160e+01 4.9241460379e+01 -3.4398283679e-01
     vertex 5.9521881002e+01 4.9621508324e+01 -4.3880243046e-04
     vertex 6.4657577310e+01 4.9340653179e+01 -5.6167166224e-04
   endloop
 endfacet
 facet normal  5.2156165459e-02 9.5493991847e-01 -2.9218057177e-01
   outer loop
     vertex 6.4555726160e+01 4.9241460379e+01 -3.4398283679e-01
     vertex 5.9337425213e+01 4.9440230582e+01 -6.2583924568e-01
     vertex 5.9521881002e+01 4.9621508324e+01 -4.3880243046e-04
   endloop
 endfacet
 facet normal  1.1396406015e-02 9.5949928558e-01 -2.8148044854e-01
   outer loop
     vertex 5.9337425213e+01 4.9440230582e+01 -6.2583924568e-01
     vertex 5.3951265884e+01 4.9485773630e+01 -6.8866540718e-01
     vertex 5.9521881002e+01 4.9621508324e+01 -4.3880243046e-04
   endloop
 endfacet
 facet normal  1.1554571475e-02 9.5914168803e-01 -2.8269013806e-01
   outer loop
     vertex 5.9521881002e+01 4.9621508324e+01 -4.3880243046e-04
     vertex 5.3951265884e+01 4.9485773630e+01 -6.8866540718e-01
     vertex 5.4153539072e+01 4.9686380015e+01 2.4128143025e-04
   endloop
 endfacet
 facet normal  -6.4680164294e-02 9.6304899355e-01 -2.6144428156e-01
   outer loop
     vertex 5.3951265884e+01 4.9485773630e+01 -6.8866540718e-01
     vertex 5.0517266569e+01 4.9319411380e+01 -4.5191652250e-01
     vertex 5.4153539072e+01 4.9686380015e+01 2.4128143025e-04
   endloop
 endfacet
 facet normal  -6.4505372563e-02 9.6274527967e-01 -2.6260347176e-01
   outer loop
     vertex 5.4153539072e+01 4.9686380015e+01 2.4128143025e-04
     vertex 5.0517266569e+01 4.9319411380e+01 -4.5191652250e-01
     vertex 5.0649775611e+01 4.9451604023e+01 1.7307680412e-04
   endloop
 endfacet
 facet normal  -2.5864285912e-01 9.4493706845e-01 -2.0049391037e-01
   outer loop
     vertex 5.0517266569e+01 4.9319411380e+01 -4.5191652250e-01
     vertex 4.9000000000e+01 4.9000000000e+01 0.0000000000e+00
     vertex 5.0649775611e+01 4.9451604023e+01 1.7307680412e-04
   endloop
 endfacet
 facet normal  -2.5866248609e-01 9.4485495195e-01 2.0085526646e-01
   outer loop
     vertex 4.9000000000e+01 4.9000000000e+01 0.0000000000e+00
     vertex 5.0517396468e+01 4.9319281350e+01 4.5216130087e-01
     vertex 5.0649775611e+01 4.9451604023e+01 1.7307680412e-04
   endloop
 endfacet
 facet normal  -6.4509603854e-02 9.6265575434e-01 2.6293042738e-01
   outer loop
     vertex 5.0517396468e+01 4.9319281350e+01 4.5216130087e-01
     vertex 5.4153539072e+01 4.9686380015e+01 2.4128143025e-04
     vertex 5.0649775611e+01 4.9451604023e+01 1.7307680412e-04
   endloop
 endfacet
 facet normal  -6.4580954462e-02 9.6278006583e-01 2.6245732065e-01
   outer loop
     vertex 5.0517396468e+01 4.9319281350e+01 4.5216130087e-01
     vertex 5.3951939246e+01 4.9485097250e+01 6.8900669484e-01
     vertex 5.4153539072e+01 4.9686380015e+01 2.4128143025e-04
   endloop
 endfacet
 facet normal  1.1622991788e-02 9.5886678131e-01 2.8361840871e-01
   outer loop
     vertex 5.3951939246e+01 4.9485097250e+01 6.8900669484e-01
     vertex 5.9521881002e+01 4.9621508324e+01 -4.3880243046e-04
     vertex 5.4153539072e+01 4.9686380015e+01 2.4128143025e-04
   endloop
 endfacet
 facet normal  1.1576397719e-02 9.5897243188e-01 2.8326288482e-01
   outer loop
     vertex 5.3951939246e+01 4.9485097250e+01 6.8900669484e-01
     vertex 5.9338730192e+01 4.9438911543e+01 6.2521854651e-01
     vertex 5.9521881002e+01 4.9621508324e+01 -4.3880243046e-04
   endloop
 endfacet
 facet normal  5.2198748544e-02 9.5443161408e-01 2.9382917603e-01
   outer loop
     vertex 5.9338730192e+01 4.9438911543e+01 6.2521854651e-01
     vertex 6.4556814167e+01 4.9240354863e+01 3.4318841602e-01
     vertex 5.9521881002e+01 4.9621508324e+01 -4.3880243046e-04
   endloop
 endfacet
 facet normal  5.2202604748e-02 9.5444442290e-01 2.9378688134e-01
   outer loop
     vertex 5.9521881002e+01 4.9621508324e+01 -4.3880243046e-04
     vertex 6.4556814167e+01 4.9240354863e+01 3.4318841602e-01
     vertex 6.4657577310e+01 4.9340653179e+01 -5.6167166224e-04
   endloop
 endfacet
 facet normal  7.1634080747e-02 9.5166375718e-01 2.9867147795e-01
   outer loop
     vertex 6.4556814167e+01 4.9240354863e+01 3.4318841602e-01
     vertex 6.7663523734e+01 4.9078826000e+01 1.1275087990e-01
     vertex 6.4657577310e+01 4.9340653179e+01 -5.6167166224e-04
   endloop
 endfacet
 facet normal  7.1641220472e-02 9.5169789719e-01 2.9856096196e-01
   outer loop
     vertex 6.4657577310e+01 4.9340653179e+01 -5.6167166224e-04
     vertex 6.7663523734e+01 4.9078826000e+01 1.1275087990e-01
     vertex 6.7696654243e+01 4.9111774668e+01 -2.2667452592e-04
   endloop
 endfacet
 facet normal  8.1432094665e-02 9.5014730850e-01 3.0097990980e-01
   outer loop
     vertex 6.7663523734e+01 4.9078826000e+01 1.1275087990e-01
     vertex 6.9000000000e+01 4.9000000000e+01 0.0000000000e+00
     vertex 6.7696654243e+01 4.9111774668e+01 -2.2667452592e-04
   endloop
 endfacet
endsolid
