solid
 facet normal  1.0552487650e-01 -9.1863109773e-01 3.8076424035e-01
   outer loop
     vertex 1.0000000000e+00 2.5000000000e-01 0.0000000000e+00
     vertex 9.6561709246e-01 1.7394977166e-01 -1.7394977166e-01
     vertex 1.0000000000e+00 1.7674203355e-01 -1.7674203355e-01
   endloop
 endfacet
 facet normal  1.0552487650e-01 -9.1863109773e-01 3.8076424035e-01
   outer loop
     vertex 1.0000000000e+00 2.5000000000e-01 0.0000000000e+00
     vertex 9.6561709246e-01 2.4605037095e-01 0.0000000000e+00
     vertex 9.6561709246e-01 1.7394977166e-01 -1.7394977166e-01
   endloop
 endfacet
 facet normal  1.0055427886e-01 -9.1910676647e-01 3.8096140072e-01
   outer loop
     vertex 9.6561709246e-01 2.4605037095e-01 0.0000000000e+00
     vertex 9.0549005286e-01 1.6929922236e-01 -1.6929922236e-01
     vertex 9.6561709246e-01 1.7394977166e-01 -1.7394977166e-01
   endloop
 endfacet
 facet normal  1.0055427886e-01 -9.1910676647e-01 3.8096140072e-01
   outer loop
     vertex 9.6561709246e-01 2.4605037095e-01 0.0000000000e+00
     vertex 9.0549005286e-01 2.3947221123e-01 0.0000000000e+00
     vertex 9.0549005286e-01 1.6929922236e-01 -1.6929922236e-01
   endloop
 endfacet
 facet normal  9.2715854906e-02 -9.1980980151e-01 3.8125280235e-01
   outer loop
     vertex 9.0549005286e-01 2.3947221123e-01 0.0000000000e+00
     vertex 8.0786174469e-01 1.6234206901e-01 -1.6234206901e-01
     vertex 9.0549005286e-01 1.6929922236e-01 -1.6929922236e-01
   endloop
 endfacet
 facet normal  9.2715854906e-02 -9.1980980151e-01 3.8125280235e-01
   outer loop
     vertex 9.0549005286e-01 2.3947221123e-01 0.0000000000e+00
     vertex 8.0786174469e-01 2.2963138105e-01 0.0000000000e+00
     vertex 8.0786174469e-01 1.6234206901e-01 -1.6234206901e-01
   endloop
 endfacet
 facet normal  8.0787081143e-02 -9.2076940897e-01 3.8165055092e-01
   outer loop
     vertex 8.0786174469e-01 2.2963138105e-01 0.0000000000e+00
     vertex 6.6696530618e-01 1.5360248243e-01 -1.5360248243e-01
     vertex 8.0786174469e-01 1.6234206901e-01 -1.6234206901e-01
   endloop
 endfacet
 facet normal  8.0787081143e-02 -9.2076940897e-01 3.8165055092e-01
   outer loop
     vertex 8.0786174469e-01 2.2963138105e-01 0.0000000000e+00
     vertex 6.6696530618e-01 2.1726931526e-01 0.0000000000e+00
     vertex 6.6696530618e-01 1.5360248243e-01 -1.5360248243e-01
   endloop
 endfacet
 facet normal  6.1865264283e-02 -9.2201941378e-01 3.8216866655e-01
   outer loop
     vertex 6.6696530618e-01 2.1726931526e-01 0.0000000000e+00
     vertex 4.9469990917e-01 1.4543092767e-01 -1.4543092767e-01
     vertex 6.6696530618e-01 1.5360248243e-01 -1.5360248243e-01
   endloop
 endfacet
 facet normal  6.1865264283e-02 -9.2201941378e-01 3.8216866655e-01
   outer loop
     vertex 6.6696530618e-01 2.1726931526e-01 0.0000000000e+00
     vertex 4.9469990917e-01 2.0571072533e-01 0.0000000000e+00
     vertex 4.9469990917e-01 1.4543092767e-01 -1.4543092767e-01
   endloop
 endfacet
 facet normal  3.0142363150e-02 -9.2336916709e-01 3.8272812703e-01
   outer loop
     vertex 4.9469990917e-01 2.0571072533e-01 0.0000000000e+00
     vertex 3.2214805739e-01 2.0007796136e-01 0.0000000000e+00
     vertex 4.9469990917e-01 1.4543092767e-01 -1.4543092767e-01
   endloop
 endfacet
 facet normal  3.0142363150e-02 -9.2336916709e-01 3.8272812703e-01
   outer loop
     vertex 4.9469990917e-01 1.4543092767e-01 -1.4543092767e-01
     vertex 3.2214805739e-01 2.0007796136e-01 0.0000000000e+00
     vertex 3.2214805739e-01 1.4144874303e-01 -1.4144874303e-01
   endloop
 endfacet
 facet normal  -2.0668207589e-02 -9.2359159148e-01 3.8282031992e-01
   outer loop
     vertex 3.2214805739e-01 2.0007796136e-01 0.0000000000e+00
     vertex 1.8077108286e-01 2.0324170676e-01 0.0000000000e+00
     vertex 3.2214805739e-01 1.4144874303e-01 -1.4144874303e-01
   endloop
 endfacet
 facet normal  -2.0668207589e-02 -9.2359159148e-01 3.8282031992e-01
   outer loop
     vertex 3.2214805739e-01 1.4144874303e-01 -1.4144874303e-01
     vertex 1.8077108286e-01 2.0324170676e-01 0.0000000000e+00
     vertex 1.8077108286e-01 1.4368541022e-01 -1.4368541022e-01
   endloop
 endfacet
 facet normal  -9.7142173239e-02 -9.1941987645e-01 3.8109118196e-01
   outer loop
     vertex 1.8077108286e-01 2.0324170676e-01 0.0000000000e+00
     vertex 8.3233162389e-02 2.1354716764e-01 0.0000000000e+00
     vertex 1.8077108286e-01 1.4368541022e-01 -1.4368541022e-01
   endloop
 endfacet
 facet normal  -9.7142173239e-02 -9.1941987645e-01 3.8109118196e-01
   outer loop
     vertex 1.8077108286e-01 1.4368541022e-01 -1.4368541022e-01
     vertex 8.3233162389e-02 2.1354716764e-01 0.0000000000e+00
     vertex 8.3233162389e-02 1.5097104267e-01 -1.5097104267e-01
   endloop
 endfacet
 facet normal  -2.2666823106e-01 -8.9974457084e-01 3.7293594662e-01
   outer loop
     vertex 8.3233162389e-02 2.1354716764e-01 0.0000000000e+00
     vertex 2.4681659684e-02 2.2829776017e-01 0.0000000000e+00
     vertex 8.3233162389e-02 1.5097104267e-01 -1.5097104267e-01
   endloop
 endfacet
 facet normal  -2.2666823106e-01 -8.9974457084e-01 3.7293594662e-01
   outer loop
     vertex 8.3233162389e-02 1.5097104267e-01 -1.5097104267e-01
     vertex 2.4681659684e-02 2.2829776017e-01 0.0000000000e+00
     vertex 2.4681659684e-02 1.6139924155e-01 -1.6139924155e-01
   endloop
 endfacet
 facet normal  -6.3048730058e-01 -7.1704455906e-01 2.9720845234e-01
   outer loop
     vertex 2.4681659684e-02 2.2829776017e-01 0.0000000000e+00
     vertex 0.0000000000e+00 2.5000000000e-01 0.0000000000e+00
     vertex 2.4681659684e-02 1.6139924155e-01 -1.6139924155e-01
   endloop
 endfacet
 facet normal  -6.3048730058e-01 -7.1704455906e-01 2.9720845234e-01
   outer loop
     vertex 2.4681659684e-02 1.6139924155e-01 -1.6139924155e-01
     vertex 0.0000000000e+00 2.5000000000e-01 0.0000000000e+00
     vertex 0.0000000000e+00 1.7674203355e-01 -1.7674203355e-01
   endloop
 endfacet
 facet normal  -6.3048730058e-01 7.1704455906e-01 -2.9720845234e-01
   outer loop
     vertex 0.0000000000e+00 2.5000000000e-01 0.0000000000e+00
     vertex 2.4681659684e-02 1.9208482554e-01 -1.9208482554e-01
     vertex 0.0000000000e+00 1.7674203355e-01 -1.7674203355e-01
   endloop
 endfacet
 facet normal  -6.3048730058e-01 7.1704455906e-01 -2.9720845234e-01
   outer loop
     vertex 0.0000000000e+00 2.5000000000e-01 0.0000000000e+00
     vertex 2.4681659684e-02 2.7170223983e-01 0.0000000000e+00
     vertex 2.4681659684e-02 1.9208482554e-01 -1.9208482554e-01
   endloop
 endfacet
 facet normal  -2.2666823106e-01 8.9974457084e-01 -3.7293594662e-01
   outer loop
     vertex 2.4681659684e-02 2.7170223983e-01 0.0000000000e+00
     vertex 8.3233162389e-02 2.0251302442e-01 -2.0251302442e-01
     vertex 2.4681659684e-02 1.9208482554e-01 -1.9208482554e-01
   endloop
 endfacet
 facet normal  -2.2666823106e-01 8.9974457084e-01 -3.7293594662e-01
   outer loop
     vertex 2.4681659684e-02 2.7170223983e-01 0.0000000000e+00
     vertex 8.3233162389e-02 2.8645283236e-01 0.0000000000e+00
     vertex 8.3233162389e-02 2.0251302442e-01 -2.0251302442e-01
   endloop
 endfacet
 facet normal  -9.7142173239e-02 9.1941987645e-01 -3.8109118196e-01
   outer loop
     vertex 8.3233162389e-02 2.8645283236e-01 0.0000000000e+00
     vertex 1.8077108286e-01 2.0979865687e-01 -2.0979865687e-01
     vertex 8.3233162389e-02 2.0251302442e-01 -2.0251302442e-01
   endloop
 endfacet
 facet normal  -9.7142173239e-02 9.1941987645e-01 -3.8109118196e-01
   outer loop
     vertex 8.3233162389e-02 2.8645283236e-01 0.0000000000e+00
     vertex 1.8077108286e-01 2.9675829324e-01 0.0000000000e+00
     vertex 1.8077108286e-01 2.0979865687e-01 -2.0979865687e-01
   endloop
 endfacet
 facet normal  -2.0668207589e-02 9.2359159148e-01 -3.8282031992e-01
   outer loop
     vertex 1.8077108286e-01 2.9675829324e-01 0.0000000000e+00
     vertex 3.2214805739e-01 2.1203532406e-01 -2.1203532406e-01
     vertex 1.8077108286e-01 2.0979865687e-01 -2.0979865687e-01
   endloop
 endfacet
 facet normal  -2.0668207589e-02 9.2359159148e-01 -3.8282031992e-01
   outer loop
     vertex 1.8077108286e-01 2.9675829324e-01 0.0000000000e+00
     vertex 3.2214805739e-01 2.9992203864e-01 0.0000000000e+00
     vertex 3.2214805739e-01 2.1203532406e-01 -2.1203532406e-01
   endloop
 endfacet
 facet normal  3.0142363150e-02 9.2336916709e-01 -3.8272812703e-01
   outer loop
     vertex 3.2214805739e-01 2.9992203864e-01 0.0000000000e+00
     vertex 4.9469990917e-01 2.0805313943e-01 -2.0805313943e-01
     vertex 3.2214805739e-01 2.1203532406e-01 -2.1203532406e-01
   endloop
 endfacet
 facet normal  3.0142363150e-02 9.2336916709e-01 -3.8272812703e-01
   outer loop
     vertex 3.2214805739e-01 2.9992203864e-01 0.0000000000e+00
     vertex 4.9469990917e-01 2.9428927467e-01 0.0000000000e+00
     vertex 4.9469990917e-01 2.0805313943e-01 -2.0805313943e-01
   endloop
 endfacet
 facet normal  6.1865264283e-02 9.2201941378e-01 -3.8216866655e-01
   outer loop
     vertex 4.9469990917e-01 2.9428927467e-01 0.0000000000e+00
     vertex 6.6696530618e-01 2.8273068474e-01 0.0000000000e+00
     vertex 4.9469990917e-01 2.0805313943e-01 -2.0805313943e-01
   endloop
 endfacet
 facet normal  6.1865264283e-02 9.2201941378e-01 -3.8216866655e-01
   outer loop
     vertex 4.9469990917e-01 2.0805313943e-01 -2.0805313943e-01
     vertex 6.6696530618e-01 2.8273068474e-01 0.0000000000e+00
     vertex 6.6696530618e-01 1.9988158467e-01 -1.9988158467e-01
   endloop
 endfacet
 facet normal  8.0787081143e-02 9.2076940897e-01 -3.8165055092e-01
   outer loop
     vertex 6.6696530618e-01 2.8273068474e-01 0.0000000000e+00
     vertex 8.0786174469e-01 2.7036861895e-01 0.0000000000e+00
     vertex 6.6696530618e-01 1.9988158467e-01 -1.9988158467e-01
   endloop
 endfacet
 facet normal  8.0787081143e-02 9.2076940897e-01 -3.8165055092e-01
   outer loop
     vertex 6.6696530618e-01 1.9988158467e-01 -1.9988158467e-01
     vertex 8.0786174469e-01 2.7036861895e-01 0.0000000000e+00
     vertex 8.0786174469e-01 1.9114199808e-01 -1.9114199808e-01
   endloop
 endfacet
 facet normal  9.2715854906e-02 9.1980980151e-01 -3.8125280235e-01
   outer loop
     vertex 8.0786174469e-01 2.7036861895e-01 0.0000000000e+00
     vertex 9.0549005286e-01 2.6052778877e-01 0.0000000000e+00
     vertex 8.0786174469e-01 1.9114199808e-01 -1.9114199808e-01
   endloop
 endfacet
 facet normal  9.2715854906e-02 9.1980980151e-01 -3.8125280235e-01
   outer loop
     vertex 8.0786174469e-01 1.9114199808e-01 -1.9114199808e-01
     vertex 9.0549005286e-01 2.6052778877e-01 0.0000000000e+00
     vertex 9.0549005286e-01 1.8418484473e-01 -1.8418484473e-01
   endloop
 endfacet
 facet normal  1.0055427886e-01 9.1910676647e-01 -3.8096140072e-01
   outer loop
     vertex 9.0549005286e-01 2.6052778877e-01 0.0000000000e+00
     vertex 9.6561709246e-01 2.5394962905e-01 0.0000000000e+00
     vertex 9.0549005286e-01 1.8418484473e-01 -1.8418484473e-01
   endloop
 endfacet
 facet normal  1.0055427886e-01 9.1910676647e-01 -3.8096140072e-01
   outer loop
     vertex 9.0549005286e-01 1.8418484473e-01 -1.8418484473e-01
     vertex 9.6561709246e-01 2.5394962905e-01 0.0000000000e+00
     vertex 9.6561709246e-01 1.7953429543e-01 -1.7953429543e-01
   endloop
 endfacet
 facet normal  1.0552487650e-01 9.1863109773e-01 -3.8076424035e-01
   outer loop
     vertex 9.6561709246e-01 2.5394962905e-01 0.0000000000e+00
     vertex 1.0000000000e+00 2.5000000000e-01 0.0000000000e+00
     vertex 9.6561709246e-01 1.7953429543e-01 -1.7953429543e-01
   endloop
 endfacet
 facet normal  1.0552487650e-01 9.1863109773e-01 -3.8076424035e-01
   outer loop
     vertex 9.6561709246e-01 1.7953429543e-01 -1.7953429543e-01
     vertex 1.0000000000e+00 2.5000000000e-01 0.0000000000e+00
     vertex 1.0000000000e+00 1.7674203355e-01 -1.7674203355e-01
   endloop
 endfacet
 facet normal  1.0552487650e-01 -3.8076424035e-01 9.1863109773e-01
   outer loop
     vertex 1.0000000000e+00 1.7674203355e-01 -1.7674203355e-01
     vertex 9.6561709246e-01 0.0000000000e+00 -2.4605037095e-01
     vertex 1.0000000000e+00 0.0000000000e+00 -2.5000000000e-01
   endloop
 endfacet
 facet normal  1.0552487650e-01 -3.8076424035e-01 9.1863109773e-01
   outer loop
     vertex 1.0000000000e+00 1.7674203355e-01 -1.7674203355e-01
     vertex 9.6561709246e-01 1.7394977166e-01 -1.7394977166e-01
     vertex 9.6561709246e-01 0.0000000000e+00 -2.4605037095e-01
   endloop
 endfacet
 facet normal  1.0055427886e-01 -3.8096140072e-01 9.1910676647e-01
   outer loop
     vertex 9.6561709246e-01 1.7394977166e-01 -1.7394977166e-01
     vertex 9.0549005286e-01 0.0000000000e+00 -2.3947221123e-01
     vertex 9.6561709246e-01 0.0000000000e+00 -2.4605037095e-01
   endloop
 endfacet
 facet normal  1.0055427886e-01 -3.8096140072e-01 9.1910676647e-01
   outer loop
     vertex 9.6561709246e-01 1.7394977166e-01 -1.7394977166e-01
     vertex 9.0549005286e-01 1.6929922236e-01 -1.6929922236e-01
     vertex 9.0549005286e-01 0.0000000000e+00 -2.3947221123e-01
   endloop
 endfacet
 facet normal  9.2715854906e-02 -3.8125280235e-01 9.1980980151e-01
   outer loop
     vertex 9.0549005286e-01 1.6929922236e-01 -1.6929922236e-01
     vertex 8.0786174469e-01 0.0000000000e+00 -2.2963138105e-01
     vertex 9.0549005286e-01 0.0000000000e+00 -2.3947221123e-01
   endloop
 endfacet
 facet normal  9.2715854906e-02 -3.8125280235e-01 9.1980980151e-01
   outer loop
     vertex 9.0549005286e-01 1.6929922236e-01 -1.6929922236e-01
     vertex 8.0786174469e-01 1.6234206901e-01 -1.6234206901e-01
     vertex 8.0786174469e-01 0.0000000000e+00 -2.2963138105e-01
   endloop
 endfacet
 facet normal  8.0787081143e-02 -3.8165055092e-01 9.2076940897e-01
   outer loop
     vertex 8.0786174469e-01 1.6234206901e-01 -1.6234206901e-01
     vertex 6.6696530618e-01 0.0000000000e+00 -2.1726931526e-01
     vertex 8.0786174469e-01 0.0000000000e+00 -2.2963138105e-01
   endloop
 endfacet
 facet normal  8.0787081143e-02 -3.8165055092e-01 9.2076940897e-01
   outer loop
     vertex 8.0786174469e-01 1.6234206901e-01 -1.6234206901e-01
     vertex 6.6696530618e-01 1.5360248243e-01 -1.5360248243e-01
     vertex 6.6696530618e-01 0.0000000000e+00 -2.1726931526e-01
   endloop
 endfacet
 facet normal  6.1865264283e-02 -3.8216866655e-01 9.2201941378e-01
   outer loop
     vertex 6.6696530618e-01 1.5360248243e-01 -1.5360248243e-01
     vertex 4.9469990917e-01 0.0000000000e+00 -2.0571072533e-01
     vertex 6.6696530618e-01 0.0000000000e+00 -2.1726931526e-01
   endloop
 endfacet
 facet normal  6.1865264283e-02 -3.8216866655e-01 9.2201941378e-01
   outer loop
     vertex 6.6696530618e-01 1.5360248243e-01 -1.5360248243e-01
     vertex 4.9469990917e-01 1.4543092767e-01 -1.4543092767e-01
     vertex 4.9469990917e-01 0.0000000000e+00 -2.0571072533e-01
   endloop
 endfacet
 facet normal  3.0142363150e-02 -3.8272812703e-01 9.2336916709e-01
   outer loop
     vertex 4.9469990917e-01 1.4543092767e-01 -1.4543092767e-01
     vertex 3.2214805739e-01 1.4144874303e-01 -1.4144874303e-01
     vertex 4.9469990917e-01 0.0000000000e+00 -2.0571072533e-01
   endloop
 endfacet
 facet normal  3.0142363150e-02 -3.8272812703e-01 9.2336916709e-01
   outer loop
     vertex 4.9469990917e-01 0.0000000000e+00 -2.0571072533e-01
     vertex 3.2214805739e-01 1.4144874303e-01 -1.4144874303e-01
     vertex 3.2214805739e-01 0.0000000000e+00 -2.0007796136e-01
   endloop
 endfacet
 facet normal  -2.0668207589e-02 -3.8282031992e-01 9.2359159148e-01
   outer loop
     vertex 3.2214805739e-01 1.4144874303e-01 -1.4144874303e-01
     vertex 1.8077108286e-01 1.4368541022e-01 -1.4368541022e-01
     vertex 3.2214805739e-01 0.0000000000e+00 -2.0007796136e-01
   endloop
 endfacet
 facet normal  -2.0668207589e-02 -3.8282031992e-01 9.2359159148e-01
   outer loop
     vertex 3.2214805739e-01 0.0000000000e+00 -2.0007796136e-01
     vertex 1.8077108286e-01 1.4368541022e-01 -1.4368541022e-01
     vertex 1.8077108286e-01 0.0000000000e+00 -2.0324170676e-01
   endloop
 endfacet
 facet normal  -9.7142173239e-02 -3.8109118196e-01 9.1941987645e-01
   outer loop
     vertex 1.8077108286e-01 1.4368541022e-01 -1.4368541022e-01
     vertex 8.3233162389e-02 1.5097104267e-01 -1.5097104267e-01
     vertex 1.8077108286e-01 0.0000000000e+00 -2.0324170676e-01
   endloop
 endfacet
 facet normal  -9.7142173239e-02 -3.8109118196e-01 9.1941987645e-01
   outer loop
     vertex 1.8077108286e-01 0.0000000000e+00 -2.0324170676e-01
     vertex 8.3233162389e-02 1.5097104267e-01 -1.5097104267e-01
     vertex 8.3233162389e-02 0.0000000000e+00 -2.1354716764e-01
   endloop
 endfacet
 facet normal  -2.2666823106e-01 -3.7293594662e-01 8.9974457084e-01
   outer loop
     vertex 8.3233162389e-02 1.5097104267e-01 -1.5097104267e-01
     vertex 2.4681659684e-02 1.6139924155e-01 -1.6139924155e-01
     vertex 8.3233162389e-02 0.0000000000e+00 -2.1354716764e-01
   endloop
 endfacet
 facet normal  -2.2666823106e-01 -3.7293594662e-01 8.9974457084e-01
   outer loop
     vertex 8.3233162389e-02 0.0000000000e+00 -2.1354716764e-01
     vertex 2.4681659684e-02 1.6139924155e-01 -1.6139924155e-01
     vertex 2.4681659684e-02 0.0000000000e+00 -2.2829776017e-01
   endloop
 endfacet
 facet normal  -6.3048730058e-01 -2.9720845234e-01 7.1704455906e-01
   outer loop
     vertex 2.4681659684e-02 1.6139924155e-01 -1.6139924155e-01
     vertex 0.0000000000e+00 1.7674203355e-01 -1.7674203355e-01
     vertex 2.4681659684e-02 0.0000000000e+00 -2.2829776017e-01
   endloop
 endfacet
 facet normal  -6.3048730058e-01 -2.9720845234e-01 7.1704455906e-01
   outer loop
     vertex 2.4681659684e-02 0.0000000000e+00 -2.2829776017e-01
     vertex 0.0000000000e+00 1.7674203355e-01 -1.7674203355e-01
     vertex 0.0000000000e+00 0.0000000000e+00 -2.5000000000e-01
   endloop
 endfacet
 facet normal  -6.3048730058e-01 2.9720845234e-01 -7.1704455906e-01
   outer loop
     vertex 0.0000000000e+00 1.7674203355e-01 -1.7674203355e-01
     vertex 2.4681659684e-02 0.0000000000e+00 -2.7170223983e-01
     vertex 0.0000000000e+00 0.0000000000e+00 -2.5000000000e-01
   endloop
 endfacet
 facet normal  -6.3048730058e-01 2.9720845234e-01 -7.1704455906e-01
   outer loop
     vertex 0.0000000000e+00 1.7674203355e-01 -1.7674203355e-01
     vertex 2.4681659684e-02 1.9208482554e-01 -1.9208482554e-01
     vertex 2.4681659684e-02 0.0000000000e+00 -2.7170223983e-01
   endloop
 endfacet
 facet normal  -2.2666823106e-01 3.7293594662e-01 -8.9974457084e-01
   outer loop
     vertex 2.4681659684e-02 1.9208482554e-01 -1.9208482554e-01
     vertex 8.3233162389e-02 0.0000000000e+00 -2.8645283236e-01
     vertex 2.4681659684e-02 0.0000000000e+00 -2.7170223983e-01
   endloop
 endfacet
 facet normal  -2.2666823106e-01 3.7293594662e-01 -8.9974457084e-01
   outer loop
     vertex 2.4681659684e-02 1.9208482554e-01 -1.9208482554e-01
     vertex 8.3233162389e-02 2.0251302442e-01 -2.0251302442e-01
     vertex 8.3233162389e-02 0.0000000000e+00 -2.8645283236e-01
   endloop
 endfacet
 facet normal  -9.7142173239e-02 3.8109118196e-01 -9.1941987645e-01
   outer loop
     vertex 8.3233162389e-02 2.0251302442e-01 -2.0251302442e-01
     vertex 1.8077108286e-01 0.0000000000e+00 -2.9675829324e-01
     vertex 8.3233162389e-02 0.0000000000e+00 -2.8645283236e-01
   endloop
 endfacet
 facet normal  -9.7142173239e-02 3.8109118196e-01 -9.1941987645e-01
   outer loop
     vertex 8.3233162389e-02 2.0251302442e-01 -2.0251302442e-01
     vertex 1.8077108286e-01 2.0979865687e-01 -2.0979865687e-01
     vertex 1.8077108286e-01 0.0000000000e+00 -2.9675829324e-01
   endloop
 endfacet
 facet normal  -2.0668207589e-02 3.8282031992e-01 -9.2359159148e-01
   outer loop
     vertex 1.8077108286e-01 2.0979865687e-01 -2.0979865687e-01
     vertex 3.2214805739e-01 0.0000000000e+00 -2.9992203864e-01
     vertex 1.8077108286e-01 0.0000000000e+00 -2.9675829324e-01
   endloop
 endfacet
 facet normal  -2.0668207589e-02 3.8282031992e-01 -9.2359159148e-01
   outer loop
     vertex 1.8077108286e-01 2.0979865687e-01 -2.0979865687e-01
     vertex 3.2214805739e-01 2.1203532406e-01 -2.1203532406e-01
     vertex 3.2214805739e-01 0.0000000000e+00 -2.9992203864e-01
   endloop
 endfacet
 facet normal  3.0142363150e-02 3.8272812703e-01 -9.2336916709e-01
   outer loop
     vertex 3.2214805739e-01 2.1203532406e-01 -2.1203532406e-01
     vertex 4.9469990917e-01 0.0000000000e+00 -2.9428927467e-01
     vertex 3.2214805739e-01 0.0000000000e+00 -2.9992203864e-01
   endloop
 endfacet
 facet normal  3.0142363150e-02 3.8272812703e-01 -9.2336916709e-01
   outer loop
     vertex 3.2214805739e-01 2.1203532406e-01 -2.1203532406e-01
     vertex 4.9469990917e-01 2.0805313943e-01 -2.0805313943e-01
     vertex 4.9469990917e-01 0.0000000000e+00 -2.9428927467e-01
   endloop
 endfacet
 facet normal  6.1865264283e-02 3.8216866655e-01 -9.2201941378e-01
   outer loop
     vertex 4.9469990917e-01 2.0805313943e-01 -2.0805313943e-01
     vertex 6.6696530618e-01 1.9988158467e-01 -1.9988158467e-01
     vertex 4.9469990917e-01 0.0000000000e+00 -2.9428927467e-01
   endloop
 endfacet
 facet normal  6.1865264283e-02 3.8216866655e-01 -9.2201941378e-01
   outer loop
     vertex 4.9469990917e-01 0.0000000000e+00 -2.9428927467e-01
     vertex 6.6696530618e-01 1.9988158467e-01 -1.9988158467e-01
     vertex 6.6696530618e-01 0.0000000000e+00 -2.8273068474e-01
   endloop
 endfacet
 facet normal  8.0787081143e-02 3.8165055092e-01 -9.2076940897e-01
   outer loop
     vertex 6.6696530618e-01 1.9988158467e-01 -1.9988158467e-01
     vertex 8.0786174469e-01 1.9114199808e-01 -1.9114199808e-01
     vertex 6.6696530618e-01 0.0000000000e+00 -2.8273068474e-01
   endloop
 endfacet
 facet normal  8.0787081143e-02 3.8165055092e-01 -9.2076940897e-01
   outer loop
     vertex 6.6696530618e-01 0.0000000000e+00 -2.8273068474e-01
     vertex 8.0786174469e-01 1.9114199808e-01 -1.9114199808e-01
     vertex 8.0786174469e-01 0.0000000000e+00 -2.7036861895e-01
   endloop
 endfacet
 facet normal  9.2715854906e-02 3.8125280235e-01 -9.1980980151e-01
   outer loop
     vertex 8.0786174469e-01 1.9114199808e-01 -1.9114199808e-01
     vertex 9.0549005286e-01 1.8418484473e-01 -1.8418484473e-01
     vertex 8.0786174469e-01 0.0000000000e+00 -2.7036861895e-01
   endloop
 endfacet
 facet normal  9.2715854906e-02 3.8125280235e-01 -9.1980980151e-01
   outer loop
     vertex 8.0786174469e-01 0.0000000000e+00 -2.7036861895e-01
     vertex 9.0549005286e-01 1.8418484473e-01 -1.8418484473e-01
     vertex 9.0549005286e-01 0.0000000000e+00 -2.6052778877e-01
   endloop
 endfacet
 facet normal  1.0055427886e-01 3.8096140072e-01 -9.1910676647e-01
   outer loop
     vertex 9.0549005286e-01 1.8418484473e-01 -1.8418484473e-01
     vertex 9.6561709246e-01 1.7953429543e-01 -1.7953429543e-01
     vertex 9.0549005286e-01 0.0000000000e+00 -2.6052778877e-01
   endloop
 endfacet
 facet normal  1.0055427886e-01 3.8096140072e-01 -9.1910676647e-01
   outer loop
     vertex 9.0549005286e-01 0.0000000000e+00 -2.6052778877e-01
     vertex 9.6561709246e-01 1.7953429543e-01 -1.7953429543e-01
     vertex 9.6561709246e-01 0.0000000000e+00 -2.5394962905e-01
   endloop
 endfacet
 facet normal  1.0552487650e-01 3.8076424035e-01 -9.1863109773e-01
   outer loop
     vertex 9.6561709246e-01 1.7953429543e-01 -1.7953429543e-01
     vertex 1.0000000000e+00 1.7674203355e-01 -1.7674203355e-01
     vertex 9.6561709246e-01 0.0000000000e+00 -2.5394962905e-01
   endloop
 endfacet
 facet normal  1.0552487650e-01 3.8076424035e-01 -9.1863109773e-01
   outer loop
     vertex 9.6561709246e-01 0.0000000000e+00 -2.5394962905e-01
     vertex 1.0000000000e+00 1.7674203355e-01 -1.7674203355e-01
     vertex 1.0000000000e+00 0.0000000000e+00 -2.5000000000e-01
   endloop
 endfacet
 facet normal  1.0552487650e-01 3.8076424035e-01 9.1863109773e-01
   outer loop
     vertex 1.0000000000e+00 0.0000000000e+00 -2.5000000000e-01
     vertex 9.6561709246e-01 -1.7394977166e-01 -1.7394977166e-01
     vertex 1.0000000000e+00 -1.7674203355e-01 -1.7674203355e-01
   endloop
 endfacet
 facet normal  1.0552487650e-01 3.8076424035e-01 9.1863109773e-01
   outer loop
     vertex 1.0000000000e+00 0.0000000000e+00 -2.5000000000e-01
     vertex 9.6561709246e-01 0.0000000000e+00 -2.4605037095e-01
     vertex 9.6561709246e-01 -1.7394977166e-01 -1.7394977166e-01
   endloop
 endfacet
 facet normal  1.0055427886e-01 3.8096140072e-01 9.1910676647e-01
   outer loop
     vertex 9.6561709246e-01 0.0000000000e+00 -2.4605037095e-01
     vertex 9.0549005286e-01 -1.6929922236e-01 -1.6929922236e-01
     vertex 9.6561709246e-01 -1.7394977166e-01 -1.7394977166e-01
   endloop
 endfacet
 facet normal  1.0055427886e-01 3.8096140072e-01 9.1910676647e-01
   outer loop
     vertex 9.6561709246e-01 0.0000000000e+00 -2.4605037095e-01
     vertex 9.0549005286e-01 0.0000000000e+00 -2.3947221123e-01
     vertex 9.0549005286e-01 -1.6929922236e-01 -1.6929922236e-01
   endloop
 endfacet
 facet normal  9.2715854906e-02 3.8125280235e-01 9.1980980151e-01
   outer loop
     vertex 9.0549005286e-01 0.0000000000e+00 -2.3947221123e-01
     vertex 8.0786174469e-01 -1.6234206901e-01 -1.6234206901e-01
     vertex 9.0549005286e-01 -1.6929922236e-01 -1.6929922236e-01
   endloop
 endfacet
 facet normal  9.2715854906e-02 3.8125280235e-01 9.1980980151e-01
   outer loop
     vertex 9.0549005286e-01 0.0000000000e+00 -2.3947221123e-01
     vertex 8.0786174469e-01 0.0000000000e+00 -2.2963138105e-01
     vertex 8.0786174469e-01 -1.6234206901e-01 -1.6234206901e-01
   endloop
 endfacet
 facet normal  8.0787081143e-02 3.8165055092e-01 9.2076940897e-01
   outer loop
     vertex 8.0786174469e-01 0.0000000000e+00 -2.2963138105e-01
     vertex 6.6696530618e-01 -1.5360248243e-01 -1.5360248243e-01
     vertex 8.0786174469e-01 -1.6234206901e-01 -1.6234206901e-01
   endloop
 endfacet
 facet normal  8.0787081143e-02 3.8165055092e-01 9.2076940897e-01
   outer loop
     vertex 8.0786174469e-01 0.0000000000e+00 -2.2963138105e-01
     vertex 6.6696530618e-01 0.0000000000e+00 -2.1726931526e-01
     vertex 6.6696530618e-01 -1.5360248243e-01 -1.5360248243e-01
   endloop
 endfacet
 facet normal  6.1865264283e-02 3.8216866655e-01 9.2201941378e-01
   outer loop
     vertex 6.6696530618e-01 0.0000000000e+00 -2.1726931526e-01
     vertex 4.9469990917e-01 -1.4543092767e-01 -1.4543092767e-01
     vertex 6.6696530618e-01 -1.5360248243e-01 -1.5360248243e-01
   endloop
 endfacet
 facet normal  6.1865264283e-02 3.8216866655e-01 9.2201941378e-01
   outer loop
     vertex 6.6696530618e-01 0.0000000000e+00 -2.1726931526e-01
     vertex 4.9469990917e-01 0.0000000000e+00 -2.0571072533e-01
     vertex 4.9469990917e-01 -1.4543092767e-01 -1.4543092767e-01
   endloop
 endfacet
 facet normal  3.0142363150e-02 3.8272812703e-01 9.2336916709e-01
   outer loop
     vertex 4.9469990917e-01 0.0000000000e+00 -2.0571072533e-01
     vertex 3.2214805739e-01 0.0000000000e+00 -2.0007796136e-01
     vertex 4.9469990917e-01 -1.4543092767e-01 -1.4543092767e-01
   endloop
 endfacet
 facet normal  3.0142363150e-02 3.8272812703e-01 9.2336916709e-01
   outer loop
     vertex 4.9469990917e-01 -1.4543092767e-01 -1.4543092767e-01
     vertex 3.2214805739e-01 0.0000000000e+00 -2.0007796136e-01
     vertex 3.2214805739e-01 -1.4144874303e-01 -1.4144874303e-01
   endloop
 endfacet
 facet normal  -2.0668207589e-02 3.8282031992e-01 9.2359159148e-01
   outer loop
     vertex 3.2214805739e-01 0.0000000000e+00 -2.0007796136e-01
     vertex 1.8077108286e-01 0.0000000000e+00 -2.0324170676e-01
     vertex 3.2214805739e-01 -1.4144874303e-01 -1.4144874303e-01
   endloop
 endfacet
 facet normal  -2.0668207589e-02 3.8282031992e-01 9.2359159148e-01
   outer loop
     vertex 3.2214805739e-01 -1.4144874303e-01 -1.4144874303e-01
     vertex 1.8077108286e-01 0.0000000000e+00 -2.0324170676e-01
     vertex 1.8077108286e-01 -1.4368541022e-01 -1.4368541022e-01
   endloop
 endfacet
 facet normal  -9.7142173239e-02 3.8109118196e-01 9.1941987645e-01
   outer loop
     vertex 1.8077108286e-01 0.0000000000e+00 -2.0324170676e-01
     vertex 8.3233162389e-02 0.0000000000e+00 -2.1354716764e-01
     vertex 1.8077108286e-01 -1.4368541022e-01 -1.4368541022e-01
   endloop
 endfacet
 facet normal  -9.7142173239e-02 3.8109118196e-01 9.1941987645e-01
   outer loop
     vertex 1.8077108286e-01 -1.4368541022e-01 -1.4368541022e-01
     vertex 8.3233162389e-02 0.0000000000e+00 -2.1354716764e-01
     vertex 8.3233162389e-02 -1.5097104267e-01 -1.5097104267e-01
   endloop
 endfacet
 facet normal  -2.2666823106e-01 3.7293594662e-01 8.9974457084e-01
   outer loop
     vertex 8.3233162389e-02 0.0000000000e+00 -2.1354716764e-01
     vertex 2.4681659684e-02 0.0000000000e+00 -2.2829776017e-01
     vertex 8.3233162389e-02 -1.5097104267e-01 -1.5097104267e-01
   endloop
 endfacet
 facet normal  -2.2666823106e-01 3.7293594662e-01 8.9974457084e-01
   outer loop
     vertex 8.3233162389e-02 -1.5097104267e-01 -1.5097104267e-01
     vertex 2.4681659684e-02 0.0000000000e+00 -2.2829776017e-01
     vertex 2.4681659684e-02 -1.6139924155e-01 -1.6139924155e-01
   endloop
 endfacet
 facet normal  -6.3048730058e-01 2.9720845234e-01 7.1704455906e-01
   outer loop
     vertex 2.4681659684e-02 0.0000000000e+00 -2.2829776017e-01
     vertex 0.0000000000e+00 0.0000000000e+00 -2.5000000000e-01
     vertex 2.4681659684e-02 -1.6139924155e-01 -1.6139924155e-01
   endloop
 endfacet
 facet normal  -6.3048730058e-01 2.9720845234e-01 7.1704455906e-01
   outer loop
     vertex 2.4681659684e-02 -1.6139924155e-01 -1.6139924155e-01
     vertex 0.0000000000e+00 0.0000000000e+00 -2.5000000000e-01
     vertex 0.0000000000e+00 -1.7674203355e-01 -1.7674203355e-01
   endloop
 endfacet
 facet normal  -6.3048730058e-01 -2.9720845234e-01 -7.1704455906e-01
   outer loop
     vertex 0.0000000000e+00 0.0000000000e+00 -2.5000000000e-01
     vertex 2.4681659684e-02 -1.9208482554e-01 -1.9208482554e-01
     vertex 0.0000000000e+00 -1.7674203355e-01 -1.7674203355e-01
   endloop
 endfacet
 facet normal  -6.3048730058e-01 -2.9720845234e-01 -7.1704455906e-01
   outer loop
     vertex 0.0000000000e+00 0.0000000000e+00 -2.5000000000e-01
     vertex 2.4681659684e-02 0.0000000000e+00 -2.7170223983e-01
     vertex 2.4681659684e-02 -1.9208482554e-01 -1.9208482554e-01
   endloop
 endfacet
 facet normal  -2.2666823106e-01 -3.7293594662e-01 -8.9974457084e-01
   outer loop
     vertex 2.4681659684e-02 0.0000000000e+00 -2.7170223983e-01
     vertex 8.3233162389e-02 -2.0251302442e-01 -2.0251302442e-01
     vertex 2.4681659684e-02 -1.9208482554e-01 -1.9208482554e-01
   endloop
 endfacet
 facet normal  -2.2666823106e-01 -3.7293594662e-01 -8.9974457084e-01
   outer loop
     vertex 2.4681659684e-02 0.0000000000e+00 -2.7170223983e-01
     vertex 8.3233162389e-02 0.0000000000e+00 -2.8645283236e-01
     vertex 8.3233162389e-02 -2.0251302442e-01 -2.0251302442e-01
   endloop
 endfacet
 facet normal  -9.7142173239e-02 -3.8109118196e-01 -9.1941987645e-01
   outer loop
     vertex 8.3233162389e-02 0.0000000000e+00 -2.8645283236e-01
     vertex 1.8077108286e-01 -2.0979865687e-01 -2.0979865687e-01
     vertex 8.3233162389e-02 -2.0251302442e-01 -2.0251302442e-01
   endloop
 endfacet
 facet normal  -9.7142173239e-02 -3.8109118196e-01 -9.1941987645e-01
   outer loop
     vertex 8.3233162389e-02 0.0000000000e+00 -2.8645283236e-01
     vertex 1.8077108286e-01 0.0000000000e+00 -2.9675829324e-01
     vertex 1.8077108286e-01 -2.0979865687e-01 -2.0979865687e-01
   endloop
 endfacet
 facet normal  -2.0668207589e-02 -3.8282031992e-01 -9.2359159148e-01
   outer loop
     vertex 1.8077108286e-01 0.0000000000e+00 -2.9675829324e-01
     vertex 3.2214805739e-01 -2.1203532406e-01 -2.1203532406e-01
     vertex 1.8077108286e-01 -2.0979865687e-01 -2.0979865687e-01
   endloop
 endfacet
 facet normal  -2.0668207589e-02 -3.8282031992e-01 -9.2359159148e-01
   outer loop
     vertex 1.8077108286e-01 0.0000000000e+00 -2.9675829324e-01
     vertex 3.2214805739e-01 0.0000000000e+00 -2.9992203864e-01
     vertex 3.2214805739e-01 -2.1203532406e-01 -2.1203532406e-01
   endloop
 endfacet
 facet normal  3.0142363150e-02 -3.8272812703e-01 -9.2336916709e-01
   outer loop
     vertex 3.2214805739e-01 0.0000000000e+00 -2.9992203864e-01
     vertex 4.9469990917e-01 -2.0805313943e-01 -2.0805313943e-01
     vertex 3.2214805739e-01 -2.1203532406e-01 -2.1203532406e-01
   endloop
 endfacet
 facet normal  3.0142363150e-02 -3.8272812703e-01 -9.2336916709e-01
   outer loop
     vertex 3.2214805739e-01 0.0000000000e+00 -2.9992203864e-01
     vertex 4.9469990917e-01 0.0000000000e+00 -2.9428927467e-01
     vertex 4.9469990917e-01 -2.0805313943e-01 -2.0805313943e-01
   endloop
 endfacet
 facet normal  6.1865264283e-02 -3.8216866655e-01 -9.2201941378e-01
   outer loop
     vertex 4.9469990917e-01 0.0000000000e+00 -2.9428927467e-01
     vertex 6.6696530618e-01 0.0000000000e+00 -2.8273068474e-01
     vertex 4.9469990917e-01 -2.0805313943e-01 -2.0805313943e-01
   endloop
 endfacet
 facet normal  6.1865264283e-02 -3.8216866655e-01 -9.2201941378e-01
   outer loop
     vertex 4.9469990917e-01 -2.0805313943e-01 -2.0805313943e-01
     vertex 6.6696530618e-01 0.0000000000e+00 -2.8273068474e-01
     vertex 6.6696530618e-01 -1.9988158467e-01 -1.9988158467e-01
   endloop
 endfacet
 facet normal  8.0787081143e-02 -3.8165055092e-01 -9.2076940897e-01
   outer loop
     vertex 6.6696530618e-01 0.0000000000e+00 -2.8273068474e-01
     vertex 8.0786174469e-01 0.0000000000e+00 -2.7036861895e-01
     vertex 6.6696530618e-01 -1.9988158467e-01 -1.9988158467e-01
   endloop
 endfacet
 facet normal  8.0787081143e-02 -3.8165055092e-01 -9.2076940897e-01
   outer loop
     vertex 6.6696530618e-01 -1.9988158467e-01 -1.9988158467e-01
     vertex 8.0786174469e-01 0.0000000000e+00 -2.7036861895e-01
     vertex 8.0786174469e-01 -1.9114199808e-01 -1.9114199808e-01
   endloop
 endfacet
 facet normal  9.2715854906e-02 -3.8125280235e-01 -9.1980980151e-01
   outer loop
     vertex 8.0786174469e-01 0.0000000000e+00 -2.7036861895e-01
     vertex 9.0549005286e-01 0.0000000000e+00 -2.6052778877e-01
     vertex 8.0786174469e-01 -1.9114199808e-01 -1.9114199808e-01
   endloop
 endfacet
 facet normal  9.2715854906e-02 -3.8125280235e-01 -9.1980980151e-01
   outer loop
     vertex 8.0786174469e-01 -1.9114199808e-01 -1.9114199808e-01
     vertex 9.0549005286e-01 0.0000000000e+00 -2.6052778877e-01
     vertex 9.0549005286e-01 -1.8418484473e-01 -1.8418484473e-01
   endloop
 endfacet
 facet normal  1.0055427886e-01 -3.8096140072e-01 -9.1910676647e-01
   outer loop
     vertex 9.0549005286e-01 0.0000000000e+00 -2.6052778877e-01
     vertex 9.6561709246e-01 0.0000000000e+00 -2.5394962905e-01
     vertex 9.0549005286e-01 -1.8418484473e-01 -1.8418484473e-01
   endloop
 endfacet
 facet normal  1.0055427886e-01 -3.8096140072e-01 -9.1910676647e-01
   outer loop
     vertex 9.0549005286e-01 -1.8418484473e-01 -1.8418484473e-01
     vertex 9.6561709246e-01 0.0000000000e+00 -2.5394962905e-01
     vertex 9.6561709246e-01 -1.7953429543e-01 -1.7953429543e-01
   endloop
 endfacet
 facet normal  1.0552487650e-01 -3.8076424035e-01 -9.1863109773e-01
   outer loop
     vertex 9.6561709246e-01 0.0000000000e+00 -2.5394962905e-01
     vertex 1.0000000000e+00 0.0000000000e+00 -2.5000000000e-01
     vertex 9.6561709246e-01 -1.7953429543e-01 -1.7953429543e-01
   endloop
 endfacet
 facet normal  1.0552487650e-01 -3.8076424035e-01 -9.1863109773e-01
   outer loop
     vertex 9.6561709246e-01 -1.7953429543e-01 -1.7953429543e-01
     vertex 1.0000000000e+00 0.0000000000e+00 -2.5000000000e-01
     vertex 1.0000000000e+00 -1.7674203355e-01 -1.7674203355e-01
   endloop
 endfacet
 facet normal  1.0552487650e-01 9.1863109773e-01 3.8076424035e-01
   outer loop
     vertex 1.0000000000e+00 -1.7674203355e-01 -1.7674203355e-01
     vertex 9.6561709246e-01 -2.4605037095e-01 0.0000000000e+00
     vertex 1.0000000000e+00 -2.5000000000e-01 0.0000000000e+00
   endloop
 endfacet
 facet normal  1.0552487650e-01 9.1863109773e-01 3.8076424035e-01
   outer loop
     vertex 1.0000000000e+00 -1.7674203355e-01 -1.7674203355e-01
     vertex 9.6561709246e-01 -1.7394977166e-01 -1.7394977166e-01
     vertex 9.6561709246e-01 -2.4605037095e-01 0.0000000000e+00
   endloop
 endfacet
 facet normal  1.0055427886e-01 9.1910676647e-01 3.8096140072e-01
   outer loop
     vertex 9.6561709246e-01 -1.7394977166e-01 -1.7394977166e-01
     vertex 9.0549005286e-01 -2.3947221123e-01 0.0000000000e+00
     vertex 9.6561709246e-01 -2.4605037095e-01 0.0000000000e+00
   endloop
 endfacet
 facet normal  1.0055427886e-01 9.1910676647e-01 3.8096140072e-01
   outer loop
     vertex 9.6561709246e-01 -1.7394977166e-01 -1.7394977166e-01
     vertex 9.0549005286e-01 -1.6929922236e-01 -1.6929922236e-01
     vertex 9.0549005286e-01 -2.3947221123e-01 0.0000000000e+00
   endloop
 endfacet
 facet normal  9.2715854906e-02 9.1980980151e-01 3.8125280235e-01
   outer loop
     vertex 9.0549005286e-01 -1.6929922236e-01 -1.6929922236e-01
     vertex 8.0786174469e-01 -2.2963138105e-01 0.0000000000e+00
     vertex 9.0549005286e-01 -2.3947221123e-01 0.0000000000e+00
   endloop
 endfacet
 facet normal  9.2715854906e-02 9.1980980151e-01 3.8125280235e-01
   outer loop
     vertex 9.0549005286e-01 -1.6929922236e-01 -1.6929922236e-01
     vertex 8.0786174469e-01 -1.6234206901e-01 -1.6234206901e-01
     vertex 8.0786174469e-01 -2.2963138105e-01 0.0000000000e+00
   endloop
 endfacet
 facet normal  8.0787081143e-02 9.2076940897e-01 3.8165055092e-01
   outer loop
     vertex 8.0786174469e-01 -1.6234206901e-01 -1.6234206901e-01
     vertex 6.6696530618e-01 -2.1726931526e-01 0.0000000000e+00
     vertex 8.0786174469e-01 -2.2963138105e-01 0.0000000000e+00
   endloop
 endfacet
 facet normal  8.0787081143e-02 9.2076940897e-01 3.8165055092e-01
   outer loop
     vertex 8.0786174469e-01 -1.6234206901e-01 -1.6234206901e-01
     vertex 6.6696530618e-01 -1.5360248243e-01 -1.5360248243e-01
     vertex 6.6696530618e-01 -2.1726931526e-01 0.0000000000e+00
   endloop
 endfacet
 facet normal  6.1865264283e-02 9.2201941378e-01 3.8216866655e-01
   outer loop
     vertex 6.6696530618e-01 -1.5360248243e-01 -1.5360248243e-01
     vertex 4.9469990917e-01 -2.0571072533e-01 0.0000000000e+00
     vertex 6.6696530618e-01 -2.1726931526e-01 0.0000000000e+00
   endloop
 endfacet
 facet normal  6.1865264283e-02 9.2201941378e-01 3.8216866655e-01
   outer loop
     vertex 6.6696530618e-01 -1.5360248243e-01 -1.5360248243e-01
     vertex 4.9469990917e-01 -1.4543092767e-01 -1.4543092767e-01
     vertex 4.9469990917e-01 -2.0571072533e-01 0.0000000000e+00
   endloop
 endfacet
 facet normal  3.0142363150e-02 9.2336916709e-01 3.8272812703e-01
   outer loop
     vertex 4.9469990917e-01 -1.4543092767e-01 -1.4543092767e-01
     vertex 3.2214805739e-01 -1.4144874303e-01 -1.4144874303e-01
     vertex 4.9469990917e-01 -2.0571072533e-01 0.0000000000e+00
   endloop
 endfacet
 facet normal  3.0142363150e-02 9.2336916709e-01 3.8272812703e-01
   outer loop
     vertex 4.9469990917e-01 -2.0571072533e-01 0.0000000000e+00
     vertex 3.2214805739e-01 -1.4144874303e-01 -1.4144874303e-01
     vertex 3.2214805739e-01 -2.0007796136e-01 0.0000000000e+00
   endloop
 endfacet
 facet normal  -2.0668207589e-02 9.2359159148e-01 3.8282031992e-01
   outer loop
     vertex 3.2214805739e-01 -1.4144874303e-01 -1.4144874303e-01
     vertex 1.8077108286e-01 -1.4368541022e-01 -1.4368541022e-01
     vertex 3.2214805739e-01 -2.0007796136e-01 0.0000000000e+00
   endloop
 endfacet
 facet normal  -2.0668207589e-02 9.2359159148e-01 3.8282031992e-01
   outer loop
     vertex 3.2214805739e-01 -2.0007796136e-01 0.0000000000e+00
     vertex 1.8077108286e-01 -1.4368541022e-01 -1.4368541022e-01
     vertex 1.8077108286e-01 -2.0324170676e-01 0.0000000000e+00
   endloop
 endfacet
 facet normal  -9.7142173239e-02 9.1941987645e-01 3.8109118196e-01
   outer loop
     vertex 1.8077108286e-01 -1.4368541022e-01 -1.4368541022e-01
     vertex 8.3233162389e-02 -1.5097104267e-01 -1.5097104267e-01
     vertex 1.8077108286e-01 -2.0324170676e-01 0.0000000000e+00
   endloop
 endfacet
 facet normal  -9.7142173239e-02 9.1941987645e-01 3.8109118196e-01
   outer loop
     vertex 1.8077108286e-01 -2.0324170676e-01 0.0000000000e+00
     vertex 8.3233162389e-02 -1.5097104267e-01 -1.5097104267e-01
     vertex 8.3233162389e-02 -2.1354716764e-01 0.0000000000e+00
   endloop
 endfacet
 facet normal  -2.2666823106e-01 8.9974457084e-01 3.7293594662e-01
   outer loop
     vertex 8.3233162389e-02 -1.5097104267e-01 -1.5097104267e-01
     vertex 2.4681659684e-02 -1.6139924155e-01 -1.6139924155e-01
     vertex 8.3233162389e-02 -2.1354716764e-01 0.0000000000e+00
   endloop
 endfacet
 facet normal  -2.2666823106e-01 8.9974457084e-01 3.7293594662e-01
   outer loop
     vertex 8.3233162389e-02 -2.1354716764e-01 0.0000000000e+00
     vertex 2.4681659684e-02 -1.6139924155e-01 -1.6139924155e-01
     vertex 2.4681659684e-02 -2.2829776017e-01 0.0000000000e+00
   endloop
 endfacet
 facet normal  -6.3048730058e-01 7.1704455906e-01 2.9720845234e-01
   outer loop
     vertex 2.4681659684e-02 -1.6139924155e-01 -1.6139924155e-01
     vertex 0.0000000000e+00 -1.7674203355e-01 -1.7674203355e-01
     vertex 2.4681659684e-02 -2.2829776017e-01 0.0000000000e+00
   endloop
 endfacet
 facet normal  -6.3048730058e-01 7.1704455906e-01 2.9720845234e-01
   outer loop
     vertex 2.4681659684e-02 -2.2829776017e-01 0.0000000000e+00
     vertex 0.0000000000e+00 -1.7674203355e-01 -1.7674203355e-01
     vertex 0.0000000000e+00 -2.5000000000e-01 0.0000000000e+00
   endloop
 endfacet
 facet normal  -6.3048730058e-01 -7.1704455906e-01 -2.9720845234e-01
   outer loop
     vertex 0.0000000000e+00 -1.7674203355e-01 -1.7674203355e-01
     vertex 2.4681659684e-02 -2.7170223983e-01 0.0000000000e+00
     vertex 0.0000000000e+00 -2.5000000000e-01 0.0000000000e+00
   endloop
 endfacet
 facet normal  -6.3048730058e-01 -7.1704455906e-01 -2.9720845234e-01
   outer loop
     vertex 0.0000000000e+00 -1.7674203355e-01 -1.7674203355e-01
     vertex 2.4681659684e-02 -1.9208482554e-01 -1.9208482554e-01
     vertex 2.4681659684e-02 -2.7170223983e-01 0.0000000000e+00
   endloop
 endfacet
 facet normal  -2.2666823106e-01 -8.9974457084e-01 -3.7293594662e-01
   outer loop
     vertex 2.4681659684e-02 -1.9208482554e-01 -1.9208482554e-01
     vertex 8.3233162389e-02 -2.8645283236e-01 0.0000000000e+00
     vertex 2.4681659684e-02 -2.7170223983e-01 0.0000000000e+00
   endloop
 endfacet
 facet normal  -2.2666823106e-01 -8.9974457084e-01 -3.7293594662e-01
   outer loop
     vertex 2.4681659684e-02 -1.9208482554e-01 -1.9208482554e-01
     vertex 8.3233162389e-02 -2.0251302442e-01 -2.0251302442e-01
     vertex 8.3233162389e-02 -2.8645283236e-01 0.0000000000e+00
   endloop
 endfacet
 facet normal  -9.7142173239e-02 -9.1941987645e-01 -3.8109118196e-01
   outer loop
     vertex 8.3233162389e-02 -2.0251302442e-01 -2.0251302442e-01
     vertex 1.8077108286e-01 -2.9675829324e-01 0.0000000000e+00
     vertex 8.3233162389e-02 -2.8645283236e-01 0.0000000000e+00
   endloop
 endfacet
 facet normal  -9.7142173239e-02 -9.1941987645e-01 -3.8109118196e-01
   outer loop
     vertex 8.3233162389e-02 -2.0251302442e-01 -2.0251302442e-01
     vertex 1.8077108286e-01 -2.0979865687e-01 -2.0979865687e-01
     vertex 1.8077108286e-01 -2.9675829324e-01 0.0000000000e+00
   endloop
 endfacet
 facet normal  -2.0668207589e-02 -9.2359159148e-01 -3.8282031992e-01
   outer loop
     vertex 1.8077108286e-01 -2.0979865687e-01 -2.0979865687e-01
     vertex 3.2214805739e-01 -2.9992203864e-01 0.0000000000e+00
     vertex 1.8077108286e-01 -2.9675829324e-01 0.0000000000e+00
   endloop
 endfacet
 facet normal  -2.0668207589e-02 -9.2359159148e-01 -3.8282031992e-01
   outer loop
     vertex 1.8077108286e-01 -2.0979865687e-01 -2.0979865687e-01
     vertex 3.2214805739e-01 -2.1203532406e-01 -2.1203532406e-01
     vertex 3.2214805739e-01 -2.9992203864e-01 0.0000000000e+00
   endloop
 endfacet
 facet normal  3.0142363150e-02 -9.2336916709e-01 -3.8272812703e-01
   outer loop
     vertex 3.2214805739e-01 -2.1203532406e-01 -2.1203532406e-01
     vertex 4.9469990917e-01 -2.9428927467e-01 0.0000000000e+00
     vertex 3.2214805739e-01 -2.9992203864e-01 0.0000000000e+00
   endloop
 endfacet
 facet normal  3.0142363150e-02 -9.2336916709e-01 -3.8272812703e-01
   outer loop
     vertex 3.2214805739e-01 -2.1203532406e-01 -2.1203532406e-01
     vertex 4.9469990917e-01 -2.0805313943e-01 -2.0805313943e-01
     vertex 4.9469990917e-01 -2.9428927467e-01 0.0000000000e+00
   endloop
 endfacet
 facet normal  6.1865264283e-02 -9.2201941378e-01 -3.8216866655e-01
   outer loop
     vertex 4.9469990917e-01 -2.0805313943e-01 -2.0805313943e-01
     vertex 6.6696530618e-01 -1.9988158467e-01 -1.9988158467e-01
     vertex 4.9469990917e-01 -2.9428927467e-01 0.0000000000e+00
   endloop
 endfacet
 facet normal  6.1865264283e-02 -9.2201941378e-01 -3.8216866655e-01
   outer loop
     vertex 4.9469990917e-01 -2.9428927467e-01 0.0000000000e+00
     vertex 6.6696530618e-01 -1.9988158467e-01 -1.9988158467e-01
     vertex 6.6696530618e-01 -2.8273068474e-01 0.0000000000e+00
   endloop
 endfacet
 facet normal  8.0787081143e-02 -9.2076940897e-01 -3.8165055092e-01
   outer loop
     vertex 6.6696530618e-01 -1.9988158467e-01 -1.9988158467e-01
     vertex 8.0786174469e-01 -1.9114199808e-01 -1.9114199808e-01
     vertex 6.6696530618e-01 -2.8273068474e-01 0.0000000000e+00
   endloop
 endfacet
 facet normal  8.0787081143e-02 -9.2076940897e-01 -3.8165055092e-01
   outer loop
     vertex 6.6696530618e-01 -2.8273068474e-01 0.0000000000e+00
     vertex 8.0786174469e-01 -1.9114199808e-01 -1.9114199808e-01
     vertex 8.0786174469e-01 -2.7036861895e-01 0.0000000000e+00
   endloop
 endfacet
 facet normal  9.2715854906e-02 -9.1980980151e-01 -3.8125280235e-01
   outer loop
     vertex 8.0786174469e-01 -1.9114199808e-01 -1.9114199808e-01
     vertex 9.0549005286e-01 -1.8418484473e-01 -1.8418484473e-01
     vertex 8.0786174469e-01 -2.7036861895e-01 0.0000000000e+00
   endloop
 endfacet
 facet normal  9.2715854906e-02 -9.1980980151e-01 -3.8125280235e-01
   outer loop
     vertex 8.0786174469e-01 -2.7036861895e-01 0.0000000000e+00
     vertex 9.0549005286e-01 -1.8418484473e-01 -1.8418484473e-01
     vertex 9.0549005286e-01 -2.6052778877e-01 0.0000000000e+00
   endloop
 endfacet
 facet normal  1.0055427886e-01 -9.1910676647e-01 -3.8096140072e-01
   outer loop
     vertex 9.0549005286e-01 -1.8418484473e-01 -1.8418484473e-01
     vertex 9.6561709246e-01 -1.7953429543e-01 -1.7953429543e-01
     vertex 9.0549005286e-01 -2.6052778877e-01 0.0000000000e+00
   endloop
 endfacet
 facet normal  1.0055427886e-01 -9.1910676647e-01 -3.8096140072e-01
   outer loop
     vertex 9.0549005286e-01 -2.6052778877e-01 0.0000000000e+00
     vertex 9.6561709246e-01 -1.7953429543e-01 -1.7953429543e-01
     vertex 9.6561709246e-01 -2.5394962905e-01 0.0000000000e+00
   endloop
 endfacet
 facet normal  1.0552487650e-01 -9.1863109773e-01 -3.8076424035e-01
   outer loop
     vertex 9.6561709246e-01 -1.7953429543e-01 -1.7953429543e-01
     vertex 1.0000000000e+00 -1.7674203355e-01 -1.7674203355e-01
     vertex 9.6561709246e-01 -2.5394962905e-01 0.0000000000e+00
   endloop
 endfacet
 facet normal  1.0552487650e-01 -9.1863109773e-01 -3.8076424035e-01
   outer loop
     vertex 9.6561709246e-01 -2.5394962905e-01 0.0000000000e+00
     vertex 1.0000000000e+00 -1.7674203355e-01 -1.7674203355e-01
     vertex 1.0000000000e+00 -2.5000000000e-01 0.0000000000e+00
   endloop
 endfacet
 facet normal  1.0552487650e-01 9.1863109773e-01 -3.8076424035e-01
   outer loop
     vertex 1.0000000000e+00 -2.5000000000e-01 0.0000000000e+00
     vertex 9.6561709246e-01 -1.7394977166e-01 1.7394977166e-01
     vertex 1.0000000000e+00 -1.7674203355e-01 1.7674203355e-01
   endloop
 endfacet
 facet normal  1.0552487650e-01 9.1863109773e-01 -3.8076424035e-01
   outer loop
     vertex 1.0000000000e+00 -2.5000000000e-01 0.0000000000e+00
     vertex 9.6561709246e-01 -2.4605037095e-01 0.0000000000e+00
     vertex 9.6561709246e-01 -1.7394977166e-01 1.7394977166e-01
   endloop
 endfacet
 facet normal  1.0055427886e-01 9.1910676647e-01 -3.8096140072e-01
   outer loop
     vertex 9.6561709246e-01 -2.4605037095e-01 0.0000000000e+00
     vertex 9.0549005286e-01 -1.6929922236e-01 1.6929922236e-01
     vertex 9.6561709246e-01 -1.7394977166e-01 1.7394977166e-01
   endloop
 endfacet
 facet normal  1.0055427886e-01 9.1910676647e-01 -3.8096140072e-01
   outer loop
     vertex 9.6561709246e-01 -2.4605037095e-01 0.0000000000e+00
     vertex 9.0549005286e-01 -2.3947221123e-01 0.0000000000e+00
     vertex 9.0549005286e-01 -1.6929922236e-01 1.6929922236e-01
   endloop
 endfacet
 facet normal  9.2715854906e-02 9.1980980151e-01 -3.8125280235e-01
   outer loop
     vertex 9.0549005286e-01 -2.3947221123e-01 0.0000000000e+00
     vertex 8.0786174469e-01 -1.6234206901e-01 1.6234206901e-01
     vertex 9.0549005286e-01 -1.6929922236e-01 1.6929922236e-01
   endloop
 endfacet
 facet normal  9.2715854906e-02 9.1980980151e-01 -3.8125280235e-01
   outer loop
     vertex 9.0549005286e-01 -2.3947221123e-01 0.0000000000e+00
     vertex 8.0786174469e-01 -2.2963138105e-01 0.0000000000e+00
     vertex 8.0786174469e-01 -1.6234206901e-01 1.6234206901e-01
   endloop
 endfacet
 facet normal  8.0787081143e-02 9.2076940897e-01 -3.8165055092e-01
   outer loop
     vertex 8.0786174469e-01 -2.2963138105e-01 0.0000000000e+00
     vertex 6.6696530618e-01 -1.5360248243e-01 1.5360248243e-01
     vertex 8.0786174469e-01 -1.6234206901e-01 1.6234206901e-01
   endloop
 endfacet
 facet normal  8.0787081143e-02 9.2076940897e-01 -3.8165055092e-01
   outer loop
     vertex 8.0786174469e-01 -2.2963138105e-01 0.0000000000e+00
     vertex 6.6696530618e-01 -2.1726931526e-01 0.0000000000e+00
     vertex 6.6696530618e-01 -1.5360248243e-01 1.5360248243e-01
   endloop
 endfacet
 facet normal  6.1865264283e-02 9.2201941378e-01 -3.8216866655e-01
   outer loop
     vertex 6.6696530618e-01 -2.1726931526e-01 0.0000000000e+00
     vertex 4.9469990917e-01 -1.4543092767e-01 1.4543092767e-01
     vertex 6.6696530618e-01 -1.5360248243e-01 1.5360248243e-01
   endloop
 endfacet
 facet normal  6.1865264283e-02 9.2201941378e-01 -3.8216866655e-01
   outer loop
     vertex 6.6696530618e-01 -2.1726931526e-01 0.0000000000e+00
     vertex 4.9469990917e-01 -2.0571072533e-01 0.0000000000e+00
     vertex 4.9469990917e-01 -1.4543092767e-01 1.4543092767e-01
   endloop
 endfacet
 facet normal  3.0142363150e-02 9.2336916709e-01 -3.8272812703e-01
   outer loop
     vertex 4.9469990917e-01 -2.0571072533e-01 0.0000000000e+00
     vertex 3.2214805739e-01 -2.0007796136e-01 0.0000000000e+00
     vertex 4.9469990917e-01 -1.4543092767e-01 1.4543092767e-01
   endloop
 endfacet
 facet normal  3.0142363150e-02 9.2336916709e-01 -3.8272812703e-01
   outer loop
     vertex 4.9469990917e-01 -1.4543092767e-01 1.4543092767e-01
     vertex 3.2214805739e-01 -2.0007796136e-01 0.0000000000e+00
     vertex 3.2214805739e-01 -1.4144874303e-01 1.4144874303e-01
   endloop
 endfacet
 facet normal  -2.0668207589e-02 9.2359159148e-01 -3.8282031992e-01
   outer loop
     vertex 3.2214805739e-01 -2.0007796136e-01 0.0000000000e+00
     vertex 1.8077108286e-01 -2.0324170676e-01 0.0000000000e+00
     vertex 3.2214805739e-01 -1.4144874303e-01 1.4144874303e-01
   endloop
 endfacet
 facet normal  -2.0668207589e-02 9.2359159148e-01 -3.8282031992e-01
   outer loop
     vertex 3.2214805739e-01 -1.4144874303e-01 1.4144874303e-01
     vertex 1.8077108286e-01 -2.0324170676e-01 0.0000000000e+00
     vertex 1.8077108286e-01 -1.4368541022e-01 1.4368541022e-01
   endloop
 endfacet
 facet normal  -9.7142173239e-02 9.1941987645e-01 -3.8109118196e-01
   outer loop
     vertex 1.8077108286e-01 -2.0324170676e-01 0.0000000000e+00
     vertex 8.3233162389e-02 -2.1354716764e-01 0.0000000000e+00
     vertex 1.8077108286e-01 -1.4368541022e-01 1.4368541022e-01
   endloop
 endfacet
 facet normal  -9.7142173239e-02 9.1941987645e-01 -3.8109118196e-01
   outer loop
     vertex 1.8077108286e-01 -1.4368541022e-01 1.4368541022e-01
     vertex 8.3233162389e-02 -2.1354716764e-01 0.0000000000e+00
     vertex 8.3233162389e-02 -1.5097104267e-01 1.5097104267e-01
   endloop
 endfacet
 facet normal  -2.2666823106e-01 8.9974457084e-01 -3.7293594662e-01
   outer loop
     vertex 8.3233162389e-02 -2.1354716764e-01 0.0000000000e+00
     vertex 2.4681659684e-02 -2.2829776017e-01 0.0000000000e+00
     vertex 8.3233162389e-02 -1.5097104267e-01 1.5097104267e-01
   endloop
 endfacet
 facet normal  -2.2666823106e-01 8.9974457084e-01 -3.7293594662e-01
   outer loop
     vertex 8.3233162389e-02 -1.5097104267e-01 1.5097104267e-01
     vertex 2.4681659684e-02 -2.2829776017e-01 0.0000000000e+00
     vertex 2.4681659684e-02 -1.6139924155e-01 1.6139924155e-01
   endloop
 endfacet
 facet normal  -6.3048730058e-01 7.1704455906e-01 -2.9720845234e-01
   outer loop
     vertex 2.4681659684e-02 -2.2829776017e-01 0.0000000000e+00
     vertex 0.0000000000e+00 -2.5000000000e-01 0.0000000000e+00
     vertex 2.4681659684e-02 -1.6139924155e-01 1.6139924155e-01
   endloop
 endfacet
 facet normal  -6.3048730058e-01 7.1704455906e-01 -2.9720845234e-01
   outer loop
     vertex 2.4681659684e-02 -1.6139924155e-01 1.6139924155e-01
     vertex 0.0000000000e+00 -2.5000000000e-01 0.0000000000e+00
     vertex 0.0000000000e+00 -1.7674203355e-01 1.7674203355e-01
   endloop
 endfacet
 facet normal  -6.3048730058e-01 -7.1704455906e-01 2.9720845234e-01
   outer loop
     vertex 0.0000000000e+00 -2.5000000000e-01 0.0000000000e+00
     vertex 2.4681659684e-02 -1.9208482554e-01 1.9208482554e-01
     vertex 0.0000000000e+00 -1.7674203355e-01 1.7674203355e-01
   endloop
 endfacet
 facet normal  -6.3048730058e-01 -7.1704455906e-01 2.9720845234e-01
   outer loop
     vertex 0.0000000000e+00 -2.5000000000e-01 0.0000000000e+00
     vertex 2.4681659684e-02 -2.7170223983e-01 0.0000000000e+00
     vertex 2.4681659684e-02 -1.9208482554e-01 1.9208482554e-01
   endloop
 endfacet
 facet normal  -2.2666823106e-01 -8.9974457084e-01 3.7293594662e-01
   outer loop
     vertex 2.4681659684e-02 -2.7170223983e-01 0.0000000000e+00
     vertex 8.3233162389e-02 -2.0251302442e-01 2.0251302442e-01
     vertex 2.4681659684e-02 -1.9208482554e-01 1.9208482554e-01
   endloop
 endfacet
 facet normal  -2.2666823106e-01 -8.9974457084e-01 3.7293594662e-01
   outer loop
     vertex 2.4681659684e-02 -2.7170223983e-01 0.0000000000e+00
     vertex 8.3233162389e-02 -2.8645283236e-01 0.0000000000e+00
     vertex 8.3233162389e-02 -2.0251302442e-01 2.0251302442e-01
   endloop
 endfacet
 facet normal  -9.7142173239e-02 -9.1941987645e-01 3.8109118196e-01
   outer loop
     vertex 8.3233162389e-02 -2.8645283236e-01 0.0000000000e+00
     vertex 1.8077108286e-01 -2.0979865687e-01 2.0979865687e-01
     vertex 8.3233162389e-02 -2.0251302442e-01 2.0251302442e-01
   endloop
 endfacet
 facet normal  -9.7142173239e-02 -9.1941987645e-01 3.8109118196e-01
   outer loop
     vertex 8.3233162389e-02 -2.8645283236e-01 0.0000000000e+00
     vertex 1.8077108286e-01 -2.9675829324e-01 0.0000000000e+00
     vertex 1.8077108286e-01 -2.0979865687e-01 2.0979865687e-01
   endloop
 endfacet
 facet normal  -2.0668207589e-02 -9.2359159148e-01 3.8282031992e-01
   outer loop
     vertex 1.8077108286e-01 -2.9675829324e-01 0.0000000000e+00
     vertex 3.2214805739e-01 -2.1203532406e-01 2.1203532406e-01
     vertex 1.8077108286e-01 -2.0979865687e-01 2.0979865687e-01
   endloop
 endfacet
 facet normal  -2.0668207589e-02 -9.2359159148e-01 3.8282031992e-01
   outer loop
     vertex 1.8077108286e-01 -2.9675829324e-01 0.0000000000e+00
     vertex 3.2214805739e-01 -2.9992203864e-01 0.0000000000e+00
     vertex 3.2214805739e-01 -2.1203532406e-01 2.1203532406e-01
   endloop
 endfacet
 facet normal  3.0142363150e-02 -9.2336916709e-01 3.8272812703e-01
   outer loop
     vertex 3.2214805739e-01 -2.9992203864e-01 0.0000000000e+00
     vertex 4.9469990917e-01 -2.0805313943e-01 2.0805313943e-01
     vertex 3.2214805739e-01 -2.1203532406e-01 2.1203532406e-01
   endloop
 endfacet
 facet normal  3.0142363150e-02 -9.2336916709e-01 3.8272812703e-01
   outer loop
     vertex 3.2214805739e-01 -2.9992203864e-01 0.0000000000e+00
     vertex 4.9469990917e-01 -2.9428927467e-01 0.0000000000e+00
     vertex 4.9469990917e-01 -2.0805313943e-01 2.0805313943e-01
   endloop
 endfacet
 facet normal  6.1865264283e-02 -9.2201941378e-01 3.8216866655e-01
   outer loop
     vertex 4.9469990917e-01 -2.9428927467e-01 0.0000000000e+00
     vertex 6.6696530618e-01 -2.8273068474e-01 0.0000000000e+00
     vertex 4.9469990917e-01 -2.0805313943e-01 2.0805313943e-01
   endloop
 endfacet
 facet normal  6.1865264283e-02 -9.2201941378e-01 3.8216866655e-01
   outer loop
     vertex 4.9469990917e-01 -2.0805313943e-01 2.0805313943e-01
     vertex 6.6696530618e-01 -2.8273068474e-01 0.0000000000e+00
     vertex 6.6696530618e-01 -1.9988158467e-01 1.9988158467e-01
   endloop
 endfacet
 facet normal  8.0787081143e-02 -9.2076940897e-01 3.8165055092e-01
   outer loop
     vertex 6.6696530618e-01 -2.8273068474e-01 0.0000000000e+00
     vertex 8.0786174469e-01 -2.7036861895e-01 0.0000000000e+00
     vertex 6.6696530618e-01 -1.9988158467e-01 1.9988158467e-01
   endloop
 endfacet
 facet normal  8.0787081143e-02 -9.2076940897e-01 3.8165055092e-01
   outer loop
     vertex 6.6696530618e-01 -1.9988158467e-01 1.9988158467e-01
     vertex 8.0786174469e-01 -2.7036861895e-01 0.0000000000e+00
     vertex 8.0786174469e-01 -1.9114199808e-01 1.9114199808e-01
   endloop
 endfacet
 facet normal  9.2715854906e-02 -9.1980980151e-01 3.8125280235e-01
   outer loop
     vertex 8.0786174469e-01 -2.7036861895e-01 0.0000000000e+00
     vertex 9.0549005286e-01 -2.6052778877e-01 0.0000000000e+00
     vertex 8.0786174469e-01 -1.9114199808e-01 1.9114199808e-01
   endloop
 endfacet
 facet normal  9.2715854906e-02 -9.1980980151e-01 3.8125280235e-01
   outer loop
     vertex 8.0786174469e-01 -1.9114199808e-01 1.9114199808e-01
     vertex 9.0549005286e-01 -2.6052778877e-01 0.0000000000e+00
     vertex 9.0549005286e-01 -1.8418484473e-01 1.8418484473e-01
   endloop
 endfacet
 facet normal  1.0055427886e-01 -9.1910676647e-01 3.8096140072e-01
   outer loop
     vertex 9.0549005286e-01 -2.6052778877e-01 0.0000000000e+00
     vertex 9.6561709246e-01 -2.5394962905e-01 0.0000000000e+00
     vertex 9.0549005286e-01 -1.8418484473e-01 1.8418484473e-01
   endloop
 endfacet
 facet normal  1.0055427886e-01 -9.1910676647e-01 3.8096140072e-01
   outer loop
     vertex 9.0549005286e-01 -1.8418484473e-01 1.8418484473e-01
     vertex 9.6561709246e-01 -2.5394962905e-01 0.0000000000e+00
     vertex 9.6561709246e-01 -1.7953429543e-01 1.7953429543e-01
   endloop
 endfacet
 facet normal  1.0552487650e-01 -9.1863109773e-01 3.8076424035e-01
   outer loop
     vertex 9.6561709246e-01 -2.5394962905e-01 0.0000000000e+00
     vertex 1.0000000000e+00 -2.5000000000e-01 0.0000000000e+00
     vertex 9.6561709246e-01 -1.7953429543e-01 1.7953429543e-01
   endloop
 endfacet
 facet normal  1.0552487650e-01 -9.1863109773e-01 3.8076424035e-01
   outer loop
     vertex 9.6561709246e-01 -1.7953429543e-01 1.7953429543e-01
     vertex 1.0000000000e+00 -2.5000000000e-01 0.0000000000e+00
     vertex 1.0000000000e+00 -1.7674203355e-01 1.7674203355e-01
   endloop
 endfacet
 facet normal  1.0552487650e-01 3.8076424035e-01 -9.1863109773e-01
   outer loop
     vertex 1.0000000000e+00 -1.7674203355e-01 1.7674203355e-01
     vertex 9.6561709246e-01 0.0000000000e+00 2.4605037095e-01
     vertex 1.0000000000e+00 0.0000000000e+00 2.5000000000e-01
   endloop
 endfacet
 facet normal  1.0552487650e-01 3.8076424035e-01 -9.1863109773e-01
   outer loop
     vertex 1.0000000000e+00 -1.7674203355e-01 1.7674203355e-01
     vertex 9.6561709246e-01 -1.7394977166e-01 1.7394977166e-01
     vertex 9.6561709246e-01 0.0000000000e+00 2.4605037095e-01
   endloop
 endfacet
 facet normal  1.0055427886e-01 3.8096140072e-01 -9.1910676647e-01
   outer loop
     vertex 9.6561709246e-01 -1.7394977166e-01 1.7394977166e-01
     vertex 9.0549005286e-01 0.0000000000e+00 2.3947221123e-01
     vertex 9.6561709246e-01 0.0000000000e+00 2.4605037095e-01
   endloop
 endfacet
 facet normal  1.0055427886e-01 3.8096140072e-01 -9.1910676647e-01
   outer loop
     vertex 9.6561709246e-01 -1.7394977166e-01 1.7394977166e-01
     vertex 9.0549005286e-01 -1.6929922236e-01 1.6929922236e-01
     vertex 9.0549005286e-01 0.0000000000e+00 2.3947221123e-01
   endloop
 endfacet
 facet normal  9.2715854906e-02 3.8125280235e-01 -9.1980980151e-01
   outer loop
     vertex 9.0549005286e-01 -1.6929922236e-01 1.6929922236e-01
     vertex 8.0786174469e-01 0.0000000000e+00 2.2963138105e-01
     vertex 9.0549005286e-01 0.0000000000e+00 2.3947221123e-01
   endloop
 endfacet
 facet normal  9.2715854906e-02 3.8125280235e-01 -9.1980980151e-01
   outer loop
     vertex 9.0549005286e-01 -1.6929922236e-01 1.6929922236e-01
     vertex 8.0786174469e-01 -1.6234206901e-01 1.6234206901e-01
     vertex 8.0786174469e-01 0.0000000000e+00 2.2963138105e-01
   endloop
 endfacet
 facet normal  8.0787081143e-02 3.8165055092e-01 -9.2076940897e-01
   outer loop
     vertex 8.0786174469e-01 -1.6234206901e-01 1.6234206901e-01
     vertex 6.6696530618e-01 0.0000000000e+00 2.1726931526e-01
     vertex 8.0786174469e-01 0.0000000000e+00 2.2963138105e-01
   endloop
 endfacet
 facet normal  8.0787081143e-02 3.8165055092e-01 -9.2076940897e-01
   outer loop
     vertex 8.0786174469e-01 -1.6234206901e-01 1.6234206901e-01
     vertex 6.6696530618e-01 -1.5360248243e-01 1.5360248243e-01
     vertex 6.6696530618e-01 0.0000000000e+00 2.1726931526e-01
   endloop
 endfacet
 facet normal  6.1865264283e-02 3.8216866655e-01 -9.2201941378e-01
   outer loop
     vertex 6.6696530618e-01 -1.5360248243e-01 1.5360248243e-01
     vertex 4.9469990917e-01 0.0000000000e+00 2.0571072533e-01
     vertex 6.6696530618e-01 0.0000000000e+00 2.1726931526e-01
   endloop
 endfacet
 facet normal  6.1865264283e-02 3.8216866655e-01 -9.2201941378e-01
   outer loop
     vertex 6.6696530618e-01 -1.5360248243e-01 1.5360248243e-01
     vertex 4.9469990917e-01 -1.4543092767e-01 1.4543092767e-01
     vertex 4.9469990917e-01 0.0000000000e+00 2.0571072533e-01
   endloop
 endfacet
 facet normal  3.0142363150e-02 3.8272812703e-01 -9.2336916709e-01
   outer loop
     vertex 4.9469990917e-01 -1.4543092767e-01 1.4543092767e-01
     vertex 3.2214805739e-01 -1.4144874303e-01 1.4144874303e-01
     vertex 4.9469990917e-01 0.0000000000e+00 2.0571072533e-01
   endloop
 endfacet
 facet normal  3.0142363150e-02 3.8272812703e-01 -9.2336916709e-01
   outer loop
     vertex 4.9469990917e-01 0.0000000000e+00 2.0571072533e-01
     vertex 3.2214805739e-01 -1.4144874303e-01 1.4144874303e-01
     vertex 3.2214805739e-01 0.0000000000e+00 2.0007796136e-01
   endloop
 endfacet
 facet normal  -2.0668207589e-02 3.8282031992e-01 -9.2359159148e-01
   outer loop
     vertex 3.2214805739e-01 -1.4144874303e-01 1.4144874303e-01
     vertex 1.8077108286e-01 -1.4368541022e-01 1.4368541022e-01
     vertex 3.2214805739e-01 0.0000000000e+00 2.0007796136e-01
   endloop
 endfacet
 facet normal  -2.0668207589e-02 3.8282031992e-01 -9.2359159148e-01
   outer loop
     vertex 3.2214805739e-01 0.0000000000e+00 2.0007796136e-01
     vertex 1.8077108286e-01 -1.4368541022e-01 1.4368541022e-01
     vertex 1.8077108286e-01 0.0000000000e+00 2.0324170676e-01
   endloop
 endfacet
 facet normal  -9.7142173239e-02 3.8109118196e-01 -9.1941987645e-01
   outer loop
     vertex 1.8077108286e-01 -1.4368541022e-01 1.4368541022e-01
     vertex 8.3233162389e-02 -1.5097104267e-01 1.5097104267e-01
     vertex 1.8077108286e-01 0.0000000000e+00 2.0324170676e-01
   endloop
 endfacet
 facet normal  -9.7142173239e-02 3.8109118196e-01 -9.1941987645e-01
   outer loop
     vertex 1.8077108286e-01 0.0000000000e+00 2.0324170676e-01
     vertex 8.3233162389e-02 -1.5097104267e-01 1.5097104267e-01
     vertex 8.3233162389e-02 0.0000000000e+00 2.1354716764e-01
   endloop
 endfacet
 facet normal  -2.2666823106e-01 3.7293594662e-01 -8.9974457084e-01
   outer loop
     vertex 8.3233162389e-02 -1.5097104267e-01 1.5097104267e-01
     vertex 2.4681659684e-02 -1.6139924155e-01 1.6139924155e-01
     vertex 8.3233162389e-02 0.0000000000e+00 2.1354716764e-01
   endloop
 endfacet
 facet normal  -2.2666823106e-01 3.7293594662e-01 -8.9974457084e-01
   outer loop
     vertex 8.3233162389e-02 0.0000000000e+00 2.1354716764e-01
     vertex 2.4681659684e-02 -1.6139924155e-01 1.6139924155e-01
     vertex 2.4681659684e-02 0.0000000000e+00 2.2829776017e-01
   endloop
 endfacet
 facet normal  -6.3048730058e-01 2.9720845234e-01 -7.1704455906e-01
   outer loop
     vertex 2.4681659684e-02 -1.6139924155e-01 1.6139924155e-01
     vertex 0.0000000000e+00 -1.7674203355e-01 1.7674203355e-01
     vertex 2.4681659684e-02 0.0000000000e+00 2.2829776017e-01
   endloop
 endfacet
 facet normal  -6.3048730058e-01 2.9720845234e-01 -7.1704455906e-01
   outer loop
     vertex 2.4681659684e-02 0.0000000000e+00 2.2829776017e-01
     vertex 0.0000000000e+00 -1.7674203355e-01 1.7674203355e-01
     vertex 0.0000000000e+00 0.0000000000e+00 2.5000000000e-01
   endloop
 endfacet
 facet normal  -6.3048730058e-01 -2.9720845234e-01 7.1704455906e-01
   outer loop
     vertex 0.0000000000e+00 -1.7674203355e-01 1.7674203355e-01
     vertex 2.4681659684e-02 0.0000000000e+00 2.7170223983e-01
     vertex 0.0000000000e+00 0.0000000000e+00 2.5000000000e-01
   endloop
 endfacet
 facet normal  -6.3048730058e-01 -2.9720845234e-01 7.1704455906e-01
   outer loop
     vertex 0.0000000000e+00 -1.7674203355e-01 1.7674203355e-01
     vertex 2.4681659684e-02 -1.9208482554e-01 1.9208482554e-01
     vertex 2.4681659684e-02 0.0000000000e+00 2.7170223983e-01
   endloop
 endfacet
 facet normal  -2.2666823106e-01 -3.7293594662e-01 8.9974457084e-01
   outer loop
     vertex 2.4681659684e-02 -1.9208482554e-01 1.9208482554e-01
     vertex 8.3233162389e-02 0.0000000000e+00 2.8645283236e-01
     vertex 2.4681659684e-02 0.0000000000e+00 2.7170223983e-01
   endloop
 endfacet
 facet normal  -2.2666823106e-01 -3.7293594662e-01 8.9974457084e-01
   outer loop
     vertex 2.4681659684e-02 -1.9208482554e-01 1.9208482554e-01
     vertex 8.3233162389e-02 -2.0251302442e-01 2.0251302442e-01
     vertex 8.3233162389e-02 0.0000000000e+00 2.8645283236e-01
   endloop
 endfacet
 facet normal  -9.7142173239e-02 -3.8109118196e-01 9.1941987645e-01
   outer loop
     vertex 8.3233162389e-02 -2.0251302442e-01 2.0251302442e-01
     vertex 1.8077108286e-01 0.0000000000e+00 2.9675829324e-01
     vertex 8.3233162389e-02 0.0000000000e+00 2.8645283236e-01
   endloop
 endfacet
 facet normal  -9.7142173239e-02 -3.8109118196e-01 9.1941987645e-01
   outer loop
     vertex 8.3233162389e-02 -2.0251302442e-01 2.0251302442e-01
     vertex 1.8077108286e-01 -2.0979865687e-01 2.0979865687e-01
     vertex 1.8077108286e-01 0.0000000000e+00 2.9675829324e-01
   endloop
 endfacet
 facet normal  -2.0668207589e-02 -3.8282031992e-01 9.2359159148e-01
   outer loop
     vertex 1.8077108286e-01 -2.0979865687e-01 2.0979865687e-01
     vertex 3.2214805739e-01 0.0000000000e+00 2.9992203864e-01
     vertex 1.8077108286e-01 0.0000000000e+00 2.9675829324e-01
   endloop
 endfacet
 facet normal  -2.0668207589e-02 -3.8282031992e-01 9.2359159148e-01
   outer loop
     vertex 1.8077108286e-01 -2.0979865687e-01 2.0979865687e-01
     vertex 3.2214805739e-01 -2.1203532406e-01 2.1203532406e-01
     vertex 3.2214805739e-01 0.0000000000e+00 2.9992203864e-01
   endloop
 endfacet
 facet normal  3.0142363150e-02 -3.8272812703e-01 9.2336916709e-01
   outer loop
     vertex 3.2214805739e-01 -2.1203532406e-01 2.1203532406e-01
     vertex 4.9469990917e-01 0.0000000000e+00 2.9428927467e-01
     vertex 3.2214805739e-01 0.0000000000e+00 2.9992203864e-01
   endloop
 endfacet
 facet normal  3.0142363150e-02 -3.8272812703e-01 9.2336916709e-01
   outer loop
     vertex 3.2214805739e-01 -2.1203532406e-01 2.1203532406e-01
     vertex 4.9469990917e-01 -2.0805313943e-01 2.0805313943e-01
     vertex 4.9469990917e-01 0.0000000000e+00 2.9428927467e-01
   endloop
 endfacet
 facet normal  6.1865264283e-02 -3.8216866655e-01 9.2201941378e-01
   outer loop
     vertex 4.9469990917e-01 -2.0805313943e-01 2.0805313943e-01
     vertex 6.6696530618e-01 -1.9988158467e-01 1.9988158467e-01
     vertex 4.9469990917e-01 0.0000000000e+00 2.9428927467e-01
   endloop
 endfacet
 facet normal  6.1865264283e-02 -3.8216866655e-01 9.2201941378e-01
   outer loop
     vertex 4.9469990917e-01 0.0000000000e+00 2.9428927467e-01
     vertex 6.6696530618e-01 -1.9988158467e-01 1.9988158467e-01
     vertex 6.6696530618e-01 0.0000000000e+00 2.8273068474e-01
   endloop
 endfacet
 facet normal  8.0787081143e-02 -3.8165055092e-01 9.2076940897e-01
   outer loop
     vertex 6.6696530618e-01 -1.9988158467e-01 1.9988158467e-01
     vertex 8.0786174469e-01 -1.9114199808e-01 1.9114199808e-01
     vertex 6.6696530618e-01 0.0000000000e+00 2.8273068474e-01
   endloop
 endfacet
 facet normal  8.0787081143e-02 -3.8165055092e-01 9.2076940897e-01
   outer loop
     vertex 6.6696530618e-01 0.0000000000e+00 2.8273068474e-01
     vertex 8.0786174469e-01 -1.9114199808e-01 1.9114199808e-01
     vertex 8.0786174469e-01 0.0000000000e+00 2.7036861895e-01
   endloop
 endfacet
 facet normal  9.2715854906e-02 -3.8125280235e-01 9.1980980151e-01
   outer loop
     vertex 8.0786174469e-01 -1.9114199808e-01 1.9114199808e-01
     vertex 9.0549005286e-01 -1.8418484473e-01 1.8418484473e-01
     vertex 8.0786174469e-01 0.0000000000e+00 2.7036861895e-01
   endloop
 endfacet
 facet normal  9.2715854906e-02 -3.8125280235e-01 9.1980980151e-01
   outer loop
     vertex 8.0786174469e-01 0.0000000000e+00 2.7036861895e-01
     vertex 9.0549005286e-01 -1.8418484473e-01 1.8418484473e-01
     vertex 9.0549005286e-01 0.0000000000e+00 2.6052778877e-01
   endloop
 endfacet
 facet normal  1.0055427886e-01 -3.8096140072e-01 9.1910676647e-01
   outer loop
     vertex 9.0549005286e-01 -1.8418484473e-01 1.8418484473e-01
     vertex 9.6561709246e-01 -1.7953429543e-01 1.7953429543e-01
     vertex 9.0549005286e-01 0.0000000000e+00 2.6052778877e-01
   endloop
 endfacet
 facet normal  1.0055427886e-01 -3.8096140072e-01 9.1910676647e-01
   outer loop
     vertex 9.0549005286e-01 0.0000000000e+00 2.6052778877e-01
     vertex 9.6561709246e-01 -1.7953429543e-01 1.7953429543e-01
     vertex 9.6561709246e-01 0.0000000000e+00 2.5394962905e-01
   endloop
 endfacet
 facet normal  1.0552487650e-01 -3.8076424035e-01 9.1863109773e-01
   outer loop
     vertex 9.6561709246e-01 -1.7953429543e-01 1.7953429543e-01
     vertex 1.0000000000e+00 -1.7674203355e-01 1.7674203355e-01
     vertex 9.6561709246e-01 0.0000000000e+00 2.5394962905e-01
   endloop
 endfacet
 facet normal  1.0552487650e-01 -3.8076424035e-01 9.1863109773e-01
   outer loop
     vertex 9.6561709246e-01 0.0000000000e+00 2.5394962905e-01
     vertex 1.0000000000e+00 -1.7674203355e-01 1.7674203355e-01
     vertex 1.0000000000e+00 0.0000000000e+00 2.5000000000e-01
   endloop
 endfacet
 facet normal  1.0552487650e-01 -3.8076424035e-01 -9.1863109773e-01
   outer loop
     vertex 1.0000000000e+00 0.0000000000e+00 2.5000000000e-01
     vertex 9.6561709246e-01 1.7394977166e-01 1.7394977166e-01
     vertex 1.0000000000e+00 1.7674203355e-01 1.7674203355e-01
   endloop
 endfacet
 facet normal  1.0552487650e-01 -3.8076424035e-01 -9.1863109773e-01
   outer loop
     vertex 1.0000000000e+00 0.0000000000e+00 2.5000000000e-01
     vertex 9.6561709246e-01 0.0000000000e+00 2.4605037095e-01
     vertex 9.6561709246e-01 1.7394977166e-01 1.7394977166e-01
   endloop
 endfacet
 facet normal  1.0055427886e-01 -3.8096140072e-01 -9.1910676647e-01
   outer loop
     vertex 9.6561709246e-01 0.0000000000e+00 2.4605037095e-01
     vertex 9.0549005286e-01 1.6929922236e-01 1.6929922236e-01
     vertex 9.6561709246e-01 1.7394977166e-01 1.7394977166e-01
   endloop
 endfacet
 facet normal  1.0055427886e-01 -3.8096140072e-01 -9.1910676647e-01
   outer loop
     vertex 9.6561709246e-01 0.0000000000e+00 2.4605037095e-01
     vertex 9.0549005286e-01 0.0000000000e+00 2.3947221123e-01
     vertex 9.0549005286e-01 1.6929922236e-01 1.6929922236e-01
   endloop
 endfacet
 facet normal  9.2715854906e-02 -3.8125280235e-01 -9.1980980151e-01
   outer loop
     vertex 9.0549005286e-01 0.0000000000e+00 2.3947221123e-01
     vertex 8.0786174469e-01 1.6234206901e-01 1.6234206901e-01
     vertex 9.0549005286e-01 1.6929922236e-01 1.6929922236e-01
   endloop
 endfacet
 facet normal  9.2715854906e-02 -3.8125280235e-01 -9.1980980151e-01
   outer loop
     vertex 9.0549005286e-01 0.0000000000e+00 2.3947221123e-01
     vertex 8.0786174469e-01 0.0000000000e+00 2.2963138105e-01
     vertex 8.0786174469e-01 1.6234206901e-01 1.6234206901e-01
   endloop
 endfacet
 facet normal  8.0787081143e-02 -3.8165055092e-01 -9.2076940897e-01
   outer loop
     vertex 8.0786174469e-01 0.0000000000e+00 2.2963138105e-01
     vertex 6.6696530618e-01 1.5360248243e-01 1.5360248243e-01
     vertex 8.0786174469e-01 1.6234206901e-01 1.6234206901e-01
   endloop
 endfacet
 facet normal  8.0787081143e-02 -3.8165055092e-01 -9.2076940897e-01
   outer loop
     vertex 8.0786174469e-01 0.0000000000e+00 2.2963138105e-01
     vertex 6.6696530618e-01 0.0000000000e+00 2.1726931526e-01
     vertex 6.6696530618e-01 1.5360248243e-01 1.5360248243e-01
   endloop
 endfacet
 facet normal  6.1865264283e-02 -3.8216866655e-01 -9.2201941378e-01
   outer loop
     vertex 6.6696530618e-01 0.0000000000e+00 2.1726931526e-01
     vertex 4.9469990917e-01 1.4543092767e-01 1.4543092767e-01
     vertex 6.6696530618e-01 1.5360248243e-01 1.5360248243e-01
   endloop
 endfacet
 facet normal  6.1865264283e-02 -3.8216866655e-01 -9.2201941378e-01
   outer loop
     vertex 6.6696530618e-01 0.0000000000e+00 2.1726931526e-01
     vertex 4.9469990917e-01 0.0000000000e+00 2.0571072533e-01
     vertex 4.9469990917e-01 1.4543092767e-01 1.4543092767e-01
   endloop
 endfacet
 facet normal  3.0142363150e-02 -3.8272812703e-01 -9.2336916709e-01
   outer loop
     vertex 4.9469990917e-01 0.0000000000e+00 2.0571072533e-01
     vertex 3.2214805739e-01 0.0000000000e+00 2.0007796136e-01
     vertex 4.9469990917e-01 1.4543092767e-01 1.4543092767e-01
   endloop
 endfacet
 facet normal  3.0142363150e-02 -3.8272812703e-01 -9.2336916709e-01
   outer loop
     vertex 4.9469990917e-01 1.4543092767e-01 1.4543092767e-01
     vertex 3.2214805739e-01 0.0000000000e+00 2.0007796136e-01
     vertex 3.2214805739e-01 1.4144874303e-01 1.4144874303e-01
   endloop
 endfacet
 facet normal  -2.0668207589e-02 -3.8282031992e-01 -9.2359159148e-01
   outer loop
     vertex 3.2214805739e-01 0.0000000000e+00 2.0007796136e-01
     vertex 1.8077108286e-01 0.0000000000e+00 2.0324170676e-01
     vertex 3.2214805739e-01 1.4144874303e-01 1.4144874303e-01
   endloop
 endfacet
 facet normal  -2.0668207589e-02 -3.8282031992e-01 -9.2359159148e-01
   outer loop
     vertex 3.2214805739e-01 1.4144874303e-01 1.4144874303e-01
     vertex 1.8077108286e-01 0.0000000000e+00 2.0324170676e-01
     vertex 1.8077108286e-01 1.4368541022e-01 1.4368541022e-01
   endloop
 endfacet
 facet normal  -9.7142173239e-02 -3.8109118196e-01 -9.1941987645e-01
   outer loop
     vertex 1.8077108286e-01 0.0000000000e+00 2.0324170676e-01
     vertex 8.3233162389e-02 0.0000000000e+00 2.1354716764e-01
     vertex 1.8077108286e-01 1.4368541022e-01 1.4368541022e-01
   endloop
 endfacet
 facet normal  -9.7142173239e-02 -3.8109118196e-01 -9.1941987645e-01
   outer loop
     vertex 1.8077108286e-01 1.4368541022e-01 1.4368541022e-01
     vertex 8.3233162389e-02 0.0000000000e+00 2.1354716764e-01
     vertex 8.3233162389e-02 1.5097104267e-01 1.5097104267e-01
   endloop
 endfacet
 facet normal  -2.2666823106e-01 -3.7293594662e-01 -8.9974457084e-01
   outer loop
     vertex 8.3233162389e-02 0.0000000000e+00 2.1354716764e-01
     vertex 2.4681659684e-02 0.0000000000e+00 2.2829776017e-01
     vertex 8.3233162389e-02 1.5097104267e-01 1.5097104267e-01
   endloop
 endfacet
 facet normal  -2.2666823106e-01 -3.7293594662e-01 -8.9974457084e-01
   outer loop
     vertex 8.3233162389e-02 1.5097104267e-01 1.5097104267e-01
     vertex 2.4681659684e-02 0.0000000000e+00 2.2829776017e-01
     vertex 2.4681659684e-02 1.6139924155e-01 1.6139924155e-01
   endloop
 endfacet
 facet normal  -6.3048730058e-01 -2.9720845234e-01 -7.1704455906e-01
   outer loop
     vertex 2.4681659684e-02 0.0000000000e+00 2.2829776017e-01
     vertex 0.0000000000e+00 0.0000000000e+00 2.5000000000e-01
     vertex 2.4681659684e-02 1.6139924155e-01 1.6139924155e-01
   endloop
 endfacet
 facet normal  -6.3048730058e-01 -2.9720845234e-01 -7.1704455906e-01
   outer loop
     vertex 2.4681659684e-02 1.6139924155e-01 1.6139924155e-01
     vertex 0.0000000000e+00 0.0000000000e+00 2.5000000000e-01
     vertex 0.0000000000e+00 1.7674203355e-01 1.7674203355e-01
   endloop
 endfacet
 facet normal  -6.3048730058e-01 2.9720845234e-01 7.1704455906e-01
   outer loop
     vertex 0.0000000000e+00 0.0000000000e+00 2.5000000000e-01
     vertex 2.4681659684e-02 1.9208482554e-01 1.9208482554e-01
     vertex 0.0000000000e+00 1.7674203355e-01 1.7674203355e-01
   endloop
 endfacet
 facet normal  -6.3048730058e-01 2.9720845234e-01 7.1704455906e-01
   outer loop
     vertex 0.0000000000e+00 0.0000000000e+00 2.5000000000e-01
     vertex 2.4681659684e-02 0.0000000000e+00 2.7170223983e-01
     vertex 2.4681659684e-02 1.9208482554e-01 1.9208482554e-01
   endloop
 endfacet
 facet normal  -2.2666823106e-01 3.7293594662e-01 8.9974457084e-01
   outer loop
     vertex 2.4681659684e-02 0.0000000000e+00 2.7170223983e-01
     vertex 8.3233162389e-02 2.0251302442e-01 2.0251302442e-01
     vertex 2.4681659684e-02 1.9208482554e-01 1.9208482554e-01
   endloop
 endfacet
 facet normal  -2.2666823106e-01 3.7293594662e-01 8.9974457084e-01
   outer loop
     vertex 2.4681659684e-02 0.0000000000e+00 2.7170223983e-01
     vertex 8.3233162389e-02 0.0000000000e+00 2.8645283236e-01
     vertex 8.3233162389e-02 2.0251302442e-01 2.0251302442e-01
   endloop
 endfacet
 facet normal  -9.7142173239e-02 3.8109118196e-01 9.1941987645e-01
   outer loop
     vertex 8.3233162389e-02 0.0000000000e+00 2.8645283236e-01
     vertex 1.8077108286e-01 2.0979865687e-01 2.0979865687e-01
     vertex 8.3233162389e-02 2.0251302442e-01 2.0251302442e-01
   endloop
 endfacet
 facet normal  -9.7142173239e-02 3.8109118196e-01 9.1941987645e-01
   outer loop
     vertex 8.3233162389e-02 0.0000000000e+00 2.8645283236e-01
     vertex 1.8077108286e-01 0.0000000000e+00 2.9675829324e-01
     vertex 1.8077108286e-01 2.0979865687e-01 2.0979865687e-01
   endloop
 endfacet
 facet normal  -2.0668207589e-02 3.8282031992e-01 9.2359159148e-01
   outer loop
     vertex 1.8077108286e-01 0.0000000000e+00 2.9675829324e-01
     vertex 3.2214805739e-01 2.1203532406e-01 2.1203532406e-01
     vertex 1.8077108286e-01 2.0979865687e-01 2.0979865687e-01
   endloop
 endfacet
 facet normal  -2.0668207589e-02 3.8282031992e-01 9.2359159148e-01
   outer loop
     vertex 1.8077108286e-01 0.0000000000e+00 2.9675829324e-01
     vertex 3.2214805739e-01 0.0000000000e+00 2.9992203864e-01
     vertex 3.2214805739e-01 2.1203532406e-01 2.1203532406e-01
   endloop
 endfacet
 facet normal  3.0142363150e-02 3.8272812703e-01 9.2336916709e-01
   outer loop
     vertex 3.2214805739e-01 0.0000000000e+00 2.9992203864e-01
     vertex 4.9469990917e-01 2.0805313943e-01 2.0805313943e-01
     vertex 3.2214805739e-01 2.1203532406e-01 2.1203532406e-01
   endloop
 endfacet
 facet normal  3.0142363150e-02 3.8272812703e-01 9.2336916709e-01
   outer loop
     vertex 3.2214805739e-01 0.0000000000e+00 2.9992203864e-01
     vertex 4.9469990917e-01 0.0000000000e+00 2.9428927467e-01
     vertex 4.9469990917e-01 2.0805313943e-01 2.0805313943e-01
   endloop
 endfacet
 facet normal  6.1865264283e-02 3.8216866655e-01 9.2201941378e-01
   outer loop
     vertex 4.9469990917e-01 0.0000000000e+00 2.9428927467e-01
     vertex 6.6696530618e-01 0.0000000000e+00 2.8273068474e-01
     vertex 4.9469990917e-01 2.0805313943e-01 2.0805313943e-01
   endloop
 endfacet
 facet normal  6.1865264283e-02 3.8216866655e-01 9.2201941378e-01
   outer loop
     vertex 4.9469990917e-01 2.0805313943e-01 2.0805313943e-01
     vertex 6.6696530618e-01 0.0000000000e+00 2.8273068474e-01
     vertex 6.6696530618e-01 1.9988158467e-01 1.9988158467e-01
   endloop
 endfacet
 facet normal  8.0787081143e-02 3.8165055092e-01 9.2076940897e-01
   outer loop
     vertex 6.6696530618e-01 0.0000000000e+00 2.8273068474e-01
     vertex 8.0786174469e-01 0.0000000000e+00 2.7036861895e-01
     vertex 6.6696530618e-01 1.9988158467e-01 1.9988158467e-01
   endloop
 endfacet
 facet normal  8.0787081143e-02 3.8165055092e-01 9.2076940897e-01
   outer loop
     vertex 6.6696530618e-01 1.9988158467e-01 1.9988158467e-01
     vertex 8.0786174469e-01 0.0000000000e+00 2.7036861895e-01
     vertex 8.0786174469e-01 1.9114199808e-01 1.9114199808e-01
   endloop
 endfacet
 facet normal  9.2715854906e-02 3.8125280235e-01 9.1980980151e-01
   outer loop
     vertex 8.0786174469e-01 0.0000000000e+00 2.7036861895e-01
     vertex 9.0549005286e-01 0.0000000000e+00 2.6052778877e-01
     vertex 8.0786174469e-01 1.9114199808e-01 1.9114199808e-01
   endloop
 endfacet
 facet normal  9.2715854906e-02 3.8125280235e-01 9.1980980151e-01
   outer loop
     vertex 8.0786174469e-01 1.9114199808e-01 1.9114199808e-01
     vertex 9.0549005286e-01 0.0000000000e+00 2.6052778877e-01
     vertex 9.0549005286e-01 1.8418484473e-01 1.8418484473e-01
   endloop
 endfacet
 facet normal  1.0055427886e-01 3.8096140072e-01 9.1910676647e-01
   outer loop
     vertex 9.0549005286e-01 0.0000000000e+00 2.6052778877e-01
     vertex 9.6561709246e-01 0.0000000000e+00 2.5394962905e-01
     vertex 9.0549005286e-01 1.8418484473e-01 1.8418484473e-01
   endloop
 endfacet
 facet normal  1.0055427886e-01 3.8096140072e-01 9.1910676647e-01
   outer loop
     vertex 9.0549005286e-01 1.8418484473e-01 1.8418484473e-01
     vertex 9.6561709246e-01 0.0000000000e+00 2.5394962905e-01
     vertex 9.6561709246e-01 1.7953429543e-01 1.7953429543e-01
   endloop
 endfacet
 facet normal  1.0552487650e-01 3.8076424035e-01 9.1863109773e-01
   outer loop
     vertex 9.6561709246e-01 0.0000000000e+00 2.5394962905e-01
     vertex 1.0000000000e+00 0.0000000000e+00 2.5000000000e-01
     vertex 9.6561709246e-01 1.7953429543e-01 1.7953429543e-01
   endloop
 endfacet
 facet normal  1.0552487650e-01 3.8076424035e-01 9.1863109773e-01
   outer loop
     vertex 9.6561709246e-01 1.7953429543e-01 1.7953429543e-01
     vertex 1.0000000000e+00 0.0000000000e+00 2.5000000000e-01
     vertex 1.0000000000e+00 1.7674203355e-01 1.7674203355e-01
   endloop
 endfacet
 facet normal  1.0552487650e-01 -9.1863109773e-01 -3.8076424035e-01
   outer loop
     vertex 1.0000000000e+00 1.7674203355e-01 1.7674203355e-01
     vertex 9.6561709246e-01 2.4605037095e-01 0.0000000000e+00
     vertex 1.0000000000e+00 2.5000000000e-01 0.0000000000e+00
   endloop
 endfacet
 facet normal  1.0552487650e-01 -9.1863109773e-01 -3.8076424035e-01
   outer loop
     vertex 1.0000000000e+00 1.7674203355e-01 1.7674203355e-01
     vertex 9.6561709246e-01 1.7394977166e-01 1.7394977166e-01
     vertex 9.6561709246e-01 2.4605037095e-01 0.0000000000e+00
   endloop
 endfacet
 facet normal  1.0055427886e-01 -9.1910676647e-01 -3.8096140072e-01
   outer loop
     vertex 9.6561709246e-01 1.7394977166e-01 1.7394977166e-01
     vertex 9.0549005286e-01 2.3947221123e-01 0.0000000000e+00
     vertex 9.6561709246e-01 2.4605037095e-01 0.0000000000e+00
   endloop
 endfacet
 facet normal  1.0055427886e-01 -9.1910676647e-01 -3.8096140072e-01
   outer loop
     vertex 9.6561709246e-01 1.7394977166e-01 1.7394977166e-01
     vertex 9.0549005286e-01 1.6929922236e-01 1.6929922236e-01
     vertex 9.0549005286e-01 2.3947221123e-01 0.0000000000e+00
   endloop
 endfacet
 facet normal  9.2715854906e-02 -9.1980980151e-01 -3.8125280235e-01
   outer loop
     vertex 9.0549005286e-01 1.6929922236e-01 1.6929922236e-01
     vertex 8.0786174469e-01 2.2963138105e-01 0.0000000000e+00
     vertex 9.0549005286e-01 2.3947221123e-01 0.0000000000e+00
   endloop
 endfacet
 facet normal  9.2715854906e-02 -9.1980980151e-01 -3.8125280235e-01
   outer loop
     vertex 9.0549005286e-01 1.6929922236e-01 1.6929922236e-01
     vertex 8.0786174469e-01 1.6234206901e-01 1.6234206901e-01
     vertex 8.0786174469e-01 2.2963138105e-01 0.0000000000e+00
   endloop
 endfacet
 facet normal  8.0787081143e-02 -9.2076940897e-01 -3.8165055092e-01
   outer loop
     vertex 8.0786174469e-01 1.6234206901e-01 1.6234206901e-01
     vertex 6.6696530618e-01 2.1726931526e-01 0.0000000000e+00
     vertex 8.0786174469e-01 2.2963138105e-01 0.0000000000e+00
   endloop
 endfacet
 facet normal  8.0787081143e-02 -9.2076940897e-01 -3.8165055092e-01
   outer loop
     vertex 8.0786174469e-01 1.6234206901e-01 1.6234206901e-01
     vertex 6.6696530618e-01 1.5360248243e-01 1.5360248243e-01
     vertex 6.6696530618e-01 2.1726931526e-01 0.0000000000e+00
   endloop
 endfacet
 facet normal  6.1865264283e-02 -9.2201941378e-01 -3.8216866655e-01
   outer loop
     vertex 6.6696530618e-01 1.5360248243e-01 1.5360248243e-01
     vertex 4.9469990917e-01 2.0571072533e-01 0.0000000000e+00
     vertex 6.6696530618e-01 2.1726931526e-01 0.0000000000e+00
   endloop
 endfacet
 facet normal  6.1865264283e-02 -9.2201941378e-01 -3.8216866655e-01
   outer loop
     vertex 6.6696530618e-01 1.5360248243e-01 1.5360248243e-01
     vertex 4.9469990917e-01 1.4543092767e-01 1.4543092767e-01
     vertex 4.9469990917e-01 2.0571072533e-01 0.0000000000e+00
   endloop
 endfacet
 facet normal  3.0142363150e-02 -9.2336916709e-01 -3.8272812703e-01
   outer loop
     vertex 4.9469990917e-01 1.4543092767e-01 1.4543092767e-01
     vertex 3.2214805739e-01 1.4144874303e-01 1.4144874303e-01
     vertex 4.9469990917e-01 2.0571072533e-01 0.0000000000e+00
   endloop
 endfacet
 facet normal  3.0142363150e-02 -9.2336916709e-01 -3.8272812703e-01
   outer loop
     vertex 4.9469990917e-01 2.0571072533e-01 0.0000000000e+00
     vertex 3.2214805739e-01 1.4144874303e-01 1.4144874303e-01
     vertex 3.2214805739e-01 2.0007796136e-01 0.0000000000e+00
   endloop
 endfacet
 facet normal  -2.0668207589e-02 -9.2359159148e-01 -3.8282031992e-01
   outer loop
     vertex 3.2214805739e-01 1.4144874303e-01 1.4144874303e-01
     vertex 1.8077108286e-01 1.4368541022e-01 1.4368541022e-01
     vertex 3.2214805739e-01 2.0007796136e-01 0.0000000000e+00
   endloop
 endfacet
 facet normal  -2.0668207589e-02 -9.2359159148e-01 -3.8282031992e-01
   outer loop
     vertex 3.2214805739e-01 2.0007796136e-01 0.0000000000e+00
     vertex 1.8077108286e-01 1.4368541022e-01 1.4368541022e-01
     vertex 1.8077108286e-01 2.0324170676e-01 0.0000000000e+00
   endloop
 endfacet
 facet normal  -9.7142173239e-02 -9.1941987645e-01 -3.8109118196e-01
   outer loop
     vertex 1.8077108286e-01 1.4368541022e-01 1.4368541022e-01
     vertex 8.3233162389e-02 1.5097104267e-01 1.5097104267e-01
     vertex 1.8077108286e-01 2.0324170676e-01 0.0000000000e+00
   endloop
 endfacet
 facet normal  -9.7142173239e-02 -9.1941987645e-01 -3.8109118196e-01
   outer loop
     vertex 1.8077108286e-01 2.0324170676e-01 0.0000000000e+00
     vertex 8.3233162389e-02 1.5097104267e-01 1.5097104267e-01
     vertex 8.3233162389e-02 2.1354716764e-01 0.0000000000e+00
   endloop
 endfacet
 facet normal  -2.2666823106e-01 -8.9974457084e-01 -3.7293594662e-01
   outer loop
     vertex 8.3233162389e-02 1.5097104267e-01 1.5097104267e-01
     vertex 2.4681659684e-02 1.6139924155e-01 1.6139924155e-01
     vertex 8.3233162389e-02 2.1354716764e-01 0.0000000000e+00
   endloop
 endfacet
 facet normal  -2.2666823106e-01 -8.9974457084e-01 -3.7293594662e-01
   outer loop
     vertex 8.3233162389e-02 2.1354716764e-01 0.0000000000e+00
     vertex 2.4681659684e-02 1.6139924155e-01 1.6139924155e-01
     vertex 2.4681659684e-02 2.2829776017e-01 0.0000000000e+00
   endloop
 endfacet
 facet normal  -6.3048730058e-01 -7.1704455906e-01 -2.9720845234e-01
   outer loop
     vertex 2.4681659684e-02 1.6139924155e-01 1.6139924155e-01
     vertex 0.0000000000e+00 1.7674203355e-01 1.7674203355e-01
     vertex 2.4681659684e-02 2.2829776017e-01 0.0000000000e+00
   endloop
 endfacet
 facet normal  -6.3048730058e-01 -7.1704455906e-01 -2.9720845234e-01
   outer loop
     vertex 2.4681659684e-02 2.2829776017e-01 0.0000000000e+00
     vertex 0.0000000000e+00 1.7674203355e-01 1.7674203355e-01
     vertex 0.0000000000e+00 2.5000000000e-01 0.0000000000e+00
   endloop
 endfacet
 facet normal  -6.3048730058e-01 7.1704455906e-01 2.9720845234e-01
   outer loop
     vertex 0.0000000000e+00 1.7674203355e-01 1.7674203355e-01
     vertex 2.4681659684e-02 2.7170223983e-01 0.0000000000e+00
     vertex 0.0000000000e+00 2.5000000000e-01 0.0000000000e+00
   endloop
 endfacet
 facet normal  -6.3048730058e-01 7.1704455906e-01 2.9720845234e-01
   outer loop
     vertex 0.0000000000e+00 1.7674203355e-01 1.7674203355e-01
     vertex 2.4681659684e-02 1.9208482554e-01 1.9208482554e-01
     vertex 2.4681659684e-02 2.7170223983e-01 0.0000000000e+00
   endloop
 endfacet
 facet normal  -2.2666823106e-01 8.9974457084e-01 3.7293594662e-01
   outer loop
     vertex 2.4681659684e-02 1.9208482554e-01 1.9208482554e-01
     vertex 8.3233162389e-02 2.8645283236e-01 0.0000000000e+00
     vertex 2.4681659684e-02 2.7170223983e-01 0.0000000000e+00
   endloop
 endfacet
 facet normal  -2.2666823106e-01 8.9974457084e-01 3.7293594662e-01
   outer loop
     vertex 2.4681659684e-02 1.9208482554e-01 1.9208482554e-01
     vertex 8.3233162389e-02 2.0251302442e-01 2.0251302442e-01
     vertex 8.3233162389e-02 2.8645283236e-01 0.0000000000e+00
   endloop
 endfacet
 facet normal  -9.7142173239e-02 9.1941987645e-01 3.8109118196e-01
   outer loop
     vertex 8.3233162389e-02 2.0251302442e-01 2.0251302442e-01
     vertex 1.8077108286e-01 2.9675829324e-01 0.0000000000e+00
     vertex 8.3233162389e-02 2.8645283236e-01 0.0000000000e+00
   endloop
 endfacet
 facet normal  -9.7142173239e-02 9.1941987645e-01 3.8109118196e-01
   outer loop
     vertex 8.3233162389e-02 2.0251302442e-01 2.0251302442e-01
     vertex 1.8077108286e-01 2.0979865687e-01 2.0979865687e-01
     vertex 1.8077108286e-01 2.9675829324e-01 0.0000000000e+00
   endloop
 endfacet
 facet normal  -2.0668207589e-02 9.2359159148e-01 3.8282031992e-01
   outer loop
     vertex 1.8077108286e-01 2.0979865687e-01 2.0979865687e-01
     vertex 3.2214805739e-01 2.9992203864e-01 0.0000000000e+00
     vertex 1.8077108286e-01 2.9675829324e-01 0.0000000000e+00
   endloop
 endfacet
 facet normal  -2.0668207589e-02 9.2359159148e-01 3.8282031992e-01
   outer loop
     vertex 1.8077108286e-01 2.0979865687e-01 2.0979865687e-01
     vertex 3.2214805739e-01 2.1203532406e-01 2.1203532406e-01
     vertex 3.2214805739e-01 2.9992203864e-01 0.0000000000e+00
   endloop
 endfacet
 facet normal  3.0142363150e-02 9.2336916709e-01 3.8272812703e-01
   outer loop
     vertex 3.2214805739e-01 2.1203532406e-01 2.1203532406e-01
     vertex 4.9469990917e-01 2.9428927467e-01 0.0000000000e+00
     vertex 3.2214805739e-01 2.9992203864e-01 0.0000000000e+00
   endloop
 endfacet
 facet normal  3.0142363150e-02 9.2336916709e-01 3.8272812703e-01
   outer loop
     vertex 3.2214805739e-01 2.1203532406e-01 2.1203532406e-01
     vertex 4.9469990917e-01 2.0805313943e-01 2.0805313943e-01
     vertex 4.9469990917e-01 2.9428927467e-01 0.0000000000e+00
   endloop
 endfacet
 facet normal  6.1865264283e-02 9.2201941378e-01 3.8216866655e-01
   outer loop
     vertex 4.9469990917e-01 2.0805313943e-01 2.0805313943e-01
     vertex 6.6696530618e-01 1.9988158467e-01 1.9988158467e-01
     vertex 4.9469990917e-01 2.9428927467e-01 0.0000000000e+00
   endloop
 endfacet
 facet normal  6.1865264283e-02 9.2201941378e-01 3.8216866655e-01
   outer loop
     vertex 4.9469990917e-01 2.9428927467e-01 0.0000000000e+00
     vertex 6.6696530618e-01 1.9988158467e-01 1.9988158467e-01
     vertex 6.6696530618e-01 2.8273068474e-01 0.0000000000e+00
   endloop
 endfacet
 facet normal  8.0787081143e-02 9.2076940897e-01 3.8165055092e-01
   outer loop
     vertex 6.6696530618e-01 1.9988158467e-01 1.9988158467e-01
     vertex 8.0786174469e-01 1.9114199808e-01 1.9114199808e-01
     vertex 6.6696530618e-01 2.8273068474e-01 0.0000000000e+00
   endloop
 endfacet
 facet normal  8.0787081143e-02 9.2076940897e-01 3.8165055092e-01
   outer loop
     vertex 6.6696530618e-01 2.8273068474e-01 0.0000000000e+00
     vertex 8.0786174469e-01 1.9114199808e-01 1.9114199808e-01
     vertex 8.0786174469e-01 2.7036861895e-01 0.0000000000e+00
   endloop
 endfacet
 facet normal  9.2715854906e-02 9.1980980151e-01 3.8125280235e-01
   outer loop
     vertex 8.0786174469e-01 1.9114199808e-01 1.9114199808e-01
     vertex 9.0549005286e-01 1.8418484473e-01 1.8418484473e-01
     vertex 8.0786174469e-01 2.7036861895e-01 0.0000000000e+00
   endloop
 endfacet
 facet normal  9.2715854906e-02 9.1980980151e-01 3.8125280235e-01
   outer loop
     vertex 8.0786174469e-01 2.7036861895e-01 0.0000000000e+00
     vertex 9.0549005286e-01 1.8418484473e-01 1.8418484473e-01
     vertex 9.0549005286e-01 2.6052778877e-01 0.0000000000e+00
   endloop
 endfacet
 facet normal  1.0055427886e-01 9.1910676647e-01 3.8096140072e-01
   outer loop
     vertex 9.0549005286e-01 1.8418484473e-01 1.8418484473e-01
     vertex 9.6561709246e-01 1.7953429543e-01 1.7953429543e-01
     vertex 9.0549005286e-01 2.6052778877e-01 0.0000000000e+00
   endloop
 endfacet
 facet normal  1.0055427886e-01 9.1910676647e-01 3.8096140072e-01
   outer loop
     vertex 9.0549005286e-01 2.6052778877e-01 0.0000000000e+00
     vertex 9.6561709246e-01 1.7953429543e-01 1.7953429543e-01
     vertex 9.6561709246e-01 2.5394962905e-01 0.0000000000e+00
   endloop
 endfacet
 facet normal  1.0552487650e-01 9.1863109773e-01 3.8076424035e-01
   outer loop
     vertex 9.6561709246e-01 1.7953429543e-01 1.7953429543e-01
     vertex 1.0000000000e+00 1.7674203355e-01 1.7674203355e-01
     vertex 9.6561709246e-01 2.5394962905e-01 0.0000000000e+00
   endloop
 endfacet
 facet normal  1.0552487650e-01 9.1863109773e-01 3.8076424035e-01
   outer loop
     vertex 9.6561709246e-01 2.5394962905e-01 0.0000000000e+00
     vertex 1.0000000000e+00 1.7674203355e-01 1.7674203355e-01
     vertex 1.0000000000e+00 2.5000000000e-01 0.0000000000e+00
   endloop
 endfacet
endsolid
