solid
 facet normal  1.0015497041e-01 -9.1914397278e-01 3.8097682240e-01
   outer loop
     vertex 1.0000000000e+00 2.5000000000e-01 0.0000000000e+00
     vertex 8.6200135247e-01 1.6611129022e-01 -1.6611129022e-01
     vertex 1.0000000000e+00 1.7674203355e-01 -1.7674203355e-01
   endloop
 endfacet
 facet normal  1.0015497041e-01 -9.1914397278e-01 3.8097682240e-01
   outer loop
     vertex 1.0000000000e+00 2.5000000000e-01 0.0000000000e+00
     vertex 8.6200135247e-01 2.3496291020e-01 0.0000000000e+00
     vertex 8.6200135247e-01 1.6611129022e-01 -1.6611129022e-01
   endloop
 endfacet
 facet normal  7.3372992728e-02 -9.2129891321e-01 3.8187002561e-01
   outer loop
     vertex 8.6200135247e-01 2.3496291020e-01 0.0000000000e+00
     vertex 4.9469990917e-01 1.4543092767e-01 -1.4543092767e-01
     vertex 8.6200135247e-01 1.6611129022e-01 -1.6611129022e-01
   endloop
 endfacet
 facet normal  7.3372992728e-02 -9.2129891321e-01 3.8187002561e-01
   outer loop
     vertex 8.6200135247e-01 2.3496291020e-01 0.0000000000e+00
     vertex 4.9469990917e-01 2.0571072533e-01 0.0000000000e+00
     vertex 4.9469990917e-01 1.4543092767e-01 -1.4543092767e-01
   endloop
 endfacet
 facet normal  -5.0179339992e-03 -9.2377729181e-01 3.8289729102e-01
   outer loop
     vertex 4.9469990917e-01 2.0571072533e-01 0.0000000000e+00
     vertex 1.2655783651e-01 2.0771046340e-01 0.0000000000e+00
     vertex 4.9469990917e-01 1.4543092767e-01 -1.4543092767e-01
   endloop
 endfacet
 facet normal  -5.0179339992e-03 -9.2377729181e-01 3.8289729102e-01
   outer loop
     vertex 4.9469990917e-01 1.4543092767e-01 -1.4543092767e-01
     vertex 1.2655783651e-01 2.0771046340e-01 0.0000000000e+00
     vertex 1.2655783651e-01 1.4684467876e-01 -1.4684467876e-01
   endloop
 endfacet
 facet normal  -2.9495290947e-01 -8.8269120684e-01 3.6586748224e-01
   outer loop
     vertex 1.2655783651e-01 2.0771046340e-01 0.0000000000e+00
     vertex 0.0000000000e+00 2.5000000000e-01 0.0000000000e+00
     vertex 1.2655783651e-01 1.4684467876e-01 -1.4684467876e-01
   endloop
 endfacet
 facet normal  -2.9495290947e-01 -8.8269120684e-01 3.6586748224e-01
   outer loop
     vertex 1.2655783651e-01 1.4684467876e-01 -1.4684467876e-01
     vertex 0.0000000000e+00 2.5000000000e-01 0.0000000000e+00
     vertex 0.0000000000e+00 1.7674203355e-01 -1.7674203355e-01
   endloop
 endfacet
 facet normal  -2.9495290947e-01 8.8269120684e-01 -3.6586748224e-01
   outer loop
     vertex 0.0000000000e+00 2.5000000000e-01 0.0000000000e+00
     vertex 1.2655783651e-01 2.0663938833e-01 -2.0663938833e-01
     vertex 0.0000000000e+00 1.7674203355e-01 -1.7674203355e-01
   endloop
 endfacet
 facet normal  -2.9495290947e-01 8.8269120684e-01 -3.6586748224e-01
   outer loop
     vertex 0.0000000000e+00 2.5000000000e-01 0.0000000000e+00
     vertex 1.2655783651e-01 2.9228953660e-01 0.0000000000e+00
     vertex 1.2655783651e-01 2.0663938833e-01 -2.0663938833e-01
   endloop
 endfacet
 facet normal  -5.0179339992e-03 9.2377729181e-01 -3.8289729102e-01
   outer loop
     vertex 1.2655783651e-01 2.9228953660e-01 0.0000000000e+00
     vertex 4.9469990917e-01 2.0805313943e-01 -2.0805313943e-01
     vertex 1.2655783651e-01 2.0663938833e-01 -2.0663938833e-01
   endloop
 endfacet
 facet normal  -5.0179339992e-03 9.2377729181e-01 -3.8289729102e-01
   outer loop
     vertex 1.2655783651e-01 2.9228953660e-01 0.0000000000e+00
     vertex 4.9469990917e-01 2.9428927467e-01 0.0000000000e+00
     vertex 4.9469990917e-01 2.0805313943e-01 -2.0805313943e-01
   endloop
 endfacet
 facet normal  7.3372992728e-02 9.2129891321e-01 -3.8187002561e-01
   outer loop
     vertex 4.9469990917e-01 2.9428927467e-01 0.0000000000e+00
     vertex 8.6200135247e-01 2.6503708980e-01 0.0000000000e+00
     vertex 4.9469990917e-01 2.0805313943e-01 -2.0805313943e-01
   endloop
 endfacet
 facet normal  7.3372992728e-02 9.2129891321e-01 -3.8187002561e-01
   outer loop
     vertex 4.9469990917e-01 2.0805313943e-01 -2.0805313943e-01
     vertex 8.6200135247e-01 2.6503708980e-01 0.0000000000e+00
     vertex 8.6200135247e-01 1.8737277687e-01 -1.8737277687e-01
   endloop
 endfacet
 facet normal  1.0015497041e-01 9.1914397278e-01 -3.8097682240e-01
   outer loop
     vertex 8.6200135247e-01 2.6503708980e-01 0.0000000000e+00
     vertex 1.0000000000e+00 2.5000000000e-01 0.0000000000e+00
     vertex 8.6200135247e-01 1.8737277687e-01 -1.8737277687e-01
   endloop
 endfacet
 facet normal  1.0015497041e-01 9.1914397278e-01 -3.8097682240e-01
   outer loop
     vertex 8.6200135247e-01 1.8737277687e-01 -1.8737277687e-01
     vertex 1.0000000000e+00 2.5000000000e-01 0.0000000000e+00
     vertex 1.0000000000e+00 1.7674203355e-01 -1.7674203355e-01
   endloop
 endfacet
 facet normal  1.0015497041e-01 -3.8097682240e-01 9.1914397278e-01
   outer loop
     vertex 1.0000000000e+00 1.7674203355e-01 -1.7674203355e-01
     vertex 8.6200135247e-01 0.0000000000e+00 -2.3496291020e-01
     vertex 1.0000000000e+00 0.0000000000e+00 -2.5000000000e-01
   endloop
 endfacet
 facet normal  1.0015497041e-01 -3.8097682240e-01 9.1914397278e-01
   outer loop
     vertex 1.0000000000e+00 1.7674203355e-01 -1.7674203355e-01
     vertex 8.6200135247e-01 1.6611129022e-01 -1.6611129022e-01
     vertex 8.6200135247e-01 0.0000000000e+00 -2.3496291020e-01
   endloop
 endfacet
 facet normal  7.3372992728e-02 -3.8187002561e-01 9.2129891321e-01
   outer loop
     vertex 8.6200135247e-01 1.6611129022e-01 -1.6611129022e-01
     vertex 4.9469990917e-01 0.0000000000e+00 -2.0571072533e-01
     vertex 8.6200135247e-01 0.0000000000e+00 -2.3496291020e-01
   endloop
 endfacet
 facet normal  7.3372992728e-02 -3.8187002561e-01 9.2129891321e-01
   outer loop
     vertex 8.6200135247e-01 1.6611129022e-01 -1.6611129022e-01
     vertex 4.9469990917e-01 1.4543092767e-01 -1.4543092767e-01
     vertex 4.9469990917e-01 0.0000000000e+00 -2.0571072533e-01
   endloop
 endfacet
 facet normal  -5.0179339992e-03 -3.8289729102e-01 9.2377729181e-01
   outer loop
     vertex 4.9469990917e-01 1.4543092767e-01 -1.4543092767e-01
     vertex 1.2655783651e-01 1.4684467876e-01 -1.4684467876e-01
     vertex 4.9469990917e-01 0.0000000000e+00 -2.0571072533e-01
   endloop
 endfacet
 facet normal  -5.0179339992e-03 -3.8289729102e-01 9.2377729181e-01
   outer loop
     vertex 4.9469990917e-01 0.0000000000e+00 -2.0571072533e-01
     vertex 1.2655783651e-01 1.4684467876e-01 -1.4684467876e-01
     vertex 1.2655783651e-01 0.0000000000e+00 -2.0771046340e-01
   endloop
 endfacet
 facet normal  -2.9495290947e-01 -3.6586748224e-01 8.8269120684e-01
   outer loop
     vertex 1.2655783651e-01 1.4684467876e-01 -1.4684467876e-01
     vertex 0.0000000000e+00 1.7674203355e-01 -1.7674203355e-01
     vertex 1.2655783651e-01 0.0000000000e+00 -2.0771046340e-01
   endloop
 endfacet
 facet normal  -2.9495290947e-01 -3.6586748224e-01 8.8269120684e-01
   outer loop
     vertex 1.2655783651e-01 0.0000000000e+00 -2.0771046340e-01
     vertex 0.0000000000e+00 1.7674203355e-01 -1.7674203355e-01
     vertex 0.0000000000e+00 0.0000000000e+00 -2.5000000000e-01
   endloop
 endfacet
 facet normal  -2.9495290947e-01 3.6586748224e-01 -8.8269120684e-01
   outer loop
     vertex 0.0000000000e+00 1.7674203355e-01 -1.7674203355e-01
     vertex 1.2655783651e-01 0.0000000000e+00 -2.9228953660e-01
     vertex 0.0000000000e+00 0.0000000000e+00 -2.5000000000e-01
   endloop
 endfacet
 facet normal  -2.9495290947e-01 3.6586748224e-01 -8.8269120684e-01
   outer loop
     vertex 0.0000000000e+00 1.7674203355e-01 -1.7674203355e-01
     vertex 1.2655783651e-01 2.0663938833e-01 -2.0663938833e-01
     vertex 1.2655783651e-01 0.0000000000e+00 -2.9228953660e-01
   endloop
 endfacet
 facet normal  -5.0179339992e-03 3.8289729102e-01 -9.2377729181e-01
   outer loop
     vertex 1.2655783651e-01 2.0663938833e-01 -2.0663938833e-01
     vertex 4.9469990917e-01 0.0000000000e+00 -2.9428927467e-01
     vertex 1.2655783651e-01 0.0000000000e+00 -2.9228953660e-01
   endloop
 endfacet
 facet normal  -5.0179339992e-03 3.8289729102e-01 -9.2377729181e-01
   outer loop
     vertex 1.2655783651e-01 2.0663938833e-01 -2.0663938833e-01
     vertex 4.9469990917e-01 2.0805313943e-01 -2.0805313943e-01
     vertex 4.9469990917e-01 0.0000000000e+00 -2.9428927467e-01
   endloop
 endfacet
 facet normal  7.3372992728e-02 3.8187002561e-01 -9.2129891321e-01
   outer loop
     vertex 4.9469990917e-01 2.0805313943e-01 -2.0805313943e-01
     vertex 8.6200135247e-01 1.8737277687e-01 -1.8737277687e-01
     vertex 4.9469990917e-01 0.0000000000e+00 -2.9428927467e-01
   endloop
 endfacet
 facet normal  7.3372992728e-02 3.8187002561e-01 -9.2129891321e-01
   outer loop
     vertex 4.9469990917e-01 0.0000000000e+00 -2.9428927467e-01
     vertex 8.6200135247e-01 1.8737277687e-01 -1.8737277687e-01
     vertex 8.6200135247e-01 0.0000000000e+00 -2.6503708980e-01
   endloop
 endfacet
 facet normal  1.0015497041e-01 3.8097682240e-01 -9.1914397278e-01
   outer loop
     vertex 8.6200135247e-01 1.8737277687e-01 -1.8737277687e-01
     vertex 1.0000000000e+00 1.7674203355e-01 -1.7674203355e-01
     vertex 8.6200135247e-01 0.0000000000e+00 -2.6503708980e-01
   endloop
 endfacet
 facet normal  1.0015497041e-01 3.8097682240e-01 -9.1914397278e-01
   outer loop
     vertex 8.6200135247e-01 0.0000000000e+00 -2.6503708980e-01
     vertex 1.0000000000e+00 1.7674203355e-01 -1.7674203355e-01
     vertex 1.0000000000e+00 0.0000000000e+00 -2.5000000000e-01
   endloop
 endfacet
 facet normal  1.0015497041e-01 3.8097682240e-01 9.1914397278e-01
   outer loop
     vertex 1.0000000000e+00 0.0000000000e+00 -2.5000000000e-01
     vertex 8.6200135247e-01 -1.6611129022e-01 -1.6611129022e-01
     vertex 1.0000000000e+00 -1.7674203355e-01 -1.7674203355e-01
   endloop
 endfacet
 facet normal  1.0015497041e-01 3.8097682240e-01 9.1914397278e-01
   outer loop
     vertex 1.0000000000e+00 0.0000000000e+00 -2.5000000000e-01
     vertex 8.6200135247e-01 0.0000000000e+00 -2.3496291020e-01
     vertex 8.6200135247e-01 -1.6611129022e-01 -1.6611129022e-01
   endloop
 endfacet
 facet normal  7.3372992728e-02 3.8187002561e-01 9.2129891321e-01
   outer loop
     vertex 8.6200135247e-01 0.0000000000e+00 -2.3496291020e-01
     vertex 4.9469990917e-01 -1.4543092767e-01 -1.4543092767e-01
     vertex 8.6200135247e-01 -1.6611129022e-01 -1.6611129022e-01
   endloop
 endfacet
 facet normal  7.3372992728e-02 3.8187002561e-01 9.2129891321e-01
   outer loop
     vertex 8.6200135247e-01 0.0000000000e+00 -2.3496291020e-01
     vertex 4.9469990917e-01 0.0000000000e+00 -2.0571072533e-01
     vertex 4.9469990917e-01 -1.4543092767e-01 -1.4543092767e-01
   endloop
 endfacet
 facet normal  -5.0179339992e-03 3.8289729102e-01 9.2377729181e-01
   outer loop
     vertex 4.9469990917e-01 0.0000000000e+00 -2.0571072533e-01
     vertex 1.2655783651e-01 0.0000000000e+00 -2.0771046340e-01
     vertex 4.9469990917e-01 -1.4543092767e-01 -1.4543092767e-01
   endloop
 endfacet
 facet normal  -5.0179339992e-03 3.8289729102e-01 9.2377729181e-01
   outer loop
     vertex 4.9469990917e-01 -1.4543092767e-01 -1.4543092767e-01
     vertex 1.2655783651e-01 0.0000000000e+00 -2.0771046340e-01
     vertex 1.2655783651e-01 -1.4684467876e-01 -1.4684467876e-01
   endloop
 endfacet
 facet normal  -2.9495290947e-01 3.6586748224e-01 8.8269120684e-01
   outer loop
     vertex 1.2655783651e-01 0.0000000000e+00 -2.0771046340e-01
     vertex 0.0000000000e+00 0.0000000000e+00 -2.5000000000e-01
     vertex 1.2655783651e-01 -1.4684467876e-01 -1.4684467876e-01
   endloop
 endfacet
 facet normal  -2.9495290947e-01 3.6586748224e-01 8.8269120684e-01
   outer loop
     vertex 1.2655783651e-01 -1.4684467876e-01 -1.4684467876e-01
     vertex 0.0000000000e+00 0.0000000000e+00 -2.5000000000e-01
     vertex 0.0000000000e+00 -1.7674203355e-01 -1.7674203355e-01
   endloop
 endfacet
 facet normal  -2.9495290947e-01 -3.6586748224e-01 -8.8269120684e-01
   outer loop
     vertex 0.0000000000e+00 0.0000000000e+00 -2.5000000000e-01
     vertex 1.2655783651e-01 -2.0663938833e-01 -2.0663938833e-01
     vertex 0.0000000000e+00 -1.7674203355e-01 -1.7674203355e-01
   endloop
 endfacet
 facet normal  -2.9495290947e-01 -3.6586748224e-01 -8.8269120684e-01
   outer loop
     vertex 0.0000000000e+00 0.0000000000e+00 -2.5000000000e-01
     vertex 1.2655783651e-01 0.0000000000e+00 -2.9228953660e-01
     vertex 1.2655783651e-01 -2.0663938833e-01 -2.0663938833e-01
   endloop
 endfacet
 facet normal  -5.0179339992e-03 -3.8289729102e-01 -9.2377729181e-01
   outer loop
     vertex 1.2655783651e-01 0.0000000000e+00 -2.9228953660e-01
     vertex 4.9469990917e-01 -2.0805313943e-01 -2.0805313943e-01
     vertex 1.2655783651e-01 -2.0663938833e-01 -2.0663938833e-01
   endloop
 endfacet
 facet normal  -5.0179339992e-03 -3.8289729102e-01 -9.2377729181e-01
   outer loop
     vertex 1.2655783651e-01 0.0000000000e+00 -2.9228953660e-01
     vertex 4.9469990917e-01 0.0000000000e+00 -2.9428927467e-01
     vertex 4.9469990917e-01 -2.0805313943e-01 -2.0805313943e-01
   endloop
 endfacet
 facet normal  7.3372992728e-02 -3.8187002561e-01 -9.2129891321e-01
   outer loop
     vertex 4.9469990917e-01 0.0000000000e+00 -2.9428927467e-01
     vertex 8.6200135247e-01 0.0000000000e+00 -2.6503708980e-01
     vertex 4.9469990917e-01 -2.0805313943e-01 -2.0805313943e-01
   endloop
 endfacet
 facet normal  7.3372992728e-02 -3.8187002561e-01 -9.2129891321e-01
   outer loop
     vertex 4.9469990917e-01 -2.0805313943e-01 -2.0805313943e-01
     vertex 8.6200135247e-01 0.0000000000e+00 -2.6503708980e-01
     vertex 8.6200135247e-01 -1.8737277687e-01 -1.8737277687e-01
   endloop
 endfacet
 facet normal  1.0015497041e-01 -3.8097682240e-01 -9.1914397278e-01
   outer loop
     vertex 8.6200135247e-01 0.0000000000e+00 -2.6503708980e-01
     vertex 1.0000000000e+00 0.0000000000e+00 -2.5000000000e-01
     vertex 8.6200135247e-01 -1.8737277687e-01 -1.8737277687e-01
   endloop
 endfacet
 facet normal  1.0015497041e-01 -3.8097682240e-01 -9.1914397278e-01
   outer loop
     vertex 8.6200135247e-01 -1.8737277687e-01 -1.8737277687e-01
     vertex 1.0000000000e+00 0.0000000000e+00 -2.5000000000e-01
     vertex 1.0000000000e+00 -1.7674203355e-01 -1.7674203355e-01
   endloop
 endfacet
 facet normal  1.0015497041e-01 9.1914397278e-01 3.8097682240e-01
   outer loop
     vertex 1.0000000000e+00 -1.7674203355e-01 -1.7674203355e-01
     vertex 8.6200135247e-01 -2.3496291020e-01 0.0000000000e+00
     vertex 1.0000000000e+00 -2.5000000000e-01 0.0000000000e+00
   endloop
 endfacet
 facet normal  1.0015497041e-01 9.1914397278e-01 3.8097682240e-01
   outer loop
     vertex 1.0000000000e+00 -1.7674203355e-01 -1.7674203355e-01
     vertex 8.6200135247e-01 -1.6611129022e-01 -1.6611129022e-01
     vertex 8.6200135247e-01 -2.3496291020e-01 0.0000000000e+00
   endloop
 endfacet
 facet normal  7.3372992728e-02 9.2129891321e-01 3.8187002561e-01
   outer loop
     vertex 8.6200135247e-01 -1.6611129022e-01 -1.6611129022e-01
     vertex 4.9469990917e-01 -2.0571072533e-01 0.0000000000e+00
     vertex 8.6200135247e-01 -2.3496291020e-01 0.0000000000e+00
   endloop
 endfacet
 facet normal  7.3372992728e-02 9.2129891321e-01 3.8187002561e-01
   outer loop
     vertex 8.6200135247e-01 -1.6611129022e-01 -1.6611129022e-01
     vertex 4.9469990917e-01 -1.4543092767e-01 -1.4543092767e-01
     vertex 4.9469990917e-01 -2.0571072533e-01 0.0000000000e+00
   endloop
 endfacet
 facet normal  -5.0179339992e-03 9.2377729181e-01 3.8289729102e-01
   outer loop
     vertex 4.9469990917e-01 -1.4543092767e-01 -1.4543092767e-01
     vertex 1.2655783651e-01 -1.4684467876e-01 -1.4684467876e-01
     vertex 4.9469990917e-01 -2.0571072533e-01 0.0000000000e+00
   endloop
 endfacet
 facet normal  -5.0179339992e-03 9.2377729181e-01 3.8289729102e-01
   outer loop
     vertex 4.9469990917e-01 -2.0571072533e-01 0.0000000000e+00
     vertex 1.2655783651e-01 -1.4684467876e-01 -1.4684467876e-01
     vertex 1.2655783651e-01 -2.0771046340e-01 0.0000000000e+00
   endloop
 endfacet
 facet normal  -2.9495290947e-01 8.8269120684e-01 3.6586748224e-01
   outer loop
     vertex 1.2655783651e-01 -1.4684467876e-01 -1.4684467876e-01
     vertex 0.0000000000e+00 -1.7674203355e-01 -1.7674203355e-01
     vertex 1.2655783651e-01 -2.0771046340e-01 0.0000000000e+00
   endloop
 endfacet
 facet normal  -2.9495290947e-01 8.8269120684e-01 3.6586748224e-01
   outer loop
     vertex 1.2655783651e-01 -2.0771046340e-01 0.0000000000e+00
     vertex 0.0000000000e+00 -1.7674203355e-01 -1.7674203355e-01
     vertex 0.0000000000e+00 -2.5000000000e-01 0.0000000000e+00
   endloop
 endfacet
 facet normal  -2.9495290947e-01 -8.8269120684e-01 -3.6586748224e-01
   outer loop
     vertex 0.0000000000e+00 -1.7674203355e-01 -1.7674203355e-01
     vertex 1.2655783651e-01 -2.9228953660e-01 0.0000000000e+00
     vertex 0.0000000000e+00 -2.5000000000e-01 0.0000000000e+00
   endloop
 endfacet
 facet normal  -2.9495290947e-01 -8.8269120684e-01 -3.6586748224e-01
   outer loop
     vertex 0.0000000000e+00 -1.7674203355e-01 -1.7674203355e-01
     vertex 1.2655783651e-01 -2.0663938833e-01 -2.0663938833e-01
     vertex 1.2655783651e-01 -2.9228953660e-01 0.0000000000e+00
   endloop
 endfacet
 facet normal  -5.0179339992e-03 -9.2377729181e-01 -3.8289729102e-01
   outer loop
     vertex 1.2655783651e-01 -2.0663938833e-01 -2.0663938833e-01
     vertex 4.9469990917e-01 -2.9428927467e-01 0.0000000000e+00
     vertex 1.2655783651e-01 -2.9228953660e-01 0.0000000000e+00
   endloop
 endfacet
 facet normal  -5.0179339992e-03 -9.2377729181e-01 -3.8289729102e-01
   outer loop
     vertex 1.2655783651e-01 -2.0663938833e-01 -2.0663938833e-01
     vertex 4.9469990917e-01 -2.0805313943e-01 -2.0805313943e-01
     vertex 4.9469990917e-01 -2.9428927467e-01 0.0000000000e+00
   endloop
 endfacet
 facet normal  7.3372992728e-02 -9.2129891321e-01 -3.8187002561e-01
   outer loop
     vertex 4.9469990917e-01 -2.0805313943e-01 -2.0805313943e-01
     vertex 8.6200135247e-01 -1.8737277687e-01 -1.8737277687e-01
     vertex 4.9469990917e-01 -2.9428927467e-01 0.0000000000e+00
   endloop
 endfacet
 facet normal  7.3372992728e-02 -9.2129891321e-01 -3.8187002561e-01
   outer loop
     vertex 4.9469990917e-01 -2.9428927467e-01 0.0000000000e+00
     vertex 8.6200135247e-01 -1.8737277687e-01 -1.8737277687e-01
     vertex 8.6200135247e-01 -2.6503708980e-01 0.0000000000e+00
   endloop
 endfacet
 facet normal  1.0015497041e-01 -9.1914397278e-01 -3.8097682240e-01
   outer loop
     vertex 8.6200135247e-01 -1.8737277687e-01 -1.8737277687e-01
     vertex 1.0000000000e+00 -1.7674203355e-01 -1.7674203355e-01
     vertex 8.6200135247e-01 -2.6503708980e-01 0.0000000000e+00
   endloop
 endfacet
 facet normal  1.0015497041e-01 -9.1914397278e-01 -3.8097682240e-01
   outer loop
     vertex 8.6200135247e-01 -2.6503708980e-01 0.0000000000e+00
     vertex 1.0000000000e+00 -1.7674203355e-01 -1.7674203355e-01
     vertex 1.0000000000e+00 -2.5000000000e-01 0.0000000000e+00
   endloop
 endfacet
 facet normal  1.0015497041e-01 9.1914397278e-01 -3.8097682240e-01
   outer loop
     vertex 1.0000000000e+00 -2.5000000000e-01 0.0000000000e+00
     vertex 8.6200135247e-01 -1.6611129022e-01 1.6611129022e-01
     vertex 1.0000000000e+00 -1.7674203355e-01 1.7674203355e-01
   endloop
 endfacet
 facet normal  1.0015497041e-01 9.1914397278e-01 -3.8097682240e-01
   outer loop
     vertex 1.0000000000e+00 -2.5000000000e-01 0.0000000000e+00
     vertex 8.6200135247e-01 -2.3496291020e-01 0.0000000000e+00
     vertex 8.6200135247e-01 -1.6611129022e-01 1.6611129022e-01
   endloop
 endfacet
 facet normal  7.3372992728e-02 9.2129891321e-01 -3.8187002561e-01
   outer loop
     vertex 8.6200135247e-01 -2.3496291020e-01 0.0000000000e+00
     vertex 4.9469990917e-01 -1.4543092767e-01 1.4543092767e-01
     vertex 8.6200135247e-01 -1.6611129022e-01 1.6611129022e-01
   endloop
 endfacet
 facet normal  7.3372992728e-02 9.2129891321e-01 -3.8187002561e-01
   outer loop
     vertex 8.6200135247e-01 -2.3496291020e-01 0.0000000000e+00
     vertex 4.9469990917e-01 -2.0571072533e-01 0.0000000000e+00
     vertex 4.9469990917e-01 -1.4543092767e-01 1.4543092767e-01
   endloop
 endfacet
 facet normal  -5.0179339992e-03 9.2377729181e-01 -3.8289729102e-01
   outer loop
     vertex 4.9469990917e-01 -2.0571072533e-01 0.0000000000e+00
     vertex 1.2655783651e-01 -2.0771046340e-01 0.0000000000e+00
     vertex 4.9469990917e-01 -1.4543092767e-01 1.4543092767e-01
   endloop
 endfacet
 facet normal  -5.0179339992e-03 9.2377729181e-01 -3.8289729102e-01
   outer loop
     vertex 4.9469990917e-01 -1.4543092767e-01 1.4543092767e-01
     vertex 1.2655783651e-01 -2.0771046340e-01 0.0000000000e+00
     vertex 1.2655783651e-01 -1.4684467876e-01 1.4684467876e-01
   endloop
 endfacet
 facet normal  -2.9495290947e-01 8.8269120684e-01 -3.6586748224e-01
   outer loop
     vertex 1.2655783651e-01 -2.0771046340e-01 0.0000000000e+00
     vertex 0.0000000000e+00 -2.5000000000e-01 0.0000000000e+00
     vertex 1.2655783651e-01 -1.4684467876e-01 1.4684467876e-01
   endloop
 endfacet
 facet normal  -2.9495290947e-01 8.8269120684e-01 -3.6586748224e-01
   outer loop
     vertex 1.2655783651e-01 -1.4684467876e-01 1.4684467876e-01
     vertex 0.0000000000e+00 -2.5000000000e-01 0.0000000000e+00
     vertex 0.0000000000e+00 -1.7674203355e-01 1.7674203355e-01
   endloop
 endfacet
 facet normal  -2.9495290947e-01 -8.8269120684e-01 3.6586748224e-01
   outer loop
     vertex 0.0000000000e+00 -2.5000000000e-01 0.0000000000e+00
     vertex 1.2655783651e-01 -2.0663938833e-01 2.0663938833e-01
     vertex 0.0000000000e+00 -1.7674203355e-01 1.7674203355e-01
   endloop
 endfacet
 facet normal  -2.9495290947e-01 -8.8269120684e-01 3.6586748224e-01
   outer loop
     vertex 0.0000000000e+00 -2.5000000000e-01 0.0000000000e+00
     vertex 1.2655783651e-01 -2.9228953660e-01 0.0000000000e+00
     vertex 1.2655783651e-01 -2.0663938833e-01 2.0663938833e-01
   endloop
 endfacet
 facet normal  -5.0179339992e-03 -9.2377729181e-01 3.8289729102e-01
   outer loop
     vertex 1.2655783651e-01 -2.9228953660e-01 0.0000000000e+00
     vertex 4.9469990917e-01 -2.0805313943e-01 2.0805313943e-01
     vertex 1.2655783651e-01 -2.0663938833e-01 2.0663938833e-01
   endloop
 endfacet
 facet normal  -5.0179339992e-03 -9.2377729181e-01 3.8289729102e-01
   outer loop
     vertex 1.2655783651e-01 -2.9228953660e-01 0.0000000000e+00
     vertex 4.9469990917e-01 -2.9428927467e-01 0.0000000000e+00
     vertex 4.9469990917e-01 -2.0805313943e-01 2.0805313943e-01
   endloop
 endfacet
 facet normal  7.3372992728e-02 -9.2129891321e-01 3.8187002561e-01
   outer loop
     vertex 4.9469990917e-01 -2.9428927467e-01 0.0000000000e+00
     vertex 8.6200135247e-01 -2.6503708980e-01 0.0000000000e+00
     vertex 4.9469990917e-01 -2.0805313943e-01 2.0805313943e-01
   endloop
 endfacet
 facet normal  7.3372992728e-02 -9.2129891321e-01 3.8187002561e-01
   outer loop
     vertex 4.9469990917e-01 -2.0805313943e-01 2.0805313943e-01
     vertex 8.6200135247e-01 -2.6503708980e-01 0.0000000000e+00
     vertex 8.6200135247e-01 -1.8737277687e-01 1.8737277687e-01
   endloop
 endfacet
 facet normal  1.0015497041e-01 -9.1914397278e-01 3.8097682240e-01
   outer loop
     vertex 8.6200135247e-01 -2.6503708980e-01 0.0000000000e+00
     vertex 1.0000000000e+00 -2.5000000000e-01 0.0000000000e+00
     vertex 8.6200135247e-01 -1.8737277687e-01 1.8737277687e-01
   endloop
 endfacet
 facet normal  1.0015497041e-01 -9.1914397278e-01 3.8097682240e-01
   outer loop
     vertex 8.6200135247e-01 -1.8737277687e-01 1.8737277687e-01
     vertex 1.0000000000e+00 -2.5000000000e-01 0.0000000000e+00
     vertex 1.0000000000e+00 -1.7674203355e-01 1.7674203355e-01
   endloop
 endfacet
 facet normal  1.0015497041e-01 3.8097682240e-01 -9.1914397278e-01
   outer loop
     vertex 1.0000000000e+00 -1.7674203355e-01 1.7674203355e-01
     vertex 8.6200135247e-01 0.0000000000e+00 2.3496291020e-01
     vertex 1.0000000000e+00 0.0000000000e+00 2.5000000000e-01
   endloop
 endfacet
 facet normal  1.0015497041e-01 3.8097682240e-01 -9.1914397278e-01
   outer loop
     vertex 1.0000000000e+00 -1.7674203355e-01 1.7674203355e-01
     vertex 8.6200135247e-01 -1.6611129022e-01 1.6611129022e-01
     vertex 8.6200135247e-01 0.0000000000e+00 2.3496291020e-01
   endloop
 endfacet
 facet normal  7.3372992728e-02 3.8187002561e-01 -9.2129891321e-01
   outer loop
     vertex 8.6200135247e-01 -1.6611129022e-01 1.6611129022e-01
     vertex 4.9469990917e-01 0.0000000000e+00 2.0571072533e-01
     vertex 8.6200135247e-01 0.0000000000e+00 2.3496291020e-01
   endloop
 endfacet
 facet normal  7.3372992728e-02 3.8187002561e-01 -9.2129891321e-01
   outer loop
     vertex 8.6200135247e-01 -1.6611129022e-01 1.6611129022e-01
     vertex 4.9469990917e-01 -1.4543092767e-01 1.4543092767e-01
     vertex 4.9469990917e-01 0.0000000000e+00 2.0571072533e-01
   endloop
 endfacet
 facet normal  -5.0179339992e-03 3.8289729102e-01 -9.2377729181e-01
   outer loop
     vertex 4.9469990917e-01 -1.4543092767e-01 1.4543092767e-01
     vertex 1.2655783651e-01 -1.4684467876e-01 1.4684467876e-01
     vertex 4.9469990917e-01 0.0000000000e+00 2.0571072533e-01
   endloop
 endfacet
 facet normal  -5.0179339992e-03 3.8289729102e-01 -9.2377729181e-01
   outer loop
     vertex 4.9469990917e-01 0.0000000000e+00 2.0571072533e-01
     vertex 1.2655783651e-01 -1.4684467876e-01 1.4684467876e-01
     vertex 1.2655783651e-01 0.0000000000e+00 2.0771046340e-01
   endloop
 endfacet
 facet normal  -2.9495290947e-01 3.6586748224e-01 -8.8269120684e-01
   outer loop
     vertex 1.2655783651e-01 -1.4684467876e-01 1.4684467876e-01
     vertex 0.0000000000e+00 -1.7674203355e-01 1.7674203355e-01
     vertex 1.2655783651e-01 0.0000000000e+00 2.0771046340e-01
   endloop
 endfacet
 facet normal  -2.9495290947e-01 3.6586748224e-01 -8.8269120684e-01
   outer loop
     vertex 1.2655783651e-01 0.0000000000e+00 2.0771046340e-01
     vertex 0.0000000000e+00 -1.7674203355e-01 1.7674203355e-01
     vertex 0.0000000000e+00 0.0000000000e+00 2.5000000000e-01
   endloop
 endfacet
 facet normal  -2.9495290947e-01 -3.6586748224e-01 8.8269120684e-01
   outer loop
     vertex 0.0000000000e+00 -1.7674203355e-01 1.7674203355e-01
     vertex 1.2655783651e-01 0.0000000000e+00 2.9228953660e-01
     vertex 0.0000000000e+00 0.0000000000e+00 2.5000000000e-01
   endloop
 endfacet
 facet normal  -2.9495290947e-01 -3.6586748224e-01 8.8269120684e-01
   outer loop
     vertex 0.0000000000e+00 -1.7674203355e-01 1.7674203355e-01
     vertex 1.2655783651e-01 -2.0663938833e-01 2.0663938833e-01
     vertex 1.2655783651e-01 0.0000000000e+00 2.9228953660e-01
   endloop
 endfacet
 facet normal  -5.0179339992e-03 -3.8289729102e-01 9.2377729181e-01
   outer loop
     vertex 1.2655783651e-01 -2.0663938833e-01 2.0663938833e-01
     vertex 4.9469990917e-01 0.0000000000e+00 2.9428927467e-01
     vertex 1.2655783651e-01 0.0000000000e+00 2.9228953660e-01
   endloop
 endfacet
 facet normal  -5.0179339992e-03 -3.8289729102e-01 9.2377729181e-01
   outer loop
     vertex 1.2655783651e-01 -2.0663938833e-01 2.0663938833e-01
     vertex 4.9469990917e-01 -2.0805313943e-01 2.0805313943e-01
     vertex 4.9469990917e-01 0.0000000000e+00 2.9428927467e-01
   endloop
 endfacet
 facet normal  7.3372992728e-02 -3.8187002561e-01 9.2129891321e-01
   outer loop
     vertex 4.9469990917e-01 -2.0805313943e-01 2.0805313943e-01
     vertex 8.6200135247e-01 -1.8737277687e-01 1.8737277687e-01
     vertex 4.9469990917e-01 0.0000000000e+00 2.9428927467e-01
   endloop
 endfacet
 facet normal  7.3372992728e-02 -3.8187002561e-01 9.2129891321e-01
   outer loop
     vertex 4.9469990917e-01 0.0000000000e+00 2.9428927467e-01
     vertex 8.6200135247e-01 -1.8737277687e-01 1.8737277687e-01
     vertex 8.6200135247e-01 0.0000000000e+00 2.6503708980e-01
   endloop
 endfacet
 facet normal  1.0015497041e-01 -3.8097682240e-01 9.1914397278e-01
   outer loop
     vertex 8.6200135247e-01 -1.8737277687e-01 1.8737277687e-01
     vertex 1.0000000000e+00 -1.7674203355e-01 1.7674203355e-01
     vertex 8.6200135247e-01 0.0000000000e+00 2.6503708980e-01
   endloop
 endfacet
 facet normal  1.0015497041e-01 -3.8097682240e-01 9.1914397278e-01
   outer loop
     vertex 8.6200135247e-01 0.0000000000e+00 2.6503708980e-01
     vertex 1.0000000000e+00 -1.7674203355e-01 1.7674203355e-01
     vertex 1.0000000000e+00 0.0000000000e+00 2.5000000000e-01
   endloop
 endfacet
 facet normal  1.0015497041e-01 -3.8097682240e-01 -9.1914397278e-01
   outer loop
     vertex 1.0000000000e+00 0.0000000000e+00 2.5000000000e-01
     vertex 8.6200135247e-01 1.6611129022e-01 1.6611129022e-01
     vertex 1.0000000000e+00 1.7674203355e-01 1.7674203355e-01
   endloop
 endfacet
 facet normal  1.0015497041e-01 -3.8097682240e-01 -9.1914397278e-01
   outer loop
     vertex 1.0000000000e+00 0.0000000000e+00 2.5000000000e-01
     vertex 8.6200135247e-01 0.0000000000e+00 2.3496291020e-01
     vertex 8.6200135247e-01 1.6611129022e-01 1.6611129022e-01
   endloop
 endfacet
 facet normal  7.3372992728e-02 -3.8187002561e-01 -9.2129891321e-01
   outer loop
     vertex 8.6200135247e-01 0.0000000000e+00 2.3496291020e-01
     vertex 4.9469990917e-01 1.4543092767e-01 1.4543092767e-01
     vertex 8.6200135247e-01 1.6611129022e-01 1.6611129022e-01
   endloop
 endfacet
 facet normal  7.3372992728e-02 -3.8187002561e-01 -9.2129891321e-01
   outer loop
     vertex 8.6200135247e-01 0.0000000000e+00 2.3496291020e-01
     vertex 4.9469990917e-01 0.0000000000e+00 2.0571072533e-01
     vertex 4.9469990917e-01 1.4543092767e-01 1.4543092767e-01
   endloop
 endfacet
 facet normal  -5.0179339992e-03 -3.8289729102e-01 -9.2377729181e-01
   outer loop
     vertex 4.9469990917e-01 0.0000000000e+00 2.0571072533e-01
     vertex 1.2655783651e-01 0.0000000000e+00 2.0771046340e-01
     vertex 4.9469990917e-01 1.4543092767e-01 1.4543092767e-01
   endloop
 endfacet
 facet normal  -5.0179339992e-03 -3.8289729102e-01 -9.2377729181e-01
   outer loop
     vertex 4.9469990917e-01 1.4543092767e-01 1.4543092767e-01
     vertex 1.2655783651e-01 0.0000000000e+00 2.0771046340e-01
     vertex 1.2655783651e-01 1.4684467876e-01 1.4684467876e-01
   endloop
 endfacet
 facet normal  -2.9495290947e-01 -3.6586748224e-01 -8.8269120684e-01
   outer loop
     vertex 1.2655783651e-01 0.0000000000e+00 2.0771046340e-01
     vertex 0.0000000000e+00 0.0000000000e+00 2.5000000000e-01
     vertex 1.2655783651e-01 1.4684467876e-01 1.4684467876e-01
   endloop
 endfacet
 facet normal  -2.9495290947e-01 -3.6586748224e-01 -8.8269120684e-01
   outer loop
     vertex 1.2655783651e-01 1.4684467876e-01 1.4684467876e-01
     vertex 0.0000000000e+00 0.0000000000e+00 2.5000000000e-01
     vertex 0.0000000000e+00 1.7674203355e-01 1.7674203355e-01
   endloop
 endfacet
 facet normal  -2.9495290947e-01 3.6586748224e-01 8.8269120684e-01
   outer loop
     vertex 0.0000000000e+00 0.0000000000e+00 2.5000000000e-01
     vertex 1.2655783651e-01 2.0663938833e-01 2.0663938833e-01
     vertex 0.0000000000e+00 1.7674203355e-01 1.7674203355e-01
   endloop
 endfacet
 facet normal  -2.9495290947e-01 3.6586748224e-01 8.8269120684e-01
   outer loop
     vertex 0.0000000000e+00 0.0000000000e+00 2.5000000000e-01
     vertex 1.2655783651e-01 0.0000000000e+00 2.9228953660e-01
     vertex 1.2655783651e-01 2.0663938833e-01 2.0663938833e-01
   endloop
 endfacet
 facet normal  -5.0179339992e-03 3.8289729102e-01 9.2377729181e-01
   outer loop
     vertex 1.2655783651e-01 0.0000000000e+00 2.9228953660e-01
     vertex 4.9469990917e-01 2.0805313943e-01 2.0805313943e-01
     vertex 1.2655783651e-01 2.0663938833e-01 2.0663938833e-01
   endloop
 endfacet
 facet normal  -5.0179339992e-03 3.8289729102e-01 9.2377729181e-01
   outer loop
     vertex 1.2655783651e-01 0.0000000000e+00 2.9228953660e-01
     vertex 4.9469990917e-01 0.0000000000e+00 2.9428927467e-01
     vertex 4.9469990917e-01 2.0805313943e-01 2.0805313943e-01
   endloop
 endfacet
 facet normal  7.3372992728e-02 3.8187002561e-01 9.2129891321e-01
   outer loop
     vertex 4.9469990917e-01 0.0000000000e+00 2.9428927467e-01
     vertex 8.6200135247e-01 0.0000000000e+00 2.6503708980e-01
     vertex 4.9469990917e-01 2.0805313943e-01 2.0805313943e-01
   endloop
 endfacet
 facet normal  7.3372992728e-02 3.8187002561e-01 9.2129891321e-01
   outer loop
     vertex 4.9469990917e-01 2.0805313943e-01 2.0805313943e-01
     vertex 8.6200135247e-01 0.0000000000e+00 2.6503708980e-01
     vertex 8.6200135247e-01 1.8737277687e-01 1.8737277687e-01
   endloop
 endfacet
 facet normal  1.0015497041e-01 3.8097682240e-01 9.1914397278e-01
   outer loop
     vertex 8.6200135247e-01 0.0000000000e+00 2.6503708980e-01
     vertex 1.0000000000e+00 0.0000000000e+00 2.5000000000e-01
     vertex 8.6200135247e-01 1.8737277687e-01 1.8737277687e-01
   endloop
 endfacet
 facet normal  1.0015497041e-01 3.8097682240e-01 9.1914397278e-01
   outer loop
     vertex 8.6200135247e-01 1.8737277687e-01 1.8737277687e-01
     vertex 1.0000000000e+00 0.0000000000e+00 2.5000000000e-01
     vertex 1.0000000000e+00 1.7674203355e-01 1.7674203355e-01
   endloop
 endfacet
 facet normal  1.0015497041e-01 -9.1914397278e-01 -3.8097682240e-01
   outer loop
     vertex 1.0000000000e+00 1.7674203355e-01 1.7674203355e-01
     vertex 8.6200135247e-01 2.3496291020e-01 0.0000000000e+00
     vertex 1.0000000000e+00 2.5000000000e-01 0.0000000000e+00
   endloop
 endfacet
 facet normal  1.0015497041e-01 -9.1914397278e-01 -3.8097682240e-01
   outer loop
     vertex 1.0000000000e+00 1.7674203355e-01 1.7674203355e-01
     vertex 8.6200135247e-01 1.6611129022e-01 1.6611129022e-01
     vertex 8.6200135247e-01 2.3496291020e-01 0.0000000000e+00
   endloop
 endfacet
 facet normal  7.3372992728e-02 -9.2129891321e-01 -3.8187002561e-01
   outer loop
     vertex 8.6200135247e-01 1.6611129022e-01 1.6611129022e-01
     vertex 4.9469990917e-01 2.0571072533e-01 0.0000000000e+00
     vertex 8.6200135247e-01 2.3496291020e-01 0.0000000000e+00
   endloop
 endfacet
 facet normal  7.3372992728e-02 -9.2129891321e-01 -3.8187002561e-01
   outer loop
     vertex 8.6200135247e-01 1.6611129022e-01 1.6611129022e-01
     vertex 4.9469990917e-01 1.4543092767e-01 1.4543092767e-01
     vertex 4.9469990917e-01 2.0571072533e-01 0.0000000000e+00
   endloop
 endfacet
 facet normal  -5.0179339992e-03 -9.2377729181e-01 -3.8289729102e-01
   outer loop
     vertex 4.9469990917e-01 1.4543092767e-01 1.4543092767e-01
     vertex 1.2655783651e-01 1.4684467876e-01 1.4684467876e-01
     vertex 4.9469990917e-01 2.0571072533e-01 0.0000000000e+00
   endloop
 endfacet
 facet normal  -5.0179339992e-03 -9.2377729181e-01 -3.8289729102e-01
   outer loop
     vertex 4.9469990917e-01 2.0571072533e-01 0.0000000000e+00
     vertex 1.2655783651e-01 1.4684467876e-01 1.4684467876e-01
     vertex 1.2655783651e-01 2.0771046340e-01 0.0000000000e+00
   endloop
 endfacet
 facet normal  -2.9495290947e-01 -8.8269120684e-01 -3.6586748224e-01
   outer loop
     vertex 1.2655783651e-01 1.4684467876e-01 1.4684467876e-01
     vertex 0.0000000000e+00 1.7674203355e-01 1.7674203355e-01
     vertex 1.2655783651e-01 2.0771046340e-01 0.0000000000e+00
   endloop
 endfacet
 facet normal  -2.9495290947e-01 -8.8269120684e-01 -3.6586748224e-01
   outer loop
     vertex 1.2655783651e-01 2.0771046340e-01 0.0000000000e+00
     vertex 0.0000000000e+00 1.7674203355e-01 1.7674203355e-01
     vertex 0.0000000000e+00 2.5000000000e-01 0.0000000000e+00
   endloop
 endfacet
 facet normal  -2.9495290947e-01 8.8269120684e-01 3.6586748224e-01
   outer loop
     vertex 0.0000000000e+00 1.7674203355e-01 1.7674203355e-01
     vertex 1.2655783651e-01 2.9228953660e-01 0.0000000000e+00
     vertex 0.0000000000e+00 2.5000000000e-01 0.0000000000e+00
   endloop
 endfacet
 facet normal  -2.9495290947e-01 8.8269120684e-01 3.6586748224e-01
   outer loop
     vertex 0.0000000000e+00 1.7674203355e-01 1.7674203355e-01
     vertex 1.2655783651e-01 2.0663938833e-01 2.0663938833e-01
     vertex 1.2655783651e-01 2.9228953660e-01 0.0000000000e+00
   endloop
 endfacet
 facet normal  -5.0179339992e-03 9.2377729181e-01 3.8289729102e-01
   outer loop
     vertex 1.2655783651e-01 2.0663938833e-01 2.0663938833e-01
     vertex 4.9469990917e-01 2.9428927467e-01 0.0000000000e+00
     vertex 1.2655783651e-01 2.9228953660e-01 0.0000000000e+00
   endloop
 endfacet
 facet normal  -5.0179339992e-03 9.2377729181e-01 3.8289729102e-01
   outer loop
     vertex 1.2655783651e-01 2.0663938833e-01 2.0663938833e-01
     vertex 4.9469990917e-01 2.0805313943e-01 2.0805313943e-01
     vertex 4.9469990917e-01 2.9428927467e-01 0.0000000000e+00
   endloop
 endfacet
 facet normal  7.3372992728e-02 9.2129891321e-01 3.8187002561e-01
   outer loop
     vertex 4.9469990917e-01 2.0805313943e-01 2.0805313943e-01
     vertex 8.6200135247e-01 1.8737277687e-01 1.8737277687e-01
     vertex 4.9469990917e-01 2.9428927467e-01 0.0000000000e+00
   endloop
 endfacet
 facet normal  7.3372992728e-02 9.2129891321e-01 3.8187002561e-01
   outer loop
     vertex 4.9469990917e-01 2.9428927467e-01 0.0000000000e+00
     vertex 8.6200135247e-01 1.8737277687e-01 1.8737277687e-01
     vertex 8.6200135247e-01 2.6503708980e-01 0.0000000000e+00
   endloop
 endfacet
 facet normal  1.0015497041e-01 9.1914397278e-01 3.8097682240e-01
   outer loop
     vertex 8.6200135247e-01 1.8737277687e-01 1.8737277687e-01
     vertex 1.0000000000e+00 1.7674203355e-01 1.7674203355e-01
     vertex 8.6200135247e-01 2.6503708980e-01 0.0000000000e+00
   endloop
 endfacet
 facet normal  1.0015497041e-01 9.1914397278e-01 3.8097682240e-01
   outer loop
     vertex 8.6200135247e-01 2.6503708980e-01 0.0000000000e+00
     vertex 1.0000000000e+00 1.7674203355e-01 1.7674203355e-01
     vertex 1.0000000000e+00 2.5000000000e-01 0.0000000000e+00
   endloop
 endfacet
endsolid
