solid
 facet normal  1.0228355173e-01 1.6443650859e-02 -9.9461936508e-01
   outer loop
     vertex 4.9234581985e+00 0.0000000000e+00 0.0000000000e+00
     vertex 2.4617290992e+00 0.0000000000e+00 -2.5315653857e-01
     vertex 2.4617290992e+00 1.5312560321e+01 0.0000000000e+00
   endloop
 endfacet
 facet normal  -1.0228355173e-01 1.6443650859e-02 -9.9461936508e-01
   outer loop
     vertex 2.4617290992e+00 0.0000000000e+00 -2.5315653857e-01
     vertex 0.0000000000e+00 0.0000000000e+00 0.0000000000e+00
     vertex 2.4617290992e+00 1.5312560321e+01 0.0000000000e+00
   endloop
 endfacet
 facet normal  -1.0228355173e-01 1.6443650859e-02 9.9461936508e-01
   outer loop
     vertex 0.0000000000e+00 0.0000000000e+00 0.0000000000e+00
     vertex 2.4617290992e+00 0.0000000000e+00 2.5315653857e-01
     vertex 2.4617290992e+00 1.5312560321e+01 0.0000000000e+00
   endloop
 endfacet
 facet normal  1.0228355173e-01 1.6443650859e-02 9.9461936508e-01
   outer loop
     vertex 2.4617290992e+00 0.0000000000e+00 2.5315653857e-01
     vertex 4.9234581985e+00 0.0000000000e+00 0.0000000000e+00
     vertex 2.4617290992e+00 1.5312560321e+01 0.0000000000e+00
   endloop
 endfacet
 facet normal  1.0228355173e-01 -1.6443650859e-02 -9.9461936508e-01
   outer loop
     vertex 4.9234581985e+00 0.0000000000e+00 0.0000000000e+00
     vertex 2.4617290992e+00 -1.5312560321e+01 0.0000000000e+00
     vertex 2.4617290992e+00 0.0000000000e+00 -2.5315653857e-01
   endloop
 endfacet
 facet normal  -1.0228355173e-01 -1.6443650859e-02 -9.9461936508e-01
   outer loop
     vertex 2.4617290992e+00 0.0000000000e+00 -2.5315653857e-01
     vertex 2.4617290992e+00 -1.5312560321e+01 0.0000000000e+00
     vertex 0.0000000000e+00 0.0000000000e+00 0.0000000000e+00
   endloop
 endfacet
 facet normal  -1.0228355173e-01 -1.6443650859e-02 9.9461936508e-01
   outer loop
     vertex 0.0000000000e+00 0.0000000000e+00 0.0000000000e+00
     vertex 2.4617290992e+00 -1.5312560321e+01 0.0000000000e+00
     vertex 2.4617290992e+00 0.0000000000e+00 2.5315653857e-01
   endloop
 endfacet
 facet normal  1.0228355173e-01 -1.6443650859e-02 9.9461936508e-01
   outer loop
     vertex 2.4617290992e+00 0.0000000000e+00 2.5315653857e-01
     vertex 2.4617290992e+00 -1.5312560321e+01 0.0000000000e+00
     vertex 4.9234581985e+00 0.0000000000e+00 0.0000000000e+00
   endloop
 endfacet
endsolid
