solid
 facet normal  6.6507692941e-02 -1.8445926540e-02 -9.9761539411e-01
   outer loop
     vertex 4.0000000000e+00 0.0000000000e+00 0.0000000000e+00
     vertex 2.5021131769e+00 2.5000000000e+00 -1.4608416640e-01
     vertex 4.6933756730e+00 2.5000000000e+00 0.0000000000e+00
   endloop
 endfacet
 facet normal  6.6507692941e-02 -1.8445926540e-02 -9.9761539411e-01
   outer loop
     vertex 4.0000000000e+00 0.0000000000e+00 0.0000000000e+00
     vertex 1.3030615433e+00 0.0000000000e+00 -1.7979589711e-01
     vertex 2.5021131769e+00 2.5000000000e+00 -1.4608416640e-01
   endloop
 endfacet
 facet normal  -1.3626097034e-01 7.8670307906e-02 -9.8754439425e-01
   outer loop
     vertex 1.3030615433e+00 0.0000000000e+00 -1.7979589711e-01
     vertex 0.0000000000e+00 0.0000000000e+00 0.0000000000e+00
     vertex 2.5021131769e+00 2.5000000000e+00 -1.4608416640e-01
   endloop
 endfacet
 facet normal  -1.3626097034e-01 7.8670307906e-02 -9.8754439425e-01
   outer loop
     vertex 2.5021131769e+00 2.5000000000e+00 -1.4608416640e-01
     vertex 0.0000000000e+00 0.0000000000e+00 0.0000000000e+00
     vertex 1.4433756730e+00 2.5000000000e+00 0.0000000000e+00
   endloop
 endfacet
 facet normal  -1.3626097034e-01 7.8670307906e-02 9.8754439425e-01
   outer loop
     vertex 0.0000000000e+00 0.0000000000e+00 0.0000000000e+00
     vertex 2.5021131769e+00 2.5000000000e+00 1.4608416640e-01
     vertex 1.4433756730e+00 2.5000000000e+00 0.0000000000e+00
   endloop
 endfacet
 facet normal  -1.3626097034e-01 7.8670307906e-02 9.8754439425e-01
   outer loop
     vertex 0.0000000000e+00 0.0000000000e+00 0.0000000000e+00
     vertex 1.3030615433e+00 0.0000000000e+00 1.7979589711e-01
     vertex 2.5021131769e+00 2.5000000000e+00 1.4608416640e-01
   endloop
 endfacet
 facet normal  6.6507692941e-02 -1.8445926540e-02 9.9761539411e-01
   outer loop
     vertex 1.3030615433e+00 0.0000000000e+00 1.7979589711e-01
     vertex 4.0000000000e+00 0.0000000000e+00 0.0000000000e+00
     vertex 2.5021131769e+00 2.5000000000e+00 1.4608416640e-01
   endloop
 endfacet
 facet normal  6.6507692941e-02 -1.8445926540e-02 9.9761539411e-01
   outer loop
     vertex 2.5021131769e+00 2.5000000000e+00 1.4608416640e-01
     vertex 4.0000000000e+00 0.0000000000e+00 0.0000000000e+00
     vertex 4.6933756730e+00 2.5000000000e+00 0.0000000000e+00
   endloop
 endfacet
 facet normal  6.6507692941e-02 -1.8445926540e-02 -9.9761539411e-01
   outer loop
     vertex 4.6933756730e+00 2.5000000000e+00 0.0000000000e+00
     vertex 3.7011648105e+00 5.0000000000e+00 -1.1237243570e-01
     vertex 5.3867513459e+00 5.0000000000e+00 0.0000000000e+00
   endloop
 endfacet
 facet normal  6.6507692941e-02 -1.8445926540e-02 -9.9761539411e-01
   outer loop
     vertex 4.6933756730e+00 2.5000000000e+00 0.0000000000e+00
     vertex 2.5021131769e+00 2.5000000000e+00 -1.4608416640e-01
     vertex 3.7011648105e+00 5.0000000000e+00 -1.1237243570e-01
   endloop
 endfacet
 facet normal  -1.3626097034e-01 7.8670307906e-02 -9.8754439425e-01
   outer loop
     vertex 2.5021131769e+00 2.5000000000e+00 -1.4608416640e-01
     vertex 1.4433756730e+00 2.5000000000e+00 0.0000000000e+00
     vertex 3.7011648105e+00 5.0000000000e+00 -1.1237243570e-01
   endloop
 endfacet
 facet normal  -1.3626097034e-01 7.8670307906e-02 -9.8754439425e-01
   outer loop
     vertex 3.7011648105e+00 5.0000000000e+00 -1.1237243570e-01
     vertex 1.4433756730e+00 2.5000000000e+00 0.0000000000e+00
     vertex 2.8867513459e+00 5.0000000000e+00 0.0000000000e+00
   endloop
 endfacet
 facet normal  -1.3626097034e-01 7.8670307906e-02 9.8754439425e-01
   outer loop
     vertex 1.4433756730e+00 2.5000000000e+00 0.0000000000e+00
     vertex 3.7011648105e+00 5.0000000000e+00 1.1237243570e-01
     vertex 2.8867513459e+00 5.0000000000e+00 0.0000000000e+00
   endloop
 endfacet
 facet normal  -1.3626097034e-01 7.8670307906e-02 9.8754439425e-01
   outer loop
     vertex 1.4433756730e+00 2.5000000000e+00 0.0000000000e+00
     vertex 2.5021131769e+00 2.5000000000e+00 1.4608416640e-01
     vertex 3.7011648105e+00 5.0000000000e+00 1.1237243570e-01
   endloop
 endfacet
 facet normal  6.6507692941e-02 -1.8445926540e-02 9.9761539411e-01
   outer loop
     vertex 2.5021131769e+00 2.5000000000e+00 1.4608416640e-01
     vertex 4.6933756730e+00 2.5000000000e+00 0.0000000000e+00
     vertex 3.7011648105e+00 5.0000000000e+00 1.1237243570e-01
   endloop
 endfacet
 facet normal  6.6507692941e-02 -1.8445926540e-02 9.9761539411e-01
   outer loop
     vertex 3.7011648105e+00 5.0000000000e+00 1.1237243570e-01
     vertex 4.6933756730e+00 2.5000000000e+00 0.0000000000e+00
     vertex 5.3867513459e+00 5.0000000000e+00 0.0000000000e+00
   endloop
 endfacet
 facet normal  6.6507692941e-02 -1.8445926540e-02 -9.9761539411e-01
   outer loop
     vertex 5.3867513459e+00 5.0000000000e+00 0.0000000000e+00
     vertex 4.9002164441e+00 7.5000000000e+00 -7.8660704987e-02
     vertex 6.0801270189e+00 7.5000000000e+00 0.0000000000e+00
   endloop
 endfacet
 facet normal  6.6507692941e-02 -1.8445926540e-02 -9.9761539411e-01
   outer loop
     vertex 5.3867513459e+00 5.0000000000e+00 0.0000000000e+00
     vertex 3.7011648105e+00 5.0000000000e+00 -1.1237243570e-01
     vertex 4.9002164441e+00 7.5000000000e+00 -7.8660704987e-02
   endloop
 endfacet
 facet normal  -1.3626097034e-01 7.8670307906e-02 -9.8754439425e-01
   outer loop
     vertex 3.7011648105e+00 5.0000000000e+00 -1.1237243570e-01
     vertex 2.8867513459e+00 5.0000000000e+00 0.0000000000e+00
     vertex 4.9002164441e+00 7.5000000000e+00 -7.8660704987e-02
   endloop
 endfacet
 facet normal  -1.3626097034e-01 7.8670307906e-02 -9.8754439425e-01
   outer loop
     vertex 4.9002164441e+00 7.5000000000e+00 -7.8660704987e-02
     vertex 2.8867513459e+00 5.0000000000e+00 0.0000000000e+00
     vertex 4.3301270189e+00 7.5000000000e+00 0.0000000000e+00
   endloop
 endfacet
 facet normal  -1.3626097034e-01 7.8670307906e-02 9.8754439425e-01
   outer loop
     vertex 2.8867513459e+00 5.0000000000e+00 0.0000000000e+00
     vertex 4.9002164441e+00 7.5000000000e+00 7.8660704987e-02
     vertex 4.3301270189e+00 7.5000000000e+00 0.0000000000e+00
   endloop
 endfacet
 facet normal  -1.3626097034e-01 7.8670307906e-02 9.8754439425e-01
   outer loop
     vertex 2.8867513459e+00 5.0000000000e+00 0.0000000000e+00
     vertex 3.7011648105e+00 5.0000000000e+00 1.1237243570e-01
     vertex 4.9002164441e+00 7.5000000000e+00 7.8660704987e-02
   endloop
 endfacet
 facet normal  6.6507692941e-02 -1.8445926540e-02 9.9761539411e-01
   outer loop
     vertex 3.7011648105e+00 5.0000000000e+00 1.1237243570e-01
     vertex 5.3867513459e+00 5.0000000000e+00 0.0000000000e+00
     vertex 4.9002164441e+00 7.5000000000e+00 7.8660704987e-02
   endloop
 endfacet
 facet normal  6.6507692941e-02 -1.8445926540e-02 9.9761539411e-01
   outer loop
     vertex 4.9002164441e+00 7.5000000000e+00 7.8660704987e-02
     vertex 5.3867513459e+00 5.0000000000e+00 0.0000000000e+00
     vertex 6.0801270189e+00 7.5000000000e+00 0.0000000000e+00
   endloop
 endfacet
 facet normal  6.6507692941e-02 -1.8445926540e-02 -9.9761539411e-01
   outer loop
     vertex 6.0801270189e+00 7.5000000000e+00 0.0000000000e+00
     vertex 6.0992680777e+00 1.0000000000e+01 -4.4948974278e-02
     vertex 6.7735026919e+00 1.0000000000e+01 0.0000000000e+00
   endloop
 endfacet
 facet normal  6.6507692941e-02 -1.8445926540e-02 -9.9761539411e-01
   outer loop
     vertex 6.0801270189e+00 7.5000000000e+00 0.0000000000e+00
     vertex 4.9002164441e+00 7.5000000000e+00 -7.8660704987e-02
     vertex 6.0992680777e+00 1.0000000000e+01 -4.4948974278e-02
   endloop
 endfacet
 facet normal  -1.3626097034e-01 7.8670307906e-02 -9.8754439425e-01
   outer loop
     vertex 4.9002164441e+00 7.5000000000e+00 -7.8660704987e-02
     vertex 4.3301270189e+00 7.5000000000e+00 0.0000000000e+00
     vertex 6.0992680777e+00 1.0000000000e+01 -4.4948974278e-02
   endloop
 endfacet
 facet normal  -1.3626097034e-01 7.8670307906e-02 -9.8754439425e-01
   outer loop
     vertex 6.0992680777e+00 1.0000000000e+01 -4.4948974278e-02
     vertex 4.3301270189e+00 7.5000000000e+00 0.0000000000e+00
     vertex 5.7735026919e+00 1.0000000000e+01 0.0000000000e+00
   endloop
 endfacet
 facet normal  -1.3626097034e-01 7.8670307906e-02 9.8754439425e-01
   outer loop
     vertex 4.3301270189e+00 7.5000000000e+00 0.0000000000e+00
     vertex 6.0992680777e+00 1.0000000000e+01 4.4948974278e-02
     vertex 5.7735026919e+00 1.0000000000e+01 0.0000000000e+00
   endloop
 endfacet
 facet normal  -1.3626097034e-01 7.8670307906e-02 9.8754439425e-01
   outer loop
     vertex 4.3301270189e+00 7.5000000000e+00 0.0000000000e+00
     vertex 4.9002164441e+00 7.5000000000e+00 7.8660704987e-02
     vertex 6.0992680777e+00 1.0000000000e+01 4.4948974278e-02
   endloop
 endfacet
 facet normal  6.6507692941e-02 -1.8445926540e-02 9.9761539411e-01
   outer loop
     vertex 4.9002164441e+00 7.5000000000e+00 7.8660704987e-02
     vertex 6.0801270189e+00 7.5000000000e+00 0.0000000000e+00
     vertex 6.0992680777e+00 1.0000000000e+01 4.4948974278e-02
   endloop
 endfacet
 facet normal  6.6507692941e-02 -1.8445926540e-02 9.9761539411e-01
   outer loop
     vertex 6.0992680777e+00 1.0000000000e+01 4.4948974278e-02
     vertex 6.0801270189e+00 7.5000000000e+00 0.0000000000e+00
     vertex 6.7735026919e+00 1.0000000000e+01 0.0000000000e+00
   endloop
 endfacet
 facet normal  6.0910989535e-02 4.0187859605e-01 -9.1366484303e-01
   outer loop
     vertex 6.7735026919e+00 1.0000000000e+01 0.0000000000e+00
     vertex 6.0992680777e+00 1.0000000000e+01 -4.4948974278e-02
     vertex 6.1128828471e+00 1.0028318847e+01 -3.1585181426e-02
   endloop
 endfacet
 facet normal  -1.2061128519e-01 4.7048907449e-01 -8.7412410370e-01
   outer loop
     vertex 6.0992680777e+00 1.0000000000e+01 -4.4948974278e-02
     vertex 5.7735026919e+00 1.0000000000e+01 0.0000000000e+00
     vertex 6.1128828471e+00 1.0028318847e+01 -3.1585181426e-02
   endloop
 endfacet
 facet normal  -1.2061128519e-01 4.7048907449e-01 8.7412410370e-01
   outer loop
     vertex 5.7735026919e+00 1.0000000000e+01 0.0000000000e+00
     vertex 6.0992680777e+00 1.0000000000e+01 4.4948974278e-02
     vertex 6.1128828471e+00 1.0028318847e+01 3.1585181426e-02
   endloop
 endfacet
 facet normal  6.0910989535e-02 4.0187859605e-01 9.1366484303e-01
   outer loop
     vertex 6.0992680777e+00 1.0000000000e+01 4.4948974278e-02
     vertex 6.7735026919e+00 1.0000000000e+01 0.0000000000e+00
     vertex 6.1128828471e+00 1.0028318847e+01 3.1585181426e-02
   endloop
 endfacet
 facet normal  5.6992566598e-02 9.3289701772e-01 -3.5560512044e-01
   outer loop
     vertex 6.7735026919e+00 1.0000000000e+01 0.0000000000e+00
     vertex 6.1128828471e+00 1.0028318847e+01 -3.1585181426e-02
     vertex 6.1185059620e+00 1.0040015076e+01 -1.2416735175e-18
   endloop
 endfacet
 facet normal  -1.0883435562e-01 9.3835155780e-01 -3.2810278422e-01
   outer loop
     vertex 6.1128828471e+00 1.0028318847e+01 -3.1585181426e-02
     vertex 5.7735026919e+00 1.0000000000e+01 0.0000000000e+00
     vertex 6.1185059620e+00 1.0040015076e+01 -1.2416735175e-18
   endloop
 endfacet
 facet normal  -1.0883435562e-01 9.3835155780e-01 3.2810278422e-01
   outer loop
     vertex 5.7735026919e+00 1.0000000000e+01 0.0000000000e+00
     vertex 6.1128828471e+00 1.0028318847e+01 3.1585181426e-02
     vertex 6.1185059620e+00 1.0040015076e+01 -1.2416735175e-18
   endloop
 endfacet
 facet normal  5.6992566598e-02 9.3289701772e-01 3.5560512044e-01
   outer loop
     vertex 6.1128828471e+00 1.0028318847e+01 3.1585181426e-02
     vertex 6.7735026919e+00 1.0000000000e+01 0.0000000000e+00
     vertex 6.1185059620e+00 1.0040015076e+01 -1.2416735175e-18
   endloop
 endfacet
 facet normal  6.6507692941e-02 1.8445926540e-02 -9.9761539411e-01
   outer loop
     vertex 4.0000000000e+00 0.0000000000e+00 0.0000000000e+00
     vertex 4.6933756730e+00 -2.5000000000e+00 0.0000000000e+00
     vertex 2.5021131769e+00 -2.5000000000e+00 -1.4608416640e-01
   endloop
 endfacet
 facet normal  6.6507692941e-02 1.8445926540e-02 -9.9761539411e-01
   outer loop
     vertex 4.0000000000e+00 0.0000000000e+00 0.0000000000e+00
     vertex 2.5021131769e+00 -2.5000000000e+00 -1.4608416640e-01
     vertex 1.3030615433e+00 0.0000000000e+00 -1.7979589711e-01
   endloop
 endfacet
 facet normal  -1.3626097034e-01 -7.8670307906e-02 -9.8754439425e-01
   outer loop
     vertex 1.3030615433e+00 0.0000000000e+00 -1.7979589711e-01
     vertex 2.5021131769e+00 -2.5000000000e+00 -1.4608416640e-01
     vertex 0.0000000000e+00 0.0000000000e+00 0.0000000000e+00
   endloop
 endfacet
 facet normal  -1.3626097034e-01 -7.8670307906e-02 -9.8754439425e-01
   outer loop
     vertex 2.5021131769e+00 -2.5000000000e+00 -1.4608416640e-01
     vertex 1.4433756730e+00 -2.5000000000e+00 0.0000000000e+00
     vertex 0.0000000000e+00 0.0000000000e+00 0.0000000000e+00
   endloop
 endfacet
 facet normal  -1.3626097034e-01 -7.8670307906e-02 9.8754439425e-01
   outer loop
     vertex 0.0000000000e+00 0.0000000000e+00 0.0000000000e+00
     vertex 1.4433756730e+00 -2.5000000000e+00 0.0000000000e+00
     vertex 2.5021131769e+00 -2.5000000000e+00 1.4608416640e-01
   endloop
 endfacet
 facet normal  -1.3626097034e-01 -7.8670307906e-02 9.8754439425e-01
   outer loop
     vertex 0.0000000000e+00 0.0000000000e+00 0.0000000000e+00
     vertex 2.5021131769e+00 -2.5000000000e+00 1.4608416640e-01
     vertex 1.3030615433e+00 0.0000000000e+00 1.7979589711e-01
   endloop
 endfacet
 facet normal  6.6507692941e-02 1.8445926540e-02 9.9761539411e-01
   outer loop
     vertex 1.3030615433e+00 0.0000000000e+00 1.7979589711e-01
     vertex 2.5021131769e+00 -2.5000000000e+00 1.4608416640e-01
     vertex 4.0000000000e+00 0.0000000000e+00 0.0000000000e+00
   endloop
 endfacet
 facet normal  6.6507692941e-02 1.8445926540e-02 9.9761539411e-01
   outer loop
     vertex 2.5021131769e+00 -2.5000000000e+00 1.4608416640e-01
     vertex 4.6933756730e+00 -2.5000000000e+00 0.0000000000e+00
     vertex 4.0000000000e+00 0.0000000000e+00 0.0000000000e+00
   endloop
 endfacet
 facet normal  6.6507692941e-02 1.8445926540e-02 -9.9761539411e-01
   outer loop
     vertex 4.6933756730e+00 -2.5000000000e+00 0.0000000000e+00
     vertex 5.3867513459e+00 -5.0000000000e+00 0.0000000000e+00
     vertex 3.7011648105e+00 -5.0000000000e+00 -1.1237243570e-01
   endloop
 endfacet
 facet normal  6.6507692941e-02 1.8445926540e-02 -9.9761539411e-01
   outer loop
     vertex 4.6933756730e+00 -2.5000000000e+00 0.0000000000e+00
     vertex 3.7011648105e+00 -5.0000000000e+00 -1.1237243570e-01
     vertex 2.5021131769e+00 -2.5000000000e+00 -1.4608416640e-01
   endloop
 endfacet
 facet normal  -1.3626097034e-01 -7.8670307906e-02 -9.8754439425e-01
   outer loop
     vertex 2.5021131769e+00 -2.5000000000e+00 -1.4608416640e-01
     vertex 3.7011648105e+00 -5.0000000000e+00 -1.1237243570e-01
     vertex 1.4433756730e+00 -2.5000000000e+00 0.0000000000e+00
   endloop
 endfacet
 facet normal  -1.3626097034e-01 -7.8670307906e-02 -9.8754439425e-01
   outer loop
     vertex 3.7011648105e+00 -5.0000000000e+00 -1.1237243570e-01
     vertex 2.8867513459e+00 -5.0000000000e+00 0.0000000000e+00
     vertex 1.4433756730e+00 -2.5000000000e+00 0.0000000000e+00
   endloop
 endfacet
 facet normal  -1.3626097034e-01 -7.8670307906e-02 9.8754439425e-01
   outer loop
     vertex 1.4433756730e+00 -2.5000000000e+00 0.0000000000e+00
     vertex 2.8867513459e+00 -5.0000000000e+00 0.0000000000e+00
     vertex 3.7011648105e+00 -5.0000000000e+00 1.1237243570e-01
   endloop
 endfacet
 facet normal  -1.3626097034e-01 -7.8670307906e-02 9.8754439425e-01
   outer loop
     vertex 1.4433756730e+00 -2.5000000000e+00 0.0000000000e+00
     vertex 3.7011648105e+00 -5.0000000000e+00 1.1237243570e-01
     vertex 2.5021131769e+00 -2.5000000000e+00 1.4608416640e-01
   endloop
 endfacet
 facet normal  6.6507692941e-02 1.8445926540e-02 9.9761539411e-01
   outer loop
     vertex 2.5021131769e+00 -2.5000000000e+00 1.4608416640e-01
     vertex 3.7011648105e+00 -5.0000000000e+00 1.1237243570e-01
     vertex 4.6933756730e+00 -2.5000000000e+00 0.0000000000e+00
   endloop
 endfacet
 facet normal  6.6507692941e-02 1.8445926540e-02 9.9761539411e-01
   outer loop
     vertex 3.7011648105e+00 -5.0000000000e+00 1.1237243570e-01
     vertex 5.3867513459e+00 -5.0000000000e+00 0.0000000000e+00
     vertex 4.6933756730e+00 -2.5000000000e+00 0.0000000000e+00
   endloop
 endfacet
 facet normal  6.6507692941e-02 1.8445926540e-02 -9.9761539411e-01
   outer loop
     vertex 5.3867513459e+00 -5.0000000000e+00 0.0000000000e+00
     vertex 6.0801270189e+00 -7.5000000000e+00 0.0000000000e+00
     vertex 4.9002164441e+00 -7.5000000000e+00 -7.8660704987e-02
   endloop
 endfacet
 facet normal  6.6507692941e-02 1.8445926540e-02 -9.9761539411e-01
   outer loop
     vertex 5.3867513459e+00 -5.0000000000e+00 0.0000000000e+00
     vertex 4.9002164441e+00 -7.5000000000e+00 -7.8660704987e-02
     vertex 3.7011648105e+00 -5.0000000000e+00 -1.1237243570e-01
   endloop
 endfacet
 facet normal  -1.3626097034e-01 -7.8670307906e-02 -9.8754439425e-01
   outer loop
     vertex 3.7011648105e+00 -5.0000000000e+00 -1.1237243570e-01
     vertex 4.9002164441e+00 -7.5000000000e+00 -7.8660704987e-02
     vertex 2.8867513459e+00 -5.0000000000e+00 0.0000000000e+00
   endloop
 endfacet
 facet normal  -1.3626097034e-01 -7.8670307906e-02 -9.8754439425e-01
   outer loop
     vertex 4.9002164441e+00 -7.5000000000e+00 -7.8660704987e-02
     vertex 4.3301270189e+00 -7.5000000000e+00 0.0000000000e+00
     vertex 2.8867513459e+00 -5.0000000000e+00 0.0000000000e+00
   endloop
 endfacet
 facet normal  -1.3626097034e-01 -7.8670307906e-02 9.8754439425e-01
   outer loop
     vertex 2.8867513459e+00 -5.0000000000e+00 0.0000000000e+00
     vertex 4.3301270189e+00 -7.5000000000e+00 0.0000000000e+00
     vertex 4.9002164441e+00 -7.5000000000e+00 7.8660704987e-02
   endloop
 endfacet
 facet normal  -1.3626097034e-01 -7.8670307906e-02 9.8754439425e-01
   outer loop
     vertex 2.8867513459e+00 -5.0000000000e+00 0.0000000000e+00
     vertex 4.9002164441e+00 -7.5000000000e+00 7.8660704987e-02
     vertex 3.7011648105e+00 -5.0000000000e+00 1.1237243570e-01
   endloop
 endfacet
 facet normal  6.6507692941e-02 1.8445926540e-02 9.9761539411e-01
   outer loop
     vertex 3.7011648105e+00 -5.0000000000e+00 1.1237243570e-01
     vertex 4.9002164441e+00 -7.5000000000e+00 7.8660704987e-02
     vertex 5.3867513459e+00 -5.0000000000e+00 0.0000000000e+00
   endloop
 endfacet
 facet normal  6.6507692941e-02 1.8445926540e-02 9.9761539411e-01
   outer loop
     vertex 4.9002164441e+00 -7.5000000000e+00 7.8660704987e-02
     vertex 6.0801270189e+00 -7.5000000000e+00 0.0000000000e+00
     vertex 5.3867513459e+00 -5.0000000000e+00 0.0000000000e+00
   endloop
 endfacet
 facet normal  6.6507692941e-02 1.8445926540e-02 -9.9761539411e-01
   outer loop
     vertex 6.0801270189e+00 -7.5000000000e+00 0.0000000000e+00
     vertex 6.7735026919e+00 -1.0000000000e+01 0.0000000000e+00
     vertex 6.0992680777e+00 -1.0000000000e+01 -4.4948974278e-02
   endloop
 endfacet
 facet normal  6.6507692941e-02 1.8445926540e-02 -9.9761539411e-01
   outer loop
     vertex 6.0801270189e+00 -7.5000000000e+00 0.0000000000e+00
     vertex 6.0992680777e+00 -1.0000000000e+01 -4.4948974278e-02
     vertex 4.9002164441e+00 -7.5000000000e+00 -7.8660704987e-02
   endloop
 endfacet
 facet normal  -1.3626097034e-01 -7.8670307906e-02 -9.8754439425e-01
   outer loop
     vertex 4.9002164441e+00 -7.5000000000e+00 -7.8660704987e-02
     vertex 6.0992680777e+00 -1.0000000000e+01 -4.4948974278e-02
     vertex 4.3301270189e+00 -7.5000000000e+00 0.0000000000e+00
   endloop
 endfacet
 facet normal  -1.3626097034e-01 -7.8670307906e-02 -9.8754439425e-01
   outer loop
     vertex 6.0992680777e+00 -1.0000000000e+01 -4.4948974278e-02
     vertex 5.7735026919e+00 -1.0000000000e+01 0.0000000000e+00
     vertex 4.3301270189e+00 -7.5000000000e+00 0.0000000000e+00
   endloop
 endfacet
 facet normal  -1.3626097034e-01 -7.8670307906e-02 9.8754439425e-01
   outer loop
     vertex 4.3301270189e+00 -7.5000000000e+00 0.0000000000e+00
     vertex 5.7735026919e+00 -1.0000000000e+01 0.0000000000e+00
     vertex 6.0992680777e+00 -1.0000000000e+01 4.4948974278e-02
   endloop
 endfacet
 facet normal  -1.3626097034e-01 -7.8670307906e-02 9.8754439425e-01
   outer loop
     vertex 4.3301270189e+00 -7.5000000000e+00 0.0000000000e+00
     vertex 6.0992680777e+00 -1.0000000000e+01 4.4948974278e-02
     vertex 4.9002164441e+00 -7.5000000000e+00 7.8660704987e-02
   endloop
 endfacet
 facet normal  6.6507692941e-02 1.8445926540e-02 9.9761539411e-01
   outer loop
     vertex 4.9002164441e+00 -7.5000000000e+00 7.8660704987e-02
     vertex 6.0992680777e+00 -1.0000000000e+01 4.4948974278e-02
     vertex 6.0801270189e+00 -7.5000000000e+00 0.0000000000e+00
   endloop
 endfacet
 facet normal  6.6507692941e-02 1.8445926540e-02 9.9761539411e-01
   outer loop
     vertex 6.0992680777e+00 -1.0000000000e+01 4.4948974278e-02
     vertex 6.7735026919e+00 -1.0000000000e+01 0.0000000000e+00
     vertex 6.0801270189e+00 -7.5000000000e+00 0.0000000000e+00
   endloop
 endfacet
 facet normal  6.0910989535e-02 -4.0187859605e-01 -9.1366484303e-01
   outer loop
     vertex 6.7735026919e+00 -1.0000000000e+01 0.0000000000e+00
     vertex 6.1128828471e+00 -1.0028318847e+01 -3.1585181426e-02
     vertex 6.0992680777e+00 -1.0000000000e+01 -4.4948974278e-02
   endloop
 endfacet
 facet normal  -1.2061128519e-01 -4.7048907449e-01 -8.7412410370e-01
   outer loop
     vertex 6.0992680777e+00 -1.0000000000e+01 -4.4948974278e-02
     vertex 6.1128828471e+00 -1.0028318847e+01 -3.1585181426e-02
     vertex 5.7735026919e+00 -1.0000000000e+01 0.0000000000e+00
   endloop
 endfacet
 facet normal  -1.2061128519e-01 -4.7048907449e-01 8.7412410370e-01
   outer loop
     vertex 5.7735026919e+00 -1.0000000000e+01 0.0000000000e+00
     vertex 6.1128828471e+00 -1.0028318847e+01 3.1585181426e-02
     vertex 6.0992680777e+00 -1.0000000000e+01 4.4948974278e-02
   endloop
 endfacet
 facet normal  6.0910989535e-02 -4.0187859605e-01 9.1366484303e-01
   outer loop
     vertex 6.0992680777e+00 -1.0000000000e+01 4.4948974278e-02
     vertex 6.1128828471e+00 -1.0028318847e+01 3.1585181426e-02
     vertex 6.7735026919e+00 -1.0000000000e+01 0.0000000000e+00
   endloop
 endfacet
 facet normal  5.6992566598e-02 -9.3289701772e-01 -3.5560512044e-01
   outer loop
     vertex 6.7735026919e+00 -1.0000000000e+01 0.0000000000e+00
     vertex 6.1185059620e+00 -1.0040015076e+01 -1.2416735175e-18
     vertex 6.1128828471e+00 -1.0028318847e+01 -3.1585181426e-02
   endloop
 endfacet
 facet normal  -1.0883435562e-01 -9.3835155780e-01 -3.2810278422e-01
   outer loop
     vertex 6.1128828471e+00 -1.0028318847e+01 -3.1585181426e-02
     vertex 6.1185059620e+00 -1.0040015076e+01 -1.2416735175e-18
     vertex 5.7735026919e+00 -1.0000000000e+01 0.0000000000e+00
   endloop
 endfacet
 facet normal  -1.0883435562e-01 -9.3835155780e-01 3.2810278422e-01
   outer loop
     vertex 5.7735026919e+00 -1.0000000000e+01 0.0000000000e+00
     vertex 6.1185059620e+00 -1.0040015076e+01 -1.2416735175e-18
     vertex 6.1128828471e+00 -1.0028318847e+01 3.1585181426e-02
   endloop
 endfacet
 facet normal  5.6992566598e-02 -9.3289701772e-01 3.5560512044e-01
   outer loop
     vertex 6.1128828471e+00 -1.0028318847e+01 3.1585181426e-02
     vertex 6.1185059620e+00 -1.0040015076e+01 -1.2416735175e-18
     vertex 6.7735026919e+00 -1.0000000000e+01 0.0000000000e+00
   endloop
 endfacet
endsolid
