solid
 facet normal  9.9479402374e-02 2.2106533861e-02 -9.9479402374e-01
   outer loop
     vertex 4.0000000000e+00 0.0000000000e+00 0.0000000000e+00
     vertex 2.0000000000e+00 0.0000000000e+00 -2.0000000000e-01
     vertex 2.0000000000e+00 9.0000000000e+00 0.0000000000e+00
   endloop
 endfacet
 facet normal  -9.9479402374e-02 2.2106533861e-02 -9.9479402374e-01
   outer loop
     vertex 2.0000000000e+00 0.0000000000e+00 -2.0000000000e-01
     vertex 0.0000000000e+00 0.0000000000e+00 0.0000000000e+00
     vertex 2.0000000000e+00 9.0000000000e+00 0.0000000000e+00
   endloop
 endfacet
 facet normal  -9.9479402374e-02 2.2106533861e-02 9.9479402374e-01
   outer loop
     vertex 0.0000000000e+00 0.0000000000e+00 0.0000000000e+00
     vertex 2.0000000000e+00 0.0000000000e+00 2.0000000000e-01
     vertex 2.0000000000e+00 9.0000000000e+00 0.0000000000e+00
   endloop
 endfacet
 facet normal  9.9479402374e-02 2.2106533861e-02 9.9479402374e-01
   outer loop
     vertex 2.0000000000e+00 0.0000000000e+00 2.0000000000e-01
     vertex 4.0000000000e+00 0.0000000000e+00 0.0000000000e+00
     vertex 2.0000000000e+00 9.0000000000e+00 0.0000000000e+00
   endloop
 endfacet
 facet normal  9.9479402374e-02 -2.2106533861e-02 -9.9479402374e-01
   outer loop
     vertex 4.0000000000e+00 0.0000000000e+00 0.0000000000e+00
     vertex 2.0000000000e+00 -9.0000000000e+00 0.0000000000e+00
     vertex 2.0000000000e+00 0.0000000000e+00 -2.0000000000e-01
   endloop
 endfacet
 facet normal  -9.9479402374e-02 -2.2106533861e-02 -9.9479402374e-01
   outer loop
     vertex 2.0000000000e+00 0.0000000000e+00 -2.0000000000e-01
     vertex 2.0000000000e+00 -9.0000000000e+00 0.0000000000e+00
     vertex 0.0000000000e+00 0.0000000000e+00 0.0000000000e+00
   endloop
 endfacet
 facet normal  -9.9479402374e-02 -2.2106533861e-02 9.9479402374e-01
   outer loop
     vertex 0.0000000000e+00 0.0000000000e+00 0.0000000000e+00
     vertex 2.0000000000e+00 -9.0000000000e+00 0.0000000000e+00
     vertex 2.0000000000e+00 0.0000000000e+00 2.0000000000e-01
   endloop
 endfacet
 facet normal  9.9479402374e-02 -2.2106533861e-02 9.9479402374e-01
   outer loop
     vertex 2.0000000000e+00 0.0000000000e+00 2.0000000000e-01
     vertex 2.0000000000e+00 -9.0000000000e+00 0.0000000000e+00
     vertex 4.0000000000e+00 0.0000000000e+00 0.0000000000e+00
   endloop
 endfacet
 facet normal  2.7071225610e-01 2.2106533861e-02 -9.6240645029e-01
   outer loop
     vertex 1.2293661392e+01 0.0000000000e+00 1.1218079005e+00
     vertex 1.0358775521e+01 0.0000000000e+00 5.7754999460e-01
     vertex 1.0324045886e+01 9.0000000000e+00 7.7451154521e-01
   endloop
 endfacet
 facet normal  7.4776082653e-02 2.2106533861e-02 -9.9695528416e-01
   outer loop
     vertex 1.0358775521e+01 0.0000000000e+00 5.7754999460e-01
     vertex 8.3544303797e+00 0.0000000000e+00 4.2721518987e-01
     vertex 1.0324045886e+01 9.0000000000e+00 7.7451154521e-01
   endloop
 endfacet
 facet normal  -2.7071225610e-01 2.2106533861e-02 9.6240645029e-01
   outer loop
     vertex 8.3544303797e+00 0.0000000000e+00 4.2721518987e-01
     vertex 1.0289316250e+01 0.0000000000e+00 9.7147309581e-01
     vertex 1.0324045886e+01 9.0000000000e+00 7.7451154521e-01
   endloop
 endfacet
 facet normal  -7.4776082653e-02 2.2106533861e-02 9.9695528416e-01
   outer loop
     vertex 1.0289316250e+01 0.0000000000e+00 9.7147309581e-01
     vertex 1.2293661392e+01 0.0000000000e+00 1.1218079005e+00
     vertex 1.0324045886e+01 9.0000000000e+00 7.7451154521e-01
   endloop
 endfacet
 facet normal  2.7071225610e-01 -2.2106533861e-02 -9.6240645029e-01
   outer loop
     vertex 1.2293661392e+01 0.0000000000e+00 1.1218079005e+00
     vertex 1.0324045886e+01 -9.0000000000e+00 7.7451154521e-01
     vertex 1.0358775521e+01 0.0000000000e+00 5.7754999460e-01
   endloop
 endfacet
 facet normal  7.4776082653e-02 -2.2106533861e-02 -9.9695528416e-01
   outer loop
     vertex 1.0358775521e+01 0.0000000000e+00 5.7754999460e-01
     vertex 1.0324045886e+01 -9.0000000000e+00 7.7451154521e-01
     vertex 8.3544303797e+00 0.0000000000e+00 4.2721518987e-01
   endloop
 endfacet
 facet normal  -2.7071225610e-01 -2.2106533861e-02 9.6240645029e-01
   outer loop
     vertex 8.3544303797e+00 0.0000000000e+00 4.2721518987e-01
     vertex 1.0324045886e+01 -9.0000000000e+00 7.7451154521e-01
     vertex 1.0289316250e+01 0.0000000000e+00 9.7147309581e-01
   endloop
 endfacet
 facet normal  -7.4776082653e-02 -2.2106533861e-02 9.9695528416e-01
   outer loop
     vertex 1.0289316250e+01 0.0000000000e+00 9.7147309581e-01
     vertex 1.0324045886e+01 -9.0000000000e+00 7.7451154521e-01
     vertex 1.2293661392e+01 0.0000000000e+00 1.1218079005e+00
   endloop
 endfacet
endsolid
