# vtk DataFile Version 3.0
MachLine results file. Generated by MachLine, USU AeroLab (c) 2023.
ASCII
DATASET POLYDATA
POINTS                   7 float
  0.567036768980E+00  0.000000000000E+00  0.000000000000E+00
  0.283518384490E+00  0.000000000000E+00 -0.291561459230E-01
  0.283518384490E+00  0.176355406690E+01  0.000000000000E+00
  0.000000000000E+00  0.000000000000E+00  0.000000000000E+00
  0.283518384490E+00  0.000000000000E+00  0.291561459230E-01
  0.283518384490E+00 -0.176355406690E+01  0.000000000000E+00
  0.567036768980E+00  0.000000000000E+00  0.000000000000E+00
POLYGONS                   8                  32
3                   0                   1                   2
3                   1                   3                   2
3                   3                   4                   2
3                   4                   6                   2
3                   0                   5                   1
3                   1                   5                   3
3                   3                   5                   4
3                   4                   5                   6
CELL_DATA                   8
NORMALS normals float
  0.102283551729E+00  0.164436508585E-01 -0.994619365080E+00
 -0.102283551729E+00  0.164436508585E-01 -0.994619365080E+00
 -0.102283551729E+00  0.164436508585E-01  0.994619365080E+00
  0.102283551729E+00  0.164436508585E-01  0.994619365080E+00
  0.102283551729E+00 -0.164436508585E-01 -0.994619365080E+00
 -0.102283551729E+00 -0.164436508585E-01 -0.994619365080E+00
 -0.102283551729E+00 -0.164436508585E-01  0.994619365080E+00
  0.102283551729E+00 -0.164436508585E-01  0.994619365080E+00
SCALARS inclination float 1
LOOKUP_TABLE default
  0.100000000000E+01
  0.100000000000E+01
  0.100000000000E+01
  0.100000000000E+01
  0.100000000000E+01
  0.100000000000E+01
  0.100000000000E+01
  0.100000000000E+01
SCALARS distribution_order float 1
LOOKUP_TABLE default
  0.100000000000E+01
  0.100000000000E+01
  0.100000000000E+01
  0.100000000000E+01
  0.100000000000E+01
  0.100000000000E+01
  0.100000000000E+01
  0.100000000000E+01
SCALARS N_discontinuous_edges float 1
LOOKUP_TABLE default
  0.200000000000E+01
  0.200000000000E+01
  0.200000000000E+01
  0.200000000000E+01
  0.200000000000E+01
  0.200000000000E+01
  0.200000000000E+01
  0.200000000000E+01
VECTORS centroid float
  0.378024512653E+00  0.587851355633E+00 -0.971871530767E-02
  0.189012256327E+00  0.587851355633E+00 -0.971871530767E-02
  0.189012256327E+00  0.587851355633E+00  0.971871530767E-02
  0.378024512653E+00  0.587851355633E+00  0.971871530767E-02
  0.378024512653E+00 -0.587851355633E+00 -0.971871530767E-02
  0.189012256327E+00 -0.587851355633E+00 -0.971871530767E-02
  0.189012256327E+00 -0.587851355633E+00  0.971871530767E-02
  0.378024512653E+00 -0.587851355633E+00  0.971871530767E-02
SCALARS C_p_ise float 1
LOOKUP_TABLE default
  0.776425979000E+00
  0.103050743443E+01
 -0.255785985962E+01
 -0.398324006939E+01
  0.776426197350E+00
  0.103050765782E+01
 -0.255785999610E+01
 -0.398324016259E+01
SCALARS sigma float 1
LOOKUP_TABLE default
  0.000000000000E+00
  0.000000000000E+00
  0.000000000000E+00
  0.000000000000E+00
  0.000000000000E+00
  0.000000000000E+00
  0.000000000000E+00
  0.000000000000E+00
VECTORS v float
 -0.484930798324E+00  0.153114985757E+00 -0.351193943916E-01
  0.664199518943E-01  0.153274487225E+00 -0.447670845714E-01
  0.201823478674E+01 -0.160509705267E+00  0.201790337125E+00
  0.259778118304E+01 -0.167094683478E+00 -0.196512138594E+00
 -0.484930797225E+00 -0.153114332597E+00 -0.351194050799E-01
  0.664199507873E-01 -0.153273834066E+00 -0.447670953359E-01
  0.201823478564E+01  0.160510358427E+00  0.201790347814E+00
  0.259778118415E+01  0.167095336636E+00 -0.196512127829E+00
VECTORS v_inner float
 -0.333333333333E+00  0.000000000000E+00 -0.233089373145E-01
 -0.333333333333E+00  0.000000000000E+00 -0.233089373145E-01
 -0.333333333333E+00  0.000000000000E+00 -0.233089373145E-01
 -0.333333333333E+00  0.000000000000E+00 -0.233089373145E-01
 -0.333333333333E+00  0.000000000000E+00 -0.233089373145E-01
 -0.333333333333E+00  0.000000000000E+00 -0.233089373145E-01
 -0.333333333333E+00  0.000000000000E+00 -0.233089373145E-01
 -0.333333333333E+00  0.000000000000E+00 -0.233089373145E-01
VECTORS dC_f float
 -0.199613061982E-01 -0.320908635116E-02  0.194106494753E+00
  0.264935421980E-01 -0.425924354936E-02  0.257626858613E+00
 -0.657605814990E-01  0.105720228144E-01  0.639464964915E+00
  0.102405994694E+00  0.164633354445E-01  0.995810017364E+00
 -0.199613118118E-01  0.320908725364E-02  0.194106549341E+00
  0.264935479411E-01  0.425924447265E-02  0.257626914459E+00
 -0.657605850077E-01 -0.105720233785E-01  0.639464999035E+00
  0.102405997091E+00 -0.164633358297E-01  0.995810040665E+00
POINT_DATA                   7
SCALARS mu float 1
LOOKUP_TABLE default
  0.655397572291E-01
  0.108759235445E+00
  0.377784511564E+00
 -0.492619880620E-02
  0.666709556845E+00
  0.377783362177E+00
  0.150074771092E+01
SCALARS Phi_u float 1
LOOKUP_TABLE default
 -0.123312457690E+00
  0.151982850277E-01
  0.284200894675E+00
 -0.493822808161E-02
  0.573151866691E+00
  0.284199742481E+00
  0.131540012755E+01
SCALARS convex float 1
LOOKUP_TABLE default
  0.100000000000E+01
  0.100000000000E+01
  0.100000000000E+01
  0.100000000000E+01
  0.100000000000E+01
  0.100000000000E+01
  0.100000000000E+01
VECTORS CFx_sensitivity_adjoint float
  0.540791195366E-01  0.638718052034E+00 -0.843708561156E+01
  0.427723534242E+00  0.455364595498E-01  0.564419988882E-01
  0.792437304005E-01  0.268059000101E-02 -0.113760899330E-03
 -0.162238242731E+00  0.166719324371E-07  0.607672027070E+01
 -0.762686360594E-01 -0.206839110860E+00  0.223455648524E+01
  0.866442691896E-01  0.187807734079E+00  0.301655879573E-01
  0.540791195366E-01  0.638718052034E+00 -0.843708561156E+01
VECTORS CFy_sensitivity_adjoint float
  0.115754785815E-05  0.154856323300E-01 -0.185051870137E-04
  0.108461617523E-07 -0.490072587864E-02 -0.618717810478E-07
 -0.215461790503E-01 -0.375563104746E-03 -0.118329287399E+01
 -0.498524216858E-09 -0.116124290837E-01 -0.239670886372E-08
 -0.129928972274E-07  0.178029578290E-02 -0.315835446897E-07
  0.215450148661E-01 -0.377208491404E-03  0.118331147422E+01
  0.115754785815E-05  0.154856323300E-01 -0.185051870137E-04
VECTORS CFz_sensitivity_adjoint float
  0.116857350339E+02  0.990290297259E+01 -0.843590568848E+01
 -0.236162903510E+01  0.705990020850E+00  0.890915965986E+01
 -0.389901220058E+00  0.118633539338E+01  0.820127635138E+00
 -0.212487740626E+01  0.107768410547E-05  0.229695177066E-02
 -0.190729670526E+00 -0.320675562203E+01 -0.319479616391E+01
 -0.275057942077E+00  0.176639250239E+01  0.128957776183E+01
  0.116857350339E+02  0.990290297259E+01 -0.843590568848E+01
