# vtk DataFile Version 3.0
MachLine results file. Generated by MachLine, USU AeroLab (c) 2023.
ASCII
DATASET POLYDATA
POINTS                   7 float
  0.567036768980E+00  0.000000000000E+00  0.000000000000E+00
  0.283518384490E+00  0.000000000000E+00 -0.291561459230E-01
  0.283518384490E+00  0.176355406690E+01  0.000000000000E+00
  0.000000000000E+00  0.000000000000E+00  0.000000000000E+00
  0.283518384490E+00  0.000000000000E+00  0.291561459230E-01
  0.283518384490E+00 -0.176355406690E+01  0.000000000000E+00
  0.567036768980E+00  0.000000000000E+00  0.000000000000E+00
POLYGONS                   8                  32
3                   0                   1                   2
3                   1                   3                   2
3                   3                   4                   2
3                   4                   6                   2
3                   0                   5                   1
3                   1                   5                   3
3                   3                   5                   4
3                   4                   5                   6
CELL_DATA                   8
NORMALS normals float
  0.102283551729E+00  0.164436508585E-01 -0.994619365080E+00
 -0.102283551729E+00  0.164436508585E-01 -0.994619365080E+00
 -0.102283551729E+00  0.164436508585E-01  0.994619365080E+00
  0.102283551729E+00  0.164436508585E-01  0.994619365080E+00
  0.102283551729E+00 -0.164436508585E-01 -0.994619365080E+00
 -0.102283551729E+00 -0.164436508585E-01 -0.994619365080E+00
 -0.102283551729E+00 -0.164436508585E-01  0.994619365080E+00
  0.102283551729E+00 -0.164436508585E-01  0.994619365080E+00
SCALARS inclination float 1
LOOKUP_TABLE default
  0.100000000000E+01
  0.100000000000E+01
  0.100000000000E+01
  0.100000000000E+01
  0.100000000000E+01
  0.100000000000E+01
  0.100000000000E+01
  0.100000000000E+01
SCALARS distribution_order float 1
LOOKUP_TABLE default
  0.100000000000E+01
  0.100000000000E+01
  0.100000000000E+01
  0.100000000000E+01
  0.100000000000E+01
  0.100000000000E+01
  0.100000000000E+01
  0.100000000000E+01
SCALARS N_discontinuous_edges float 1
LOOKUP_TABLE default
  0.200000000000E+01
  0.200000000000E+01
  0.200000000000E+01
  0.200000000000E+01
  0.200000000000E+01
  0.200000000000E+01
  0.200000000000E+01
  0.200000000000E+01
VECTORS centroid float
  0.378024512653E+00  0.587851355633E+00 -0.971871530767E-02
  0.189012256327E+00  0.587851355633E+00 -0.971871530767E-02
  0.189012256327E+00  0.587851355633E+00  0.971871530767E-02
  0.378024512653E+00  0.587851355633E+00  0.971871530767E-02
  0.378024512653E+00 -0.587851355633E+00 -0.971871530767E-02
  0.189012256327E+00 -0.587851355633E+00 -0.971871530767E-02
  0.189012256327E+00 -0.587851355633E+00  0.971871530767E-02
  0.378024512653E+00 -0.587851355633E+00  0.971871530767E-02
SCALARS C_p_ise float 1
LOOKUP_TABLE default
 -0.764593059959E-01
  0.556746110696E-01
 -0.233577846473E+00
 -0.953695487115E-01
 -0.764593059959E-01
  0.556746110696E-01
 -0.233577846473E+00
 -0.953695487115E-01
SCALARS sigma float 1
LOOKUP_TABLE default
  0.000000000000E+00
  0.000000000000E+00
  0.000000000000E+00
  0.000000000000E+00
  0.000000000000E+00
  0.000000000000E+00
  0.000000000000E+00
  0.000000000000E+00
VECTORS v float
  0.103475219522E+01  0.944984531497E-02  0.106261581799E+00
  0.968872492140E+00  0.128809709856E-01 -0.101275300698E+00
  0.110913834937E+01 -0.966891846069E-02  0.113301777628E+00
  0.104400027021E+01 -0.132908934334E-01 -0.105778916722E+00
  0.103475219522E+01 -0.944984531497E-02  0.106261581799E+00
  0.968872492140E+00 -0.128809709856E-01 -0.101275300698E+00
  0.110913834937E+01  0.966891846069E-02  0.113301777628E+00
  0.104400027021E+01  0.132908934334E-01 -0.105778916722E+00
VECTORS v_inner float
 -0.333333333333E+00  0.000000000000E+00 -0.233089373145E-01
 -0.333333333333E+00  0.000000000000E+00 -0.233089373145E-01
 -0.333333333333E+00  0.000000000000E+00 -0.233089373145E-01
 -0.333333333333E+00  0.000000000000E+00 -0.233089373145E-01
 -0.333333333333E+00  0.000000000000E+00 -0.233089373145E-01
 -0.333333333333E+00  0.000000000000E+00 -0.233089373145E-01
 -0.333333333333E+00  0.000000000000E+00 -0.233089373145E-01
 -0.333333333333E+00  0.000000000000E+00 -0.233089373145E-01
VECTORS dC_f float
  0.196570910810E-02  0.316017910177E-03 -0.191148264993E-01
  0.143135081654E-02 -0.230111613112E-03  0.139186527676E-01
 -0.600510420912E-02  0.965412672069E-03  0.583944616192E-01
  0.245187669566E-02  0.394176811910E-03  0.238423871783E-01
  0.196570910810E-02 -0.316017910177E-03 -0.191148264993E-01
  0.143135081654E-02  0.230111613112E-03  0.139186527676E-01
 -0.600510420912E-02 -0.965412672069E-03  0.583944616192E-01
  0.245187669566E-02 -0.394176811910E-03  0.238423871783E-01
POINT_DATA                   7
SCALARS mu float 1
LOOKUP_TABLE default
  0.747433048471E+00
  0.356731924933E+00
  0.377125216692E+00
 -0.138356773300E-01
  0.398108679628E+00
  0.377125216692E+00
  0.790055490396E+00
SCALARS Phi_u float 1
LOOKUP_TABLE default
  0.560245947471E+00
  0.263776498550E+00
  0.283539989872E+00
 -0.138694626439E-01
  0.303895093508E+00
  0.283539989872E+00
  0.602972469055E+00
SCALARS convex float 1
LOOKUP_TABLE default
  0.100000000000E+01
  0.100000000000E+01
  0.100000000000E+01
  0.100000000000E+01
  0.100000000000E+01
  0.100000000000E+01
  0.100000000000E+01
VECTORS CFx_sensitivity_adjoint float
 -0.711772842185E-02  0.117483817226E-06  0.196655867883E-01
  0.145224673612E-01 -0.100860300372E-04 -0.267850778054E+00
  0.950886801748E-02 -0.180759550108E-03 -0.136661953437E-02
 -0.900067200789E-02 -0.193449921352E-08  0.534897422080E+00
 -0.174213662991E-01  0.880778119024E-05 -0.283978650189E+00
  0.950848059445E-02  0.181922249516E-03 -0.136695764710E-02
 -0.711772842185E-02  0.117483817226E-06  0.196655867883E-01
VECTORS CFy_sensitivity_adjoint float
 -0.486488844139E-10  0.235162816475E-03  0.654757507668E-09
 -0.339657005810E-12 -0.163516905390E-03  0.518772447594E-10
  0.963614705884E-04 -0.242661962961E-05 -0.436852014479E-01
 -0.669067719986E-12  0.124497997671E-03  0.256791349481E-10
 -0.339637918360E-12 -0.191290738959E-03  0.518772498071E-10
 -0.963614201244E-04 -0.242655016754E-05  0.436852006637E-01
 -0.486488844139E-10  0.235162816475E-03  0.654757507668E-09
VECTORS CFz_sensitivity_adjoint float
  0.203671445119E-01  0.157667278377E-02 -0.640330130707E+01
 -0.110759976093E+01  0.594845591733E-02  0.218590740694E+01
 -0.152196195009E-01  0.708889451138E-01  0.118226324383E+00
 -0.480528233820E-01  0.170499037594E-08  0.112509985275E+01
  0.116596981961E+01 -0.756485821052E-02  0.285561740558E+01
 -0.154727690529E-01 -0.708492172518E-01  0.118449757385E+00
  0.203671445119E-01  0.157667278377E-02 -0.640330130707E+01
