# vtk DataFile Version 3.0
MachLine results file. Generated by MachLine, USU AeroLab (c) 2023.
ASCII
DATASET POLYDATA
POINTS                   7 float
  0.567036768980E+00  0.000000000000E+00  0.000000000000E+00
  0.283518384490E+00  0.000000000000E+00 -0.291561459230E-01
  0.283518384490E+00  0.176355406690E+01  0.000000000000E+00
  0.000000000000E+00  0.000000000000E+00  0.000000000000E+00
  0.283518384490E+00  0.000000000000E+00  0.291561459230E-01
  0.283518384490E+00 -0.176355406690E+01  0.000000000000E+00
  0.567036768980E+00  0.000000000000E+00  0.000000000000E+00
POLYGONS                   8                  32
3                   0                   1                   2
3                   1                   3                   2
3                   3                   4                   2
3                   4                   6                   2
3                   0                   5                   1
3                   1                   5                   3
3                   3                   5                   4
3                   4                   5                   6
CELL_DATA                   8
NORMALS normals float
  0.102283551729E+00  0.164436508585E-01 -0.994619365080E+00
 -0.102283551729E+00  0.164436508585E-01 -0.994619365080E+00
 -0.102283551729E+00  0.164436508585E-01  0.994619365080E+00
  0.102283551729E+00  0.164436508585E-01  0.994619365080E+00
  0.102283551729E+00 -0.164436508585E-01 -0.994619365080E+00
 -0.102283551729E+00 -0.164436508585E-01 -0.994619365080E+00
 -0.102283551729E+00 -0.164436508585E-01  0.994619365080E+00
  0.102283551729E+00 -0.164436508585E-01  0.994619365080E+00
POINT_DATA                  7
VECTORS d_CFx_central_diff float
 3.823322516064E+04  2.753528856444E+04  4.745344478788E+03
-6.209739421765E+04  2.572760220985E+03  2.767538801640E+04
-3.178467786869E-01 -8.631379674980E-02  1.581705388466E-01
 3.897943875345E+04  3.044679141037E+04  1.367653232010E+03
 6.562272886733E+04  2.108284477141E+04  5.713749892430E+04
 1.254755710250E+01  7.517625605604E-02  1.107161633529E-01
 3.823322516064E+04  2.753528856444E+04  4.745344478788E+03
VECTORS d_CFy_central_diff float
-5.085915456143E-05  8.886235549482E-03 -6.224725535367E-04
-5.128851338857E-04 -1.902958927588E-04  1.061873176195E-04
-1.322474912240E-08 -8.014147241068E-07 -9.067927805124E-06
 3.737024847558E-04 -1.710296272314E-02  9.451010980765E-05
 5.695849805264E-04  1.034068933779E-03  9.668959218348E-04
 5.536614352750E-06 -8.015052583763E-07  2.830611331943E-06
-5.085915456143E-05  8.886235549482E-03 -6.224725535367E-04
VECTORS d_CFz_central_diff float
 2.927481313583E+06  9.068940178211E+05  1.042411791370E+05
-2.079571194104E+06  4.696146675775E+05  2.837791598444E+05
 1.309428241217E+02  1.414969790406E+01 -2.589652181404E+01
 5.154805626905E+05  1.777543375214E+05  2.268744913031E+04
 1.891169329976E+06  3.989924981839E+05  4.308991883331E+05
-4.925378676264E+03 -1.063587631348E+01 -5.942227643063E+00
 2.927481313583E+06  9.068940178211E+05  1.042411791370E+05
