# vtk DataFile Version 3.0
MachLine results file. Generated by MachLine, USU AeroLab (c) 2023.
ASCII
DATASET POLYDATA
POINTS                   7 float
  0.567036768980E+00  0.000000000000E+00  0.000000000000E+00
  0.283518384490E+00  0.000000000000E+00 -0.291561459230E-01
  0.283518384490E+00  0.176355406690E+01  0.000000000000E+00
  0.000000000000E+00  0.000000000000E+00  0.000000000000E+00
  0.283518384490E+00  0.000000000000E+00  0.291561459230E-01
  0.283518384490E+00 -0.176355406690E+01  0.000000000000E+00
  0.567036768980E+00  0.000000000000E+00  0.000000000000E+00
POLYGONS                   8                  32
3                   0                   1                   2
3                   1                   3                   2
3                   3                   4                   2
3                   4                   6                   2
3                   0                   5                   1
3                   1                   5                   3
3                   3                   5                   4
3                   4                   5                   6
CELL_DATA                   8
NORMALS normals float
  0.102283551729E+00  0.164436508585E-01 -0.994619365080E+00
 -0.102283551729E+00  0.164436508585E-01 -0.994619365080E+00
 -0.102283551729E+00  0.164436508585E-01  0.994619365080E+00
  0.102283551729E+00  0.164436508585E-01  0.994619365080E+00
  0.102283551729E+00 -0.164436508585E-01 -0.994619365080E+00
 -0.102283551729E+00 -0.164436508585E-01 -0.994619365080E+00
 -0.102283551729E+00 -0.164436508585E-01  0.994619365080E+00
  0.102283551729E+00 -0.164436508585E-01  0.994619365080E+00
POINT_DATA                  7
VECTORS d_CFx_central_diff float
-7.117650528509E-03 -2.044805297308E-10  1.964899283351E-02
 1.452249581550E-02 -4.480194427253E-10 -2.678497793785E-01
 9.508230255494E-03 -1.821287235067E-04 -1.359757074000E-03
-8.999869014479E-03  1.544988095792E-10  5.348979547925E-01
-1.742153703750E-02 -1.145188544688E-10 -2.839777247760E-01
 9.508229938013E-03  1.821289444942E-04 -1.359756494521E-03
-7.117650528509E-03 -2.044805297308E-10  1.964899283351E-02
VECTORS d_CFy_central_diff float
-8.131516293641E-14  2.351626726194E-04  8.131516293641E-14
-2.710505431214E-14 -1.635169183216E-04 -2.710505431214E-14
 9.635528014579E-05 -2.426542799160E-06 -4.368520151567E-02
 2.710505431214E-14  1.244980709508E-04  1.626303258728E-13
-4.011548038196E-12 -1.912907332264E-04 -3.984442983884E-12
-9.635528675942E-05 -2.426554589858E-06  4.368520152443E-02
-8.131516293641E-14  2.351626726194E-04  8.131516293641E-14
VECTORS d_CFz_central_diff float
 2.051175350404E-02  7.299716386910E-08 -6.403244184994E+00
-1.107637814510E+00  3.024941408469E-07  2.185867389995E+00
-1.533301800805E-02  7.087996299615E-02  1.183460469900E-01
-4.821286299361E-02 -1.330047183501E-07  1.125087932000E+00
 1.166099126010E+00  2.219890937738E-07  2.855625052506E+00
-1.533270199694E-02 -7.088008799339E-02  1.183457125076E-01
 2.051175350404E-02  7.299716386910E-08 -6.403244184994E+00
