# vtk DataFile Version 3.0
MachLine results file. Generated by MachLine, USU AeroLab (c) 2023.
ASCII
DATASET POLYDATA
POINTS                   7 float
  0.567036768980E+00  0.000000000000E+00  0.000000000000E+00
  0.283518384490E+00  0.000000000000E+00 -0.291561459230E-01
  0.283518384490E+00  0.176355406690E+01  0.000000000000E+00
  0.000000000000E+00  0.000000000000E+00  0.000000000000E+00
  0.283518384490E+00  0.000000000000E+00  0.291561459230E-01
  0.283518384490E+00 -0.176355406690E+01  0.000000000000E+00
  0.567036768980E+00  0.000000000000E+00  0.000000000000E+00
POLYGONS                   8                  32
3                   0                   1                   2
3                   1                   3                   2
3                   3                   4                   2
3                   4                   6                   2
3                   0                   5                   1
3                   1                   5                   3
3                   3                   5                   4
3                   4                   5                   6
CELL_DATA                   8
NORMALS normals float
  0.102283551729E+00  0.164436508585E-01 -0.994619365080E+00
 -0.102283551729E+00  0.164436508585E-01 -0.994619365080E+00
 -0.102283551729E+00  0.164436508585E-01  0.994619365080E+00
  0.102283551729E+00  0.164436508585E-01  0.994619365080E+00
  0.102283551729E+00 -0.164436508585E-01 -0.994619365080E+00
 -0.102283551729E+00 -0.164436508585E-01 -0.994619365080E+00
 -0.102283551729E+00 -0.164436508585E-01  0.994619365080E+00
  0.102283551729E+00 -0.164436508585E-01  0.994619365080E+00
POINT_DATA                  7
VECTORS d_CFx_central_diff float
-6.825851577142E+03  1.247323775283E-03 -2.575068357924E+03
-3.648356728712E+03  5.152009796997E-01  5.429520311933E-03
-2.234258142708E+03 -1.750276617015E+00  2.304486736202E+03
 2.195141021821E+03 -1.293114579900E+00  5.520439772325E+02
 5.959247032237E+03  4.078998400820E-01 -1.186448346590E+04
-5.745733662637E+02  6.069828614109E+00 -1.235440641742E+01
-6.825851577142E+03  1.247323775283E-03 -2.575068357924E+03
VECTORS d_CFy_central_diff float
 1.394364936881E-04  1.870182715092E-04  2.057415581218E-05
 5.212077488354E-05 -1.794390085758E-04 -7.483482861441E-08
-5.753305182504E-03 -5.049988552330E-06 -5.118168874866E-01
-1.969331655215E-05  1.554273303675E-04  2.201648585665E-06
-8.755980363505E-05 -1.879132291361E-04  1.452401313801E-04
 2.632269288845E-03 -4.527071766232E-06  2.475298294983E-02
 1.394364936881E-04  1.870182715092E-04  2.057415581218E-05
VECTORS d_CFz_central_diff float
 4.038201036226E+05 -3.875481036779E-01  1.167659508551E+05
-1.086359145811E+05 -2.490909986608E+02  2.733702822136E+04
 1.445294797230E+05  2.649312422988E+04  1.496436447614E+05
 8.423822065781E+04  7.697835931090E+02  1.266825791247E+04
 1.454182096331E+05 -2.123849370211E+02  1.645814750125E+05
 1.445614038667E+05 -2.448677848339E+04  7.300488119046E+03
 4.038201036226E+05 -3.875481036779E-01  1.167659508551E+05
