# vtk DataFile Version 3.0
MachLine results file. Generated by MachLine, USU AeroLab (c) 2023.
ASCII
DATASET POLYDATA
POINTS                   7 float
  0.567036768980E+00  0.000000000000E+00  0.000000000000E+00
  0.283518384490E+00  0.000000000000E+00 -0.291561459230E-01
  0.283518384490E+00  0.176355406690E+01  0.000000000000E+00
  0.000000000000E+00  0.000000000000E+00  0.000000000000E+00
  0.283518384490E+00  0.000000000000E+00  0.291561459230E-01
  0.283518384490E+00 -0.176355406690E+01  0.000000000000E+00
  0.567036768980E+00  0.000000000000E+00  0.000000000000E+00
POLYGONS                   8                  32
3                   0                   1                   2
3                   1                   3                   2
3                   3                   4                   2
3                   4                   6                   2
3                   0                   5                   1
3                   1                   5                   3
3                   3                   5                   4
3                   4                   5                   6
CELL_DATA                   8
NORMALS normals float
  0.102283551729E+00  0.164436508585E-01 -0.994619365080E+00
 -0.102283551729E+00  0.164436508585E-01 -0.994619365080E+00
 -0.102283551729E+00  0.164436508585E-01  0.994619365080E+00
  0.102283551729E+00  0.164436508585E-01  0.994619365080E+00
  0.102283551729E+00 -0.164436508585E-01 -0.994619365080E+00
 -0.102283551729E+00 -0.164436508585E-01 -0.994619365080E+00
 -0.102283551729E+00 -0.164436508585E-01  0.994619365080E+00
  0.102283551729E+00 -0.164436508585E-01  0.994619365080E+00
POINT_DATA                  7
VECTORS d_CFx_central_diff float
-7.117661895550E-03 -4.405113426809E-11  1.964906060115E-02
 1.452245804875E-02 -1.379918315031E-11 -2.678498188371E-01
 9.505531231699E-03 -1.820962925505E-04 -1.359752029850E-03
-8.999869789900E-03 -3.259924882121E-11  5.348979536397E-01
-1.742137754930E-02  4.049495114233E-12 -2.839777024281E-01
 9.505531314900E-03  1.820962606993E-04 -1.359751984850E-03
-7.117661895550E-03 -4.405113426809E-11  1.964906060115E-02
VECTORS d_CFy_central_diff float
 3.930232875260E-13  2.351626723050E-04  0.000000000000E+00
-5.421010862427E-15 -1.635169118218E-04 -2.710505431214E-15
 9.635538159459E-05 -2.426539362239E-06 -4.368520145088E-02
-5.421010862428E-15  1.244980569863E-04  1.084202172486E-14
 2.710505431214E-15 -1.912907448138E-04  2.168404344971E-14
-9.635538185480E-05 -2.426538681902E-06  4.368520145249E-02
 3.930232875260E-13  2.351626723050E-04  0.000000000000E+00
VECTORS d_CFz_central_diff float
 2.053283569975E-02  3.349959198928E-08 -6.403277056749E+00
-1.107597382451E+00  1.195016308131E-08  2.185907462600E+00
-1.509297384988E-02  7.086539604989E-02  1.183326611004E-01
-4.821284045053E-02  1.445094044428E-08  1.125088222750E+00
 1.165974617899E+00 -4.550526622182E-09  2.855627774499E+00
-1.509303469982E-02 -7.086537034962E-02  1.183326384005E-01
 2.053283569975E-02  3.349959198928E-08 -6.403277056749E+00
