solid
 facet normal  1.0565479711e-01 -1.0565479711e-01 -9.8877405290e-01
   outer loop
     vertex 2.0000000000e+01 0.0000000000e+00 0.0000000000e+00
     vertex 2.0503237977e+01 1.9237536834e+00 -1.5178826576e-01
     vertex 2.1923753683e+01 1.9237536834e+00 0.0000000000e+00
   endloop
 endfacet
 facet normal  1.0565479711e-01 -1.0565479711e-01 -9.8877405290e-01
   outer loop
     vertex 2.0000000000e+01 0.0000000000e+00 0.0000000000e+00
     vertex 1.8579484294e+01 0.0000000000e+00 -1.5178826576e-01
     vertex 2.0503237977e+01 1.9237536834e+00 -1.5178826576e-01
   endloop
 endfacet
 facet normal  1.0660693761e-01 -1.0660693761e-01 -9.8856963422e-01
   outer loop
     vertex 1.8579484294e+01 0.0000000000e+00 -1.5178826576e-01
     vertex 1.7229230910e+01 1.9237536834e+00 -5.0485582429e-01
     vertex 2.0503237977e+01 1.9237536834e+00 -1.5178826576e-01
   endloop
 endfacet
 facet normal  1.0660693761e-01 -1.0660693761e-01 -9.8856963422e-01
   outer loop
     vertex 1.8579484294e+01 0.0000000000e+00 -1.5178826576e-01
     vertex 1.5305477226e+01 0.0000000000e+00 -5.0485582429e-01
     vertex 1.7229230910e+01 1.9237536834e+00 -5.0485582429e-01
   endloop
 endfacet
 facet normal  9.6488658932e-02 -9.6488658932e-02 -9.9064619183e-01
   outer loop
     vertex 1.5305477226e+01 0.0000000000e+00 -5.0485582429e-01
     vertex 1.1813319760e+01 1.9237536834e+00 -1.0323640386e+00
     vertex 1.7229230910e+01 1.9237536834e+00 -5.0485582429e-01
   endloop
 endfacet
 facet normal  9.6488658932e-02 -9.6488658932e-02 -9.9064619183e-01
   outer loop
     vertex 1.5305477226e+01 0.0000000000e+00 -5.0485582429e-01
     vertex 9.8895660768e+00 0.0000000000e+00 -1.0323640386e+00
     vertex 1.1813319760e+01 1.9237536834e+00 -1.0323640386e+00
   endloop
 endfacet
 facet normal  2.0655330994e-02 -2.0655330994e-02 -9.9957326625e-01
   outer loop
     vertex 9.8895660768e+00 0.0000000000e+00 -1.0323640386e+00
     vertex 4.4529272103e+00 0.0000000000e+00 -1.1447075547e+00
     vertex 1.1813319760e+01 1.9237536834e+00 -1.0323640386e+00
   endloop
 endfacet
 facet normal  2.0655330994e-02 -2.0655330994e-02 -9.9957326625e-01
   outer loop
     vertex 1.1813319760e+01 1.9237536834e+00 -1.0323640386e+00
     vertex 4.4529272103e+00 0.0000000000e+00 -1.1447075547e+00
     vertex 6.3766808937e+00 1.9237536834e+00 -1.1447075547e+00
   endloop
 endfacet
 facet normal  -1.3613229662e-01 1.3613229662e-01 -9.8129302231e-01
   outer loop
     vertex 4.4529272103e+00 0.0000000000e+00 -1.1447075547e+00
     vertex 1.1951379320e+00 0.0000000000e+00 -6.9276269593e-01
     vertex 6.3766808937e+00 1.9237536834e+00 -1.1447075547e+00
   endloop
 endfacet
 facet normal  -1.3613229662e-01 1.3613229662e-01 -9.8129302231e-01
   outer loop
     vertex 6.3766808937e+00 1.9237536834e+00 -1.1447075547e+00
     vertex 1.1951379320e+00 0.0000000000e+00 -6.9276269593e-01
     vertex 3.1188916154e+00 1.9237536834e+00 -6.9276269593e-01
   endloop
 endfacet
 facet normal  -4.4828024732e-01 4.4828024732e-01 -7.7336255387e-01
   outer loop
     vertex 1.1951379320e+00 0.0000000000e+00 -6.9276269593e-01
     vertex 0.0000000000e+00 0.0000000000e+00 0.0000000000e+00
     vertex 3.1188916154e+00 1.9237536834e+00 -6.9276269593e-01
   endloop
 endfacet
 facet normal  -4.4828024732e-01 4.4828024732e-01 -7.7336255387e-01
   outer loop
     vertex 3.1188916154e+00 1.9237536834e+00 -6.9276269593e-01
     vertex 0.0000000000e+00 0.0000000000e+00 0.0000000000e+00
     vertex 1.9237536834e+00 1.9237536834e+00 0.0000000000e+00
   endloop
 endfacet
 facet normal  -4.4828024732e-01 4.4828024732e-01 7.7336255387e-01
   outer loop
     vertex 0.0000000000e+00 0.0000000000e+00 0.0000000000e+00
     vertex 3.1188916154e+00 1.9237536834e+00 6.9276269593e-01
     vertex 1.9237536834e+00 1.9237536834e+00 0.0000000000e+00
   endloop
 endfacet
 facet normal  -4.4828024732e-01 4.4828024732e-01 7.7336255387e-01
   outer loop
     vertex 0.0000000000e+00 0.0000000000e+00 0.0000000000e+00
     vertex 1.1951379320e+00 0.0000000000e+00 6.9276269593e-01
     vertex 3.1188916154e+00 1.9237536834e+00 6.9276269593e-01
   endloop
 endfacet
 facet normal  -1.3613229662e-01 1.3613229662e-01 9.8129302231e-01
   outer loop
     vertex 1.1951379320e+00 0.0000000000e+00 6.9276269593e-01
     vertex 6.3766808937e+00 1.9237536834e+00 1.1447075547e+00
     vertex 3.1188916154e+00 1.9237536834e+00 6.9276269593e-01
   endloop
 endfacet
 facet normal  -1.3613229662e-01 1.3613229662e-01 9.8129302231e-01
   outer loop
     vertex 1.1951379320e+00 0.0000000000e+00 6.9276269593e-01
     vertex 4.4529272103e+00 0.0000000000e+00 1.1447075547e+00
     vertex 6.3766808937e+00 1.9237536834e+00 1.1447075547e+00
   endloop
 endfacet
 facet normal  2.0655330994e-02 -2.0655330994e-02 9.9957326625e-01
   outer loop
     vertex 4.4529272103e+00 0.0000000000e+00 1.1447075547e+00
     vertex 1.1813319760e+01 1.9237536834e+00 1.0323640386e+00
     vertex 6.3766808937e+00 1.9237536834e+00 1.1447075547e+00
   endloop
 endfacet
 facet normal  2.0655330994e-02 -2.0655330994e-02 9.9957326625e-01
   outer loop
     vertex 4.4529272103e+00 0.0000000000e+00 1.1447075547e+00
     vertex 9.8895660768e+00 0.0000000000e+00 1.0323640386e+00
     vertex 1.1813319760e+01 1.9237536834e+00 1.0323640386e+00
   endloop
 endfacet
 facet normal  9.6488658932e-02 -9.6488658932e-02 9.9064619183e-01
   outer loop
     vertex 9.8895660768e+00 0.0000000000e+00 1.0323640386e+00
     vertex 1.5305477226e+01 0.0000000000e+00 5.0485582429e-01
     vertex 1.1813319760e+01 1.9237536834e+00 1.0323640386e+00
   endloop
 endfacet
 facet normal  9.6488658932e-02 -9.6488658932e-02 9.9064619183e-01
   outer loop
     vertex 1.1813319760e+01 1.9237536834e+00 1.0323640386e+00
     vertex 1.5305477226e+01 0.0000000000e+00 5.0485582429e-01
     vertex 1.7229230910e+01 1.9237536834e+00 5.0485582429e-01
   endloop
 endfacet
 facet normal  1.0660693761e-01 -1.0660693761e-01 9.8856963422e-01
   outer loop
     vertex 1.5305477226e+01 0.0000000000e+00 5.0485582429e-01
     vertex 1.8579484294e+01 0.0000000000e+00 1.5178826576e-01
     vertex 1.7229230910e+01 1.9237536834e+00 5.0485582429e-01
   endloop
 endfacet
 facet normal  1.0660693761e-01 -1.0660693761e-01 9.8856963422e-01
   outer loop
     vertex 1.7229230910e+01 1.9237536834e+00 5.0485582429e-01
     vertex 1.8579484294e+01 0.0000000000e+00 1.5178826576e-01
     vertex 2.0503237977e+01 1.9237536834e+00 1.5178826576e-01
   endloop
 endfacet
 facet normal  1.0565479711e-01 -1.0565479711e-01 9.8877405290e-01
   outer loop
     vertex 1.8579484294e+01 0.0000000000e+00 1.5178826576e-01
     vertex 2.0000000000e+01 0.0000000000e+00 0.0000000000e+00
     vertex 2.0503237977e+01 1.9237536834e+00 1.5178826576e-01
   endloop
 endfacet
 facet normal  1.0565479711e-01 -1.0565479711e-01 9.8877405290e-01
   outer loop
     vertex 2.0503237977e+01 1.9237536834e+00 1.5178826576e-01
     vertex 2.0000000000e+01 0.0000000000e+00 0.0000000000e+00
     vertex 2.1923753683e+01 1.9237536834e+00 0.0000000000e+00
   endloop
 endfacet
 facet normal  1.0565479711e-01 -1.0565479711e-01 -9.8877405290e-01
   outer loop
     vertex 2.1923753683e+01 1.9237536834e+00 0.0000000000e+00
     vertex 2.4049816102e+01 5.4703318078e+00 -1.5178826576e-01
     vertex 2.5470331808e+01 5.4703318078e+00 0.0000000000e+00
   endloop
 endfacet
 facet normal  1.0565479711e-01 -1.0565479711e-01 -9.8877405290e-01
   outer loop
     vertex 2.1923753683e+01 1.9237536834e+00 0.0000000000e+00
     vertex 2.0503237977e+01 1.9237536834e+00 -1.5178826576e-01
     vertex 2.4049816102e+01 5.4703318078e+00 -1.5178826576e-01
   endloop
 endfacet
 facet normal  1.0660693761e-01 -1.0660693761e-01 -9.8856963422e-01
   outer loop
     vertex 2.0503237977e+01 1.9237536834e+00 -1.5178826576e-01
     vertex 2.0775809034e+01 5.4703318078e+00 -5.0485582429e-01
     vertex 2.4049816102e+01 5.4703318078e+00 -1.5178826576e-01
   endloop
 endfacet
 facet normal  1.0660693761e-01 -1.0660693761e-01 -9.8856963422e-01
   outer loop
     vertex 2.0503237977e+01 1.9237536834e+00 -1.5178826576e-01
     vertex 1.7229230910e+01 1.9237536834e+00 -5.0485582429e-01
     vertex 2.0775809034e+01 5.4703318078e+00 -5.0485582429e-01
   endloop
 endfacet
 facet normal  9.6488658932e-02 -9.6488658932e-02 -9.9064619183e-01
   outer loop
     vertex 1.7229230910e+01 1.9237536834e+00 -5.0485582429e-01
     vertex 1.5359897885e+01 5.4703318078e+00 -1.0323640386e+00
     vertex 2.0775809034e+01 5.4703318078e+00 -5.0485582429e-01
   endloop
 endfacet
 facet normal  9.6488658932e-02 -9.6488658932e-02 -9.9064619183e-01
   outer loop
     vertex 1.7229230910e+01 1.9237536834e+00 -5.0485582429e-01
     vertex 1.1813319760e+01 1.9237536834e+00 -1.0323640386e+00
     vertex 1.5359897885e+01 5.4703318078e+00 -1.0323640386e+00
   endloop
 endfacet
 facet normal  2.0655330994e-02 -2.0655330994e-02 -9.9957326625e-01
   outer loop
     vertex 1.1813319760e+01 1.9237536834e+00 -1.0323640386e+00
     vertex 6.3766808937e+00 1.9237536834e+00 -1.1447075547e+00
     vertex 1.5359897885e+01 5.4703318078e+00 -1.0323640386e+00
   endloop
 endfacet
 facet normal  2.0655330994e-02 -2.0655330994e-02 -9.9957326625e-01
   outer loop
     vertex 1.5359897885e+01 5.4703318078e+00 -1.0323640386e+00
     vertex 6.3766808937e+00 1.9237536834e+00 -1.1447075547e+00
     vertex 9.9232590181e+00 5.4703318078e+00 -1.1447075547e+00
   endloop
 endfacet
 facet normal  -1.3613229662e-01 1.3613229662e-01 -9.8129302231e-01
   outer loop
     vertex 6.3766808937e+00 1.9237536834e+00 -1.1447075547e+00
     vertex 3.1188916154e+00 1.9237536834e+00 -6.9276269593e-01
     vertex 9.9232590181e+00 5.4703318078e+00 -1.1447075547e+00
   endloop
 endfacet
 facet normal  -1.3613229662e-01 1.3613229662e-01 -9.8129302231e-01
   outer loop
     vertex 9.9232590181e+00 5.4703318078e+00 -1.1447075547e+00
     vertex 3.1188916154e+00 1.9237536834e+00 -6.9276269593e-01
     vertex 6.6654697399e+00 5.4703318078e+00 -6.9276269593e-01
   endloop
 endfacet
 facet normal  -4.4828024732e-01 4.4828024732e-01 -7.7336255387e-01
   outer loop
     vertex 3.1188916154e+00 1.9237536834e+00 -6.9276269593e-01
     vertex 1.9237536834e+00 1.9237536834e+00 0.0000000000e+00
     vertex 6.6654697399e+00 5.4703318078e+00 -6.9276269593e-01
   endloop
 endfacet
 facet normal  -4.4828024732e-01 4.4828024732e-01 -7.7336255387e-01
   outer loop
     vertex 6.6654697399e+00 5.4703318078e+00 -6.9276269593e-01
     vertex 1.9237536834e+00 1.9237536834e+00 0.0000000000e+00
     vertex 5.4703318078e+00 5.4703318078e+00 0.0000000000e+00
   endloop
 endfacet
 facet normal  -4.4828024732e-01 4.4828024732e-01 7.7336255387e-01
   outer loop
     vertex 1.9237536834e+00 1.9237536834e+00 0.0000000000e+00
     vertex 6.6654697399e+00 5.4703318078e+00 6.9276269593e-01
     vertex 5.4703318078e+00 5.4703318078e+00 0.0000000000e+00
   endloop
 endfacet
 facet normal  -4.4828024732e-01 4.4828024732e-01 7.7336255387e-01
   outer loop
     vertex 1.9237536834e+00 1.9237536834e+00 0.0000000000e+00
     vertex 3.1188916154e+00 1.9237536834e+00 6.9276269593e-01
     vertex 6.6654697399e+00 5.4703318078e+00 6.9276269593e-01
   endloop
 endfacet
 facet normal  -1.3613229662e-01 1.3613229662e-01 9.8129302231e-01
   outer loop
     vertex 3.1188916154e+00 1.9237536834e+00 6.9276269593e-01
     vertex 9.9232590181e+00 5.4703318078e+00 1.1447075547e+00
     vertex 6.6654697399e+00 5.4703318078e+00 6.9276269593e-01
   endloop
 endfacet
 facet normal  -1.3613229662e-01 1.3613229662e-01 9.8129302231e-01
   outer loop
     vertex 3.1188916154e+00 1.9237536834e+00 6.9276269593e-01
     vertex 6.3766808937e+00 1.9237536834e+00 1.1447075547e+00
     vertex 9.9232590181e+00 5.4703318078e+00 1.1447075547e+00
   endloop
 endfacet
 facet normal  2.0655330994e-02 -2.0655330994e-02 9.9957326625e-01
   outer loop
     vertex 6.3766808937e+00 1.9237536834e+00 1.1447075547e+00
     vertex 1.5359897885e+01 5.4703318078e+00 1.0323640386e+00
     vertex 9.9232590181e+00 5.4703318078e+00 1.1447075547e+00
   endloop
 endfacet
 facet normal  2.0655330994e-02 -2.0655330994e-02 9.9957326625e-01
   outer loop
     vertex 6.3766808937e+00 1.9237536834e+00 1.1447075547e+00
     vertex 1.1813319760e+01 1.9237536834e+00 1.0323640386e+00
     vertex 1.5359897885e+01 5.4703318078e+00 1.0323640386e+00
   endloop
 endfacet
 facet normal  9.6488658932e-02 -9.6488658932e-02 9.9064619183e-01
   outer loop
     vertex 1.1813319760e+01 1.9237536834e+00 1.0323640386e+00
     vertex 1.7229230910e+01 1.9237536834e+00 5.0485582429e-01
     vertex 1.5359897885e+01 5.4703318078e+00 1.0323640386e+00
   endloop
 endfacet
 facet normal  9.6488658932e-02 -9.6488658932e-02 9.9064619183e-01
   outer loop
     vertex 1.5359897885e+01 5.4703318078e+00 1.0323640386e+00
     vertex 1.7229230910e+01 1.9237536834e+00 5.0485582429e-01
     vertex 2.0775809034e+01 5.4703318078e+00 5.0485582429e-01
   endloop
 endfacet
 facet normal  1.0660693761e-01 -1.0660693761e-01 9.8856963422e-01
   outer loop
     vertex 1.7229230910e+01 1.9237536834e+00 5.0485582429e-01
     vertex 2.0503237977e+01 1.9237536834e+00 1.5178826576e-01
     vertex 2.0775809034e+01 5.4703318078e+00 5.0485582429e-01
   endloop
 endfacet
 facet normal  1.0660693761e-01 -1.0660693761e-01 9.8856963422e-01
   outer loop
     vertex 2.0775809034e+01 5.4703318078e+00 5.0485582429e-01
     vertex 2.0503237977e+01 1.9237536834e+00 1.5178826576e-01
     vertex 2.4049816102e+01 5.4703318078e+00 1.5178826576e-01
   endloop
 endfacet
 facet normal  1.0565479711e-01 -1.0565479711e-01 9.8877405290e-01
   outer loop
     vertex 2.0503237977e+01 1.9237536834e+00 1.5178826576e-01
     vertex 2.1923753683e+01 1.9237536834e+00 0.0000000000e+00
     vertex 2.4049816102e+01 5.4703318078e+00 1.5178826576e-01
   endloop
 endfacet
 facet normal  1.0565479711e-01 -1.0565479711e-01 9.8877405290e-01
   outer loop
     vertex 2.4049816102e+01 5.4703318078e+00 1.5178826576e-01
     vertex 2.1923753683e+01 1.9237536834e+00 0.0000000000e+00
     vertex 2.5470331808e+01 5.4703318078e+00 0.0000000000e+00
   endloop
 endfacet
 facet normal  1.0565479711e-01 -1.0565479711e-01 -9.8877405290e-01
   outer loop
     vertex 2.5470331808e+01 5.4703318078e+00 0.0000000000e+00
     vertex 2.9961486378e+01 1.1382002084e+01 -1.5178826576e-01
     vertex 3.1382002084e+01 1.1382002084e+01 0.0000000000e+00
   endloop
 endfacet
 facet normal  1.0565479711e-01 -1.0565479711e-01 -9.8877405290e-01
   outer loop
     vertex 2.5470331808e+01 5.4703318078e+00 0.0000000000e+00
     vertex 2.4049816102e+01 5.4703318078e+00 -1.5178826576e-01
     vertex 2.9961486378e+01 1.1382002084e+01 -1.5178826576e-01
   endloop
 endfacet
 facet normal  1.0660693761e-01 -1.0660693761e-01 -9.8856963422e-01
   outer loop
     vertex 2.4049816102e+01 5.4703318078e+00 -1.5178826576e-01
     vertex 2.6687479310e+01 1.1382002084e+01 -5.0485582429e-01
     vertex 2.9961486378e+01 1.1382002084e+01 -1.5178826576e-01
   endloop
 endfacet
 facet normal  1.0660693761e-01 -1.0660693761e-01 -9.8856963422e-01
   outer loop
     vertex 2.4049816102e+01 5.4703318078e+00 -1.5178826576e-01
     vertex 2.0775809034e+01 5.4703318078e+00 -5.0485582429e-01
     vertex 2.6687479310e+01 1.1382002084e+01 -5.0485582429e-01
   endloop
 endfacet
 facet normal  9.6488658932e-02 -9.6488658932e-02 -9.9064619183e-01
   outer loop
     vertex 2.0775809034e+01 5.4703318078e+00 -5.0485582429e-01
     vertex 2.1271568161e+01 1.1382002084e+01 -1.0323640386e+00
     vertex 2.6687479310e+01 1.1382002084e+01 -5.0485582429e-01
   endloop
 endfacet
 facet normal  9.6488658932e-02 -9.6488658932e-02 -9.9064619183e-01
   outer loop
     vertex 2.0775809034e+01 5.4703318078e+00 -5.0485582429e-01
     vertex 1.5359897885e+01 5.4703318078e+00 -1.0323640386e+00
     vertex 2.1271568161e+01 1.1382002084e+01 -1.0323640386e+00
   endloop
 endfacet
 facet normal  2.0655330994e-02 -2.0655330994e-02 -9.9957326625e-01
   outer loop
     vertex 1.5359897885e+01 5.4703318078e+00 -1.0323640386e+00
     vertex 9.9232590181e+00 5.4703318078e+00 -1.1447075547e+00
     vertex 2.1271568161e+01 1.1382002084e+01 -1.0323640386e+00
   endloop
 endfacet
 facet normal  2.0655330994e-02 -2.0655330994e-02 -9.9957326625e-01
   outer loop
     vertex 2.1271568161e+01 1.1382002084e+01 -1.0323640386e+00
     vertex 9.9232590181e+00 5.4703318078e+00 -1.1447075547e+00
     vertex 1.5834929294e+01 1.1382002084e+01 -1.1447075547e+00
   endloop
 endfacet
 facet normal  -1.3613229662e-01 1.3613229662e-01 -9.8129302231e-01
   outer loop
     vertex 9.9232590181e+00 5.4703318078e+00 -1.1447075547e+00
     vertex 6.6654697399e+00 5.4703318078e+00 -6.9276269593e-01
     vertex 1.5834929294e+01 1.1382002084e+01 -1.1447075547e+00
   endloop
 endfacet
 facet normal  -1.3613229662e-01 1.3613229662e-01 -9.8129302231e-01
   outer loop
     vertex 1.5834929294e+01 1.1382002084e+01 -1.1447075547e+00
     vertex 6.6654697399e+00 5.4703318078e+00 -6.9276269593e-01
     vertex 1.2577140016e+01 1.1382002084e+01 -6.9276269593e-01
   endloop
 endfacet
 facet normal  -4.4828024732e-01 4.4828024732e-01 -7.7336255387e-01
   outer loop
     vertex 6.6654697399e+00 5.4703318078e+00 -6.9276269593e-01
     vertex 5.4703318078e+00 5.4703318078e+00 0.0000000000e+00
     vertex 1.2577140016e+01 1.1382002084e+01 -6.9276269593e-01
   endloop
 endfacet
 facet normal  -4.4828024732e-01 4.4828024732e-01 -7.7336255387e-01
   outer loop
     vertex 1.2577140016e+01 1.1382002084e+01 -6.9276269593e-01
     vertex 5.4703318078e+00 5.4703318078e+00 0.0000000000e+00
     vertex 1.1382002084e+01 1.1382002084e+01 0.0000000000e+00
   endloop
 endfacet
 facet normal  -4.4828024732e-01 4.4828024732e-01 7.7336255387e-01
   outer loop
     vertex 5.4703318078e+00 5.4703318078e+00 0.0000000000e+00
     vertex 1.2577140016e+01 1.1382002084e+01 6.9276269593e-01
     vertex 1.1382002084e+01 1.1382002084e+01 0.0000000000e+00
   endloop
 endfacet
 facet normal  -4.4828024732e-01 4.4828024732e-01 7.7336255387e-01
   outer loop
     vertex 5.4703318078e+00 5.4703318078e+00 0.0000000000e+00
     vertex 6.6654697399e+00 5.4703318078e+00 6.9276269593e-01
     vertex 1.2577140016e+01 1.1382002084e+01 6.9276269593e-01
   endloop
 endfacet
 facet normal  -1.3613229662e-01 1.3613229662e-01 9.8129302231e-01
   outer loop
     vertex 6.6654697399e+00 5.4703318078e+00 6.9276269593e-01
     vertex 1.5834929294e+01 1.1382002084e+01 1.1447075547e+00
     vertex 1.2577140016e+01 1.1382002084e+01 6.9276269593e-01
   endloop
 endfacet
 facet normal  -1.3613229662e-01 1.3613229662e-01 9.8129302231e-01
   outer loop
     vertex 6.6654697399e+00 5.4703318078e+00 6.9276269593e-01
     vertex 9.9232590181e+00 5.4703318078e+00 1.1447075547e+00
     vertex 1.5834929294e+01 1.1382002084e+01 1.1447075547e+00
   endloop
 endfacet
 facet normal  2.0655330994e-02 -2.0655330994e-02 9.9957326625e-01
   outer loop
     vertex 9.9232590181e+00 5.4703318078e+00 1.1447075547e+00
     vertex 2.1271568161e+01 1.1382002084e+01 1.0323640386e+00
     vertex 1.5834929294e+01 1.1382002084e+01 1.1447075547e+00
   endloop
 endfacet
 facet normal  2.0655330994e-02 -2.0655330994e-02 9.9957326625e-01
   outer loop
     vertex 9.9232590181e+00 5.4703318078e+00 1.1447075547e+00
     vertex 1.5359897885e+01 5.4703318078e+00 1.0323640386e+00
     vertex 2.1271568161e+01 1.1382002084e+01 1.0323640386e+00
   endloop
 endfacet
 facet normal  9.6488658932e-02 -9.6488658932e-02 9.9064619183e-01
   outer loop
     vertex 1.5359897885e+01 5.4703318078e+00 1.0323640386e+00
     vertex 2.0775809034e+01 5.4703318078e+00 5.0485582429e-01
     vertex 2.1271568161e+01 1.1382002084e+01 1.0323640386e+00
   endloop
 endfacet
 facet normal  9.6488658932e-02 -9.6488658932e-02 9.9064619183e-01
   outer loop
     vertex 2.1271568161e+01 1.1382002084e+01 1.0323640386e+00
     vertex 2.0775809034e+01 5.4703318078e+00 5.0485582429e-01
     vertex 2.6687479310e+01 1.1382002084e+01 5.0485582429e-01
   endloop
 endfacet
 facet normal  1.0660693761e-01 -1.0660693761e-01 9.8856963422e-01
   outer loop
     vertex 2.0775809034e+01 5.4703318078e+00 5.0485582429e-01
     vertex 2.4049816102e+01 5.4703318078e+00 1.5178826576e-01
     vertex 2.6687479310e+01 1.1382002084e+01 5.0485582429e-01
   endloop
 endfacet
 facet normal  1.0660693761e-01 -1.0660693761e-01 9.8856963422e-01
   outer loop
     vertex 2.6687479310e+01 1.1382002084e+01 5.0485582429e-01
     vertex 2.4049816102e+01 5.4703318078e+00 1.5178826576e-01
     vertex 2.9961486378e+01 1.1382002084e+01 1.5178826576e-01
   endloop
 endfacet
 facet normal  1.0565479711e-01 -1.0565479711e-01 9.8877405290e-01
   outer loop
     vertex 2.4049816102e+01 5.4703318078e+00 1.5178826576e-01
     vertex 2.5470331808e+01 5.4703318078e+00 0.0000000000e+00
     vertex 2.9961486378e+01 1.1382002084e+01 1.5178826576e-01
   endloop
 endfacet
 facet normal  1.0565479711e-01 -1.0565479711e-01 9.8877405290e-01
   outer loop
     vertex 2.9961486378e+01 1.1382002084e+01 1.5178826576e-01
     vertex 2.5470331808e+01 5.4703318078e+00 0.0000000000e+00
     vertex 3.1382002084e+01 1.1382002084e+01 0.0000000000e+00
   endloop
 endfacet
 facet normal  1.0565479711e-01 -1.0565479711e-01 -9.8877405290e-01
   outer loop
     vertex 3.1382002084e+01 1.1382002084e+01 0.0000000000e+00
     vertex 3.8335678937e+01 1.9756194643e+01 -1.5178826576e-01
     vertex 3.9756194643e+01 1.9756194643e+01 0.0000000000e+00
   endloop
 endfacet
 facet normal  1.0565479711e-01 -1.0565479711e-01 -9.8877405290e-01
   outer loop
     vertex 3.1382002084e+01 1.1382002084e+01 0.0000000000e+00
     vertex 2.9961486378e+01 1.1382002084e+01 -1.5178826576e-01
     vertex 3.8335678937e+01 1.9756194643e+01 -1.5178826576e-01
   endloop
 endfacet
 facet normal  1.0660693761e-01 -1.0660693761e-01 -9.8856963422e-01
   outer loop
     vertex 2.9961486378e+01 1.1382002084e+01 -1.5178826576e-01
     vertex 3.5061671869e+01 1.9756194643e+01 -5.0485582429e-01
     vertex 3.8335678937e+01 1.9756194643e+01 -1.5178826576e-01
   endloop
 endfacet
 facet normal  1.0660693761e-01 -1.0660693761e-01 -9.8856963422e-01
   outer loop
     vertex 2.9961486378e+01 1.1382002084e+01 -1.5178826576e-01
     vertex 2.6687479310e+01 1.1382002084e+01 -5.0485582429e-01
     vertex 3.5061671869e+01 1.9756194643e+01 -5.0485582429e-01
   endloop
 endfacet
 facet normal  9.6488658932e-02 -9.6488658932e-02 -9.9064619183e-01
   outer loop
     vertex 2.6687479310e+01 1.1382002084e+01 -5.0485582429e-01
     vertex 2.9645760720e+01 1.9756194643e+01 -1.0323640386e+00
     vertex 3.5061671869e+01 1.9756194643e+01 -5.0485582429e-01
   endloop
 endfacet
 facet normal  9.6488658932e-02 -9.6488658932e-02 -9.9064619183e-01
   outer loop
     vertex 2.6687479310e+01 1.1382002084e+01 -5.0485582429e-01
     vertex 2.1271568161e+01 1.1382002084e+01 -1.0323640386e+00
     vertex 2.9645760720e+01 1.9756194643e+01 -1.0323640386e+00
   endloop
 endfacet
 facet normal  2.0655330994e-02 -2.0655330994e-02 -9.9957326625e-01
   outer loop
     vertex 2.1271568161e+01 1.1382002084e+01 -1.0323640386e+00
     vertex 1.5834929294e+01 1.1382002084e+01 -1.1447075547e+00
     vertex 2.9645760720e+01 1.9756194643e+01 -1.0323640386e+00
   endloop
 endfacet
 facet normal  2.0655330994e-02 -2.0655330994e-02 -9.9957326625e-01
   outer loop
     vertex 2.9645760720e+01 1.9756194643e+01 -1.0323640386e+00
     vertex 1.5834929294e+01 1.1382002084e+01 -1.1447075547e+00
     vertex 2.4209121853e+01 1.9756194643e+01 -1.1447075547e+00
   endloop
 endfacet
 facet normal  -1.3613229662e-01 1.3613229662e-01 -9.8129302231e-01
   outer loop
     vertex 1.5834929294e+01 1.1382002084e+01 -1.1447075547e+00
     vertex 1.2577140016e+01 1.1382002084e+01 -6.9276269593e-01
     vertex 2.4209121853e+01 1.9756194643e+01 -1.1447075547e+00
   endloop
 endfacet
 facet normal  -1.3613229662e-01 1.3613229662e-01 -9.8129302231e-01
   outer loop
     vertex 2.4209121853e+01 1.9756194643e+01 -1.1447075547e+00
     vertex 1.2577140016e+01 1.1382002084e+01 -6.9276269593e-01
     vertex 2.0951332575e+01 1.9756194643e+01 -6.9276269593e-01
   endloop
 endfacet
 facet normal  -4.4828024732e-01 4.4828024732e-01 -7.7336255387e-01
   outer loop
     vertex 1.2577140016e+01 1.1382002084e+01 -6.9276269593e-01
     vertex 1.1382002084e+01 1.1382002084e+01 0.0000000000e+00
     vertex 2.0951332575e+01 1.9756194643e+01 -6.9276269593e-01
   endloop
 endfacet
 facet normal  -4.4828024732e-01 4.4828024732e-01 -7.7336255387e-01
   outer loop
     vertex 2.0951332575e+01 1.9756194643e+01 -6.9276269593e-01
     vertex 1.1382002084e+01 1.1382002084e+01 0.0000000000e+00
     vertex 1.9756194643e+01 1.9756194643e+01 0.0000000000e+00
   endloop
 endfacet
 facet normal  -4.4828024732e-01 4.4828024732e-01 7.7336255387e-01
   outer loop
     vertex 1.1382002084e+01 1.1382002084e+01 0.0000000000e+00
     vertex 2.0951332575e+01 1.9756194643e+01 6.9276269593e-01
     vertex 1.9756194643e+01 1.9756194643e+01 0.0000000000e+00
   endloop
 endfacet
 facet normal  -4.4828024732e-01 4.4828024732e-01 7.7336255387e-01
   outer loop
     vertex 1.1382002084e+01 1.1382002084e+01 0.0000000000e+00
     vertex 1.2577140016e+01 1.1382002084e+01 6.9276269593e-01
     vertex 2.0951332575e+01 1.9756194643e+01 6.9276269593e-01
   endloop
 endfacet
 facet normal  -1.3613229662e-01 1.3613229662e-01 9.8129302231e-01
   outer loop
     vertex 1.2577140016e+01 1.1382002084e+01 6.9276269593e-01
     vertex 2.4209121853e+01 1.9756194643e+01 1.1447075547e+00
     vertex 2.0951332575e+01 1.9756194643e+01 6.9276269593e-01
   endloop
 endfacet
 facet normal  -1.3613229662e-01 1.3613229662e-01 9.8129302231e-01
   outer loop
     vertex 1.2577140016e+01 1.1382002084e+01 6.9276269593e-01
     vertex 1.5834929294e+01 1.1382002084e+01 1.1447075547e+00
     vertex 2.4209121853e+01 1.9756194643e+01 1.1447075547e+00
   endloop
 endfacet
 facet normal  2.0655330994e-02 -2.0655330994e-02 9.9957326625e-01
   outer loop
     vertex 1.5834929294e+01 1.1382002084e+01 1.1447075547e+00
     vertex 2.9645760720e+01 1.9756194643e+01 1.0323640386e+00
     vertex 2.4209121853e+01 1.9756194643e+01 1.1447075547e+00
   endloop
 endfacet
 facet normal  2.0655330994e-02 -2.0655330994e-02 9.9957326625e-01
   outer loop
     vertex 1.5834929294e+01 1.1382002084e+01 1.1447075547e+00
     vertex 2.1271568161e+01 1.1382002084e+01 1.0323640386e+00
     vertex 2.9645760720e+01 1.9756194643e+01 1.0323640386e+00
   endloop
 endfacet
 facet normal  9.6488658932e-02 -9.6488658932e-02 9.9064619183e-01
   outer loop
     vertex 2.1271568161e+01 1.1382002084e+01 1.0323640386e+00
     vertex 2.6687479310e+01 1.1382002084e+01 5.0485582429e-01
     vertex 2.9645760720e+01 1.9756194643e+01 1.0323640386e+00
   endloop
 endfacet
 facet normal  9.6488658932e-02 -9.6488658932e-02 9.9064619183e-01
   outer loop
     vertex 2.9645760720e+01 1.9756194643e+01 1.0323640386e+00
     vertex 2.6687479310e+01 1.1382002084e+01 5.0485582429e-01
     vertex 3.5061671869e+01 1.9756194643e+01 5.0485582429e-01
   endloop
 endfacet
 facet normal  1.0660693761e-01 -1.0660693761e-01 9.8856963422e-01
   outer loop
     vertex 2.6687479310e+01 1.1382002084e+01 5.0485582429e-01
     vertex 2.9961486378e+01 1.1382002084e+01 1.5178826576e-01
     vertex 3.5061671869e+01 1.9756194643e+01 5.0485582429e-01
   endloop
 endfacet
 facet normal  1.0660693761e-01 -1.0660693761e-01 9.8856963422e-01
   outer loop
     vertex 3.5061671869e+01 1.9756194643e+01 5.0485582429e-01
     vertex 2.9961486378e+01 1.1382002084e+01 1.5178826576e-01
     vertex 3.8335678937e+01 1.9756194643e+01 1.5178826576e-01
   endloop
 endfacet
 facet normal  1.0565479711e-01 -1.0565479711e-01 9.8877405290e-01
   outer loop
     vertex 2.9961486378e+01 1.1382002084e+01 1.5178826576e-01
     vertex 3.1382002084e+01 1.1382002084e+01 0.0000000000e+00
     vertex 3.8335678937e+01 1.9756194643e+01 1.5178826576e-01
   endloop
 endfacet
 facet normal  1.0565479711e-01 -1.0565479711e-01 9.8877405290e-01
   outer loop
     vertex 3.8335678937e+01 1.9756194643e+01 1.5178826576e-01
     vertex 3.1382002084e+01 1.1382002084e+01 0.0000000000e+00
     vertex 3.9756194643e+01 1.9756194643e+01 0.0000000000e+00
   endloop
 endfacet
 facet normal  1.0565479711e-01 -1.0565479711e-01 -9.8877405290e-01
   outer loop
     vertex 3.9756194643e+01 1.9756194643e+01 0.0000000000e+00
     vertex 4.7823289651e+01 2.9243805357e+01 -1.5178826576e-01
     vertex 4.9243805357e+01 2.9243805357e+01 0.0000000000e+00
   endloop
 endfacet
 facet normal  1.0565479711e-01 -1.0565479711e-01 -9.8877405290e-01
   outer loop
     vertex 3.9756194643e+01 1.9756194643e+01 0.0000000000e+00
     vertex 3.8335678937e+01 1.9756194643e+01 -1.5178826576e-01
     vertex 4.7823289651e+01 2.9243805357e+01 -1.5178826576e-01
   endloop
 endfacet
 facet normal  1.0660693761e-01 -1.0660693761e-01 -9.8856963422e-01
   outer loop
     vertex 3.8335678937e+01 1.9756194643e+01 -1.5178826576e-01
     vertex 4.4549282583e+01 2.9243805357e+01 -5.0485582429e-01
     vertex 4.7823289651e+01 2.9243805357e+01 -1.5178826576e-01
   endloop
 endfacet
 facet normal  1.0660693761e-01 -1.0660693761e-01 -9.8856963422e-01
   outer loop
     vertex 3.8335678937e+01 1.9756194643e+01 -1.5178826576e-01
     vertex 3.5061671869e+01 1.9756194643e+01 -5.0485582429e-01
     vertex 4.4549282583e+01 2.9243805357e+01 -5.0485582429e-01
   endloop
 endfacet
 facet normal  9.6488658932e-02 -9.6488658932e-02 -9.9064619183e-01
   outer loop
     vertex 3.5061671869e+01 1.9756194643e+01 -5.0485582429e-01
     vertex 3.9133371434e+01 2.9243805357e+01 -1.0323640386e+00
     vertex 4.4549282583e+01 2.9243805357e+01 -5.0485582429e-01
   endloop
 endfacet
 facet normal  9.6488658932e-02 -9.6488658932e-02 -9.9064619183e-01
   outer loop
     vertex 3.5061671869e+01 1.9756194643e+01 -5.0485582429e-01
     vertex 2.9645760720e+01 1.9756194643e+01 -1.0323640386e+00
     vertex 3.9133371434e+01 2.9243805357e+01 -1.0323640386e+00
   endloop
 endfacet
 facet normal  2.0655330994e-02 -2.0655330994e-02 -9.9957326625e-01
   outer loop
     vertex 2.9645760720e+01 1.9756194643e+01 -1.0323640386e+00
     vertex 2.4209121853e+01 1.9756194643e+01 -1.1447075547e+00
     vertex 3.9133371434e+01 2.9243805357e+01 -1.0323640386e+00
   endloop
 endfacet
 facet normal  2.0655330994e-02 -2.0655330994e-02 -9.9957326625e-01
   outer loop
     vertex 3.9133371434e+01 2.9243805357e+01 -1.0323640386e+00
     vertex 2.4209121853e+01 1.9756194643e+01 -1.1447075547e+00
     vertex 3.3696732567e+01 2.9243805357e+01 -1.1447075547e+00
   endloop
 endfacet
 facet normal  -1.3613229662e-01 1.3613229662e-01 -9.8129302231e-01
   outer loop
     vertex 2.4209121853e+01 1.9756194643e+01 -1.1447075547e+00
     vertex 2.0951332575e+01 1.9756194643e+01 -6.9276269593e-01
     vertex 3.3696732567e+01 2.9243805357e+01 -1.1447075547e+00
   endloop
 endfacet
 facet normal  -1.3613229662e-01 1.3613229662e-01 -9.8129302231e-01
   outer loop
     vertex 3.3696732567e+01 2.9243805357e+01 -1.1447075547e+00
     vertex 2.0951332575e+01 1.9756194643e+01 -6.9276269593e-01
     vertex 3.0438943289e+01 2.9243805357e+01 -6.9276269593e-01
   endloop
 endfacet
 facet normal  -4.4828024732e-01 4.4828024732e-01 -7.7336255387e-01
   outer loop
     vertex 2.0951332575e+01 1.9756194643e+01 -6.9276269593e-01
     vertex 1.9756194643e+01 1.9756194643e+01 0.0000000000e+00
     vertex 3.0438943289e+01 2.9243805357e+01 -6.9276269593e-01
   endloop
 endfacet
 facet normal  -4.4828024732e-01 4.4828024732e-01 -7.7336255387e-01
   outer loop
     vertex 3.0438943289e+01 2.9243805357e+01 -6.9276269593e-01
     vertex 1.9756194643e+01 1.9756194643e+01 0.0000000000e+00
     vertex 2.9243805357e+01 2.9243805357e+01 0.0000000000e+00
   endloop
 endfacet
 facet normal  -4.4828024732e-01 4.4828024732e-01 7.7336255387e-01
   outer loop
     vertex 1.9756194643e+01 1.9756194643e+01 0.0000000000e+00
     vertex 3.0438943289e+01 2.9243805357e+01 6.9276269593e-01
     vertex 2.9243805357e+01 2.9243805357e+01 0.0000000000e+00
   endloop
 endfacet
 facet normal  -4.4828024732e-01 4.4828024732e-01 7.7336255387e-01
   outer loop
     vertex 1.9756194643e+01 1.9756194643e+01 0.0000000000e+00
     vertex 2.0951332575e+01 1.9756194643e+01 6.9276269593e-01
     vertex 3.0438943289e+01 2.9243805357e+01 6.9276269593e-01
   endloop
 endfacet
 facet normal  -1.3613229662e-01 1.3613229662e-01 9.8129302231e-01
   outer loop
     vertex 2.0951332575e+01 1.9756194643e+01 6.9276269593e-01
     vertex 3.3696732567e+01 2.9243805357e+01 1.1447075547e+00
     vertex 3.0438943289e+01 2.9243805357e+01 6.9276269593e-01
   endloop
 endfacet
 facet normal  -1.3613229662e-01 1.3613229662e-01 9.8129302231e-01
   outer loop
     vertex 2.0951332575e+01 1.9756194643e+01 6.9276269593e-01
     vertex 2.4209121853e+01 1.9756194643e+01 1.1447075547e+00
     vertex 3.3696732567e+01 2.9243805357e+01 1.1447075547e+00
   endloop
 endfacet
 facet normal  2.0655330994e-02 -2.0655330994e-02 9.9957326625e-01
   outer loop
     vertex 2.4209121853e+01 1.9756194643e+01 1.1447075547e+00
     vertex 3.9133371434e+01 2.9243805357e+01 1.0323640386e+00
     vertex 3.3696732567e+01 2.9243805357e+01 1.1447075547e+00
   endloop
 endfacet
 facet normal  2.0655330994e-02 -2.0655330994e-02 9.9957326625e-01
   outer loop
     vertex 2.4209121853e+01 1.9756194643e+01 1.1447075547e+00
     vertex 2.9645760720e+01 1.9756194643e+01 1.0323640386e+00
     vertex 3.9133371434e+01 2.9243805357e+01 1.0323640386e+00
   endloop
 endfacet
 facet normal  9.6488658932e-02 -9.6488658932e-02 9.9064619183e-01
   outer loop
     vertex 2.9645760720e+01 1.9756194643e+01 1.0323640386e+00
     vertex 3.5061671869e+01 1.9756194643e+01 5.0485582429e-01
     vertex 3.9133371434e+01 2.9243805357e+01 1.0323640386e+00
   endloop
 endfacet
 facet normal  9.6488658932e-02 -9.6488658932e-02 9.9064619183e-01
   outer loop
     vertex 3.9133371434e+01 2.9243805357e+01 1.0323640386e+00
     vertex 3.5061671869e+01 1.9756194643e+01 5.0485582429e-01
     vertex 4.4549282583e+01 2.9243805357e+01 5.0485582429e-01
   endloop
 endfacet
 facet normal  1.0660693761e-01 -1.0660693761e-01 9.8856963422e-01
   outer loop
     vertex 3.5061671869e+01 1.9756194643e+01 5.0485582429e-01
     vertex 3.8335678937e+01 1.9756194643e+01 1.5178826576e-01
     vertex 4.4549282583e+01 2.9243805357e+01 5.0485582429e-01
   endloop
 endfacet
 facet normal  1.0660693761e-01 -1.0660693761e-01 9.8856963422e-01
   outer loop
     vertex 4.4549282583e+01 2.9243805357e+01 5.0485582429e-01
     vertex 3.8335678937e+01 1.9756194643e+01 1.5178826576e-01
     vertex 4.7823289651e+01 2.9243805357e+01 1.5178826576e-01
   endloop
 endfacet
 facet normal  1.0565479711e-01 -1.0565479711e-01 9.8877405290e-01
   outer loop
     vertex 3.8335678937e+01 1.9756194643e+01 1.5178826576e-01
     vertex 3.9756194643e+01 1.9756194643e+01 0.0000000000e+00
     vertex 4.7823289651e+01 2.9243805357e+01 1.5178826576e-01
   endloop
 endfacet
 facet normal  1.0565479711e-01 -1.0565479711e-01 9.8877405290e-01
   outer loop
     vertex 4.7823289651e+01 2.9243805357e+01 1.5178826576e-01
     vertex 3.9756194643e+01 1.9756194643e+01 0.0000000000e+00
     vertex 4.9243805357e+01 2.9243805357e+01 0.0000000000e+00
   endloop
 endfacet
 facet normal  1.0565479711e-01 -1.0565479711e-01 -9.8877405290e-01
   outer loop
     vertex 4.9243805357e+01 2.9243805357e+01 0.0000000000e+00
     vertex 5.6197482210e+01 3.7617997916e+01 -1.5178826576e-01
     vertex 5.7617997916e+01 3.7617997916e+01 0.0000000000e+00
   endloop
 endfacet
 facet normal  1.0565479711e-01 -1.0565479711e-01 -9.8877405290e-01
   outer loop
     vertex 4.9243805357e+01 2.9243805357e+01 0.0000000000e+00
     vertex 4.7823289651e+01 2.9243805357e+01 -1.5178826576e-01
     vertex 5.6197482210e+01 3.7617997916e+01 -1.5178826576e-01
   endloop
 endfacet
 facet normal  1.0660693761e-01 -1.0660693761e-01 -9.8856963422e-01
   outer loop
     vertex 4.7823289651e+01 2.9243805357e+01 -1.5178826576e-01
     vertex 5.2923475142e+01 3.7617997916e+01 -5.0485582429e-01
     vertex 5.6197482210e+01 3.7617997916e+01 -1.5178826576e-01
   endloop
 endfacet
 facet normal  1.0660693761e-01 -1.0660693761e-01 -9.8856963422e-01
   outer loop
     vertex 4.7823289651e+01 2.9243805357e+01 -1.5178826576e-01
     vertex 4.4549282583e+01 2.9243805357e+01 -5.0485582429e-01
     vertex 5.2923475142e+01 3.7617997916e+01 -5.0485582429e-01
   endloop
 endfacet
 facet normal  9.6488658932e-02 -9.6488658932e-02 -9.9064619183e-01
   outer loop
     vertex 4.4549282583e+01 2.9243805357e+01 -5.0485582429e-01
     vertex 4.7507563993e+01 3.7617997916e+01 -1.0323640386e+00
     vertex 5.2923475142e+01 3.7617997916e+01 -5.0485582429e-01
   endloop
 endfacet
 facet normal  9.6488658932e-02 -9.6488658932e-02 -9.9064619183e-01
   outer loop
     vertex 4.4549282583e+01 2.9243805357e+01 -5.0485582429e-01
     vertex 3.9133371434e+01 2.9243805357e+01 -1.0323640386e+00
     vertex 4.7507563993e+01 3.7617997916e+01 -1.0323640386e+00
   endloop
 endfacet
 facet normal  2.0655330994e-02 -2.0655330994e-02 -9.9957326625e-01
   outer loop
     vertex 3.9133371434e+01 2.9243805357e+01 -1.0323640386e+00
     vertex 3.3696732567e+01 2.9243805357e+01 -1.1447075547e+00
     vertex 4.7507563993e+01 3.7617997916e+01 -1.0323640386e+00
   endloop
 endfacet
 facet normal  2.0655330994e-02 -2.0655330994e-02 -9.9957326625e-01
   outer loop
     vertex 4.7507563993e+01 3.7617997916e+01 -1.0323640386e+00
     vertex 3.3696732567e+01 2.9243805357e+01 -1.1447075547e+00
     vertex 4.2070925126e+01 3.7617997916e+01 -1.1447075547e+00
   endloop
 endfacet
 facet normal  -1.3613229662e-01 1.3613229662e-01 -9.8129302231e-01
   outer loop
     vertex 3.3696732567e+01 2.9243805357e+01 -1.1447075547e+00
     vertex 3.0438943289e+01 2.9243805357e+01 -6.9276269593e-01
     vertex 4.2070925126e+01 3.7617997916e+01 -1.1447075547e+00
   endloop
 endfacet
 facet normal  -1.3613229662e-01 1.3613229662e-01 -9.8129302231e-01
   outer loop
     vertex 4.2070925126e+01 3.7617997916e+01 -1.1447075547e+00
     vertex 3.0438943289e+01 2.9243805357e+01 -6.9276269593e-01
     vertex 3.8813135848e+01 3.7617997916e+01 -6.9276269593e-01
   endloop
 endfacet
 facet normal  -4.4828024732e-01 4.4828024732e-01 -7.7336255387e-01
   outer loop
     vertex 3.0438943289e+01 2.9243805357e+01 -6.9276269593e-01
     vertex 2.9243805357e+01 2.9243805357e+01 0.0000000000e+00
     vertex 3.8813135848e+01 3.7617997916e+01 -6.9276269593e-01
   endloop
 endfacet
 facet normal  -4.4828024732e-01 4.4828024732e-01 -7.7336255387e-01
   outer loop
     vertex 3.8813135848e+01 3.7617997916e+01 -6.9276269593e-01
     vertex 2.9243805357e+01 2.9243805357e+01 0.0000000000e+00
     vertex 3.7617997916e+01 3.7617997916e+01 0.0000000000e+00
   endloop
 endfacet
 facet normal  -4.4828024732e-01 4.4828024732e-01 7.7336255387e-01
   outer loop
     vertex 2.9243805357e+01 2.9243805357e+01 0.0000000000e+00
     vertex 3.8813135848e+01 3.7617997916e+01 6.9276269593e-01
     vertex 3.7617997916e+01 3.7617997916e+01 0.0000000000e+00
   endloop
 endfacet
 facet normal  -4.4828024732e-01 4.4828024732e-01 7.7336255387e-01
   outer loop
     vertex 2.9243805357e+01 2.9243805357e+01 0.0000000000e+00
     vertex 3.0438943289e+01 2.9243805357e+01 6.9276269593e-01
     vertex 3.8813135848e+01 3.7617997916e+01 6.9276269593e-01
   endloop
 endfacet
 facet normal  -1.3613229662e-01 1.3613229662e-01 9.8129302231e-01
   outer loop
     vertex 3.0438943289e+01 2.9243805357e+01 6.9276269593e-01
     vertex 4.2070925126e+01 3.7617997916e+01 1.1447075547e+00
     vertex 3.8813135848e+01 3.7617997916e+01 6.9276269593e-01
   endloop
 endfacet
 facet normal  -1.3613229662e-01 1.3613229662e-01 9.8129302231e-01
   outer loop
     vertex 3.0438943289e+01 2.9243805357e+01 6.9276269593e-01
     vertex 3.3696732567e+01 2.9243805357e+01 1.1447075547e+00
     vertex 4.2070925126e+01 3.7617997916e+01 1.1447075547e+00
   endloop
 endfacet
 facet normal  2.0655330994e-02 -2.0655330994e-02 9.9957326625e-01
   outer loop
     vertex 3.3696732567e+01 2.9243805357e+01 1.1447075547e+00
     vertex 4.7507563993e+01 3.7617997916e+01 1.0323640386e+00
     vertex 4.2070925126e+01 3.7617997916e+01 1.1447075547e+00
   endloop
 endfacet
 facet normal  2.0655330994e-02 -2.0655330994e-02 9.9957326625e-01
   outer loop
     vertex 3.3696732567e+01 2.9243805357e+01 1.1447075547e+00
     vertex 3.9133371434e+01 2.9243805357e+01 1.0323640386e+00
     vertex 4.7507563993e+01 3.7617997916e+01 1.0323640386e+00
   endloop
 endfacet
 facet normal  9.6488658932e-02 -9.6488658932e-02 9.9064619183e-01
   outer loop
     vertex 3.9133371434e+01 2.9243805357e+01 1.0323640386e+00
     vertex 4.4549282583e+01 2.9243805357e+01 5.0485582429e-01
     vertex 4.7507563993e+01 3.7617997916e+01 1.0323640386e+00
   endloop
 endfacet
 facet normal  9.6488658932e-02 -9.6488658932e-02 9.9064619183e-01
   outer loop
     vertex 4.7507563993e+01 3.7617997916e+01 1.0323640386e+00
     vertex 4.4549282583e+01 2.9243805357e+01 5.0485582429e-01
     vertex 5.2923475142e+01 3.7617997916e+01 5.0485582429e-01
   endloop
 endfacet
 facet normal  1.0660693761e-01 -1.0660693761e-01 9.8856963422e-01
   outer loop
     vertex 4.4549282583e+01 2.9243805357e+01 5.0485582429e-01
     vertex 4.7823289651e+01 2.9243805357e+01 1.5178826576e-01
     vertex 5.2923475142e+01 3.7617997916e+01 5.0485582429e-01
   endloop
 endfacet
 facet normal  1.0660693761e-01 -1.0660693761e-01 9.8856963422e-01
   outer loop
     vertex 5.2923475142e+01 3.7617997916e+01 5.0485582429e-01
     vertex 4.7823289651e+01 2.9243805357e+01 1.5178826576e-01
     vertex 5.6197482210e+01 3.7617997916e+01 1.5178826576e-01
   endloop
 endfacet
 facet normal  1.0565479711e-01 -1.0565479711e-01 9.8877405290e-01
   outer loop
     vertex 4.7823289651e+01 2.9243805357e+01 1.5178826576e-01
     vertex 4.9243805357e+01 2.9243805357e+01 0.0000000000e+00
     vertex 5.6197482210e+01 3.7617997916e+01 1.5178826576e-01
   endloop
 endfacet
 facet normal  1.0565479711e-01 -1.0565479711e-01 9.8877405290e-01
   outer loop
     vertex 5.6197482210e+01 3.7617997916e+01 1.5178826576e-01
     vertex 4.9243805357e+01 2.9243805357e+01 0.0000000000e+00
     vertex 5.7617997916e+01 3.7617997916e+01 0.0000000000e+00
   endloop
 endfacet
 facet normal  1.0565479711e-01 -1.0565479711e-01 -9.8877405290e-01
   outer loop
     vertex 5.7617997916e+01 3.7617997916e+01 0.0000000000e+00
     vertex 6.2109152486e+01 4.3529668192e+01 -1.5178826576e-01
     vertex 6.3529668192e+01 4.3529668192e+01 0.0000000000e+00
   endloop
 endfacet
 facet normal  1.0565479711e-01 -1.0565479711e-01 -9.8877405290e-01
   outer loop
     vertex 5.7617997916e+01 3.7617997916e+01 0.0000000000e+00
     vertex 5.6197482210e+01 3.7617997916e+01 -1.5178826576e-01
     vertex 6.2109152486e+01 4.3529668192e+01 -1.5178826576e-01
   endloop
 endfacet
 facet normal  1.0660693761e-01 -1.0660693761e-01 -9.8856963422e-01
   outer loop
     vertex 5.6197482210e+01 3.7617997916e+01 -1.5178826576e-01
     vertex 5.8835145418e+01 4.3529668192e+01 -5.0485582429e-01
     vertex 6.2109152486e+01 4.3529668192e+01 -1.5178826576e-01
   endloop
 endfacet
 facet normal  1.0660693761e-01 -1.0660693761e-01 -9.8856963422e-01
   outer loop
     vertex 5.6197482210e+01 3.7617997916e+01 -1.5178826576e-01
     vertex 5.2923475142e+01 3.7617997916e+01 -5.0485582429e-01
     vertex 5.8835145418e+01 4.3529668192e+01 -5.0485582429e-01
   endloop
 endfacet
 facet normal  9.6488658932e-02 -9.6488658932e-02 -9.9064619183e-01
   outer loop
     vertex 5.2923475142e+01 3.7617997916e+01 -5.0485582429e-01
     vertex 5.3419234269e+01 4.3529668192e+01 -1.0323640386e+00
     vertex 5.8835145418e+01 4.3529668192e+01 -5.0485582429e-01
   endloop
 endfacet
 facet normal  9.6488658932e-02 -9.6488658932e-02 -9.9064619183e-01
   outer loop
     vertex 5.2923475142e+01 3.7617997916e+01 -5.0485582429e-01
     vertex 4.7507563993e+01 3.7617997916e+01 -1.0323640386e+00
     vertex 5.3419234269e+01 4.3529668192e+01 -1.0323640386e+00
   endloop
 endfacet
 facet normal  2.0655330994e-02 -2.0655330994e-02 -9.9957326625e-01
   outer loop
     vertex 4.7507563993e+01 3.7617997916e+01 -1.0323640386e+00
     vertex 4.2070925126e+01 3.7617997916e+01 -1.1447075547e+00
     vertex 5.3419234269e+01 4.3529668192e+01 -1.0323640386e+00
   endloop
 endfacet
 facet normal  2.0655330994e-02 -2.0655330994e-02 -9.9957326625e-01
   outer loop
     vertex 5.3419234269e+01 4.3529668192e+01 -1.0323640386e+00
     vertex 4.2070925126e+01 3.7617997916e+01 -1.1447075547e+00
     vertex 4.7982595402e+01 4.3529668192e+01 -1.1447075547e+00
   endloop
 endfacet
 facet normal  -1.3613229662e-01 1.3613229662e-01 -9.8129302231e-01
   outer loop
     vertex 4.2070925126e+01 3.7617997916e+01 -1.1447075547e+00
     vertex 3.8813135848e+01 3.7617997916e+01 -6.9276269593e-01
     vertex 4.7982595402e+01 4.3529668192e+01 -1.1447075547e+00
   endloop
 endfacet
 facet normal  -1.3613229662e-01 1.3613229662e-01 -9.8129302231e-01
   outer loop
     vertex 4.7982595402e+01 4.3529668192e+01 -1.1447075547e+00
     vertex 3.8813135848e+01 3.7617997916e+01 -6.9276269593e-01
     vertex 4.4724806124e+01 4.3529668192e+01 -6.9276269593e-01
   endloop
 endfacet
 facet normal  -4.4828024732e-01 4.4828024732e-01 -7.7336255387e-01
   outer loop
     vertex 3.8813135848e+01 3.7617997916e+01 -6.9276269593e-01
     vertex 3.7617997916e+01 3.7617997916e+01 0.0000000000e+00
     vertex 4.4724806124e+01 4.3529668192e+01 -6.9276269593e-01
   endloop
 endfacet
 facet normal  -4.4828024732e-01 4.4828024732e-01 -7.7336255387e-01
   outer loop
     vertex 4.4724806124e+01 4.3529668192e+01 -6.9276269593e-01
     vertex 3.7617997916e+01 3.7617997916e+01 0.0000000000e+00
     vertex 4.3529668192e+01 4.3529668192e+01 0.0000000000e+00
   endloop
 endfacet
 facet normal  -4.4828024732e-01 4.4828024732e-01 7.7336255387e-01
   outer loop
     vertex 3.7617997916e+01 3.7617997916e+01 0.0000000000e+00
     vertex 4.4724806124e+01 4.3529668192e+01 6.9276269593e-01
     vertex 4.3529668192e+01 4.3529668192e+01 0.0000000000e+00
   endloop
 endfacet
 facet normal  -4.4828024732e-01 4.4828024732e-01 7.7336255387e-01
   outer loop
     vertex 3.7617997916e+01 3.7617997916e+01 0.0000000000e+00
     vertex 3.8813135848e+01 3.7617997916e+01 6.9276269593e-01
     vertex 4.4724806124e+01 4.3529668192e+01 6.9276269593e-01
   endloop
 endfacet
 facet normal  -1.3613229662e-01 1.3613229662e-01 9.8129302231e-01
   outer loop
     vertex 3.8813135848e+01 3.7617997916e+01 6.9276269593e-01
     vertex 4.7982595402e+01 4.3529668192e+01 1.1447075547e+00
     vertex 4.4724806124e+01 4.3529668192e+01 6.9276269593e-01
   endloop
 endfacet
 facet normal  -1.3613229662e-01 1.3613229662e-01 9.8129302231e-01
   outer loop
     vertex 3.8813135848e+01 3.7617997916e+01 6.9276269593e-01
     vertex 4.2070925126e+01 3.7617997916e+01 1.1447075547e+00
     vertex 4.7982595402e+01 4.3529668192e+01 1.1447075547e+00
   endloop
 endfacet
 facet normal  2.0655330994e-02 -2.0655330994e-02 9.9957326625e-01
   outer loop
     vertex 4.2070925126e+01 3.7617997916e+01 1.1447075547e+00
     vertex 5.3419234269e+01 4.3529668192e+01 1.0323640386e+00
     vertex 4.7982595402e+01 4.3529668192e+01 1.1447075547e+00
   endloop
 endfacet
 facet normal  2.0655330994e-02 -2.0655330994e-02 9.9957326625e-01
   outer loop
     vertex 4.2070925126e+01 3.7617997916e+01 1.1447075547e+00
     vertex 4.7507563993e+01 3.7617997916e+01 1.0323640386e+00
     vertex 5.3419234269e+01 4.3529668192e+01 1.0323640386e+00
   endloop
 endfacet
 facet normal  9.6488658932e-02 -9.6488658932e-02 9.9064619183e-01
   outer loop
     vertex 4.7507563993e+01 3.7617997916e+01 1.0323640386e+00
     vertex 5.2923475142e+01 3.7617997916e+01 5.0485582429e-01
     vertex 5.3419234269e+01 4.3529668192e+01 1.0323640386e+00
   endloop
 endfacet
 facet normal  9.6488658932e-02 -9.6488658932e-02 9.9064619183e-01
   outer loop
     vertex 5.3419234269e+01 4.3529668192e+01 1.0323640386e+00
     vertex 5.2923475142e+01 3.7617997916e+01 5.0485582429e-01
     vertex 5.8835145418e+01 4.3529668192e+01 5.0485582429e-01
   endloop
 endfacet
 facet normal  1.0660693761e-01 -1.0660693761e-01 9.8856963422e-01
   outer loop
     vertex 5.2923475142e+01 3.7617997916e+01 5.0485582429e-01
     vertex 5.6197482210e+01 3.7617997916e+01 1.5178826576e-01
     vertex 5.8835145418e+01 4.3529668192e+01 5.0485582429e-01
   endloop
 endfacet
 facet normal  1.0660693761e-01 -1.0660693761e-01 9.8856963422e-01
   outer loop
     vertex 5.8835145418e+01 4.3529668192e+01 5.0485582429e-01
     vertex 5.6197482210e+01 3.7617997916e+01 1.5178826576e-01
     vertex 6.2109152486e+01 4.3529668192e+01 1.5178826576e-01
   endloop
 endfacet
 facet normal  1.0565479711e-01 -1.0565479711e-01 9.8877405290e-01
   outer loop
     vertex 5.6197482210e+01 3.7617997916e+01 1.5178826576e-01
     vertex 5.7617997916e+01 3.7617997916e+01 0.0000000000e+00
     vertex 6.2109152486e+01 4.3529668192e+01 1.5178826576e-01
   endloop
 endfacet
 facet normal  1.0565479711e-01 -1.0565479711e-01 9.8877405290e-01
   outer loop
     vertex 6.2109152486e+01 4.3529668192e+01 1.5178826576e-01
     vertex 5.7617997916e+01 3.7617997916e+01 0.0000000000e+00
     vertex 6.3529668192e+01 4.3529668192e+01 0.0000000000e+00
   endloop
 endfacet
 facet normal  1.0565479711e-01 -1.0565479711e-01 -9.8877405290e-01
   outer loop
     vertex 6.3529668192e+01 4.3529668192e+01 0.0000000000e+00
     vertex 6.5655730610e+01 4.7076246317e+01 -1.5178826576e-01
     vertex 6.7076246317e+01 4.7076246317e+01 0.0000000000e+00
   endloop
 endfacet
 facet normal  1.0565479711e-01 -1.0565479711e-01 -9.8877405290e-01
   outer loop
     vertex 6.3529668192e+01 4.3529668192e+01 0.0000000000e+00
     vertex 6.2109152486e+01 4.3529668192e+01 -1.5178826576e-01
     vertex 6.5655730610e+01 4.7076246317e+01 -1.5178826576e-01
   endloop
 endfacet
 facet normal  1.0660693761e-01 -1.0660693761e-01 -9.8856963422e-01
   outer loop
     vertex 6.2109152486e+01 4.3529668192e+01 -1.5178826576e-01
     vertex 6.2381723543e+01 4.7076246317e+01 -5.0485582429e-01
     vertex 6.5655730610e+01 4.7076246317e+01 -1.5178826576e-01
   endloop
 endfacet
 facet normal  1.0660693761e-01 -1.0660693761e-01 -9.8856963422e-01
   outer loop
     vertex 6.2109152486e+01 4.3529668192e+01 -1.5178826576e-01
     vertex 5.8835145418e+01 4.3529668192e+01 -5.0485582429e-01
     vertex 6.2381723543e+01 4.7076246317e+01 -5.0485582429e-01
   endloop
 endfacet
 facet normal  9.6488658932e-02 -9.6488658932e-02 -9.9064619183e-01
   outer loop
     vertex 5.8835145418e+01 4.3529668192e+01 -5.0485582429e-01
     vertex 5.6965812393e+01 4.7076246317e+01 -1.0323640386e+00
     vertex 6.2381723543e+01 4.7076246317e+01 -5.0485582429e-01
   endloop
 endfacet
 facet normal  9.6488658932e-02 -9.6488658932e-02 -9.9064619183e-01
   outer loop
     vertex 5.8835145418e+01 4.3529668192e+01 -5.0485582429e-01
     vertex 5.3419234269e+01 4.3529668192e+01 -1.0323640386e+00
     vertex 5.6965812393e+01 4.7076246317e+01 -1.0323640386e+00
   endloop
 endfacet
 facet normal  2.0655330994e-02 -2.0655330994e-02 -9.9957326625e-01
   outer loop
     vertex 5.3419234269e+01 4.3529668192e+01 -1.0323640386e+00
     vertex 4.7982595402e+01 4.3529668192e+01 -1.1447075547e+00
     vertex 5.6965812393e+01 4.7076246317e+01 -1.0323640386e+00
   endloop
 endfacet
 facet normal  2.0655330994e-02 -2.0655330994e-02 -9.9957326625e-01
   outer loop
     vertex 5.6965812393e+01 4.7076246317e+01 -1.0323640386e+00
     vertex 4.7982595402e+01 4.3529668192e+01 -1.1447075547e+00
     vertex 5.1529173527e+01 4.7076246317e+01 -1.1447075547e+00
   endloop
 endfacet
 facet normal  -1.3613229662e-01 1.3613229662e-01 -9.8129302231e-01
   outer loop
     vertex 4.7982595402e+01 4.3529668192e+01 -1.1447075547e+00
     vertex 4.4724806124e+01 4.3529668192e+01 -6.9276269593e-01
     vertex 5.1529173527e+01 4.7076246317e+01 -1.1447075547e+00
   endloop
 endfacet
 facet normal  -1.3613229662e-01 1.3613229662e-01 -9.8129302231e-01
   outer loop
     vertex 5.1529173527e+01 4.7076246317e+01 -1.1447075547e+00
     vertex 4.4724806124e+01 4.3529668192e+01 -6.9276269593e-01
     vertex 4.8271384249e+01 4.7076246317e+01 -6.9276269593e-01
   endloop
 endfacet
 facet normal  -4.4828024732e-01 4.4828024732e-01 -7.7336255387e-01
   outer loop
     vertex 4.4724806124e+01 4.3529668192e+01 -6.9276269593e-01
     vertex 4.3529668192e+01 4.3529668192e+01 0.0000000000e+00
     vertex 4.8271384249e+01 4.7076246317e+01 -6.9276269593e-01
   endloop
 endfacet
 facet normal  -4.4828024732e-01 4.4828024732e-01 -7.7336255387e-01
   outer loop
     vertex 4.8271384249e+01 4.7076246317e+01 -6.9276269593e-01
     vertex 4.3529668192e+01 4.3529668192e+01 0.0000000000e+00
     vertex 4.7076246317e+01 4.7076246317e+01 0.0000000000e+00
   endloop
 endfacet
 facet normal  -4.4828024732e-01 4.4828024732e-01 7.7336255387e-01
   outer loop
     vertex 4.3529668192e+01 4.3529668192e+01 0.0000000000e+00
     vertex 4.8271384249e+01 4.7076246317e+01 6.9276269593e-01
     vertex 4.7076246317e+01 4.7076246317e+01 0.0000000000e+00
   endloop
 endfacet
 facet normal  -4.4828024732e-01 4.4828024732e-01 7.7336255387e-01
   outer loop
     vertex 4.3529668192e+01 4.3529668192e+01 0.0000000000e+00
     vertex 4.4724806124e+01 4.3529668192e+01 6.9276269593e-01
     vertex 4.8271384249e+01 4.7076246317e+01 6.9276269593e-01
   endloop
 endfacet
 facet normal  -1.3613229662e-01 1.3613229662e-01 9.8129302231e-01
   outer loop
     vertex 4.4724806124e+01 4.3529668192e+01 6.9276269593e-01
     vertex 5.1529173527e+01 4.7076246317e+01 1.1447075547e+00
     vertex 4.8271384249e+01 4.7076246317e+01 6.9276269593e-01
   endloop
 endfacet
 facet normal  -1.3613229662e-01 1.3613229662e-01 9.8129302231e-01
   outer loop
     vertex 4.4724806124e+01 4.3529668192e+01 6.9276269593e-01
     vertex 4.7982595402e+01 4.3529668192e+01 1.1447075547e+00
     vertex 5.1529173527e+01 4.7076246317e+01 1.1447075547e+00
   endloop
 endfacet
 facet normal  2.0655330994e-02 -2.0655330994e-02 9.9957326625e-01
   outer loop
     vertex 4.7982595402e+01 4.3529668192e+01 1.1447075547e+00
     vertex 5.6965812393e+01 4.7076246317e+01 1.0323640386e+00
     vertex 5.1529173527e+01 4.7076246317e+01 1.1447075547e+00
   endloop
 endfacet
 facet normal  2.0655330994e-02 -2.0655330994e-02 9.9957326625e-01
   outer loop
     vertex 4.7982595402e+01 4.3529668192e+01 1.1447075547e+00
     vertex 5.3419234269e+01 4.3529668192e+01 1.0323640386e+00
     vertex 5.6965812393e+01 4.7076246317e+01 1.0323640386e+00
   endloop
 endfacet
 facet normal  9.6488658932e-02 -9.6488658932e-02 9.9064619183e-01
   outer loop
     vertex 5.3419234269e+01 4.3529668192e+01 1.0323640386e+00
     vertex 5.8835145418e+01 4.3529668192e+01 5.0485582429e-01
     vertex 5.6965812393e+01 4.7076246317e+01 1.0323640386e+00
   endloop
 endfacet
 facet normal  9.6488658932e-02 -9.6488658932e-02 9.9064619183e-01
   outer loop
     vertex 5.6965812393e+01 4.7076246317e+01 1.0323640386e+00
     vertex 5.8835145418e+01 4.3529668192e+01 5.0485582429e-01
     vertex 6.2381723543e+01 4.7076246317e+01 5.0485582429e-01
   endloop
 endfacet
 facet normal  1.0660693761e-01 -1.0660693761e-01 9.8856963422e-01
   outer loop
     vertex 5.8835145418e+01 4.3529668192e+01 5.0485582429e-01
     vertex 6.2109152486e+01 4.3529668192e+01 1.5178826576e-01
     vertex 6.2381723543e+01 4.7076246317e+01 5.0485582429e-01
   endloop
 endfacet
 facet normal  1.0660693761e-01 -1.0660693761e-01 9.8856963422e-01
   outer loop
     vertex 6.2381723543e+01 4.7076246317e+01 5.0485582429e-01
     vertex 6.2109152486e+01 4.3529668192e+01 1.5178826576e-01
     vertex 6.5655730610e+01 4.7076246317e+01 1.5178826576e-01
   endloop
 endfacet
 facet normal  1.0565479711e-01 -1.0565479711e-01 9.8877405290e-01
   outer loop
     vertex 6.2109152486e+01 4.3529668192e+01 1.5178826576e-01
     vertex 6.3529668192e+01 4.3529668192e+01 0.0000000000e+00
     vertex 6.5655730610e+01 4.7076246317e+01 1.5178826576e-01
   endloop
 endfacet
 facet normal  1.0565479711e-01 -1.0565479711e-01 9.8877405290e-01
   outer loop
     vertex 6.5655730610e+01 4.7076246317e+01 1.5178826576e-01
     vertex 6.3529668192e+01 4.3529668192e+01 0.0000000000e+00
     vertex 6.7076246317e+01 4.7076246317e+01 0.0000000000e+00
   endloop
 endfacet
 facet normal  1.0565479711e-01 -1.0565479711e-01 -9.8877405290e-01
   outer loop
     vertex 6.7076246317e+01 4.7076246317e+01 0.0000000000e+00
     vertex 6.7579484294e+01 4.9000000000e+01 -1.5178826576e-01
     vertex 6.9000000000e+01 4.9000000000e+01 0.0000000000e+00
   endloop
 endfacet
 facet normal  1.0565479711e-01 -1.0565479711e-01 -9.8877405290e-01
   outer loop
     vertex 6.7076246317e+01 4.7076246317e+01 0.0000000000e+00
     vertex 6.5655730610e+01 4.7076246317e+01 -1.5178826576e-01
     vertex 6.7579484294e+01 4.9000000000e+01 -1.5178826576e-01
   endloop
 endfacet
 facet normal  1.0660693761e-01 -1.0660693761e-01 -9.8856963422e-01
   outer loop
     vertex 6.5655730610e+01 4.7076246317e+01 -1.5178826576e-01
     vertex 6.4305477226e+01 4.9000000000e+01 -5.0485582429e-01
     vertex 6.7579484294e+01 4.9000000000e+01 -1.5178826576e-01
   endloop
 endfacet
 facet normal  1.0660693761e-01 -1.0660693761e-01 -9.8856963422e-01
   outer loop
     vertex 6.5655730610e+01 4.7076246317e+01 -1.5178826576e-01
     vertex 6.2381723543e+01 4.7076246317e+01 -5.0485582429e-01
     vertex 6.4305477226e+01 4.9000000000e+01 -5.0485582429e-01
   endloop
 endfacet
 facet normal  9.6488658932e-02 -9.6488658932e-02 -9.9064619183e-01
   outer loop
     vertex 6.2381723543e+01 4.7076246317e+01 -5.0485582429e-01
     vertex 5.8889566077e+01 4.9000000000e+01 -1.0323640386e+00
     vertex 6.4305477226e+01 4.9000000000e+01 -5.0485582429e-01
   endloop
 endfacet
 facet normal  9.6488658932e-02 -9.6488658932e-02 -9.9064619183e-01
   outer loop
     vertex 6.2381723543e+01 4.7076246317e+01 -5.0485582429e-01
     vertex 5.6965812393e+01 4.7076246317e+01 -1.0323640386e+00
     vertex 5.8889566077e+01 4.9000000000e+01 -1.0323640386e+00
   endloop
 endfacet
 facet normal  2.0655330994e-02 -2.0655330994e-02 -9.9957326625e-01
   outer loop
     vertex 5.6965812393e+01 4.7076246317e+01 -1.0323640386e+00
     vertex 5.1529173527e+01 4.7076246317e+01 -1.1447075547e+00
     vertex 5.8889566077e+01 4.9000000000e+01 -1.0323640386e+00
   endloop
 endfacet
 facet normal  2.0655330994e-02 -2.0655330994e-02 -9.9957326625e-01
   outer loop
     vertex 5.8889566077e+01 4.9000000000e+01 -1.0323640386e+00
     vertex 5.1529173527e+01 4.7076246317e+01 -1.1447075547e+00
     vertex 5.3452927210e+01 4.9000000000e+01 -1.1447075547e+00
   endloop
 endfacet
 facet normal  -1.3613229662e-01 1.3613229662e-01 -9.8129302231e-01
   outer loop
     vertex 5.1529173527e+01 4.7076246317e+01 -1.1447075547e+00
     vertex 4.8271384249e+01 4.7076246317e+01 -6.9276269593e-01
     vertex 5.3452927210e+01 4.9000000000e+01 -1.1447075547e+00
   endloop
 endfacet
 facet normal  -1.3613229662e-01 1.3613229662e-01 -9.8129302231e-01
   outer loop
     vertex 5.3452927210e+01 4.9000000000e+01 -1.1447075547e+00
     vertex 4.8271384249e+01 4.7076246317e+01 -6.9276269593e-01
     vertex 5.0195137932e+01 4.9000000000e+01 -6.9276269593e-01
   endloop
 endfacet
 facet normal  -4.4828024732e-01 4.4828024732e-01 -7.7336255387e-01
   outer loop
     vertex 4.8271384249e+01 4.7076246317e+01 -6.9276269593e-01
     vertex 4.7076246317e+01 4.7076246317e+01 0.0000000000e+00
     vertex 5.0195137932e+01 4.9000000000e+01 -6.9276269593e-01
   endloop
 endfacet
 facet normal  -4.4828024732e-01 4.4828024732e-01 -7.7336255387e-01
   outer loop
     vertex 5.0195137932e+01 4.9000000000e+01 -6.9276269593e-01
     vertex 4.7076246317e+01 4.7076246317e+01 0.0000000000e+00
     vertex 4.9000000000e+01 4.9000000000e+01 0.0000000000e+00
   endloop
 endfacet
 facet normal  -4.4828024732e-01 4.4828024732e-01 7.7336255387e-01
   outer loop
     vertex 4.7076246317e+01 4.7076246317e+01 0.0000000000e+00
     vertex 5.0195137932e+01 4.9000000000e+01 6.9276269593e-01
     vertex 4.9000000000e+01 4.9000000000e+01 0.0000000000e+00
   endloop
 endfacet
 facet normal  -4.4828024732e-01 4.4828024732e-01 7.7336255387e-01
   outer loop
     vertex 4.7076246317e+01 4.7076246317e+01 0.0000000000e+00
     vertex 4.8271384249e+01 4.7076246317e+01 6.9276269593e-01
     vertex 5.0195137932e+01 4.9000000000e+01 6.9276269593e-01
   endloop
 endfacet
 facet normal  -1.3613229662e-01 1.3613229662e-01 9.8129302231e-01
   outer loop
     vertex 4.8271384249e+01 4.7076246317e+01 6.9276269593e-01
     vertex 5.3452927210e+01 4.9000000000e+01 1.1447075547e+00
     vertex 5.0195137932e+01 4.9000000000e+01 6.9276269593e-01
   endloop
 endfacet
 facet normal  -1.3613229662e-01 1.3613229662e-01 9.8129302231e-01
   outer loop
     vertex 4.8271384249e+01 4.7076246317e+01 6.9276269593e-01
     vertex 5.1529173527e+01 4.7076246317e+01 1.1447075547e+00
     vertex 5.3452927210e+01 4.9000000000e+01 1.1447075547e+00
   endloop
 endfacet
 facet normal  2.0655330994e-02 -2.0655330994e-02 9.9957326625e-01
   outer loop
     vertex 5.1529173527e+01 4.7076246317e+01 1.1447075547e+00
     vertex 5.8889566077e+01 4.9000000000e+01 1.0323640386e+00
     vertex 5.3452927210e+01 4.9000000000e+01 1.1447075547e+00
   endloop
 endfacet
 facet normal  2.0655330994e-02 -2.0655330994e-02 9.9957326625e-01
   outer loop
     vertex 5.1529173527e+01 4.7076246317e+01 1.1447075547e+00
     vertex 5.6965812393e+01 4.7076246317e+01 1.0323640386e+00
     vertex 5.8889566077e+01 4.9000000000e+01 1.0323640386e+00
   endloop
 endfacet
 facet normal  9.6488658932e-02 -9.6488658932e-02 9.9064619183e-01
   outer loop
     vertex 5.6965812393e+01 4.7076246317e+01 1.0323640386e+00
     vertex 6.2381723543e+01 4.7076246317e+01 5.0485582429e-01
     vertex 5.8889566077e+01 4.9000000000e+01 1.0323640386e+00
   endloop
 endfacet
 facet normal  9.6488658932e-02 -9.6488658932e-02 9.9064619183e-01
   outer loop
     vertex 5.8889566077e+01 4.9000000000e+01 1.0323640386e+00
     vertex 6.2381723543e+01 4.7076246317e+01 5.0485582429e-01
     vertex 6.4305477226e+01 4.9000000000e+01 5.0485582429e-01
   endloop
 endfacet
 facet normal  1.0660693761e-01 -1.0660693761e-01 9.8856963422e-01
   outer loop
     vertex 6.2381723543e+01 4.7076246317e+01 5.0485582429e-01
     vertex 6.5655730610e+01 4.7076246317e+01 1.5178826576e-01
     vertex 6.4305477226e+01 4.9000000000e+01 5.0485582429e-01
   endloop
 endfacet
 facet normal  1.0660693761e-01 -1.0660693761e-01 9.8856963422e-01
   outer loop
     vertex 6.4305477226e+01 4.9000000000e+01 5.0485582429e-01
     vertex 6.5655730610e+01 4.7076246317e+01 1.5178826576e-01
     vertex 6.7579484294e+01 4.9000000000e+01 1.5178826576e-01
   endloop
 endfacet
 facet normal  1.0565479711e-01 -1.0565479711e-01 9.8877405290e-01
   outer loop
     vertex 6.5655730610e+01 4.7076246317e+01 1.5178826576e-01
     vertex 6.7076246317e+01 4.7076246317e+01 0.0000000000e+00
     vertex 6.7579484294e+01 4.9000000000e+01 1.5178826576e-01
   endloop
 endfacet
 facet normal  1.0565479711e-01 -1.0565479711e-01 9.8877405290e-01
   outer loop
     vertex 6.7579484294e+01 4.9000000000e+01 1.5178826576e-01
     vertex 6.7076246317e+01 4.7076246317e+01 0.0000000000e+00
     vertex 6.9000000000e+01 4.9000000000e+01 0.0000000000e+00
   endloop
 endfacet
 facet normal  9.5927328699e-02 4.2995612224e-01 -8.9773920520e-01
   outer loop
     vertex 6.9000000000e+01 4.9000000000e+01 0.0000000000e+00
     vertex 6.7579484294e+01 4.9000000000e+01 -1.5178826576e-01
     vertex 6.7655378427e+01 4.9075894133e+01 -1.0733051203e-01
   endloop
 endfacet
 facet normal  9.6840361536e-02 4.2919811679e-01 -8.9800385351e-01
   outer loop
     vertex 6.7579484294e+01 4.9000000000e+01 -1.5178826576e-01
     vertex 6.4557905138e+01 4.9252427912e+01 -3.5698697687e-01
     vertex 6.7655378427e+01 4.9075894133e+01 -1.0733051203e-01
   endloop
 endfacet
 facet normal  9.6840361536e-02 4.2919811679e-01 -8.9800385351e-01
   outer loop
     vertex 6.7579484294e+01 4.9000000000e+01 -1.5178826576e-01
     vertex 6.4305477226e+01 4.9000000000e+01 -5.0485582429e-01
     vertex 6.4557905138e+01 4.9252427912e+01 -3.5698697687e-01
   endloop
 endfacet
 facet normal  8.7186443071e-02 4.3717479085e-01 -8.9514061822e-01
   outer loop
     vertex 6.4305477226e+01 4.9000000000e+01 -5.0485582429e-01
     vertex 5.9405748096e+01 4.9516182019e+01 -7.2999161237e-01
     vertex 6.4557905138e+01 4.9252427912e+01 -3.5698697687e-01
   endloop
 endfacet
 facet normal  8.7186443071e-02 4.3717479085e-01 -8.9514061822e-01
   outer loop
     vertex 6.4305477226e+01 4.9000000000e+01 -5.0485582429e-01
     vertex 5.8889566077e+01 4.9000000000e+01 -1.0323640386e+00
     vertex 5.9405748096e+01 4.9516182019e+01 -7.2999161237e-01
   endloop
 endfacet
 facet normal  1.7987262619e-02 4.9191490897e-01 -8.7045745486e-01
   outer loop
     vertex 5.8889566077e+01 4.9000000000e+01 -1.0323640386e+00
     vertex 5.3452927210e+01 4.9000000000e+01 -1.1447075547e+00
     vertex 5.9405748096e+01 4.9516182019e+01 -7.2999161237e-01
   endloop
 endfacet
 facet normal  1.7987262619e-02 4.9191490897e-01 -8.7045745486e-01
   outer loop
     vertex 5.9405748096e+01 4.9516182019e+01 -7.2999161237e-01
     vertex 5.3452927210e+01 4.9000000000e+01 -1.1447075547e+00
     vertex 5.4025280988e+01 4.9572353777e+01 -8.0943047439e-01
   endloop
 endfacet
 facet normal  -1.1163888968e-01 5.8304190955e-01 -8.0473529189e-01
   outer loop
     vertex 5.3452927210e+01 4.9000000000e+01 -1.1447075547e+00
     vertex 5.0195137932e+01 4.9000000000e+01 -6.9276269593e-01
     vertex 5.4025280988e+01 4.9572353777e+01 -8.0943047439e-01
   endloop
 endfacet
 facet normal  -1.1163888968e-01 5.8304190955e-01 -8.0473529189e-01
   outer loop
     vertex 5.4025280988e+01 4.9572353777e+01 -8.0943047439e-01
     vertex 5.0195137932e+01 4.9000000000e+01 -6.9276269593e-01
     vertex 5.0541519280e+01 4.9346381348e+01 -4.8985720005e-01
   endloop
 endfacet
 facet normal  -3.5314120508e-01 7.1002041114e-01 -6.0923091274e-01
   outer loop
     vertex 5.0195137932e+01 4.9000000000e+01 -6.9276269593e-01
     vertex 4.9000000000e+01 4.9000000000e+01 0.0000000000e+00
     vertex 5.0541519280e+01 4.9346381348e+01 -4.8985720005e-01
   endloop
 endfacet
 facet normal  -3.5314120508e-01 7.1002041114e-01 6.0923091274e-01
   outer loop
     vertex 4.9000000000e+01 4.9000000000e+01 0.0000000000e+00
     vertex 5.0195137932e+01 4.9000000000e+01 6.9276269593e-01
     vertex 5.0541519280e+01 4.9346381348e+01 4.8985720005e-01
   endloop
 endfacet
 facet normal  -1.1163888968e-01 5.8304190955e-01 8.0473529189e-01
   outer loop
     vertex 5.0195137932e+01 4.9000000000e+01 6.9276269593e-01
     vertex 5.4025280988e+01 4.9572353777e+01 8.0943047439e-01
     vertex 5.0541519280e+01 4.9346381348e+01 4.8985720005e-01
   endloop
 endfacet
 facet normal  -1.1163888968e-01 5.8304190955e-01 8.0473529189e-01
   outer loop
     vertex 5.0195137932e+01 4.9000000000e+01 6.9276269593e-01
     vertex 5.3452927210e+01 4.9000000000e+01 1.1447075547e+00
     vertex 5.4025280988e+01 4.9572353777e+01 8.0943047439e-01
   endloop
 endfacet
 facet normal  1.7987262619e-02 4.9191490897e-01 8.7045745486e-01
   outer loop
     vertex 5.3452927210e+01 4.9000000000e+01 1.1447075547e+00
     vertex 5.9405748096e+01 4.9516182019e+01 7.2999161237e-01
     vertex 5.4025280988e+01 4.9572353777e+01 8.0943047439e-01
   endloop
 endfacet
 facet normal  1.7987262619e-02 4.9191490897e-01 8.7045745486e-01
   outer loop
     vertex 5.3452927210e+01 4.9000000000e+01 1.1447075547e+00
     vertex 5.8889566077e+01 4.9000000000e+01 1.0323640386e+00
     vertex 5.9405748096e+01 4.9516182019e+01 7.2999161237e-01
   endloop
 endfacet
 facet normal  8.7186443071e-02 4.3717479085e-01 8.9514061822e-01
   outer loop
     vertex 5.8889566077e+01 4.9000000000e+01 1.0323640386e+00
     vertex 6.4305477226e+01 4.9000000000e+01 5.0485582429e-01
     vertex 5.9405748096e+01 4.9516182019e+01 7.2999161237e-01
   endloop
 endfacet
 facet normal  8.7186443071e-02 4.3717479085e-01 8.9514061822e-01
   outer loop
     vertex 5.9405748096e+01 4.9516182019e+01 7.2999161237e-01
     vertex 6.4305477226e+01 4.9000000000e+01 5.0485582429e-01
     vertex 6.4557905138e+01 4.9252427912e+01 3.5698697687e-01
   endloop
 endfacet
 facet normal  9.6840361536e-02 4.2919811679e-01 8.9800385351e-01
   outer loop
     vertex 6.4305477226e+01 4.9000000000e+01 5.0485582429e-01
     vertex 6.7579484294e+01 4.9000000000e+01 1.5178826576e-01
     vertex 6.4557905138e+01 4.9252427912e+01 3.5698697687e-01
   endloop
 endfacet
 facet normal  9.6840361536e-02 4.2919811679e-01 8.9800385351e-01
   outer loop
     vertex 6.4557905138e+01 4.9252427912e+01 3.5698697687e-01
     vertex 6.7579484294e+01 4.9000000000e+01 1.5178826576e-01
     vertex 6.7655378427e+01 4.9075894133e+01 1.0733051203e-01
   endloop
 endfacet
 facet normal  9.5927328699e-02 4.2995612224e-01 8.9773920520e-01
   outer loop
     vertex 6.7579484294e+01 4.9000000000e+01 1.5178826576e-01
     vertex 6.9000000000e+01 4.9000000000e+01 0.0000000000e+00
     vertex 6.7655378427e+01 4.9075894133e+01 1.0733051203e-01
   endloop
 endfacet
 facet normal  7.7680330629e-02 9.5041622491e-01 -3.0112250940e-01
   outer loop
     vertex 6.9000000000e+01 4.9000000000e+01 0.0000000000e+00
     vertex 6.7655378427e+01 4.9075894133e+01 -1.0733051203e-01
     vertex 6.7686814806e+01 4.9107330512e+01 -2.5483743802e-17
   endloop
 endfacet
 facet normal  7.8445589364e-02 9.5029369908e-01 -3.0131076151e-01
   outer loop
     vertex 6.7655378427e+01 4.9075894133e+01 -1.0733051203e-01
     vertex 6.4662464203e+01 4.9356986977e+01 3.1086779703e-16
     vertex 6.7686814806e+01 4.9107330512e+01 -2.5483743802e-17
   endloop
 endfacet
 facet normal  7.8445589364e-02 9.5029369908e-01 -3.0131076151e-01
   outer loop
     vertex 6.7655378427e+01 4.9075894133e+01 -1.0733051203e-01
     vertex 6.4557905138e+01 4.9252427912e+01 -3.5698697687e-01
     vertex 6.4662464203e+01 4.9356986977e+01 3.1086779703e-16
   endloop
 endfacet
 facet normal  7.0382825582e-02 9.5155388384e-01 -2.9931833225e-01
   outer loop
     vertex 6.4557905138e+01 4.9252427912e+01 -3.5698697687e-01
     vertex 5.9619557689e+01 4.9729991612e+01 0.0000000000e+00
     vertex 6.4662464203e+01 4.9356986977e+01 3.1086779703e-16
   endloop
 endfacet
 facet normal  7.0382825582e-02 9.5155388384e-01 -2.9931833225e-01
   outer loop
     vertex 6.4557905138e+01 4.9252427912e+01 -3.5698697687e-01
     vertex 5.9405748096e+01 4.9516182019e+01 -7.2999161237e-01
     vertex 5.9619557689e+01 4.9729991612e+01 0.0000000000e+00
   endloop
 endfacet
 facet normal  1.4212389621e-02 9.5845549394e-01 -2.8488782725e-01
   outer loop
     vertex 5.9405748096e+01 4.9516182019e+01 -7.2999161237e-01
     vertex 5.4025280988e+01 4.9572353777e+01 -8.0943047439e-01
     vertex 5.9619557689e+01 4.9729991612e+01 0.0000000000e+00
   endloop
 endfacet
 facet normal  1.4212389621e-02 9.5845549394e-01 -2.8488782725e-01
   outer loop
     vertex 5.9619557689e+01 4.9729991612e+01 0.0000000000e+00
     vertex 5.4025280988e+01 4.9572353777e+01 -8.0943047439e-01
     vertex 5.4262357685e+01 4.9809430474e+01 -1.5737864545e-16
   endloop
 endfacet
 facet normal  -8.5994715016e-02 9.6264080232e-01 -2.5676369427e-01
   outer loop
     vertex 5.4025280988e+01 4.9572353777e+01 -8.0943047439e-01
     vertex 5.0541519280e+01 4.9346381348e+01 -4.8985720005e-01
     vertex 5.4262357685e+01 4.9809430474e+01 -1.5737864545e-16
   endloop
 endfacet
 facet normal  -8.5994715016e-02 9.6264080232e-01 -2.5676369427e-01
   outer loop
     vertex 5.4262357685e+01 4.9809430474e+01 -1.5737864545e-16
     vertex 5.0541519280e+01 4.9346381348e+01 -4.8985720005e-01
     vertex 5.0684995132e+01 4.9489857200e+01 -8.2677766167e-16
   endloop
 endfacet
 facet normal  -2.7376569916e-01 9.4169049748e-01 -1.9563064411e-01
   outer loop
     vertex 5.0541519280e+01 4.9346381348e+01 -4.8985720005e-01
     vertex 4.9000000000e+01 4.9000000000e+01 0.0000000000e+00
     vertex 5.0684995132e+01 4.9489857200e+01 -8.2677766167e-16
   endloop
 endfacet
 facet normal  -2.7376569916e-01 9.4169049748e-01 1.9563064411e-01
   outer loop
     vertex 4.9000000000e+01 4.9000000000e+01 0.0000000000e+00
     vertex 5.0541519280e+01 4.9346381348e+01 4.8985720005e-01
     vertex 5.0684995132e+01 4.9489857200e+01 -8.2677766167e-16
   endloop
 endfacet
 facet normal  -8.5994715016e-02 9.6264080232e-01 2.5676369427e-01
   outer loop
     vertex 5.0541519280e+01 4.9346381348e+01 4.8985720005e-01
     vertex 5.4262357685e+01 4.9809430474e+01 -1.5737864545e-16
     vertex 5.0684995132e+01 4.9489857200e+01 -8.2677766167e-16
   endloop
 endfacet
 facet normal  -8.5994715016e-02 9.6264080232e-01 2.5676369427e-01
   outer loop
     vertex 5.0541519280e+01 4.9346381348e+01 4.8985720005e-01
     vertex 5.4025280988e+01 4.9572353777e+01 8.0943047439e-01
     vertex 5.4262357685e+01 4.9809430474e+01 -1.5737864545e-16
   endloop
 endfacet
 facet normal  1.4212389621e-02 9.5845549394e-01 2.8488782725e-01
   outer loop
     vertex 5.4025280988e+01 4.9572353777e+01 8.0943047439e-01
     vertex 5.9619557689e+01 4.9729991612e+01 0.0000000000e+00
     vertex 5.4262357685e+01 4.9809430474e+01 -1.5737864545e-16
   endloop
 endfacet
 facet normal  1.4212389621e-02 9.5845549394e-01 2.8488782725e-01
   outer loop
     vertex 5.4025280988e+01 4.9572353777e+01 8.0943047439e-01
     vertex 5.9405748096e+01 4.9516182019e+01 7.2999161237e-01
     vertex 5.9619557689e+01 4.9729991612e+01 0.0000000000e+00
   endloop
 endfacet
 facet normal  7.0382825582e-02 9.5155388384e-01 2.9931833225e-01
   outer loop
     vertex 5.9405748096e+01 4.9516182019e+01 7.2999161237e-01
     vertex 6.4557905138e+01 4.9252427912e+01 3.5698697687e-01
     vertex 5.9619557689e+01 4.9729991612e+01 0.0000000000e+00
   endloop
 endfacet
 facet normal  7.0382825582e-02 9.5155388384e-01 2.9931833225e-01
   outer loop
     vertex 5.9619557689e+01 4.9729991612e+01 0.0000000000e+00
     vertex 6.4557905138e+01 4.9252427912e+01 3.5698697687e-01
     vertex 6.4662464203e+01 4.9356986977e+01 3.1086779703e-16
   endloop
 endfacet
 facet normal  7.8445589364e-02 9.5029369908e-01 3.0131076151e-01
   outer loop
     vertex 6.4557905138e+01 4.9252427912e+01 3.5698697687e-01
     vertex 6.7655378427e+01 4.9075894133e+01 1.0733051203e-01
     vertex 6.4662464203e+01 4.9356986977e+01 3.1086779703e-16
   endloop
 endfacet
 facet normal  7.8445589364e-02 9.5029369908e-01 3.0131076151e-01
   outer loop
     vertex 6.4662464203e+01 4.9356986977e+01 3.1086779703e-16
     vertex 6.7655378427e+01 4.9075894133e+01 1.0733051203e-01
     vertex 6.7686814806e+01 4.9107330512e+01 -2.5483743802e-17
   endloop
 endfacet
 facet normal  7.7680330629e-02 9.5041622491e-01 3.0112250940e-01
   outer loop
     vertex 6.7655378427e+01 4.9075894133e+01 1.0733051203e-01
     vertex 6.9000000000e+01 4.9000000000e+01 0.0000000000e+00
     vertex 6.7686814806e+01 4.9107330512e+01 -2.5483743802e-17
   endloop
 endfacet
endsolid
