solid
 facet normal  6.3512976401e-02 -4.0629399793e-03 -9.9797274229e-01
   outer loop
     vertex 4.0000000000e+00 0.0000000000e+00 0.0000000000e+00
     vertex 2.5843838293e+00 3.1711012094e+00 -1.0300280356e-01
     vertex 4.2028560872e+00 3.1711012094e+00 0.0000000000e+00
   endloop
 endfacet
 facet normal  6.3512976401e-02 -4.0629399793e-03 -9.9797274229e-01
   outer loop
     vertex 4.0000000000e+00 0.0000000000e+00 0.0000000000e+00
     vertex 1.6299659614e+00 0.0000000000e+00 -1.5083369473e-01
     vertex 2.5843838293e+00 3.1711012094e+00 -1.0300280356e-01
   endloop
 endfacet
 facet normal  -9.2060161327e-02 4.2713174617e-02 -9.9483692704e-01
   outer loop
     vertex 1.6299659614e+00 0.0000000000e+00 -1.5083369473e-01
     vertex 0.0000000000e+00 0.0000000000e+00 0.0000000000e+00
     vertex 2.5843838293e+00 3.1711012094e+00 -1.0300280356e-01
   endloop
 endfacet
 facet normal  -9.2060161327e-02 4.2713174617e-02 -9.9483692704e-01
   outer loop
     vertex 2.5843838293e+00 3.1711012094e+00 -1.0300280356e-01
     vertex 0.0000000000e+00 0.0000000000e+00 0.0000000000e+00
     vertex 1.4712965710e+00 3.1711012094e+00 0.0000000000e+00
   endloop
 endfacet
 facet normal  -1.8879721750e-01 8.7596289234e-02 9.7810147775e-01
   outer loop
     vertex 0.0000000000e+00 0.0000000000e+00 0.0000000000e+00
     vertex 2.5733176890e+00 3.1711012094e+00 2.1271670214e-01
     vertex 1.4712965710e+00 3.1711012094e+00 0.0000000000e+00
   endloop
 endfacet
 facet normal  -1.8879721750e-01 8.7596289234e-02 9.7810147775e-01
   outer loop
     vertex 0.0000000000e+00 0.0000000000e+00 0.0000000000e+00
     vertex 1.6137610935e+00 0.0000000000e+00 3.1149488177e-01
     vertex 2.5733176890e+00 3.1711012094e+00 2.1271670214e-01
   endloop
 endfacet
 facet normal  1.2943539431e-01 -8.2800124962e-03 9.9155328656e-01
   outer loop
     vertex 1.6137610935e+00 0.0000000000e+00 3.1149488177e-01
     vertex 4.0000000000e+00 0.0000000000e+00 0.0000000000e+00
     vertex 2.5733176890e+00 3.1711012094e+00 2.1271670214e-01
   endloop
 endfacet
 facet normal  1.2943539431e-01 -8.2800124962e-03 9.9155328656e-01
   outer loop
     vertex 2.5733176890e+00 3.1711012094e+00 2.1271670214e-01
     vertex 4.0000000000e+00 0.0000000000e+00 0.0000000000e+00
     vertex 4.2028560872e+00 3.1711012094e+00 0.0000000000e+00
   endloop
 endfacet
 facet normal  6.3512976401e-02 -4.0629399793e-03 -9.9797274229e-01
   outer loop
     vertex 4.2028560872e+00 3.1711012094e+00 0.0000000000e+00
     vertex 3.6364568822e+00 6.6666666667e+00 -5.0277898245e-02
     vertex 4.4264682284e+00 6.6666666667e+00 0.0000000000e+00
   endloop
 endfacet
 facet normal  6.3512976401e-02 -4.0629399793e-03 -9.9797274229e-01
   outer loop
     vertex 4.2028560872e+00 3.1711012094e+00 0.0000000000e+00
     vertex 2.5843838293e+00 3.1711012094e+00 -1.0300280356e-01
     vertex 3.6364568822e+00 6.6666666667e+00 -5.0277898245e-02
   endloop
 endfacet
 facet normal  -9.2060161327e-02 4.2713174617e-02 -9.9483692704e-01
   outer loop
     vertex 2.5843838293e+00 3.1711012094e+00 -1.0300280356e-01
     vertex 1.4712965710e+00 3.1711012094e+00 0.0000000000e+00
     vertex 3.6364568822e+00 6.6666666667e+00 -5.0277898245e-02
   endloop
 endfacet
 facet normal  -9.2060161327e-02 4.2713174617e-02 -9.9483692704e-01
   outer loop
     vertex 3.6364568822e+00 6.6666666667e+00 -5.0277898245e-02
     vertex 1.4712965710e+00 3.1711012094e+00 0.0000000000e+00
     vertex 3.0931348951e+00 6.6666666667e+00 0.0000000000e+00
   endloop
 endfacet
 facet normal  -1.8879721750e-01 8.7596289234e-02 9.7810147775e-01
   outer loop
     vertex 1.4712965710e+00 3.1711012094e+00 0.0000000000e+00
     vertex 3.6310552596e+00 6.6666666667e+00 1.0383162726e-01
     vertex 3.0931348951e+00 6.6666666667e+00 0.0000000000e+00
   endloop
 endfacet
 facet normal  -1.8879721750e-01 8.7596289234e-02 9.7810147775e-01
   outer loop
     vertex 1.4712965710e+00 3.1711012094e+00 0.0000000000e+00
     vertex 2.5733176890e+00 3.1711012094e+00 2.1271670214e-01
     vertex 3.6310552596e+00 6.6666666667e+00 1.0383162726e-01
   endloop
 endfacet
 facet normal  1.2943539431e-01 -8.2800124962e-03 9.9155328656e-01
   outer loop
     vertex 2.5733176890e+00 3.1711012094e+00 2.1271670214e-01
     vertex 4.2028560872e+00 3.1711012094e+00 0.0000000000e+00
     vertex 3.6310552596e+00 6.6666666667e+00 1.0383162726e-01
   endloop
 endfacet
 facet normal  1.2943539431e-01 -8.2800124962e-03 9.9155328656e-01
   outer loop
     vertex 3.6310552596e+00 6.6666666667e+00 1.0383162726e-01
     vertex 4.2028560872e+00 3.1711012094e+00 0.0000000000e+00
     vertex 4.4264682284e+00 6.6666666667e+00 0.0000000000e+00
   endloop
 endfacet
 facet normal  6.3512976401e-02 -4.0629399793e-03 -9.9797274229e-01
   outer loop
     vertex 4.4264682284e+00 6.6666666667e+00 0.0000000000e+00
     vertex 4.3266418994e+00 8.9598409842e+00 -1.5689102747e-02
     vertex 4.5731631267e+00 8.9598409842e+00 0.0000000000e+00
   endloop
 endfacet
 facet normal  6.3512976401e-02 -4.0629399793e-03 -9.9797274229e-01
   outer loop
     vertex 4.4264682284e+00 6.6666666667e+00 0.0000000000e+00
     vertex 3.6364568822e+00 6.6666666667e+00 -5.0277898245e-02
     vertex 4.3266418994e+00 8.9598409842e+00 -1.5689102747e-02
   endloop
 endfacet
 facet normal  -9.2060161327e-02 4.2713174617e-02 -9.9483692704e-01
   outer loop
     vertex 3.6364568822e+00 6.6666666667e+00 -5.0277898245e-02
     vertex 3.0931348951e+00 6.6666666667e+00 0.0000000000e+00
     vertex 4.3266418994e+00 8.9598409842e+00 -1.5689102747e-02
   endloop
 endfacet
 facet normal  -9.2060161327e-02 4.2713174617e-02 -9.9483692704e-01
   outer loop
     vertex 4.3266418994e+00 8.9598409842e+00 -1.5689102747e-02
     vertex 3.0931348951e+00 6.6666666667e+00 0.0000000000e+00
     vertex 4.1570995204e+00 8.9598409842e+00 0.0000000000e+00
   endloop
 endfacet
 facet normal  -1.8879721750e-01 8.7596289234e-02 9.7810147775e-01
   outer loop
     vertex 3.0931348951e+00 6.6666666667e+00 0.0000000000e+00
     vertex 4.3249563355e+00 8.9598409842e+00 3.2400420966e-02
     vertex 4.1570995204e+00 8.9598409842e+00 0.0000000000e+00
   endloop
 endfacet
 facet normal  -1.8879721750e-01 8.7596289234e-02 9.7810147775e-01
   outer loop
     vertex 3.0931348951e+00 6.6666666667e+00 0.0000000000e+00
     vertex 3.6310552596e+00 6.6666666667e+00 1.0383162726e-01
     vertex 4.3249563355e+00 8.9598409842e+00 3.2400420966e-02
   endloop
 endfacet
 facet normal  1.2943539431e-01 -8.2800124962e-03 9.9155328656e-01
   outer loop
     vertex 3.6310552596e+00 6.6666666667e+00 1.0383162726e-01
     vertex 4.4264682284e+00 6.6666666667e+00 0.0000000000e+00
     vertex 4.3249563355e+00 8.9598409842e+00 3.2400420966e-02
   endloop
 endfacet
 facet normal  1.2943539431e-01 -8.2800124962e-03 9.9155328656e-01
   outer loop
     vertex 4.3249563355e+00 8.9598409842e+00 3.2400420966e-02
     vertex 4.4264682284e+00 6.6666666667e+00 0.0000000000e+00
     vertex 4.5731631267e+00 8.9598409842e+00 0.0000000000e+00
   endloop
 endfacet
 facet normal  6.3512976401e-02 -4.0629399793e-03 -9.9797274229e-01
   outer loop
     vertex 4.5731631267e+00 8.9598409842e+00 0.0000000000e+00
     vertex 4.3266418994e+00 8.9598409842e+00 -1.5689102747e-02
     vertex 4.6397023427e+00 1.0000000000e+01 0.0000000000e+00
   endloop
 endfacet
 facet normal  -9.2060161327e-02 4.2713174617e-02 -9.9483692704e-01
   outer loop
     vertex 4.3266418994e+00 8.9598409842e+00 -1.5689102747e-02
     vertex 4.1570995204e+00 8.9598409842e+00 0.0000000000e+00
     vertex 4.6397023427e+00 1.0000000000e+01 0.0000000000e+00
   endloop
 endfacet
 facet normal  -1.8879721750e-01 8.7596289234e-02 9.7810147775e-01
   outer loop
     vertex 4.1570995204e+00 8.9598409842e+00 0.0000000000e+00
     vertex 4.3249563355e+00 8.9598409842e+00 3.2400420966e-02
     vertex 4.6397023427e+00 1.0000000000e+01 0.0000000000e+00
   endloop
 endfacet
 facet normal  1.2943539431e-01 -8.2800124962e-03 9.9155328656e-01
   outer loop
     vertex 4.3249563355e+00 8.9598409842e+00 3.2400420966e-02
     vertex 4.5731631267e+00 8.9598409842e+00 0.0000000000e+00
     vertex 4.6397023427e+00 1.0000000000e+01 0.0000000000e+00
   endloop
 endfacet
 facet normal  6.3512976401e-02 4.0629399793e-03 -9.9797274229e-01
   outer loop
     vertex 4.0000000000e+00 0.0000000000e+00 0.0000000000e+00
     vertex 4.2028560872e+00 -3.1711012094e+00 0.0000000000e+00
     vertex 2.5843838293e+00 -3.1711012094e+00 -1.0300280356e-01
   endloop
 endfacet
 facet normal  6.3512976401e-02 4.0629399793e-03 -9.9797274229e-01
   outer loop
     vertex 4.0000000000e+00 0.0000000000e+00 0.0000000000e+00
     vertex 2.5843838293e+00 -3.1711012094e+00 -1.0300280356e-01
     vertex 1.6299659614e+00 0.0000000000e+00 -1.5083369473e-01
   endloop
 endfacet
 facet normal  -9.2060161327e-02 -4.2713174617e-02 -9.9483692704e-01
   outer loop
     vertex 1.6299659614e+00 0.0000000000e+00 -1.5083369473e-01
     vertex 2.5843838293e+00 -3.1711012094e+00 -1.0300280356e-01
     vertex 0.0000000000e+00 0.0000000000e+00 0.0000000000e+00
   endloop
 endfacet
 facet normal  -9.2060161327e-02 -4.2713174617e-02 -9.9483692704e-01
   outer loop
     vertex 2.5843838293e+00 -3.1711012094e+00 -1.0300280356e-01
     vertex 1.4712965710e+00 -3.1711012094e+00 0.0000000000e+00
     vertex 0.0000000000e+00 0.0000000000e+00 0.0000000000e+00
   endloop
 endfacet
 facet normal  -1.8879721750e-01 -8.7596289234e-02 9.7810147775e-01
   outer loop
     vertex 0.0000000000e+00 0.0000000000e+00 0.0000000000e+00
     vertex 1.4712965710e+00 -3.1711012094e+00 0.0000000000e+00
     vertex 2.5733176890e+00 -3.1711012094e+00 2.1271670214e-01
   endloop
 endfacet
 facet normal  -1.8879721750e-01 -8.7596289234e-02 9.7810147775e-01
   outer loop
     vertex 0.0000000000e+00 0.0000000000e+00 0.0000000000e+00
     vertex 2.5733176890e+00 -3.1711012094e+00 2.1271670214e-01
     vertex 1.6137610935e+00 0.0000000000e+00 3.1149488177e-01
   endloop
 endfacet
 facet normal  1.2943539431e-01 8.2800124962e-03 9.9155328656e-01
   outer loop
     vertex 1.6137610935e+00 0.0000000000e+00 3.1149488177e-01
     vertex 2.5733176890e+00 -3.1711012094e+00 2.1271670214e-01
     vertex 4.0000000000e+00 0.0000000000e+00 0.0000000000e+00
   endloop
 endfacet
 facet normal  1.2943539431e-01 8.2800124962e-03 9.9155328656e-01
   outer loop
     vertex 2.5733176890e+00 -3.1711012094e+00 2.1271670214e-01
     vertex 4.2028560872e+00 -3.1711012094e+00 0.0000000000e+00
     vertex 4.0000000000e+00 0.0000000000e+00 0.0000000000e+00
   endloop
 endfacet
 facet normal  6.3512976401e-02 4.0629399793e-03 -9.9797274229e-01
   outer loop
     vertex 4.2028560872e+00 -3.1711012094e+00 0.0000000000e+00
     vertex 4.4264682284e+00 -6.6666666667e+00 0.0000000000e+00
     vertex 3.6364568822e+00 -6.6666666667e+00 -5.0277898245e-02
   endloop
 endfacet
 facet normal  6.3512976401e-02 4.0629399793e-03 -9.9797274229e-01
   outer loop
     vertex 4.2028560872e+00 -3.1711012094e+00 0.0000000000e+00
     vertex 3.6364568822e+00 -6.6666666667e+00 -5.0277898245e-02
     vertex 2.5843838293e+00 -3.1711012094e+00 -1.0300280356e-01
   endloop
 endfacet
 facet normal  -9.2060161327e-02 -4.2713174617e-02 -9.9483692704e-01
   outer loop
     vertex 2.5843838293e+00 -3.1711012094e+00 -1.0300280356e-01
     vertex 3.6364568822e+00 -6.6666666667e+00 -5.0277898245e-02
     vertex 1.4712965710e+00 -3.1711012094e+00 0.0000000000e+00
   endloop
 endfacet
 facet normal  -9.2060161327e-02 -4.2713174617e-02 -9.9483692704e-01
   outer loop
     vertex 3.6364568822e+00 -6.6666666667e+00 -5.0277898245e-02
     vertex 3.0931348951e+00 -6.6666666667e+00 0.0000000000e+00
     vertex 1.4712965710e+00 -3.1711012094e+00 0.0000000000e+00
   endloop
 endfacet
 facet normal  -1.8879721750e-01 -8.7596289234e-02 9.7810147775e-01
   outer loop
     vertex 1.4712965710e+00 -3.1711012094e+00 0.0000000000e+00
     vertex 3.0931348951e+00 -6.6666666667e+00 0.0000000000e+00
     vertex 3.6310552596e+00 -6.6666666667e+00 1.0383162726e-01
   endloop
 endfacet
 facet normal  -1.8879721750e-01 -8.7596289234e-02 9.7810147775e-01
   outer loop
     vertex 1.4712965710e+00 -3.1711012094e+00 0.0000000000e+00
     vertex 3.6310552596e+00 -6.6666666667e+00 1.0383162726e-01
     vertex 2.5733176890e+00 -3.1711012094e+00 2.1271670214e-01
   endloop
 endfacet
 facet normal  1.2943539431e-01 8.2800124962e-03 9.9155328656e-01
   outer loop
     vertex 2.5733176890e+00 -3.1711012094e+00 2.1271670214e-01
     vertex 3.6310552596e+00 -6.6666666667e+00 1.0383162726e-01
     vertex 4.2028560872e+00 -3.1711012094e+00 0.0000000000e+00
   endloop
 endfacet
 facet normal  1.2943539431e-01 8.2800124962e-03 9.9155328656e-01
   outer loop
     vertex 3.6310552596e+00 -6.6666666667e+00 1.0383162726e-01
     vertex 4.4264682284e+00 -6.6666666667e+00 0.0000000000e+00
     vertex 4.2028560872e+00 -3.1711012094e+00 0.0000000000e+00
   endloop
 endfacet
 facet normal  6.3512976401e-02 4.0629399793e-03 -9.9797274229e-01
   outer loop
     vertex 4.4264682284e+00 -6.6666666667e+00 0.0000000000e+00
     vertex 4.5731631267e+00 -8.9598409842e+00 0.0000000000e+00
     vertex 4.3266418994e+00 -8.9598409842e+00 -1.5689102747e-02
   endloop
 endfacet
 facet normal  6.3512976401e-02 4.0629399793e-03 -9.9797274229e-01
   outer loop
     vertex 4.4264682284e+00 -6.6666666667e+00 0.0000000000e+00
     vertex 4.3266418994e+00 -8.9598409842e+00 -1.5689102747e-02
     vertex 3.6364568822e+00 -6.6666666667e+00 -5.0277898245e-02
   endloop
 endfacet
 facet normal  -9.2060161327e-02 -4.2713174617e-02 -9.9483692704e-01
   outer loop
     vertex 3.6364568822e+00 -6.6666666667e+00 -5.0277898245e-02
     vertex 4.3266418994e+00 -8.9598409842e+00 -1.5689102747e-02
     vertex 3.0931348951e+00 -6.6666666667e+00 0.0000000000e+00
   endloop
 endfacet
 facet normal  -9.2060161327e-02 -4.2713174617e-02 -9.9483692704e-01
   outer loop
     vertex 4.3266418994e+00 -8.9598409842e+00 -1.5689102747e-02
     vertex 4.1570995204e+00 -8.9598409842e+00 0.0000000000e+00
     vertex 3.0931348951e+00 -6.6666666667e+00 0.0000000000e+00
   endloop
 endfacet
 facet normal  -1.8879721750e-01 -8.7596289234e-02 9.7810147775e-01
   outer loop
     vertex 3.0931348951e+00 -6.6666666667e+00 0.0000000000e+00
     vertex 4.1570995204e+00 -8.9598409842e+00 0.0000000000e+00
     vertex 4.3249563355e+00 -8.9598409842e+00 3.2400420966e-02
   endloop
 endfacet
 facet normal  -1.8879721750e-01 -8.7596289234e-02 9.7810147775e-01
   outer loop
     vertex 3.0931348951e+00 -6.6666666667e+00 0.0000000000e+00
     vertex 4.3249563355e+00 -8.9598409842e+00 3.2400420966e-02
     vertex 3.6310552596e+00 -6.6666666667e+00 1.0383162726e-01
   endloop
 endfacet
 facet normal  1.2943539431e-01 8.2800124962e-03 9.9155328656e-01
   outer loop
     vertex 3.6310552596e+00 -6.6666666667e+00 1.0383162726e-01
     vertex 4.3249563355e+00 -8.9598409842e+00 3.2400420966e-02
     vertex 4.4264682284e+00 -6.6666666667e+00 0.0000000000e+00
   endloop
 endfacet
 facet normal  1.2943539431e-01 8.2800124962e-03 9.9155328656e-01
   outer loop
     vertex 4.3249563355e+00 -8.9598409842e+00 3.2400420966e-02
     vertex 4.5731631267e+00 -8.9598409842e+00 0.0000000000e+00
     vertex 4.4264682284e+00 -6.6666666667e+00 0.0000000000e+00
   endloop
 endfacet
 facet normal  6.3512976401e-02 4.0629399793e-03 -9.9797274229e-01
   outer loop
     vertex 4.5731631267e+00 -8.9598409842e+00 0.0000000000e+00
     vertex 4.6397023427e+00 -1.0000000000e+01 0.0000000000e+00
     vertex 4.3266418994e+00 -8.9598409842e+00 -1.5689102747e-02
   endloop
 endfacet
 facet normal  -9.2060161327e-02 -4.2713174617e-02 -9.9483692704e-01
   outer loop
     vertex 4.3266418994e+00 -8.9598409842e+00 -1.5689102747e-02
     vertex 4.6397023427e+00 -1.0000000000e+01 0.0000000000e+00
     vertex 4.1570995204e+00 -8.9598409842e+00 0.0000000000e+00
   endloop
 endfacet
 facet normal  -1.8879721750e-01 -8.7596289234e-02 9.7810147775e-01
   outer loop
     vertex 4.1570995204e+00 -8.9598409842e+00 0.0000000000e+00
     vertex 4.6397023427e+00 -1.0000000000e+01 0.0000000000e+00
     vertex 4.3249563355e+00 -8.9598409842e+00 3.2400420966e-02
   endloop
 endfacet
 facet normal  1.2943539431e-01 8.2800124962e-03 9.9155328656e-01
   outer loop
     vertex 4.3249563355e+00 -8.9598409842e+00 3.2400420966e-02
     vertex 4.6397023427e+00 -1.0000000000e+01 0.0000000000e+00
     vertex 4.5731631267e+00 -8.9598409842e+00 0.0000000000e+00
   endloop
 endfacet
 facet normal  6.3512976401e-02 -4.0629399793e-03 -9.9797274229e-01
   outer loop
     vertex 1.2000000000e+01 0.0000000000e+00 2.0000000000e+00
     vertex 1.1292191915e+01 1.5855506047e+00 1.9484985982e+00
     vertex 1.2101428044e+01 1.5855506047e+00 2.0000000000e+00
   endloop
 endfacet
 facet normal  6.3512976401e-02 -4.0629399793e-03 -9.9797274229e-01
   outer loop
     vertex 1.2000000000e+01 0.0000000000e+00 2.0000000000e+00
     vertex 1.0814982981e+01 0.0000000000e+00 1.9245831526e+00
     vertex 1.1292191915e+01 1.5855506047e+00 1.9484985982e+00
   endloop
 endfacet
 facet normal  -9.2060161327e-02 4.2713174617e-02 -9.9483692704e-01
   outer loop
     vertex 1.0814982981e+01 0.0000000000e+00 1.9245831526e+00
     vertex 1.0000000000e+01 0.0000000000e+00 2.0000000000e+00
     vertex 1.1292191915e+01 1.5855506047e+00 1.9484985982e+00
   endloop
 endfacet
 facet normal  -9.2060161327e-02 4.2713174617e-02 -9.9483692704e-01
   outer loop
     vertex 1.1292191915e+01 1.5855506047e+00 1.9484985982e+00
     vertex 1.0000000000e+01 0.0000000000e+00 2.0000000000e+00
     vertex 1.0735648285e+01 1.5855506047e+00 2.0000000000e+00
   endloop
 endfacet
 facet normal  -1.8879721750e-01 8.7596289234e-02 9.7810147775e-01
   outer loop
     vertex 1.0000000000e+01 0.0000000000e+00 2.0000000000e+00
     vertex 1.1286658844e+01 1.5855506047e+00 2.1063583511e+00
     vertex 1.0735648285e+01 1.5855506047e+00 2.0000000000e+00
   endloop
 endfacet
 facet normal  -1.8879721750e-01 8.7596289234e-02 9.7810147775e-01
   outer loop
     vertex 1.0000000000e+01 0.0000000000e+00 2.0000000000e+00
     vertex 1.0806880547e+01 0.0000000000e+00 2.1557474409e+00
     vertex 1.1286658844e+01 1.5855506047e+00 2.1063583511e+00
   endloop
 endfacet
 facet normal  1.2943539431e-01 -8.2800124962e-03 9.9155328656e-01
   outer loop
     vertex 1.0806880547e+01 0.0000000000e+00 2.1557474409e+00
     vertex 1.2000000000e+01 0.0000000000e+00 2.0000000000e+00
     vertex 1.1286658844e+01 1.5855506047e+00 2.1063583511e+00
   endloop
 endfacet
 facet normal  1.2943539431e-01 -8.2800124962e-03 9.9155328656e-01
   outer loop
     vertex 1.1286658844e+01 1.5855506047e+00 2.1063583511e+00
     vertex 1.2000000000e+01 0.0000000000e+00 2.0000000000e+00
     vertex 1.2101428044e+01 1.5855506047e+00 2.0000000000e+00
   endloop
 endfacet
 facet normal  6.3512976401e-02 -4.0629399793e-03 -9.9797274229e-01
   outer loop
     vertex 1.2101428044e+01 1.5855506047e+00 2.0000000000e+00
     vertex 1.1818228441e+01 3.3333333333e+00 1.9748610509e+00
     vertex 1.2213234114e+01 3.3333333333e+00 2.0000000000e+00
   endloop
 endfacet
 facet normal  6.3512976401e-02 -4.0629399793e-03 -9.9797274229e-01
   outer loop
     vertex 1.2101428044e+01 1.5855506047e+00 2.0000000000e+00
     vertex 1.1292191915e+01 1.5855506047e+00 1.9484985982e+00
     vertex 1.1818228441e+01 3.3333333333e+00 1.9748610509e+00
   endloop
 endfacet
 facet normal  -9.2060161327e-02 4.2713174617e-02 -9.9483692704e-01
   outer loop
     vertex 1.1292191915e+01 1.5855506047e+00 1.9484985982e+00
     vertex 1.0735648285e+01 1.5855506047e+00 2.0000000000e+00
     vertex 1.1818228441e+01 3.3333333333e+00 1.9748610509e+00
   endloop
 endfacet
 facet normal  -9.2060161327e-02 4.2713174617e-02 -9.9483692704e-01
   outer loop
     vertex 1.1818228441e+01 3.3333333333e+00 1.9748610509e+00
     vertex 1.0735648285e+01 1.5855506047e+00 2.0000000000e+00
     vertex 1.1546567448e+01 3.3333333333e+00 2.0000000000e+00
   endloop
 endfacet
 facet normal  -1.8879721750e-01 8.7596289234e-02 9.7810147775e-01
   outer loop
     vertex 1.0735648285e+01 1.5855506047e+00 2.0000000000e+00
     vertex 1.1815527630e+01 3.3333333333e+00 2.0519158136e+00
     vertex 1.1546567448e+01 3.3333333333e+00 2.0000000000e+00
   endloop
 endfacet
 facet normal  -1.8879721750e-01 8.7596289234e-02 9.7810147775e-01
   outer loop
     vertex 1.0735648285e+01 1.5855506047e+00 2.0000000000e+00
     vertex 1.1286658844e+01 1.5855506047e+00 2.1063583511e+00
     vertex 1.1815527630e+01 3.3333333333e+00 2.0519158136e+00
   endloop
 endfacet
 facet normal  1.2943539431e-01 -8.2800124962e-03 9.9155328656e-01
   outer loop
     vertex 1.1286658844e+01 1.5855506047e+00 2.1063583511e+00
     vertex 1.2101428044e+01 1.5855506047e+00 2.0000000000e+00
     vertex 1.1815527630e+01 3.3333333333e+00 2.0519158136e+00
   endloop
 endfacet
 facet normal  1.2943539431e-01 -8.2800124962e-03 9.9155328656e-01
   outer loop
     vertex 1.1815527630e+01 3.3333333333e+00 2.0519158136e+00
     vertex 1.2101428044e+01 1.5855506047e+00 2.0000000000e+00
     vertex 1.2213234114e+01 3.3333333333e+00 2.0000000000e+00
   endloop
 endfacet
 facet normal  6.3512976401e-02 -4.0629399793e-03 -9.9797274229e-01
   outer loop
     vertex 1.2213234114e+01 3.3333333333e+00 2.0000000000e+00
     vertex 1.2163320950e+01 4.4799204921e+00 1.9921554486e+00
     vertex 1.2286581563e+01 4.4799204921e+00 2.0000000000e+00
   endloop
 endfacet
 facet normal  6.3512976401e-02 -4.0629399793e-03 -9.9797274229e-01
   outer loop
     vertex 1.2213234114e+01 3.3333333333e+00 2.0000000000e+00
     vertex 1.1818228441e+01 3.3333333333e+00 1.9748610509e+00
     vertex 1.2163320950e+01 4.4799204921e+00 1.9921554486e+00
   endloop
 endfacet
 facet normal  -9.2060161327e-02 4.2713174617e-02 -9.9483692704e-01
   outer loop
     vertex 1.1818228441e+01 3.3333333333e+00 1.9748610509e+00
     vertex 1.1546567448e+01 3.3333333333e+00 2.0000000000e+00
     vertex 1.2163320950e+01 4.4799204921e+00 1.9921554486e+00
   endloop
 endfacet
 facet normal  -9.2060161327e-02 4.2713174617e-02 -9.9483692704e-01
   outer loop
     vertex 1.2163320950e+01 4.4799204921e+00 1.9921554486e+00
     vertex 1.1546567448e+01 3.3333333333e+00 2.0000000000e+00
     vertex 1.2078549760e+01 4.4799204921e+00 2.0000000000e+00
   endloop
 endfacet
 facet normal  -1.8879721750e-01 8.7596289234e-02 9.7810147775e-01
   outer loop
     vertex 1.1546567448e+01 3.3333333333e+00 2.0000000000e+00
     vertex 1.2162478168e+01 4.4799204921e+00 2.0162002105e+00
     vertex 1.2078549760e+01 4.4799204921e+00 2.0000000000e+00
   endloop
 endfacet
 facet normal  -1.8879721750e-01 8.7596289234e-02 9.7810147775e-01
   outer loop
     vertex 1.1546567448e+01 3.3333333333e+00 2.0000000000e+00
     vertex 1.1815527630e+01 3.3333333333e+00 2.0519158136e+00
     vertex 1.2162478168e+01 4.4799204921e+00 2.0162002105e+00
   endloop
 endfacet
 facet normal  1.2943539431e-01 -8.2800124962e-03 9.9155328656e-01
   outer loop
     vertex 1.1815527630e+01 3.3333333333e+00 2.0519158136e+00
     vertex 1.2213234114e+01 3.3333333333e+00 2.0000000000e+00
     vertex 1.2162478168e+01 4.4799204921e+00 2.0162002105e+00
   endloop
 endfacet
 facet normal  1.2943539431e-01 -8.2800124962e-03 9.9155328656e-01
   outer loop
     vertex 1.2162478168e+01 4.4799204921e+00 2.0162002105e+00
     vertex 1.2213234114e+01 3.3333333333e+00 2.0000000000e+00
     vertex 1.2286581563e+01 4.4799204921e+00 2.0000000000e+00
   endloop
 endfacet
 facet normal  6.3512976401e-02 -4.0629399793e-03 -9.9797274229e-01
   outer loop
     vertex 1.2286581563e+01 4.4799204921e+00 2.0000000000e+00
     vertex 1.2163320950e+01 4.4799204921e+00 1.9921554486e+00
     vertex 1.2319851171e+01 5.0000000000e+00 2.0000000000e+00
   endloop
 endfacet
 facet normal  -9.2060161327e-02 4.2713174617e-02 -9.9483692704e-01
   outer loop
     vertex 1.2163320950e+01 4.4799204921e+00 1.9921554486e+00
     vertex 1.2078549760e+01 4.4799204921e+00 2.0000000000e+00
     vertex 1.2319851171e+01 5.0000000000e+00 2.0000000000e+00
   endloop
 endfacet
 facet normal  -1.8879721750e-01 8.7596289234e-02 9.7810147775e-01
   outer loop
     vertex 1.2078549760e+01 4.4799204921e+00 2.0000000000e+00
     vertex 1.2162478168e+01 4.4799204921e+00 2.0162002105e+00
     vertex 1.2319851171e+01 5.0000000000e+00 2.0000000000e+00
   endloop
 endfacet
 facet normal  1.2943539431e-01 -8.2800124962e-03 9.9155328656e-01
   outer loop
     vertex 1.2162478168e+01 4.4799204921e+00 2.0162002105e+00
     vertex 1.2286581563e+01 4.4799204921e+00 2.0000000000e+00
     vertex 1.2319851171e+01 5.0000000000e+00 2.0000000000e+00
   endloop
 endfacet
 facet normal  6.3512976401e-02 4.0629399793e-03 -9.9797274229e-01
   outer loop
     vertex 1.2000000000e+01 0.0000000000e+00 2.0000000000e+00
     vertex 1.2101428044e+01 -1.5855506047e+00 2.0000000000e+00
     vertex 1.1292191915e+01 -1.5855506047e+00 1.9484985982e+00
   endloop
 endfacet
 facet normal  6.3512976401e-02 4.0629399793e-03 -9.9797274229e-01
   outer loop
     vertex 1.2000000000e+01 0.0000000000e+00 2.0000000000e+00
     vertex 1.1292191915e+01 -1.5855506047e+00 1.9484985982e+00
     vertex 1.0814982981e+01 0.0000000000e+00 1.9245831526e+00
   endloop
 endfacet
 facet normal  -9.2060161327e-02 -4.2713174617e-02 -9.9483692704e-01
   outer loop
     vertex 1.0814982981e+01 0.0000000000e+00 1.9245831526e+00
     vertex 1.1292191915e+01 -1.5855506047e+00 1.9484985982e+00
     vertex 1.0000000000e+01 0.0000000000e+00 2.0000000000e+00
   endloop
 endfacet
 facet normal  -9.2060161327e-02 -4.2713174617e-02 -9.9483692704e-01
   outer loop
     vertex 1.1292191915e+01 -1.5855506047e+00 1.9484985982e+00
     vertex 1.0735648285e+01 -1.5855506047e+00 2.0000000000e+00
     vertex 1.0000000000e+01 0.0000000000e+00 2.0000000000e+00
   endloop
 endfacet
 facet normal  -1.8879721750e-01 -8.7596289234e-02 9.7810147775e-01
   outer loop
     vertex 1.0000000000e+01 0.0000000000e+00 2.0000000000e+00
     vertex 1.0735648285e+01 -1.5855506047e+00 2.0000000000e+00
     vertex 1.1286658844e+01 -1.5855506047e+00 2.1063583511e+00
   endloop
 endfacet
 facet normal  -1.8879721750e-01 -8.7596289234e-02 9.7810147775e-01
   outer loop
     vertex 1.0000000000e+01 0.0000000000e+00 2.0000000000e+00
     vertex 1.1286658844e+01 -1.5855506047e+00 2.1063583511e+00
     vertex 1.0806880547e+01 0.0000000000e+00 2.1557474409e+00
   endloop
 endfacet
 facet normal  1.2943539431e-01 8.2800124962e-03 9.9155328656e-01
   outer loop
     vertex 1.0806880547e+01 0.0000000000e+00 2.1557474409e+00
     vertex 1.1286658844e+01 -1.5855506047e+00 2.1063583511e+00
     vertex 1.2000000000e+01 0.0000000000e+00 2.0000000000e+00
   endloop
 endfacet
 facet normal  1.2943539431e-01 8.2800124962e-03 9.9155328656e-01
   outer loop
     vertex 1.1286658844e+01 -1.5855506047e+00 2.1063583511e+00
     vertex 1.2101428044e+01 -1.5855506047e+00 2.0000000000e+00
     vertex 1.2000000000e+01 0.0000000000e+00 2.0000000000e+00
   endloop
 endfacet
 facet normal  6.3512976401e-02 4.0629399793e-03 -9.9797274229e-01
   outer loop
     vertex 1.2101428044e+01 -1.5855506047e+00 2.0000000000e+00
     vertex 1.2213234114e+01 -3.3333333333e+00 2.0000000000e+00
     vertex 1.1818228441e+01 -3.3333333333e+00 1.9748610509e+00
   endloop
 endfacet
 facet normal  6.3512976401e-02 4.0629399793e-03 -9.9797274229e-01
   outer loop
     vertex 1.2101428044e+01 -1.5855506047e+00 2.0000000000e+00
     vertex 1.1818228441e+01 -3.3333333333e+00 1.9748610509e+00
     vertex 1.1292191915e+01 -1.5855506047e+00 1.9484985982e+00
   endloop
 endfacet
 facet normal  -9.2060161327e-02 -4.2713174617e-02 -9.9483692704e-01
   outer loop
     vertex 1.1292191915e+01 -1.5855506047e+00 1.9484985982e+00
     vertex 1.1818228441e+01 -3.3333333333e+00 1.9748610509e+00
     vertex 1.0735648285e+01 -1.5855506047e+00 2.0000000000e+00
   endloop
 endfacet
 facet normal  -9.2060161327e-02 -4.2713174617e-02 -9.9483692704e-01
   outer loop
     vertex 1.1818228441e+01 -3.3333333333e+00 1.9748610509e+00
     vertex 1.1546567448e+01 -3.3333333333e+00 2.0000000000e+00
     vertex 1.0735648285e+01 -1.5855506047e+00 2.0000000000e+00
   endloop
 endfacet
 facet normal  -1.8879721750e-01 -8.7596289234e-02 9.7810147775e-01
   outer loop
     vertex 1.0735648285e+01 -1.5855506047e+00 2.0000000000e+00
     vertex 1.1546567448e+01 -3.3333333333e+00 2.0000000000e+00
     vertex 1.1815527630e+01 -3.3333333333e+00 2.0519158136e+00
   endloop
 endfacet
 facet normal  -1.8879721750e-01 -8.7596289234e-02 9.7810147775e-01
   outer loop
     vertex 1.0735648285e+01 -1.5855506047e+00 2.0000000000e+00
     vertex 1.1815527630e+01 -3.3333333333e+00 2.0519158136e+00
     vertex 1.1286658844e+01 -1.5855506047e+00 2.1063583511e+00
   endloop
 endfacet
 facet normal  1.2943539431e-01 8.2800124962e-03 9.9155328656e-01
   outer loop
     vertex 1.1286658844e+01 -1.5855506047e+00 2.1063583511e+00
     vertex 1.1815527630e+01 -3.3333333333e+00 2.0519158136e+00
     vertex 1.2101428044e+01 -1.5855506047e+00 2.0000000000e+00
   endloop
 endfacet
 facet normal  1.2943539431e-01 8.2800124962e-03 9.9155328656e-01
   outer loop
     vertex 1.1815527630e+01 -3.3333333333e+00 2.0519158136e+00
     vertex 1.2213234114e+01 -3.3333333333e+00 2.0000000000e+00
     vertex 1.2101428044e+01 -1.5855506047e+00 2.0000000000e+00
   endloop
 endfacet
 facet normal  6.3512976401e-02 4.0629399793e-03 -9.9797274229e-01
   outer loop
     vertex 1.2213234114e+01 -3.3333333333e+00 2.0000000000e+00
     vertex 1.2286581563e+01 -4.4799204921e+00 2.0000000000e+00
     vertex 1.2163320950e+01 -4.4799204921e+00 1.9921554486e+00
   endloop
 endfacet
 facet normal  6.3512976401e-02 4.0629399793e-03 -9.9797274229e-01
   outer loop
     vertex 1.2213234114e+01 -3.3333333333e+00 2.0000000000e+00
     vertex 1.2163320950e+01 -4.4799204921e+00 1.9921554486e+00
     vertex 1.1818228441e+01 -3.3333333333e+00 1.9748610509e+00
   endloop
 endfacet
 facet normal  -9.2060161327e-02 -4.2713174617e-02 -9.9483692704e-01
   outer loop
     vertex 1.1818228441e+01 -3.3333333333e+00 1.9748610509e+00
     vertex 1.2163320950e+01 -4.4799204921e+00 1.9921554486e+00
     vertex 1.1546567448e+01 -3.3333333333e+00 2.0000000000e+00
   endloop
 endfacet
 facet normal  -9.2060161327e-02 -4.2713174617e-02 -9.9483692704e-01
   outer loop
     vertex 1.2163320950e+01 -4.4799204921e+00 1.9921554486e+00
     vertex 1.2078549760e+01 -4.4799204921e+00 2.0000000000e+00
     vertex 1.1546567448e+01 -3.3333333333e+00 2.0000000000e+00
   endloop
 endfacet
 facet normal  -1.8879721750e-01 -8.7596289234e-02 9.7810147775e-01
   outer loop
     vertex 1.1546567448e+01 -3.3333333333e+00 2.0000000000e+00
     vertex 1.2078549760e+01 -4.4799204921e+00 2.0000000000e+00
     vertex 1.2162478168e+01 -4.4799204921e+00 2.0162002105e+00
   endloop
 endfacet
 facet normal  -1.8879721750e-01 -8.7596289234e-02 9.7810147775e-01
   outer loop
     vertex 1.1546567448e+01 -3.3333333333e+00 2.0000000000e+00
     vertex 1.2162478168e+01 -4.4799204921e+00 2.0162002105e+00
     vertex 1.1815527630e+01 -3.3333333333e+00 2.0519158136e+00
   endloop
 endfacet
 facet normal  1.2943539431e-01 8.2800124962e-03 9.9155328656e-01
   outer loop
     vertex 1.1815527630e+01 -3.3333333333e+00 2.0519158136e+00
     vertex 1.2162478168e+01 -4.4799204921e+00 2.0162002105e+00
     vertex 1.2213234114e+01 -3.3333333333e+00 2.0000000000e+00
   endloop
 endfacet
 facet normal  1.2943539431e-01 8.2800124962e-03 9.9155328656e-01
   outer loop
     vertex 1.2162478168e+01 -4.4799204921e+00 2.0162002105e+00
     vertex 1.2286581563e+01 -4.4799204921e+00 2.0000000000e+00
     vertex 1.2213234114e+01 -3.3333333333e+00 2.0000000000e+00
   endloop
 endfacet
 facet normal  6.3512976401e-02 4.0629399793e-03 -9.9797274229e-01
   outer loop
     vertex 1.2286581563e+01 -4.4799204921e+00 2.0000000000e+00
     vertex 1.2319851171e+01 -5.0000000000e+00 2.0000000000e+00
     vertex 1.2163320950e+01 -4.4799204921e+00 1.9921554486e+00
   endloop
 endfacet
 facet normal  -9.2060161327e-02 -4.2713174617e-02 -9.9483692704e-01
   outer loop
     vertex 1.2163320950e+01 -4.4799204921e+00 1.9921554486e+00
     vertex 1.2319851171e+01 -5.0000000000e+00 2.0000000000e+00
     vertex 1.2078549760e+01 -4.4799204921e+00 2.0000000000e+00
   endloop
 endfacet
 facet normal  -1.8879721750e-01 -8.7596289234e-02 9.7810147775e-01
   outer loop
     vertex 1.2078549760e+01 -4.4799204921e+00 2.0000000000e+00
     vertex 1.2319851171e+01 -5.0000000000e+00 2.0000000000e+00
     vertex 1.2162478168e+01 -4.4799204921e+00 2.0162002105e+00
   endloop
 endfacet
 facet normal  1.2943539431e-01 8.2800124962e-03 9.9155328656e-01
   outer loop
     vertex 1.2162478168e+01 -4.4799204921e+00 2.0162002105e+00
     vertex 1.2319851171e+01 -5.0000000000e+00 2.0000000000e+00
     vertex 1.2286581563e+01 -4.4799204921e+00 2.0000000000e+00
   endloop
 endfacet
endsolid
