solid
 facet normal  6.6507692941e-02 -1.8445926540e-02 -9.9761539411e-01
   outer loop
     vertex 4.0000000000e+00 0.0000000000e+00 0.0000000000e+00
     vertex 3.1576936179e+00 1.4285714286e+00 -8.2568070157e-02
     vertex 4.3962146703e+00 1.4285714286e+00 0.0000000000e+00
   endloop
 endfacet
 facet normal  6.6507692941e-02 -1.8445926540e-02 -9.9761539411e-01
   outer loop
     vertex 4.0000000000e+00 0.0000000000e+00 0.0000000000e+00
     vertex 2.6128564214e+00 0.0000000000e+00 -9.2476238576e-02
     vertex 3.1576936179e+00 1.4285714286e+00 -8.2568070157e-02
   endloop
 endfacet
 facet normal  6.6507692941e-02 -1.8445926540e-02 -9.9761539411e-01
   outer loop
     vertex 2.6128564214e+00 0.0000000000e+00 -9.2476238576e-02
     vertex 1.9882339054e+00 1.4285714286e+00 -1.6053205099e-01
     vertex 3.1576936179e+00 1.4285714286e+00 -8.2568070157e-02
   endloop
 endfacet
 facet normal  6.6507692941e-02 -1.8445926540e-02 -9.9761539411e-01
   outer loop
     vertex 2.6128564214e+00 0.0000000000e+00 -9.2476238576e-02
     vertex 1.3030615433e+00 0.0000000000e+00 -1.7979589711e-01
     vertex 1.9882339054e+00 1.4285714286e+00 -1.6053205099e-01
   endloop
 endfacet
 facet normal  -8.1009707838e-02 5.2275802623e-02 -9.9534148296e-01
   outer loop
     vertex 1.3030615433e+00 0.0000000000e+00 -1.7979589711e-01
     vertex 6.2170555078e-01 0.0000000000e+00 -1.2434111016e-01
     vertex 1.9882339054e+00 1.4285714286e+00 -1.6053205099e-01
   endloop
 endfacet
 facet normal  -8.1009707838e-02 5.2275802623e-02 -9.9534148296e-01
   outer loop
     vertex 1.9882339054e+00 1.4285714286e+00 -1.6053205099e-01
     vertex 6.2170555078e-01 0.0000000000e+00 -1.2434111016e-01
     vertex 1.3798803406e+00 1.4285714286e+00 -1.1101884835e-01
   endloop
 endfacet
 facet normal  -1.9487094074e-01 1.1250879009e-01 -9.7435470369e-01
   outer loop
     vertex 6.2170555078e-01 0.0000000000e+00 -1.2434111016e-01
     vertex 0.0000000000e+00 0.0000000000e+00 0.0000000000e+00
     vertex 1.3798803406e+00 1.4285714286e+00 -1.1101884835e-01
   endloop
 endfacet
 facet normal  -1.9487094074e-01 1.1250879009e-01 -9.7435470369e-01
   outer loop
     vertex 1.3798803406e+00 1.4285714286e+00 -1.1101884835e-01
     vertex 0.0000000000e+00 0.0000000000e+00 0.0000000000e+00
     vertex 8.2478609884e-01 1.4285714286e+00 0.0000000000e+00
   endloop
 endfacet
 facet normal  -1.9487094074e-01 1.1250879009e-01 9.7435470369e-01
   outer loop
     vertex 0.0000000000e+00 0.0000000000e+00 0.0000000000e+00
     vertex 1.3798803406e+00 1.4285714286e+00 1.1101884835e-01
     vertex 8.2478609884e-01 1.4285714286e+00 0.0000000000e+00
   endloop
 endfacet
 facet normal  -1.9487094074e-01 1.1250879009e-01 9.7435470369e-01
   outer loop
     vertex 0.0000000000e+00 0.0000000000e+00 0.0000000000e+00
     vertex 6.2170555078e-01 0.0000000000e+00 1.2434111016e-01
     vertex 1.3798803406e+00 1.4285714286e+00 1.1101884835e-01
   endloop
 endfacet
 facet normal  -8.1009707838e-02 5.2275802623e-02 9.9534148296e-01
   outer loop
     vertex 6.2170555078e-01 0.0000000000e+00 1.2434111016e-01
     vertex 1.9882339054e+00 1.4285714286e+00 1.6053205099e-01
     vertex 1.3798803406e+00 1.4285714286e+00 1.1101884835e-01
   endloop
 endfacet
 facet normal  -8.1009707838e-02 5.2275802623e-02 9.9534148296e-01
   outer loop
     vertex 6.2170555078e-01 0.0000000000e+00 1.2434111016e-01
     vertex 1.3030615433e+00 0.0000000000e+00 1.7979589711e-01
     vertex 1.9882339054e+00 1.4285714286e+00 1.6053205099e-01
   endloop
 endfacet
 facet normal  6.6507692941e-02 -1.8445926540e-02 9.9761539411e-01
   outer loop
     vertex 1.3030615433e+00 0.0000000000e+00 1.7979589711e-01
     vertex 2.6128564214e+00 0.0000000000e+00 9.2476238576e-02
     vertex 1.9882339054e+00 1.4285714286e+00 1.6053205099e-01
   endloop
 endfacet
 facet normal  6.6507692941e-02 -1.8445926540e-02 9.9761539411e-01
   outer loop
     vertex 1.9882339054e+00 1.4285714286e+00 1.6053205099e-01
     vertex 2.6128564214e+00 0.0000000000e+00 9.2476238576e-02
     vertex 3.1576936179e+00 1.4285714286e+00 8.2568070157e-02
   endloop
 endfacet
 facet normal  6.6507692941e-02 -1.8445926540e-02 9.9761539411e-01
   outer loop
     vertex 2.6128564214e+00 0.0000000000e+00 9.2476238576e-02
     vertex 4.0000000000e+00 0.0000000000e+00 0.0000000000e+00
     vertex 3.1576936179e+00 1.4285714286e+00 8.2568070157e-02
   endloop
 endfacet
 facet normal  6.6507692941e-02 -1.8445926540e-02 9.9761539411e-01
   outer loop
     vertex 3.1576936179e+00 1.4285714286e+00 8.2568070157e-02
     vertex 4.0000000000e+00 0.0000000000e+00 0.0000000000e+00
     vertex 4.3962146703e+00 1.4285714286e+00 0.0000000000e+00
   endloop
 endfacet
 facet normal  6.6507692941e-02 -1.8445926540e-02 -9.9761539411e-01
   outer loop
     vertex 4.3962146703e+00 1.4285714286e+00 0.0000000000e+00
     vertex 3.7025308145e+00 2.8571428571e+00 -7.2659901739e-02
     vertex 4.7924293405e+00 2.8571428571e+00 0.0000000000e+00
   endloop
 endfacet
 facet normal  6.6507692941e-02 -1.8445926540e-02 -9.9761539411e-01
   outer loop
     vertex 4.3962146703e+00 1.4285714286e+00 0.0000000000e+00
     vertex 3.1576936179e+00 1.4285714286e+00 -8.2568070157e-02
     vertex 3.7025308145e+00 2.8571428571e+00 -7.2659901739e-02
   endloop
 endfacet
 facet normal  6.6507692941e-02 -1.8445926540e-02 -9.9761539411e-01
   outer loop
     vertex 3.1576936179e+00 1.4285714286e+00 -8.2568070157e-02
     vertex 2.6734062674e+00 2.8571428571e+00 -1.4126820487e-01
     vertex 3.7025308145e+00 2.8571428571e+00 -7.2659901739e-02
   endloop
 endfacet
 facet normal  6.6507692941e-02 -1.8445926540e-02 -9.9761539411e-01
   outer loop
     vertex 3.1576936179e+00 1.4285714286e+00 -8.2568070157e-02
     vertex 1.9882339054e+00 1.4285714286e+00 -1.6053205099e-01
     vertex 2.6734062674e+00 2.8571428571e+00 -1.4126820487e-01
   endloop
 endfacet
 facet normal  -8.1009707838e-02 5.2275802623e-02 -9.9534148296e-01
   outer loop
     vertex 1.9882339054e+00 1.4285714286e+00 -1.6053205099e-01
     vertex 1.3798803406e+00 1.4285714286e+00 -1.1101884835e-01
     vertex 2.6734062674e+00 2.8571428571e+00 -1.4126820487e-01
   endloop
 endfacet
 facet normal  -8.1009707838e-02 5.2275802623e-02 -9.9534148296e-01
   outer loop
     vertex 2.6734062674e+00 2.8571428571e+00 -1.4126820487e-01
     vertex 1.3798803406e+00 1.4285714286e+00 -1.1101884835e-01
     vertex 2.1380551304e+00 2.8571428571e+00 -9.7696586550e-02
   endloop
 endfacet
 facet normal  -1.9487094074e-01 1.1250879009e-01 -9.7435470369e-01
   outer loop
     vertex 1.3798803406e+00 1.4285714286e+00 -1.1101884835e-01
     vertex 8.2478609884e-01 1.4285714286e+00 0.0000000000e+00
     vertex 2.1380551304e+00 2.8571428571e+00 -9.7696586550e-02
   endloop
 endfacet
 facet normal  -1.9487094074e-01 1.1250879009e-01 -9.7435470369e-01
   outer loop
     vertex 2.1380551304e+00 2.8571428571e+00 -9.7696586550e-02
     vertex 8.2478609884e-01 1.4285714286e+00 0.0000000000e+00
     vertex 1.6495721977e+00 2.8571428571e+00 0.0000000000e+00
   endloop
 endfacet
 facet normal  -1.9487094074e-01 1.1250879009e-01 9.7435470369e-01
   outer loop
     vertex 8.2478609884e-01 1.4285714286e+00 0.0000000000e+00
     vertex 2.1380551304e+00 2.8571428571e+00 9.7696586550e-02
     vertex 1.6495721977e+00 2.8571428571e+00 0.0000000000e+00
   endloop
 endfacet
 facet normal  -1.9487094074e-01 1.1250879009e-01 9.7435470369e-01
   outer loop
     vertex 8.2478609884e-01 1.4285714286e+00 0.0000000000e+00
     vertex 1.3798803406e+00 1.4285714286e+00 1.1101884835e-01
     vertex 2.1380551304e+00 2.8571428571e+00 9.7696586550e-02
   endloop
 endfacet
 facet normal  -8.1009707838e-02 5.2275802623e-02 9.9534148296e-01
   outer loop
     vertex 1.3798803406e+00 1.4285714286e+00 1.1101884835e-01
     vertex 2.6734062674e+00 2.8571428571e+00 1.4126820487e-01
     vertex 2.1380551304e+00 2.8571428571e+00 9.7696586550e-02
   endloop
 endfacet
 facet normal  -8.1009707838e-02 5.2275802623e-02 9.9534148296e-01
   outer loop
     vertex 1.3798803406e+00 1.4285714286e+00 1.1101884835e-01
     vertex 1.9882339054e+00 1.4285714286e+00 1.6053205099e-01
     vertex 2.6734062674e+00 2.8571428571e+00 1.4126820487e-01
   endloop
 endfacet
 facet normal  6.6507692941e-02 -1.8445926540e-02 9.9761539411e-01
   outer loop
     vertex 1.9882339054e+00 1.4285714286e+00 1.6053205099e-01
     vertex 3.1576936179e+00 1.4285714286e+00 8.2568070157e-02
     vertex 2.6734062674e+00 2.8571428571e+00 1.4126820487e-01
   endloop
 endfacet
 facet normal  6.6507692941e-02 -1.8445926540e-02 9.9761539411e-01
   outer loop
     vertex 2.6734062674e+00 2.8571428571e+00 1.4126820487e-01
     vertex 3.1576936179e+00 1.4285714286e+00 8.2568070157e-02
     vertex 3.7025308145e+00 2.8571428571e+00 7.2659901739e-02
   endloop
 endfacet
 facet normal  6.6507692941e-02 -1.8445926540e-02 9.9761539411e-01
   outer loop
     vertex 3.1576936179e+00 1.4285714286e+00 8.2568070157e-02
     vertex 4.3962146703e+00 1.4285714286e+00 0.0000000000e+00
     vertex 3.7025308145e+00 2.8571428571e+00 7.2659901739e-02
   endloop
 endfacet
 facet normal  6.6507692941e-02 -1.8445926540e-02 9.9761539411e-01
   outer loop
     vertex 3.7025308145e+00 2.8571428571e+00 7.2659901739e-02
     vertex 4.3962146703e+00 1.4285714286e+00 0.0000000000e+00
     vertex 4.7924293405e+00 2.8571428571e+00 0.0000000000e+00
   endloop
 endfacet
 facet normal  6.6507692941e-02 -1.8445926540e-02 -9.9761539411e-01
   outer loop
     vertex 4.7924293405e+00 2.8571428571e+00 0.0000000000e+00
     vertex 4.2473680110e+00 4.2857142857e+00 -6.2751733320e-02
     vertex 5.1886440108e+00 4.2857142857e+00 0.0000000000e+00
   endloop
 endfacet
 facet normal  6.6507692941e-02 -1.8445926540e-02 -9.9761539411e-01
   outer loop
     vertex 4.7924293405e+00 2.8571428571e+00 0.0000000000e+00
     vertex 3.7025308145e+00 2.8571428571e+00 -7.2659901739e-02
     vertex 4.2473680110e+00 4.2857142857e+00 -6.2751733320e-02
   endloop
 endfacet
 facet normal  6.6507692941e-02 -1.8445926540e-02 -9.9761539411e-01
   outer loop
     vertex 3.7025308145e+00 2.8571428571e+00 -7.2659901739e-02
     vertex 3.3585786295e+00 4.2857142857e+00 -1.2200435876e-01
     vertex 4.2473680110e+00 4.2857142857e+00 -6.2751733320e-02
   endloop
 endfacet
 facet normal  6.6507692941e-02 -1.8445926540e-02 -9.9761539411e-01
   outer loop
     vertex 3.7025308145e+00 2.8571428571e+00 -7.2659901739e-02
     vertex 2.6734062674e+00 2.8571428571e+00 -1.4126820487e-01
     vertex 3.3585786295e+00 4.2857142857e+00 -1.2200435876e-01
   endloop
 endfacet
 facet normal  -8.1009707838e-02 5.2275802623e-02 -9.9534148296e-01
   outer loop
     vertex 2.6734062674e+00 2.8571428571e+00 -1.4126820487e-01
     vertex 2.1380551304e+00 2.8571428571e+00 -9.7696586550e-02
     vertex 3.3585786295e+00 4.2857142857e+00 -1.2200435876e-01
   endloop
 endfacet
 facet normal  -8.1009707838e-02 5.2275802623e-02 -9.9534148296e-01
   outer loop
     vertex 3.3585786295e+00 4.2857142857e+00 -1.2200435876e-01
     vertex 2.1380551304e+00 2.8571428571e+00 -9.7696586550e-02
     vertex 2.8962299203e+00 4.2857142857e+00 -8.4374324748e-02
   endloop
 endfacet
 facet normal  -1.9487094074e-01 1.1250879009e-01 -9.7435470369e-01
   outer loop
     vertex 2.1380551304e+00 2.8571428571e+00 -9.7696586550e-02
     vertex 1.6495721977e+00 2.8571428571e+00 0.0000000000e+00
     vertex 2.8962299203e+00 4.2857142857e+00 -8.4374324748e-02
   endloop
 endfacet
 facet normal  -1.9487094074e-01 1.1250879009e-01 -9.7435470369e-01
   outer loop
     vertex 2.8962299203e+00 4.2857142857e+00 -8.4374324748e-02
     vertex 1.6495721977e+00 2.8571428571e+00 0.0000000000e+00
     vertex 2.4743582965e+00 4.2857142857e+00 0.0000000000e+00
   endloop
 endfacet
 facet normal  -1.9487094074e-01 1.1250879009e-01 9.7435470369e-01
   outer loop
     vertex 1.6495721977e+00 2.8571428571e+00 0.0000000000e+00
     vertex 2.8962299203e+00 4.2857142857e+00 8.4374324748e-02
     vertex 2.4743582965e+00 4.2857142857e+00 0.0000000000e+00
   endloop
 endfacet
 facet normal  -1.9487094074e-01 1.1250879009e-01 9.7435470369e-01
   outer loop
     vertex 1.6495721977e+00 2.8571428571e+00 0.0000000000e+00
     vertex 2.1380551304e+00 2.8571428571e+00 9.7696586550e-02
     vertex 2.8962299203e+00 4.2857142857e+00 8.4374324748e-02
   endloop
 endfacet
 facet normal  -8.1009707838e-02 5.2275802623e-02 9.9534148296e-01
   outer loop
     vertex 2.1380551304e+00 2.8571428571e+00 9.7696586550e-02
     vertex 3.3585786295e+00 4.2857142857e+00 1.2200435876e-01
     vertex 2.8962299203e+00 4.2857142857e+00 8.4374324748e-02
   endloop
 endfacet
 facet normal  -8.1009707838e-02 5.2275802623e-02 9.9534148296e-01
   outer loop
     vertex 2.1380551304e+00 2.8571428571e+00 9.7696586550e-02
     vertex 2.6734062674e+00 2.8571428571e+00 1.4126820487e-01
     vertex 3.3585786295e+00 4.2857142857e+00 1.2200435876e-01
   endloop
 endfacet
 facet normal  6.6507692941e-02 -1.8445926540e-02 9.9761539411e-01
   outer loop
     vertex 2.6734062674e+00 2.8571428571e+00 1.4126820487e-01
     vertex 3.7025308145e+00 2.8571428571e+00 7.2659901739e-02
     vertex 3.3585786295e+00 4.2857142857e+00 1.2200435876e-01
   endloop
 endfacet
 facet normal  6.6507692941e-02 -1.8445926540e-02 9.9761539411e-01
   outer loop
     vertex 3.3585786295e+00 4.2857142857e+00 1.2200435876e-01
     vertex 3.7025308145e+00 2.8571428571e+00 7.2659901739e-02
     vertex 4.2473680110e+00 4.2857142857e+00 6.2751733320e-02
   endloop
 endfacet
 facet normal  6.6507692941e-02 -1.8445926540e-02 9.9761539411e-01
   outer loop
     vertex 3.7025308145e+00 2.8571428571e+00 7.2659901739e-02
     vertex 4.7924293405e+00 2.8571428571e+00 0.0000000000e+00
     vertex 4.2473680110e+00 4.2857142857e+00 6.2751733320e-02
   endloop
 endfacet
 facet normal  6.6507692941e-02 -1.8445926540e-02 9.9761539411e-01
   outer loop
     vertex 4.2473680110e+00 4.2857142857e+00 6.2751733320e-02
     vertex 4.7924293405e+00 2.8571428571e+00 0.0000000000e+00
     vertex 5.1886440108e+00 4.2857142857e+00 0.0000000000e+00
   endloop
 endfacet
 facet normal  6.6507692941e-02 -1.8445926540e-02 -9.9761539411e-01
   outer loop
     vertex 5.1886440108e+00 4.2857142857e+00 0.0000000000e+00
     vertex 4.7922052076e+00 5.7142857143e+00 -5.2843564901e-02
     vertex 5.5848586811e+00 5.7142857143e+00 0.0000000000e+00
   endloop
 endfacet
 facet normal  6.6507692941e-02 -1.8445926540e-02 -9.9761539411e-01
   outer loop
     vertex 5.1886440108e+00 4.2857142857e+00 0.0000000000e+00
     vertex 4.2473680110e+00 4.2857142857e+00 -6.2751733320e-02
     vertex 4.7922052076e+00 5.7142857143e+00 -5.2843564901e-02
   endloop
 endfacet
 facet normal  6.6507692941e-02 -1.8445926540e-02 -9.9761539411e-01
   outer loop
     vertex 4.2473680110e+00 4.2857142857e+00 -6.2751733320e-02
     vertex 4.0437509915e+00 5.7142857143e+00 -1.0274051264e-01
     vertex 4.7922052076e+00 5.7142857143e+00 -5.2843564901e-02
   endloop
 endfacet
 facet normal  6.6507692941e-02 -1.8445926540e-02 -9.9761539411e-01
   outer loop
     vertex 4.2473680110e+00 4.2857142857e+00 -6.2751733320e-02
     vertex 3.3585786295e+00 4.2857142857e+00 -1.2200435876e-01
     vertex 4.0437509915e+00 5.7142857143e+00 -1.0274051264e-01
   endloop
 endfacet
 facet normal  -8.1009707838e-02 5.2275802623e-02 -9.9534148296e-01
   outer loop
     vertex 3.3585786295e+00 4.2857142857e+00 -1.2200435876e-01
     vertex 2.8962299203e+00 4.2857142857e+00 -8.4374324748e-02
     vertex 4.0437509915e+00 5.7142857143e+00 -1.0274051264e-01
   endloop
 endfacet
 facet normal  -8.1009707838e-02 5.2275802623e-02 -9.9534148296e-01
   outer loop
     vertex 4.0437509915e+00 5.7142857143e+00 -1.0274051264e-01
     vertex 2.8962299203e+00 4.2857142857e+00 -8.4374324748e-02
     vertex 3.6544047101e+00 5.7142857143e+00 -7.1052062946e-02
   endloop
 endfacet
 facet normal  -1.9487094074e-01 1.1250879009e-01 -9.7435470369e-01
   outer loop
     vertex 2.8962299203e+00 4.2857142857e+00 -8.4374324748e-02
     vertex 2.4743582965e+00 4.2857142857e+00 0.0000000000e+00
     vertex 3.6544047101e+00 5.7142857143e+00 -7.1052062946e-02
   endloop
 endfacet
 facet normal  -1.9487094074e-01 1.1250879009e-01 -9.7435470369e-01
   outer loop
     vertex 3.6544047101e+00 5.7142857143e+00 -7.1052062946e-02
     vertex 2.4743582965e+00 4.2857142857e+00 0.0000000000e+00
     vertex 3.2991443954e+00 5.7142857143e+00 0.0000000000e+00
   endloop
 endfacet
 facet normal  -1.9487094074e-01 1.1250879009e-01 9.7435470369e-01
   outer loop
     vertex 2.4743582965e+00 4.2857142857e+00 0.0000000000e+00
     vertex 3.6544047101e+00 5.7142857143e+00 7.1052062946e-02
     vertex 3.2991443954e+00 5.7142857143e+00 0.0000000000e+00
   endloop
 endfacet
 facet normal  -1.9487094074e-01 1.1250879009e-01 9.7435470369e-01
   outer loop
     vertex 2.4743582965e+00 4.2857142857e+00 0.0000000000e+00
     vertex 2.8962299203e+00 4.2857142857e+00 8.4374324748e-02
     vertex 3.6544047101e+00 5.7142857143e+00 7.1052062946e-02
   endloop
 endfacet
 facet normal  -8.1009707838e-02 5.2275802623e-02 9.9534148296e-01
   outer loop
     vertex 2.8962299203e+00 4.2857142857e+00 8.4374324748e-02
     vertex 4.0437509915e+00 5.7142857143e+00 1.0274051264e-01
     vertex 3.6544047101e+00 5.7142857143e+00 7.1052062946e-02
   endloop
 endfacet
 facet normal  -8.1009707838e-02 5.2275802623e-02 9.9534148296e-01
   outer loop
     vertex 2.8962299203e+00 4.2857142857e+00 8.4374324748e-02
     vertex 3.3585786295e+00 4.2857142857e+00 1.2200435876e-01
     vertex 4.0437509915e+00 5.7142857143e+00 1.0274051264e-01
   endloop
 endfacet
 facet normal  6.6507692941e-02 -1.8445926540e-02 9.9761539411e-01
   outer loop
     vertex 3.3585786295e+00 4.2857142857e+00 1.2200435876e-01
     vertex 4.2473680110e+00 4.2857142857e+00 6.2751733320e-02
     vertex 4.0437509915e+00 5.7142857143e+00 1.0274051264e-01
   endloop
 endfacet
 facet normal  6.6507692941e-02 -1.8445926540e-02 9.9761539411e-01
   outer loop
     vertex 4.0437509915e+00 5.7142857143e+00 1.0274051264e-01
     vertex 4.2473680110e+00 4.2857142857e+00 6.2751733320e-02
     vertex 4.7922052076e+00 5.7142857143e+00 5.2843564901e-02
   endloop
 endfacet
 facet normal  6.6507692941e-02 -1.8445926540e-02 9.9761539411e-01
   outer loop
     vertex 4.2473680110e+00 4.2857142857e+00 6.2751733320e-02
     vertex 5.1886440108e+00 4.2857142857e+00 0.0000000000e+00
     vertex 4.7922052076e+00 5.7142857143e+00 5.2843564901e-02
   endloop
 endfacet
 facet normal  6.6507692941e-02 -1.8445926540e-02 9.9761539411e-01
   outer loop
     vertex 4.7922052076e+00 5.7142857143e+00 5.2843564901e-02
     vertex 5.1886440108e+00 4.2857142857e+00 0.0000000000e+00
     vertex 5.5848586811e+00 5.7142857143e+00 0.0000000000e+00
   endloop
 endfacet
 facet normal  6.6507692941e-02 -1.8445926540e-02 -9.9761539411e-01
   outer loop
     vertex 5.5848586811e+00 5.7142857143e+00 0.0000000000e+00
     vertex 5.3370424041e+00 7.1428571429e+00 -4.2935396482e-02
     vertex 5.9810733514e+00 7.1428571429e+00 0.0000000000e+00
   endloop
 endfacet
 facet normal  6.6507692941e-02 -1.8445926540e-02 -9.9761539411e-01
   outer loop
     vertex 5.5848586811e+00 5.7142857143e+00 0.0000000000e+00
     vertex 4.7922052076e+00 5.7142857143e+00 -5.2843564901e-02
     vertex 5.3370424041e+00 7.1428571429e+00 -4.2935396482e-02
   endloop
 endfacet
 facet normal  6.6507692941e-02 -1.8445926540e-02 -9.9761539411e-01
   outer loop
     vertex 4.7922052076e+00 5.7142857143e+00 -5.2843564901e-02
     vertex 4.7289233536e+00 7.1428571429e+00 -8.3476666517e-02
     vertex 5.3370424041e+00 7.1428571429e+00 -4.2935396482e-02
   endloop
 endfacet
 facet normal  6.6507692941e-02 -1.8445926540e-02 -9.9761539411e-01
   outer loop
     vertex 4.7922052076e+00 5.7142857143e+00 -5.2843564901e-02
     vertex 4.0437509915e+00 5.7142857143e+00 -1.0274051264e-01
     vertex 4.7289233536e+00 7.1428571429e+00 -8.3476666517e-02
   endloop
 endfacet
 facet normal  -8.1009707838e-02 5.2275802623e-02 -9.9534148296e-01
   outer loop
     vertex 4.0437509915e+00 5.7142857143e+00 -1.0274051264e-01
     vertex 3.6544047101e+00 5.7142857143e+00 -7.1052062946e-02
     vertex 4.7289233536e+00 7.1428571429e+00 -8.3476666517e-02
   endloop
 endfacet
 facet normal  -8.1009707838e-02 5.2275802623e-02 -9.9534148296e-01
   outer loop
     vertex 4.7289233536e+00 7.1428571429e+00 -8.3476666517e-02
     vertex 3.6544047101e+00 5.7142857143e+00 -7.1052062946e-02
     vertex 4.4125794999e+00 7.1428571429e+00 -5.7729801143e-02
   endloop
 endfacet
 facet normal  -1.9487094074e-01 1.1250879009e-01 -9.7435470369e-01
   outer loop
     vertex 3.6544047101e+00 5.7142857143e+00 -7.1052062946e-02
     vertex 3.2991443954e+00 5.7142857143e+00 0.0000000000e+00
     vertex 4.4125794999e+00 7.1428571429e+00 -5.7729801143e-02
   endloop
 endfacet
 facet normal  -1.9487094074e-01 1.1250879009e-01 -9.7435470369e-01
   outer loop
     vertex 4.4125794999e+00 7.1428571429e+00 -5.7729801143e-02
     vertex 3.2991443954e+00 5.7142857143e+00 0.0000000000e+00
     vertex 4.1239304942e+00 7.1428571429e+00 0.0000000000e+00
   endloop
 endfacet
 facet normal  -1.9487094074e-01 1.1250879009e-01 9.7435470369e-01
   outer loop
     vertex 3.2991443954e+00 5.7142857143e+00 0.0000000000e+00
     vertex 4.4125794999e+00 7.1428571429e+00 5.7729801143e-02
     vertex 4.1239304942e+00 7.1428571429e+00 0.0000000000e+00
   endloop
 endfacet
 facet normal  -1.9487094074e-01 1.1250879009e-01 9.7435470369e-01
   outer loop
     vertex 3.2991443954e+00 5.7142857143e+00 0.0000000000e+00
     vertex 3.6544047101e+00 5.7142857143e+00 7.1052062946e-02
     vertex 4.4125794999e+00 7.1428571429e+00 5.7729801143e-02
   endloop
 endfacet
 facet normal  -8.1009707838e-02 5.2275802623e-02 9.9534148296e-01
   outer loop
     vertex 3.6544047101e+00 5.7142857143e+00 7.1052062946e-02
     vertex 4.7289233536e+00 7.1428571429e+00 8.3476666517e-02
     vertex 4.4125794999e+00 7.1428571429e+00 5.7729801143e-02
   endloop
 endfacet
 facet normal  -8.1009707838e-02 5.2275802623e-02 9.9534148296e-01
   outer loop
     vertex 3.6544047101e+00 5.7142857143e+00 7.1052062946e-02
     vertex 4.0437509915e+00 5.7142857143e+00 1.0274051264e-01
     vertex 4.7289233536e+00 7.1428571429e+00 8.3476666517e-02
   endloop
 endfacet
 facet normal  6.6507692941e-02 -1.8445926540e-02 9.9761539411e-01
   outer loop
     vertex 4.0437509915e+00 5.7142857143e+00 1.0274051264e-01
     vertex 4.7922052076e+00 5.7142857143e+00 5.2843564901e-02
     vertex 4.7289233536e+00 7.1428571429e+00 8.3476666517e-02
   endloop
 endfacet
 facet normal  6.6507692941e-02 -1.8445926540e-02 9.9761539411e-01
   outer loop
     vertex 4.7289233536e+00 7.1428571429e+00 8.3476666517e-02
     vertex 4.7922052076e+00 5.7142857143e+00 5.2843564901e-02
     vertex 5.3370424041e+00 7.1428571429e+00 4.2935396482e-02
   endloop
 endfacet
 facet normal  6.6507692941e-02 -1.8445926540e-02 9.9761539411e-01
   outer loop
     vertex 4.7922052076e+00 5.7142857143e+00 5.2843564901e-02
     vertex 5.5848586811e+00 5.7142857143e+00 0.0000000000e+00
     vertex 5.3370424041e+00 7.1428571429e+00 4.2935396482e-02
   endloop
 endfacet
 facet normal  6.6507692941e-02 -1.8445926540e-02 9.9761539411e-01
   outer loop
     vertex 5.3370424041e+00 7.1428571429e+00 4.2935396482e-02
     vertex 5.5848586811e+00 5.7142857143e+00 0.0000000000e+00
     vertex 5.9810733514e+00 7.1428571429e+00 0.0000000000e+00
   endloop
 endfacet
 facet normal  6.6507692941e-02 -1.8445926540e-02 -9.9761539411e-01
   outer loop
     vertex 5.9810733514e+00 7.1428571429e+00 0.0000000000e+00
     vertex 5.8818796007e+00 8.5714285714e+00 -3.3027228063e-02
     vertex 6.3772880216e+00 8.5714285714e+00 0.0000000000e+00
   endloop
 endfacet
 facet normal  6.6507692941e-02 -1.8445926540e-02 -9.9761539411e-01
   outer loop
     vertex 5.9810733514e+00 7.1428571429e+00 0.0000000000e+00
     vertex 5.3370424041e+00 7.1428571429e+00 -4.2935396482e-02
     vertex 5.8818796007e+00 8.5714285714e+00 -3.3027228063e-02
   endloop
 endfacet
 facet normal  6.6507692941e-02 -1.8445926540e-02 -9.9761539411e-01
   outer loop
     vertex 5.3370424041e+00 7.1428571429e+00 -4.2935396482e-02
     vertex 5.4140957157e+00 8.5714285714e+00 -6.4212820398e-02
     vertex 5.8818796007e+00 8.5714285714e+00 -3.3027228063e-02
   endloop
 endfacet
 facet normal  6.6507692941e-02 -1.8445926540e-02 -9.9761539411e-01
   outer loop
     vertex 5.3370424041e+00 7.1428571429e+00 -4.2935396482e-02
     vertex 4.7289233536e+00 7.1428571429e+00 -8.3476666517e-02
     vertex 5.4140957157e+00 8.5714285714e+00 -6.4212820398e-02
   endloop
 endfacet
 facet normal  -8.1009707838e-02 5.2275802623e-02 -9.9534148296e-01
   outer loop
     vertex 4.7289233536e+00 7.1428571429e+00 -8.3476666517e-02
     vertex 4.4125794999e+00 7.1428571429e+00 -5.7729801143e-02
     vertex 5.4140957157e+00 8.5714285714e+00 -6.4212820398e-02
   endloop
 endfacet
 facet normal  -8.1009707838e-02 5.2275802623e-02 -9.9534148296e-01
   outer loop
     vertex 5.4140957157e+00 8.5714285714e+00 -6.4212820398e-02
     vertex 4.4125794999e+00 7.1428571429e+00 -5.7729801143e-02
     vertex 5.1707542898e+00 8.5714285714e+00 -4.4407539341e-02
   endloop
 endfacet
 facet normal  -1.9487094074e-01 1.1250879009e-01 -9.7435470369e-01
   outer loop
     vertex 4.4125794999e+00 7.1428571429e+00 -5.7729801143e-02
     vertex 4.1239304942e+00 7.1428571429e+00 0.0000000000e+00
     vertex 5.1707542898e+00 8.5714285714e+00 -4.4407539341e-02
   endloop
 endfacet
 facet normal  -1.9487094074e-01 1.1250879009e-01 -9.7435470369e-01
   outer loop
     vertex 5.1707542898e+00 8.5714285714e+00 -4.4407539341e-02
     vertex 4.1239304942e+00 7.1428571429e+00 0.0000000000e+00
     vertex 4.9487165931e+00 8.5714285714e+00 0.0000000000e+00
   endloop
 endfacet
 facet normal  -1.9487094074e-01 1.1250879009e-01 9.7435470369e-01
   outer loop
     vertex 4.1239304942e+00 7.1428571429e+00 0.0000000000e+00
     vertex 5.1707542898e+00 8.5714285714e+00 4.4407539341e-02
     vertex 4.9487165931e+00 8.5714285714e+00 0.0000000000e+00
   endloop
 endfacet
 facet normal  -1.9487094074e-01 1.1250879009e-01 9.7435470369e-01
   outer loop
     vertex 4.1239304942e+00 7.1428571429e+00 0.0000000000e+00
     vertex 4.4125794999e+00 7.1428571429e+00 5.7729801143e-02
     vertex 5.1707542898e+00 8.5714285714e+00 4.4407539341e-02
   endloop
 endfacet
 facet normal  -8.1009707838e-02 5.2275802623e-02 9.9534148296e-01
   outer loop
     vertex 4.4125794999e+00 7.1428571429e+00 5.7729801143e-02
     vertex 5.4140957157e+00 8.5714285714e+00 6.4212820398e-02
     vertex 5.1707542898e+00 8.5714285714e+00 4.4407539341e-02
   endloop
 endfacet
 facet normal  -8.1009707838e-02 5.2275802623e-02 9.9534148296e-01
   outer loop
     vertex 4.4125794999e+00 7.1428571429e+00 5.7729801143e-02
     vertex 4.7289233536e+00 7.1428571429e+00 8.3476666517e-02
     vertex 5.4140957157e+00 8.5714285714e+00 6.4212820398e-02
   endloop
 endfacet
 facet normal  6.6507692941e-02 -1.8445926540e-02 9.9761539411e-01
   outer loop
     vertex 4.7289233536e+00 7.1428571429e+00 8.3476666517e-02
     vertex 5.3370424041e+00 7.1428571429e+00 4.2935396482e-02
     vertex 5.4140957157e+00 8.5714285714e+00 6.4212820398e-02
   endloop
 endfacet
 facet normal  6.6507692941e-02 -1.8445926540e-02 9.9761539411e-01
   outer loop
     vertex 5.4140957157e+00 8.5714285714e+00 6.4212820398e-02
     vertex 5.3370424041e+00 7.1428571429e+00 4.2935396482e-02
     vertex 5.8818796007e+00 8.5714285714e+00 3.3027228063e-02
   endloop
 endfacet
 facet normal  6.6507692941e-02 -1.8445926540e-02 9.9761539411e-01
   outer loop
     vertex 5.3370424041e+00 7.1428571429e+00 4.2935396482e-02
     vertex 5.9810733514e+00 7.1428571429e+00 0.0000000000e+00
     vertex 5.8818796007e+00 8.5714285714e+00 3.3027228063e-02
   endloop
 endfacet
 facet normal  6.6507692941e-02 -1.8445926540e-02 9.9761539411e-01
   outer loop
     vertex 5.8818796007e+00 8.5714285714e+00 3.3027228063e-02
     vertex 5.9810733514e+00 7.1428571429e+00 0.0000000000e+00
     vertex 6.3772880216e+00 8.5714285714e+00 0.0000000000e+00
   endloop
 endfacet
 facet normal  6.6507692941e-02 -1.8445926540e-02 -9.9761539411e-01
   outer loop
     vertex 6.3772880216e+00 8.5714285714e+00 0.0000000000e+00
     vertex 6.4267167972e+00 1.0000000000e+01 -2.3119059644e-02
     vertex 6.7735026919e+00 1.0000000000e+01 0.0000000000e+00
   endloop
 endfacet
 facet normal  6.6507692941e-02 -1.8445926540e-02 -9.9761539411e-01
   outer loop
     vertex 6.3772880216e+00 8.5714285714e+00 0.0000000000e+00
     vertex 5.8818796007e+00 8.5714285714e+00 -3.3027228063e-02
     vertex 6.4267167972e+00 1.0000000000e+01 -2.3119059644e-02
   endloop
 endfacet
 facet normal  6.6507692941e-02 -1.8445926540e-02 -9.9761539411e-01
   outer loop
     vertex 5.8818796007e+00 8.5714285714e+00 -3.3027228063e-02
     vertex 6.0992680777e+00 1.0000000000e+01 -4.4948974278e-02
     vertex 6.4267167972e+00 1.0000000000e+01 -2.3119059644e-02
   endloop
 endfacet
 facet normal  6.6507692941e-02 -1.8445926540e-02 -9.9761539411e-01
   outer loop
     vertex 5.8818796007e+00 8.5714285714e+00 -3.3027228063e-02
     vertex 5.4140957157e+00 8.5714285714e+00 -6.4212820398e-02
     vertex 6.0992680777e+00 1.0000000000e+01 -4.4948974278e-02
   endloop
 endfacet
 facet normal  -8.1009707838e-02 5.2275802623e-02 -9.9534148296e-01
   outer loop
     vertex 5.4140957157e+00 8.5714285714e+00 -6.4212820398e-02
     vertex 5.1707542898e+00 8.5714285714e+00 -4.4407539341e-02
     vertex 6.0992680777e+00 1.0000000000e+01 -4.4948974278e-02
   endloop
 endfacet
 facet normal  -8.1009707838e-02 5.2275802623e-02 -9.9534148296e-01
   outer loop
     vertex 6.0992680777e+00 1.0000000000e+01 -4.4948974278e-02
     vertex 5.1707542898e+00 8.5714285714e+00 -4.4407539341e-02
     vertex 5.9289290796e+00 1.0000000000e+01 -3.1085277539e-02
   endloop
 endfacet
 facet normal  -1.9487094074e-01 1.1250879009e-01 -9.7435470369e-01
   outer loop
     vertex 5.1707542898e+00 8.5714285714e+00 -4.4407539341e-02
     vertex 4.9487165931e+00 8.5714285714e+00 0.0000000000e+00
     vertex 5.9289290796e+00 1.0000000000e+01 -3.1085277539e-02
   endloop
 endfacet
 facet normal  -1.9487094074e-01 1.1250879009e-01 -9.7435470369e-01
   outer loop
     vertex 5.9289290796e+00 1.0000000000e+01 -3.1085277539e-02
     vertex 4.9487165931e+00 8.5714285714e+00 0.0000000000e+00
     vertex 5.7735026919e+00 1.0000000000e+01 0.0000000000e+00
   endloop
 endfacet
 facet normal  -1.9487094074e-01 1.1250879009e-01 9.7435470369e-01
   outer loop
     vertex 4.9487165931e+00 8.5714285714e+00 0.0000000000e+00
     vertex 5.9289290796e+00 1.0000000000e+01 3.1085277539e-02
     vertex 5.7735026919e+00 1.0000000000e+01 0.0000000000e+00
   endloop
 endfacet
 facet normal  -1.9487094074e-01 1.1250879009e-01 9.7435470369e-01
   outer loop
     vertex 4.9487165931e+00 8.5714285714e+00 0.0000000000e+00
     vertex 5.1707542898e+00 8.5714285714e+00 4.4407539341e-02
     vertex 5.9289290796e+00 1.0000000000e+01 3.1085277539e-02
   endloop
 endfacet
 facet normal  -8.1009707838e-02 5.2275802623e-02 9.9534148296e-01
   outer loop
     vertex 5.1707542898e+00 8.5714285714e+00 4.4407539341e-02
     vertex 6.0992680777e+00 1.0000000000e+01 4.4948974278e-02
     vertex 5.9289290796e+00 1.0000000000e+01 3.1085277539e-02
   endloop
 endfacet
 facet normal  -8.1009707838e-02 5.2275802623e-02 9.9534148296e-01
   outer loop
     vertex 5.1707542898e+00 8.5714285714e+00 4.4407539341e-02
     vertex 5.4140957157e+00 8.5714285714e+00 6.4212820398e-02
     vertex 6.0992680777e+00 1.0000000000e+01 4.4948974278e-02
   endloop
 endfacet
 facet normal  6.6507692941e-02 -1.8445926540e-02 9.9761539411e-01
   outer loop
     vertex 5.4140957157e+00 8.5714285714e+00 6.4212820398e-02
     vertex 5.8818796007e+00 8.5714285714e+00 3.3027228063e-02
     vertex 6.0992680777e+00 1.0000000000e+01 4.4948974278e-02
   endloop
 endfacet
 facet normal  6.6507692941e-02 -1.8445926540e-02 9.9761539411e-01
   outer loop
     vertex 6.0992680777e+00 1.0000000000e+01 4.4948974278e-02
     vertex 5.8818796007e+00 8.5714285714e+00 3.3027228063e-02
     vertex 6.4267167972e+00 1.0000000000e+01 2.3119059644e-02
   endloop
 endfacet
 facet normal  6.6507692941e-02 -1.8445926540e-02 9.9761539411e-01
   outer loop
     vertex 5.8818796007e+00 8.5714285714e+00 3.3027228063e-02
     vertex 6.3772880216e+00 8.5714285714e+00 0.0000000000e+00
     vertex 6.4267167972e+00 1.0000000000e+01 2.3119059644e-02
   endloop
 endfacet
 facet normal  6.6507692941e-02 -1.8445926540e-02 9.9761539411e-01
   outer loop
     vertex 6.4267167972e+00 1.0000000000e+01 2.3119059644e-02
     vertex 6.3772880216e+00 8.5714285714e+00 0.0000000000e+00
     vertex 6.7735026919e+00 1.0000000000e+01 0.0000000000e+00
   endloop
 endfacet
 facet normal  6.1251452686e-02 3.9000853441e-01 -9.1877179029e-01
   outer loop
     vertex 6.7735026919e+00 1.0000000000e+01 0.0000000000e+00
     vertex 6.4267167972e+00 1.0000000000e+01 -2.3119059644e-02
     vertex 6.4325226217e+00 1.0015173184e+01 -1.6291154770e-02
   endloop
 endfacet
 facet normal  6.0013620030e-02 3.9043703544e-01 -9.1867147924e-01
   outer loop
     vertex 6.4267167972e+00 1.0000000000e+01 -2.3119059644e-02
     vertex 6.1128828471e+00 1.0028318847e+01 -3.1585181426e-02
     vertex 6.4325226217e+00 1.0015173184e+01 -1.6291154770e-02
   endloop
 endfacet
 facet normal  6.0910989535e-02 4.0187859605e-01 -9.1366484303e-01
   outer loop
     vertex 6.4267167972e+00 1.0000000000e+01 -2.3119059644e-02
     vertex 6.0992680777e+00 1.0000000000e+01 -4.4948974278e-02
     vertex 6.1128828471e+00 1.0028318847e+01 -3.1585181426e-02
   endloop
 endfacet
 facet normal  -7.2284152856e-02 4.5386596488e-01 -8.8813325980e-01
   outer loop
     vertex 6.0992680777e+00 1.0000000000e+01 -4.4948974278e-02
     vertex 5.9289290796e+00 1.0000000000e+01 -3.1085277539e-02
     vertex 6.1128828471e+00 1.0028318847e+01 -3.1585181426e-02
   endloop
 endfacet
 facet normal  -7.3390094889e-02 4.6111763895e-01 -8.8429882790e-01
   outer loop
     vertex 6.1128828471e+00 1.0028318847e+01 -3.1585181426e-02
     vertex 5.9289290796e+00 1.0000000000e+01 -3.1085277539e-02
     vertex 5.9391433487e+00 1.0019269033e+01 -2.1885146634e-02
   endloop
 endfacet
 facet normal  -1.7022403564e-01 4.9660670547e-01 -8.5112017822e-01
   outer loop
     vertex 5.9289290796e+00 1.0000000000e+01 -3.1085277539e-02
     vertex 5.7735026919e+00 1.0000000000e+01 0.0000000000e+00
     vertex 5.9391433487e+00 1.0019269033e+01 -2.1885146634e-02
   endloop
 endfacet
 facet normal  -1.7022403564e-01 4.9660670547e-01 8.5112017822e-01
   outer loop
     vertex 5.7735026919e+00 1.0000000000e+01 0.0000000000e+00
     vertex 5.9289290796e+00 1.0000000000e+01 3.1085277539e-02
     vertex 5.9391433487e+00 1.0019269033e+01 2.1885146634e-02
   endloop
 endfacet
 facet normal  -7.3390094889e-02 4.6111763895e-01 8.8429882790e-01
   outer loop
     vertex 5.9289290796e+00 1.0000000000e+01 3.1085277539e-02
     vertex 6.1128828471e+00 1.0028318847e+01 3.1585181426e-02
     vertex 5.9391433487e+00 1.0019269033e+01 2.1885146634e-02
   endloop
 endfacet
 facet normal  -7.2284152856e-02 4.5386596488e-01 8.8813325980e-01
   outer loop
     vertex 5.9289290796e+00 1.0000000000e+01 3.1085277539e-02
     vertex 6.0992680777e+00 1.0000000000e+01 4.4948974278e-02
     vertex 6.1128828471e+00 1.0028318847e+01 3.1585181426e-02
   endloop
 endfacet
 facet normal  6.0910989535e-02 4.0187859605e-01 9.1366484303e-01
   outer loop
     vertex 6.0992680777e+00 1.0000000000e+01 4.4948974278e-02
     vertex 6.4267167972e+00 1.0000000000e+01 2.3119059644e-02
     vertex 6.1128828471e+00 1.0028318847e+01 3.1585181426e-02
   endloop
 endfacet
 facet normal  6.0013620030e-02 3.9043703544e-01 9.1867147924e-01
   outer loop
     vertex 6.1128828471e+00 1.0028318847e+01 3.1585181426e-02
     vertex 6.4267167972e+00 1.0000000000e+01 2.3119059644e-02
     vertex 6.4325226217e+00 1.0015173184e+01 1.6291154770e-02
   endloop
 endfacet
 facet normal  6.1251452686e-02 3.9000853441e-01 9.1877179029e-01
   outer loop
     vertex 6.4267167972e+00 1.0000000000e+01 2.3119059644e-02
     vertex 6.7735026919e+00 1.0000000000e+01 0.0000000000e+00
     vertex 6.4325226217e+00 1.0015173184e+01 1.6291154770e-02
   endloop
 endfacet
 facet normal  5.8828828720e-02 9.2857193487e-01 -3.6646054452e-01
   outer loop
     vertex 6.7735026919e+00 1.0000000000e+01 0.0000000000e+00
     vertex 6.4325226217e+00 1.0015173184e+01 -1.6291154770e-02
     vertex 6.4349244725e+00 1.0021450315e+01 -4.3121005046e-18
   endloop
 endfacet
 facet normal  5.4506972012e-02 9.2901895061e-01 -3.6599560027e-01
   outer loop
     vertex 6.4325226217e+00 1.0015173184e+01 -1.6291154770e-02
     vertex 6.1185059620e+00 1.0040015076e+01 -1.2416735175e-18
     vertex 6.4349244725e+00 1.0021450315e+01 -4.3121005046e-18
   endloop
 endfacet
 facet normal  5.5378579600e-02 9.3307814180e-01 -3.5538485368e-01
   outer loop
     vertex 6.4325226217e+00 1.0015173184e+01 -1.6291154770e-02
     vertex 6.1128828471e+00 1.0028318847e+01 -3.1585181426e-02
     vertex 6.1185059620e+00 1.0040015076e+01 -1.2416735175e-18
   endloop
 endfacet
 facet normal  -6.7686725746e-02 9.3948149659e-01 -3.3584672801e-01
   outer loop
     vertex 6.1128828471e+00 1.0028318847e+01 -3.1585181426e-02
     vertex 5.9391433487e+00 1.0019269033e+01 -2.1885146634e-02
     vertex 6.1185059620e+00 1.0040015076e+01 -1.2416735175e-18
   endloop
 endfacet
 facet normal  -6.8704314693e-02 9.4163544788e-01 -3.2954878309e-01
   outer loop
     vertex 6.1185059620e+00 1.0040015076e+01 -1.2416735175e-18
     vertex 5.9391433487e+00 1.0019269033e+01 -2.1885146634e-02
     vertex 5.9433667809e+00 1.0027236439e+01 -2.0377282409e-18
   endloop
 endfacet
 facet normal  -1.5039412993e-01 9.3795528941e-01 -3.1244436424e-01
   outer loop
     vertex 5.9391433487e+00 1.0019269033e+01 -2.1885146634e-02
     vertex 5.7735026919e+00 1.0000000000e+01 0.0000000000e+00
     vertex 5.9433667809e+00 1.0027236439e+01 -2.0377282409e-18
   endloop
 endfacet
 facet normal  -1.5039412993e-01 9.3795528941e-01 3.1244436424e-01
   outer loop
     vertex 5.7735026919e+00 1.0000000000e+01 0.0000000000e+00
     vertex 5.9391433487e+00 1.0019269033e+01 2.1885146634e-02
     vertex 5.9433667809e+00 1.0027236439e+01 -2.0377282409e-18
   endloop
 endfacet
 facet normal  -6.8704314693e-02 9.4163544788e-01 3.2954878309e-01
   outer loop
     vertex 5.9391433487e+00 1.0019269033e+01 2.1885146634e-02
     vertex 6.1185059620e+00 1.0040015076e+01 -1.2416735175e-18
     vertex 5.9433667809e+00 1.0027236439e+01 -2.0377282409e-18
   endloop
 endfacet
 facet normal  -6.7686725746e-02 9.3948149659e-01 3.3584672801e-01
   outer loop
     vertex 5.9391433487e+00 1.0019269033e+01 2.1885146634e-02
     vertex 6.1128828471e+00 1.0028318847e+01 3.1585181426e-02
     vertex 6.1185059620e+00 1.0040015076e+01 -1.2416735175e-18
   endloop
 endfacet
 facet normal  5.5378579600e-02 9.3307814180e-01 3.5538485368e-01
   outer loop
     vertex 6.1128828471e+00 1.0028318847e+01 3.1585181426e-02
     vertex 6.4325226217e+00 1.0015173184e+01 1.6291154770e-02
     vertex 6.1185059620e+00 1.0040015076e+01 -1.2416735175e-18
   endloop
 endfacet
 facet normal  5.4506972012e-02 9.2901895060e-01 3.6599560027e-01
   outer loop
     vertex 6.1185059620e+00 1.0040015076e+01 -1.2416735175e-18
     vertex 6.4325226217e+00 1.0015173184e+01 1.6291154770e-02
     vertex 6.4349244725e+00 1.0021450315e+01 -4.3121005046e-18
   endloop
 endfacet
 facet normal  5.8828828720e-02 9.2857193487e-01 3.6646054452e-01
   outer loop
     vertex 6.4325226217e+00 1.0015173184e+01 1.6291154770e-02
     vertex 6.7735026919e+00 1.0000000000e+01 0.0000000000e+00
     vertex 6.4349244725e+00 1.0021450315e+01 -4.3121005046e-18
   endloop
 endfacet
 facet normal  6.6507692941e-02 1.8445926540e-02 -9.9761539411e-01
   outer loop
     vertex 4.0000000000e+00 0.0000000000e+00 0.0000000000e+00
     vertex 4.3962146703e+00 -1.4285714286e+00 0.0000000000e+00
     vertex 3.1576936179e+00 -1.4285714286e+00 -8.2568070157e-02
   endloop
 endfacet
 facet normal  6.6507692941e-02 1.8445926540e-02 -9.9761539411e-01
   outer loop
     vertex 4.0000000000e+00 0.0000000000e+00 0.0000000000e+00
     vertex 3.1576936179e+00 -1.4285714286e+00 -8.2568070157e-02
     vertex 2.6128564214e+00 0.0000000000e+00 -9.2476238576e-02
   endloop
 endfacet
 facet normal  6.6507692941e-02 1.8445926540e-02 -9.9761539411e-01
   outer loop
     vertex 2.6128564214e+00 0.0000000000e+00 -9.2476238576e-02
     vertex 3.1576936179e+00 -1.4285714286e+00 -8.2568070157e-02
     vertex 1.9882339054e+00 -1.4285714286e+00 -1.6053205099e-01
   endloop
 endfacet
 facet normal  6.6507692941e-02 1.8445926540e-02 -9.9761539411e-01
   outer loop
     vertex 2.6128564214e+00 0.0000000000e+00 -9.2476238576e-02
     vertex 1.9882339054e+00 -1.4285714286e+00 -1.6053205099e-01
     vertex 1.3030615433e+00 0.0000000000e+00 -1.7979589711e-01
   endloop
 endfacet
 facet normal  -8.1009707838e-02 -5.2275802623e-02 -9.9534148296e-01
   outer loop
     vertex 1.3030615433e+00 0.0000000000e+00 -1.7979589711e-01
     vertex 1.9882339054e+00 -1.4285714286e+00 -1.6053205099e-01
     vertex 6.2170555078e-01 0.0000000000e+00 -1.2434111016e-01
   endloop
 endfacet
 facet normal  -8.1009707838e-02 -5.2275802623e-02 -9.9534148296e-01
   outer loop
     vertex 1.9882339054e+00 -1.4285714286e+00 -1.6053205099e-01
     vertex 1.3798803406e+00 -1.4285714286e+00 -1.1101884835e-01
     vertex 6.2170555078e-01 0.0000000000e+00 -1.2434111016e-01
   endloop
 endfacet
 facet normal  -1.9487094074e-01 -1.1250879009e-01 -9.7435470369e-01
   outer loop
     vertex 6.2170555078e-01 0.0000000000e+00 -1.2434111016e-01
     vertex 1.3798803406e+00 -1.4285714286e+00 -1.1101884835e-01
     vertex 0.0000000000e+00 0.0000000000e+00 0.0000000000e+00
   endloop
 endfacet
 facet normal  -1.9487094074e-01 -1.1250879009e-01 -9.7435470369e-01
   outer loop
     vertex 1.3798803406e+00 -1.4285714286e+00 -1.1101884835e-01
     vertex 8.2478609884e-01 -1.4285714286e+00 0.0000000000e+00
     vertex 0.0000000000e+00 0.0000000000e+00 0.0000000000e+00
   endloop
 endfacet
 facet normal  -1.9487094074e-01 -1.1250879009e-01 9.7435470369e-01
   outer loop
     vertex 0.0000000000e+00 0.0000000000e+00 0.0000000000e+00
     vertex 8.2478609884e-01 -1.4285714286e+00 0.0000000000e+00
     vertex 1.3798803406e+00 -1.4285714286e+00 1.1101884835e-01
   endloop
 endfacet
 facet normal  -1.9487094074e-01 -1.1250879009e-01 9.7435470369e-01
   outer loop
     vertex 0.0000000000e+00 0.0000000000e+00 0.0000000000e+00
     vertex 1.3798803406e+00 -1.4285714286e+00 1.1101884835e-01
     vertex 6.2170555078e-01 0.0000000000e+00 1.2434111016e-01
   endloop
 endfacet
 facet normal  -8.1009707838e-02 -5.2275802623e-02 9.9534148296e-01
   outer loop
     vertex 6.2170555078e-01 0.0000000000e+00 1.2434111016e-01
     vertex 1.3798803406e+00 -1.4285714286e+00 1.1101884835e-01
     vertex 1.9882339054e+00 -1.4285714286e+00 1.6053205099e-01
   endloop
 endfacet
 facet normal  -8.1009707838e-02 -5.2275802623e-02 9.9534148296e-01
   outer loop
     vertex 6.2170555078e-01 0.0000000000e+00 1.2434111016e-01
     vertex 1.9882339054e+00 -1.4285714286e+00 1.6053205099e-01
     vertex 1.3030615433e+00 0.0000000000e+00 1.7979589711e-01
   endloop
 endfacet
 facet normal  6.6507692941e-02 1.8445926540e-02 9.9761539411e-01
   outer loop
     vertex 1.3030615433e+00 0.0000000000e+00 1.7979589711e-01
     vertex 1.9882339054e+00 -1.4285714286e+00 1.6053205099e-01
     vertex 2.6128564214e+00 0.0000000000e+00 9.2476238576e-02
   endloop
 endfacet
 facet normal  6.6507692941e-02 1.8445926540e-02 9.9761539411e-01
   outer loop
     vertex 1.9882339054e+00 -1.4285714286e+00 1.6053205099e-01
     vertex 3.1576936179e+00 -1.4285714286e+00 8.2568070157e-02
     vertex 2.6128564214e+00 0.0000000000e+00 9.2476238576e-02
   endloop
 endfacet
 facet normal  6.6507692941e-02 1.8445926540e-02 9.9761539411e-01
   outer loop
     vertex 2.6128564214e+00 0.0000000000e+00 9.2476238576e-02
     vertex 3.1576936179e+00 -1.4285714286e+00 8.2568070157e-02
     vertex 4.0000000000e+00 0.0000000000e+00 0.0000000000e+00
   endloop
 endfacet
 facet normal  6.6507692941e-02 1.8445926540e-02 9.9761539411e-01
   outer loop
     vertex 3.1576936179e+00 -1.4285714286e+00 8.2568070157e-02
     vertex 4.3962146703e+00 -1.4285714286e+00 0.0000000000e+00
     vertex 4.0000000000e+00 0.0000000000e+00 0.0000000000e+00
   endloop
 endfacet
 facet normal  6.6507692941e-02 1.8445926540e-02 -9.9761539411e-01
   outer loop
     vertex 4.3962146703e+00 -1.4285714286e+00 0.0000000000e+00
     vertex 4.7924293405e+00 -2.8571428571e+00 0.0000000000e+00
     vertex 3.7025308145e+00 -2.8571428571e+00 -7.2659901739e-02
   endloop
 endfacet
 facet normal  6.6507692941e-02 1.8445926540e-02 -9.9761539411e-01
   outer loop
     vertex 4.3962146703e+00 -1.4285714286e+00 0.0000000000e+00
     vertex 3.7025308145e+00 -2.8571428571e+00 -7.2659901739e-02
     vertex 3.1576936179e+00 -1.4285714286e+00 -8.2568070157e-02
   endloop
 endfacet
 facet normal  6.6507692941e-02 1.8445926540e-02 -9.9761539411e-01
   outer loop
     vertex 3.1576936179e+00 -1.4285714286e+00 -8.2568070157e-02
     vertex 3.7025308145e+00 -2.8571428571e+00 -7.2659901739e-02
     vertex 2.6734062674e+00 -2.8571428571e+00 -1.4126820487e-01
   endloop
 endfacet
 facet normal  6.6507692941e-02 1.8445926540e-02 -9.9761539411e-01
   outer loop
     vertex 3.1576936179e+00 -1.4285714286e+00 -8.2568070157e-02
     vertex 2.6734062674e+00 -2.8571428571e+00 -1.4126820487e-01
     vertex 1.9882339054e+00 -1.4285714286e+00 -1.6053205099e-01
   endloop
 endfacet
 facet normal  -8.1009707838e-02 -5.2275802623e-02 -9.9534148296e-01
   outer loop
     vertex 1.9882339054e+00 -1.4285714286e+00 -1.6053205099e-01
     vertex 2.6734062674e+00 -2.8571428571e+00 -1.4126820487e-01
     vertex 1.3798803406e+00 -1.4285714286e+00 -1.1101884835e-01
   endloop
 endfacet
 facet normal  -8.1009707838e-02 -5.2275802623e-02 -9.9534148296e-01
   outer loop
     vertex 2.6734062674e+00 -2.8571428571e+00 -1.4126820487e-01
     vertex 2.1380551304e+00 -2.8571428571e+00 -9.7696586550e-02
     vertex 1.3798803406e+00 -1.4285714286e+00 -1.1101884835e-01
   endloop
 endfacet
 facet normal  -1.9487094074e-01 -1.1250879009e-01 -9.7435470369e-01
   outer loop
     vertex 1.3798803406e+00 -1.4285714286e+00 -1.1101884835e-01
     vertex 2.1380551304e+00 -2.8571428571e+00 -9.7696586550e-02
     vertex 8.2478609884e-01 -1.4285714286e+00 0.0000000000e+00
   endloop
 endfacet
 facet normal  -1.9487094074e-01 -1.1250879009e-01 -9.7435470369e-01
   outer loop
     vertex 2.1380551304e+00 -2.8571428571e+00 -9.7696586550e-02
     vertex 1.6495721977e+00 -2.8571428571e+00 0.0000000000e+00
     vertex 8.2478609884e-01 -1.4285714286e+00 0.0000000000e+00
   endloop
 endfacet
 facet normal  -1.9487094074e-01 -1.1250879009e-01 9.7435470369e-01
   outer loop
     vertex 8.2478609884e-01 -1.4285714286e+00 0.0000000000e+00
     vertex 1.6495721977e+00 -2.8571428571e+00 0.0000000000e+00
     vertex 2.1380551304e+00 -2.8571428571e+00 9.7696586550e-02
   endloop
 endfacet
 facet normal  -1.9487094074e-01 -1.1250879009e-01 9.7435470369e-01
   outer loop
     vertex 8.2478609884e-01 -1.4285714286e+00 0.0000000000e+00
     vertex 2.1380551304e+00 -2.8571428571e+00 9.7696586550e-02
     vertex 1.3798803406e+00 -1.4285714286e+00 1.1101884835e-01
   endloop
 endfacet
 facet normal  -8.1009707838e-02 -5.2275802623e-02 9.9534148296e-01
   outer loop
     vertex 1.3798803406e+00 -1.4285714286e+00 1.1101884835e-01
     vertex 2.1380551304e+00 -2.8571428571e+00 9.7696586550e-02
     vertex 2.6734062674e+00 -2.8571428571e+00 1.4126820487e-01
   endloop
 endfacet
 facet normal  -8.1009707838e-02 -5.2275802623e-02 9.9534148296e-01
   outer loop
     vertex 1.3798803406e+00 -1.4285714286e+00 1.1101884835e-01
     vertex 2.6734062674e+00 -2.8571428571e+00 1.4126820487e-01
     vertex 1.9882339054e+00 -1.4285714286e+00 1.6053205099e-01
   endloop
 endfacet
 facet normal  6.6507692941e-02 1.8445926540e-02 9.9761539411e-01
   outer loop
     vertex 1.9882339054e+00 -1.4285714286e+00 1.6053205099e-01
     vertex 2.6734062674e+00 -2.8571428571e+00 1.4126820487e-01
     vertex 3.1576936179e+00 -1.4285714286e+00 8.2568070157e-02
   endloop
 endfacet
 facet normal  6.6507692941e-02 1.8445926540e-02 9.9761539411e-01
   outer loop
     vertex 2.6734062674e+00 -2.8571428571e+00 1.4126820487e-01
     vertex 3.7025308145e+00 -2.8571428571e+00 7.2659901739e-02
     vertex 3.1576936179e+00 -1.4285714286e+00 8.2568070157e-02
   endloop
 endfacet
 facet normal  6.6507692941e-02 1.8445926540e-02 9.9761539411e-01
   outer loop
     vertex 3.1576936179e+00 -1.4285714286e+00 8.2568070157e-02
     vertex 3.7025308145e+00 -2.8571428571e+00 7.2659901739e-02
     vertex 4.3962146703e+00 -1.4285714286e+00 0.0000000000e+00
   endloop
 endfacet
 facet normal  6.6507692941e-02 1.8445926540e-02 9.9761539411e-01
   outer loop
     vertex 3.7025308145e+00 -2.8571428571e+00 7.2659901739e-02
     vertex 4.7924293405e+00 -2.8571428571e+00 0.0000000000e+00
     vertex 4.3962146703e+00 -1.4285714286e+00 0.0000000000e+00
   endloop
 endfacet
 facet normal  6.6507692941e-02 1.8445926540e-02 -9.9761539411e-01
   outer loop
     vertex 4.7924293405e+00 -2.8571428571e+00 0.0000000000e+00
     vertex 5.1886440108e+00 -4.2857142857e+00 0.0000000000e+00
     vertex 4.2473680110e+00 -4.2857142857e+00 -6.2751733320e-02
   endloop
 endfacet
 facet normal  6.6507692941e-02 1.8445926540e-02 -9.9761539411e-01
   outer loop
     vertex 4.7924293405e+00 -2.8571428571e+00 0.0000000000e+00
     vertex 4.2473680110e+00 -4.2857142857e+00 -6.2751733320e-02
     vertex 3.7025308145e+00 -2.8571428571e+00 -7.2659901739e-02
   endloop
 endfacet
 facet normal  6.6507692941e-02 1.8445926540e-02 -9.9761539411e-01
   outer loop
     vertex 3.7025308145e+00 -2.8571428571e+00 -7.2659901739e-02
     vertex 4.2473680110e+00 -4.2857142857e+00 -6.2751733320e-02
     vertex 3.3585786295e+00 -4.2857142857e+00 -1.2200435876e-01
   endloop
 endfacet
 facet normal  6.6507692941e-02 1.8445926540e-02 -9.9761539411e-01
   outer loop
     vertex 3.7025308145e+00 -2.8571428571e+00 -7.2659901739e-02
     vertex 3.3585786295e+00 -4.2857142857e+00 -1.2200435876e-01
     vertex 2.6734062674e+00 -2.8571428571e+00 -1.4126820487e-01
   endloop
 endfacet
 facet normal  -8.1009707838e-02 -5.2275802623e-02 -9.9534148296e-01
   outer loop
     vertex 2.6734062674e+00 -2.8571428571e+00 -1.4126820487e-01
     vertex 3.3585786295e+00 -4.2857142857e+00 -1.2200435876e-01
     vertex 2.1380551304e+00 -2.8571428571e+00 -9.7696586550e-02
   endloop
 endfacet
 facet normal  -8.1009707838e-02 -5.2275802623e-02 -9.9534148296e-01
   outer loop
     vertex 3.3585786295e+00 -4.2857142857e+00 -1.2200435876e-01
     vertex 2.8962299203e+00 -4.2857142857e+00 -8.4374324748e-02
     vertex 2.1380551304e+00 -2.8571428571e+00 -9.7696586550e-02
   endloop
 endfacet
 facet normal  -1.9487094074e-01 -1.1250879009e-01 -9.7435470369e-01
   outer loop
     vertex 2.1380551304e+00 -2.8571428571e+00 -9.7696586550e-02
     vertex 2.8962299203e+00 -4.2857142857e+00 -8.4374324748e-02
     vertex 1.6495721977e+00 -2.8571428571e+00 0.0000000000e+00
   endloop
 endfacet
 facet normal  -1.9487094074e-01 -1.1250879009e-01 -9.7435470369e-01
   outer loop
     vertex 2.8962299203e+00 -4.2857142857e+00 -8.4374324748e-02
     vertex 2.4743582965e+00 -4.2857142857e+00 0.0000000000e+00
     vertex 1.6495721977e+00 -2.8571428571e+00 0.0000000000e+00
   endloop
 endfacet
 facet normal  -1.9487094074e-01 -1.1250879009e-01 9.7435470369e-01
   outer loop
     vertex 1.6495721977e+00 -2.8571428571e+00 0.0000000000e+00
     vertex 2.4743582965e+00 -4.2857142857e+00 0.0000000000e+00
     vertex 2.8962299203e+00 -4.2857142857e+00 8.4374324748e-02
   endloop
 endfacet
 facet normal  -1.9487094074e-01 -1.1250879009e-01 9.7435470369e-01
   outer loop
     vertex 1.6495721977e+00 -2.8571428571e+00 0.0000000000e+00
     vertex 2.8962299203e+00 -4.2857142857e+00 8.4374324748e-02
     vertex 2.1380551304e+00 -2.8571428571e+00 9.7696586550e-02
   endloop
 endfacet
 facet normal  -8.1009707838e-02 -5.2275802623e-02 9.9534148296e-01
   outer loop
     vertex 2.1380551304e+00 -2.8571428571e+00 9.7696586550e-02
     vertex 2.8962299203e+00 -4.2857142857e+00 8.4374324748e-02
     vertex 3.3585786295e+00 -4.2857142857e+00 1.2200435876e-01
   endloop
 endfacet
 facet normal  -8.1009707838e-02 -5.2275802623e-02 9.9534148296e-01
   outer loop
     vertex 2.1380551304e+00 -2.8571428571e+00 9.7696586550e-02
     vertex 3.3585786295e+00 -4.2857142857e+00 1.2200435876e-01
     vertex 2.6734062674e+00 -2.8571428571e+00 1.4126820487e-01
   endloop
 endfacet
 facet normal  6.6507692941e-02 1.8445926540e-02 9.9761539411e-01
   outer loop
     vertex 2.6734062674e+00 -2.8571428571e+00 1.4126820487e-01
     vertex 3.3585786295e+00 -4.2857142857e+00 1.2200435876e-01
     vertex 3.7025308145e+00 -2.8571428571e+00 7.2659901739e-02
   endloop
 endfacet
 facet normal  6.6507692941e-02 1.8445926540e-02 9.9761539411e-01
   outer loop
     vertex 3.3585786295e+00 -4.2857142857e+00 1.2200435876e-01
     vertex 4.2473680110e+00 -4.2857142857e+00 6.2751733320e-02
     vertex 3.7025308145e+00 -2.8571428571e+00 7.2659901739e-02
   endloop
 endfacet
 facet normal  6.6507692941e-02 1.8445926540e-02 9.9761539411e-01
   outer loop
     vertex 3.7025308145e+00 -2.8571428571e+00 7.2659901739e-02
     vertex 4.2473680110e+00 -4.2857142857e+00 6.2751733320e-02
     vertex 4.7924293405e+00 -2.8571428571e+00 0.0000000000e+00
   endloop
 endfacet
 facet normal  6.6507692941e-02 1.8445926540e-02 9.9761539411e-01
   outer loop
     vertex 4.2473680110e+00 -4.2857142857e+00 6.2751733320e-02
     vertex 5.1886440108e+00 -4.2857142857e+00 0.0000000000e+00
     vertex 4.7924293405e+00 -2.8571428571e+00 0.0000000000e+00
   endloop
 endfacet
 facet normal  6.6507692941e-02 1.8445926540e-02 -9.9761539411e-01
   outer loop
     vertex 5.1886440108e+00 -4.2857142857e+00 0.0000000000e+00
     vertex 5.5848586811e+00 -5.7142857143e+00 0.0000000000e+00
     vertex 4.7922052076e+00 -5.7142857143e+00 -5.2843564901e-02
   endloop
 endfacet
 facet normal  6.6507692941e-02 1.8445926540e-02 -9.9761539411e-01
   outer loop
     vertex 5.1886440108e+00 -4.2857142857e+00 0.0000000000e+00
     vertex 4.7922052076e+00 -5.7142857143e+00 -5.2843564901e-02
     vertex 4.2473680110e+00 -4.2857142857e+00 -6.2751733320e-02
   endloop
 endfacet
 facet normal  6.6507692941e-02 1.8445926540e-02 -9.9761539411e-01
   outer loop
     vertex 4.2473680110e+00 -4.2857142857e+00 -6.2751733320e-02
     vertex 4.7922052076e+00 -5.7142857143e+00 -5.2843564901e-02
     vertex 4.0437509915e+00 -5.7142857143e+00 -1.0274051264e-01
   endloop
 endfacet
 facet normal  6.6507692941e-02 1.8445926540e-02 -9.9761539411e-01
   outer loop
     vertex 4.2473680110e+00 -4.2857142857e+00 -6.2751733320e-02
     vertex 4.0437509915e+00 -5.7142857143e+00 -1.0274051264e-01
     vertex 3.3585786295e+00 -4.2857142857e+00 -1.2200435876e-01
   endloop
 endfacet
 facet normal  -8.1009707838e-02 -5.2275802623e-02 -9.9534148296e-01
   outer loop
     vertex 3.3585786295e+00 -4.2857142857e+00 -1.2200435876e-01
     vertex 4.0437509915e+00 -5.7142857143e+00 -1.0274051264e-01
     vertex 2.8962299203e+00 -4.2857142857e+00 -8.4374324748e-02
   endloop
 endfacet
 facet normal  -8.1009707838e-02 -5.2275802623e-02 -9.9534148296e-01
   outer loop
     vertex 4.0437509915e+00 -5.7142857143e+00 -1.0274051264e-01
     vertex 3.6544047101e+00 -5.7142857143e+00 -7.1052062946e-02
     vertex 2.8962299203e+00 -4.2857142857e+00 -8.4374324748e-02
   endloop
 endfacet
 facet normal  -1.9487094074e-01 -1.1250879009e-01 -9.7435470369e-01
   outer loop
     vertex 2.8962299203e+00 -4.2857142857e+00 -8.4374324748e-02
     vertex 3.6544047101e+00 -5.7142857143e+00 -7.1052062946e-02
     vertex 2.4743582965e+00 -4.2857142857e+00 0.0000000000e+00
   endloop
 endfacet
 facet normal  -1.9487094074e-01 -1.1250879009e-01 -9.7435470369e-01
   outer loop
     vertex 3.6544047101e+00 -5.7142857143e+00 -7.1052062946e-02
     vertex 3.2991443954e+00 -5.7142857143e+00 0.0000000000e+00
     vertex 2.4743582965e+00 -4.2857142857e+00 0.0000000000e+00
   endloop
 endfacet
 facet normal  -1.9487094074e-01 -1.1250879009e-01 9.7435470369e-01
   outer loop
     vertex 2.4743582965e+00 -4.2857142857e+00 0.0000000000e+00
     vertex 3.2991443954e+00 -5.7142857143e+00 0.0000000000e+00
     vertex 3.6544047101e+00 -5.7142857143e+00 7.1052062946e-02
   endloop
 endfacet
 facet normal  -1.9487094074e-01 -1.1250879009e-01 9.7435470369e-01
   outer loop
     vertex 2.4743582965e+00 -4.2857142857e+00 0.0000000000e+00
     vertex 3.6544047101e+00 -5.7142857143e+00 7.1052062946e-02
     vertex 2.8962299203e+00 -4.2857142857e+00 8.4374324748e-02
   endloop
 endfacet
 facet normal  -8.1009707838e-02 -5.2275802623e-02 9.9534148296e-01
   outer loop
     vertex 2.8962299203e+00 -4.2857142857e+00 8.4374324748e-02
     vertex 3.6544047101e+00 -5.7142857143e+00 7.1052062946e-02
     vertex 4.0437509915e+00 -5.7142857143e+00 1.0274051264e-01
   endloop
 endfacet
 facet normal  -8.1009707838e-02 -5.2275802623e-02 9.9534148296e-01
   outer loop
     vertex 2.8962299203e+00 -4.2857142857e+00 8.4374324748e-02
     vertex 4.0437509915e+00 -5.7142857143e+00 1.0274051264e-01
     vertex 3.3585786295e+00 -4.2857142857e+00 1.2200435876e-01
   endloop
 endfacet
 facet normal  6.6507692941e-02 1.8445926540e-02 9.9761539411e-01
   outer loop
     vertex 3.3585786295e+00 -4.2857142857e+00 1.2200435876e-01
     vertex 4.0437509915e+00 -5.7142857143e+00 1.0274051264e-01
     vertex 4.2473680110e+00 -4.2857142857e+00 6.2751733320e-02
   endloop
 endfacet
 facet normal  6.6507692941e-02 1.8445926540e-02 9.9761539411e-01
   outer loop
     vertex 4.0437509915e+00 -5.7142857143e+00 1.0274051264e-01
     vertex 4.7922052076e+00 -5.7142857143e+00 5.2843564901e-02
     vertex 4.2473680110e+00 -4.2857142857e+00 6.2751733320e-02
   endloop
 endfacet
 facet normal  6.6507692941e-02 1.8445926540e-02 9.9761539411e-01
   outer loop
     vertex 4.2473680110e+00 -4.2857142857e+00 6.2751733320e-02
     vertex 4.7922052076e+00 -5.7142857143e+00 5.2843564901e-02
     vertex 5.1886440108e+00 -4.2857142857e+00 0.0000000000e+00
   endloop
 endfacet
 facet normal  6.6507692941e-02 1.8445926540e-02 9.9761539411e-01
   outer loop
     vertex 4.7922052076e+00 -5.7142857143e+00 5.2843564901e-02
     vertex 5.5848586811e+00 -5.7142857143e+00 0.0000000000e+00
     vertex 5.1886440108e+00 -4.2857142857e+00 0.0000000000e+00
   endloop
 endfacet
 facet normal  6.6507692941e-02 1.8445926540e-02 -9.9761539411e-01
   outer loop
     vertex 5.5848586811e+00 -5.7142857143e+00 0.0000000000e+00
     vertex 5.9810733514e+00 -7.1428571429e+00 0.0000000000e+00
     vertex 5.3370424041e+00 -7.1428571429e+00 -4.2935396482e-02
   endloop
 endfacet
 facet normal  6.6507692941e-02 1.8445926540e-02 -9.9761539411e-01
   outer loop
     vertex 5.5848586811e+00 -5.7142857143e+00 0.0000000000e+00
     vertex 5.3370424041e+00 -7.1428571429e+00 -4.2935396482e-02
     vertex 4.7922052076e+00 -5.7142857143e+00 -5.2843564901e-02
   endloop
 endfacet
 facet normal  6.6507692941e-02 1.8445926540e-02 -9.9761539411e-01
   outer loop
     vertex 4.7922052076e+00 -5.7142857143e+00 -5.2843564901e-02
     vertex 5.3370424041e+00 -7.1428571429e+00 -4.2935396482e-02
     vertex 4.7289233536e+00 -7.1428571429e+00 -8.3476666517e-02
   endloop
 endfacet
 facet normal  6.6507692941e-02 1.8445926540e-02 -9.9761539411e-01
   outer loop
     vertex 4.7922052076e+00 -5.7142857143e+00 -5.2843564901e-02
     vertex 4.7289233536e+00 -7.1428571429e+00 -8.3476666517e-02
     vertex 4.0437509915e+00 -5.7142857143e+00 -1.0274051264e-01
   endloop
 endfacet
 facet normal  -8.1009707838e-02 -5.2275802623e-02 -9.9534148296e-01
   outer loop
     vertex 4.0437509915e+00 -5.7142857143e+00 -1.0274051264e-01
     vertex 4.7289233536e+00 -7.1428571429e+00 -8.3476666517e-02
     vertex 3.6544047101e+00 -5.7142857143e+00 -7.1052062946e-02
   endloop
 endfacet
 facet normal  -8.1009707838e-02 -5.2275802623e-02 -9.9534148296e-01
   outer loop
     vertex 4.7289233536e+00 -7.1428571429e+00 -8.3476666517e-02
     vertex 4.4125794999e+00 -7.1428571429e+00 -5.7729801143e-02
     vertex 3.6544047101e+00 -5.7142857143e+00 -7.1052062946e-02
   endloop
 endfacet
 facet normal  -1.9487094074e-01 -1.1250879009e-01 -9.7435470369e-01
   outer loop
     vertex 3.6544047101e+00 -5.7142857143e+00 -7.1052062946e-02
     vertex 4.4125794999e+00 -7.1428571429e+00 -5.7729801143e-02
     vertex 3.2991443954e+00 -5.7142857143e+00 0.0000000000e+00
   endloop
 endfacet
 facet normal  -1.9487094074e-01 -1.1250879009e-01 -9.7435470369e-01
   outer loop
     vertex 4.4125794999e+00 -7.1428571429e+00 -5.7729801143e-02
     vertex 4.1239304942e+00 -7.1428571429e+00 0.0000000000e+00
     vertex 3.2991443954e+00 -5.7142857143e+00 0.0000000000e+00
   endloop
 endfacet
 facet normal  -1.9487094074e-01 -1.1250879009e-01 9.7435470369e-01
   outer loop
     vertex 3.2991443954e+00 -5.7142857143e+00 0.0000000000e+00
     vertex 4.1239304942e+00 -7.1428571429e+00 0.0000000000e+00
     vertex 4.4125794999e+00 -7.1428571429e+00 5.7729801143e-02
   endloop
 endfacet
 facet normal  -1.9487094074e-01 -1.1250879009e-01 9.7435470369e-01
   outer loop
     vertex 3.2991443954e+00 -5.7142857143e+00 0.0000000000e+00
     vertex 4.4125794999e+00 -7.1428571429e+00 5.7729801143e-02
     vertex 3.6544047101e+00 -5.7142857143e+00 7.1052062946e-02
   endloop
 endfacet
 facet normal  -8.1009707838e-02 -5.2275802623e-02 9.9534148296e-01
   outer loop
     vertex 3.6544047101e+00 -5.7142857143e+00 7.1052062946e-02
     vertex 4.4125794999e+00 -7.1428571429e+00 5.7729801143e-02
     vertex 4.7289233536e+00 -7.1428571429e+00 8.3476666517e-02
   endloop
 endfacet
 facet normal  -8.1009707838e-02 -5.2275802623e-02 9.9534148296e-01
   outer loop
     vertex 3.6544047101e+00 -5.7142857143e+00 7.1052062946e-02
     vertex 4.7289233536e+00 -7.1428571429e+00 8.3476666517e-02
     vertex 4.0437509915e+00 -5.7142857143e+00 1.0274051264e-01
   endloop
 endfacet
 facet normal  6.6507692941e-02 1.8445926540e-02 9.9761539411e-01
   outer loop
     vertex 4.0437509915e+00 -5.7142857143e+00 1.0274051264e-01
     vertex 4.7289233536e+00 -7.1428571429e+00 8.3476666517e-02
     vertex 4.7922052076e+00 -5.7142857143e+00 5.2843564901e-02
   endloop
 endfacet
 facet normal  6.6507692941e-02 1.8445926540e-02 9.9761539411e-01
   outer loop
     vertex 4.7289233536e+00 -7.1428571429e+00 8.3476666517e-02
     vertex 5.3370424041e+00 -7.1428571429e+00 4.2935396482e-02
     vertex 4.7922052076e+00 -5.7142857143e+00 5.2843564901e-02
   endloop
 endfacet
 facet normal  6.6507692941e-02 1.8445926540e-02 9.9761539411e-01
   outer loop
     vertex 4.7922052076e+00 -5.7142857143e+00 5.2843564901e-02
     vertex 5.3370424041e+00 -7.1428571429e+00 4.2935396482e-02
     vertex 5.5848586811e+00 -5.7142857143e+00 0.0000000000e+00
   endloop
 endfacet
 facet normal  6.6507692941e-02 1.8445926540e-02 9.9761539411e-01
   outer loop
     vertex 5.3370424041e+00 -7.1428571429e+00 4.2935396482e-02
     vertex 5.9810733514e+00 -7.1428571429e+00 0.0000000000e+00
     vertex 5.5848586811e+00 -5.7142857143e+00 0.0000000000e+00
   endloop
 endfacet
 facet normal  6.6507692941e-02 1.8445926540e-02 -9.9761539411e-01
   outer loop
     vertex 5.9810733514e+00 -7.1428571429e+00 0.0000000000e+00
     vertex 6.3772880216e+00 -8.5714285714e+00 0.0000000000e+00
     vertex 5.8818796007e+00 -8.5714285714e+00 -3.3027228063e-02
   endloop
 endfacet
 facet normal  6.6507692941e-02 1.8445926540e-02 -9.9761539411e-01
   outer loop
     vertex 5.9810733514e+00 -7.1428571429e+00 0.0000000000e+00
     vertex 5.8818796007e+00 -8.5714285714e+00 -3.3027228063e-02
     vertex 5.3370424041e+00 -7.1428571429e+00 -4.2935396482e-02
   endloop
 endfacet
 facet normal  6.6507692941e-02 1.8445926540e-02 -9.9761539411e-01
   outer loop
     vertex 5.3370424041e+00 -7.1428571429e+00 -4.2935396482e-02
     vertex 5.8818796007e+00 -8.5714285714e+00 -3.3027228063e-02
     vertex 5.4140957157e+00 -8.5714285714e+00 -6.4212820398e-02
   endloop
 endfacet
 facet normal  6.6507692941e-02 1.8445926540e-02 -9.9761539411e-01
   outer loop
     vertex 5.3370424041e+00 -7.1428571429e+00 -4.2935396482e-02
     vertex 5.4140957157e+00 -8.5714285714e+00 -6.4212820398e-02
     vertex 4.7289233536e+00 -7.1428571429e+00 -8.3476666517e-02
   endloop
 endfacet
 facet normal  -8.1009707838e-02 -5.2275802623e-02 -9.9534148296e-01
   outer loop
     vertex 4.7289233536e+00 -7.1428571429e+00 -8.3476666517e-02
     vertex 5.4140957157e+00 -8.5714285714e+00 -6.4212820398e-02
     vertex 4.4125794999e+00 -7.1428571429e+00 -5.7729801143e-02
   endloop
 endfacet
 facet normal  -8.1009707838e-02 -5.2275802623e-02 -9.9534148296e-01
   outer loop
     vertex 5.4140957157e+00 -8.5714285714e+00 -6.4212820398e-02
     vertex 5.1707542898e+00 -8.5714285714e+00 -4.4407539341e-02
     vertex 4.4125794999e+00 -7.1428571429e+00 -5.7729801143e-02
   endloop
 endfacet
 facet normal  -1.9487094074e-01 -1.1250879009e-01 -9.7435470369e-01
   outer loop
     vertex 4.4125794999e+00 -7.1428571429e+00 -5.7729801143e-02
     vertex 5.1707542898e+00 -8.5714285714e+00 -4.4407539341e-02
     vertex 4.1239304942e+00 -7.1428571429e+00 0.0000000000e+00
   endloop
 endfacet
 facet normal  -1.9487094074e-01 -1.1250879009e-01 -9.7435470369e-01
   outer loop
     vertex 5.1707542898e+00 -8.5714285714e+00 -4.4407539341e-02
     vertex 4.9487165931e+00 -8.5714285714e+00 0.0000000000e+00
     vertex 4.1239304942e+00 -7.1428571429e+00 0.0000000000e+00
   endloop
 endfacet
 facet normal  -1.9487094074e-01 -1.1250879009e-01 9.7435470369e-01
   outer loop
     vertex 4.1239304942e+00 -7.1428571429e+00 0.0000000000e+00
     vertex 4.9487165931e+00 -8.5714285714e+00 0.0000000000e+00
     vertex 5.1707542898e+00 -8.5714285714e+00 4.4407539341e-02
   endloop
 endfacet
 facet normal  -1.9487094074e-01 -1.1250879009e-01 9.7435470369e-01
   outer loop
     vertex 4.1239304942e+00 -7.1428571429e+00 0.0000000000e+00
     vertex 5.1707542898e+00 -8.5714285714e+00 4.4407539341e-02
     vertex 4.4125794999e+00 -7.1428571429e+00 5.7729801143e-02
   endloop
 endfacet
 facet normal  -8.1009707838e-02 -5.2275802623e-02 9.9534148296e-01
   outer loop
     vertex 4.4125794999e+00 -7.1428571429e+00 5.7729801143e-02
     vertex 5.1707542898e+00 -8.5714285714e+00 4.4407539341e-02
     vertex 5.4140957157e+00 -8.5714285714e+00 6.4212820398e-02
   endloop
 endfacet
 facet normal  -8.1009707838e-02 -5.2275802623e-02 9.9534148296e-01
   outer loop
     vertex 4.4125794999e+00 -7.1428571429e+00 5.7729801143e-02
     vertex 5.4140957157e+00 -8.5714285714e+00 6.4212820398e-02
     vertex 4.7289233536e+00 -7.1428571429e+00 8.3476666517e-02
   endloop
 endfacet
 facet normal  6.6507692941e-02 1.8445926540e-02 9.9761539411e-01
   outer loop
     vertex 4.7289233536e+00 -7.1428571429e+00 8.3476666517e-02
     vertex 5.4140957157e+00 -8.5714285714e+00 6.4212820398e-02
     vertex 5.3370424041e+00 -7.1428571429e+00 4.2935396482e-02
   endloop
 endfacet
 facet normal  6.6507692941e-02 1.8445926540e-02 9.9761539411e-01
   outer loop
     vertex 5.4140957157e+00 -8.5714285714e+00 6.4212820398e-02
     vertex 5.8818796007e+00 -8.5714285714e+00 3.3027228063e-02
     vertex 5.3370424041e+00 -7.1428571429e+00 4.2935396482e-02
   endloop
 endfacet
 facet normal  6.6507692941e-02 1.8445926540e-02 9.9761539411e-01
   outer loop
     vertex 5.3370424041e+00 -7.1428571429e+00 4.2935396482e-02
     vertex 5.8818796007e+00 -8.5714285714e+00 3.3027228063e-02
     vertex 5.9810733514e+00 -7.1428571429e+00 0.0000000000e+00
   endloop
 endfacet
 facet normal  6.6507692941e-02 1.8445926540e-02 9.9761539411e-01
   outer loop
     vertex 5.8818796007e+00 -8.5714285714e+00 3.3027228063e-02
     vertex 6.3772880216e+00 -8.5714285714e+00 0.0000000000e+00
     vertex 5.9810733514e+00 -7.1428571429e+00 0.0000000000e+00
   endloop
 endfacet
 facet normal  6.6507692941e-02 1.8445926540e-02 -9.9761539411e-01
   outer loop
     vertex 6.3772880216e+00 -8.5714285714e+00 0.0000000000e+00
     vertex 6.7735026919e+00 -1.0000000000e+01 0.0000000000e+00
     vertex 6.4267167972e+00 -1.0000000000e+01 -2.3119059644e-02
   endloop
 endfacet
 facet normal  6.6507692941e-02 1.8445926540e-02 -9.9761539411e-01
   outer loop
     vertex 6.3772880216e+00 -8.5714285714e+00 0.0000000000e+00
     vertex 6.4267167972e+00 -1.0000000000e+01 -2.3119059644e-02
     vertex 5.8818796007e+00 -8.5714285714e+00 -3.3027228063e-02
   endloop
 endfacet
 facet normal  6.6507692941e-02 1.8445926540e-02 -9.9761539411e-01
   outer loop
     vertex 5.8818796007e+00 -8.5714285714e+00 -3.3027228063e-02
     vertex 6.4267167972e+00 -1.0000000000e+01 -2.3119059644e-02
     vertex 6.0992680777e+00 -1.0000000000e+01 -4.4948974278e-02
   endloop
 endfacet
 facet normal  6.6507692941e-02 1.8445926540e-02 -9.9761539411e-01
   outer loop
     vertex 5.8818796007e+00 -8.5714285714e+00 -3.3027228063e-02
     vertex 6.0992680777e+00 -1.0000000000e+01 -4.4948974278e-02
     vertex 5.4140957157e+00 -8.5714285714e+00 -6.4212820398e-02
   endloop
 endfacet
 facet normal  -8.1009707838e-02 -5.2275802623e-02 -9.9534148296e-01
   outer loop
     vertex 5.4140957157e+00 -8.5714285714e+00 -6.4212820398e-02
     vertex 6.0992680777e+00 -1.0000000000e+01 -4.4948974278e-02
     vertex 5.1707542898e+00 -8.5714285714e+00 -4.4407539341e-02
   endloop
 endfacet
 facet normal  -8.1009707838e-02 -5.2275802623e-02 -9.9534148296e-01
   outer loop
     vertex 6.0992680777e+00 -1.0000000000e+01 -4.4948974278e-02
     vertex 5.9289290796e+00 -1.0000000000e+01 -3.1085277539e-02
     vertex 5.1707542898e+00 -8.5714285714e+00 -4.4407539341e-02
   endloop
 endfacet
 facet normal  -1.9487094074e-01 -1.1250879009e-01 -9.7435470369e-01
   outer loop
     vertex 5.1707542898e+00 -8.5714285714e+00 -4.4407539341e-02
     vertex 5.9289290796e+00 -1.0000000000e+01 -3.1085277539e-02
     vertex 4.9487165931e+00 -8.5714285714e+00 0.0000000000e+00
   endloop
 endfacet
 facet normal  -1.9487094074e-01 -1.1250879009e-01 -9.7435470369e-01
   outer loop
     vertex 5.9289290796e+00 -1.0000000000e+01 -3.1085277539e-02
     vertex 5.7735026919e+00 -1.0000000000e+01 0.0000000000e+00
     vertex 4.9487165931e+00 -8.5714285714e+00 0.0000000000e+00
   endloop
 endfacet
 facet normal  -1.9487094074e-01 -1.1250879009e-01 9.7435470369e-01
   outer loop
     vertex 4.9487165931e+00 -8.5714285714e+00 0.0000000000e+00
     vertex 5.7735026919e+00 -1.0000000000e+01 0.0000000000e+00
     vertex 5.9289290796e+00 -1.0000000000e+01 3.1085277539e-02
   endloop
 endfacet
 facet normal  -1.9487094074e-01 -1.1250879009e-01 9.7435470369e-01
   outer loop
     vertex 4.9487165931e+00 -8.5714285714e+00 0.0000000000e+00
     vertex 5.9289290796e+00 -1.0000000000e+01 3.1085277539e-02
     vertex 5.1707542898e+00 -8.5714285714e+00 4.4407539341e-02
   endloop
 endfacet
 facet normal  -8.1009707838e-02 -5.2275802623e-02 9.9534148296e-01
   outer loop
     vertex 5.1707542898e+00 -8.5714285714e+00 4.4407539341e-02
     vertex 5.9289290796e+00 -1.0000000000e+01 3.1085277539e-02
     vertex 6.0992680777e+00 -1.0000000000e+01 4.4948974278e-02
   endloop
 endfacet
 facet normal  -8.1009707838e-02 -5.2275802623e-02 9.9534148296e-01
   outer loop
     vertex 5.1707542898e+00 -8.5714285714e+00 4.4407539341e-02
     vertex 6.0992680777e+00 -1.0000000000e+01 4.4948974278e-02
     vertex 5.4140957157e+00 -8.5714285714e+00 6.4212820398e-02
   endloop
 endfacet
 facet normal  6.6507692941e-02 1.8445926540e-02 9.9761539411e-01
   outer loop
     vertex 5.4140957157e+00 -8.5714285714e+00 6.4212820398e-02
     vertex 6.0992680777e+00 -1.0000000000e+01 4.4948974278e-02
     vertex 5.8818796007e+00 -8.5714285714e+00 3.3027228063e-02
   endloop
 endfacet
 facet normal  6.6507692941e-02 1.8445926540e-02 9.9761539411e-01
   outer loop
     vertex 6.0992680777e+00 -1.0000000000e+01 4.4948974278e-02
     vertex 6.4267167972e+00 -1.0000000000e+01 2.3119059644e-02
     vertex 5.8818796007e+00 -8.5714285714e+00 3.3027228063e-02
   endloop
 endfacet
 facet normal  6.6507692941e-02 1.8445926540e-02 9.9761539411e-01
   outer loop
     vertex 5.8818796007e+00 -8.5714285714e+00 3.3027228063e-02
     vertex 6.4267167972e+00 -1.0000000000e+01 2.3119059644e-02
     vertex 6.3772880216e+00 -8.5714285714e+00 0.0000000000e+00
   endloop
 endfacet
 facet normal  6.6507692941e-02 1.8445926540e-02 9.9761539411e-01
   outer loop
     vertex 6.4267167972e+00 -1.0000000000e+01 2.3119059644e-02
     vertex 6.7735026919e+00 -1.0000000000e+01 0.0000000000e+00
     vertex 6.3772880216e+00 -8.5714285714e+00 0.0000000000e+00
   endloop
 endfacet
 facet normal  6.1251452686e-02 -3.9000853441e-01 -9.1877179029e-01
   outer loop
     vertex 6.7735026919e+00 -1.0000000000e+01 0.0000000000e+00
     vertex 6.4325226217e+00 -1.0015173184e+01 -1.6291154770e-02
     vertex 6.4267167972e+00 -1.0000000000e+01 -2.3119059644e-02
   endloop
 endfacet
 facet normal  6.0013620030e-02 -3.9043703544e-01 -9.1867147924e-01
   outer loop
     vertex 6.4267167972e+00 -1.0000000000e+01 -2.3119059644e-02
     vertex 6.4325226217e+00 -1.0015173184e+01 -1.6291154770e-02
     vertex 6.1128828471e+00 -1.0028318847e+01 -3.1585181426e-02
   endloop
 endfacet
 facet normal  6.0910989535e-02 -4.0187859605e-01 -9.1366484303e-01
   outer loop
     vertex 6.4267167972e+00 -1.0000000000e+01 -2.3119059644e-02
     vertex 6.1128828471e+00 -1.0028318847e+01 -3.1585181426e-02
     vertex 6.0992680777e+00 -1.0000000000e+01 -4.4948974278e-02
   endloop
 endfacet
 facet normal  -7.2284152856e-02 -4.5386596488e-01 -8.8813325980e-01
   outer loop
     vertex 6.0992680777e+00 -1.0000000000e+01 -4.4948974278e-02
     vertex 6.1128828471e+00 -1.0028318847e+01 -3.1585181426e-02
     vertex 5.9289290796e+00 -1.0000000000e+01 -3.1085277539e-02
   endloop
 endfacet
 facet normal  -7.3390094889e-02 -4.6111763895e-01 -8.8429882790e-01
   outer loop
     vertex 6.1128828471e+00 -1.0028318847e+01 -3.1585181426e-02
     vertex 5.9391433487e+00 -1.0019269033e+01 -2.1885146634e-02
     vertex 5.9289290796e+00 -1.0000000000e+01 -3.1085277539e-02
   endloop
 endfacet
 facet normal  -1.7022403564e-01 -4.9660670547e-01 -8.5112017822e-01
   outer loop
     vertex 5.9289290796e+00 -1.0000000000e+01 -3.1085277539e-02
     vertex 5.9391433487e+00 -1.0019269033e+01 -2.1885146634e-02
     vertex 5.7735026919e+00 -1.0000000000e+01 0.0000000000e+00
   endloop
 endfacet
 facet normal  -1.7022403564e-01 -4.9660670547e-01 8.5112017822e-01
   outer loop
     vertex 5.7735026919e+00 -1.0000000000e+01 0.0000000000e+00
     vertex 5.9391433487e+00 -1.0019269033e+01 2.1885146634e-02
     vertex 5.9289290796e+00 -1.0000000000e+01 3.1085277539e-02
   endloop
 endfacet
 facet normal  -7.3390094889e-02 -4.6111763895e-01 8.8429882790e-01
   outer loop
     vertex 5.9289290796e+00 -1.0000000000e+01 3.1085277539e-02
     vertex 5.9391433487e+00 -1.0019269033e+01 2.1885146634e-02
     vertex 6.1128828471e+00 -1.0028318847e+01 3.1585181426e-02
   endloop
 endfacet
 facet normal  -7.2284152856e-02 -4.5386596488e-01 8.8813325980e-01
   outer loop
     vertex 5.9289290796e+00 -1.0000000000e+01 3.1085277539e-02
     vertex 6.1128828471e+00 -1.0028318847e+01 3.1585181426e-02
     vertex 6.0992680777e+00 -1.0000000000e+01 4.4948974278e-02
   endloop
 endfacet
 facet normal  6.0910989535e-02 -4.0187859605e-01 9.1366484303e-01
   outer loop
     vertex 6.0992680777e+00 -1.0000000000e+01 4.4948974278e-02
     vertex 6.1128828471e+00 -1.0028318847e+01 3.1585181426e-02
     vertex 6.4267167972e+00 -1.0000000000e+01 2.3119059644e-02
   endloop
 endfacet
 facet normal  6.0013620030e-02 -3.9043703544e-01 9.1867147924e-01
   outer loop
     vertex 6.1128828471e+00 -1.0028318847e+01 3.1585181426e-02
     vertex 6.4325226217e+00 -1.0015173184e+01 1.6291154770e-02
     vertex 6.4267167972e+00 -1.0000000000e+01 2.3119059644e-02
   endloop
 endfacet
 facet normal  6.1251452686e-02 -3.9000853441e-01 9.1877179029e-01
   outer loop
     vertex 6.4267167972e+00 -1.0000000000e+01 2.3119059644e-02
     vertex 6.4325226217e+00 -1.0015173184e+01 1.6291154770e-02
     vertex 6.7735026919e+00 -1.0000000000e+01 0.0000000000e+00
   endloop
 endfacet
 facet normal  5.8828828720e-02 -9.2857193487e-01 -3.6646054452e-01
   outer loop
     vertex 6.7735026919e+00 -1.0000000000e+01 0.0000000000e+00
     vertex 6.4349244725e+00 -1.0021450315e+01 -4.3121005046e-18
     vertex 6.4325226217e+00 -1.0015173184e+01 -1.6291154770e-02
   endloop
 endfacet
 facet normal  5.4506972012e-02 -9.2901895061e-01 -3.6599560027e-01
   outer loop
     vertex 6.4325226217e+00 -1.0015173184e+01 -1.6291154770e-02
     vertex 6.4349244725e+00 -1.0021450315e+01 -4.3121005046e-18
     vertex 6.1185059620e+00 -1.0040015076e+01 -1.2416735175e-18
   endloop
 endfacet
 facet normal  5.5378579600e-02 -9.3307814180e-01 -3.5538485368e-01
   outer loop
     vertex 6.4325226217e+00 -1.0015173184e+01 -1.6291154770e-02
     vertex 6.1185059620e+00 -1.0040015076e+01 -1.2416735175e-18
     vertex 6.1128828471e+00 -1.0028318847e+01 -3.1585181426e-02
   endloop
 endfacet
 facet normal  -6.7686725746e-02 -9.3948149659e-01 -3.3584672801e-01
   outer loop
     vertex 6.1128828471e+00 -1.0028318847e+01 -3.1585181426e-02
     vertex 6.1185059620e+00 -1.0040015076e+01 -1.2416735175e-18
     vertex 5.9391433487e+00 -1.0019269033e+01 -2.1885146634e-02
   endloop
 endfacet
 facet normal  -6.8704314693e-02 -9.4163544788e-01 -3.2954878309e-01
   outer loop
     vertex 6.1185059620e+00 -1.0040015076e+01 -1.2416735175e-18
     vertex 5.9433667809e+00 -1.0027236439e+01 -2.0377282409e-18
     vertex 5.9391433487e+00 -1.0019269033e+01 -2.1885146634e-02
   endloop
 endfacet
 facet normal  -1.5039412993e-01 -9.3795528941e-01 -3.1244436424e-01
   outer loop
     vertex 5.9391433487e+00 -1.0019269033e+01 -2.1885146634e-02
     vertex 5.9433667809e+00 -1.0027236439e+01 -2.0377282409e-18
     vertex 5.7735026919e+00 -1.0000000000e+01 0.0000000000e+00
   endloop
 endfacet
 facet normal  -1.5039412993e-01 -9.3795528941e-01 3.1244436424e-01
   outer loop
     vertex 5.7735026919e+00 -1.0000000000e+01 0.0000000000e+00
     vertex 5.9433667809e+00 -1.0027236439e+01 -2.0377282409e-18
     vertex 5.9391433487e+00 -1.0019269033e+01 2.1885146634e-02
   endloop
 endfacet
 facet normal  -6.8704314693e-02 -9.4163544788e-01 3.2954878309e-01
   outer loop
     vertex 5.9391433487e+00 -1.0019269033e+01 2.1885146634e-02
     vertex 5.9433667809e+00 -1.0027236439e+01 -2.0377282409e-18
     vertex 6.1185059620e+00 -1.0040015076e+01 -1.2416735175e-18
   endloop
 endfacet
 facet normal  -6.7686725746e-02 -9.3948149659e-01 3.3584672801e-01
   outer loop
     vertex 5.9391433487e+00 -1.0019269033e+01 2.1885146634e-02
     vertex 6.1185059620e+00 -1.0040015076e+01 -1.2416735175e-18
     vertex 6.1128828471e+00 -1.0028318847e+01 3.1585181426e-02
   endloop
 endfacet
 facet normal  5.5378579600e-02 -9.3307814180e-01 3.5538485368e-01
   outer loop
     vertex 6.1128828471e+00 -1.0028318847e+01 3.1585181426e-02
     vertex 6.1185059620e+00 -1.0040015076e+01 -1.2416735175e-18
     vertex 6.4325226217e+00 -1.0015173184e+01 1.6291154770e-02
   endloop
 endfacet
 facet normal  5.4506972012e-02 -9.2901895060e-01 3.6599560027e-01
   outer loop
     vertex 6.1185059620e+00 -1.0040015076e+01 -1.2416735175e-18
     vertex 6.4349244725e+00 -1.0021450315e+01 -4.3121005046e-18
     vertex 6.4325226217e+00 -1.0015173184e+01 1.6291154770e-02
   endloop
 endfacet
 facet normal  5.8828828720e-02 -9.2857193487e-01 3.6646054452e-01
   outer loop
     vertex 6.4325226217e+00 -1.0015173184e+01 1.6291154770e-02
     vertex 6.4349244725e+00 -1.0021450315e+01 -4.3121005046e-18
     vertex 6.7735026919e+00 -1.0000000000e+01 0.0000000000e+00
   endloop
 endfacet
endsolid
