solid
 facet normal  6.9768839923e-02 -4.4631290344e-03 -9.9755320132e-01
   outer loop
     vertex 4.0000000000e+00 0.0000000000e+00 0.0000000000e+00
     vertex 3.2102560183e+00 1.9892191003e+00 -6.4134587384e-02
     vertex 4.1272508119e+00 1.9892191003e+00 0.0000000000e+00
   endloop
 endfacet
 facet normal  6.9768839923e-02 -4.4631290344e-03 -9.9755320132e-01
   outer loop
     vertex 4.0000000000e+00 0.0000000000e+00 0.0000000000e+00
     vertex 2.8552991213e+00 0.0000000000e+00 -8.0060343913e-02
     vertex 3.2102560183e+00 1.9892191003e+00 -6.4134587384e-02
   endloop
 endfacet
 facet normal  5.7662201614e-02 -2.2965694199e-03 -9.9833350954e-01
   outer loop
     vertex 2.8552991213e+00 0.0000000000e+00 -8.0060343913e-02
     vertex 2.2286684711e+00 1.9892191003e+00 -1.2082956808e-01
     vertex 3.2102560183e+00 1.9892191003e+00 -6.4134587384e-02
   endloop
 endfacet
 facet normal  5.7662201614e-02 -2.2965694199e-03 -9.9833350954e-01
   outer loop
     vertex 2.8552991213e+00 0.0000000000e+00 -8.0060343913e-02
     vertex 1.6299659614e+00 0.0000000000e+00 -1.5083369473e-01
     vertex 2.2286684711e+00 1.9892191003e+00 -1.2082956808e-01
   endloop
 endfacet
 facet normal  1.3842832476e-02 1.0914698025e-02 -9.9984461061e-01
   outer loop
     vertex 1.6299659614e+00 0.0000000000e+00 -1.5083369473e-01
     vertex 6.1931532608e-01 0.0000000000e+00 -1.6482613645e-01
     vertex 2.2286684711e+00 1.9892191003e+00 -1.2082956808e-01
   endloop
 endfacet
 facet normal  1.3842832476e-02 1.0914698025e-02 -9.9984461061e-01
   outer loop
     vertex 2.2286684711e+00 1.9892191003e+00 -1.2082956808e-01
     vertex 6.1931532608e-01 0.0000000000e+00 -1.6482613645e-01
     vertex 1.4190583905e+00 1.9892191003e+00 -1.3203860656e-01
   endloop
 endfacet
 facet normal  -2.5537795496e-01 1.1848776959e-01 -9.5955341101e-01
   outer loop
     vertex 6.1931532608e-01 0.0000000000e+00 -1.6482613645e-01
     vertex 0.0000000000e+00 0.0000000000e+00 0.0000000000e+00
     vertex 1.4190583905e+00 1.9892191003e+00 -1.3203860656e-01
   endloop
 endfacet
 facet normal  -2.5537795496e-01 1.1848776959e-01 -9.5955341101e-01
   outer loop
     vertex 1.4190583905e+00 1.9892191003e+00 -1.3203860656e-01
     vertex 0.0000000000e+00 0.0000000000e+00 0.0000000000e+00
     vertex 9.2293845199e-01 1.9892191003e+00 0.0000000000e+00
   endloop
 endfacet
 facet normal  -3.9926493445e-01 1.8524704517e-01 8.9792596820e-01
   outer loop
     vertex 0.0000000000e+00 0.0000000000e+00 0.0000000000e+00
     vertex 1.3963946924e+00 1.9892191003e+00 2.1052345236e-01
     vertex 9.2293845199e-01 1.9892191003e+00 0.0000000000e+00
   endloop
 endfacet
 facet normal  -3.9926493445e-01 1.8524704517e-01 8.9792596820e-01
   outer loop
     vertex 0.0000000000e+00 0.0000000000e+00 0.0000000000e+00
     vertex 5.9102382942e-01 0.0000000000e+00 2.6280016267e-01
     vertex 1.3963946924e+00 1.9892191003e+00 2.1052345236e-01
   endloop
 endfacet
 facet normal  -4.7509110836e-02 4.5458054863e-02 9.9783588312e-01
   outer loop
     vertex 5.9102382942e-01 0.0000000000e+00 2.6280016267e-01
     vertex 2.2156871065e+00 1.9892191003e+00 2.4953172493e-01
     vertex 1.3963946924e+00 1.9892191003e+00 2.1052345236e-01
   endloop
 endfacet
 facet normal  -4.7509110836e-02 4.5458054863e-02 9.9783588312e-01
   outer loop
     vertex 5.9102382942e-01 0.0000000000e+00 2.6280016267e-01
     vertex 1.6137610935e+00 0.0000000000e+00 3.1149488177e-01
     vertex 2.2156871065e+00 1.9892191003e+00 2.4953172493e-01
   endloop
 endfacet
 facet normal  9.1533158814e-02 3.3211549204e-03 9.9579649064e-01
   outer loop
     vertex 1.6137610935e+00 0.0000000000e+00 3.1149488177e-01
     vertex 2.8531280289e+00 0.0000000000e+00 1.9757283888e-01
     vertex 2.2156871065e+00 1.9892191003e+00 2.4953172493e-01
   endloop
 endfacet
 facet normal  9.1533158814e-02 3.3211549204e-03 9.9579649064e-01
   outer loop
     vertex 2.2156871065e+00 1.9892191003e+00 2.4953172493e-01
     vertex 2.8531280289e+00 0.0000000000e+00 1.9757283888e-01
     vertex 3.2085168038e+00 1.9892191003e+00 1.5827127240e-01
   endloop
 endfacet
 facet normal  1.6976029409e-01 -1.0859605782e-02 9.8542554844e-01
   outer loop
     vertex 2.8531280289e+00 0.0000000000e+00 1.9757283888e-01
     vertex 4.0000000000e+00 0.0000000000e+00 0.0000000000e+00
     vertex 3.2085168038e+00 1.9892191003e+00 1.5827127240e-01
   endloop
 endfacet
 facet normal  1.6976029409e-01 -1.0859605782e-02 9.8542554844e-01
   outer loop
     vertex 3.2085168038e+00 1.9892191003e+00 1.5827127240e-01
     vertex 4.0000000000e+00 0.0000000000e+00 0.0000000000e+00
     vertex 4.1272508119e+00 1.9892191003e+00 0.0000000000e+00
   endloop
 endfacet
 facet normal  6.9768839923e-02 -4.4631290344e-03 -9.9755320132e-01
   outer loop
     vertex 4.1272508119e+00 1.9892191003e+00 0.0000000000e+00
     vertex 3.6396042438e+00 4.3953357242e+00 -4.4871134944e-02
     vertex 4.2811706560e+00 4.3953357242e+00 0.0000000000e+00
   endloop
 endfacet
 facet normal  6.9768839923e-02 -4.4631290344e-03 -9.9755320132e-01
   outer loop
     vertex 4.1272508119e+00 1.9892191003e+00 0.0000000000e+00
     vertex 3.2102560183e+00 1.9892191003e+00 -6.4134587384e-02
     vertex 3.6396042438e+00 4.3953357242e+00 -4.4871134944e-02
   endloop
 endfacet
 facet normal  5.7662201614e-02 -2.2965694199e-03 -9.9833350954e-01
   outer loop
     vertex 3.2102560183e+00 1.9892191003e+00 -6.4134587384e-02
     vertex 2.9528461451e+00 4.3953357242e+00 -8.4537222046e-02
     vertex 3.6396042438e+00 4.3953357242e+00 -4.4871134944e-02
   endloop
 endfacet
 facet normal  5.7662201614e-02 -2.2965694199e-03 -9.9833350954e-01
   outer loop
     vertex 3.2102560183e+00 1.9892191003e+00 -6.4134587384e-02
     vertex 2.2286684711e+00 1.9892191003e+00 -1.2082956808e-01
     vertex 2.9528461451e+00 4.3953357242e+00 -8.4537222046e-02
   endloop
 endfacet
 facet normal  1.3842832476e-02 1.0914698025e-02 -9.9984461061e-01
   outer loop
     vertex 2.2286684711e+00 1.9892191003e+00 -1.2082956808e-01
     vertex 1.4190583905e+00 1.9892191003e+00 -1.3203860656e-01
     vertex 2.9528461451e+00 4.3953357242e+00 -8.4537222046e-02
   endloop
 endfacet
 facet normal  1.3842832476e-02 1.0914698025e-02 -9.9984461061e-01
   outer loop
     vertex 2.9528461451e+00 4.3953357242e+00 -8.4537222046e-02
     vertex 1.4190583905e+00 1.9892191003e+00 -1.3203860656e-01
     vertex 2.3864103940e+00 4.3953357242e+00 -9.2379515866e-02
   endloop
 endfacet
 facet normal  -2.5537795496e-01 1.1848776959e-01 -9.5955341101e-01
   outer loop
     vertex 1.4190583905e+00 1.9892191003e+00 -1.3203860656e-01
     vertex 9.2293845199e-01 1.9892191003e+00 0.0000000000e+00
     vertex 2.3864103940e+00 4.3953357242e+00 -9.2379515866e-02
   endloop
 endfacet
 facet normal  -2.5537795496e-01 1.1848776959e-01 -9.5955341101e-01
   outer loop
     vertex 2.3864103940e+00 4.3953357242e+00 -9.2379515866e-02
     vertex 9.2293845199e-01 1.9892191003e+00 0.0000000000e+00
     vertex 2.0393049457e+00 4.3953357242e+00 0.0000000000e+00
   endloop
 endfacet
 facet normal  -3.9926493445e-01 1.8524704517e-01 8.9792596820e-01
   outer loop
     vertex 9.2293845199e-01 1.9892191003e+00 0.0000000000e+00
     vertex 2.3705539599e+00 4.3953357242e+00 1.4729066834e-01
     vertex 2.0393049457e+00 4.3953357242e+00 0.0000000000e+00
   endloop
 endfacet
 facet normal  -3.9926493445e-01 1.8524704517e-01 8.9792596820e-01
   outer loop
     vertex 9.2293845199e-01 1.9892191003e+00 0.0000000000e+00
     vertex 1.3963946924e+00 1.9892191003e+00 2.1052345236e-01
     vertex 2.3705539599e+00 4.3953357242e+00 1.4729066834e-01
   endloop
 endfacet
 facet normal  -4.7509110836e-02 4.5458054863e-02 9.9783588312e-01
   outer loop
     vertex 1.3963946924e+00 1.9892191003e+00 2.1052345236e-01
     vertex 2.9437638607e+00 4.3953357242e+00 1.7458242360e-01
     vertex 2.3705539599e+00 4.3953357242e+00 1.4729066834e-01
   endloop
 endfacet
 facet normal  -4.7509110836e-02 4.5458054863e-02 9.9783588312e-01
   outer loop
     vertex 1.3963946924e+00 1.9892191003e+00 2.1052345236e-01
     vertex 2.2156871065e+00 1.9892191003e+00 2.4953172493e-01
     vertex 2.9437638607e+00 4.3953357242e+00 1.7458242360e-01
   endloop
 endfacet
 facet normal  9.1533158814e-02 3.3211549204e-03 9.9579649064e-01
   outer loop
     vertex 2.2156871065e+00 1.9892191003e+00 2.4953172493e-01
     vertex 3.2085168038e+00 1.9892191003e+00 1.5827127240e-01
     vertex 2.9437638607e+00 4.3953357242e+00 1.7458242360e-01
   endloop
 endfacet
 facet normal  9.1533158814e-02 3.3211549204e-03 9.9579649064e-01
   outer loop
     vertex 2.9437638607e+00 4.3953357242e+00 1.7458242360e-01
     vertex 3.2085168038e+00 1.9892191003e+00 1.5827127240e-01
     vertex 3.6383874194e+00 4.3953357242e+00 1.1073294319e-01
   endloop
 endfacet
 facet normal  1.6976029409e-01 -1.0859605782e-02 9.8542554844e-01
   outer loop
     vertex 3.2085168038e+00 1.9892191003e+00 1.5827127240e-01
     vertex 4.1272508119e+00 1.9892191003e+00 0.0000000000e+00
     vertex 3.6383874194e+00 4.3953357242e+00 1.1073294319e-01
   endloop
 endfacet
 facet normal  1.6976029409e-01 -1.0859605782e-02 9.8542554844e-01
   outer loop
     vertex 3.6383874194e+00 4.3953357242e+00 1.1073294319e-01
     vertex 4.1272508119e+00 1.9892191003e+00 0.0000000000e+00
     vertex 4.2811706560e+00 4.3953357242e+00 0.0000000000e+00
   endloop
 endfacet
 facet normal  6.9768839923e-02 -4.4631290344e-03 -9.9755320132e-01
   outer loop
     vertex 4.2811706560e+00 4.3953357242e+00 0.0000000000e+00
     vertex 4.0449012689e+00 6.6666666667e+00 -2.6686781304e-02
     vertex 4.4264682284e+00 6.6666666667e+00 0.0000000000e+00
   endloop
 endfacet
 facet normal  6.9768839923e-02 -4.4631290344e-03 -9.9755320132e-01
   outer loop
     vertex 4.2811706560e+00 4.3953357242e+00 0.0000000000e+00
     vertex 3.6396042438e+00 4.3953357242e+00 -4.4871134944e-02
     vertex 4.0449012689e+00 6.6666666667e+00 -2.6686781304e-02
   endloop
 endfacet
 facet normal  5.7662201614e-02 -2.2965694199e-03 -9.9833350954e-01
   outer loop
     vertex 3.6396042438e+00 4.3953357242e+00 -4.4871134944e-02
     vertex 3.6364568822e+00 6.6666666667e+00 -5.0277898245e-02
     vertex 4.0449012689e+00 6.6666666667e+00 -2.6686781304e-02
   endloop
 endfacet
 facet normal  5.7662201614e-02 -2.2965694199e-03 -9.9833350954e-01
   outer loop
     vertex 3.6396042438e+00 4.3953357242e+00 -4.4871134944e-02
     vertex 2.9528461451e+00 4.3953357242e+00 -8.4537222046e-02
     vertex 3.6364568822e+00 6.6666666667e+00 -5.0277898245e-02
   endloop
 endfacet
 facet normal  1.3842832476e-02 1.0914698025e-02 -9.9984461061e-01
   outer loop
     vertex 2.9528461451e+00 4.3953357242e+00 -8.4537222046e-02
     vertex 2.3864103940e+00 4.3953357242e+00 -9.2379515866e-02
     vertex 3.6364568822e+00 6.6666666667e+00 -5.0277898245e-02
   endloop
 endfacet
 facet normal  1.3842832476e-02 1.0914698025e-02 -9.9984461061e-01
   outer loop
     vertex 3.6364568822e+00 6.6666666667e+00 -5.0277898245e-02
     vertex 2.3864103940e+00 4.3953357242e+00 -9.2379515866e-02
     vertex 3.2995733371e+00 6.6666666667e+00 -5.4942045483e-02
   endloop
 endfacet
 facet normal  -2.5537795496e-01 1.1848776959e-01 -9.5955341101e-01
   outer loop
     vertex 2.3864103940e+00 4.3953357242e+00 -9.2379515866e-02
     vertex 2.0393049457e+00 4.3953357242e+00 0.0000000000e+00
     vertex 3.2995733371e+00 6.6666666667e+00 -5.4942045483e-02
   endloop
 endfacet
 facet normal  -2.5537795496e-01 1.1848776959e-01 -9.5955341101e-01
   outer loop
     vertex 3.2995733371e+00 6.6666666667e+00 -5.4942045483e-02
     vertex 2.0393049457e+00 4.3953357242e+00 0.0000000000e+00
     vertex 3.0931348951e+00 6.6666666667e+00 0.0000000000e+00
   endloop
 endfacet
 facet normal  -3.9926493445e-01 1.8524704517e-01 8.9792596820e-01
   outer loop
     vertex 2.0393049457e+00 4.3953357242e+00 0.0000000000e+00
     vertex 3.2901428382e+00 6.6666666667e+00 8.7600054224e-02
     vertex 3.0931348951e+00 6.6666666667e+00 0.0000000000e+00
   endloop
 endfacet
 facet normal  -3.9926493445e-01 1.8524704517e-01 8.9792596820e-01
   outer loop
     vertex 2.0393049457e+00 4.3953357242e+00 0.0000000000e+00
     vertex 2.3705539599e+00 4.3953357242e+00 1.4729066834e-01
     vertex 3.2901428382e+00 6.6666666667e+00 8.7600054224e-02
   endloop
 endfacet
 facet normal  -4.7509110836e-02 4.5458054863e-02 9.9783588312e-01
   outer loop
     vertex 2.3705539599e+00 4.3953357242e+00 1.4729066834e-01
     vertex 3.6310552596e+00 6.6666666667e+00 1.0383162726e-01
     vertex 3.2901428382e+00 6.6666666667e+00 8.7600054224e-02
   endloop
 endfacet
 facet normal  -4.7509110836e-02 4.5458054863e-02 9.9783588312e-01
   outer loop
     vertex 2.3705539599e+00 4.3953357242e+00 1.4729066834e-01
     vertex 2.9437638607e+00 4.3953357242e+00 1.7458242360e-01
     vertex 3.6310552596e+00 6.6666666667e+00 1.0383162726e-01
   endloop
 endfacet
 facet normal  9.1533158814e-02 3.3211549204e-03 9.9579649064e-01
   outer loop
     vertex 2.9437638607e+00 4.3953357242e+00 1.7458242360e-01
     vertex 3.6383874194e+00 4.3953357242e+00 1.1073294319e-01
     vertex 3.6310552596e+00 6.6666666667e+00 1.0383162726e-01
   endloop
 endfacet
 facet normal  9.1533158814e-02 3.3211549204e-03 9.9579649064e-01
   outer loop
     vertex 3.6310552596e+00 6.6666666667e+00 1.0383162726e-01
     vertex 3.6383874194e+00 4.3953357242e+00 1.1073294319e-01
     vertex 4.0441775714e+00 6.6666666667e+00 6.5857612960e-02
   endloop
 endfacet
 facet normal  1.6976029409e-01 -1.0859605782e-02 9.8542554844e-01
   outer loop
     vertex 3.6383874194e+00 4.3953357242e+00 1.1073294319e-01
     vertex 4.2811706560e+00 4.3953357242e+00 0.0000000000e+00
     vertex 4.0441775714e+00 6.6666666667e+00 6.5857612960e-02
   endloop
 endfacet
 facet normal  1.6976029409e-01 -1.0859605782e-02 9.8542554844e-01
   outer loop
     vertex 4.0441775714e+00 6.6666666667e+00 6.5857612960e-02
     vertex 4.2811706560e+00 4.3953357242e+00 0.0000000000e+00
     vertex 4.4264682284e+00 6.6666666667e+00 0.0000000000e+00
   endloop
 endfacet
 facet normal  6.9768839923e-02 -4.4631290344e-03 -9.9755320132e-01
   outer loop
     vertex 4.4264682284e+00 6.6666666667e+00 0.0000000000e+00
     vertex 4.3472038969e+00 8.3608052137e+00 -1.3123449833e-02
     vertex 4.5348426682e+00 8.3608052137e+00 0.0000000000e+00
   endloop
 endfacet
 facet normal  6.9768839923e-02 -4.4631290344e-03 -9.9755320132e-01
   outer loop
     vertex 4.4264682284e+00 6.6666666667e+00 0.0000000000e+00
     vertex 4.0449012689e+00 6.6666666667e+00 -2.6686781304e-02
     vertex 4.3472038969e+00 8.3608052137e+00 -1.3123449833e-02
   endloop
 endfacet
 facet normal  5.7662201614e-02 -2.2965694199e-03 -9.9833350954e-01
   outer loop
     vertex 4.0449012689e+00 6.6666666667e+00 -2.6686781304e-02
     vertex 4.1463479242e+00 8.3608052137e+00 -2.4724580601e-02
     vertex 4.3472038969e+00 8.3608052137e+00 -1.3123449833e-02
   endloop
 endfacet
 facet normal  5.7662201614e-02 -2.2965694199e-03 -9.9833350954e-01
   outer loop
     vertex 4.0449012689e+00 6.6666666667e+00 -2.6686781304e-02
     vertex 3.6364568822e+00 6.6666666667e+00 -5.0277898245e-02
     vertex 4.1463479242e+00 8.3608052137e+00 -2.4724580601e-02
   endloop
 endfacet
 facet normal  1.3842832476e-02 1.0914698025e-02 -9.9984461061e-01
   outer loop
     vertex 3.6364568822e+00 6.6666666667e+00 -5.0277898245e-02
     vertex 3.2995733371e+00 6.6666666667e+00 -5.4942045483e-02
     vertex 4.1463479242e+00 8.3608052137e+00 -2.4724580601e-02
   endloop
 endfacet
 facet normal  1.3842832476e-02 1.0914698025e-02 -9.9984461061e-01
   outer loop
     vertex 4.1463479242e+00 8.3608052137e+00 -2.4724580601e-02
     vertex 3.2995733371e+00 6.6666666667e+00 -5.4942045483e-02
     vertex 3.9806825990e+00 8.3608052137e+00 -2.7018214351e-02
   endloop
 endfacet
 facet normal  -2.5537795496e-01 1.1848776959e-01 -9.5955341101e-01
   outer loop
     vertex 3.2995733371e+00 6.6666666667e+00 -5.4942045483e-02
     vertex 3.0931348951e+00 6.6666666667e+00 0.0000000000e+00
     vertex 3.9806825990e+00 8.3608052137e+00 -2.7018214351e-02
   endloop
 endfacet
 facet normal  -2.5537795496e-01 1.1848776959e-01 -9.5955341101e-01
   outer loop
     vertex 3.9806825990e+00 8.3608052137e+00 -2.7018214351e-02
     vertex 3.0931348951e+00 6.6666666667e+00 0.0000000000e+00
     vertex 3.8791647537e+00 8.3608052137e+00 0.0000000000e+00
   endloop
 endfacet
 facet normal  -3.9926493445e-01 1.8524704517e-01 8.9792596820e-01
   outer loop
     vertex 3.0931348951e+00 6.6666666667e+00 0.0000000000e+00
     vertex 3.9760450716e+00 8.3608052137e+00 4.3078065649e-02
     vertex 3.8791647537e+00 8.3608052137e+00 0.0000000000e+00
   endloop
 endfacet
 facet normal  -3.9926493445e-01 1.8524704517e-01 8.9792596820e-01
   outer loop
     vertex 3.0931348951e+00 6.6666666667e+00 0.0000000000e+00
     vertex 3.2901428382e+00 6.6666666667e+00 8.7600054224e-02
     vertex 3.9760450716e+00 8.3608052137e+00 4.3078065649e-02
   endloop
 endfacet
 facet normal  -4.7509110836e-02 4.5458054863e-02 9.9783588312e-01
   outer loop
     vertex 3.2901428382e+00 6.6666666667e+00 8.7600054224e-02
     vertex 4.1436916307e+00 8.3608052137e+00 5.1060078616e-02
     vertex 3.9760450716e+00 8.3608052137e+00 4.3078065649e-02
   endloop
 endfacet
 facet normal  -4.7509110836e-02 4.5458054863e-02 9.9783588312e-01
   outer loop
     vertex 3.2901428382e+00 6.6666666667e+00 8.7600054224e-02
     vertex 3.6310552596e+00 6.6666666667e+00 1.0383162726e-01
     vertex 4.1436916307e+00 8.3608052137e+00 5.1060078616e-02
   endloop
 endfacet
 facet normal  9.1533158814e-02 3.3211549204e-03 9.9579649064e-01
   outer loop
     vertex 3.6310552596e+00 6.6666666667e+00 1.0383162726e-01
     vertex 4.0441775714e+00 6.6666666667e+00 6.5857612960e-02
     vertex 4.1436916307e+00 8.3608052137e+00 5.1060078616e-02
   endloop
 endfacet
 facet normal  9.1533158814e-02 3.3211549204e-03 9.9579649064e-01
   outer loop
     vertex 4.1436916307e+00 8.3608052137e+00 5.1060078616e-02
     vertex 4.0441775714e+00 6.6666666667e+00 6.5857612960e-02
     vertex 4.3468480126e+00 8.3608052137e+00 3.2386036740e-02
   endloop
 endfacet
 facet normal  1.6976029409e-01 -1.0859605782e-02 9.8542554844e-01
   outer loop
     vertex 4.0441775714e+00 6.6666666667e+00 6.5857612960e-02
     vertex 4.4264682284e+00 6.6666666667e+00 0.0000000000e+00
     vertex 4.3468480126e+00 8.3608052137e+00 3.2386036740e-02
   endloop
 endfacet
 facet normal  1.6976029409e-01 -1.0859605782e-02 9.8542554844e-01
   outer loop
     vertex 4.3468480126e+00 8.3608052137e+00 3.2386036740e-02
     vertex 4.4264682284e+00 6.6666666667e+00 0.0000000000e+00
     vertex 4.5348426682e+00 8.3608052137e+00 0.0000000000e+00
   endloop
 endfacet
 facet normal  6.9768839923e-02 -4.4631290344e-03 -9.9755320132e-01
   outer loop
     vertex 4.5348426682e+00 8.3608052137e+00 0.0000000000e+00
     vertex 4.5354024712e+00 9.4154915758e+00 -4.6795945463e-03
     vertex 4.6023112018e+00 9.4154915758e+00 0.0000000000e+00
   endloop
 endfacet
 facet normal  6.9768839923e-02 -4.4631290344e-03 -9.9755320132e-01
   outer loop
     vertex 4.5348426682e+00 8.3608052137e+00 0.0000000000e+00
     vertex 4.3472038969e+00 8.3608052137e+00 -1.3123449833e-02
     vertex 4.5354024712e+00 9.4154915758e+00 -4.6795945463e-03
   endloop
 endfacet
 facet normal  5.7662201614e-02 -2.2965694199e-03 -9.9833350954e-01
   outer loop
     vertex 4.3472038969e+00 8.3608052137e+00 -1.3123449833e-02
     vertex 4.4637807157e+00 9.4154915758e+00 -8.8163565228e-03
     vertex 4.5354024712e+00 9.4154915758e+00 -4.6795945463e-03
   endloop
 endfacet
 facet normal  5.7662201614e-02 -2.2965694199e-03 -9.9833350954e-01
   outer loop
     vertex 4.3472038969e+00 8.3608052137e+00 -1.3123449833e-02
     vertex 4.1463479242e+00 8.3608052137e+00 -2.4724580601e-02
     vertex 4.4637807157e+00 9.4154915758e+00 -8.8163565228e-03
   endloop
 endfacet
 facet normal  1.3842832476e-02 1.0914698025e-02 -9.9984461061e-01
   outer loop
     vertex 4.1463479242e+00 8.3608052137e+00 -2.4724580601e-02
     vertex 3.9806825990e+00 8.3608052137e+00 -2.7018214351e-02
     vertex 4.4637807157e+00 9.4154915758e+00 -8.8163565228e-03
   endloop
 endfacet
 facet normal  1.3842832476e-02 1.0914698025e-02 -9.9984461061e-01
   outer loop
     vertex 4.4637807157e+00 9.4154915758e+00 -8.8163565228e-03
     vertex 3.9806825990e+00 8.3608052137e+00 -2.7018214351e-02
     vertex 4.4047073347e+00 9.4154915758e+00 -9.6342265285e-03
   endloop
 endfacet
 facet normal  -2.5537795496e-01 1.1848776959e-01 -9.5955341101e-01
   outer loop
     vertex 3.9806825990e+00 8.3608052137e+00 -2.7018214351e-02
     vertex 3.8791647537e+00 8.3608052137e+00 0.0000000000e+00
     vertex 4.4047073347e+00 9.4154915758e+00 -9.6342265285e-03
   endloop
 endfacet
 facet normal  -2.5537795496e-01 1.1848776959e-01 -9.5955341101e-01
   outer loop
     vertex 4.4047073347e+00 9.4154915758e+00 -9.6342265285e-03
     vertex 3.8791647537e+00 8.3608052137e+00 0.0000000000e+00
     vertex 4.3685078321e+00 9.4154915758e+00 0.0000000000e+00
   endloop
 endfacet
 facet normal  -3.9926493445e-01 1.8524704517e-01 8.9792596820e-01
   outer loop
     vertex 3.8791647537e+00 8.3608052137e+00 0.0000000000e+00
     vertex 4.4030536729e+00 9.4154915758e+00 1.5360890897e-02
     vertex 4.3685078321e+00 9.4154915758e+00 0.0000000000e+00
   endloop
 endfacet
 facet normal  -3.9926493445e-01 1.8524704517e-01 8.9792596820e-01
   outer loop
     vertex 3.8791647537e+00 8.3608052137e+00 0.0000000000e+00
     vertex 3.9760450716e+00 8.3608052137e+00 4.3078065649e-02
     vertex 4.4030536729e+00 9.4154915758e+00 1.5360890897e-02
   endloop
 endfacet
 facet normal  -4.7509110836e-02 4.5458054863e-02 9.9783588312e-01
   outer loop
     vertex 3.9760450716e+00 8.3608052137e+00 4.3078065649e-02
     vertex 4.4628335275e+00 9.4154915758e+00 1.8207138250e-02
     vertex 4.4030536729e+00 9.4154915758e+00 1.5360890897e-02
   endloop
 endfacet
 facet normal  -4.7509110836e-02 4.5458054863e-02 9.9783588312e-01
   outer loop
     vertex 3.9760450716e+00 8.3608052137e+00 4.3078065649e-02
     vertex 4.1436916307e+00 8.3608052137e+00 5.1060078616e-02
     vertex 4.4628335275e+00 9.4154915758e+00 1.8207138250e-02
   endloop
 endfacet
 facet normal  9.1533158814e-02 3.3211549204e-03 9.9579649064e-01
   outer loop
     vertex 4.1436916307e+00 8.3608052137e+00 5.1060078616e-02
     vertex 4.3468480126e+00 8.3608052137e+00 3.2386036740e-02
     vertex 4.4628335275e+00 9.4154915758e+00 1.8207138250e-02
   endloop
 endfacet
 facet normal  9.1533158814e-02 3.3211549204e-03 9.9579649064e-01
   outer loop
     vertex 4.4628335275e+00 9.4154915758e+00 1.8207138250e-02
     vertex 4.3468480126e+00 8.3608052137e+00 3.2386036740e-02
     vertex 4.5352755690e+00 9.4154915758e+00 1.1548298872e-02
   endloop
 endfacet
 facet normal  1.6976029409e-01 -1.0859605782e-02 9.8542554844e-01
   outer loop
     vertex 4.3468480126e+00 8.3608052137e+00 3.2386036740e-02
     vertex 4.5348426682e+00 8.3608052137e+00 0.0000000000e+00
     vertex 4.5352755690e+00 9.4154915758e+00 1.1548298872e-02
   endloop
 endfacet
 facet normal  1.6976029409e-01 -1.0859605782e-02 9.8542554844e-01
   outer loop
     vertex 4.5352755690e+00 9.4154915758e+00 1.1548298872e-02
     vertex 4.5348426682e+00 8.3608052137e+00 0.0000000000e+00
     vertex 4.6023112018e+00 9.4154915758e+00 0.0000000000e+00
   endloop
 endfacet
 facet normal  6.9768839923e-02 -4.4631290344e-03 -9.9755320132e-01
   outer loop
     vertex 4.6023112018e+00 9.4154915758e+00 0.0000000000e+00
     vertex 4.5354024712e+00 9.4154915758e+00 -4.6795945463e-03
     vertex 4.6397023427e+00 1.0000000000e+01 0.0000000000e+00
   endloop
 endfacet
 facet normal  5.7662201614e-02 -2.2965694199e-03 -9.9833350954e-01
   outer loop
     vertex 4.5354024712e+00 9.4154915758e+00 -4.6795945463e-03
     vertex 4.4637807157e+00 9.4154915758e+00 -8.8163565228e-03
     vertex 4.6397023427e+00 1.0000000000e+01 0.0000000000e+00
   endloop
 endfacet
 facet normal  1.3842832476e-02 1.0914698025e-02 -9.9984461061e-01
   outer loop
     vertex 4.4637807157e+00 9.4154915758e+00 -8.8163565228e-03
     vertex 4.4047073347e+00 9.4154915758e+00 -9.6342265285e-03
     vertex 4.6397023427e+00 1.0000000000e+01 0.0000000000e+00
   endloop
 endfacet
 facet normal  -2.5537795496e-01 1.1848776959e-01 -9.5955341101e-01
   outer loop
     vertex 4.4047073347e+00 9.4154915758e+00 -9.6342265285e-03
     vertex 4.3685078321e+00 9.4154915758e+00 0.0000000000e+00
     vertex 4.6397023427e+00 1.0000000000e+01 0.0000000000e+00
   endloop
 endfacet
 facet normal  -3.9926493445e-01 1.8524704517e-01 8.9792596820e-01
   outer loop
     vertex 4.3685078321e+00 9.4154915758e+00 0.0000000000e+00
     vertex 4.4030536729e+00 9.4154915758e+00 1.5360890897e-02
     vertex 4.6397023427e+00 1.0000000000e+01 0.0000000000e+00
   endloop
 endfacet
 facet normal  -4.7509110836e-02 4.5458054863e-02 9.9783588312e-01
   outer loop
     vertex 4.4030536729e+00 9.4154915758e+00 1.5360890897e-02
     vertex 4.4628335275e+00 9.4154915758e+00 1.8207138250e-02
     vertex 4.6397023427e+00 1.0000000000e+01 0.0000000000e+00
   endloop
 endfacet
 facet normal  9.1533158814e-02 3.3211549204e-03 9.9579649064e-01
   outer loop
     vertex 4.4628335275e+00 9.4154915758e+00 1.8207138250e-02
     vertex 4.5352755690e+00 9.4154915758e+00 1.1548298872e-02
     vertex 4.6397023427e+00 1.0000000000e+01 0.0000000000e+00
   endloop
 endfacet
 facet normal  1.6976029409e-01 -1.0859605782e-02 9.8542554844e-01
   outer loop
     vertex 4.5352755690e+00 9.4154915758e+00 1.1548298872e-02
     vertex 4.6023112018e+00 9.4154915758e+00 0.0000000000e+00
     vertex 4.6397023427e+00 1.0000000000e+01 0.0000000000e+00
   endloop
 endfacet
 facet normal  6.9768839923e-02 4.4631290344e-03 -9.9755320132e-01
   outer loop
     vertex 4.0000000000e+00 0.0000000000e+00 0.0000000000e+00
     vertex 4.1272508119e+00 -1.9892191003e+00 0.0000000000e+00
     vertex 3.2102560183e+00 -1.9892191003e+00 -6.4134587384e-02
   endloop
 endfacet
 facet normal  6.9768839923e-02 4.4631290344e-03 -9.9755320132e-01
   outer loop
     vertex 4.0000000000e+00 0.0000000000e+00 0.0000000000e+00
     vertex 3.2102560183e+00 -1.9892191003e+00 -6.4134587384e-02
     vertex 2.8552991213e+00 0.0000000000e+00 -8.0060343913e-02
   endloop
 endfacet
 facet normal  5.7662201614e-02 2.2965694199e-03 -9.9833350954e-01
   outer loop
     vertex 2.8552991213e+00 0.0000000000e+00 -8.0060343913e-02
     vertex 3.2102560183e+00 -1.9892191003e+00 -6.4134587384e-02
     vertex 2.2286684711e+00 -1.9892191003e+00 -1.2082956808e-01
   endloop
 endfacet
 facet normal  5.7662201614e-02 2.2965694199e-03 -9.9833350954e-01
   outer loop
     vertex 2.8552991213e+00 0.0000000000e+00 -8.0060343913e-02
     vertex 2.2286684711e+00 -1.9892191003e+00 -1.2082956808e-01
     vertex 1.6299659614e+00 0.0000000000e+00 -1.5083369473e-01
   endloop
 endfacet
 facet normal  1.3842832476e-02 -1.0914698025e-02 -9.9984461061e-01
   outer loop
     vertex 1.6299659614e+00 0.0000000000e+00 -1.5083369473e-01
     vertex 2.2286684711e+00 -1.9892191003e+00 -1.2082956808e-01
     vertex 6.1931532608e-01 0.0000000000e+00 -1.6482613645e-01
   endloop
 endfacet
 facet normal  1.3842832476e-02 -1.0914698025e-02 -9.9984461061e-01
   outer loop
     vertex 2.2286684711e+00 -1.9892191003e+00 -1.2082956808e-01
     vertex 1.4190583905e+00 -1.9892191003e+00 -1.3203860656e-01
     vertex 6.1931532608e-01 0.0000000000e+00 -1.6482613645e-01
   endloop
 endfacet
 facet normal  -2.5537795496e-01 -1.1848776959e-01 -9.5955341101e-01
   outer loop
     vertex 6.1931532608e-01 0.0000000000e+00 -1.6482613645e-01
     vertex 1.4190583905e+00 -1.9892191003e+00 -1.3203860656e-01
     vertex 0.0000000000e+00 0.0000000000e+00 0.0000000000e+00
   endloop
 endfacet
 facet normal  -2.5537795496e-01 -1.1848776959e-01 -9.5955341101e-01
   outer loop
     vertex 1.4190583905e+00 -1.9892191003e+00 -1.3203860656e-01
     vertex 9.2293845199e-01 -1.9892191003e+00 0.0000000000e+00
     vertex 0.0000000000e+00 0.0000000000e+00 0.0000000000e+00
   endloop
 endfacet
 facet normal  -3.9926493445e-01 -1.8524704517e-01 8.9792596820e-01
   outer loop
     vertex 0.0000000000e+00 0.0000000000e+00 0.0000000000e+00
     vertex 9.2293845199e-01 -1.9892191003e+00 0.0000000000e+00
     vertex 1.3963946924e+00 -1.9892191003e+00 2.1052345236e-01
   endloop
 endfacet
 facet normal  -3.9926493445e-01 -1.8524704517e-01 8.9792596820e-01
   outer loop
     vertex 0.0000000000e+00 0.0000000000e+00 0.0000000000e+00
     vertex 1.3963946924e+00 -1.9892191003e+00 2.1052345236e-01
     vertex 5.9102382942e-01 0.0000000000e+00 2.6280016267e-01
   endloop
 endfacet
 facet normal  -4.7509110836e-02 -4.5458054863e-02 9.9783588312e-01
   outer loop
     vertex 5.9102382942e-01 0.0000000000e+00 2.6280016267e-01
     vertex 1.3963946924e+00 -1.9892191003e+00 2.1052345236e-01
     vertex 2.2156871065e+00 -1.9892191003e+00 2.4953172493e-01
   endloop
 endfacet
 facet normal  -4.7509110836e-02 -4.5458054863e-02 9.9783588312e-01
   outer loop
     vertex 5.9102382942e-01 0.0000000000e+00 2.6280016267e-01
     vertex 2.2156871065e+00 -1.9892191003e+00 2.4953172493e-01
     vertex 1.6137610935e+00 0.0000000000e+00 3.1149488177e-01
   endloop
 endfacet
 facet normal  9.1533158814e-02 -3.3211549204e-03 9.9579649064e-01
   outer loop
     vertex 1.6137610935e+00 0.0000000000e+00 3.1149488177e-01
     vertex 2.2156871065e+00 -1.9892191003e+00 2.4953172493e-01
     vertex 2.8531280289e+00 0.0000000000e+00 1.9757283888e-01
   endloop
 endfacet
 facet normal  9.1533158814e-02 -3.3211549204e-03 9.9579649064e-01
   outer loop
     vertex 2.2156871065e+00 -1.9892191003e+00 2.4953172493e-01
     vertex 3.2085168038e+00 -1.9892191003e+00 1.5827127240e-01
     vertex 2.8531280289e+00 0.0000000000e+00 1.9757283888e-01
   endloop
 endfacet
 facet normal  1.6976029409e-01 1.0859605782e-02 9.8542554844e-01
   outer loop
     vertex 2.8531280289e+00 0.0000000000e+00 1.9757283888e-01
     vertex 3.2085168038e+00 -1.9892191003e+00 1.5827127240e-01
     vertex 4.0000000000e+00 0.0000000000e+00 0.0000000000e+00
   endloop
 endfacet
 facet normal  1.6976029409e-01 1.0859605782e-02 9.8542554844e-01
   outer loop
     vertex 3.2085168038e+00 -1.9892191003e+00 1.5827127240e-01
     vertex 4.1272508119e+00 -1.9892191003e+00 0.0000000000e+00
     vertex 4.0000000000e+00 0.0000000000e+00 0.0000000000e+00
   endloop
 endfacet
 facet normal  6.9768839923e-02 4.4631290344e-03 -9.9755320132e-01
   outer loop
     vertex 4.1272508119e+00 -1.9892191003e+00 0.0000000000e+00
     vertex 4.2811706560e+00 -4.3953357242e+00 0.0000000000e+00
     vertex 3.6396042438e+00 -4.3953357242e+00 -4.4871134944e-02
   endloop
 endfacet
 facet normal  6.9768839923e-02 4.4631290344e-03 -9.9755320132e-01
   outer loop
     vertex 4.1272508119e+00 -1.9892191003e+00 0.0000000000e+00
     vertex 3.6396042438e+00 -4.3953357242e+00 -4.4871134944e-02
     vertex 3.2102560183e+00 -1.9892191003e+00 -6.4134587384e-02
   endloop
 endfacet
 facet normal  5.7662201614e-02 2.2965694199e-03 -9.9833350954e-01
   outer loop
     vertex 3.2102560183e+00 -1.9892191003e+00 -6.4134587384e-02
     vertex 3.6396042438e+00 -4.3953357242e+00 -4.4871134944e-02
     vertex 2.9528461451e+00 -4.3953357242e+00 -8.4537222046e-02
   endloop
 endfacet
 facet normal  5.7662201614e-02 2.2965694199e-03 -9.9833350954e-01
   outer loop
     vertex 3.2102560183e+00 -1.9892191003e+00 -6.4134587384e-02
     vertex 2.9528461451e+00 -4.3953357242e+00 -8.4537222046e-02
     vertex 2.2286684711e+00 -1.9892191003e+00 -1.2082956808e-01
   endloop
 endfacet
 facet normal  1.3842832476e-02 -1.0914698025e-02 -9.9984461061e-01
   outer loop
     vertex 2.2286684711e+00 -1.9892191003e+00 -1.2082956808e-01
     vertex 2.9528461451e+00 -4.3953357242e+00 -8.4537222046e-02
     vertex 1.4190583905e+00 -1.9892191003e+00 -1.3203860656e-01
   endloop
 endfacet
 facet normal  1.3842832476e-02 -1.0914698025e-02 -9.9984461061e-01
   outer loop
     vertex 2.9528461451e+00 -4.3953357242e+00 -8.4537222046e-02
     vertex 2.3864103940e+00 -4.3953357242e+00 -9.2379515866e-02
     vertex 1.4190583905e+00 -1.9892191003e+00 -1.3203860656e-01
   endloop
 endfacet
 facet normal  -2.5537795496e-01 -1.1848776959e-01 -9.5955341101e-01
   outer loop
     vertex 1.4190583905e+00 -1.9892191003e+00 -1.3203860656e-01
     vertex 2.3864103940e+00 -4.3953357242e+00 -9.2379515866e-02
     vertex 9.2293845199e-01 -1.9892191003e+00 0.0000000000e+00
   endloop
 endfacet
 facet normal  -2.5537795496e-01 -1.1848776959e-01 -9.5955341101e-01
   outer loop
     vertex 2.3864103940e+00 -4.3953357242e+00 -9.2379515866e-02
     vertex 2.0393049457e+00 -4.3953357242e+00 0.0000000000e+00
     vertex 9.2293845199e-01 -1.9892191003e+00 0.0000000000e+00
   endloop
 endfacet
 facet normal  -3.9926493445e-01 -1.8524704517e-01 8.9792596820e-01
   outer loop
     vertex 9.2293845199e-01 -1.9892191003e+00 0.0000000000e+00
     vertex 2.0393049457e+00 -4.3953357242e+00 0.0000000000e+00
     vertex 2.3705539599e+00 -4.3953357242e+00 1.4729066834e-01
   endloop
 endfacet
 facet normal  -3.9926493445e-01 -1.8524704517e-01 8.9792596820e-01
   outer loop
     vertex 9.2293845199e-01 -1.9892191003e+00 0.0000000000e+00
     vertex 2.3705539599e+00 -4.3953357242e+00 1.4729066834e-01
     vertex 1.3963946924e+00 -1.9892191003e+00 2.1052345236e-01
   endloop
 endfacet
 facet normal  -4.7509110836e-02 -4.5458054863e-02 9.9783588312e-01
   outer loop
     vertex 1.3963946924e+00 -1.9892191003e+00 2.1052345236e-01
     vertex 2.3705539599e+00 -4.3953357242e+00 1.4729066834e-01
     vertex 2.9437638607e+00 -4.3953357242e+00 1.7458242360e-01
   endloop
 endfacet
 facet normal  -4.7509110836e-02 -4.5458054863e-02 9.9783588312e-01
   outer loop
     vertex 1.3963946924e+00 -1.9892191003e+00 2.1052345236e-01
     vertex 2.9437638607e+00 -4.3953357242e+00 1.7458242360e-01
     vertex 2.2156871065e+00 -1.9892191003e+00 2.4953172493e-01
   endloop
 endfacet
 facet normal  9.1533158814e-02 -3.3211549204e-03 9.9579649064e-01
   outer loop
     vertex 2.2156871065e+00 -1.9892191003e+00 2.4953172493e-01
     vertex 2.9437638607e+00 -4.3953357242e+00 1.7458242360e-01
     vertex 3.2085168038e+00 -1.9892191003e+00 1.5827127240e-01
   endloop
 endfacet
 facet normal  9.1533158814e-02 -3.3211549204e-03 9.9579649064e-01
   outer loop
     vertex 2.9437638607e+00 -4.3953357242e+00 1.7458242360e-01
     vertex 3.6383874194e+00 -4.3953357242e+00 1.1073294319e-01
     vertex 3.2085168038e+00 -1.9892191003e+00 1.5827127240e-01
   endloop
 endfacet
 facet normal  1.6976029409e-01 1.0859605782e-02 9.8542554844e-01
   outer loop
     vertex 3.2085168038e+00 -1.9892191003e+00 1.5827127240e-01
     vertex 3.6383874194e+00 -4.3953357242e+00 1.1073294319e-01
     vertex 4.1272508119e+00 -1.9892191003e+00 0.0000000000e+00
   endloop
 endfacet
 facet normal  1.6976029409e-01 1.0859605782e-02 9.8542554844e-01
   outer loop
     vertex 3.6383874194e+00 -4.3953357242e+00 1.1073294319e-01
     vertex 4.2811706560e+00 -4.3953357242e+00 0.0000000000e+00
     vertex 4.1272508119e+00 -1.9892191003e+00 0.0000000000e+00
   endloop
 endfacet
 facet normal  6.9768839923e-02 4.4631290344e-03 -9.9755320132e-01
   outer loop
     vertex 4.2811706560e+00 -4.3953357242e+00 0.0000000000e+00
     vertex 4.4264682284e+00 -6.6666666667e+00 0.0000000000e+00
     vertex 4.0449012689e+00 -6.6666666667e+00 -2.6686781304e-02
   endloop
 endfacet
 facet normal  6.9768839923e-02 4.4631290344e-03 -9.9755320132e-01
   outer loop
     vertex 4.2811706560e+00 -4.3953357242e+00 0.0000000000e+00
     vertex 4.0449012689e+00 -6.6666666667e+00 -2.6686781304e-02
     vertex 3.6396042438e+00 -4.3953357242e+00 -4.4871134944e-02
   endloop
 endfacet
 facet normal  5.7662201614e-02 2.2965694199e-03 -9.9833350954e-01
   outer loop
     vertex 3.6396042438e+00 -4.3953357242e+00 -4.4871134944e-02
     vertex 4.0449012689e+00 -6.6666666667e+00 -2.6686781304e-02
     vertex 3.6364568822e+00 -6.6666666667e+00 -5.0277898245e-02
   endloop
 endfacet
 facet normal  5.7662201614e-02 2.2965694199e-03 -9.9833350954e-01
   outer loop
     vertex 3.6396042438e+00 -4.3953357242e+00 -4.4871134944e-02
     vertex 3.6364568822e+00 -6.6666666667e+00 -5.0277898245e-02
     vertex 2.9528461451e+00 -4.3953357242e+00 -8.4537222046e-02
   endloop
 endfacet
 facet normal  1.3842832476e-02 -1.0914698025e-02 -9.9984461061e-01
   outer loop
     vertex 2.9528461451e+00 -4.3953357242e+00 -8.4537222046e-02
     vertex 3.6364568822e+00 -6.6666666667e+00 -5.0277898245e-02
     vertex 2.3864103940e+00 -4.3953357242e+00 -9.2379515866e-02
   endloop
 endfacet
 facet normal  1.3842832476e-02 -1.0914698025e-02 -9.9984461061e-01
   outer loop
     vertex 3.6364568822e+00 -6.6666666667e+00 -5.0277898245e-02
     vertex 3.2995733371e+00 -6.6666666667e+00 -5.4942045483e-02
     vertex 2.3864103940e+00 -4.3953357242e+00 -9.2379515866e-02
   endloop
 endfacet
 facet normal  -2.5537795496e-01 -1.1848776959e-01 -9.5955341101e-01
   outer loop
     vertex 2.3864103940e+00 -4.3953357242e+00 -9.2379515866e-02
     vertex 3.2995733371e+00 -6.6666666667e+00 -5.4942045483e-02
     vertex 2.0393049457e+00 -4.3953357242e+00 0.0000000000e+00
   endloop
 endfacet
 facet normal  -2.5537795496e-01 -1.1848776959e-01 -9.5955341101e-01
   outer loop
     vertex 3.2995733371e+00 -6.6666666667e+00 -5.4942045483e-02
     vertex 3.0931348951e+00 -6.6666666667e+00 0.0000000000e+00
     vertex 2.0393049457e+00 -4.3953357242e+00 0.0000000000e+00
   endloop
 endfacet
 facet normal  -3.9926493445e-01 -1.8524704517e-01 8.9792596820e-01
   outer loop
     vertex 2.0393049457e+00 -4.3953357242e+00 0.0000000000e+00
     vertex 3.0931348951e+00 -6.6666666667e+00 0.0000000000e+00
     vertex 3.2901428382e+00 -6.6666666667e+00 8.7600054224e-02
   endloop
 endfacet
 facet normal  -3.9926493445e-01 -1.8524704517e-01 8.9792596820e-01
   outer loop
     vertex 2.0393049457e+00 -4.3953357242e+00 0.0000000000e+00
     vertex 3.2901428382e+00 -6.6666666667e+00 8.7600054224e-02
     vertex 2.3705539599e+00 -4.3953357242e+00 1.4729066834e-01
   endloop
 endfacet
 facet normal  -4.7509110836e-02 -4.5458054863e-02 9.9783588312e-01
   outer loop
     vertex 2.3705539599e+00 -4.3953357242e+00 1.4729066834e-01
     vertex 3.2901428382e+00 -6.6666666667e+00 8.7600054224e-02
     vertex 3.6310552596e+00 -6.6666666667e+00 1.0383162726e-01
   endloop
 endfacet
 facet normal  -4.7509110836e-02 -4.5458054863e-02 9.9783588312e-01
   outer loop
     vertex 2.3705539599e+00 -4.3953357242e+00 1.4729066834e-01
     vertex 3.6310552596e+00 -6.6666666667e+00 1.0383162726e-01
     vertex 2.9437638607e+00 -4.3953357242e+00 1.7458242360e-01
   endloop
 endfacet
 facet normal  9.1533158814e-02 -3.3211549204e-03 9.9579649064e-01
   outer loop
     vertex 2.9437638607e+00 -4.3953357242e+00 1.7458242360e-01
     vertex 3.6310552596e+00 -6.6666666667e+00 1.0383162726e-01
     vertex 3.6383874194e+00 -4.3953357242e+00 1.1073294319e-01
   endloop
 endfacet
 facet normal  9.1533158814e-02 -3.3211549204e-03 9.9579649064e-01
   outer loop
     vertex 3.6310552596e+00 -6.6666666667e+00 1.0383162726e-01
     vertex 4.0441775714e+00 -6.6666666667e+00 6.5857612960e-02
     vertex 3.6383874194e+00 -4.3953357242e+00 1.1073294319e-01
   endloop
 endfacet
 facet normal  1.6976029409e-01 1.0859605782e-02 9.8542554844e-01
   outer loop
     vertex 3.6383874194e+00 -4.3953357242e+00 1.1073294319e-01
     vertex 4.0441775714e+00 -6.6666666667e+00 6.5857612960e-02
     vertex 4.2811706560e+00 -4.3953357242e+00 0.0000000000e+00
   endloop
 endfacet
 facet normal  1.6976029409e-01 1.0859605782e-02 9.8542554844e-01
   outer loop
     vertex 4.0441775714e+00 -6.6666666667e+00 6.5857612960e-02
     vertex 4.4264682284e+00 -6.6666666667e+00 0.0000000000e+00
     vertex 4.2811706560e+00 -4.3953357242e+00 0.0000000000e+00
   endloop
 endfacet
 facet normal  6.9768839923e-02 4.4631290344e-03 -9.9755320132e-01
   outer loop
     vertex 4.4264682284e+00 -6.6666666667e+00 0.0000000000e+00
     vertex 4.5348426682e+00 -8.3608052137e+00 0.0000000000e+00
     vertex 4.3472038969e+00 -8.3608052137e+00 -1.3123449833e-02
   endloop
 endfacet
 facet normal  6.9768839923e-02 4.4631290344e-03 -9.9755320132e-01
   outer loop
     vertex 4.4264682284e+00 -6.6666666667e+00 0.0000000000e+00
     vertex 4.3472038969e+00 -8.3608052137e+00 -1.3123449833e-02
     vertex 4.0449012689e+00 -6.6666666667e+00 -2.6686781304e-02
   endloop
 endfacet
 facet normal  5.7662201614e-02 2.2965694199e-03 -9.9833350954e-01
   outer loop
     vertex 4.0449012689e+00 -6.6666666667e+00 -2.6686781304e-02
     vertex 4.3472038969e+00 -8.3608052137e+00 -1.3123449833e-02
     vertex 4.1463479242e+00 -8.3608052137e+00 -2.4724580601e-02
   endloop
 endfacet
 facet normal  5.7662201614e-02 2.2965694199e-03 -9.9833350954e-01
   outer loop
     vertex 4.0449012689e+00 -6.6666666667e+00 -2.6686781304e-02
     vertex 4.1463479242e+00 -8.3608052137e+00 -2.4724580601e-02
     vertex 3.6364568822e+00 -6.6666666667e+00 -5.0277898245e-02
   endloop
 endfacet
 facet normal  1.3842832476e-02 -1.0914698025e-02 -9.9984461061e-01
   outer loop
     vertex 3.6364568822e+00 -6.6666666667e+00 -5.0277898245e-02
     vertex 4.1463479242e+00 -8.3608052137e+00 -2.4724580601e-02
     vertex 3.2995733371e+00 -6.6666666667e+00 -5.4942045483e-02
   endloop
 endfacet
 facet normal  1.3842832476e-02 -1.0914698025e-02 -9.9984461061e-01
   outer loop
     vertex 4.1463479242e+00 -8.3608052137e+00 -2.4724580601e-02
     vertex 3.9806825990e+00 -8.3608052137e+00 -2.7018214351e-02
     vertex 3.2995733371e+00 -6.6666666667e+00 -5.4942045483e-02
   endloop
 endfacet
 facet normal  -2.5537795496e-01 -1.1848776959e-01 -9.5955341101e-01
   outer loop
     vertex 3.2995733371e+00 -6.6666666667e+00 -5.4942045483e-02
     vertex 3.9806825990e+00 -8.3608052137e+00 -2.7018214351e-02
     vertex 3.0931348951e+00 -6.6666666667e+00 0.0000000000e+00
   endloop
 endfacet
 facet normal  -2.5537795496e-01 -1.1848776959e-01 -9.5955341101e-01
   outer loop
     vertex 3.9806825990e+00 -8.3608052137e+00 -2.7018214351e-02
     vertex 3.8791647537e+00 -8.3608052137e+00 0.0000000000e+00
     vertex 3.0931348951e+00 -6.6666666667e+00 0.0000000000e+00
   endloop
 endfacet
 facet normal  -3.9926493445e-01 -1.8524704517e-01 8.9792596820e-01
   outer loop
     vertex 3.0931348951e+00 -6.6666666667e+00 0.0000000000e+00
     vertex 3.8791647537e+00 -8.3608052137e+00 0.0000000000e+00
     vertex 3.9760450716e+00 -8.3608052137e+00 4.3078065649e-02
   endloop
 endfacet
 facet normal  -3.9926493445e-01 -1.8524704517e-01 8.9792596820e-01
   outer loop
     vertex 3.0931348951e+00 -6.6666666667e+00 0.0000000000e+00
     vertex 3.9760450716e+00 -8.3608052137e+00 4.3078065649e-02
     vertex 3.2901428382e+00 -6.6666666667e+00 8.7600054224e-02
   endloop
 endfacet
 facet normal  -4.7509110836e-02 -4.5458054863e-02 9.9783588312e-01
   outer loop
     vertex 3.2901428382e+00 -6.6666666667e+00 8.7600054224e-02
     vertex 3.9760450716e+00 -8.3608052137e+00 4.3078065649e-02
     vertex 4.1436916307e+00 -8.3608052137e+00 5.1060078616e-02
   endloop
 endfacet
 facet normal  -4.7509110836e-02 -4.5458054863e-02 9.9783588312e-01
   outer loop
     vertex 3.2901428382e+00 -6.6666666667e+00 8.7600054224e-02
     vertex 4.1436916307e+00 -8.3608052137e+00 5.1060078616e-02
     vertex 3.6310552596e+00 -6.6666666667e+00 1.0383162726e-01
   endloop
 endfacet
 facet normal  9.1533158814e-02 -3.3211549204e-03 9.9579649064e-01
   outer loop
     vertex 3.6310552596e+00 -6.6666666667e+00 1.0383162726e-01
     vertex 4.1436916307e+00 -8.3608052137e+00 5.1060078616e-02
     vertex 4.0441775714e+00 -6.6666666667e+00 6.5857612960e-02
   endloop
 endfacet
 facet normal  9.1533158814e-02 -3.3211549204e-03 9.9579649064e-01
   outer loop
     vertex 4.1436916307e+00 -8.3608052137e+00 5.1060078616e-02
     vertex 4.3468480126e+00 -8.3608052137e+00 3.2386036740e-02
     vertex 4.0441775714e+00 -6.6666666667e+00 6.5857612960e-02
   endloop
 endfacet
 facet normal  1.6976029409e-01 1.0859605782e-02 9.8542554844e-01
   outer loop
     vertex 4.0441775714e+00 -6.6666666667e+00 6.5857612960e-02
     vertex 4.3468480126e+00 -8.3608052137e+00 3.2386036740e-02
     vertex 4.4264682284e+00 -6.6666666667e+00 0.0000000000e+00
   endloop
 endfacet
 facet normal  1.6976029409e-01 1.0859605782e-02 9.8542554844e-01
   outer loop
     vertex 4.3468480126e+00 -8.3608052137e+00 3.2386036740e-02
     vertex 4.5348426682e+00 -8.3608052137e+00 0.0000000000e+00
     vertex 4.4264682284e+00 -6.6666666667e+00 0.0000000000e+00
   endloop
 endfacet
 facet normal  6.9768839923e-02 4.4631290344e-03 -9.9755320132e-01
   outer loop
     vertex 4.5348426682e+00 -8.3608052137e+00 0.0000000000e+00
     vertex 4.6023112018e+00 -9.4154915758e+00 0.0000000000e+00
     vertex 4.5354024712e+00 -9.4154915758e+00 -4.6795945463e-03
   endloop
 endfacet
 facet normal  6.9768839923e-02 4.4631290344e-03 -9.9755320132e-01
   outer loop
     vertex 4.5348426682e+00 -8.3608052137e+00 0.0000000000e+00
     vertex 4.5354024712e+00 -9.4154915758e+00 -4.6795945463e-03
     vertex 4.3472038969e+00 -8.3608052137e+00 -1.3123449833e-02
   endloop
 endfacet
 facet normal  5.7662201614e-02 2.2965694199e-03 -9.9833350954e-01
   outer loop
     vertex 4.3472038969e+00 -8.3608052137e+00 -1.3123449833e-02
     vertex 4.5354024712e+00 -9.4154915758e+00 -4.6795945463e-03
     vertex 4.4637807157e+00 -9.4154915758e+00 -8.8163565228e-03
   endloop
 endfacet
 facet normal  5.7662201614e-02 2.2965694199e-03 -9.9833350954e-01
   outer loop
     vertex 4.3472038969e+00 -8.3608052137e+00 -1.3123449833e-02
     vertex 4.4637807157e+00 -9.4154915758e+00 -8.8163565228e-03
     vertex 4.1463479242e+00 -8.3608052137e+00 -2.4724580601e-02
   endloop
 endfacet
 facet normal  1.3842832476e-02 -1.0914698025e-02 -9.9984461061e-01
   outer loop
     vertex 4.1463479242e+00 -8.3608052137e+00 -2.4724580601e-02
     vertex 4.4637807157e+00 -9.4154915758e+00 -8.8163565228e-03
     vertex 3.9806825990e+00 -8.3608052137e+00 -2.7018214351e-02
   endloop
 endfacet
 facet normal  1.3842832476e-02 -1.0914698025e-02 -9.9984461061e-01
   outer loop
     vertex 4.4637807157e+00 -9.4154915758e+00 -8.8163565228e-03
     vertex 4.4047073347e+00 -9.4154915758e+00 -9.6342265285e-03
     vertex 3.9806825990e+00 -8.3608052137e+00 -2.7018214351e-02
   endloop
 endfacet
 facet normal  -2.5537795496e-01 -1.1848776959e-01 -9.5955341101e-01
   outer loop
     vertex 3.9806825990e+00 -8.3608052137e+00 -2.7018214351e-02
     vertex 4.4047073347e+00 -9.4154915758e+00 -9.6342265285e-03
     vertex 3.8791647537e+00 -8.3608052137e+00 0.0000000000e+00
   endloop
 endfacet
 facet normal  -2.5537795496e-01 -1.1848776959e-01 -9.5955341101e-01
   outer loop
     vertex 4.4047073347e+00 -9.4154915758e+00 -9.6342265285e-03
     vertex 4.3685078321e+00 -9.4154915758e+00 0.0000000000e+00
     vertex 3.8791647537e+00 -8.3608052137e+00 0.0000000000e+00
   endloop
 endfacet
 facet normal  -3.9926493445e-01 -1.8524704517e-01 8.9792596820e-01
   outer loop
     vertex 3.8791647537e+00 -8.3608052137e+00 0.0000000000e+00
     vertex 4.3685078321e+00 -9.4154915758e+00 0.0000000000e+00
     vertex 4.4030536729e+00 -9.4154915758e+00 1.5360890897e-02
   endloop
 endfacet
 facet normal  -3.9926493445e-01 -1.8524704517e-01 8.9792596820e-01
   outer loop
     vertex 3.8791647537e+00 -8.3608052137e+00 0.0000000000e+00
     vertex 4.4030536729e+00 -9.4154915758e+00 1.5360890897e-02
     vertex 3.9760450716e+00 -8.3608052137e+00 4.3078065649e-02
   endloop
 endfacet
 facet normal  -4.7509110836e-02 -4.5458054863e-02 9.9783588312e-01
   outer loop
     vertex 3.9760450716e+00 -8.3608052137e+00 4.3078065649e-02
     vertex 4.4030536729e+00 -9.4154915758e+00 1.5360890897e-02
     vertex 4.4628335275e+00 -9.4154915758e+00 1.8207138250e-02
   endloop
 endfacet
 facet normal  -4.7509110836e-02 -4.5458054863e-02 9.9783588312e-01
   outer loop
     vertex 3.9760450716e+00 -8.3608052137e+00 4.3078065649e-02
     vertex 4.4628335275e+00 -9.4154915758e+00 1.8207138250e-02
     vertex 4.1436916307e+00 -8.3608052137e+00 5.1060078616e-02
   endloop
 endfacet
 facet normal  9.1533158814e-02 -3.3211549204e-03 9.9579649064e-01
   outer loop
     vertex 4.1436916307e+00 -8.3608052137e+00 5.1060078616e-02
     vertex 4.4628335275e+00 -9.4154915758e+00 1.8207138250e-02
     vertex 4.3468480126e+00 -8.3608052137e+00 3.2386036740e-02
   endloop
 endfacet
 facet normal  9.1533158814e-02 -3.3211549204e-03 9.9579649064e-01
   outer loop
     vertex 4.4628335275e+00 -9.4154915758e+00 1.8207138250e-02
     vertex 4.5352755690e+00 -9.4154915758e+00 1.1548298872e-02
     vertex 4.3468480126e+00 -8.3608052137e+00 3.2386036740e-02
   endloop
 endfacet
 facet normal  1.6976029409e-01 1.0859605782e-02 9.8542554844e-01
   outer loop
     vertex 4.3468480126e+00 -8.3608052137e+00 3.2386036740e-02
     vertex 4.5352755690e+00 -9.4154915758e+00 1.1548298872e-02
     vertex 4.5348426682e+00 -8.3608052137e+00 0.0000000000e+00
   endloop
 endfacet
 facet normal  1.6976029409e-01 1.0859605782e-02 9.8542554844e-01
   outer loop
     vertex 4.5352755690e+00 -9.4154915758e+00 1.1548298872e-02
     vertex 4.6023112018e+00 -9.4154915758e+00 0.0000000000e+00
     vertex 4.5348426682e+00 -8.3608052137e+00 0.0000000000e+00
   endloop
 endfacet
 facet normal  6.9768839923e-02 4.4631290344e-03 -9.9755320132e-01
   outer loop
     vertex 4.6023112018e+00 -9.4154915758e+00 0.0000000000e+00
     vertex 4.6397023427e+00 -1.0000000000e+01 0.0000000000e+00
     vertex 4.5354024712e+00 -9.4154915758e+00 -4.6795945463e-03
   endloop
 endfacet
 facet normal  5.7662201614e-02 2.2965694199e-03 -9.9833350954e-01
   outer loop
     vertex 4.5354024712e+00 -9.4154915758e+00 -4.6795945463e-03
     vertex 4.6397023427e+00 -1.0000000000e+01 0.0000000000e+00
     vertex 4.4637807157e+00 -9.4154915758e+00 -8.8163565228e-03
   endloop
 endfacet
 facet normal  1.3842832476e-02 -1.0914698025e-02 -9.9984461061e-01
   outer loop
     vertex 4.4637807157e+00 -9.4154915758e+00 -8.8163565228e-03
     vertex 4.6397023427e+00 -1.0000000000e+01 0.0000000000e+00
     vertex 4.4047073347e+00 -9.4154915758e+00 -9.6342265285e-03
   endloop
 endfacet
 facet normal  -2.5537795496e-01 -1.1848776959e-01 -9.5955341101e-01
   outer loop
     vertex 4.4047073347e+00 -9.4154915758e+00 -9.6342265285e-03
     vertex 4.6397023427e+00 -1.0000000000e+01 0.0000000000e+00
     vertex 4.3685078321e+00 -9.4154915758e+00 0.0000000000e+00
   endloop
 endfacet
 facet normal  -3.9926493445e-01 -1.8524704517e-01 8.9792596820e-01
   outer loop
     vertex 4.3685078321e+00 -9.4154915758e+00 0.0000000000e+00
     vertex 4.6397023427e+00 -1.0000000000e+01 0.0000000000e+00
     vertex 4.4030536729e+00 -9.4154915758e+00 1.5360890897e-02
   endloop
 endfacet
 facet normal  -4.7509110836e-02 -4.5458054863e-02 9.9783588312e-01
   outer loop
     vertex 4.4030536729e+00 -9.4154915758e+00 1.5360890897e-02
     vertex 4.6397023427e+00 -1.0000000000e+01 0.0000000000e+00
     vertex 4.4628335275e+00 -9.4154915758e+00 1.8207138250e-02
   endloop
 endfacet
 facet normal  9.1533158814e-02 -3.3211549204e-03 9.9579649064e-01
   outer loop
     vertex 4.4628335275e+00 -9.4154915758e+00 1.8207138250e-02
     vertex 4.6397023427e+00 -1.0000000000e+01 0.0000000000e+00
     vertex 4.5352755690e+00 -9.4154915758e+00 1.1548298872e-02
   endloop
 endfacet
 facet normal  1.6976029409e-01 1.0859605782e-02 9.8542554844e-01
   outer loop
     vertex 4.5352755690e+00 -9.4154915758e+00 1.1548298872e-02
     vertex 4.6397023427e+00 -1.0000000000e+01 0.0000000000e+00
     vertex 4.6023112018e+00 -9.4154915758e+00 0.0000000000e+00
   endloop
 endfacet
endsolid
