solid
 facet normal  6.3512976401e-02 -4.0629399793e-03 -9.9797274229e-01
   outer loop
     vertex 4.0000000000e+00 0.0000000000e+00 0.0000000000e+00
     vertex 2.5843838293e+00 3.1711012094e+00 -1.0300280356e-01
     vertex 4.2028560872e+00 3.1711012094e+00 0.0000000000e+00
   endloop
 endfacet
 facet normal  6.3512976401e-02 -4.0629399793e-03 -9.9797274229e-01
   outer loop
     vertex 4.0000000000e+00 0.0000000000e+00 0.0000000000e+00
     vertex 1.6299659614e+00 0.0000000000e+00 -1.5083369473e-01
     vertex 2.5843838293e+00 3.1711012094e+00 -1.0300280356e-01
   endloop
 endfacet
 facet normal  -9.2060161327e-02 4.2713174617e-02 -9.9483692704e-01
   outer loop
     vertex 1.6299659614e+00 0.0000000000e+00 -1.5083369473e-01
     vertex 0.0000000000e+00 0.0000000000e+00 0.0000000000e+00
     vertex 2.5843838293e+00 3.1711012094e+00 -1.0300280356e-01
   endloop
 endfacet
 facet normal  -9.2060161327e-02 4.2713174617e-02 -9.9483692704e-01
   outer loop
     vertex 2.5843838293e+00 3.1711012094e+00 -1.0300280356e-01
     vertex 0.0000000000e+00 0.0000000000e+00 0.0000000000e+00
     vertex 1.4712965710e+00 3.1711012094e+00 0.0000000000e+00
   endloop
 endfacet
 facet normal  -1.8879721750e-01 8.7596289234e-02 9.7810147775e-01
   outer loop
     vertex 0.0000000000e+00 0.0000000000e+00 0.0000000000e+00
     vertex 2.5733176890e+00 3.1711012094e+00 2.1271670214e-01
     vertex 1.4712965710e+00 3.1711012094e+00 0.0000000000e+00
   endloop
 endfacet
 facet normal  -1.8879721750e-01 8.7596289234e-02 9.7810147775e-01
   outer loop
     vertex 0.0000000000e+00 0.0000000000e+00 0.0000000000e+00
     vertex 1.6137610935e+00 0.0000000000e+00 3.1149488177e-01
     vertex 2.5733176890e+00 3.1711012094e+00 2.1271670214e-01
   endloop
 endfacet
 facet normal  1.2943539431e-01 -8.2800124962e-03 9.9155328656e-01
   outer loop
     vertex 1.6137610935e+00 0.0000000000e+00 3.1149488177e-01
     vertex 4.0000000000e+00 0.0000000000e+00 0.0000000000e+00
     vertex 2.5733176890e+00 3.1711012094e+00 2.1271670214e-01
   endloop
 endfacet
 facet normal  1.2943539431e-01 -8.2800124962e-03 9.9155328656e-01
   outer loop
     vertex 2.5733176890e+00 3.1711012094e+00 2.1271670214e-01
     vertex 4.0000000000e+00 0.0000000000e+00 0.0000000000e+00
     vertex 4.2028560872e+00 3.1711012094e+00 0.0000000000e+00
   endloop
 endfacet
 facet normal  6.3512976401e-02 -4.0629399793e-03 -9.9797274229e-01
   outer loop
     vertex 4.2028560872e+00 3.1711012094e+00 0.0000000000e+00
     vertex 3.6364568822e+00 6.6666666667e+00 -5.0277898245e-02
     vertex 4.4264682284e+00 6.6666666667e+00 0.0000000000e+00
   endloop
 endfacet
 facet normal  6.3512976401e-02 -4.0629399793e-03 -9.9797274229e-01
   outer loop
     vertex 4.2028560872e+00 3.1711012094e+00 0.0000000000e+00
     vertex 2.5843838293e+00 3.1711012094e+00 -1.0300280356e-01
     vertex 3.6364568822e+00 6.6666666667e+00 -5.0277898245e-02
   endloop
 endfacet
 facet normal  -9.2060161327e-02 4.2713174617e-02 -9.9483692704e-01
   outer loop
     vertex 2.5843838293e+00 3.1711012094e+00 -1.0300280356e-01
     vertex 1.4712965710e+00 3.1711012094e+00 0.0000000000e+00
     vertex 3.6364568822e+00 6.6666666667e+00 -5.0277898245e-02
   endloop
 endfacet
 facet normal  -9.2060161327e-02 4.2713174617e-02 -9.9483692704e-01
   outer loop
     vertex 3.6364568822e+00 6.6666666667e+00 -5.0277898245e-02
     vertex 1.4712965710e+00 3.1711012094e+00 0.0000000000e+00
     vertex 3.0931348951e+00 6.6666666667e+00 0.0000000000e+00
   endloop
 endfacet
 facet normal  -1.8879721750e-01 8.7596289234e-02 9.7810147775e-01
   outer loop
     vertex 1.4712965710e+00 3.1711012094e+00 0.0000000000e+00
     vertex 3.6310552596e+00 6.6666666667e+00 1.0383162726e-01
     vertex 3.0931348951e+00 6.6666666667e+00 0.0000000000e+00
   endloop
 endfacet
 facet normal  -1.8879721750e-01 8.7596289234e-02 9.7810147775e-01
   outer loop
     vertex 1.4712965710e+00 3.1711012094e+00 0.0000000000e+00
     vertex 2.5733176890e+00 3.1711012094e+00 2.1271670214e-01
     vertex 3.6310552596e+00 6.6666666667e+00 1.0383162726e-01
   endloop
 endfacet
 facet normal  1.2943539431e-01 -8.2800124962e-03 9.9155328656e-01
   outer loop
     vertex 2.5733176890e+00 3.1711012094e+00 2.1271670214e-01
     vertex 4.2028560872e+00 3.1711012094e+00 0.0000000000e+00
     vertex 3.6310552596e+00 6.6666666667e+00 1.0383162726e-01
   endloop
 endfacet
 facet normal  1.2943539431e-01 -8.2800124962e-03 9.9155328656e-01
   outer loop
     vertex 3.6310552596e+00 6.6666666667e+00 1.0383162726e-01
     vertex 4.2028560872e+00 3.1711012094e+00 0.0000000000e+00
     vertex 4.4264682284e+00 6.6666666667e+00 0.0000000000e+00
   endloop
 endfacet
 facet normal  6.3512976401e-02 -4.0629399793e-03 -9.9797274229e-01
   outer loop
     vertex 4.4264682284e+00 6.6666666667e+00 0.0000000000e+00
     vertex 4.3266418994e+00 8.9598409842e+00 -1.5689102747e-02
     vertex 4.5731631267e+00 8.9598409842e+00 0.0000000000e+00
   endloop
 endfacet
 facet normal  6.3512976401e-02 -4.0629399793e-03 -9.9797274229e-01
   outer loop
     vertex 4.4264682284e+00 6.6666666667e+00 0.0000000000e+00
     vertex 3.6364568822e+00 6.6666666667e+00 -5.0277898245e-02
     vertex 4.3266418994e+00 8.9598409842e+00 -1.5689102747e-02
   endloop
 endfacet
 facet normal  -9.2060161327e-02 4.2713174617e-02 -9.9483692704e-01
   outer loop
     vertex 3.6364568822e+00 6.6666666667e+00 -5.0277898245e-02
     vertex 3.0931348951e+00 6.6666666667e+00 0.0000000000e+00
     vertex 4.3266418994e+00 8.9598409842e+00 -1.5689102747e-02
   endloop
 endfacet
 facet normal  -9.2060161327e-02 4.2713174617e-02 -9.9483692704e-01
   outer loop
     vertex 4.3266418994e+00 8.9598409842e+00 -1.5689102747e-02
     vertex 3.0931348951e+00 6.6666666667e+00 0.0000000000e+00
     vertex 4.1570995204e+00 8.9598409842e+00 0.0000000000e+00
   endloop
 endfacet
 facet normal  -1.8879721750e-01 8.7596289234e-02 9.7810147775e-01
   outer loop
     vertex 3.0931348951e+00 6.6666666667e+00 0.0000000000e+00
     vertex 4.3249563355e+00 8.9598409842e+00 3.2400420966e-02
     vertex 4.1570995204e+00 8.9598409842e+00 0.0000000000e+00
   endloop
 endfacet
 facet normal  -1.8879721750e-01 8.7596289234e-02 9.7810147775e-01
   outer loop
     vertex 3.0931348951e+00 6.6666666667e+00 0.0000000000e+00
     vertex 3.6310552596e+00 6.6666666667e+00 1.0383162726e-01
     vertex 4.3249563355e+00 8.9598409842e+00 3.2400420966e-02
   endloop
 endfacet
 facet normal  1.2943539431e-01 -8.2800124962e-03 9.9155328656e-01
   outer loop
     vertex 3.6310552596e+00 6.6666666667e+00 1.0383162726e-01
     vertex 4.4264682284e+00 6.6666666667e+00 0.0000000000e+00
     vertex 4.3249563355e+00 8.9598409842e+00 3.2400420966e-02
   endloop
 endfacet
 facet normal  1.2943539431e-01 -8.2800124962e-03 9.9155328656e-01
   outer loop
     vertex 4.3249563355e+00 8.9598409842e+00 3.2400420966e-02
     vertex 4.4264682284e+00 6.6666666667e+00 0.0000000000e+00
     vertex 4.5731631267e+00 8.9598409842e+00 0.0000000000e+00
   endloop
 endfacet
 facet normal  6.3512976401e-02 -4.0629399793e-03 -9.9797274229e-01
   outer loop
     vertex 4.5731631267e+00 8.9598409842e+00 0.0000000000e+00
     vertex 4.3266418994e+00 8.9598409842e+00 -1.5689102747e-02
     vertex 4.6397023427e+00 1.0000000000e+01 0.0000000000e+00
   endloop
 endfacet
 facet normal  -9.2060161327e-02 4.2713174617e-02 -9.9483692704e-01
   outer loop
     vertex 4.3266418994e+00 8.9598409842e+00 -1.5689102747e-02
     vertex 4.1570995204e+00 8.9598409842e+00 0.0000000000e+00
     vertex 4.6397023427e+00 1.0000000000e+01 0.0000000000e+00
   endloop
 endfacet
 facet normal  -1.8879721750e-01 8.7596289234e-02 9.7810147775e-01
   outer loop
     vertex 4.1570995204e+00 8.9598409842e+00 0.0000000000e+00
     vertex 4.3249563355e+00 8.9598409842e+00 3.2400420966e-02
     vertex 4.6397023427e+00 1.0000000000e+01 0.0000000000e+00
   endloop
 endfacet
 facet normal  1.2943539431e-01 -8.2800124962e-03 9.9155328656e-01
   outer loop
     vertex 4.3249563355e+00 8.9598409842e+00 3.2400420966e-02
     vertex 4.5731631267e+00 8.9598409842e+00 0.0000000000e+00
     vertex 4.6397023427e+00 1.0000000000e+01 0.0000000000e+00
   endloop
 endfacet
 facet normal  6.3512976401e-02 4.0629399793e-03 -9.9797274229e-01
   outer loop
     vertex 4.0000000000e+00 0.0000000000e+00 0.0000000000e+00
     vertex 4.2028560872e+00 -3.1711012094e+00 0.0000000000e+00
     vertex 2.5843838293e+00 -3.1711012094e+00 -1.0300280356e-01
   endloop
 endfacet
 facet normal  6.3512976401e-02 4.0629399793e-03 -9.9797274229e-01
   outer loop
     vertex 4.0000000000e+00 0.0000000000e+00 0.0000000000e+00
     vertex 2.5843838293e+00 -3.1711012094e+00 -1.0300280356e-01
     vertex 1.6299659614e+00 0.0000000000e+00 -1.5083369473e-01
   endloop
 endfacet
 facet normal  -9.2060161327e-02 -4.2713174617e-02 -9.9483692704e-01
   outer loop
     vertex 1.6299659614e+00 0.0000000000e+00 -1.5083369473e-01
     vertex 2.5843838293e+00 -3.1711012094e+00 -1.0300280356e-01
     vertex 0.0000000000e+00 0.0000000000e+00 0.0000000000e+00
   endloop
 endfacet
 facet normal  -9.2060161327e-02 -4.2713174617e-02 -9.9483692704e-01
   outer loop
     vertex 2.5843838293e+00 -3.1711012094e+00 -1.0300280356e-01
     vertex 1.4712965710e+00 -3.1711012094e+00 0.0000000000e+00
     vertex 0.0000000000e+00 0.0000000000e+00 0.0000000000e+00
   endloop
 endfacet
 facet normal  -1.8879721750e-01 -8.7596289234e-02 9.7810147775e-01
   outer loop
     vertex 0.0000000000e+00 0.0000000000e+00 0.0000000000e+00
     vertex 1.4712965710e+00 -3.1711012094e+00 0.0000000000e+00
     vertex 2.5733176890e+00 -3.1711012094e+00 2.1271670214e-01
   endloop
 endfacet
 facet normal  -1.8879721750e-01 -8.7596289234e-02 9.7810147775e-01
   outer loop
     vertex 0.0000000000e+00 0.0000000000e+00 0.0000000000e+00
     vertex 2.5733176890e+00 -3.1711012094e+00 2.1271670214e-01
     vertex 1.6137610935e+00 0.0000000000e+00 3.1149488177e-01
   endloop
 endfacet
 facet normal  1.2943539431e-01 8.2800124962e-03 9.9155328656e-01
   outer loop
     vertex 1.6137610935e+00 0.0000000000e+00 3.1149488177e-01
     vertex 2.5733176890e+00 -3.1711012094e+00 2.1271670214e-01
     vertex 4.0000000000e+00 0.0000000000e+00 0.0000000000e+00
   endloop
 endfacet
 facet normal  1.2943539431e-01 8.2800124962e-03 9.9155328656e-01
   outer loop
     vertex 2.5733176890e+00 -3.1711012094e+00 2.1271670214e-01
     vertex 4.2028560872e+00 -3.1711012094e+00 0.0000000000e+00
     vertex 4.0000000000e+00 0.0000000000e+00 0.0000000000e+00
   endloop
 endfacet
 facet normal  6.3512976401e-02 4.0629399793e-03 -9.9797274229e-01
   outer loop
     vertex 4.2028560872e+00 -3.1711012094e+00 0.0000000000e+00
     vertex 4.4264682284e+00 -6.6666666667e+00 0.0000000000e+00
     vertex 3.6364568822e+00 -6.6666666667e+00 -5.0277898245e-02
   endloop
 endfacet
 facet normal  6.3512976401e-02 4.0629399793e-03 -9.9797274229e-01
   outer loop
     vertex 4.2028560872e+00 -3.1711012094e+00 0.0000000000e+00
     vertex 3.6364568822e+00 -6.6666666667e+00 -5.0277898245e-02
     vertex 2.5843838293e+00 -3.1711012094e+00 -1.0300280356e-01
   endloop
 endfacet
 facet normal  -9.2060161327e-02 -4.2713174617e-02 -9.9483692704e-01
   outer loop
     vertex 2.5843838293e+00 -3.1711012094e+00 -1.0300280356e-01
     vertex 3.6364568822e+00 -6.6666666667e+00 -5.0277898245e-02
     vertex 1.4712965710e+00 -3.1711012094e+00 0.0000000000e+00
   endloop
 endfacet
 facet normal  -9.2060161327e-02 -4.2713174617e-02 -9.9483692704e-01
   outer loop
     vertex 3.6364568822e+00 -6.6666666667e+00 -5.0277898245e-02
     vertex 3.0931348951e+00 -6.6666666667e+00 0.0000000000e+00
     vertex 1.4712965710e+00 -3.1711012094e+00 0.0000000000e+00
   endloop
 endfacet
 facet normal  -1.8879721750e-01 -8.7596289234e-02 9.7810147775e-01
   outer loop
     vertex 1.4712965710e+00 -3.1711012094e+00 0.0000000000e+00
     vertex 3.0931348951e+00 -6.6666666667e+00 0.0000000000e+00
     vertex 3.6310552596e+00 -6.6666666667e+00 1.0383162726e-01
   endloop
 endfacet
 facet normal  -1.8879721750e-01 -8.7596289234e-02 9.7810147775e-01
   outer loop
     vertex 1.4712965710e+00 -3.1711012094e+00 0.0000000000e+00
     vertex 3.6310552596e+00 -6.6666666667e+00 1.0383162726e-01
     vertex 2.5733176890e+00 -3.1711012094e+00 2.1271670214e-01
   endloop
 endfacet
 facet normal  1.2943539431e-01 8.2800124962e-03 9.9155328656e-01
   outer loop
     vertex 2.5733176890e+00 -3.1711012094e+00 2.1271670214e-01
     vertex 3.6310552596e+00 -6.6666666667e+00 1.0383162726e-01
     vertex 4.2028560872e+00 -3.1711012094e+00 0.0000000000e+00
   endloop
 endfacet
 facet normal  1.2943539431e-01 8.2800124962e-03 9.9155328656e-01
   outer loop
     vertex 3.6310552596e+00 -6.6666666667e+00 1.0383162726e-01
     vertex 4.4264682284e+00 -6.6666666667e+00 0.0000000000e+00
     vertex 4.2028560872e+00 -3.1711012094e+00 0.0000000000e+00
   endloop
 endfacet
 facet normal  6.3512976401e-02 4.0629399793e-03 -9.9797274229e-01
   outer loop
     vertex 4.4264682284e+00 -6.6666666667e+00 0.0000000000e+00
     vertex 4.5731631267e+00 -8.9598409842e+00 0.0000000000e+00
     vertex 4.3266418994e+00 -8.9598409842e+00 -1.5689102747e-02
   endloop
 endfacet
 facet normal  6.3512976401e-02 4.0629399793e-03 -9.9797274229e-01
   outer loop
     vertex 4.4264682284e+00 -6.6666666667e+00 0.0000000000e+00
     vertex 4.3266418994e+00 -8.9598409842e+00 -1.5689102747e-02
     vertex 3.6364568822e+00 -6.6666666667e+00 -5.0277898245e-02
   endloop
 endfacet
 facet normal  -9.2060161327e-02 -4.2713174617e-02 -9.9483692704e-01
   outer loop
     vertex 3.6364568822e+00 -6.6666666667e+00 -5.0277898245e-02
     vertex 4.3266418994e+00 -8.9598409842e+00 -1.5689102747e-02
     vertex 3.0931348951e+00 -6.6666666667e+00 0.0000000000e+00
   endloop
 endfacet
 facet normal  -9.2060161327e-02 -4.2713174617e-02 -9.9483692704e-01
   outer loop
     vertex 4.3266418994e+00 -8.9598409842e+00 -1.5689102747e-02
     vertex 4.1570995204e+00 -8.9598409842e+00 0.0000000000e+00
     vertex 3.0931348951e+00 -6.6666666667e+00 0.0000000000e+00
   endloop
 endfacet
 facet normal  -1.8879721750e-01 -8.7596289234e-02 9.7810147775e-01
   outer loop
     vertex 3.0931348951e+00 -6.6666666667e+00 0.0000000000e+00
     vertex 4.1570995204e+00 -8.9598409842e+00 0.0000000000e+00
     vertex 4.3249563355e+00 -8.9598409842e+00 3.2400420966e-02
   endloop
 endfacet
 facet normal  -1.8879721750e-01 -8.7596289234e-02 9.7810147775e-01
   outer loop
     vertex 3.0931348951e+00 -6.6666666667e+00 0.0000000000e+00
     vertex 4.3249563355e+00 -8.9598409842e+00 3.2400420966e-02
     vertex 3.6310552596e+00 -6.6666666667e+00 1.0383162726e-01
   endloop
 endfacet
 facet normal  1.2943539431e-01 8.2800124962e-03 9.9155328656e-01
   outer loop
     vertex 3.6310552596e+00 -6.6666666667e+00 1.0383162726e-01
     vertex 4.3249563355e+00 -8.9598409842e+00 3.2400420966e-02
     vertex 4.4264682284e+00 -6.6666666667e+00 0.0000000000e+00
   endloop
 endfacet
 facet normal  1.2943539431e-01 8.2800124962e-03 9.9155328656e-01
   outer loop
     vertex 4.3249563355e+00 -8.9598409842e+00 3.2400420966e-02
     vertex 4.5731631267e+00 -8.9598409842e+00 0.0000000000e+00
     vertex 4.4264682284e+00 -6.6666666667e+00 0.0000000000e+00
   endloop
 endfacet
 facet normal  6.3512976401e-02 4.0629399793e-03 -9.9797274229e-01
   outer loop
     vertex 4.5731631267e+00 -8.9598409842e+00 0.0000000000e+00
     vertex 4.6397023427e+00 -1.0000000000e+01 0.0000000000e+00
     vertex 4.3266418994e+00 -8.9598409842e+00 -1.5689102747e-02
   endloop
 endfacet
 facet normal  -9.2060161327e-02 -4.2713174617e-02 -9.9483692704e-01
   outer loop
     vertex 4.3266418994e+00 -8.9598409842e+00 -1.5689102747e-02
     vertex 4.6397023427e+00 -1.0000000000e+01 0.0000000000e+00
     vertex 4.1570995204e+00 -8.9598409842e+00 0.0000000000e+00
   endloop
 endfacet
 facet normal  -1.8879721750e-01 -8.7596289234e-02 9.7810147775e-01
   outer loop
     vertex 4.1570995204e+00 -8.9598409842e+00 0.0000000000e+00
     vertex 4.6397023427e+00 -1.0000000000e+01 0.0000000000e+00
     vertex 4.3249563355e+00 -8.9598409842e+00 3.2400420966e-02
   endloop
 endfacet
 facet normal  1.2943539431e-01 8.2800124962e-03 9.9155328656e-01
   outer loop
     vertex 4.3249563355e+00 -8.9598409842e+00 3.2400420966e-02
     vertex 4.6397023427e+00 -1.0000000000e+01 0.0000000000e+00
     vertex 4.5731631267e+00 -8.9598409842e+00 0.0000000000e+00
   endloop
 endfacet
endsolid
