solid
 facet normal  1.0695500986e-01 -9.8154941554e-01 1.5849722624e-01
   outer loop
     vertex 1.0000000000e+00 2.5000000000e-01 0.0000000000e+00
     vertex 8.6200135247e-01 2.2297600533e-01 -7.4233093830e-02
     vertex 1.0000000000e+00 2.3724596059e-01 -7.8983842351e-02
   endloop
 endfacet
 facet normal  1.0695500986e-01 -9.8154941554e-01 1.5849722624e-01
   outer loop
     vertex 1.0000000000e+00 2.5000000000e-01 0.0000000000e+00
     vertex 8.6200135247e-01 2.3496291020e-01 0.0000000000e+00
     vertex 8.6200135247e-01 2.2297600533e-01 -7.4233093830e-02
   endloop
 endfacet
 facet normal  7.8380500007e-02 -9.8417505935e-01 1.5892120618e-01
   outer loop
     vertex 8.6200135247e-01 2.3496291020e-01 0.0000000000e+00
     vertex 4.9469990917e-01 1.9521615454e-01 -6.4991293997e-02
     vertex 8.6200135247e-01 2.2297600533e-01 -7.4233093830e-02
   endloop
 endfacet
 facet normal  7.8380500007e-02 -9.8417505935e-01 1.5892120618e-01
   outer loop
     vertex 8.6200135247e-01 2.3496291020e-01 0.0000000000e+00
     vertex 4.9469990917e-01 2.0571072533e-01 0.0000000000e+00
     vertex 4.9469990917e-01 1.9521615454e-01 -6.4991293997e-02
   endloop
 endfacet
 facet normal  -5.3624336624e-03 -9.8719800757e-01 1.5940934147e-01
   outer loop
     vertex 4.9469990917e-01 2.0571072533e-01 0.0000000000e+00
     vertex 1.2655783651e-01 2.0771046340e-01 0.0000000000e+00
     vertex 4.9469990917e-01 1.9521615454e-01 -6.4991293997e-02
   endloop
 endfacet
 facet normal  -5.3624336624e-03 -9.8719800757e-01 1.5940934147e-01
   outer loop
     vertex 4.9469990917e-01 1.9521615454e-01 -6.4991293997e-02
     vertex 1.2655783651e-01 2.0771046340e-01 0.0000000000e+00
     vertex 1.2655783651e-01 1.9711387366e-01 -6.5623081985e-02
   endloop
 endfacet
 facet normal  -3.1327365175e-01 -9.3751880000e-01 1.5138731377e-01
   outer loop
     vertex 1.2655783651e-01 2.0771046340e-01 0.0000000000e+00
     vertex 0.0000000000e+00 2.5000000000e-01 0.0000000000e+00
     vertex 1.2655783651e-01 1.9711387366e-01 -6.5623081985e-02
   endloop
 endfacet
 facet normal  -3.1327365175e-01 -9.3751880000e-01 1.5138731377e-01
   outer loop
     vertex 1.2655783651e-01 1.9711387366e-01 -6.5623081985e-02
     vertex 0.0000000000e+00 2.5000000000e-01 0.0000000000e+00
     vertex 0.0000000000e+00 2.3724596059e-01 -7.8983842351e-02
   endloop
 endfacet
 facet normal  -3.1327365175e-01 9.3751880000e-01 -1.5138731377e-01
   outer loop
     vertex 0.0000000000e+00 2.5000000000e-01 0.0000000000e+00
     vertex 1.2655783651e-01 2.7737804752e-01 -9.2344602718e-02
     vertex 0.0000000000e+00 2.3724596059e-01 -7.8983842351e-02
   endloop
 endfacet
 facet normal  -3.1327365175e-01 9.3751880000e-01 -1.5138731377e-01
   outer loop
     vertex 0.0000000000e+00 2.5000000000e-01 0.0000000000e+00
     vertex 1.2655783651e-01 2.9228953660e-01 0.0000000000e+00
     vertex 1.2655783651e-01 2.7737804752e-01 -9.2344602718e-02
   endloop
 endfacet
 facet normal  -5.3624336624e-03 9.8719800757e-01 -1.5940934147e-01
   outer loop
     vertex 1.2655783651e-01 2.9228953660e-01 0.0000000000e+00
     vertex 4.9469990917e-01 2.7927576664e-01 -9.2976390705e-02
     vertex 1.2655783651e-01 2.7737804752e-01 -9.2344602718e-02
   endloop
 endfacet
 facet normal  -5.3624336624e-03 9.8719800757e-01 -1.5940934147e-01
   outer loop
     vertex 1.2655783651e-01 2.9228953660e-01 0.0000000000e+00
     vertex 4.9469990917e-01 2.9428927467e-01 0.0000000000e+00
     vertex 4.9469990917e-01 2.7927576664e-01 -9.2976390705e-02
   endloop
 endfacet
 facet normal  7.8380500007e-02 9.8417505935e-01 -1.5892120618e-01
   outer loop
     vertex 4.9469990917e-01 2.9428927467e-01 0.0000000000e+00
     vertex 8.6200135247e-01 2.6503708980e-01 0.0000000000e+00
     vertex 4.9469990917e-01 2.7927576664e-01 -9.2976390705e-02
   endloop
 endfacet
 facet normal  7.8380500007e-02 9.8417505935e-01 -1.5892120618e-01
   outer loop
     vertex 4.9469990917e-01 2.7927576664e-01 -9.2976390705e-02
     vertex 8.6200135247e-01 2.6503708980e-01 0.0000000000e+00
     vertex 8.6200135247e-01 2.5151591585e-01 -8.3734590873e-02
   endloop
 endfacet
 facet normal  1.0695500986e-01 9.8154941554e-01 -1.5849722624e-01
   outer loop
     vertex 8.6200135247e-01 2.6503708980e-01 0.0000000000e+00
     vertex 1.0000000000e+00 2.5000000000e-01 0.0000000000e+00
     vertex 8.6200135247e-01 2.5151591585e-01 -8.3734590873e-02
   endloop
 endfacet
 facet normal  1.0695500986e-01 9.8154941554e-01 -1.5849722624e-01
   outer loop
     vertex 8.6200135247e-01 2.5151591585e-01 -8.3734590873e-02
     vertex 1.0000000000e+00 2.5000000000e-01 0.0000000000e+00
     vertex 1.0000000000e+00 2.3724596059e-01 -7.8983842351e-02
   endloop
 endfacet
 facet normal  1.0704239613e-01 -8.8304379848e-01 4.5691965967e-01
   outer loop
     vertex 1.0000000000e+00 2.3724596059e-01 -7.8983842351e-02
     vertex 8.6200135247e-01 1.8960367918e-01 -1.3872851445e-01
     vertex 1.0000000000e+00 2.0173788176e-01 -1.4760682265e-01
   endloop
 endfacet
 facet normal  1.0704239613e-01 -8.8304379848e-01 4.5691965967e-01
   outer loop
     vertex 1.0000000000e+00 2.3724596059e-01 -7.8983842351e-02
     vertex 8.6200135247e-01 2.2297600533e-01 -7.4233093830e-02
     vertex 8.6200135247e-01 1.8960367918e-01 -1.3872851445e-01
   endloop
 endfacet
 facet normal  7.8444883316e-02 -8.8540981688e-01 4.5814392548e-01
   outer loop
     vertex 8.6200135247e-01 2.2297600533e-01 -7.4233093830e-02
     vertex 4.9469990917e-01 1.6599858394e-01 -1.2145722620e-01
     vertex 8.6200135247e-01 1.8960367918e-01 -1.3872851445e-01
   endloop
 endfacet
 facet normal  7.8444883316e-02 -8.8540981688e-01 4.5814392548e-01
   outer loop
     vertex 8.6200135247e-01 2.2297600533e-01 -7.4233093830e-02
     vertex 4.9469990917e-01 1.9521615454e-01 -6.4991293997e-02
     vertex 4.9469990917e-01 1.6599858394e-01 -1.2145722620e-01
   endloop
 endfacet
 facet normal  -5.3668656070e-03 -8.8813389252e-01 4.5955346339e-01
   outer loop
     vertex 4.9469990917e-01 1.9521615454e-01 -6.4991293997e-02
     vertex 1.2655783651e-01 1.9711387366e-01 -6.5623081985e-02
     vertex 4.9469990917e-01 1.6599858394e-01 -1.2145722620e-01
   endloop
 endfacet
 facet normal  -5.3668656070e-03 -8.8813389252e-01 4.5955346339e-01
   outer loop
     vertex 4.9469990917e-01 1.6599858394e-01 -1.2145722620e-01
     vertex 1.2655783651e-01 1.9711387366e-01 -6.5623081985e-02
     vertex 1.2655783651e-01 1.6761227563e-01 -1.2263792613e-01
   endloop
 endfacet
 facet normal  -3.1350713453e-01 -8.4337151861e-01 4.3639174855e-01
   outer loop
     vertex 1.2655783651e-01 1.9711387366e-01 -6.5623081985e-02
     vertex 0.0000000000e+00 2.3724596059e-01 -7.8983842351e-02
     vertex 1.2655783651e-01 1.6761227563e-01 -1.2263792613e-01
   endloop
 endfacet
 facet normal  -3.1350713453e-01 -8.4337151861e-01 4.3639174855e-01
   outer loop
     vertex 1.2655783651e-01 1.6761227563e-01 -1.2263792613e-01
     vertex 0.0000000000e+00 2.3724596059e-01 -7.8983842351e-02
     vertex 0.0000000000e+00 2.0173788176e-01 -1.4760682265e-01
   endloop
 endfacet
 facet normal  -3.1350713453e-01 8.4337151861e-01 -4.3639174855e-01
   outer loop
     vertex 0.0000000000e+00 2.3724596059e-01 -7.8983842351e-02
     vertex 1.2655783651e-01 2.3586348790e-01 -1.7257571916e-01
     vertex 0.0000000000e+00 2.0173788176e-01 -1.4760682265e-01
   endloop
 endfacet
 facet normal  -3.1350713453e-01 8.4337151861e-01 -4.3639174855e-01
   outer loop
     vertex 0.0000000000e+00 2.3724596059e-01 -7.8983842351e-02
     vertex 1.2655783651e-01 2.7737804752e-01 -9.2344602718e-02
     vertex 1.2655783651e-01 2.3586348790e-01 -1.7257571916e-01
   endloop
 endfacet
 facet normal  -5.3668656070e-03 8.8813389252e-01 -4.5955346339e-01
   outer loop
     vertex 1.2655783651e-01 2.7737804752e-01 -9.2344602718e-02
     vertex 4.9469990917e-01 2.3747717959e-01 -1.7375641909e-01
     vertex 1.2655783651e-01 2.3586348790e-01 -1.7257571916e-01
   endloop
 endfacet
 facet normal  -5.3668656070e-03 8.8813389252e-01 -4.5955346339e-01
   outer loop
     vertex 1.2655783651e-01 2.7737804752e-01 -9.2344602718e-02
     vertex 4.9469990917e-01 2.7927576664e-01 -9.2976390705e-02
     vertex 4.9469990917e-01 2.3747717959e-01 -1.7375641909e-01
   endloop
 endfacet
 facet normal  7.8444883316e-02 8.8540981688e-01 -4.5814392548e-01
   outer loop
     vertex 4.9469990917e-01 2.7927576664e-01 -9.2976390705e-02
     vertex 8.6200135247e-01 2.5151591585e-01 -8.3734590873e-02
     vertex 4.9469990917e-01 2.3747717959e-01 -1.7375641909e-01
   endloop
 endfacet
 facet normal  7.8444883316e-02 8.8540981688e-01 -4.5814392548e-01
   outer loop
     vertex 4.9469990917e-01 2.3747717959e-01 -1.7375641909e-01
     vertex 8.6200135247e-01 2.5151591585e-01 -8.3734590873e-02
     vertex 8.6200135247e-01 2.1387208434e-01 -1.5648513084e-01
   endloop
 endfacet
 facet normal  1.0704239613e-01 8.8304379848e-01 -4.5691965967e-01
   outer loop
     vertex 8.6200135247e-01 2.5151591585e-01 -8.3734590873e-02
     vertex 1.0000000000e+00 2.3724596059e-01 -7.8983842351e-02
     vertex 8.6200135247e-01 2.1387208434e-01 -1.5648513084e-01
   endloop
 endfacet
 facet normal  1.0704239613e-01 8.8304379848e-01 -4.5691965967e-01
   outer loop
     vertex 8.6200135247e-01 2.1387208434e-01 -1.5648513084e-01
     vertex 1.0000000000e+00 2.3724596059e-01 -7.8983842351e-02
     vertex 1.0000000000e+00 2.0173788176e-01 -1.4760682265e-01
   endloop
 endfacet
 facet normal  1.0704966823e-01 -7.0304351520e-01 7.0304351520e-01
   outer loop
     vertex 1.0000000000e+00 2.0173788176e-01 -1.4760682265e-01
     vertex 8.6200135247e-01 1.3872851445e-01 -1.8960367918e-01
     vertex 1.0000000000e+00 1.4760682265e-01 -2.0173788176e-01
   endloop
 endfacet
 facet normal  1.0704966823e-01 -7.0304351520e-01 7.0304351520e-01
   outer loop
     vertex 1.0000000000e+00 2.0173788176e-01 -1.4760682265e-01
     vertex 8.6200135247e-01 1.8960367918e-01 -1.3872851445e-01
     vertex 8.6200135247e-01 1.3872851445e-01 -1.8960367918e-01
   endloop
 endfacet
 facet normal  7.8450241202e-02 -7.0492749970e-01 7.0492749970e-01
   outer loop
     vertex 8.6200135247e-01 1.8960367918e-01 -1.3872851445e-01
     vertex 4.9469990917e-01 1.2145722620e-01 -1.6599858394e-01
     vertex 8.6200135247e-01 1.3872851445e-01 -1.8960367918e-01
   endloop
 endfacet
 facet normal  7.8450241202e-02 -7.0492749970e-01 7.0492749970e-01
   outer loop
     vertex 8.6200135247e-01 1.8960367918e-01 -1.3872851445e-01
     vertex 4.9469990917e-01 1.6599858394e-01 -1.2145722620e-01
     vertex 4.9469990917e-01 1.2145722620e-01 -1.6599858394e-01
   endloop
 endfacet
 facet normal  -5.3672344300e-03 -7.0709659623e-01 7.0709659623e-01
   outer loop
     vertex 4.9469990917e-01 1.6599858394e-01 -1.2145722620e-01
     vertex 1.2655783651e-01 1.6761227563e-01 -1.2263792613e-01
     vertex 4.9469990917e-01 1.2145722620e-01 -1.6599858394e-01
   endloop
 endfacet
 facet normal  -5.3672344300e-03 -7.0709659623e-01 7.0709659623e-01
   outer loop
     vertex 4.9469990917e-01 1.2145722620e-01 -1.6599858394e-01
     vertex 1.2655783651e-01 1.6761227563e-01 -1.2263792613e-01
     vertex 1.2655783651e-01 1.2263792613e-01 -1.6761227563e-01
   endloop
 endfacet
 facet normal  -3.1352656223e-01 -6.7145405456e-01 6.7145405456e-01
   outer loop
     vertex 1.2655783651e-01 1.6761227563e-01 -1.2263792613e-01
     vertex 0.0000000000e+00 2.0173788176e-01 -1.4760682265e-01
     vertex 1.2655783651e-01 1.2263792613e-01 -1.6761227563e-01
   endloop
 endfacet
 facet normal  -3.1352656223e-01 -6.7145405456e-01 6.7145405456e-01
   outer loop
     vertex 1.2655783651e-01 1.2263792613e-01 -1.6761227563e-01
     vertex 0.0000000000e+00 2.0173788176e-01 -1.4760682265e-01
     vertex 0.0000000000e+00 1.4760682265e-01 -2.0173788176e-01
   endloop
 endfacet
 facet normal  -3.1352656223e-01 6.7145405456e-01 -6.7145405456e-01
   outer loop
     vertex 0.0000000000e+00 2.0173788176e-01 -1.4760682265e-01
     vertex 1.2655783651e-01 1.7257571916e-01 -2.3586348790e-01
     vertex 0.0000000000e+00 1.4760682265e-01 -2.0173788176e-01
   endloop
 endfacet
 facet normal  -3.1352656223e-01 6.7145405456e-01 -6.7145405456e-01
   outer loop
     vertex 0.0000000000e+00 2.0173788176e-01 -1.4760682265e-01
     vertex 1.2655783651e-01 2.3586348790e-01 -1.7257571916e-01
     vertex 1.2655783651e-01 1.7257571916e-01 -2.3586348790e-01
   endloop
 endfacet
 facet normal  -5.3672344300e-03 7.0709659623e-01 -7.0709659623e-01
   outer loop
     vertex 1.2655783651e-01 2.3586348790e-01 -1.7257571916e-01
     vertex 4.9469990917e-01 1.7375641909e-01 -2.3747717959e-01
     vertex 1.2655783651e-01 1.7257571916e-01 -2.3586348790e-01
   endloop
 endfacet
 facet normal  -5.3672344300e-03 7.0709659623e-01 -7.0709659623e-01
   outer loop
     vertex 1.2655783651e-01 2.3586348790e-01 -1.7257571916e-01
     vertex 4.9469990917e-01 2.3747717959e-01 -1.7375641909e-01
     vertex 4.9469990917e-01 1.7375641909e-01 -2.3747717959e-01
   endloop
 endfacet
 facet normal  7.8450241202e-02 7.0492749970e-01 -7.0492749970e-01
   outer loop
     vertex 4.9469990917e-01 2.3747717959e-01 -1.7375641909e-01
     vertex 8.6200135247e-01 2.1387208434e-01 -1.5648513084e-01
     vertex 4.9469990917e-01 1.7375641909e-01 -2.3747717959e-01
   endloop
 endfacet
 facet normal  7.8450241202e-02 7.0492749970e-01 -7.0492749970e-01
   outer loop
     vertex 4.9469990917e-01 1.7375641909e-01 -2.3747717959e-01
     vertex 8.6200135247e-01 2.1387208434e-01 -1.5648513084e-01
     vertex 8.6200135247e-01 1.5648513084e-01 -2.1387208434e-01
   endloop
 endfacet
 facet normal  1.0704966823e-01 7.0304351520e-01 -7.0304351520e-01
   outer loop
     vertex 8.6200135247e-01 2.1387208434e-01 -1.5648513084e-01
     vertex 1.0000000000e+00 2.0173788176e-01 -1.4760682265e-01
     vertex 8.6200135247e-01 1.5648513084e-01 -2.1387208434e-01
   endloop
 endfacet
 facet normal  1.0704966823e-01 7.0304351520e-01 -7.0304351520e-01
   outer loop
     vertex 8.6200135247e-01 1.5648513084e-01 -2.1387208434e-01
     vertex 1.0000000000e+00 2.0173788176e-01 -1.4760682265e-01
     vertex 1.0000000000e+00 1.4760682265e-01 -2.0173788176e-01
   endloop
 endfacet
 facet normal  1.0704239613e-01 -4.5691965967e-01 8.8304379848e-01
   outer loop
     vertex 1.0000000000e+00 1.4760682265e-01 -2.0173788176e-01
     vertex 8.6200135247e-01 7.4233093830e-02 -2.2297600533e-01
     vertex 1.0000000000e+00 7.8983842351e-02 -2.3724596059e-01
   endloop
 endfacet
 facet normal  1.0704239613e-01 -4.5691965967e-01 8.8304379848e-01
   outer loop
     vertex 1.0000000000e+00 1.4760682265e-01 -2.0173788176e-01
     vertex 8.6200135247e-01 1.3872851445e-01 -1.8960367918e-01
     vertex 8.6200135247e-01 7.4233093830e-02 -2.2297600533e-01
   endloop
 endfacet
 facet normal  7.8444883316e-02 -4.5814392548e-01 8.8540981688e-01
   outer loop
     vertex 8.6200135247e-01 1.3872851445e-01 -1.8960367918e-01
     vertex 4.9469990917e-01 6.4991293997e-02 -1.9521615454e-01
     vertex 8.6200135247e-01 7.4233093830e-02 -2.2297600533e-01
   endloop
 endfacet
 facet normal  7.8444883316e-02 -4.5814392548e-01 8.8540981688e-01
   outer loop
     vertex 8.6200135247e-01 1.3872851445e-01 -1.8960367918e-01
     vertex 4.9469990917e-01 1.2145722620e-01 -1.6599858394e-01
     vertex 4.9469990917e-01 6.4991293997e-02 -1.9521615454e-01
   endloop
 endfacet
 facet normal  -5.3668656070e-03 -4.5955346339e-01 8.8813389252e-01
   outer loop
     vertex 4.9469990917e-01 1.2145722620e-01 -1.6599858394e-01
     vertex 1.2655783651e-01 1.2263792613e-01 -1.6761227563e-01
     vertex 4.9469990917e-01 6.4991293997e-02 -1.9521615454e-01
   endloop
 endfacet
 facet normal  -5.3668656070e-03 -4.5955346339e-01 8.8813389252e-01
   outer loop
     vertex 4.9469990917e-01 6.4991293997e-02 -1.9521615454e-01
     vertex 1.2655783651e-01 1.2263792613e-01 -1.6761227563e-01
     vertex 1.2655783651e-01 6.5623081985e-02 -1.9711387366e-01
   endloop
 endfacet
 facet normal  -3.1350713453e-01 -4.3639174855e-01 8.4337151861e-01
   outer loop
     vertex 1.2655783651e-01 1.2263792613e-01 -1.6761227563e-01
     vertex 0.0000000000e+00 1.4760682265e-01 -2.0173788176e-01
     vertex 1.2655783651e-01 6.5623081985e-02 -1.9711387366e-01
   endloop
 endfacet
 facet normal  -3.1350713453e-01 -4.3639174855e-01 8.4337151861e-01
   outer loop
     vertex 1.2655783651e-01 6.5623081985e-02 -1.9711387366e-01
     vertex 0.0000000000e+00 1.4760682265e-01 -2.0173788176e-01
     vertex 0.0000000000e+00 7.8983842351e-02 -2.3724596059e-01
   endloop
 endfacet
 facet normal  -3.1350713453e-01 4.3639174855e-01 -8.4337151861e-01
   outer loop
     vertex 0.0000000000e+00 1.4760682265e-01 -2.0173788176e-01
     vertex 1.2655783651e-01 9.2344602718e-02 -2.7737804752e-01
     vertex 0.0000000000e+00 7.8983842351e-02 -2.3724596059e-01
   endloop
 endfacet
 facet normal  -3.1350713453e-01 4.3639174855e-01 -8.4337151861e-01
   outer loop
     vertex 0.0000000000e+00 1.4760682265e-01 -2.0173788176e-01
     vertex 1.2655783651e-01 1.7257571916e-01 -2.3586348790e-01
     vertex 1.2655783651e-01 9.2344602718e-02 -2.7737804752e-01
   endloop
 endfacet
 facet normal  -5.3668656070e-03 4.5955346339e-01 -8.8813389252e-01
   outer loop
     vertex 1.2655783651e-01 1.7257571916e-01 -2.3586348790e-01
     vertex 4.9469990917e-01 9.2976390705e-02 -2.7927576664e-01
     vertex 1.2655783651e-01 9.2344602718e-02 -2.7737804752e-01
   endloop
 endfacet
 facet normal  -5.3668656070e-03 4.5955346339e-01 -8.8813389252e-01
   outer loop
     vertex 1.2655783651e-01 1.7257571916e-01 -2.3586348790e-01
     vertex 4.9469990917e-01 1.7375641909e-01 -2.3747717959e-01
     vertex 4.9469990917e-01 9.2976390705e-02 -2.7927576664e-01
   endloop
 endfacet
 facet normal  7.8444883316e-02 4.5814392548e-01 -8.8540981688e-01
   outer loop
     vertex 4.9469990917e-01 1.7375641909e-01 -2.3747717959e-01
     vertex 8.6200135247e-01 1.5648513084e-01 -2.1387208434e-01
     vertex 4.9469990917e-01 9.2976390705e-02 -2.7927576664e-01
   endloop
 endfacet
 facet normal  7.8444883316e-02 4.5814392548e-01 -8.8540981688e-01
   outer loop
     vertex 4.9469990917e-01 9.2976390705e-02 -2.7927576664e-01
     vertex 8.6200135247e-01 1.5648513084e-01 -2.1387208434e-01
     vertex 8.6200135247e-01 8.3734590873e-02 -2.5151591585e-01
   endloop
 endfacet
 facet normal  1.0704239613e-01 4.5691965967e-01 -8.8304379848e-01
   outer loop
     vertex 8.6200135247e-01 1.5648513084e-01 -2.1387208434e-01
     vertex 1.0000000000e+00 1.4760682265e-01 -2.0173788176e-01
     vertex 8.6200135247e-01 8.3734590873e-02 -2.5151591585e-01
   endloop
 endfacet
 facet normal  1.0704239613e-01 4.5691965967e-01 -8.8304379848e-01
   outer loop
     vertex 8.6200135247e-01 8.3734590873e-02 -2.5151591585e-01
     vertex 1.0000000000e+00 1.4760682265e-01 -2.0173788176e-01
     vertex 1.0000000000e+00 7.8983842351e-02 -2.3724596059e-01
   endloop
 endfacet
 facet normal  1.0695500986e-01 -1.5849722624e-01 9.8154941554e-01
   outer loop
     vertex 1.0000000000e+00 7.8983842351e-02 -2.3724596059e-01
     vertex 8.6200135247e-01 0.0000000000e+00 -2.3496291020e-01
     vertex 1.0000000000e+00 0.0000000000e+00 -2.5000000000e-01
   endloop
 endfacet
 facet normal  1.0695500986e-01 -1.5849722624e-01 9.8154941554e-01
   outer loop
     vertex 1.0000000000e+00 7.8983842351e-02 -2.3724596059e-01
     vertex 8.6200135247e-01 7.4233093830e-02 -2.2297600533e-01
     vertex 8.6200135247e-01 0.0000000000e+00 -2.3496291020e-01
   endloop
 endfacet
 facet normal  7.8380500007e-02 -1.5892120618e-01 9.8417505935e-01
   outer loop
     vertex 8.6200135247e-01 7.4233093830e-02 -2.2297600533e-01
     vertex 4.9469990917e-01 0.0000000000e+00 -2.0571072533e-01
     vertex 8.6200135247e-01 0.0000000000e+00 -2.3496291020e-01
   endloop
 endfacet
 facet normal  7.8380500007e-02 -1.5892120618e-01 9.8417505935e-01
   outer loop
     vertex 8.6200135247e-01 7.4233093830e-02 -2.2297600533e-01
     vertex 4.9469990917e-01 6.4991293997e-02 -1.9521615454e-01
     vertex 4.9469990917e-01 0.0000000000e+00 -2.0571072533e-01
   endloop
 endfacet
 facet normal  -5.3624336624e-03 -1.5940934147e-01 9.8719800757e-01
   outer loop
     vertex 4.9469990917e-01 6.4991293997e-02 -1.9521615454e-01
     vertex 1.2655783651e-01 6.5623081985e-02 -1.9711387366e-01
     vertex 4.9469990917e-01 0.0000000000e+00 -2.0571072533e-01
   endloop
 endfacet
 facet normal  -5.3624336624e-03 -1.5940934147e-01 9.8719800757e-01
   outer loop
     vertex 4.9469990917e-01 0.0000000000e+00 -2.0571072533e-01
     vertex 1.2655783651e-01 6.5623081985e-02 -1.9711387366e-01
     vertex 1.2655783651e-01 0.0000000000e+00 -2.0771046340e-01
   endloop
 endfacet
 facet normal  -3.1327365175e-01 -1.5138731377e-01 9.3751880000e-01
   outer loop
     vertex 1.2655783651e-01 6.5623081985e-02 -1.9711387366e-01
     vertex 0.0000000000e+00 7.8983842351e-02 -2.3724596059e-01
     vertex 1.2655783651e-01 0.0000000000e+00 -2.0771046340e-01
   endloop
 endfacet
 facet normal  -3.1327365175e-01 -1.5138731377e-01 9.3751880000e-01
   outer loop
     vertex 1.2655783651e-01 0.0000000000e+00 -2.0771046340e-01
     vertex 0.0000000000e+00 7.8983842351e-02 -2.3724596059e-01
     vertex 0.0000000000e+00 0.0000000000e+00 -2.5000000000e-01
   endloop
 endfacet
 facet normal  -3.1327365175e-01 1.5138731377e-01 -9.3751880000e-01
   outer loop
     vertex 0.0000000000e+00 7.8983842351e-02 -2.3724596059e-01
     vertex 1.2655783651e-01 0.0000000000e+00 -2.9228953660e-01
     vertex 0.0000000000e+00 0.0000000000e+00 -2.5000000000e-01
   endloop
 endfacet
 facet normal  -3.1327365175e-01 1.5138731377e-01 -9.3751880000e-01
   outer loop
     vertex 0.0000000000e+00 7.8983842351e-02 -2.3724596059e-01
     vertex 1.2655783651e-01 9.2344602718e-02 -2.7737804752e-01
     vertex 1.2655783651e-01 0.0000000000e+00 -2.9228953660e-01
   endloop
 endfacet
 facet normal  -5.3624336624e-03 1.5940934147e-01 -9.8719800757e-01
   outer loop
     vertex 1.2655783651e-01 9.2344602718e-02 -2.7737804752e-01
     vertex 4.9469990917e-01 0.0000000000e+00 -2.9428927467e-01
     vertex 1.2655783651e-01 0.0000000000e+00 -2.9228953660e-01
   endloop
 endfacet
 facet normal  -5.3624336624e-03 1.5940934147e-01 -9.8719800757e-01
   outer loop
     vertex 1.2655783651e-01 9.2344602718e-02 -2.7737804752e-01
     vertex 4.9469990917e-01 9.2976390705e-02 -2.7927576664e-01
     vertex 4.9469990917e-01 0.0000000000e+00 -2.9428927467e-01
   endloop
 endfacet
 facet normal  7.8380500007e-02 1.5892120618e-01 -9.8417505935e-01
   outer loop
     vertex 4.9469990917e-01 9.2976390705e-02 -2.7927576664e-01
     vertex 8.6200135247e-01 8.3734590873e-02 -2.5151591585e-01
     vertex 4.9469990917e-01 0.0000000000e+00 -2.9428927467e-01
   endloop
 endfacet
 facet normal  7.8380500007e-02 1.5892120618e-01 -9.8417505935e-01
   outer loop
     vertex 4.9469990917e-01 0.0000000000e+00 -2.9428927467e-01
     vertex 8.6200135247e-01 8.3734590873e-02 -2.5151591585e-01
     vertex 8.6200135247e-01 0.0000000000e+00 -2.6503708980e-01
   endloop
 endfacet
 facet normal  1.0695500986e-01 1.5849722624e-01 -9.8154941554e-01
   outer loop
     vertex 8.6200135247e-01 8.3734590873e-02 -2.5151591585e-01
     vertex 1.0000000000e+00 7.8983842351e-02 -2.3724596059e-01
     vertex 8.6200135247e-01 0.0000000000e+00 -2.6503708980e-01
   endloop
 endfacet
 facet normal  1.0695500986e-01 1.5849722624e-01 -9.8154941554e-01
   outer loop
     vertex 8.6200135247e-01 0.0000000000e+00 -2.6503708980e-01
     vertex 1.0000000000e+00 7.8983842351e-02 -2.3724596059e-01
     vertex 1.0000000000e+00 0.0000000000e+00 -2.5000000000e-01
   endloop
 endfacet
 facet normal  1.0695500986e-01 1.5849722624e-01 9.8154941554e-01
   outer loop
     vertex 1.0000000000e+00 0.0000000000e+00 -2.5000000000e-01
     vertex 8.6200135247e-01 -7.4233093830e-02 -2.2297600533e-01
     vertex 1.0000000000e+00 -7.8983842351e-02 -2.3724596059e-01
   endloop
 endfacet
 facet normal  1.0695500986e-01 1.5849722624e-01 9.8154941554e-01
   outer loop
     vertex 1.0000000000e+00 0.0000000000e+00 -2.5000000000e-01
     vertex 8.6200135247e-01 0.0000000000e+00 -2.3496291020e-01
     vertex 8.6200135247e-01 -7.4233093830e-02 -2.2297600533e-01
   endloop
 endfacet
 facet normal  7.8380500007e-02 1.5892120618e-01 9.8417505935e-01
   outer loop
     vertex 8.6200135247e-01 0.0000000000e+00 -2.3496291020e-01
     vertex 4.9469990917e-01 -6.4991293997e-02 -1.9521615454e-01
     vertex 8.6200135247e-01 -7.4233093830e-02 -2.2297600533e-01
   endloop
 endfacet
 facet normal  7.8380500007e-02 1.5892120618e-01 9.8417505935e-01
   outer loop
     vertex 8.6200135247e-01 0.0000000000e+00 -2.3496291020e-01
     vertex 4.9469990917e-01 0.0000000000e+00 -2.0571072533e-01
     vertex 4.9469990917e-01 -6.4991293997e-02 -1.9521615454e-01
   endloop
 endfacet
 facet normal  -5.3624336624e-03 1.5940934147e-01 9.8719800757e-01
   outer loop
     vertex 4.9469990917e-01 0.0000000000e+00 -2.0571072533e-01
     vertex 1.2655783651e-01 0.0000000000e+00 -2.0771046340e-01
     vertex 4.9469990917e-01 -6.4991293997e-02 -1.9521615454e-01
   endloop
 endfacet
 facet normal  -5.3624336624e-03 1.5940934147e-01 9.8719800757e-01
   outer loop
     vertex 4.9469990917e-01 -6.4991293997e-02 -1.9521615454e-01
     vertex 1.2655783651e-01 0.0000000000e+00 -2.0771046340e-01
     vertex 1.2655783651e-01 -6.5623081985e-02 -1.9711387366e-01
   endloop
 endfacet
 facet normal  -3.1327365175e-01 1.5138731377e-01 9.3751880000e-01
   outer loop
     vertex 1.2655783651e-01 0.0000000000e+00 -2.0771046340e-01
     vertex 0.0000000000e+00 0.0000000000e+00 -2.5000000000e-01
     vertex 1.2655783651e-01 -6.5623081985e-02 -1.9711387366e-01
   endloop
 endfacet
 facet normal  -3.1327365175e-01 1.5138731377e-01 9.3751880000e-01
   outer loop
     vertex 1.2655783651e-01 -6.5623081985e-02 -1.9711387366e-01
     vertex 0.0000000000e+00 0.0000000000e+00 -2.5000000000e-01
     vertex 0.0000000000e+00 -7.8983842351e-02 -2.3724596059e-01
   endloop
 endfacet
 facet normal  -3.1327365175e-01 -1.5138731377e-01 -9.3751880000e-01
   outer loop
     vertex 0.0000000000e+00 0.0000000000e+00 -2.5000000000e-01
     vertex 1.2655783651e-01 -9.2344602718e-02 -2.7737804752e-01
     vertex 0.0000000000e+00 -7.8983842351e-02 -2.3724596059e-01
   endloop
 endfacet
 facet normal  -3.1327365175e-01 -1.5138731377e-01 -9.3751880000e-01
   outer loop
     vertex 0.0000000000e+00 0.0000000000e+00 -2.5000000000e-01
     vertex 1.2655783651e-01 0.0000000000e+00 -2.9228953660e-01
     vertex 1.2655783651e-01 -9.2344602718e-02 -2.7737804752e-01
   endloop
 endfacet
 facet normal  -5.3624336624e-03 -1.5940934147e-01 -9.8719800757e-01
   outer loop
     vertex 1.2655783651e-01 0.0000000000e+00 -2.9228953660e-01
     vertex 4.9469990917e-01 -9.2976390705e-02 -2.7927576664e-01
     vertex 1.2655783651e-01 -9.2344602718e-02 -2.7737804752e-01
   endloop
 endfacet
 facet normal  -5.3624336624e-03 -1.5940934147e-01 -9.8719800757e-01
   outer loop
     vertex 1.2655783651e-01 0.0000000000e+00 -2.9228953660e-01
     vertex 4.9469990917e-01 0.0000000000e+00 -2.9428927467e-01
     vertex 4.9469990917e-01 -9.2976390705e-02 -2.7927576664e-01
   endloop
 endfacet
 facet normal  7.8380500007e-02 -1.5892120618e-01 -9.8417505935e-01
   outer loop
     vertex 4.9469990917e-01 0.0000000000e+00 -2.9428927467e-01
     vertex 8.6200135247e-01 0.0000000000e+00 -2.6503708980e-01
     vertex 4.9469990917e-01 -9.2976390705e-02 -2.7927576664e-01
   endloop
 endfacet
 facet normal  7.8380500007e-02 -1.5892120618e-01 -9.8417505935e-01
   outer loop
     vertex 4.9469990917e-01 -9.2976390705e-02 -2.7927576664e-01
     vertex 8.6200135247e-01 0.0000000000e+00 -2.6503708980e-01
     vertex 8.6200135247e-01 -8.3734590873e-02 -2.5151591585e-01
   endloop
 endfacet
 facet normal  1.0695500986e-01 -1.5849722624e-01 -9.8154941554e-01
   outer loop
     vertex 8.6200135247e-01 0.0000000000e+00 -2.6503708980e-01
     vertex 1.0000000000e+00 0.0000000000e+00 -2.5000000000e-01
     vertex 8.6200135247e-01 -8.3734590873e-02 -2.5151591585e-01
   endloop
 endfacet
 facet normal  1.0695500986e-01 -1.5849722624e-01 -9.8154941554e-01
   outer loop
     vertex 8.6200135247e-01 -8.3734590873e-02 -2.5151591585e-01
     vertex 1.0000000000e+00 0.0000000000e+00 -2.5000000000e-01
     vertex 1.0000000000e+00 -7.8983842351e-02 -2.3724596059e-01
   endloop
 endfacet
 facet normal  1.0704239613e-01 4.5691965967e-01 8.8304379848e-01
   outer loop
     vertex 1.0000000000e+00 -7.8983842351e-02 -2.3724596059e-01
     vertex 8.6200135247e-01 -1.3872851445e-01 -1.8960367918e-01
     vertex 1.0000000000e+00 -1.4760682265e-01 -2.0173788176e-01
   endloop
 endfacet
 facet normal  1.0704239613e-01 4.5691965967e-01 8.8304379848e-01
   outer loop
     vertex 1.0000000000e+00 -7.8983842351e-02 -2.3724596059e-01
     vertex 8.6200135247e-01 -7.4233093830e-02 -2.2297600533e-01
     vertex 8.6200135247e-01 -1.3872851445e-01 -1.8960367918e-01
   endloop
 endfacet
 facet normal  7.8444883316e-02 4.5814392548e-01 8.8540981688e-01
   outer loop
     vertex 8.6200135247e-01 -7.4233093830e-02 -2.2297600533e-01
     vertex 4.9469990917e-01 -1.2145722620e-01 -1.6599858394e-01
     vertex 8.6200135247e-01 -1.3872851445e-01 -1.8960367918e-01
   endloop
 endfacet
 facet normal  7.8444883316e-02 4.5814392548e-01 8.8540981688e-01
   outer loop
     vertex 8.6200135247e-01 -7.4233093830e-02 -2.2297600533e-01
     vertex 4.9469990917e-01 -6.4991293997e-02 -1.9521615454e-01
     vertex 4.9469990917e-01 -1.2145722620e-01 -1.6599858394e-01
   endloop
 endfacet
 facet normal  -5.3668656070e-03 4.5955346339e-01 8.8813389252e-01
   outer loop
     vertex 4.9469990917e-01 -6.4991293997e-02 -1.9521615454e-01
     vertex 1.2655783651e-01 -6.5623081985e-02 -1.9711387366e-01
     vertex 4.9469990917e-01 -1.2145722620e-01 -1.6599858394e-01
   endloop
 endfacet
 facet normal  -5.3668656070e-03 4.5955346339e-01 8.8813389252e-01
   outer loop
     vertex 4.9469990917e-01 -1.2145722620e-01 -1.6599858394e-01
     vertex 1.2655783651e-01 -6.5623081985e-02 -1.9711387366e-01
     vertex 1.2655783651e-01 -1.2263792613e-01 -1.6761227563e-01
   endloop
 endfacet
 facet normal  -3.1350713453e-01 4.3639174855e-01 8.4337151861e-01
   outer loop
     vertex 1.2655783651e-01 -6.5623081985e-02 -1.9711387366e-01
     vertex 0.0000000000e+00 -7.8983842351e-02 -2.3724596059e-01
     vertex 1.2655783651e-01 -1.2263792613e-01 -1.6761227563e-01
   endloop
 endfacet
 facet normal  -3.1350713453e-01 4.3639174855e-01 8.4337151861e-01
   outer loop
     vertex 1.2655783651e-01 -1.2263792613e-01 -1.6761227563e-01
     vertex 0.0000000000e+00 -7.8983842351e-02 -2.3724596059e-01
     vertex 0.0000000000e+00 -1.4760682265e-01 -2.0173788176e-01
   endloop
 endfacet
 facet normal  -3.1350713453e-01 -4.3639174855e-01 -8.4337151861e-01
   outer loop
     vertex 0.0000000000e+00 -7.8983842351e-02 -2.3724596059e-01
     vertex 1.2655783651e-01 -1.7257571916e-01 -2.3586348790e-01
     vertex 0.0000000000e+00 -1.4760682265e-01 -2.0173788176e-01
   endloop
 endfacet
 facet normal  -3.1350713453e-01 -4.3639174855e-01 -8.4337151861e-01
   outer loop
     vertex 0.0000000000e+00 -7.8983842351e-02 -2.3724596059e-01
     vertex 1.2655783651e-01 -9.2344602718e-02 -2.7737804752e-01
     vertex 1.2655783651e-01 -1.7257571916e-01 -2.3586348790e-01
   endloop
 endfacet
 facet normal  -5.3668656070e-03 -4.5955346339e-01 -8.8813389252e-01
   outer loop
     vertex 1.2655783651e-01 -9.2344602718e-02 -2.7737804752e-01
     vertex 4.9469990917e-01 -1.7375641909e-01 -2.3747717959e-01
     vertex 1.2655783651e-01 -1.7257571916e-01 -2.3586348790e-01
   endloop
 endfacet
 facet normal  -5.3668656070e-03 -4.5955346339e-01 -8.8813389252e-01
   outer loop
     vertex 1.2655783651e-01 -9.2344602718e-02 -2.7737804752e-01
     vertex 4.9469990917e-01 -9.2976390705e-02 -2.7927576664e-01
     vertex 4.9469990917e-01 -1.7375641909e-01 -2.3747717959e-01
   endloop
 endfacet
 facet normal  7.8444883316e-02 -4.5814392548e-01 -8.8540981688e-01
   outer loop
     vertex 4.9469990917e-01 -9.2976390705e-02 -2.7927576664e-01
     vertex 8.6200135247e-01 -8.3734590873e-02 -2.5151591585e-01
     vertex 4.9469990917e-01 -1.7375641909e-01 -2.3747717959e-01
   endloop
 endfacet
 facet normal  7.8444883316e-02 -4.5814392548e-01 -8.8540981688e-01
   outer loop
     vertex 4.9469990917e-01 -1.7375641909e-01 -2.3747717959e-01
     vertex 8.6200135247e-01 -8.3734590873e-02 -2.5151591585e-01
     vertex 8.6200135247e-01 -1.5648513084e-01 -2.1387208434e-01
   endloop
 endfacet
 facet normal  1.0704239613e-01 -4.5691965967e-01 -8.8304379848e-01
   outer loop
     vertex 8.6200135247e-01 -8.3734590873e-02 -2.5151591585e-01
     vertex 1.0000000000e+00 -7.8983842351e-02 -2.3724596059e-01
     vertex 8.6200135247e-01 -1.5648513084e-01 -2.1387208434e-01
   endloop
 endfacet
 facet normal  1.0704239613e-01 -4.5691965967e-01 -8.8304379848e-01
   outer loop
     vertex 8.6200135247e-01 -1.5648513084e-01 -2.1387208434e-01
     vertex 1.0000000000e+00 -7.8983842351e-02 -2.3724596059e-01
     vertex 1.0000000000e+00 -1.4760682265e-01 -2.0173788176e-01
   endloop
 endfacet
 facet normal  1.0704966823e-01 7.0304351520e-01 7.0304351520e-01
   outer loop
     vertex 1.0000000000e+00 -1.4760682265e-01 -2.0173788176e-01
     vertex 8.6200135247e-01 -1.8960367918e-01 -1.3872851445e-01
     vertex 1.0000000000e+00 -2.0173788176e-01 -1.4760682265e-01
   endloop
 endfacet
 facet normal  1.0704966823e-01 7.0304351520e-01 7.0304351520e-01
   outer loop
     vertex 1.0000000000e+00 -1.4760682265e-01 -2.0173788176e-01
     vertex 8.6200135247e-01 -1.3872851445e-01 -1.8960367918e-01
     vertex 8.6200135247e-01 -1.8960367918e-01 -1.3872851445e-01
   endloop
 endfacet
 facet normal  7.8450241202e-02 7.0492749970e-01 7.0492749970e-01
   outer loop
     vertex 8.6200135247e-01 -1.3872851445e-01 -1.8960367918e-01
     vertex 4.9469990917e-01 -1.6599858394e-01 -1.2145722620e-01
     vertex 8.6200135247e-01 -1.8960367918e-01 -1.3872851445e-01
   endloop
 endfacet
 facet normal  7.8450241202e-02 7.0492749970e-01 7.0492749970e-01
   outer loop
     vertex 8.6200135247e-01 -1.3872851445e-01 -1.8960367918e-01
     vertex 4.9469990917e-01 -1.2145722620e-01 -1.6599858394e-01
     vertex 4.9469990917e-01 -1.6599858394e-01 -1.2145722620e-01
   endloop
 endfacet
 facet normal  -5.3672344300e-03 7.0709659623e-01 7.0709659623e-01
   outer loop
     vertex 4.9469990917e-01 -1.2145722620e-01 -1.6599858394e-01
     vertex 1.2655783651e-01 -1.2263792613e-01 -1.6761227563e-01
     vertex 4.9469990917e-01 -1.6599858394e-01 -1.2145722620e-01
   endloop
 endfacet
 facet normal  -5.3672344300e-03 7.0709659623e-01 7.0709659623e-01
   outer loop
     vertex 4.9469990917e-01 -1.6599858394e-01 -1.2145722620e-01
     vertex 1.2655783651e-01 -1.2263792613e-01 -1.6761227563e-01
     vertex 1.2655783651e-01 -1.6761227563e-01 -1.2263792613e-01
   endloop
 endfacet
 facet normal  -3.1352656223e-01 6.7145405456e-01 6.7145405456e-01
   outer loop
     vertex 1.2655783651e-01 -1.2263792613e-01 -1.6761227563e-01
     vertex 0.0000000000e+00 -1.4760682265e-01 -2.0173788176e-01
     vertex 1.2655783651e-01 -1.6761227563e-01 -1.2263792613e-01
   endloop
 endfacet
 facet normal  -3.1352656223e-01 6.7145405456e-01 6.7145405456e-01
   outer loop
     vertex 1.2655783651e-01 -1.6761227563e-01 -1.2263792613e-01
     vertex 0.0000000000e+00 -1.4760682265e-01 -2.0173788176e-01
     vertex 0.0000000000e+00 -2.0173788176e-01 -1.4760682265e-01
   endloop
 endfacet
 facet normal  -3.1352656223e-01 -6.7145405456e-01 -6.7145405456e-01
   outer loop
     vertex 0.0000000000e+00 -1.4760682265e-01 -2.0173788176e-01
     vertex 1.2655783651e-01 -2.3586348790e-01 -1.7257571916e-01
     vertex 0.0000000000e+00 -2.0173788176e-01 -1.4760682265e-01
   endloop
 endfacet
 facet normal  -3.1352656223e-01 -6.7145405456e-01 -6.7145405456e-01
   outer loop
     vertex 0.0000000000e+00 -1.4760682265e-01 -2.0173788176e-01
     vertex 1.2655783651e-01 -1.7257571916e-01 -2.3586348790e-01
     vertex 1.2655783651e-01 -2.3586348790e-01 -1.7257571916e-01
   endloop
 endfacet
 facet normal  -5.3672344300e-03 -7.0709659623e-01 -7.0709659623e-01
   outer loop
     vertex 1.2655783651e-01 -1.7257571916e-01 -2.3586348790e-01
     vertex 4.9469990917e-01 -2.3747717959e-01 -1.7375641909e-01
     vertex 1.2655783651e-01 -2.3586348790e-01 -1.7257571916e-01
   endloop
 endfacet
 facet normal  -5.3672344300e-03 -7.0709659623e-01 -7.0709659623e-01
   outer loop
     vertex 1.2655783651e-01 -1.7257571916e-01 -2.3586348790e-01
     vertex 4.9469990917e-01 -1.7375641909e-01 -2.3747717959e-01
     vertex 4.9469990917e-01 -2.3747717959e-01 -1.7375641909e-01
   endloop
 endfacet
 facet normal  7.8450241202e-02 -7.0492749970e-01 -7.0492749970e-01
   outer loop
     vertex 4.9469990917e-01 -1.7375641909e-01 -2.3747717959e-01
     vertex 8.6200135247e-01 -1.5648513084e-01 -2.1387208434e-01
     vertex 4.9469990917e-01 -2.3747717959e-01 -1.7375641909e-01
   endloop
 endfacet
 facet normal  7.8450241202e-02 -7.0492749970e-01 -7.0492749970e-01
   outer loop
     vertex 4.9469990917e-01 -2.3747717959e-01 -1.7375641909e-01
     vertex 8.6200135247e-01 -1.5648513084e-01 -2.1387208434e-01
     vertex 8.6200135247e-01 -2.1387208434e-01 -1.5648513084e-01
   endloop
 endfacet
 facet normal  1.0704966823e-01 -7.0304351520e-01 -7.0304351520e-01
   outer loop
     vertex 8.6200135247e-01 -1.5648513084e-01 -2.1387208434e-01
     vertex 1.0000000000e+00 -1.4760682265e-01 -2.0173788176e-01
     vertex 8.6200135247e-01 -2.1387208434e-01 -1.5648513084e-01
   endloop
 endfacet
 facet normal  1.0704966823e-01 -7.0304351520e-01 -7.0304351520e-01
   outer loop
     vertex 8.6200135247e-01 -2.1387208434e-01 -1.5648513084e-01
     vertex 1.0000000000e+00 -1.4760682265e-01 -2.0173788176e-01
     vertex 1.0000000000e+00 -2.0173788176e-01 -1.4760682265e-01
   endloop
 endfacet
 facet normal  1.0704239613e-01 8.8304379848e-01 4.5691965967e-01
   outer loop
     vertex 1.0000000000e+00 -2.0173788176e-01 -1.4760682265e-01
     vertex 8.6200135247e-01 -2.2297600533e-01 -7.4233093830e-02
     vertex 1.0000000000e+00 -2.3724596059e-01 -7.8983842351e-02
   endloop
 endfacet
 facet normal  1.0704239613e-01 8.8304379848e-01 4.5691965967e-01
   outer loop
     vertex 1.0000000000e+00 -2.0173788176e-01 -1.4760682265e-01
     vertex 8.6200135247e-01 -1.8960367918e-01 -1.3872851445e-01
     vertex 8.6200135247e-01 -2.2297600533e-01 -7.4233093830e-02
   endloop
 endfacet
 facet normal  7.8444883316e-02 8.8540981688e-01 4.5814392548e-01
   outer loop
     vertex 8.6200135247e-01 -1.8960367918e-01 -1.3872851445e-01
     vertex 4.9469990917e-01 -1.9521615454e-01 -6.4991293997e-02
     vertex 8.6200135247e-01 -2.2297600533e-01 -7.4233093830e-02
   endloop
 endfacet
 facet normal  7.8444883316e-02 8.8540981688e-01 4.5814392548e-01
   outer loop
     vertex 8.6200135247e-01 -1.8960367918e-01 -1.3872851445e-01
     vertex 4.9469990917e-01 -1.6599858394e-01 -1.2145722620e-01
     vertex 4.9469990917e-01 -1.9521615454e-01 -6.4991293997e-02
   endloop
 endfacet
 facet normal  -5.3668656070e-03 8.8813389252e-01 4.5955346339e-01
   outer loop
     vertex 4.9469990917e-01 -1.6599858394e-01 -1.2145722620e-01
     vertex 1.2655783651e-01 -1.6761227563e-01 -1.2263792613e-01
     vertex 4.9469990917e-01 -1.9521615454e-01 -6.4991293997e-02
   endloop
 endfacet
 facet normal  -5.3668656070e-03 8.8813389252e-01 4.5955346339e-01
   outer loop
     vertex 4.9469990917e-01 -1.9521615454e-01 -6.4991293997e-02
     vertex 1.2655783651e-01 -1.6761227563e-01 -1.2263792613e-01
     vertex 1.2655783651e-01 -1.9711387366e-01 -6.5623081985e-02
   endloop
 endfacet
 facet normal  -3.1350713453e-01 8.4337151861e-01 4.3639174855e-01
   outer loop
     vertex 1.2655783651e-01 -1.6761227563e-01 -1.2263792613e-01
     vertex 0.0000000000e+00 -2.0173788176e-01 -1.4760682265e-01
     vertex 1.2655783651e-01 -1.9711387366e-01 -6.5623081985e-02
   endloop
 endfacet
 facet normal  -3.1350713453e-01 8.4337151861e-01 4.3639174855e-01
   outer loop
     vertex 1.2655783651e-01 -1.9711387366e-01 -6.5623081985e-02
     vertex 0.0000000000e+00 -2.0173788176e-01 -1.4760682265e-01
     vertex 0.0000000000e+00 -2.3724596059e-01 -7.8983842351e-02
   endloop
 endfacet
 facet normal  -3.1350713453e-01 -8.4337151861e-01 -4.3639174855e-01
   outer loop
     vertex 0.0000000000e+00 -2.0173788176e-01 -1.4760682265e-01
     vertex 1.2655783651e-01 -2.7737804752e-01 -9.2344602718e-02
     vertex 0.0000000000e+00 -2.3724596059e-01 -7.8983842351e-02
   endloop
 endfacet
 facet normal  -3.1350713453e-01 -8.4337151861e-01 -4.3639174855e-01
   outer loop
     vertex 0.0000000000e+00 -2.0173788176e-01 -1.4760682265e-01
     vertex 1.2655783651e-01 -2.3586348790e-01 -1.7257571916e-01
     vertex 1.2655783651e-01 -2.7737804752e-01 -9.2344602718e-02
   endloop
 endfacet
 facet normal  -5.3668656070e-03 -8.8813389252e-01 -4.5955346339e-01
   outer loop
     vertex 1.2655783651e-01 -2.3586348790e-01 -1.7257571916e-01
     vertex 4.9469990917e-01 -2.7927576664e-01 -9.2976390705e-02
     vertex 1.2655783651e-01 -2.7737804752e-01 -9.2344602718e-02
   endloop
 endfacet
 facet normal  -5.3668656070e-03 -8.8813389252e-01 -4.5955346339e-01
   outer loop
     vertex 1.2655783651e-01 -2.3586348790e-01 -1.7257571916e-01
     vertex 4.9469990917e-01 -2.3747717959e-01 -1.7375641909e-01
     vertex 4.9469990917e-01 -2.7927576664e-01 -9.2976390705e-02
   endloop
 endfacet
 facet normal  7.8444883316e-02 -8.8540981688e-01 -4.5814392548e-01
   outer loop
     vertex 4.9469990917e-01 -2.3747717959e-01 -1.7375641909e-01
     vertex 8.6200135247e-01 -2.1387208434e-01 -1.5648513084e-01
     vertex 4.9469990917e-01 -2.7927576664e-01 -9.2976390705e-02
   endloop
 endfacet
 facet normal  7.8444883316e-02 -8.8540981688e-01 -4.5814392548e-01
   outer loop
     vertex 4.9469990917e-01 -2.7927576664e-01 -9.2976390705e-02
     vertex 8.6200135247e-01 -2.1387208434e-01 -1.5648513084e-01
     vertex 8.6200135247e-01 -2.5151591585e-01 -8.3734590873e-02
   endloop
 endfacet
 facet normal  1.0704239613e-01 -8.8304379848e-01 -4.5691965967e-01
   outer loop
     vertex 8.6200135247e-01 -2.1387208434e-01 -1.5648513084e-01
     vertex 1.0000000000e+00 -2.0173788176e-01 -1.4760682265e-01
     vertex 8.6200135247e-01 -2.5151591585e-01 -8.3734590873e-02
   endloop
 endfacet
 facet normal  1.0704239613e-01 -8.8304379848e-01 -4.5691965967e-01
   outer loop
     vertex 8.6200135247e-01 -2.5151591585e-01 -8.3734590873e-02
     vertex 1.0000000000e+00 -2.0173788176e-01 -1.4760682265e-01
     vertex 1.0000000000e+00 -2.3724596059e-01 -7.8983842351e-02
   endloop
 endfacet
 facet normal  1.0695500986e-01 9.8154941554e-01 1.5849722624e-01
   outer loop
     vertex 1.0000000000e+00 -2.3724596059e-01 -7.8983842351e-02
     vertex 8.6200135247e-01 -2.3496291020e-01 0.0000000000e+00
     vertex 1.0000000000e+00 -2.5000000000e-01 0.0000000000e+00
   endloop
 endfacet
 facet normal  1.0695500986e-01 9.8154941554e-01 1.5849722624e-01
   outer loop
     vertex 1.0000000000e+00 -2.3724596059e-01 -7.8983842351e-02
     vertex 8.6200135247e-01 -2.2297600533e-01 -7.4233093830e-02
     vertex 8.6200135247e-01 -2.3496291020e-01 0.0000000000e+00
   endloop
 endfacet
 facet normal  7.8380500007e-02 9.8417505935e-01 1.5892120618e-01
   outer loop
     vertex 8.6200135247e-01 -2.2297600533e-01 -7.4233093830e-02
     vertex 4.9469990917e-01 -2.0571072533e-01 0.0000000000e+00
     vertex 8.6200135247e-01 -2.3496291020e-01 0.0000000000e+00
   endloop
 endfacet
 facet normal  7.8380500007e-02 9.8417505935e-01 1.5892120618e-01
   outer loop
     vertex 8.6200135247e-01 -2.2297600533e-01 -7.4233093830e-02
     vertex 4.9469990917e-01 -1.9521615454e-01 -6.4991293997e-02
     vertex 4.9469990917e-01 -2.0571072533e-01 0.0000000000e+00
   endloop
 endfacet
 facet normal  -5.3624336624e-03 9.8719800757e-01 1.5940934147e-01
   outer loop
     vertex 4.9469990917e-01 -1.9521615454e-01 -6.4991293997e-02
     vertex 1.2655783651e-01 -1.9711387366e-01 -6.5623081985e-02
     vertex 4.9469990917e-01 -2.0571072533e-01 0.0000000000e+00
   endloop
 endfacet
 facet normal  -5.3624336624e-03 9.8719800757e-01 1.5940934147e-01
   outer loop
     vertex 4.9469990917e-01 -2.0571072533e-01 0.0000000000e+00
     vertex 1.2655783651e-01 -1.9711387366e-01 -6.5623081985e-02
     vertex 1.2655783651e-01 -2.0771046340e-01 0.0000000000e+00
   endloop
 endfacet
 facet normal  -3.1327365175e-01 9.3751880000e-01 1.5138731377e-01
   outer loop
     vertex 1.2655783651e-01 -1.9711387366e-01 -6.5623081985e-02
     vertex 0.0000000000e+00 -2.3724596059e-01 -7.8983842351e-02
     vertex 1.2655783651e-01 -2.0771046340e-01 0.0000000000e+00
   endloop
 endfacet
 facet normal  -3.1327365175e-01 9.3751880000e-01 1.5138731377e-01
   outer loop
     vertex 1.2655783651e-01 -2.0771046340e-01 0.0000000000e+00
     vertex 0.0000000000e+00 -2.3724596059e-01 -7.8983842351e-02
     vertex 0.0000000000e+00 -2.5000000000e-01 0.0000000000e+00
   endloop
 endfacet
 facet normal  -3.1327365175e-01 -9.3751880000e-01 -1.5138731377e-01
   outer loop
     vertex 0.0000000000e+00 -2.3724596059e-01 -7.8983842351e-02
     vertex 1.2655783651e-01 -2.9228953660e-01 0.0000000000e+00
     vertex 0.0000000000e+00 -2.5000000000e-01 0.0000000000e+00
   endloop
 endfacet
 facet normal  -3.1327365175e-01 -9.3751880000e-01 -1.5138731377e-01
   outer loop
     vertex 0.0000000000e+00 -2.3724596059e-01 -7.8983842351e-02
     vertex 1.2655783651e-01 -2.7737804752e-01 -9.2344602718e-02
     vertex 1.2655783651e-01 -2.9228953660e-01 0.0000000000e+00
   endloop
 endfacet
 facet normal  -5.3624336624e-03 -9.8719800757e-01 -1.5940934147e-01
   outer loop
     vertex 1.2655783651e-01 -2.7737804752e-01 -9.2344602718e-02
     vertex 4.9469990917e-01 -2.9428927467e-01 0.0000000000e+00
     vertex 1.2655783651e-01 -2.9228953660e-01 0.0000000000e+00
   endloop
 endfacet
 facet normal  -5.3624336624e-03 -9.8719800757e-01 -1.5940934147e-01
   outer loop
     vertex 1.2655783651e-01 -2.7737804752e-01 -9.2344602718e-02
     vertex 4.9469990917e-01 -2.7927576664e-01 -9.2976390705e-02
     vertex 4.9469990917e-01 -2.9428927467e-01 0.0000000000e+00
   endloop
 endfacet
 facet normal  7.8380500007e-02 -9.8417505935e-01 -1.5892120618e-01
   outer loop
     vertex 4.9469990917e-01 -2.7927576664e-01 -9.2976390705e-02
     vertex 8.6200135247e-01 -2.5151591585e-01 -8.3734590873e-02
     vertex 4.9469990917e-01 -2.9428927467e-01 0.0000000000e+00
   endloop
 endfacet
 facet normal  7.8380500007e-02 -9.8417505935e-01 -1.5892120618e-01
   outer loop
     vertex 4.9469990917e-01 -2.9428927467e-01 0.0000000000e+00
     vertex 8.6200135247e-01 -2.5151591585e-01 -8.3734590873e-02
     vertex 8.6200135247e-01 -2.6503708980e-01 0.0000000000e+00
   endloop
 endfacet
 facet normal  1.0695500986e-01 -9.8154941554e-01 -1.5849722624e-01
   outer loop
     vertex 8.6200135247e-01 -2.5151591585e-01 -8.3734590873e-02
     vertex 1.0000000000e+00 -2.3724596059e-01 -7.8983842351e-02
     vertex 8.6200135247e-01 -2.6503708980e-01 0.0000000000e+00
   endloop
 endfacet
 facet normal  1.0695500986e-01 -9.8154941554e-01 -1.5849722624e-01
   outer loop
     vertex 8.6200135247e-01 -2.6503708980e-01 0.0000000000e+00
     vertex 1.0000000000e+00 -2.3724596059e-01 -7.8983842351e-02
     vertex 1.0000000000e+00 -2.5000000000e-01 0.0000000000e+00
   endloop
 endfacet
 facet normal  1.0695500986e-01 9.8154941554e-01 -1.5849722624e-01
   outer loop
     vertex 1.0000000000e+00 -2.5000000000e-01 0.0000000000e+00
     vertex 8.6200135247e-01 -2.2297600533e-01 7.4233093830e-02
     vertex 1.0000000000e+00 -2.3724596059e-01 7.8983842351e-02
   endloop
 endfacet
 facet normal  1.0695500986e-01 9.8154941554e-01 -1.5849722624e-01
   outer loop
     vertex 1.0000000000e+00 -2.5000000000e-01 0.0000000000e+00
     vertex 8.6200135247e-01 -2.3496291020e-01 0.0000000000e+00
     vertex 8.6200135247e-01 -2.2297600533e-01 7.4233093830e-02
   endloop
 endfacet
 facet normal  7.8380500007e-02 9.8417505935e-01 -1.5892120618e-01
   outer loop
     vertex 8.6200135247e-01 -2.3496291020e-01 0.0000000000e+00
     vertex 4.9469990917e-01 -1.9521615454e-01 6.4991293997e-02
     vertex 8.6200135247e-01 -2.2297600533e-01 7.4233093830e-02
   endloop
 endfacet
 facet normal  7.8380500007e-02 9.8417505935e-01 -1.5892120618e-01
   outer loop
     vertex 8.6200135247e-01 -2.3496291020e-01 0.0000000000e+00
     vertex 4.9469990917e-01 -2.0571072533e-01 0.0000000000e+00
     vertex 4.9469990917e-01 -1.9521615454e-01 6.4991293997e-02
   endloop
 endfacet
 facet normal  -5.3624336624e-03 9.8719800757e-01 -1.5940934147e-01
   outer loop
     vertex 4.9469990917e-01 -2.0571072533e-01 0.0000000000e+00
     vertex 1.2655783651e-01 -2.0771046340e-01 0.0000000000e+00
     vertex 4.9469990917e-01 -1.9521615454e-01 6.4991293997e-02
   endloop
 endfacet
 facet normal  -5.3624336624e-03 9.8719800757e-01 -1.5940934147e-01
   outer loop
     vertex 4.9469990917e-01 -1.9521615454e-01 6.4991293997e-02
     vertex 1.2655783651e-01 -2.0771046340e-01 0.0000000000e+00
     vertex 1.2655783651e-01 -1.9711387366e-01 6.5623081985e-02
   endloop
 endfacet
 facet normal  -3.1327365175e-01 9.3751880000e-01 -1.5138731377e-01
   outer loop
     vertex 1.2655783651e-01 -2.0771046340e-01 0.0000000000e+00
     vertex 0.0000000000e+00 -2.5000000000e-01 0.0000000000e+00
     vertex 1.2655783651e-01 -1.9711387366e-01 6.5623081985e-02
   endloop
 endfacet
 facet normal  -3.1327365175e-01 9.3751880000e-01 -1.5138731377e-01
   outer loop
     vertex 1.2655783651e-01 -1.9711387366e-01 6.5623081985e-02
     vertex 0.0000000000e+00 -2.5000000000e-01 0.0000000000e+00
     vertex 0.0000000000e+00 -2.3724596059e-01 7.8983842351e-02
   endloop
 endfacet
 facet normal  -3.1327365175e-01 -9.3751880000e-01 1.5138731377e-01
   outer loop
     vertex 0.0000000000e+00 -2.5000000000e-01 0.0000000000e+00
     vertex 1.2655783651e-01 -2.7737804752e-01 9.2344602718e-02
     vertex 0.0000000000e+00 -2.3724596059e-01 7.8983842351e-02
   endloop
 endfacet
 facet normal  -3.1327365175e-01 -9.3751880000e-01 1.5138731377e-01
   outer loop
     vertex 0.0000000000e+00 -2.5000000000e-01 0.0000000000e+00
     vertex 1.2655783651e-01 -2.9228953660e-01 0.0000000000e+00
     vertex 1.2655783651e-01 -2.7737804752e-01 9.2344602718e-02
   endloop
 endfacet
 facet normal  -5.3624336624e-03 -9.8719800757e-01 1.5940934147e-01
   outer loop
     vertex 1.2655783651e-01 -2.9228953660e-01 0.0000000000e+00
     vertex 4.9469990917e-01 -2.7927576664e-01 9.2976390705e-02
     vertex 1.2655783651e-01 -2.7737804752e-01 9.2344602718e-02
   endloop
 endfacet
 facet normal  -5.3624336624e-03 -9.8719800757e-01 1.5940934147e-01
   outer loop
     vertex 1.2655783651e-01 -2.9228953660e-01 0.0000000000e+00
     vertex 4.9469990917e-01 -2.9428927467e-01 0.0000000000e+00
     vertex 4.9469990917e-01 -2.7927576664e-01 9.2976390705e-02
   endloop
 endfacet
 facet normal  7.8380500007e-02 -9.8417505935e-01 1.5892120618e-01
   outer loop
     vertex 4.9469990917e-01 -2.9428927467e-01 0.0000000000e+00
     vertex 8.6200135247e-01 -2.6503708980e-01 0.0000000000e+00
     vertex 4.9469990917e-01 -2.7927576664e-01 9.2976390705e-02
   endloop
 endfacet
 facet normal  7.8380500007e-02 -9.8417505935e-01 1.5892120618e-01
   outer loop
     vertex 4.9469990917e-01 -2.7927576664e-01 9.2976390705e-02
     vertex 8.6200135247e-01 -2.6503708980e-01 0.0000000000e+00
     vertex 8.6200135247e-01 -2.5151591585e-01 8.3734590873e-02
   endloop
 endfacet
 facet normal  1.0695500986e-01 -9.8154941554e-01 1.5849722624e-01
   outer loop
     vertex 8.6200135247e-01 -2.6503708980e-01 0.0000000000e+00
     vertex 1.0000000000e+00 -2.5000000000e-01 0.0000000000e+00
     vertex 8.6200135247e-01 -2.5151591585e-01 8.3734590873e-02
   endloop
 endfacet
 facet normal  1.0695500986e-01 -9.8154941554e-01 1.5849722624e-01
   outer loop
     vertex 8.6200135247e-01 -2.5151591585e-01 8.3734590873e-02
     vertex 1.0000000000e+00 -2.5000000000e-01 0.0000000000e+00
     vertex 1.0000000000e+00 -2.3724596059e-01 7.8983842351e-02
   endloop
 endfacet
 facet normal  1.0704239613e-01 8.8304379848e-01 -4.5691965967e-01
   outer loop
     vertex 1.0000000000e+00 -2.3724596059e-01 7.8983842351e-02
     vertex 8.6200135247e-01 -1.8960367918e-01 1.3872851445e-01
     vertex 1.0000000000e+00 -2.0173788176e-01 1.4760682265e-01
   endloop
 endfacet
 facet normal  1.0704239613e-01 8.8304379848e-01 -4.5691965967e-01
   outer loop
     vertex 1.0000000000e+00 -2.3724596059e-01 7.8983842351e-02
     vertex 8.6200135247e-01 -2.2297600533e-01 7.4233093830e-02
     vertex 8.6200135247e-01 -1.8960367918e-01 1.3872851445e-01
   endloop
 endfacet
 facet normal  7.8444883316e-02 8.8540981688e-01 -4.5814392548e-01
   outer loop
     vertex 8.6200135247e-01 -2.2297600533e-01 7.4233093830e-02
     vertex 4.9469990917e-01 -1.6599858394e-01 1.2145722620e-01
     vertex 8.6200135247e-01 -1.8960367918e-01 1.3872851445e-01
   endloop
 endfacet
 facet normal  7.8444883316e-02 8.8540981688e-01 -4.5814392548e-01
   outer loop
     vertex 8.6200135247e-01 -2.2297600533e-01 7.4233093830e-02
     vertex 4.9469990917e-01 -1.9521615454e-01 6.4991293997e-02
     vertex 4.9469990917e-01 -1.6599858394e-01 1.2145722620e-01
   endloop
 endfacet
 facet normal  -5.3668656070e-03 8.8813389252e-01 -4.5955346339e-01
   outer loop
     vertex 4.9469990917e-01 -1.9521615454e-01 6.4991293997e-02
     vertex 1.2655783651e-01 -1.9711387366e-01 6.5623081985e-02
     vertex 4.9469990917e-01 -1.6599858394e-01 1.2145722620e-01
   endloop
 endfacet
 facet normal  -5.3668656070e-03 8.8813389252e-01 -4.5955346339e-01
   outer loop
     vertex 4.9469990917e-01 -1.6599858394e-01 1.2145722620e-01
     vertex 1.2655783651e-01 -1.9711387366e-01 6.5623081985e-02
     vertex 1.2655783651e-01 -1.6761227563e-01 1.2263792613e-01
   endloop
 endfacet
 facet normal  -3.1350713453e-01 8.4337151861e-01 -4.3639174855e-01
   outer loop
     vertex 1.2655783651e-01 -1.9711387366e-01 6.5623081985e-02
     vertex 0.0000000000e+00 -2.3724596059e-01 7.8983842351e-02
     vertex 1.2655783651e-01 -1.6761227563e-01 1.2263792613e-01
   endloop
 endfacet
 facet normal  -3.1350713453e-01 8.4337151861e-01 -4.3639174855e-01
   outer loop
     vertex 1.2655783651e-01 -1.6761227563e-01 1.2263792613e-01
     vertex 0.0000000000e+00 -2.3724596059e-01 7.8983842351e-02
     vertex 0.0000000000e+00 -2.0173788176e-01 1.4760682265e-01
   endloop
 endfacet
 facet normal  -3.1350713453e-01 -8.4337151861e-01 4.3639174855e-01
   outer loop
     vertex 0.0000000000e+00 -2.3724596059e-01 7.8983842351e-02
     vertex 1.2655783651e-01 -2.3586348790e-01 1.7257571916e-01
     vertex 0.0000000000e+00 -2.0173788176e-01 1.4760682265e-01
   endloop
 endfacet
 facet normal  -3.1350713453e-01 -8.4337151861e-01 4.3639174855e-01
   outer loop
     vertex 0.0000000000e+00 -2.3724596059e-01 7.8983842351e-02
     vertex 1.2655783651e-01 -2.7737804752e-01 9.2344602718e-02
     vertex 1.2655783651e-01 -2.3586348790e-01 1.7257571916e-01
   endloop
 endfacet
 facet normal  -5.3668656070e-03 -8.8813389252e-01 4.5955346339e-01
   outer loop
     vertex 1.2655783651e-01 -2.7737804752e-01 9.2344602718e-02
     vertex 4.9469990917e-01 -2.3747717959e-01 1.7375641909e-01
     vertex 1.2655783651e-01 -2.3586348790e-01 1.7257571916e-01
   endloop
 endfacet
 facet normal  -5.3668656070e-03 -8.8813389252e-01 4.5955346339e-01
   outer loop
     vertex 1.2655783651e-01 -2.7737804752e-01 9.2344602718e-02
     vertex 4.9469990917e-01 -2.7927576664e-01 9.2976390705e-02
     vertex 4.9469990917e-01 -2.3747717959e-01 1.7375641909e-01
   endloop
 endfacet
 facet normal  7.8444883316e-02 -8.8540981688e-01 4.5814392548e-01
   outer loop
     vertex 4.9469990917e-01 -2.7927576664e-01 9.2976390705e-02
     vertex 8.6200135247e-01 -2.5151591585e-01 8.3734590873e-02
     vertex 4.9469990917e-01 -2.3747717959e-01 1.7375641909e-01
   endloop
 endfacet
 facet normal  7.8444883316e-02 -8.8540981688e-01 4.5814392548e-01
   outer loop
     vertex 4.9469990917e-01 -2.3747717959e-01 1.7375641909e-01
     vertex 8.6200135247e-01 -2.5151591585e-01 8.3734590873e-02
     vertex 8.6200135247e-01 -2.1387208434e-01 1.5648513084e-01
   endloop
 endfacet
 facet normal  1.0704239613e-01 -8.8304379848e-01 4.5691965967e-01
   outer loop
     vertex 8.6200135247e-01 -2.5151591585e-01 8.3734590873e-02
     vertex 1.0000000000e+00 -2.3724596059e-01 7.8983842351e-02
     vertex 8.6200135247e-01 -2.1387208434e-01 1.5648513084e-01
   endloop
 endfacet
 facet normal  1.0704239613e-01 -8.8304379848e-01 4.5691965967e-01
   outer loop
     vertex 8.6200135247e-01 -2.1387208434e-01 1.5648513084e-01
     vertex 1.0000000000e+00 -2.3724596059e-01 7.8983842351e-02
     vertex 1.0000000000e+00 -2.0173788176e-01 1.4760682265e-01
   endloop
 endfacet
 facet normal  1.0704966823e-01 7.0304351520e-01 -7.0304351520e-01
   outer loop
     vertex 1.0000000000e+00 -2.0173788176e-01 1.4760682265e-01
     vertex 8.6200135247e-01 -1.3872851445e-01 1.8960367918e-01
     vertex 1.0000000000e+00 -1.4760682265e-01 2.0173788176e-01
   endloop
 endfacet
 facet normal  1.0704966823e-01 7.0304351520e-01 -7.0304351520e-01
   outer loop
     vertex 1.0000000000e+00 -2.0173788176e-01 1.4760682265e-01
     vertex 8.6200135247e-01 -1.8960367918e-01 1.3872851445e-01
     vertex 8.6200135247e-01 -1.3872851445e-01 1.8960367918e-01
   endloop
 endfacet
 facet normal  7.8450241202e-02 7.0492749970e-01 -7.0492749970e-01
   outer loop
     vertex 8.6200135247e-01 -1.8960367918e-01 1.3872851445e-01
     vertex 4.9469990917e-01 -1.2145722620e-01 1.6599858394e-01
     vertex 8.6200135247e-01 -1.3872851445e-01 1.8960367918e-01
   endloop
 endfacet
 facet normal  7.8450241202e-02 7.0492749970e-01 -7.0492749970e-01
   outer loop
     vertex 8.6200135247e-01 -1.8960367918e-01 1.3872851445e-01
     vertex 4.9469990917e-01 -1.6599858394e-01 1.2145722620e-01
     vertex 4.9469990917e-01 -1.2145722620e-01 1.6599858394e-01
   endloop
 endfacet
 facet normal  -5.3672344300e-03 7.0709659623e-01 -7.0709659623e-01
   outer loop
     vertex 4.9469990917e-01 -1.6599858394e-01 1.2145722620e-01
     vertex 1.2655783651e-01 -1.6761227563e-01 1.2263792613e-01
     vertex 4.9469990917e-01 -1.2145722620e-01 1.6599858394e-01
   endloop
 endfacet
 facet normal  -5.3672344300e-03 7.0709659623e-01 -7.0709659623e-01
   outer loop
     vertex 4.9469990917e-01 -1.2145722620e-01 1.6599858394e-01
     vertex 1.2655783651e-01 -1.6761227563e-01 1.2263792613e-01
     vertex 1.2655783651e-01 -1.2263792613e-01 1.6761227563e-01
   endloop
 endfacet
 facet normal  -3.1352656223e-01 6.7145405456e-01 -6.7145405456e-01
   outer loop
     vertex 1.2655783651e-01 -1.6761227563e-01 1.2263792613e-01
     vertex 0.0000000000e+00 -2.0173788176e-01 1.4760682265e-01
     vertex 1.2655783651e-01 -1.2263792613e-01 1.6761227563e-01
   endloop
 endfacet
 facet normal  -3.1352656223e-01 6.7145405456e-01 -6.7145405456e-01
   outer loop
     vertex 1.2655783651e-01 -1.2263792613e-01 1.6761227563e-01
     vertex 0.0000000000e+00 -2.0173788176e-01 1.4760682265e-01
     vertex 0.0000000000e+00 -1.4760682265e-01 2.0173788176e-01
   endloop
 endfacet
 facet normal  -3.1352656223e-01 -6.7145405456e-01 6.7145405456e-01
   outer loop
     vertex 0.0000000000e+00 -2.0173788176e-01 1.4760682265e-01
     vertex 1.2655783651e-01 -1.7257571916e-01 2.3586348790e-01
     vertex 0.0000000000e+00 -1.4760682265e-01 2.0173788176e-01
   endloop
 endfacet
 facet normal  -3.1352656223e-01 -6.7145405456e-01 6.7145405456e-01
   outer loop
     vertex 0.0000000000e+00 -2.0173788176e-01 1.4760682265e-01
     vertex 1.2655783651e-01 -2.3586348790e-01 1.7257571916e-01
     vertex 1.2655783651e-01 -1.7257571916e-01 2.3586348790e-01
   endloop
 endfacet
 facet normal  -5.3672344300e-03 -7.0709659623e-01 7.0709659623e-01
   outer loop
     vertex 1.2655783651e-01 -2.3586348790e-01 1.7257571916e-01
     vertex 4.9469990917e-01 -1.7375641909e-01 2.3747717959e-01
     vertex 1.2655783651e-01 -1.7257571916e-01 2.3586348790e-01
   endloop
 endfacet
 facet normal  -5.3672344300e-03 -7.0709659623e-01 7.0709659623e-01
   outer loop
     vertex 1.2655783651e-01 -2.3586348790e-01 1.7257571916e-01
     vertex 4.9469990917e-01 -2.3747717959e-01 1.7375641909e-01
     vertex 4.9469990917e-01 -1.7375641909e-01 2.3747717959e-01
   endloop
 endfacet
 facet normal  7.8450241202e-02 -7.0492749970e-01 7.0492749970e-01
   outer loop
     vertex 4.9469990917e-01 -2.3747717959e-01 1.7375641909e-01
     vertex 8.6200135247e-01 -2.1387208434e-01 1.5648513084e-01
     vertex 4.9469990917e-01 -1.7375641909e-01 2.3747717959e-01
   endloop
 endfacet
 facet normal  7.8450241202e-02 -7.0492749970e-01 7.0492749970e-01
   outer loop
     vertex 4.9469990917e-01 -1.7375641909e-01 2.3747717959e-01
     vertex 8.6200135247e-01 -2.1387208434e-01 1.5648513084e-01
     vertex 8.6200135247e-01 -1.5648513084e-01 2.1387208434e-01
   endloop
 endfacet
 facet normal  1.0704966823e-01 -7.0304351520e-01 7.0304351520e-01
   outer loop
     vertex 8.6200135247e-01 -2.1387208434e-01 1.5648513084e-01
     vertex 1.0000000000e+00 -2.0173788176e-01 1.4760682265e-01
     vertex 8.6200135247e-01 -1.5648513084e-01 2.1387208434e-01
   endloop
 endfacet
 facet normal  1.0704966823e-01 -7.0304351520e-01 7.0304351520e-01
   outer loop
     vertex 8.6200135247e-01 -1.5648513084e-01 2.1387208434e-01
     vertex 1.0000000000e+00 -2.0173788176e-01 1.4760682265e-01
     vertex 1.0000000000e+00 -1.4760682265e-01 2.0173788176e-01
   endloop
 endfacet
 facet normal  1.0704239613e-01 4.5691965967e-01 -8.8304379848e-01
   outer loop
     vertex 1.0000000000e+00 -1.4760682265e-01 2.0173788176e-01
     vertex 8.6200135247e-01 -7.4233093830e-02 2.2297600533e-01
     vertex 1.0000000000e+00 -7.8983842351e-02 2.3724596059e-01
   endloop
 endfacet
 facet normal  1.0704239613e-01 4.5691965967e-01 -8.8304379848e-01
   outer loop
     vertex 1.0000000000e+00 -1.4760682265e-01 2.0173788176e-01
     vertex 8.6200135247e-01 -1.3872851445e-01 1.8960367918e-01
     vertex 8.6200135247e-01 -7.4233093830e-02 2.2297600533e-01
   endloop
 endfacet
 facet normal  7.8444883316e-02 4.5814392548e-01 -8.8540981688e-01
   outer loop
     vertex 8.6200135247e-01 -1.3872851445e-01 1.8960367918e-01
     vertex 4.9469990917e-01 -6.4991293997e-02 1.9521615454e-01
     vertex 8.6200135247e-01 -7.4233093830e-02 2.2297600533e-01
   endloop
 endfacet
 facet normal  7.8444883316e-02 4.5814392548e-01 -8.8540981688e-01
   outer loop
     vertex 8.6200135247e-01 -1.3872851445e-01 1.8960367918e-01
     vertex 4.9469990917e-01 -1.2145722620e-01 1.6599858394e-01
     vertex 4.9469990917e-01 -6.4991293997e-02 1.9521615454e-01
   endloop
 endfacet
 facet normal  -5.3668656070e-03 4.5955346339e-01 -8.8813389252e-01
   outer loop
     vertex 4.9469990917e-01 -1.2145722620e-01 1.6599858394e-01
     vertex 1.2655783651e-01 -1.2263792613e-01 1.6761227563e-01
     vertex 4.9469990917e-01 -6.4991293997e-02 1.9521615454e-01
   endloop
 endfacet
 facet normal  -5.3668656070e-03 4.5955346339e-01 -8.8813389252e-01
   outer loop
     vertex 4.9469990917e-01 -6.4991293997e-02 1.9521615454e-01
     vertex 1.2655783651e-01 -1.2263792613e-01 1.6761227563e-01
     vertex 1.2655783651e-01 -6.5623081985e-02 1.9711387366e-01
   endloop
 endfacet
 facet normal  -3.1350713453e-01 4.3639174855e-01 -8.4337151861e-01
   outer loop
     vertex 1.2655783651e-01 -1.2263792613e-01 1.6761227563e-01
     vertex 0.0000000000e+00 -1.4760682265e-01 2.0173788176e-01
     vertex 1.2655783651e-01 -6.5623081985e-02 1.9711387366e-01
   endloop
 endfacet
 facet normal  -3.1350713453e-01 4.3639174855e-01 -8.4337151861e-01
   outer loop
     vertex 1.2655783651e-01 -6.5623081985e-02 1.9711387366e-01
     vertex 0.0000000000e+00 -1.4760682265e-01 2.0173788176e-01
     vertex 0.0000000000e+00 -7.8983842351e-02 2.3724596059e-01
   endloop
 endfacet
 facet normal  -3.1350713453e-01 -4.3639174855e-01 8.4337151861e-01
   outer loop
     vertex 0.0000000000e+00 -1.4760682265e-01 2.0173788176e-01
     vertex 1.2655783651e-01 -9.2344602718e-02 2.7737804752e-01
     vertex 0.0000000000e+00 -7.8983842351e-02 2.3724596059e-01
   endloop
 endfacet
 facet normal  -3.1350713453e-01 -4.3639174855e-01 8.4337151861e-01
   outer loop
     vertex 0.0000000000e+00 -1.4760682265e-01 2.0173788176e-01
     vertex 1.2655783651e-01 -1.7257571916e-01 2.3586348790e-01
     vertex 1.2655783651e-01 -9.2344602718e-02 2.7737804752e-01
   endloop
 endfacet
 facet normal  -5.3668656070e-03 -4.5955346339e-01 8.8813389252e-01
   outer loop
     vertex 1.2655783651e-01 -1.7257571916e-01 2.3586348790e-01
     vertex 4.9469990917e-01 -9.2976390705e-02 2.7927576664e-01
     vertex 1.2655783651e-01 -9.2344602718e-02 2.7737804752e-01
   endloop
 endfacet
 facet normal  -5.3668656070e-03 -4.5955346339e-01 8.8813389252e-01
   outer loop
     vertex 1.2655783651e-01 -1.7257571916e-01 2.3586348790e-01
     vertex 4.9469990917e-01 -1.7375641909e-01 2.3747717959e-01
     vertex 4.9469990917e-01 -9.2976390705e-02 2.7927576664e-01
   endloop
 endfacet
 facet normal  7.8444883316e-02 -4.5814392548e-01 8.8540981688e-01
   outer loop
     vertex 4.9469990917e-01 -1.7375641909e-01 2.3747717959e-01
     vertex 8.6200135247e-01 -1.5648513084e-01 2.1387208434e-01
     vertex 4.9469990917e-01 -9.2976390705e-02 2.7927576664e-01
   endloop
 endfacet
 facet normal  7.8444883316e-02 -4.5814392548e-01 8.8540981688e-01
   outer loop
     vertex 4.9469990917e-01 -9.2976390705e-02 2.7927576664e-01
     vertex 8.6200135247e-01 -1.5648513084e-01 2.1387208434e-01
     vertex 8.6200135247e-01 -8.3734590873e-02 2.5151591585e-01
   endloop
 endfacet
 facet normal  1.0704239613e-01 -4.5691965967e-01 8.8304379848e-01
   outer loop
     vertex 8.6200135247e-01 -1.5648513084e-01 2.1387208434e-01
     vertex 1.0000000000e+00 -1.4760682265e-01 2.0173788176e-01
     vertex 8.6200135247e-01 -8.3734590873e-02 2.5151591585e-01
   endloop
 endfacet
 facet normal  1.0704239613e-01 -4.5691965967e-01 8.8304379848e-01
   outer loop
     vertex 8.6200135247e-01 -8.3734590873e-02 2.5151591585e-01
     vertex 1.0000000000e+00 -1.4760682265e-01 2.0173788176e-01
     vertex 1.0000000000e+00 -7.8983842351e-02 2.3724596059e-01
   endloop
 endfacet
 facet normal  1.0695500986e-01 1.5849722624e-01 -9.8154941554e-01
   outer loop
     vertex 1.0000000000e+00 -7.8983842351e-02 2.3724596059e-01
     vertex 8.6200135247e-01 0.0000000000e+00 2.3496291020e-01
     vertex 1.0000000000e+00 0.0000000000e+00 2.5000000000e-01
   endloop
 endfacet
 facet normal  1.0695500986e-01 1.5849722624e-01 -9.8154941554e-01
   outer loop
     vertex 1.0000000000e+00 -7.8983842351e-02 2.3724596059e-01
     vertex 8.6200135247e-01 -7.4233093830e-02 2.2297600533e-01
     vertex 8.6200135247e-01 0.0000000000e+00 2.3496291020e-01
   endloop
 endfacet
 facet normal  7.8380500007e-02 1.5892120618e-01 -9.8417505935e-01
   outer loop
     vertex 8.6200135247e-01 -7.4233093830e-02 2.2297600533e-01
     vertex 4.9469990917e-01 0.0000000000e+00 2.0571072533e-01
     vertex 8.6200135247e-01 0.0000000000e+00 2.3496291020e-01
   endloop
 endfacet
 facet normal  7.8380500007e-02 1.5892120618e-01 -9.8417505935e-01
   outer loop
     vertex 8.6200135247e-01 -7.4233093830e-02 2.2297600533e-01
     vertex 4.9469990917e-01 -6.4991293997e-02 1.9521615454e-01
     vertex 4.9469990917e-01 0.0000000000e+00 2.0571072533e-01
   endloop
 endfacet
 facet normal  -5.3624336624e-03 1.5940934147e-01 -9.8719800757e-01
   outer loop
     vertex 4.9469990917e-01 -6.4991293997e-02 1.9521615454e-01
     vertex 1.2655783651e-01 -6.5623081985e-02 1.9711387366e-01
     vertex 4.9469990917e-01 0.0000000000e+00 2.0571072533e-01
   endloop
 endfacet
 facet normal  -5.3624336624e-03 1.5940934147e-01 -9.8719800757e-01
   outer loop
     vertex 4.9469990917e-01 0.0000000000e+00 2.0571072533e-01
     vertex 1.2655783651e-01 -6.5623081985e-02 1.9711387366e-01
     vertex 1.2655783651e-01 0.0000000000e+00 2.0771046340e-01
   endloop
 endfacet
 facet normal  -3.1327365175e-01 1.5138731377e-01 -9.3751880000e-01
   outer loop
     vertex 1.2655783651e-01 -6.5623081985e-02 1.9711387366e-01
     vertex 0.0000000000e+00 -7.8983842351e-02 2.3724596059e-01
     vertex 1.2655783651e-01 0.0000000000e+00 2.0771046340e-01
   endloop
 endfacet
 facet normal  -3.1327365175e-01 1.5138731377e-01 -9.3751880000e-01
   outer loop
     vertex 1.2655783651e-01 0.0000000000e+00 2.0771046340e-01
     vertex 0.0000000000e+00 -7.8983842351e-02 2.3724596059e-01
     vertex 0.0000000000e+00 0.0000000000e+00 2.5000000000e-01
   endloop
 endfacet
 facet normal  -3.1327365175e-01 -1.5138731377e-01 9.3751880000e-01
   outer loop
     vertex 0.0000000000e+00 -7.8983842351e-02 2.3724596059e-01
     vertex 1.2655783651e-01 0.0000000000e+00 2.9228953660e-01
     vertex 0.0000000000e+00 0.0000000000e+00 2.5000000000e-01
   endloop
 endfacet
 facet normal  -3.1327365175e-01 -1.5138731377e-01 9.3751880000e-01
   outer loop
     vertex 0.0000000000e+00 -7.8983842351e-02 2.3724596059e-01
     vertex 1.2655783651e-01 -9.2344602718e-02 2.7737804752e-01
     vertex 1.2655783651e-01 0.0000000000e+00 2.9228953660e-01
   endloop
 endfacet
 facet normal  -5.3624336624e-03 -1.5940934147e-01 9.8719800757e-01
   outer loop
     vertex 1.2655783651e-01 -9.2344602718e-02 2.7737804752e-01
     vertex 4.9469990917e-01 0.0000000000e+00 2.9428927467e-01
     vertex 1.2655783651e-01 0.0000000000e+00 2.9228953660e-01
   endloop
 endfacet
 facet normal  -5.3624336624e-03 -1.5940934147e-01 9.8719800757e-01
   outer loop
     vertex 1.2655783651e-01 -9.2344602718e-02 2.7737804752e-01
     vertex 4.9469990917e-01 -9.2976390705e-02 2.7927576664e-01
     vertex 4.9469990917e-01 0.0000000000e+00 2.9428927467e-01
   endloop
 endfacet
 facet normal  7.8380500007e-02 -1.5892120618e-01 9.8417505935e-01
   outer loop
     vertex 4.9469990917e-01 -9.2976390705e-02 2.7927576664e-01
     vertex 8.6200135247e-01 -8.3734590873e-02 2.5151591585e-01
     vertex 4.9469990917e-01 0.0000000000e+00 2.9428927467e-01
   endloop
 endfacet
 facet normal  7.8380500007e-02 -1.5892120618e-01 9.8417505935e-01
   outer loop
     vertex 4.9469990917e-01 0.0000000000e+00 2.9428927467e-01
     vertex 8.6200135247e-01 -8.3734590873e-02 2.5151591585e-01
     vertex 8.6200135247e-01 0.0000000000e+00 2.6503708980e-01
   endloop
 endfacet
 facet normal  1.0695500986e-01 -1.5849722624e-01 9.8154941554e-01
   outer loop
     vertex 8.6200135247e-01 -8.3734590873e-02 2.5151591585e-01
     vertex 1.0000000000e+00 -7.8983842351e-02 2.3724596059e-01
     vertex 8.6200135247e-01 0.0000000000e+00 2.6503708980e-01
   endloop
 endfacet
 facet normal  1.0695500986e-01 -1.5849722624e-01 9.8154941554e-01
   outer loop
     vertex 8.6200135247e-01 0.0000000000e+00 2.6503708980e-01
     vertex 1.0000000000e+00 -7.8983842351e-02 2.3724596059e-01
     vertex 1.0000000000e+00 0.0000000000e+00 2.5000000000e-01
   endloop
 endfacet
 facet normal  1.0695500986e-01 -1.5849722624e-01 -9.8154941554e-01
   outer loop
     vertex 1.0000000000e+00 0.0000000000e+00 2.5000000000e-01
     vertex 8.6200135247e-01 7.4233093830e-02 2.2297600533e-01
     vertex 1.0000000000e+00 7.8983842351e-02 2.3724596059e-01
   endloop
 endfacet
 facet normal  1.0695500986e-01 -1.5849722624e-01 -9.8154941554e-01
   outer loop
     vertex 1.0000000000e+00 0.0000000000e+00 2.5000000000e-01
     vertex 8.6200135247e-01 0.0000000000e+00 2.3496291020e-01
     vertex 8.6200135247e-01 7.4233093830e-02 2.2297600533e-01
   endloop
 endfacet
 facet normal  7.8380500007e-02 -1.5892120618e-01 -9.8417505935e-01
   outer loop
     vertex 8.6200135247e-01 0.0000000000e+00 2.3496291020e-01
     vertex 4.9469990917e-01 6.4991293997e-02 1.9521615454e-01
     vertex 8.6200135247e-01 7.4233093830e-02 2.2297600533e-01
   endloop
 endfacet
 facet normal  7.8380500007e-02 -1.5892120618e-01 -9.8417505935e-01
   outer loop
     vertex 8.6200135247e-01 0.0000000000e+00 2.3496291020e-01
     vertex 4.9469990917e-01 0.0000000000e+00 2.0571072533e-01
     vertex 4.9469990917e-01 6.4991293997e-02 1.9521615454e-01
   endloop
 endfacet
 facet normal  -5.3624336624e-03 -1.5940934147e-01 -9.8719800757e-01
   outer loop
     vertex 4.9469990917e-01 0.0000000000e+00 2.0571072533e-01
     vertex 1.2655783651e-01 0.0000000000e+00 2.0771046340e-01
     vertex 4.9469990917e-01 6.4991293997e-02 1.9521615454e-01
   endloop
 endfacet
 facet normal  -5.3624336624e-03 -1.5940934147e-01 -9.8719800757e-01
   outer loop
     vertex 4.9469990917e-01 6.4991293997e-02 1.9521615454e-01
     vertex 1.2655783651e-01 0.0000000000e+00 2.0771046340e-01
     vertex 1.2655783651e-01 6.5623081985e-02 1.9711387366e-01
   endloop
 endfacet
 facet normal  -3.1327365175e-01 -1.5138731377e-01 -9.3751880000e-01
   outer loop
     vertex 1.2655783651e-01 0.0000000000e+00 2.0771046340e-01
     vertex 0.0000000000e+00 0.0000000000e+00 2.5000000000e-01
     vertex 1.2655783651e-01 6.5623081985e-02 1.9711387366e-01
   endloop
 endfacet
 facet normal  -3.1327365175e-01 -1.5138731377e-01 -9.3751880000e-01
   outer loop
     vertex 1.2655783651e-01 6.5623081985e-02 1.9711387366e-01
     vertex 0.0000000000e+00 0.0000000000e+00 2.5000000000e-01
     vertex 0.0000000000e+00 7.8983842351e-02 2.3724596059e-01
   endloop
 endfacet
 facet normal  -3.1327365175e-01 1.5138731377e-01 9.3751880000e-01
   outer loop
     vertex 0.0000000000e+00 0.0000000000e+00 2.5000000000e-01
     vertex 1.2655783651e-01 9.2344602718e-02 2.7737804752e-01
     vertex 0.0000000000e+00 7.8983842351e-02 2.3724596059e-01
   endloop
 endfacet
 facet normal  -3.1327365175e-01 1.5138731377e-01 9.3751880000e-01
   outer loop
     vertex 0.0000000000e+00 0.0000000000e+00 2.5000000000e-01
     vertex 1.2655783651e-01 0.0000000000e+00 2.9228953660e-01
     vertex 1.2655783651e-01 9.2344602718e-02 2.7737804752e-01
   endloop
 endfacet
 facet normal  -5.3624336624e-03 1.5940934147e-01 9.8719800757e-01
   outer loop
     vertex 1.2655783651e-01 0.0000000000e+00 2.9228953660e-01
     vertex 4.9469990917e-01 9.2976390705e-02 2.7927576664e-01
     vertex 1.2655783651e-01 9.2344602718e-02 2.7737804752e-01
   endloop
 endfacet
 facet normal  -5.3624336624e-03 1.5940934147e-01 9.8719800757e-01
   outer loop
     vertex 1.2655783651e-01 0.0000000000e+00 2.9228953660e-01
     vertex 4.9469990917e-01 0.0000000000e+00 2.9428927467e-01
     vertex 4.9469990917e-01 9.2976390705e-02 2.7927576664e-01
   endloop
 endfacet
 facet normal  7.8380500007e-02 1.5892120618e-01 9.8417505935e-01
   outer loop
     vertex 4.9469990917e-01 0.0000000000e+00 2.9428927467e-01
     vertex 8.6200135247e-01 0.0000000000e+00 2.6503708980e-01
     vertex 4.9469990917e-01 9.2976390705e-02 2.7927576664e-01
   endloop
 endfacet
 facet normal  7.8380500007e-02 1.5892120618e-01 9.8417505935e-01
   outer loop
     vertex 4.9469990917e-01 9.2976390705e-02 2.7927576664e-01
     vertex 8.6200135247e-01 0.0000000000e+00 2.6503708980e-01
     vertex 8.6200135247e-01 8.3734590873e-02 2.5151591585e-01
   endloop
 endfacet
 facet normal  1.0695500986e-01 1.5849722624e-01 9.8154941554e-01
   outer loop
     vertex 8.6200135247e-01 0.0000000000e+00 2.6503708980e-01
     vertex 1.0000000000e+00 0.0000000000e+00 2.5000000000e-01
     vertex 8.6200135247e-01 8.3734590873e-02 2.5151591585e-01
   endloop
 endfacet
 facet normal  1.0695500986e-01 1.5849722624e-01 9.8154941554e-01
   outer loop
     vertex 8.6200135247e-01 8.3734590873e-02 2.5151591585e-01
     vertex 1.0000000000e+00 0.0000000000e+00 2.5000000000e-01
     vertex 1.0000000000e+00 7.8983842351e-02 2.3724596059e-01
   endloop
 endfacet
 facet normal  1.0704239613e-01 -4.5691965967e-01 -8.8304379848e-01
   outer loop
     vertex 1.0000000000e+00 7.8983842351e-02 2.3724596059e-01
     vertex 8.6200135247e-01 1.3872851445e-01 1.8960367918e-01
     vertex 1.0000000000e+00 1.4760682265e-01 2.0173788176e-01
   endloop
 endfacet
 facet normal  1.0704239613e-01 -4.5691965967e-01 -8.8304379848e-01
   outer loop
     vertex 1.0000000000e+00 7.8983842351e-02 2.3724596059e-01
     vertex 8.6200135247e-01 7.4233093830e-02 2.2297600533e-01
     vertex 8.6200135247e-01 1.3872851445e-01 1.8960367918e-01
   endloop
 endfacet
 facet normal  7.8444883316e-02 -4.5814392548e-01 -8.8540981688e-01
   outer loop
     vertex 8.6200135247e-01 7.4233093830e-02 2.2297600533e-01
     vertex 4.9469990917e-01 1.2145722620e-01 1.6599858394e-01
     vertex 8.6200135247e-01 1.3872851445e-01 1.8960367918e-01
   endloop
 endfacet
 facet normal  7.8444883316e-02 -4.5814392548e-01 -8.8540981688e-01
   outer loop
     vertex 8.6200135247e-01 7.4233093830e-02 2.2297600533e-01
     vertex 4.9469990917e-01 6.4991293997e-02 1.9521615454e-01
     vertex 4.9469990917e-01 1.2145722620e-01 1.6599858394e-01
   endloop
 endfacet
 facet normal  -5.3668656070e-03 -4.5955346339e-01 -8.8813389252e-01
   outer loop
     vertex 4.9469990917e-01 6.4991293997e-02 1.9521615454e-01
     vertex 1.2655783651e-01 6.5623081985e-02 1.9711387366e-01
     vertex 4.9469990917e-01 1.2145722620e-01 1.6599858394e-01
   endloop
 endfacet
 facet normal  -5.3668656070e-03 -4.5955346339e-01 -8.8813389252e-01
   outer loop
     vertex 4.9469990917e-01 1.2145722620e-01 1.6599858394e-01
     vertex 1.2655783651e-01 6.5623081985e-02 1.9711387366e-01
     vertex 1.2655783651e-01 1.2263792613e-01 1.6761227563e-01
   endloop
 endfacet
 facet normal  -3.1350713453e-01 -4.3639174855e-01 -8.4337151861e-01
   outer loop
     vertex 1.2655783651e-01 6.5623081985e-02 1.9711387366e-01
     vertex 0.0000000000e+00 7.8983842351e-02 2.3724596059e-01
     vertex 1.2655783651e-01 1.2263792613e-01 1.6761227563e-01
   endloop
 endfacet
 facet normal  -3.1350713453e-01 -4.3639174855e-01 -8.4337151861e-01
   outer loop
     vertex 1.2655783651e-01 1.2263792613e-01 1.6761227563e-01
     vertex 0.0000000000e+00 7.8983842351e-02 2.3724596059e-01
     vertex 0.0000000000e+00 1.4760682265e-01 2.0173788176e-01
   endloop
 endfacet
 facet normal  -3.1350713453e-01 4.3639174855e-01 8.4337151861e-01
   outer loop
     vertex 0.0000000000e+00 7.8983842351e-02 2.3724596059e-01
     vertex 1.2655783651e-01 1.7257571916e-01 2.3586348790e-01
     vertex 0.0000000000e+00 1.4760682265e-01 2.0173788176e-01
   endloop
 endfacet
 facet normal  -3.1350713453e-01 4.3639174855e-01 8.4337151861e-01
   outer loop
     vertex 0.0000000000e+00 7.8983842351e-02 2.3724596059e-01
     vertex 1.2655783651e-01 9.2344602718e-02 2.7737804752e-01
     vertex 1.2655783651e-01 1.7257571916e-01 2.3586348790e-01
   endloop
 endfacet
 facet normal  -5.3668656070e-03 4.5955346339e-01 8.8813389252e-01
   outer loop
     vertex 1.2655783651e-01 9.2344602718e-02 2.7737804752e-01
     vertex 4.9469990917e-01 1.7375641909e-01 2.3747717959e-01
     vertex 1.2655783651e-01 1.7257571916e-01 2.3586348790e-01
   endloop
 endfacet
 facet normal  -5.3668656070e-03 4.5955346339e-01 8.8813389252e-01
   outer loop
     vertex 1.2655783651e-01 9.2344602718e-02 2.7737804752e-01
     vertex 4.9469990917e-01 9.2976390705e-02 2.7927576664e-01
     vertex 4.9469990917e-01 1.7375641909e-01 2.3747717959e-01
   endloop
 endfacet
 facet normal  7.8444883316e-02 4.5814392548e-01 8.8540981688e-01
   outer loop
     vertex 4.9469990917e-01 9.2976390705e-02 2.7927576664e-01
     vertex 8.6200135247e-01 8.3734590873e-02 2.5151591585e-01
     vertex 4.9469990917e-01 1.7375641909e-01 2.3747717959e-01
   endloop
 endfacet
 facet normal  7.8444883316e-02 4.5814392548e-01 8.8540981688e-01
   outer loop
     vertex 4.9469990917e-01 1.7375641909e-01 2.3747717959e-01
     vertex 8.6200135247e-01 8.3734590873e-02 2.5151591585e-01
     vertex 8.6200135247e-01 1.5648513084e-01 2.1387208434e-01
   endloop
 endfacet
 facet normal  1.0704239613e-01 4.5691965967e-01 8.8304379848e-01
   outer loop
     vertex 8.6200135247e-01 8.3734590873e-02 2.5151591585e-01
     vertex 1.0000000000e+00 7.8983842351e-02 2.3724596059e-01
     vertex 8.6200135247e-01 1.5648513084e-01 2.1387208434e-01
   endloop
 endfacet
 facet normal  1.0704239613e-01 4.5691965967e-01 8.8304379848e-01
   outer loop
     vertex 8.6200135247e-01 1.5648513084e-01 2.1387208434e-01
     vertex 1.0000000000e+00 7.8983842351e-02 2.3724596059e-01
     vertex 1.0000000000e+00 1.4760682265e-01 2.0173788176e-01
   endloop
 endfacet
 facet normal  1.0704966823e-01 -7.0304351520e-01 -7.0304351520e-01
   outer loop
     vertex 1.0000000000e+00 1.4760682265e-01 2.0173788176e-01
     vertex 8.6200135247e-01 1.8960367918e-01 1.3872851445e-01
     vertex 1.0000000000e+00 2.0173788176e-01 1.4760682265e-01
   endloop
 endfacet
 facet normal  1.0704966823e-01 -7.0304351520e-01 -7.0304351520e-01
   outer loop
     vertex 1.0000000000e+00 1.4760682265e-01 2.0173788176e-01
     vertex 8.6200135247e-01 1.3872851445e-01 1.8960367918e-01
     vertex 8.6200135247e-01 1.8960367918e-01 1.3872851445e-01
   endloop
 endfacet
 facet normal  7.8450241202e-02 -7.0492749970e-01 -7.0492749970e-01
   outer loop
     vertex 8.6200135247e-01 1.3872851445e-01 1.8960367918e-01
     vertex 4.9469990917e-01 1.6599858394e-01 1.2145722620e-01
     vertex 8.6200135247e-01 1.8960367918e-01 1.3872851445e-01
   endloop
 endfacet
 facet normal  7.8450241202e-02 -7.0492749970e-01 -7.0492749970e-01
   outer loop
     vertex 8.6200135247e-01 1.3872851445e-01 1.8960367918e-01
     vertex 4.9469990917e-01 1.2145722620e-01 1.6599858394e-01
     vertex 4.9469990917e-01 1.6599858394e-01 1.2145722620e-01
   endloop
 endfacet
 facet normal  -5.3672344300e-03 -7.0709659623e-01 -7.0709659623e-01
   outer loop
     vertex 4.9469990917e-01 1.2145722620e-01 1.6599858394e-01
     vertex 1.2655783651e-01 1.2263792613e-01 1.6761227563e-01
     vertex 4.9469990917e-01 1.6599858394e-01 1.2145722620e-01
   endloop
 endfacet
 facet normal  -5.3672344300e-03 -7.0709659623e-01 -7.0709659623e-01
   outer loop
     vertex 4.9469990917e-01 1.6599858394e-01 1.2145722620e-01
     vertex 1.2655783651e-01 1.2263792613e-01 1.6761227563e-01
     vertex 1.2655783651e-01 1.6761227563e-01 1.2263792613e-01
   endloop
 endfacet
 facet normal  -3.1352656223e-01 -6.7145405456e-01 -6.7145405456e-01
   outer loop
     vertex 1.2655783651e-01 1.2263792613e-01 1.6761227563e-01
     vertex 0.0000000000e+00 1.4760682265e-01 2.0173788176e-01
     vertex 1.2655783651e-01 1.6761227563e-01 1.2263792613e-01
   endloop
 endfacet
 facet normal  -3.1352656223e-01 -6.7145405456e-01 -6.7145405456e-01
   outer loop
     vertex 1.2655783651e-01 1.6761227563e-01 1.2263792613e-01
     vertex 0.0000000000e+00 1.4760682265e-01 2.0173788176e-01
     vertex 0.0000000000e+00 2.0173788176e-01 1.4760682265e-01
   endloop
 endfacet
 facet normal  -3.1352656223e-01 6.7145405456e-01 6.7145405456e-01
   outer loop
     vertex 0.0000000000e+00 1.4760682265e-01 2.0173788176e-01
     vertex 1.2655783651e-01 2.3586348790e-01 1.7257571916e-01
     vertex 0.0000000000e+00 2.0173788176e-01 1.4760682265e-01
   endloop
 endfacet
 facet normal  -3.1352656223e-01 6.7145405456e-01 6.7145405456e-01
   outer loop
     vertex 0.0000000000e+00 1.4760682265e-01 2.0173788176e-01
     vertex 1.2655783651e-01 1.7257571916e-01 2.3586348790e-01
     vertex 1.2655783651e-01 2.3586348790e-01 1.7257571916e-01
   endloop
 endfacet
 facet normal  -5.3672344300e-03 7.0709659623e-01 7.0709659623e-01
   outer loop
     vertex 1.2655783651e-01 1.7257571916e-01 2.3586348790e-01
     vertex 4.9469990917e-01 2.3747717959e-01 1.7375641909e-01
     vertex 1.2655783651e-01 2.3586348790e-01 1.7257571916e-01
   endloop
 endfacet
 facet normal  -5.3672344300e-03 7.0709659623e-01 7.0709659623e-01
   outer loop
     vertex 1.2655783651e-01 1.7257571916e-01 2.3586348790e-01
     vertex 4.9469990917e-01 1.7375641909e-01 2.3747717959e-01
     vertex 4.9469990917e-01 2.3747717959e-01 1.7375641909e-01
   endloop
 endfacet
 facet normal  7.8450241202e-02 7.0492749970e-01 7.0492749970e-01
   outer loop
     vertex 4.9469990917e-01 1.7375641909e-01 2.3747717959e-01
     vertex 8.6200135247e-01 1.5648513084e-01 2.1387208434e-01
     vertex 4.9469990917e-01 2.3747717959e-01 1.7375641909e-01
   endloop
 endfacet
 facet normal  7.8450241202e-02 7.0492749970e-01 7.0492749970e-01
   outer loop
     vertex 4.9469990917e-01 2.3747717959e-01 1.7375641909e-01
     vertex 8.6200135247e-01 1.5648513084e-01 2.1387208434e-01
     vertex 8.6200135247e-01 2.1387208434e-01 1.5648513084e-01
   endloop
 endfacet
 facet normal  1.0704966823e-01 7.0304351520e-01 7.0304351520e-01
   outer loop
     vertex 8.6200135247e-01 1.5648513084e-01 2.1387208434e-01
     vertex 1.0000000000e+00 1.4760682265e-01 2.0173788176e-01
     vertex 8.6200135247e-01 2.1387208434e-01 1.5648513084e-01
   endloop
 endfacet
 facet normal  1.0704966823e-01 7.0304351520e-01 7.0304351520e-01
   outer loop
     vertex 8.6200135247e-01 2.1387208434e-01 1.5648513084e-01
     vertex 1.0000000000e+00 1.4760682265e-01 2.0173788176e-01
     vertex 1.0000000000e+00 2.0173788176e-01 1.4760682265e-01
   endloop
 endfacet
 facet normal  1.0704239613e-01 -8.8304379848e-01 -4.5691965967e-01
   outer loop
     vertex 1.0000000000e+00 2.0173788176e-01 1.4760682265e-01
     vertex 8.6200135247e-01 2.2297600533e-01 7.4233093830e-02
     vertex 1.0000000000e+00 2.3724596059e-01 7.8983842351e-02
   endloop
 endfacet
 facet normal  1.0704239613e-01 -8.8304379848e-01 -4.5691965967e-01
   outer loop
     vertex 1.0000000000e+00 2.0173788176e-01 1.4760682265e-01
     vertex 8.6200135247e-01 1.8960367918e-01 1.3872851445e-01
     vertex 8.6200135247e-01 2.2297600533e-01 7.4233093830e-02
   endloop
 endfacet
 facet normal  7.8444883316e-02 -8.8540981688e-01 -4.5814392548e-01
   outer loop
     vertex 8.6200135247e-01 1.8960367918e-01 1.3872851445e-01
     vertex 4.9469990917e-01 1.9521615454e-01 6.4991293997e-02
     vertex 8.6200135247e-01 2.2297600533e-01 7.4233093830e-02
   endloop
 endfacet
 facet normal  7.8444883316e-02 -8.8540981688e-01 -4.5814392548e-01
   outer loop
     vertex 8.6200135247e-01 1.8960367918e-01 1.3872851445e-01
     vertex 4.9469990917e-01 1.6599858394e-01 1.2145722620e-01
     vertex 4.9469990917e-01 1.9521615454e-01 6.4991293997e-02
   endloop
 endfacet
 facet normal  -5.3668656070e-03 -8.8813389252e-01 -4.5955346339e-01
   outer loop
     vertex 4.9469990917e-01 1.6599858394e-01 1.2145722620e-01
     vertex 1.2655783651e-01 1.6761227563e-01 1.2263792613e-01
     vertex 4.9469990917e-01 1.9521615454e-01 6.4991293997e-02
   endloop
 endfacet
 facet normal  -5.3668656070e-03 -8.8813389252e-01 -4.5955346339e-01
   outer loop
     vertex 4.9469990917e-01 1.9521615454e-01 6.4991293997e-02
     vertex 1.2655783651e-01 1.6761227563e-01 1.2263792613e-01
     vertex 1.2655783651e-01 1.9711387366e-01 6.5623081985e-02
   endloop
 endfacet
 facet normal  -3.1350713453e-01 -8.4337151861e-01 -4.3639174855e-01
   outer loop
     vertex 1.2655783651e-01 1.6761227563e-01 1.2263792613e-01
     vertex 0.0000000000e+00 2.0173788176e-01 1.4760682265e-01
     vertex 1.2655783651e-01 1.9711387366e-01 6.5623081985e-02
   endloop
 endfacet
 facet normal  -3.1350713453e-01 -8.4337151861e-01 -4.3639174855e-01
   outer loop
     vertex 1.2655783651e-01 1.9711387366e-01 6.5623081985e-02
     vertex 0.0000000000e+00 2.0173788176e-01 1.4760682265e-01
     vertex 0.0000000000e+00 2.3724596059e-01 7.8983842351e-02
   endloop
 endfacet
 facet normal  -3.1350713453e-01 8.4337151861e-01 4.3639174855e-01
   outer loop
     vertex 0.0000000000e+00 2.0173788176e-01 1.4760682265e-01
     vertex 1.2655783651e-01 2.7737804752e-01 9.2344602718e-02
     vertex 0.0000000000e+00 2.3724596059e-01 7.8983842351e-02
   endloop
 endfacet
 facet normal  -3.1350713453e-01 8.4337151861e-01 4.3639174855e-01
   outer loop
     vertex 0.0000000000e+00 2.0173788176e-01 1.4760682265e-01
     vertex 1.2655783651e-01 2.3586348790e-01 1.7257571916e-01
     vertex 1.2655783651e-01 2.7737804752e-01 9.2344602718e-02
   endloop
 endfacet
 facet normal  -5.3668656070e-03 8.8813389252e-01 4.5955346339e-01
   outer loop
     vertex 1.2655783651e-01 2.3586348790e-01 1.7257571916e-01
     vertex 4.9469990917e-01 2.7927576664e-01 9.2976390705e-02
     vertex 1.2655783651e-01 2.7737804752e-01 9.2344602718e-02
   endloop
 endfacet
 facet normal  -5.3668656070e-03 8.8813389252e-01 4.5955346339e-01
   outer loop
     vertex 1.2655783651e-01 2.3586348790e-01 1.7257571916e-01
     vertex 4.9469990917e-01 2.3747717959e-01 1.7375641909e-01
     vertex 4.9469990917e-01 2.7927576664e-01 9.2976390705e-02
   endloop
 endfacet
 facet normal  7.8444883316e-02 8.8540981688e-01 4.5814392548e-01
   outer loop
     vertex 4.9469990917e-01 2.3747717959e-01 1.7375641909e-01
     vertex 8.6200135247e-01 2.1387208434e-01 1.5648513084e-01
     vertex 4.9469990917e-01 2.7927576664e-01 9.2976390705e-02
   endloop
 endfacet
 facet normal  7.8444883316e-02 8.8540981688e-01 4.5814392548e-01
   outer loop
     vertex 4.9469990917e-01 2.7927576664e-01 9.2976390705e-02
     vertex 8.6200135247e-01 2.1387208434e-01 1.5648513084e-01
     vertex 8.6200135247e-01 2.5151591585e-01 8.3734590873e-02
   endloop
 endfacet
 facet normal  1.0704239613e-01 8.8304379848e-01 4.5691965967e-01
   outer loop
     vertex 8.6200135247e-01 2.1387208434e-01 1.5648513084e-01
     vertex 1.0000000000e+00 2.0173788176e-01 1.4760682265e-01
     vertex 8.6200135247e-01 2.5151591585e-01 8.3734590873e-02
   endloop
 endfacet
 facet normal  1.0704239613e-01 8.8304379848e-01 4.5691965967e-01
   outer loop
     vertex 8.6200135247e-01 2.5151591585e-01 8.3734590873e-02
     vertex 1.0000000000e+00 2.0173788176e-01 1.4760682265e-01
     vertex 1.0000000000e+00 2.3724596059e-01 7.8983842351e-02
   endloop
 endfacet
 facet normal  1.0695500986e-01 -9.8154941554e-01 -1.5849722624e-01
   outer loop
     vertex 1.0000000000e+00 2.3724596059e-01 7.8983842351e-02
     vertex 8.6200135247e-01 2.3496291020e-01 0.0000000000e+00
     vertex 1.0000000000e+00 2.5000000000e-01 0.0000000000e+00
   endloop
 endfacet
 facet normal  1.0695500986e-01 -9.8154941554e-01 -1.5849722624e-01
   outer loop
     vertex 1.0000000000e+00 2.3724596059e-01 7.8983842351e-02
     vertex 8.6200135247e-01 2.2297600533e-01 7.4233093830e-02
     vertex 8.6200135247e-01 2.3496291020e-01 0.0000000000e+00
   endloop
 endfacet
 facet normal  7.8380500007e-02 -9.8417505935e-01 -1.5892120618e-01
   outer loop
     vertex 8.6200135247e-01 2.2297600533e-01 7.4233093830e-02
     vertex 4.9469990917e-01 2.0571072533e-01 0.0000000000e+00
     vertex 8.6200135247e-01 2.3496291020e-01 0.0000000000e+00
   endloop
 endfacet
 facet normal  7.8380500007e-02 -9.8417505935e-01 -1.5892120618e-01
   outer loop
     vertex 8.6200135247e-01 2.2297600533e-01 7.4233093830e-02
     vertex 4.9469990917e-01 1.9521615454e-01 6.4991293997e-02
     vertex 4.9469990917e-01 2.0571072533e-01 0.0000000000e+00
   endloop
 endfacet
 facet normal  -5.3624336624e-03 -9.8719800757e-01 -1.5940934147e-01
   outer loop
     vertex 4.9469990917e-01 1.9521615454e-01 6.4991293997e-02
     vertex 1.2655783651e-01 1.9711387366e-01 6.5623081985e-02
     vertex 4.9469990917e-01 2.0571072533e-01 0.0000000000e+00
   endloop
 endfacet
 facet normal  -5.3624336624e-03 -9.8719800757e-01 -1.5940934147e-01
   outer loop
     vertex 4.9469990917e-01 2.0571072533e-01 0.0000000000e+00
     vertex 1.2655783651e-01 1.9711387366e-01 6.5623081985e-02
     vertex 1.2655783651e-01 2.0771046340e-01 0.0000000000e+00
   endloop
 endfacet
 facet normal  -3.1327365175e-01 -9.3751880000e-01 -1.5138731377e-01
   outer loop
     vertex 1.2655783651e-01 1.9711387366e-01 6.5623081985e-02
     vertex 0.0000000000e+00 2.3724596059e-01 7.8983842351e-02
     vertex 1.2655783651e-01 2.0771046340e-01 0.0000000000e+00
   endloop
 endfacet
 facet normal  -3.1327365175e-01 -9.3751880000e-01 -1.5138731377e-01
   outer loop
     vertex 1.2655783651e-01 2.0771046340e-01 0.0000000000e+00
     vertex 0.0000000000e+00 2.3724596059e-01 7.8983842351e-02
     vertex 0.0000000000e+00 2.5000000000e-01 0.0000000000e+00
   endloop
 endfacet
 facet normal  -3.1327365175e-01 9.3751880000e-01 1.5138731377e-01
   outer loop
     vertex 0.0000000000e+00 2.3724596059e-01 7.8983842351e-02
     vertex 1.2655783651e-01 2.9228953660e-01 0.0000000000e+00
     vertex 0.0000000000e+00 2.5000000000e-01 0.0000000000e+00
   endloop
 endfacet
 facet normal  -3.1327365175e-01 9.3751880000e-01 1.5138731377e-01
   outer loop
     vertex 0.0000000000e+00 2.3724596059e-01 7.8983842351e-02
     vertex 1.2655783651e-01 2.7737804752e-01 9.2344602718e-02
     vertex 1.2655783651e-01 2.9228953660e-01 0.0000000000e+00
   endloop
 endfacet
 facet normal  -5.3624336624e-03 9.8719800757e-01 1.5940934147e-01
   outer loop
     vertex 1.2655783651e-01 2.7737804752e-01 9.2344602718e-02
     vertex 4.9469990917e-01 2.9428927467e-01 0.0000000000e+00
     vertex 1.2655783651e-01 2.9228953660e-01 0.0000000000e+00
   endloop
 endfacet
 facet normal  -5.3624336624e-03 9.8719800757e-01 1.5940934147e-01
   outer loop
     vertex 1.2655783651e-01 2.7737804752e-01 9.2344602718e-02
     vertex 4.9469990917e-01 2.7927576664e-01 9.2976390705e-02
     vertex 4.9469990917e-01 2.9428927467e-01 0.0000000000e+00
   endloop
 endfacet
 facet normal  7.8380500007e-02 9.8417505935e-01 1.5892120618e-01
   outer loop
     vertex 4.9469990917e-01 2.7927576664e-01 9.2976390705e-02
     vertex 8.6200135247e-01 2.5151591585e-01 8.3734590873e-02
     vertex 4.9469990917e-01 2.9428927467e-01 0.0000000000e+00
   endloop
 endfacet
 facet normal  7.8380500007e-02 9.8417505935e-01 1.5892120618e-01
   outer loop
     vertex 4.9469990917e-01 2.9428927467e-01 0.0000000000e+00
     vertex 8.6200135247e-01 2.5151591585e-01 8.3734590873e-02
     vertex 8.6200135247e-01 2.6503708980e-01 0.0000000000e+00
   endloop
 endfacet
 facet normal  1.0695500986e-01 9.8154941554e-01 1.5849722624e-01
   outer loop
     vertex 8.6200135247e-01 2.5151591585e-01 8.3734590873e-02
     vertex 1.0000000000e+00 2.3724596059e-01 7.8983842351e-02
     vertex 8.6200135247e-01 2.6503708980e-01 0.0000000000e+00
   endloop
 endfacet
 facet normal  1.0695500986e-01 9.8154941554e-01 1.5849722624e-01
   outer loop
     vertex 8.6200135247e-01 2.6503708980e-01 0.0000000000e+00
     vertex 1.0000000000e+00 2.3724596059e-01 7.8983842351e-02
     vertex 1.0000000000e+00 2.5000000000e-01 0.0000000000e+00
   endloop
 endfacet
endsolid
